<svg version="1.2" xmlns="http://www.w3.org/2000/svg" viewBox="0 0 187 187" width="187" height="187">
	<title>dinamica_familiar-svg</title>
	<style>
		.s0 { fill: #d8a568 } 
		.s1 { fill: #ffffff } 
	</style>
	<g id="Segunda_pantalla">
		<g>
			<path class="s0" d="m25.5 8.4h122.8c9.2 0 16.6 7.4 16.6 16.6v122.9c0 9.1-7.4 16.6-16.6 16.6h-122.8c-9.2 0-16.6-7.5-16.6-16.6v-122.9c0-9.2 7.4-16.6 16.6-16.6z"/>
			<g id="Capa_1-2">
				<path class="s1" d="m95.2 50.7l-8 5.8-7.9-5.8c-0.4-0.4-1-0.4-1.4 0-0.3 0.3-0.3 0.9 0 1.3l8.4 6.3v6.2c0 0.5 0.4 1 0.9 1 0.5 0 1-0.4 1-1v-6.2l8.3-6.3c0.4-0.4 0.4-1 0-1.3-0.3-0.4-0.9-0.4-1.3 0z"/>
				<path fill-rule="evenodd" class="s1" d="m61.7 22.3c6.2 0 11.3 5 11.3 11.2 0 3-1.2 5.8-3.3 8-2.2 2.1-5 3.3-8 3.3-6.2 0-11.2-5.1-11.2-11.3 0-3 1.1-5.8 3.3-7.9 2.1-2.1 4.9-3.3 7.9-3.3zm8.3 11.2c0-4.5-3.7-8.2-8.3-8.2-2.2 0-4.3 0.8-5.8 2.4-1.6 1.6-2.4 3.6-2.4 5.8 0 4.6 3.7 8.3 8.2 8.3 2.2 0 4.3-0.9 5.9-2.4 1.5-1.6 2.4-3.7 2.4-5.9z"/>
				<path fill-rule="evenodd" class="s1" d="m49 62c-0.4 0-0.8-0.2-1.1-0.5-0.3-0.2-0.4-0.6-0.4-1 0.1-10 5.9-15.2 6.1-15.4 0.6-0.5 1.4-0.5 1.9 0 6.2 5 12.8 0.1 12.8 0 0.6-0.5 1.4-0.4 1.9 0.1 6 5.4 5.8 14.9 5.8 15.3-0.1 0.8-0.7 1.5-1.5 1.5h-25.5zm1.5-3h22.5c-0.2-2.4-0.9-7.4-4-10.8-3.1 1.9-8.9 3.6-14.3 0-1.3 1.5-3.7 5.1-4.2 10.8z"/>
				<path fill-rule="evenodd" class="s1" d="m100.8 33.5c0-3 1.2-5.8 3.3-7.9 2.2-2.1 5-3.3 8-3.3 6.2 0 11.2 5 11.2 11.2 0 3-1.1 5.8-3.3 8-2.1 2.1-4.9 3.3-7.9 3.3-6.2 0-11.3-5.1-11.3-11.3zm5.4-5.8c-1.5 1.6-2.4 3.6-2.4 5.8 0 4.6 3.7 8.3 8.3 8.3 2.2 0 4.3-0.9 5.8-2.4 1.6-1.6 2.4-3.7 2.4-5.9 0-4.5-3.7-8.2-8.2-8.2-2.2 0-4.3 0.8-5.9 2.4z"/>
				<path fill-rule="evenodd" class="s1" d="m124.8 62h-25.5c-0.4 0-0.8-0.2-1-0.5-0.3-0.3-0.5-0.6-0.5-1 0.2-10.1 5.9-15.2 6.2-15.4 0.5-0.5 1.3-0.5 1.9 0 6.1 5 12.7 0.1 12.8 0 0.6-0.5 1.4-0.4 1.9 0.1 6 5.4 5.7 14.9 5.7 15.3 0 0.8-0.7 1.5-1.5 1.5zm-1.5-3c-0.2-2.4-0.9-7.4-3.9-10.8-3.2 1.9-8.9 3.6-14.3 0-1.3 1.6-3.8 5.1-4.2 10.8z"/>
				<path fill-rule="evenodd" class="s1" d="m98.5 79.9c0 3-1.2 5.8-3.3 7.9-2.1 2.2-5 3.3-8 3.3-6.2 0-11.2-5-11.2-11.2 0-3 1.2-5.8 3.3-8 2.1-2.1 4.9-3.3 7.9-3.3 6.2 0 11.3 5.1 11.3 11.3zm-5.4 5.8c1.6-1.5 2.4-3.6 2.4-5.8 0-4.6-3.7-8.3-8.3-8.3-2.2 0-4.2 0.9-5.8 2.4-1.6 1.6-2.4 3.7-2.4 5.9 0 4.6 3.7 8.3 8.3 8.3 2.2 0 4.2-0.9 5.8-2.5z"/>
				<path fill-rule="evenodd" class="s1" d="m73.4 107.9c-0.3-0.3-0.4-0.7-0.4-1.1 0.2-10 5.9-15.1 6.1-15.3 0.6-0.5 1.4-0.5 1.9 0 6.2 5 12.8 0 12.9 0 0.5-0.5 1.3-0.4 1.9 0 5.9 5.5 5.7 15 5.7 15.4 0 0.8-0.7 1.5-1.5 1.5h-25.5c-0.4 0-0.8-0.2-1.1-0.5zm6.9-13.3q0 0 0 0 0 0 0 0zm0 0c-1.3 1.5-3.8 5.1-4.2 10.8h22.4c-0.2-2.5-0.9-7.4-3.9-10.8-3.2 1.9-8.9 3.6-14.3 0z"/>
				<g>
					<path id="Dinámica" class="s1" aria-label="Dinámica"  d="m56.5 119.2h-3.1v9.8h3.1c3.2 0 5.2-1.8 5.2-4.9 0-3-2-4.9-5.2-4.9zm-1.8 8.8v-7.7h1.8c2.5 0 3.9 1.5 3.9 3.8 0 2.4-1.4 3.8-3.9 3.8zm8.6 1.1h1.3v-7.7h-1.3zm0.7-8.9c0.4 0 0.8-0.4 0.8-0.9 0-0.4-0.4-0.8-0.8-0.8-0.5 0-0.9 0.4-0.9 0.8 0 0.5 0.4 0.9 0.9 0.9zm8.4 8.9h1.2v-4.5c0-2.2-1.3-3.3-3.1-3.3-1.1 0-2 0.4-2.5 1.2v-1h-1.3v7.6h1.3v-4.2c0-1.7 0.9-2.5 2.2-2.5 1.3 0 2.2 0.8 2.2 2.4zm2.8-3.9c0 2.4 1.6 4 3.7 4 1.4 0 2.4-0.7 2.8-1.5v1.4h1.3v-7.7h-1.3v1.4c-0.4-0.8-1.4-1.5-2.8-1.5-2.1 0-3.7 1.5-3.7 3.9zm6.5 0c0 1.8-1.2 2.9-2.6 2.9-1.4 0-2.6-1.1-2.6-2.9 0-1.8 1.2-2.8 2.6-2.8 1.4 0 2.6 1.1 2.6 2.8zm-4-5.3v0.9l3-1.6v-1.1zm18.5 9.2h1.3v-4.5c0-2.2-1.4-3.3-3.1-3.3-1.2 0-2.3 0.6-2.7 1.7-0.5-1.1-1.6-1.7-2.9-1.7-1 0-1.9 0.5-2.4 1.3v-1.1h-1.2v7.6h1.2v-4.2c0-1.6 0.9-2.5 2.2-2.5 1.3 0 2.1 0.8 2.1 2.4v4.3h1.3v-4.2c0-1.6 0.8-2.5 2.1-2.5 1.3 0 2.1 0.8 2.1 2.4zm3.4 0h1.2v-7.7h-1.2zm0.6-8.9c0.5 0 0.9-0.4 0.9-0.9 0-0.4-0.4-0.8-0.9-0.8-0.5 0-0.8 0.4-0.8 0.8 0 0.5 0.3 0.9 0.8 0.9zm2.3 5.1c0 2.4 1.6 4 3.8 4 1.9 0 3.1-1.1 3.5-2.6h-1.4c-0.2 0.9-1 1.5-2.1 1.5-1.4 0-2.5-1-2.5-2.9 0-1.9 1.1-2.9 2.5-2.9 1.1 0 1.9 0.6 2.1 1.5h1.4c-0.4-1.6-1.6-2.6-3.5-2.6-2.2 0-3.8 1.6-3.8 4zm8.5 0c0 2.3 1.6 4 3.7 4 1.4 0 2.4-0.8 2.8-1.6v1.4h1.3v-7.6h-1.3v1.4c-0.4-0.8-1.4-1.6-2.8-1.6-2.1 0-3.7 1.6-3.7 4zm6.5 0c0 1.8-1.2 2.8-2.6 2.8-1.4 0-2.6-1-2.6-2.8 0-1.8 1.2-2.9 2.6-2.9 1.4 0 2.6 1.1 2.6 2.9z"/>
					<path id="Familiar" class="s1" aria-label="Familiar"  d="m59.3 146h1.3v-4.4h3.5v-1h-3.5v-3.3h4.3v-1.1h-5.6zm6.6-3.8c0 2.4 1.6 4 3.7 4 1.4 0 2.4-0.8 2.8-1.6v1.4h1.3v-7.6h-1.3v1.4c-0.4-0.8-1.4-1.6-2.8-1.6-2.1 0-3.7 1.6-3.7 4zm6.5 0c0 1.8-1.2 2.8-2.6 2.8-1.4 0-2.6-1-2.6-2.8 0-1.8 1.2-2.9 2.6-2.9 1.4 0 2.6 1.1 2.6 2.9zm14.5 3.8h1.3v-4.5c0-2.2-1.4-3.3-3.1-3.3-1.2 0-2.3 0.6-2.7 1.7-0.5-1.1-1.6-1.7-2.8-1.7-1 0-2 0.5-2.5 1.3v-1.1h-1.2v7.6h1.2v-4.2c0-1.6 0.9-2.5 2.2-2.5 1.3 0 2.1 0.8 2.1 2.4v4.3h1.3v-4.2c0-1.6 0.9-2.5 2.1-2.5 1.3 0 2.1 0.8 2.1 2.4zm3.4 0h1.3v-7.7h-1.3zm0.6-8.9c0.5 0 0.9-0.4 0.9-0.9 0-0.4-0.4-0.8-0.9-0.8-0.4 0-0.8 0.4-0.8 0.8 0 0.5 0.4 0.9 0.8 0.9zm2.8 8.9h1.3v-10.3h-1.3zm3.5 0h1.3v-7.7h-1.3zm0.6-8.9c0.5 0 0.9-0.4 0.9-0.9 0-0.5-0.4-0.9-0.9-0.9-0.5 0-0.8 0.4-0.8 0.9 0 0.5 0.3 0.9 0.8 0.9zm2.3 5c0 2.4 1.6 4 3.7 4 1.4 0 2.4-0.7 2.8-1.5v1.4h1.3v-7.7h-1.3v1.4c-0.4-0.8-1.4-1.5-2.8-1.5-2.1 0-3.7 1.5-3.7 3.9zm6.5 0c0 1.9-1.2 2.9-2.6 2.9-1.4 0-2.6-1.1-2.6-2.9 0-1.8 1.2-2.8 2.6-2.8 1.4 0 2.6 1.1 2.6 2.8zm4.8-0.3c0-1.8 0.9-2.3 2.1-2.3h0.3v-1.3c-1.2 0-2 0.5-2.4 1.4v-1.3h-1.3v7.7h1.3z"/>
				</g>
			</g>
		</g>
	</g>
</svg>