<?xml version="1.0" encoding="UTF-8"?><svg id="Capa_2" xmlns="http://www.w3.org/2000/svg" viewBox="0 0 84.91 142.45"><defs><style>.cls-1{font-family:Poppins-Regular, Poppins;font-size:15.3px;}.cls-1,.cls-2{fill:#fff;}.cls-2{stroke-width:0px;}</style></defs><g id="Capa_1-2"><path class="cls-2" d="M51.42,30.56l-8.59,6.33-8.59-6.33c-.39-.39-1.03-.39-1.42,0-.39.39-.39,1.03,0,1.42l8.99,6.8v6.72c0,.55.45,1,1,1s1-.44,1-1v-6.69l9.03-6.83c.39-.39.39-1.02,0-1.42-.39-.39-1.02-.39-1.41,0Z"/><path class="cls-2" d="M6.78,3.55c-2.29,2.29-3.55,5.33-3.55,8.56,0,6.68,5.44,12.11,12.11,12.11h0c3.23,0,6.27-1.26,8.56-3.55,2.29-2.29,3.55-5.33,3.55-8.56,0-6.68-5.44-12.11-12.11-12.11-3.23,0-6.27,1.26-8.56,3.55ZM24.25,12.11c0,2.37-.93,4.61-2.61,6.3-1.68,1.68-3.92,2.61-6.29,2.61h0c-4.91,0-8.9-4-8.91-8.9,0-2.38.93-4.61,2.61-6.3,1.68-1.68,3.92-2.61,6.3-2.61,4.91,0,8.9,4,8.91,8.91Z"/><path class="cls-2" d="M1.6,42.76h27.48c.86,0,1.57-.69,1.6-1.55.01-.43.28-10.66-6.16-16.55-.57-.53-1.44-.56-2.06-.09-.07.06-7.18,5.4-13.8.01-.6-.49-1.47-.48-2.06.03C6.35,24.84.16,30.35,0,41.14c0,.43.16.84.46,1.15.3.31.71.48,1.14.48ZM7.84,27.95c5.78,3.84,11.99,2.02,15.4-.03,3.26,3.69,4.02,9.03,4.2,11.64H3.28c.49-6.11,3.15-9.96,4.56-11.61Z"/><path class="cls-2" d="M69.57,24.22h0c3.23,0,6.27-1.26,8.56-3.55,2.29-2.29,3.55-5.33,3.55-8.56,0-6.68-5.44-12.11-12.11-12.11-3.23,0-6.27,1.26-8.56,3.55-2.29,2.29-3.55,5.33-3.55,8.56,0,6.68,5.44,12.11,12.11,12.11ZM63.27,5.82c1.68-1.68,3.92-2.61,6.3-2.61,4.91,0,8.9,4,8.91,8.91,0,2.37-.93,4.61-2.61,6.3-1.68,1.68-3.92,2.61-6.29,2.61h0c-4.91,0-8.9-4-8.91-8.9,0-2.38.93-4.61,2.61-6.3Z"/><path class="cls-2" d="M84.91,41.21c.01-.43.28-10.66-6.16-16.55-.57-.53-1.44-.56-2.06-.09-.07.06-7.18,5.4-13.8.01-.6-.49-1.47-.48-2.06.03-.26.23-6.46,5.73-6.61,16.52,0,.43.16.84.46,1.15.3.31.71.48,1.14.48h27.48c.86,0,1.57-.69,1.6-1.55ZM57.5,39.56c.49-6.11,3.15-9.97,4.56-11.61,5.78,3.84,11.98,2.02,15.4-.03,3.26,3.69,4.02,9.03,4.2,11.64h-24.15Z"/><path class="cls-2" d="M42.83,49.94c-3.23,0-6.27,1.26-8.56,3.55-2.29,2.29-3.55,5.33-3.55,8.56,0,6.68,5.44,12.11,12.11,12.11h0c3.23,0,6.27-1.26,8.56-3.55,2.29-2.29,3.55-5.33,3.55-8.56,0-6.68-5.44-12.11-12.11-12.11ZM49.12,68.35c-1.68,1.68-3.92,2.61-6.29,2.61h0c-4.91,0-8.91-3.99-8.91-8.9,0-2.38.93-4.61,2.61-6.3,1.69-1.68,3.92-2.61,6.3-2.61,4.91,0,8.9,4,8.91,8.9,0,2.37-.93,4.61-2.61,6.29Z"/><path class="cls-2" d="M29.09,92.71h27.48c.86,0,1.57-.69,1.6-1.55.01-.43.27-10.66-6.16-16.55-.57-.53-1.44-.56-2.06-.09-.07.06-7.18,5.4-13.8.01-.6-.49-1.48-.48-2.06.03-.26.23-6.45,5.73-6.61,16.53,0,.43.16.84.46,1.15.3.3.71.48,1.14.48ZM35.33,77.89c5.78,3.84,11.98,2.02,15.4-.03,3.26,3.69,4.02,9.03,4.2,11.64h-24.15c.49-6.11,3.15-9.96,4.56-11.61Z"/><text class="cls-1" transform="translate(5.26 115.34)"><tspan x="0" y="0">Dinámica</tspan><tspan x="6.36" y="18.36">Familiar</tspan></text></g></svg>