<?xml version="1.0" encoding="UTF-8"?><svg id="Capa_2" xmlns="http://www.w3.org/2000/svg" viewBox="0 0 91.36 99.75"><defs><style>.cls-1{fill:#fff;stroke-width:0px;}</style></defs><g id="Capa_1-2"><path class="cls-1" d="M55.33,32.88l-9.25,6.81-9.25-6.81c-.42-.42-1.1-.42-1.52,0-.42.42-.42,1.11,0,1.53l9.67,7.31v7.23c0,.6.48,1.07,1.08,1.07s1.08-.48,1.08-1.07v-7.19l9.71-7.35c.42-.42.42-1.1,0-1.53-.42-.42-1.1-.42-1.52,0Z"/><path class="cls-1" d="M7.3,3.82c-2.46,2.47-3.82,5.74-3.82,9.21,0,7.18,5.85,13.03,13.03,13.03h0c3.48,0,6.75-1.36,9.21-3.82,2.46-2.47,3.82-5.74,3.82-9.21,0-7.18-5.85-13.03-13.03-13.03-3.48,0-6.75,1.36-9.21,3.82ZM26.09,13.03c0,2.55-1,4.96-2.81,6.77-1.81,1.81-4.22,2.81-6.77,2.81h0c-5.28,0-9.58-4.3-9.58-9.58,0-2.56,1-4.96,2.81-6.78,1.81-1.81,4.22-2.81,6.77-2.81,5.28,0,9.58,4.3,9.58,9.58Z"/><path class="cls-1" d="M1.72,46.01h29.57c.93,0,1.69-.74,1.72-1.67.02-.46.3-11.47-6.62-17.81-.62-.57-1.55-.61-2.22-.1-.08.06-7.73,5.81-14.84.01-.65-.53-1.59-.51-2.22.04C6.83,26.73.17,32.65,0,44.26c0,.46.17.91.5,1.23.32.33.77.51,1.23.51ZM8.44,30.07c6.22,4.13,12.9,2.17,16.57-.04,3.51,3.97,4.33,9.72,4.51,12.52H3.53c.53-6.57,3.39-10.72,4.91-12.49Z"/><path class="cls-1" d="M74.85,26.06h0c3.48,0,6.75-1.36,9.21-3.82,2.46-2.47,3.82-5.74,3.82-9.21,0-7.18-5.85-13.03-13.03-13.03-3.48,0-6.75,1.36-9.21,3.82-2.46,2.47-3.82,5.74-3.82,9.21,0,7.18,5.85,13.03,13.03,13.03ZM68.08,6.26c1.81-1.81,4.22-2.81,6.77-2.81,5.28,0,9.58,4.3,9.58,9.58,0,2.55-1,4.96-2.81,6.77-1.81,1.81-4.21,2.81-6.77,2.81h0c-5.28,0-9.58-4.3-9.58-9.58,0-2.56,1-4.96,2.81-6.78Z"/><path class="cls-1" d="M91.36,44.34c.02-.46.3-11.47-6.62-17.81-.62-.57-1.55-.61-2.22-.1-.08.06-7.73,5.81-14.84.01-.65-.53-1.59-.51-2.22.04-.28.25-6.95,6.17-7.11,17.78,0,.46.17.91.5,1.23.32.33.77.51,1.23.51h29.57c.93,0,1.69-.74,1.72-1.67ZM61.87,42.56c.53-6.58,3.39-10.72,4.91-12.49,6.22,4.13,12.89,2.17,16.57-.04,3.51,3.97,4.33,9.72,4.51,12.52h-25.99Z"/><path class="cls-1" d="M46.08,53.74c-3.48,0-6.75,1.36-9.21,3.82-2.46,2.46-3.82,5.74-3.82,9.21,0,7.18,5.85,13.03,13.03,13.03h0c3.48,0,6.75-1.36,9.21-3.82,2.46-2.47,3.82-5.74,3.82-9.21,0-7.18-5.85-13.03-13.03-13.03ZM52.86,73.54c-1.81,1.81-4.22,2.81-6.77,2.81h0c-5.28,0-9.58-4.3-9.58-9.58,0-2.56,1-4.96,2.81-6.77,1.81-1.81,4.22-2.81,6.77-2.81,5.28,0,9.58,4.3,9.58,9.58,0,2.55-1,4.96-2.81,6.77Z"/><path class="cls-1" d="M31.29,99.75h29.57c.93,0,1.69-.74,1.72-1.67.01-.47.3-11.47-6.63-17.81-.62-.57-1.55-.6-2.21-.1-.08.06-7.73,5.81-14.84.02-.65-.53-1.59-.51-2.22.03-.28.25-6.95,6.17-7.11,17.78,0,.46.17.91.5,1.23.33.33.77.51,1.23.51ZM38.01,83.81c6.22,4.13,12.9,2.17,16.57-.04,3.51,3.97,4.33,9.72,4.51,12.52h-25.99c.53-6.57,3.39-10.72,4.91-12.49Z"/></g></svg>