<?xml version="1.0" encoding="UTF-8"?><svg id="Capa_2" xmlns="http://www.w3.org/2000/svg" viewBox="0 0 112.43 112.89"><defs><style>.cls-1{font-family:Poppins-SemiBold, Poppins;font-size:26.95px;font-weight:600;}.cls-1,.cls-2{fill:#fff;}.cls-2{stroke-width:0px;}</style></defs><g id="Capa_1-2"><text class="cls-1" transform="translate(0 96.91)"><tspan x="0" y="0">Familiar</tspan></text><path class="cls-2" d="M32.97,63.16c0,.45.17.89.49,1.21.32.32.75.5,1.21.5h37.47c.91,0,1.66-.73,1.69-1.64,0-.23.07-2.63-.43-5.92h27.35c.91,0,1.66-.73,1.69-1.64.02-.58.37-14.3-8.23-22.18-.61-.56-1.52-.6-2.17-.09-.1.08-10.11,7.59-19.42,0-.64-.52-1.56-.5-2.18.03-.2.17-2.93,2.61-5.31,7.31-.55-.24-1.2-.18-1.7.2-.41.31-10.16,7.56-19.42,0-.45-.37-1.05-.46-1.58-.3-1.2-2.57-2.85-5.08-5.14-7.18-.61-.56-1.52-.6-2.17-.09-.1.08-10.11,7.59-19.42,0-.64-.52-1.56-.5-2.18.03-.35.31-8.63,7.67-8.84,22.16,0,.45.17.89.49,1.21s.75.51,1.21.51h27.18c-.32,1.8-.54,3.74-.57,5.84ZM71.71,36.96c8.85,6.18,17.89,1.89,21.13-.06,5.03,5.4,6,13.57,6.18,17.02h-26.3c-.86-3.46-2.37-7.34-5.03-10.63,1.4-3.07,3.03-5.19,4.03-6.33ZM43.1,44.52c8.85,6.18,17.89,1.89,21.13-.06,5.03,5.4,6,13.57,6.18,17.03h-33.98c.6-9.1,4.77-14.81,6.67-16.96ZM8.11,53.93c.6-9.1,4.77-14.81,6.67-16.96,8.85,6.18,17.89,1.89,21.13-.06,1.74,1.86,2.98,4.06,3.88,6.27-1.68,2.08-4.03,5.66-5.49,10.75H8.11Z"/><path class="cls-2" d="M9.07,16.03c0,8.83,7.19,16.01,16.02,16.01h0c4.27,0,8.29-1.67,11.32-4.7.42-.42.81-.86,1.17-1.31,1.18,7.67,7.81,13.57,15.81,13.57h0c4.27,0,8.29-1.67,11.32-4.7,2.53-2.53,4.09-5.75,4.54-9.22,2.93,3.85,7.55,6.36,12.75,6.36h0c4.27,0,8.29-1.67,11.32-4.7,3.03-3.03,4.7-7.05,4.7-11.32,0-8.83-7.19-16.01-16.02-16.01-4.27,0-8.3,1.67-11.32,4.7-2.52,2.53-4.09,5.75-4.54,9.22-2.93-3.86-7.55-6.36-12.75-6.36-4.27,0-8.3,1.67-11.32,4.7-.42.42-.8.86-1.17,1.32-1.18-7.68-7.81-13.57-15.81-13.57-4.27,0-8.3,1.67-11.32,4.7-3.03,3.03-4.7,7.05-4.69,11.33ZM73.08,7.09c2.39-2.39,5.56-3.71,8.93-3.71,6.96,0,12.63,5.67,12.64,12.63,0,3.37-1.31,6.54-3.71,8.93-2.39,2.39-5.56,3.71-8.93,3.71h0c-6.96,0-12.63-5.67-12.64-12.63,0-3.37,1.32-6.54,3.7-8.93ZM44.46,14.65c2.39-2.39,5.56-3.71,8.93-3.71,6.96,0,12.63,5.67,12.64,12.63,0,3.37-1.31,6.54-3.71,8.93-2.39,2.39-5.56,3.71-8.93,3.71h0c-6.96,0-12.63-5.67-12.63-12.63,0-3.37,1.32-6.54,3.7-8.93ZM25.09,3.38c6.96,0,12.63,5.67,12.64,12.63,0,3.37-1.31,6.54-3.71,8.93-2.39,2.39-5.56,3.71-8.93,3.71h0c-6.96,0-12.63-5.67-12.64-12.63,0-3.37,1.31-6.54,3.7-8.93,2.39-2.39,5.56-3.71,8.93-3.71Z"/></g></svg>