<svg version="1.2" xmlns="http://www.w3.org/2000/svg" viewBox="0 0 180 202" width="180" height="202">
	<title>Academico</title>
	<style>
		.s0 { fill: none;stroke: #bcbec0;stroke-miterlimit:10 } 
		.s1 { fill: #f2c38c } 
		.s2 { opacity: .6;fill: #e2b074 } 
		.s3 { fill: #c69661 } 
		.s4 { fill: #f7d19a } 
		.s5 { fill: #d8a568 } 
		.s6 { opacity: .3;mix-blend-mode: multiply;fill: #212121 } 
		.s7 { fill: #414042 } 
		.s8 { fill: #353535 } 
		.s9 { fill: #6d6e71 } 
		.s10 { fill: #4c2608 } 
	</style>
	<path class="s0" d="m5.8 22l84.6-20.1 80.3 20.1"/>
	<path class="s1" d="m5.8 22h169.2c2.9 0 5.4 2.5 5.4 5.4v169.2c0 3-2.5 5.4-5.4 5.4h-169.2c-3 0-5.4-2.4-5.4-5.4v-169.2c0-2.9 2.4-5.4 5.4-5.4z"/>
	<path class="s2" d="m160.5 132.1c-8.1-0.4-24.8 1.4-32.8 0.3-4.3-0.7-8.7-1.5-13-2.2-9.4 0.3-18.8 0.6-28.2 0.9-14.7 0.5-29.4 0.9-44.1 0.9-8.6 0-17.2-1.3-25.5-3.4-5-1.2-10.1-2.6-15.2-3.5q-0.7-0.1-1.3-0.1v71.6c0 3 2.4 5.4 5.4 5.4h169.2c2.9 0 5.4-2.4 5.4-5.4v-60.8c-9.7-0.3-10.3-3.4-19.9-3.8z"/>
	<path class="s3" d="m175 197.4h-169.3c-2.9 0-5.3-2.4-5.3-5.4v2.4c0 2.9 0.8 7.6 5.4 7.6h169.2c5.3 0 5.3-4.7 5.3-7.6v-2.4c0 3-2.4 5.4-5.3 5.4z"/>
	<path class="s4" d="m175 22h-169.3c-2.9 0-5.3 4-5.3 7v1.5c0-3 2.4-5.4 5.4-5.4h169.2c2.9 0 5.3 2.4 5.3 5.4v-1.5c0-3-2.4-7-5.3-7z"/>
	<path class="s5" d="m194.5 29.1l-6.1 4.5-11.1 0.4-13-2.5-8 0.2-11.5-2.5-18.2 3.4-34.2-1.8-9.3 0.3-9.2 3.1-15.3-2.4-10.2 3.2-1.8-1.2-6.5-4.3-7.7 0.2-6.1 3.1-11.8 0.3-7.4-2.6-7.9 0.2-16.7 6.3 18.5-2 8.9 1.6 17.7 1.9 8.1-6.4 18.1 5.6 4.8-4.5 10.7 4 11-0.3 4.3-2.6 7.9-2.1 8.2 4.1 8-0.3 13.1-0.4 8.4-0.2 8.3-0.3 6.7-2.6 6.5 2.2 4.7-0.1 5-0.2 8.2-0.2 7.4 2.6 8.8-0.2 4.7-0.2 4-7.3z"/>
	<path class="s5" d="m-23.5 52.2l9.4-4.5 17.1-0.3 19.7 2.5 12.2-0.2 17.5 2.6 27.8-3.4 52.1 2 14.3-0.3 14.1-3.1 23.3 2.5 15.6-3.2 2.7 1.2 9.9 4.3 11.7-0.2 9.3-3 18-0.3 11.2 2.6 12.2-0.2 25.5-6.1-28.3 1.9-13.5-1.6-26.9-2-12.5 6.4-27.6-5.7-7.3 4.4-16.3-4-16.7 0.3-6.6 2.6-12.1 2-12.5-4-12.2 0.2-20 0.3-12.8 0.3-12.6 0.2-10.3 2.6-9.9-2.3-7.2 0.2-7.6 0.1-12.6 0.2-11.2-2.6-13.5 0.2-7.2 0.1-6.2 7.3z"/>
	<path class="s5" d="m-108.4 57l9.4 4.5 17.1 0.2 19.8-2.6 12.1 0.2 17.5-2.6 27.8 3.3 52.1-2.1 14.3 0.2 14.1 3.1 23.3-2.6 15.6 3.1 2.7-1.1 9.9-4.4 11.7 0.2 9.4 3 17.9 0.2 11.2-2.7 12.2 0.2 25.5 6.1-28.3-1.8-13.4 1.6-27 2.1-12.5-6.3-27.6 5.7-7.3-4.4-16.3 4-16.7-0.2-6.6-2.6-12.1-2-12.5 4.1-12.1-0.1-20-0.3-12.9-0.2-12.6-0.2-10.3-2.6-9.9 2.3-7.2-0.1-7.6-0.1-12.5-0.2-11.3 2.7-13.5-0.2-7.1-0.1-6.3-7.3z"/>
	<path class="s5" d="m194.5 110.5l-6.1-4.5-11.1-0.3-13 2.5-8-0.3-11.5 2.5-18.2-3.4-34.2 1.9-9.3-0.3-9.2-3.2-15.3 2.5-10.2-3.2-1.8 1.2-6.5 4.3-7.7-0.3-6.1-3-11.8-0.4-7.4 2.7-7.9-0.3-16.7-6.2 18.5 2 8.9-1.6 17.7-1.9 8.1 6.4 18.1-5.6 4.8 4.4 10.7-3.9 11 0.3 4.3 2.6 7.9 2 8.2-4 8 0.2 13.1 0.4 8.4 0.3 8.3 0.2 6.7 2.7 6.5-2.3 4.7 0.2 5 0.1 8.2 0.3 7.4-2.7 8.8 0.3 4.7 0.1 4 7.3z"/>
	<path class="s5" d="m-23.5 87.5l9.4 4.4 17.1 0.3 19.7-2.5 12.2 0.2 17.5-2.5 27.8 3.3 52.1-1.9 14.3 0.3 14.1 3.1 23.3-2.5 15.6 3.1 2.7-1.1 9.9-4.4 11.7 0.3 9.3 3 18 0.3 11.2-2.7 12.2 0.2 25.5 6.2-28.3-1.9-13.5 1.6-26.9 2-12.5-6.4-27.6 5.7-7.3-4.5-16.3 4-16.7-0.2-6.6-2.6-12.1-2.1-12.5 4.1-12.2-0.2-20-0.4-12.8-0.2-12.6-0.2-10.3-2.7-9.9 2.3-7.2-0.1-7.6-0.1-12.6-0.3-11.2 2.7-13.5-0.2-7.2-0.1-6.2-7.3z"/>
	<path class="s5" d="m-108.4 82.6l9.4-4.4 17.1-0.3 19.8 2.6 12.1-0.1 17.5 2.5 27.8-3.2 52.1 2.1 14.3-0.2 14.1-3.1 23.3 2.5 15.6-3.1 2.7 1.2 9.9 4.4 11.7-0.2 9.4-3 17.9-0.3 11.2 2.7 12.2-0.1 25.5-6.1-28.3 1.8-13.4-1.6-27-2.1-12.5 6.3-27.6-5.7-7.3 4.4-16.3-4.1-16.7 0.3-6.6 2.5-12.1 2.1-12.5-4.2-12.1 0.2-20 0.3-12.9 0.2-12.6 0.2-10.3 2.6-9.9-2.3-7.2 0.1-7.6 0.1-12.5 0.2-11.3-2.7-13.5 0.2-7.1 0.1-6.3 7.2z"/>
	<path class="s5" d="m194.8 116.9l-11.4 4.3h-20.6l-23.8-2.9h-14.7l-21.1-2.9-33.6 2.8-62.9-2.9h-17.3l-17 2.8-28.2-2.9-18.8 2.9-3.2-1.3-11.9-4.5h-14.1l-11.4 2.9-21.7-0.1-13.5-2.8-14.6-0.1-31 5.7 34.2-1.4 16.2 1.9 32.5 2.5 15.3-6.1 33.1 6.1 8.9-4.3 19.6 4.4h20.2l8-2.5 14.7-1.8 15 4.3h14.7l24.1 0.1h15.5 15.2l12.5-2.4 11.9 2.4h8.7 9.2l15.2 0.1 13.5 2.8 16.2 0.1h8.7l7.7-7.2z"/>
	<path class="s5" d="m-23.8 131.7l9.6-4.2 17 0.2 19.7 3 12.1 0.1 17.5 3.1 27.9-2.6 52 3.3 14.3 0.2 14.2-2.7 23.2 3 15.6-2.7 2.7 1.3 9.8 4.6 11.7 0.1 9.5-2.8 17.9 0.2 11.2 3 12.1 0.1 25.7-5.5-28.3 1.2-13.5-2-26.8-2.7-12.7 6-27.4-6.4-7.4 4.2-16.2-4.4-16.8-0.2-6.6 2.4-12.2 1.7-12.4-4.4-12.1-0.1-20-0.2-12.9-0.1-12.6-0.2-10.3 2.4-9.8-2.6h-7.2l-7.7-0.1-12.5-0.1-11.2-3-13.5-0.1-7.1-0.1-6.4 7.1z"/>
	<path class="s5" d="m-108.4 140.9l9.4 4.4 17.1 0.3 19.8-2.6 12.1 0.2 17.5-2.6 27.8 3.3 52.1-2.1 14.3 0.2 14.1 3 23.3-2.5 15.6 3.1 2.7-1.2 9.9-4.3 11.7 0.1 9.4 3 17.9 0.3 11.2-2.7 12.2 0.2 25.5 6.1-28.3-1.9-13.4 1.7-27 2-12.5-6.3-27.6 5.8-7.3-4.5-16.3 4.1-16.7-0.2-6.6-2.6-12.1-2-12.5 4.1-12.1-0.2-20-0.3-12.9-0.2-12.6-0.1-10.3-2.6-9.9 2.3-7.2-0.1-7.6-0.2-12.5-0.1-11.3 2.6-13.5-0.1-7.1-0.2-6.3-7.2z"/>
	<path class="s5" d="m194.5 194.4l-6.1-4.5-11.1-0.3-13 2.5-8-0.3-11.5 2.5-18.2-3.4-34.2 1.8-9.3-0.2-9.2-3.2-15.3 2.4-10.2-3.1-1.8 1.1-6.5 4.3-7.7-0.2-6.1-3.1-11.8-0.3-7.4 2.6-7.9-0.2-16.7-6.2 18.5 2 8.9-1.6 17.7-1.9 8.1 6.3 18.1-5.5 4.8 4.4 10.7-4 11 0.4 4.3 2.5 7.9 2.1 8.2-4 8 0.2 13.1 0.4 8.4 0.3 8.3 0.2 6.7 2.7 6.5-2.3 4.7 0.1 5 0.2 8.2 0.3 7.4-2.7 8.8 0.3 4.7 0.1 4 7.3z"/>
	<path class="s5" d="m-23.3 166.7l9.3 4.7 17 0.8 19.8-1.9 12.2 0.5 17.5-2 27.7 4.1 52.2-0.4 14.3 0.7 14 3.5 23.4-1.8 15.4 3.6 2.7-1.1 10.1-4 11.6 0.5 9.3 3.3 18 0.8 11.3-2.3 12.1 0.6 25.3 6.8-28.2-2.7-13.5 1.2-27 1.2-12.3-6.7-27.7 4.9-7.2-4.7-16.4 3.6-16.7-0.8-6.5-2.8-12-2.4-12.7 3.7-12.1-0.5-20-1-12.9-0.6-12.5-0.5-10.2-3-10 2-7.2-0.3-7.6-0.4-12.5-0.6-11.4 2.4-13.4-0.6-7.2-0.4-6-7.4z"/>
	<path class="s5" d="m-108.4 159.8l16.4-5.7 29.6 0.5 34.3 4.4 21 0.4 30.3 4.4 48.4-3.3 90.4 5.3 24.8 0.4 24.5-3.6 40.4 4.5 27.1-3.5 4.6 1.8 17.1 6.4 20.3 0.3 16.4-3.7 31.1 0.5 19.4 4.2 21.1 0.3 44.5-7.2-49.1 1.2-23.4-2.9-46.7-4.1-21.9 8.2-47.6-9.2-12.8 5.8-28.2-6.4-29.1-0.4-11.5 3.2-21 2.2-21.6-6.2-21.1-0.3-34.7-0.6-22.3-0.3-21.8-0.3-18 3.1-17.1-3.6-12.5-0.2-13.2-0.2-21.8-0.3-19.4-4.3-23.4-0.3-12.5-0.2-11 9.7z"/>
	<path class="s6" d="m95.9 6.5c0 3.1-2.5 6.4-5.5 6.4-3.1 0-5.6-3.3-5.6-6.4 0-3 2.5-5.5 5.6-5.5 3 0 5.5 2.5 5.5 5.5z"/>
	<path class="s7" d="m95.9 6.5c0 3.1-2.5 5.6-5.5 5.6-3.1 0-5.6-2.5-5.6-5.6 0-3 2.5-5.5 5.6-5.5 3 0 5.5 2.5 5.5 5.5z"/>
	<path class="s8" d="m90.5 9.1c-2.1 0-3.5-1.1-4.1-2.6 0 2.2 1.8 4.6 4 4.6 2.2 0 3.9-2.3 4-4.5-0.6 1.4-1.9 2.5-3.9 2.5z"/>
	<path class="s7" d="m94.4 6.5c0 2.2-1.8 4-4 4-2.2 0-4-1.8-4-4 0-2.2 1.8-4 4-4 2.2 0 4 1.8 4 4z"/>
	<path class="s9" d="m93.2 3.7c0.4 0.5 0.6 1.2 0.6 1.9 0 1.9-1.6 3.4-3.5 3.4-1.8 0-3.4-1.5-3.4-3.4 0-0.7 0.2-1.4 0.6-1.9-0.7 0.7-1.2 1.7-1.2 2.8 0 2.2 1.8 4 4 4 2.2 0 4-1.8 4-4 0-1.1-0.4-2.1-1.1-2.8z"/>
	<path fill-rule="evenodd" class="s10" d="m60.1 176.4v-1.5-36.9q-0.9-1.3-0.9-2.6c0-3.8 5.3-6.6 12.6-8.3l-2.8-25.4c-0.1-0.5 0-0.9 0.2-1.2v-0.1q0.2-0.2 0.3-0.3l3.1-15c0.2-0.7 0.6-1.2 1.2-1.3 0.6-0.1 1.2 0.3 1.5 1l6.4 14c0.4 0.2 0.8 0.7 0.9 1.3l2.8 25.3q2-0.1 3.9-0.1h0.2v-49.1c0-2.2 1.8-4 4-4h16c2.2 0 4 1.8 4 4v53c3.7 1.6 6 3.7 6 6.2q0 1.7-1.4 3.2v37.9h-0.4c-2.7 5.6-16.7 8.1-28.6 8.1-11.9 0-25.9-2.5-28.6-8.1h-0.4zm53.5-38.2c2-1.1 2.8-2.1 2.8-2.9 0-0.7-0.8-1.8-2.8-2.8zm-21.8 4c4.2-0.1 8.1-0.4 11.9-1q0.6-0.3 1.3-0.3c1.6-0.3 3.1-0.7 4.6-1.2q0.8-0.2 1.6-0.5v-0.2h-6.4c-0.6 0-1-0.5-1-1q0-0.4 0.3-0.7 0.2-0.3 0.7-0.3h6.4v-4.1h-11c-0.7 0-1-0.5-1-1q0-0.4 0.2-0.7 0.3-0.3 0.8-0.4h11v-4.1h-6.4c-0.6 0-1-0.5-1-1q0-0.4 0.3-0.7 0.2-0.3 0.7-0.3h6.4v-4.1h-6.4c-0.6 0-1-0.5-1-1q0-0.4 0.3-0.7 0.2-0.3 0.7-0.3h6.4v-4.1h-6.4c-0.6 0-1-0.5-1-1q0-0.4 0.3-0.7 0.2-0.3 0.7-0.3h6.4v-4.1h-11c-0.7 0-1-0.5-1-1q0-0.4 0.2-0.7 0.3-0.3 0.8-0.3h11v-4.1h-6.4c-0.6 0-1-0.5-1-1q0-0.4 0.3-0.7 0.2-0.3 0.7-0.4h6.4v-4h-6.4c-0.6 0-1-0.6-1-1.1q0-0.4 0.3-0.6 0.2-0.4 0.7-0.4h6.4v-4.1h-6.4c-0.6 0-1-0.5-1-1q0-0.4 0.3-0.7 0.2-0.3 0.7-0.3h6.4v-11.9c0-1-0.8-1.8-1.7-1.8h-16c-0.9 0-1.7 0.8-1.7 1.8 0 0 0 66.1 0 66.1zm-2.4-14q-1.9 0-3.6 0.1l1.5 14q1 0 2.1 0c0 0 0.1 0 0.1 0v-14.1c-0.1 0-0.1 0-0.1 0zm-0.1 17.2c-10.8 0-21.1-1.9-26.2-4.9v34.1c0.3 1.6 3.1 3.3 7.6 4.6 5.1 1.5 11.6 2.3 18.4 2.3 6.8 0 13.4-0.8 18.4-2.3 4.5-1.3 7.3-3 7.6-4.6v-33.9c-5.3 2.9-15.1 4.7-25.8 4.7zm-16.6-46.6l5.7-0.6-2.2-4.7-2.4 0.2zm-0.7 4.1l4.3 38.6q0.4 0 0.8 0l0.7 0.1q0.1 0 0.2 0 0.4 0 0.9 0.1c2.1 0.2 3.9 0.3 5.5 0.4l-4.5-40.1zm-9.7 32.4c0 1.1 1.9 2.9 7.1 4.5q1.9 0.6 4 1.1l-1.2-10.9q-1.4 0.3-2.8 0.7c-5.2 1.6-7.1 3.4-7.1 4.6z"/>
	<path fill-rule="evenodd" class="s10" d="m100.2 84.5c-1.2-0.5-2.1-1.7-2.1-3.1 0-1.8 1.5-3.3 3.4-3.3 1.9 0 3.4 1.5 3.4 3.3 0 1.9-1.5 3.4-3.4 3.4q-0.7-0.1-1.3-0.3zm0.3-3.1c0 0.6 0.4 1 1 1 0.6 0 1-0.4 1-1 0-0.6-0.4-1-1-1-0.6 0-1 0.5-1 1z"/>
	<path id="Académica" class="s10" aria-label="Académica"  d="m29 63h3.8l-6.5-18.2h-4.2l-6.6 18.2h3.8l1.2-3.5h7.3zm-2.2-6.3h-5.3l2.7-7.6zm7.5-0.9c0 4.6 3 7.5 7.1 7.5 3.6 0 6-2 6.8-5.1h-3.9c-0.5 1.3-1.4 2-2.9 2-2 0-3.4-1.5-3.4-4.4 0-2.8 1.4-4.3 3.4-4.3 1.5 0 2.5 0.8 2.9 2h3.9c-0.8-3.2-3.2-5.1-6.8-5.1-4.1 0-7.1 2.9-7.1 7.4zm15.7 0c0 4.5 2.9 7.5 6.5 7.5 2.3 0 3.9-1.1 4.8-2.4v2.1h3.7v-14.4h-3.7v2.1c-0.9-1.2-2.5-2.3-4.8-2.3-3.6 0-6.5 2.9-6.5 7.4zm11.3 0c0 2.8-1.8 4.3-3.8 4.3-2 0-3.8-1.6-3.8-4.3 0-2.7 1.8-4.2 3.8-4.2 2 0 3.8 1.5 3.8 4.2zm6.3 0c0 4.5 2.9 7.5 6.6 7.5 2.2 0 3.8-1.1 4.7-2.4v2.1h3.7v-19.2h-3.7v6.8c-1-1.3-2.8-2.2-4.7-2.2-3.7 0-6.6 2.9-6.6 7.4zm11.3 0c0 2.8-1.8 4.3-3.8 4.3-2 0-3.8-1.6-3.8-4.3 0-2.7 1.8-4.2 3.8-4.2 2 0 3.8 1.5 3.8 4.2zm13.4-4.4c1.9 0 3.4 1.2 3.5 3.1h-6.9c0.3-2 1.7-3.1 3.4-3.1zm6.9 7.1h-4c-0.4 1-1.3 1.8-2.8 1.8-1.9 0-3.3-1.2-3.5-3.4h10.5c0.1-0.4 0.1-0.9 0.1-1.4 0-4.3-2.9-7.1-7.1-7.1-4.2 0-7.2 2.9-7.2 7.4 0 4.6 3.1 7.5 7.2 7.5 3.6 0 6-2.1 6.8-4.8zm-10-13.5v2.6l6-2.8v-2.9zm33.1 18.1h3.7v-8.5c0-4-2.5-6.2-5.9-6.2-2.1 0-4 1.2-5 2.8-1-1.8-2.8-2.8-5.1-2.8-1.7 0-3.3 0.8-4.2 2v-1.7h-3.6v14.4h3.6v-8c0-2.3 1.3-3.5 3.3-3.5 1.9 0 3.2 1.2 3.2 3.5v8h3.6v-8c0-2.3 1.3-3.5 3.2-3.5 1.9 0 3.2 1.2 3.2 3.5zm7.1 0h3.7v-14.4h-3.7zm1.9-16.1c1.2 0 2.2-1 2.2-2.2 0-1.2-1-2.1-2.2-2.1-1.3 0-2.3 0.9-2.3 2.1 0 1.2 1 2.2 2.3 2.2zm4.4 8.9c0 4.5 3 7.4 7.1 7.4 3.6 0 6-2 6.8-5.1h-3.9c-0.4 1.3-1.4 2-2.9 2-2 0-3.4-1.5-3.4-4.3 0-2.8 1.4-4.3 3.4-4.3 1.5 0 2.5 0.7 2.9 2h3.9c-0.8-3.3-3.2-5.1-6.8-5.1-4.1 0-7.1 2.9-7.1 7.4zm15.7-0.1c0 4.5 2.9 7.5 6.5 7.5 2.3 0 3.9-1.1 4.8-2.3v2.1h3.7v-14.4h-3.7v2c-0.9-1.2-2.4-2.2-4.8-2.2-3.6 0-6.5 2.8-6.5 7.3zm11.3 0.1c0 2.7-1.8 4.2-3.8 4.2-2 0-3.8-1.5-3.8-4.3 0-2.7 1.8-4.1 3.8-4.1 2 0 3.8 1.5 3.8 4.2z"/>
</svg>