<?xml version="1.0" encoding="UTF-8"?>
<svg xmlns="http://www.w3.org/2000/svg" xmlns:xlink="http://www.w3.org/1999/xlink" viewBox="0 0 649.28 201.04">
  <defs>
    <style>
      .cls-1 {
        fill: #c69661;
      }

      .cls-2 {
        fill: #f7d19a;
      }

      .cls-3 {
        fill: #d8a568;
      }

      .cls-4 {
        fill: #f2c38c;
      }

      .cls-5 {
        stroke: #bcbec0;
        stroke-miterlimit: 10;
      }

      .cls-5, .cls-6 {
        fill: none;
      }

      .cls-7 {
        filter: url(#drop-shadow-1);
      }

      .cls-8 {
        isolation: isolate;
      }

      .cls-9 {
        fill: #6d6e71;
      }

      .cls-10 {
        fill: #e2b074;
        opacity: .6;
      }

      .cls-11 {
        font-family: Poppins-SemiBold, Poppins;
        font-size: 25.53px;
        font-weight: 600;
      }

      .cls-11, .cls-12 {
        fill: #4c2608;
      }

      .cls-13 {
        fill: #414042;
      }

      .cls-14 {
        fill: #353535;
      }

      .cls-15 {
        fill: #212121;
        mix-blend-mode: multiply;
        opacity: .25;
      }

      .cls-16 {
        clip-path: url(#clippath);
      }
    </style>
    <filter id="drop-shadow-1" filterUnits="userSpaceOnUse">
      <feOffset dx="7" dy="7"/>
      <feGaussianBlur result="blur" stdDeviation="5"/>
      <feFlood flood-color="#3f3f3f" flood-opacity=".75"/>
      <feComposite in2="blur" operator="in"/>
      <feComposite in="SourceGraphic"/>
    </filter>
    <clipPath id="clippath">
      <rect class="cls-6" x="196.36" y="21.04" width="180" height="180" rx="5.4" ry="5.4"/>
    </clipPath>
  </defs>
  <g class="cls-8">
    <g id="Capa_2">
      <g id="Capa_1-2" data-name="Capa_1">
        <g>
          <g>
            <polyline class="cls-5" points="201.76 21.04 286.36 .9 366.71 21.04"/>
            <g class="cls-7">
              <rect class="cls-4" x="196.36" y="21.04" width="180" height="180" rx="5.4" ry="5.4"/>
              <path class="cls-10" d="M356.47,131.06c-8.03-.33-24.75,1.46-32.76.31-4.36-.63-8.69-1.47-13.04-2.15-9.37.24-18.74.59-28.12.89-14.72.47-29.45.89-44.18.9-8.54,0-17.16-1.28-25.44-3.36-5.08-1.27-10.12-2.68-15.27-3.6-.43-.02-.87-.03-1.3-.04v71.63c0,2.98,2.42,5.4,5.4,5.4h169.2c2.98,0,5.4-2.42,5.4-5.4v-60.82c-9.63-.29-10.24-3.37-19.88-3.77Z"/>
              <path class="cls-1" d="M370.95,196.45h-169.2c-2.98,0-5.4-2.42-5.4-5.4v2.3c0,2.98.81,7.7,5.4,7.7h169.2c5.4,0,5.4-4.71,5.4-7.7v-2.3c0,2.98-2.42,5.4-5.4,5.4Z"/>
              <path class="cls-2" d="M370.95,21.04h-169.2c-2.98,0-5.4,3.95-5.4,6.93v1.53c0-2.98,2.42-5.4,5.4-5.4h169.2c2.98,0,5.4,2.42,5.4,5.4v-1.53c0-2.98-2.42-6.93-5.4-6.93Z"/>
              <g class="cls-16">
                <polygon class="cls-3" points="390.55 28.15 384.44 32.63 373.27 32.97 360.28 30.5 352.34 30.73 340.83 28.22 322.64 31.63 288.44 29.8 279.08 30.08 269.87 33.22 254.56 30.82 244.41 33.99 242.62 32.81 236.08 28.51 228.43 28.74 222.3 31.79 210.54 32.14 203.14 29.51 195.2 29.74 178.53 35.97 197.03 33.98 205.88 35.56 223.57 37.47 231.71 31.1 249.84 36.68 254.58 32.25 265.29 36.22 276.28 35.89 280.57 33.31 288.46 31.23 296.71 35.27 304.68 35.03 317.78 34.64 326.21 34.38 334.45 34.13 341.17 31.48 347.68 33.74 352.39 33.59 357.39 33.44 365.62 33.2 373.02 35.83 381.84 35.57 386.55 35.43 390.55 28.15"/>
                <polygon class="cls-3" points="172.54 51.19 181.92 46.73 198.97 46.43 218.74 48.95 230.86 48.73 248.39 51.28 276.19 47.93 328.33 49.88 342.61 49.63 356.7 46.52 380.03 48.97 395.56 45.83 398.26 47.01 408.18 51.33 419.85 51.13 429.24 48.1 447.19 47.78 458.44 50.45 470.56 50.23 496.08 44.06 467.82 45.99 454.34 44.39 427.4 42.41 414.89 48.76 387.31 43.12 380.02 47.54 363.73 43.53 346.96 43.83 340.38 46.4 328.31 48.45 315.78 44.38 303.64 44.59 283.65 44.94 270.77 45.17 258.21 45.39 247.91 48.02 238.01 45.74 230.83 45.87 223.2 46.01 210.64 46.23 199.39 43.56 185.93 43.8 178.75 43.93 172.54 51.19"/>
                <polygon class="cls-3" points="87.64 56.04 97.02 60.47 114.08 60.72 133.85 58.15 145.96 58.32 163.49 55.72 191.29 58.99 243.43 56.89 257.72 57.1 271.8 60.17 295.13 57.65 310.67 60.74 313.37 59.55 323.28 55.2 334.95 55.38 344.35 58.37 362.3 58.64 373.54 55.94 385.66 56.12 411.2 62.22 382.93 60.37 369.45 62.01 342.51 64.07 329.99 57.75 302.42 63.48 295.12 59.08 278.84 63.14 262.07 62.89 255.49 60.34 243.42 58.32 230.89 62.43 218.75 62.25 198.76 61.96 185.88 61.77 173.32 61.59 163.01 58.98 153.12 61.29 145.94 61.19 138.31 61.07 125.75 60.89 114.5 63.59 101.04 63.39 93.86 63.28 87.64 56.04"/>
                <polygon class="cls-3" points="390.55 109.52 384.44 105.04 373.27 104.71 360.28 107.18 352.34 106.94 340.83 109.45 322.64 106.04 288.44 107.88 279.08 107.59 269.87 104.45 254.56 106.86 244.41 103.69 242.62 104.86 236.08 109.16 228.43 108.93 222.3 105.88 210.54 105.53 203.14 108.17 195.2 107.93 178.53 101.7 197.03 103.69 205.88 102.12 223.57 100.2 231.71 106.58 249.84 100.99 254.58 105.43 265.29 101.46 276.28 101.79 280.57 104.37 288.46 106.45 296.71 102.4 304.68 102.64 317.78 103.04 326.21 103.29 334.45 103.54 341.17 106.19 347.68 103.94 352.39 104.08 357.39 104.23 365.62 104.48 373.02 101.84 381.84 102.1 386.55 102.25 390.55 109.52"/>
                <polygon class="cls-3" points="172.54 86.48 181.92 90.94 198.97 91.24 218.74 88.73 230.86 88.94 248.39 86.39 276.19 89.74 328.33 87.8 342.61 88.05 356.7 91.16 380.03 88.71 395.56 91.84 398.26 90.66 408.18 86.34 419.85 86.55 429.24 89.57 447.19 89.89 458.44 87.23 470.56 87.44 496.08 93.61 467.82 91.68 454.34 93.29 427.4 95.26 414.89 88.91 387.31 94.56 380.02 90.14 363.73 94.14 346.96 93.85 340.38 91.28 328.31 89.23 315.78 93.3 303.64 93.08 283.65 92.73 270.77 92.51 258.21 92.28 247.91 89.65 238.01 91.93 230.83 91.8 223.2 91.67 210.64 91.45 199.39 94.11 185.93 93.87 178.75 93.75 172.54 86.48"/>
                <polygon class="cls-3" points="87.64 81.64 97.02 77.2 114.08 76.95 133.85 79.53 145.96 79.35 163.49 81.95 191.29 78.68 243.43 80.78 257.72 80.57 271.8 77.5 295.13 80.02 310.67 76.93 313.37 78.12 323.28 82.47 334.95 82.3 344.35 79.3 362.3 79.04 373.54 81.73 385.66 81.55 411.2 75.46 382.93 77.3 369.45 75.66 342.51 73.6 329.99 79.92 302.42 74.19 295.12 78.59 278.84 74.54 262.07 74.78 255.49 77.33 243.42 79.35 230.89 75.24 218.75 75.42 198.76 75.71 185.88 75.9 173.32 76.09 163.01 78.69 153.12 76.38 145.94 76.49 138.31 76.6 125.75 76.78 114.5 74.09 101.04 74.29 93.86 74.39 87.64 81.64"/>
                <polygon class="cls-3" points="390.81 115.92 379.37 120.2 358.77 120.18 334.97 117.29 320.33 117.28 299.24 114.39 265.59 117.22 202.69 114.29 185.44 114.27 168.35 117.11 140.25 114.22 121.41 117.06 118.18 115.83 106.33 111.33 92.24 111.31 80.81 114.16 59.13 114.13 45.63 111.26 30.99 111.24 0 116.93 34.17 115.54 50.4 117.39 82.88 119.88 98.16 113.77 131.29 119.93 140.23 115.65 159.78 119.96 180.03 119.99 188.04 117.54 202.67 115.72 217.68 120.03 232.36 120.04 256.5 120.07 272.05 120.09 287.22 120.1 299.73 117.66 311.61 120.13 320.29 120.14 329.5 120.15 344.68 120.16 358.18 123.04 374.44 123.06 383.11 123.07 390.81 115.92"/>
                <polygon class="cls-3" points="172.25 130.7 181.75 126.5 198.81 126.66 218.5 129.72 230.62 129.83 248.07 132.86 275.95 130.27 328.02 133.64 342.31 133.78 356.47 131.06 379.73 134.15 395.34 131.44 398.01 132.69 407.8 137.28 419.47 137.39 428.95 134.63 446.9 134.8 458.07 137.77 470.19 137.89 495.87 132.42 467.57 133.57 454.14 131.6 427.26 128.89 414.58 134.89 387.17 128.5 379.75 132.72 363.58 128.27 346.81 128.1 340.17 130.49 328.05 132.21 315.63 127.8 303.48 127.68 283.49 127.49 270.62 127.36 258.05 127.24 247.68 129.59 237.85 127.04 230.67 126.97 223.04 126.9 210.47 126.78 199.31 123.81 185.84 123.68 178.66 123.61 172.25 130.7"/>
                <polygon class="cls-3" points="87.64 139.91 97.02 144.34 114.08 144.59 133.85 142.02 145.96 142.19 163.49 139.59 191.29 142.86 243.43 140.76 257.72 140.97 271.8 144.04 295.13 141.52 310.67 144.61 313.37 143.42 323.28 139.07 334.95 139.24 344.35 142.24 362.3 142.51 373.54 139.81 385.66 139.99 411.2 146.09 382.93 144.24 369.45 145.88 342.51 147.94 329.99 141.62 302.42 147.35 295.12 142.95 278.84 147 262.07 146.76 255.49 144.21 243.42 142.19 230.89 146.3 218.75 146.12 198.76 145.83 185.88 145.64 173.32 145.46 163.01 142.85 153.12 145.16 145.94 145.05 138.31 144.94 125.75 144.76 114.5 147.45 101.04 147.26 93.86 147.15 87.64 139.91"/>
                <polygon class="cls-3" points="390.55 193.39 384.44 188.91 373.27 188.58 360.28 191.05 352.34 190.81 340.83 193.32 322.64 189.91 288.44 191.74 279.08 191.46 269.87 188.32 254.56 190.72 244.41 187.56 242.62 188.73 236.08 193.03 228.43 192.8 222.3 189.75 210.54 189.4 203.14 192.04 195.2 191.8 178.53 185.57 197.03 187.56 205.88 185.99 223.57 184.07 231.71 190.44 249.84 184.86 254.58 189.29 265.29 185.32 276.28 185.66 280.57 188.24 288.46 190.31 296.71 186.27 304.68 186.51 317.78 186.91 326.21 187.16 334.45 187.41 341.17 190.06 347.68 187.81 352.39 187.95 357.39 188.1 365.62 188.35 373.02 185.71 381.84 185.97 386.55 186.12 390.55 193.39"/>
                <polygon class="cls-3" points="172.72 165.68 181.97 170.41 199 171.2 218.84 169.26 230.95 169.82 248.54 167.78 276.23 171.93 328.41 171.49 342.68 172.16 356.67 175.67 380.06 173.9 395.49 177.48 398.23 176.38 408.26 172.35 419.92 172.89 429.23 176.19 447.16 177.02 458.48 174.68 470.59 175.25 495.93 182.15 467.73 179.41 454.21 180.62 427.22 181.82 414.9 175.11 387.17 179.96 380 175.33 363.61 178.86 346.85 178.08 340.36 175.32 328.35 172.92 315.71 176.63 303.57 176.07 283.6 175.14 270.74 174.54 258.19 173.95 247.97 171.02 238.01 173.01 230.84 172.68 223.21 172.33 210.66 171.74 199.34 174.08 185.89 173.45 178.72 173.12 172.72 165.68"/>
                <polygon class="cls-3" points="87.61 158.82 104.03 153.13 133.63 153.57 167.86 158.03 188.89 158.35 219.22 162.76 267.57 159.51 357.98 164.82 382.79 165.18 407.32 161.59 447.73 166.15 474.78 162.59 479.44 164.36 496.5 170.83 516.75 171.13 533.16 167.41 564.32 167.88 583.74 172.13 604.78 172.44 649.28 165.18 600.18 166.43 576.84 163.54 530.14 159.45 508.22 167.61 460.56 158.42 447.75 164.17 419.62 157.81 390.51 157.38 379.02 160.6 358.01 162.84 336.4 156.58 315.31 156.26 280.61 155.75 258.27 155.42 236.46 155.09 218.5 158.22 201.4 154.57 188.94 154.39 175.7 154.19 153.89 153.87 134.46 149.62 111.09 149.27 98.63 149.09 87.61 158.82"/>
              </g>
            </g>
            <g>
              <path class="cls-15" d="M291.88,5.53c0,3.05-2.48,6.36-5.53,6.36s-5.53-3.31-5.53-6.36,2.48-5.53,5.53-5.53,5.53,2.48,5.53,5.53Z"/>
              <path class="cls-13" d="M291.88,5.53c0,3.05-2.48,5.53-5.53,5.53s-5.53-2.48-5.53-5.53,2.48-5.53,5.53-5.53,5.53,2.48,5.53,5.53Z"/>
              <path class="cls-14" d="M286.45,8.15c-2.07,0-3.41-1.15-4.03-2.62h-.07c0,2.21,1.8,4.55,4.01,4.55s3.97-2.3,4.01-4.49c-.58,1.44-1.87,2.56-3.91,2.56Z"/>
              <path class="cls-13" d="M290.37,5.53c0,2.21-1.8,4.01-4.01,4.01s-4.01-1.8-4.01-4.01,1.8-4.01,4.01-4.01,4.01,1.8,4.01,4.01Z"/>
              <path class="cls-9" d="M289.21,2.71c.35.54.56,1.18.56,1.87,0,1.89-1.53,3.42-3.42,3.42s-3.42-1.53-3.42-3.42c0-.69.21-1.33.56-1.87-.71.72-1.16,1.72-1.16,2.82,0,2.21,1.8,4.01,4.01,4.01s4.01-1.8,4.01-4.01c0-1.1-.44-2.09-1.16-2.82Z"/>
            </g>
          </g>
          <text class="cls-11" transform="translate(233.09 60.58)"><tspan x="0" y="0">Familiar</tspan></text>
          <g>
            <path class="cls-12" d="M262.33,164.99c0,.53.2,1.04.57,1.42.37.38.88.59,1.41.59h43.73c1.07,0,1.94-.85,1.97-1.92,0-.27.08-3.07-.5-6.91h31.93c1.07,0,1.94-.85,1.97-1.92.02-.68.43-16.69-9.61-25.89-.71-.65-1.78-.69-2.54-.11-.12.09-11.8,8.86-22.67,0-.75-.6-1.82-.59-2.54.04-.23.2-3.43,3.05-6.2,8.53-.64-.28-1.4-.21-1.98.24-.48.36-11.85,8.82-22.67.01-.53-.43-1.22-.54-1.84-.35-1.4-3-3.32-5.93-6-8.38-.71-.65-1.78-.69-2.54-.11-.12.09-11.8,8.86-22.66,0-.75-.6-1.82-.59-2.54.04-.41.36-10.08,8.95-10.32,25.87,0,.53.2,1.04.57,1.42s.88.59,1.41.59h31.73c-.38,2.1-.63,4.36-.66,6.82ZM307.55,134.41c10.33,7.21,20.88,2.2,24.66-.08,5.87,6.3,7,15.84,7.21,19.87h-30.7c-1-4.03-2.77-8.56-5.87-12.41,1.64-3.58,3.53-6.06,4.7-7.38ZM274.15,143.24c10.33,7.21,20.88,2.2,24.66-.08,5.88,6.31,7,15.84,7.21,19.87h-39.66c.7-10.62,5.57-17.28,7.79-19.8ZM233.32,154.22c.7-10.62,5.57-17.29,7.79-19.8,10.33,7.21,20.88,2.2,24.66-.08,2.03,2.17,3.48,4.73,4.53,7.32-1.97,2.43-4.7,6.61-6.4,12.55h-30.58Z"/>
            <path class="cls-12" d="M234.44,109.97c0,10.3,8.39,18.69,18.7,18.69h0c4.99,0,9.68-1.95,13.21-5.49.49-.49.94-1,1.37-1.53,1.38,8.96,9.12,15.84,18.46,15.84h0c4.99,0,9.68-1.95,13.21-5.48,2.95-2.95,4.77-6.71,5.3-10.76,3.42,4.5,8.81,7.42,14.88,7.42h0c4.99,0,9.68-1.95,13.21-5.49,3.54-3.53,5.48-8.23,5.48-13.22,0-10.31-8.39-18.69-18.7-18.69-4.99,0-9.68,1.95-13.22,5.48-2.94,2.95-4.77,6.71-5.3,10.76-3.42-4.5-8.81-7.42-14.88-7.42-4.99,0-9.68,1.95-13.22,5.48-.49.49-.94,1.01-1.37,1.54-1.38-8.96-9.12-15.84-18.46-15.84-4.99,0-9.68,1.95-13.22,5.48-3.53,3.53-5.48,8.23-5.48,13.22ZM309.15,99.55c2.79-2.79,6.49-4.33,10.43-4.33,8.13,0,14.74,6.62,14.75,14.75,0,3.93-1.53,7.63-4.33,10.42-2.79,2.79-6.49,4.33-10.42,4.33h0c-8.13,0-14.75-6.61-14.75-14.74,0-3.93,1.53-7.64,4.32-10.43ZM275.75,108.37c2.79-2.79,6.49-4.33,10.42-4.33,8.13,0,14.75,6.62,14.75,14.74,0,3.93-1.53,7.64-4.33,10.43-2.79,2.79-6.49,4.33-10.42,4.33h0c-8.13,0-14.74-6.61-14.75-14.74,0-3.93,1.53-7.64,4.32-10.43ZM253.13,95.22c8.13,0,14.74,6.62,14.75,14.75,0,3.93-1.53,7.63-4.33,10.42-2.79,2.79-6.49,4.33-10.42,4.33h0c-8.13,0-14.74-6.61-14.75-14.74,0-3.93,1.53-7.64,4.32-10.43,2.79-2.79,6.49-4.33,10.43-4.33Z"/>
          </g>
        </g>
      </g>
    </g>
  </g>
</svg>