<svg version="1.2" xmlns="http://www.w3.org/2000/svg" viewBox="0 0 180 202" width="180" height="202">
	<title>Academico</title>
	<defs>
		<clipPath clipPathUnits="userSpaceOnUse" id="cp1">
			<path d="m5.76 21.99h169.2c2.98 0 5.4 2.42 5.4 5.4v169.2c0 2.98-2.42 5.4-5.4 5.4h-169.2c-2.98 0-5.4-2.42-5.4-5.4v-169.2c0-2.98 2.42-5.4 5.4-5.4z"/>
		</clipPath>
	</defs>
	<style>
		.s0 { fill: none;stroke: #bcbec0;stroke-miterlimit:10 } 
		.s1 { fill: #f2c38c } 
		.s2 { opacity: .6;fill: #e2b074 } 
		.s3 { fill: #c69661 } 
		.s4 { fill: #f7d19a } 
		.s5 { fill: #d8a568 } 
		.s6 { opacity: .3;mix-blend-mode: multiply;fill: #212121 } 
		.s7 { fill: #414042 } 
		.s8 { fill: #353535 } 
		.s9 { fill: #6d6e71 } 
		.s10 { fill: #4c2608 } 
	</style>
	<g>
		<g id="Capa_2">
			<g id="Capa_1-2">
				<g>
					<g>
						<path class="s0" d="m5.8 22l84.6-20.1 80.3 20.1"/>
						<g>
							<path class="s1" d="m5.8 22h169.2c2.9 0 5.4 2.4 5.4 5.4v169.2c0 3-2.5 5.4-5.4 5.4h-169.2c-3 0-5.4-2.4-5.4-5.4v-169.2c0-3 2.4-5.4 5.4-5.4z"/>
							<path class="s2" d="m160.5 132c-8.1-0.3-24.8 1.5-32.8 0.3-4.3-0.6-8.7-1.4-13-2.1-9.4 0.2-18.8 0.6-28.1 0.9-14.8 0.4-29.5 0.8-44.2 0.9-8.6 0-17.2-1.3-25.5-3.4-5.1-1.3-10.1-2.7-15.2-3.6q-0.7 0-1.3 0v71.6c0 3 2.4 5.4 5.4 5.4h169.2c2.9 0 5.4-2.4 5.4-5.4v-60.8c-9.7-0.3-10.3-3.4-19.9-3.8z"/>
							<path class="s3" d="m174.9 197.4h-169.2c-2.9 0-5.4-2.4-5.4-5.4v2.3c0 3 0.9 7.7 5.4 7.7h169.2c5.4 0 5.4-4.7 5.4-7.7v-2.3c0 3-2.4 5.4-5.4 5.4z"/>
							<path class="s4" d="m174.9 22h-169.2c-2.9 0-5.4 3.9-5.4 6.9v1.6c0-3 2.5-5.4 5.4-5.4h169.2c3 0 5.4 2.4 5.4 5.4v-1.6c0-3-2.4-6.9-5.4-6.9z"/>
							<g id="Clip-Path" clip-path="url(#cp1)">
								<g>
									<path class="s5" d="m194.6 29.1l-6.2 4.5-11.1 0.3-13-2.4-8 0.2-11.5-2.5-18.2 3.4-34.2-1.8-9.3 0.2-9.2 3.2-15.3-2.4-10.2 3.1-1.8-1.1-6.5-4.3-7.7 0.2-6.1 3-11.8 0.4-7.4-2.6-7.9 0.2-16.7 6.2 18.5-2 8.9 1.6 17.7 1.9 8.1-6.3 18.1 5.5 4.8-4.4 10.7 4 11-0.4 4.3-2.5 7.9-2.1 8.2 4 8-0.2 13.1-0.4 8.4-0.3 8.2-0.2 6.8-2.7 6.5 2.3 4.7-0.2 5-0.1 8.2-0.2 7.4 2.6 8.8-0.3 4.8-0.1 4-7.3z"/>
									<path class="s5" d="m-23.5 52.1l9.4-4.4 17.1-0.3 19.7 2.5 12.2-0.2 17.5 2.5 27.8-3.3 52.1 1.9 14.3-0.2 14.1-3.1 23.3 2.4 15.6-3.1 2.7 1.2 9.9 4.3 11.7-0.2 9.3-3 18-0.4 11.2 2.7 12.2-0.2 25.5-6.2-28.3 1.9-13.5-1.6-26.9-1.9-12.5 6.3-27.6-5.6-7.3 4.4-16.3-4-16.7 0.3-6.6 2.6-12.1 2-12.5-4.1-12.2 0.2-20 0.4-12.8 0.2-12.6 0.2-10.3 2.7-9.9-2.3-7.2 0.1-7.6 0.2-12.6 0.2-11.2-2.7-13.5 0.3-7.2 0.1-6.2 7.2z"/>
									<path class="s5" d="m-108.4 57l9.4 4.4 17.1 0.3 19.8-2.6 12.1 0.2 17.5-2.6 27.8 3.2 52.1-2.1 14.3 0.3 14.1 3 23.3-2.5 15.6 3.1 2.7-1.2 9.9-4.3 11.6 0.1 9.5 3 17.9 0.3 11.2-2.7 12.2 0.2 25.5 6.1-28.3-1.9-13.5 1.7-26.9 2-12.5-6.3-27.6 5.7-7.3-4.4-16.3 4.1-16.7-0.3-6.6-2.5-12.1-2-12.5 4.1-12.1-0.2-20-0.3-12.9-0.2-12.6-0.2-10.3-2.6-9.9 2.3-7.2-0.1-7.6-0.1-12.5-0.2-11.3 2.7-13.5-0.2-7.1-0.1-6.3-7.2z"/>
									<path class="s5" d="m194.6 110.5l-6.2-4.5-11.1-0.3-13 2.4-8-0.2-11.5 2.5-18.2-3.4-34.2 1.8-9.3-0.3-9.2-3.1-15.3 2.4-10.2-3.2-1.8 1.2-6.5 4.3-7.7-0.2-6.1-3.1-11.8-0.3-7.4 2.6-7.9-0.2-16.7-6.2 18.5 1.9 8.9-1.5 17.7-1.9 8.1 6.3 18.1-5.6 4.8 4.5 10.7-4 11 0.3 4.3 2.6 7.9 2.1 8.2-4 8 0.2 13.1 0.4 8.4 0.2 8.2 0.3 6.8 2.6 6.5-2.2 4.7 0.1 5 0.2 8.2 0.2 7.4-2.6 8.8 0.3 4.8 0.1 4 7.3z"/>
									<path class="s5" d="m-23.5 87.4l9.4 4.5 17.1 0.3 19.7-2.5 12.2 0.2 17.5-2.6 27.8 3.4 52.1-1.9 14.3 0.2 14.1 3.1 23.3-2.4 15.6 3.1 2.7-1.2 9.9-4.3 11.7 0.2 9.3 3 18 0.3 11.2-2.6 12.2 0.2 25.5 6.2-28.3-2-13.5 1.6-26.9 2-12.5-6.3-27.6 5.6-7.3-4.4-16.3 4-16.7-0.3-6.6-2.6-12.1-2-12.5 4.1-12.2-0.3-20-0.3-12.8-0.2-12.6-0.3-10.3-2.6-9.9 2.3-7.2-0.1-7.6-0.2-12.6-0.2-11.2 2.7-13.5-0.3-7.2-0.1-6.2-7.3z"/>
									<path class="s5" d="m-108.4 82.6l9.4-4.4 17.1-0.3 19.8 2.6 12.1-0.2 17.5 2.6 27.8-3.3 52.1 2.1 14.3-0.2 14.1-3 23.3 2.5 15.6-3.1 2.7 1.2 9.9 4.3 11.6-0.1 9.5-3 17.9-0.3 11.2 2.7 12.2-0.2 25.5-6.1-28.3 1.9-13.5-1.7-26.9-2-12.5 6.3-27.6-5.8-7.3 4.4-16.3-4-16.7 0.2-6.6 2.6-12.1 2-12.5-4.1-12.1 0.2-20 0.3-12.9 0.2-12.6 0.1-10.3 2.6-9.9-2.3-7.2 0.1-7.6 0.2-12.5 0.1-11.3-2.7-13.5 0.2-7.1 0.1-6.3 7.3z"/>
									<path class="s5" d="m194.8 116.9l-11.4 4.3-20.6-0.1-23.8-2.9h-14.7l-21.1-2.9-33.6 2.9-62.9-3h-17.3l-17.1 2.9-28.1-2.9-18.8 2.8-3.2-1.2-11.9-4.5h-14.1l-11.4 2.8h-21.7l-13.5-2.9h-14.6l-31 5.7 34.2-1.4 16.2 1.8 32.5 2.5 15.3-6.1 33.1 6.2 8.9-4.3 19.6 4.3h20.2l8-2.4 14.7-1.8 15 4.3h14.7 24.1 15.6l15.1 0.1 12.5-2.5 11.9 2.5h8.7 9.2 15.2l13.5 2.9h16.2 8.7l7.7-7.1z"/>
									<path class="s5" d="m-23.8 131.7l9.6-4.2 17 0.1 19.7 3.1 12.1 0.1 17.5 3 27.8-2.6 52.1 3.4 14.3 0.1 14.2-2.7 23.2 3.1 15.6-2.7 2.7 1.2 9.8 4.6 11.7 0.1 9.4-2.7 18 0.2 11.2 2.9 12.1 0.1 25.7-5.4-28.3 1.1-13.5-1.9-26.8-2.8-12.7 6-27.4-6.3-7.4 4.2-16.2-4.5-16.8-0.1-6.6 2.3-12.1 1.8-12.5-4.4-12.1-0.2-20-0.2-12.9-0.1-12.5-0.1-10.4 2.3-9.9-2.5-7.1-0.1h-7.7l-12.5-0.2-11.2-2.9-13.5-0.2h-7.1l-6.4 7.1z"/>
									<path class="s5" d="m-108.4 140.9l9.4 4.4 17.1 0.2 19.8-2.5 12.1 0.1 17.5-2.6 27.8 3.3 52.1-2.1 14.3 0.2 14.1 3.1 23.3-2.5 15.6 3.1 2.7-1.2 9.9-4.4 11.6 0.2 9.5 3 17.9 0.3 11.2-2.7 12.2 0.1 25.5 6.1-28.3-1.8-13.5 1.6-26.9 2.1-12.5-6.3-27.6 5.7-7.3-4.4-16.3 4.1-16.7-0.3-6.6-2.5-12.1-2.1-12.5 4.2-12.1-0.2-20-0.3-12.9-0.2-12.6-0.2-10.3-2.6-9.9 2.3-7.2-0.1-7.6-0.1-12.5-0.2-11.3 2.7-13.5-0.2-7.1-0.1-6.3-7.2z"/>
									<path class="s5" d="m194.6 194.3l-6.2-4.4-11.1-0.4-13 2.5-8-0.2-11.5 2.5-18.2-3.4-34.2 1.8-9.3-0.3-9.2-3.1-15.3 2.4-10.2-3.2-1.8 1.2-6.5 4.3-7.7-0.2-6.1-3.1-11.8-0.3-7.4 2.6-7.9-0.2-16.7-6.3 18.5 2 8.9-1.6 17.7-1.9 8.1 6.4 18.1-5.6 4.8 4.4 10.7-3.9 11 0.3 4.3 2.6 7.9 2.1 8.2-4.1 8 0.3 13.1 0.4 8.4 0.2 8.2 0.3 6.8 2.6 6.5-2.2 4.7 0.1 5 0.1 8.2 0.3 7.4-2.6 8.8 0.2 4.8 0.2 4 7.2z"/>
									<path class="s5" d="m-23.3 166.6l9.3 4.8 17 0.8 19.8-2 12.1 0.6 17.6-2.1 27.7 4.2 52.2-0.5 14.3 0.7 14 3.5 23.4-1.7 15.4 3.5 2.7-1.1 10.1-4 11.6 0.5 9.3 3.3 18 0.9 11.3-2.4 12.1 0.6 25.3 6.9-28.2-2.7-13.5 1.2-27 1.2-12.3-6.7-27.7 4.8-7.2-4.6-16.4 3.5-16.7-0.8-6.5-2.7-12-2.4-12.7 3.7-12.1-0.6-20-0.9-12.9-0.6-12.5-0.6-10.2-2.9-10 2-7.2-0.4-7.6-0.3-12.5-0.6-11.4 2.3-13.4-0.6-7.2-0.3-6-7.5z"/>
									<path class="s5" d="m-108.4 159.8l16.4-5.7 29.6 0.4 34.3 4.5 21 0.3 30.3 4.4 48.4-3.2 90.4 5.3 24.8 0.3 24.5-3.6 40.4 4.6 27.1-3.6 4.6 1.8 17.1 6.5 20.3 0.3 16.4-3.7 31.1 0.4 19.4 4.3 21.1 0.3 44.5-7.3-49.1 1.3-23.4-2.9-46.7-4.1-21.9 8.2-47.6-9.2-12.8 5.7-28.2-6.3-29.1-0.5-11.5 3.3-21 2.2-21.6-6.3-21.1-0.3-34.7-0.5-22.3-0.3-21.8-0.4-18 3.2-17.1-3.7-12.5-0.2-13.2-0.2-21.8-0.3-19.4-4.2-23.4-0.4-12.5-0.2-11 9.8z"/>
								</g>
							</g>
						</g>
						<g>
							<path class="s6" d="m95.9 6.5c0 3-2.5 6.3-5.5 6.3-3.1 0-5.6-3.3-5.6-6.3 0-3.1 2.5-5.5 5.6-5.5 3 0 5.5 2.4 5.5 5.5z"/>
							<path class="s7" d="m90.4 12c-3.1 0-5.6-2.5-5.6-5.5 0-3.1 2.5-5.5 5.6-5.5 3 0 5.5 2.4 5.5 5.5 0 3-2.5 5.5-5.5 5.5z"/>
							<path class="s8" d="m90.4 9.1c-2 0-3.4-1.1-4-2.6 0 2.2 1.8 4.5 4 4.5 2.2 0 3.9-2.3 4-4.5-0.6 1.5-1.9 2.6-4 2.6z"/>
							<path class="s7" d="m90.4 10.5c-2.3 0-4-1.8-4-4 0-2.2 1.7-4 4-4 2.2 0 4 1.8 4 4 0 2.2-1.8 4-4 4z"/>
							<path class="s9" d="m93.2 3.7c0.4 0.5 0.6 1.1 0.6 1.8 0 1.9-1.6 3.5-3.5 3.5-1.8 0-3.4-1.6-3.4-3.5 0-0.7 0.2-1.3 0.6-1.8-0.7 0.7-1.2 1.7-1.2 2.8 0 2.2 1.8 4 4 4 2.2 0 4-1.8 4-4 0-1.1-0.4-2.1-1.1-2.8z"/>
						</g>
					</g>
					<path id="Familiar" class="s10" aria-label="Familiar"  d="m40.9 62h3.6v-7.7h5.8v-2.9h-5.8v-4.6h7.6v-2.9h-11.2zm12.8-7.3c0 4.5 2.9 7.5 6.6 7.5 2.3 0 3.9-1.1 4.8-2.4v2.2h3.6v-14.5h-3.6v2.1c-0.9-1.2-2.5-2.3-4.8-2.3-3.7 0-6.6 2.9-6.6 7.4zm11.4 0.1c0 2.7-1.9 4.2-3.9 4.2-1.9 0-3.8-1.6-3.8-4.3 0-2.7 1.9-4.2 3.8-4.2 2 0 3.9 1.5 3.9 4.3zm27.3 7.2h3.7v-8.5c0-4-2.5-6.2-5.9-6.2-2.1 0-4 1.2-5 2.8-0.9-1.8-2.8-2.8-5-2.8-1.8 0-3.4 0.8-4.3 2v-1.8h-3.6v14.5h3.6v-8c0-2.3 1.3-3.5 3.3-3.5 1.9 0 3.2 1.2 3.2 3.5v8h3.6v-8c0-2.3 1.3-3.5 3.2-3.5 2 0 3.2 1.2 3.2 3.5zm7.1 0h3.7v-14.4h-3.7zm1.9-16.1c1.3 0 2.2-1 2.2-2.2 0-1.2-0.9-2.1-2.2-2.1-1.3 0-2.2 0.9-2.2 2.1 0 1.2 0.9 2.2 2.2 2.2zm5.4 16.1h3.6v-19.2h-3.6zm7.2 0h3.6v-14.5h-3.6zm1.8-16.1c1.3 0 2.3-0.9 2.3-2.1 0-1.2-1-2.1-2.3-2.1-1.3 0-2.2 0.9-2.2 2.1 0 1.2 0.9 2.1 2.2 2.1zm4.5 8.9c0 4.5 2.9 7.5 6.5 7.5 2.3 0 4-1.1 4.8-2.4v2.1h3.7v-14.4h-3.7v2.1c-0.8-1.2-2.4-2.3-4.7-2.3-3.7 0-6.6 2.9-6.6 7.4zm11.3 0c0 2.8-1.8 4.3-3.8 4.3-1.9 0-3.8-1.6-3.8-4.3 0-2.7 1.9-4.2 3.8-4.2 2 0 3.8 1.5 3.8 4.2zm10.9 0.1c0-2.8 1.3-3.6 3.4-3.6h1v-3.9c-2 0-3.5 1-4.4 2.5v-2.3h-3.6v14.4h3.6z"/>
					<g>
						<path fill-rule="evenodd" class="s10" d="m66.3 165.9c0.1-2.4 0.3-4.7 0.7-6.8h-31.7c-0.5 0-1.1-0.2-1.4-0.6-0.4-0.4-0.6-0.9-0.6-1.4 0.2-16.9 9.9-25.5 10.3-25.9 0.7-0.6 1.8-0.6 2.6 0 10.8 8.8 22.5 0.1 22.6 0 0.8-0.6 1.9-0.6 2.6 0.1 2.6 2.4 4.6 5.4 6 8.4 0.6-0.2 1.3-0.1 1.8 0.3 10.8 8.8 22.2 0.4 22.7 0 0.6-0.4 1.3-0.5 2-0.2 2.7-5.5 5.9-8.4 6.2-8.6 0.7-0.6 1.7-0.6 2.5 0 10.9 8.9 22.5 0.1 22.7 0 0.7-0.6 1.8-0.5 2.5 0.1 10 9.2 9.6 25.2 9.6 25.9 0 1.1-0.9 1.9-2 1.9h-31.9c0.6 3.9 0.5 6.7 0.5 6.9 0 1.1-0.9 2-2 2h-43.7c-0.5 0-1-0.3-1.4-0.6-0.4-0.4-0.6-0.9-0.6-1.5zm40.5-23.1c3.1 3.8 4.9 8.3 5.9 12.4h30.7c-0.2-4.1-1.3-13.6-7.2-19.9-3.8 2.3-14.3 7.3-24.7 0.1-1.1 1.3-3 3.8-4.7 7.4zm-28.7 1.4c-2.2 2.5-7.1 9.2-7.8 19.8h39.7c-0.2-4-1.3-13.6-7.2-19.9-3.8 2.3-14.3 7.3-24.7 0.1zm-40.8 11q0 0 0 0zm0 0h30.6c1.7-6 4.4-10.1 6.4-12.6-1.1-2.6-2.5-5.1-4.6-7.3-3.7 2.3-14.3 7.3-24.6 0.1-2.2 2.5-7.1 9.2-7.8 19.8z"/>
						<path fill-rule="evenodd" class="s10" d="m38.4 110.9c0-5 2-9.7 5.5-13.2 3.5-3.5 8.2-5.5 13.2-5.5 9.3 0 17.1 6.9 18.5 15.9q0.6-0.8 1.3-1.6c3.6-3.5 8.3-5.5 13.3-5.5 6 0 11.4 3 14.8 7.5 0.6-4.1 2.4-7.9 5.3-10.8 3.6-3.5 8.3-5.5 13.3-5.5 10.3 0 18.7 8.4 18.7 18.7 0 5-2 9.7-5.5 13.2-3.6 3.6-8.2 5.5-13.2 5.5-6.1 0-11.5-2.9-14.9-7.4-0.5 4-2.4 7.8-5.3 10.8-3.5 3.5-8.2 5.4-13.2 5.4-9.4 0-17.1-6.8-18.5-15.8q-0.6 0.8-1.4 1.5c-3.5 3.6-8.2 5.5-13.2 5.5-10.3 0-18.7-8.4-18.7-18.7zm70.5 0c0 8.2 6.6 14.8 14.7 14.8 3.9 0 7.6-1.6 10.4-4.4 2.8-2.7 4.4-6.4 4.4-10.4 0-8.1-6.7-14.7-14.8-14.7-3.9 0-7.6 1.5-10.4 4.3-2.8 2.8-4.3 6.5-4.3 10.4zm-33.4 8.9c0 8.1 6.6 14.7 14.7 14.7 3.9 0 7.6-1.5 10.4-4.3 2.8-2.8 4.4-6.5 4.4-10.5 0-8.1-6.7-14.7-14.8-14.7-3.9 0-7.6 1.5-10.4 4.3-2.8 2.8-4.3 6.5-4.3 10.5zm-28.8-19.3c-2.8 2.8-4.3 6.5-4.3 10.4 0 8.2 6.6 14.8 14.8 14.8 3.9 0 7.6-1.6 10.4-4.4 2.8-2.7 4.3-6.4 4.3-10.4 0-8.1-6.6-14.7-14.7-14.7-4 0-7.7 1.5-10.5 4.3z"/>
					</g>
				</g>
			</g>
		</g>
	</g>
</svg>