<?xml version="1.0" encoding="UTF-8"?>
<svg xmlns="http://www.w3.org/2000/svg" xmlns:xlink="http://www.w3.org/1999/xlink" viewBox="0 0 180 201.04">
  <defs>
    <style>
      .cls-1 {
        fill: #c69661;
      }

      .cls-2 {
        fill: #f7d19a;
      }

      .cls-3 {
        fill: #d8a568;
      }

      .cls-4 {
        font-family: Poppins-SemiBold, Poppins;
        font-size: 24.42px;
        font-weight: 600;
      }

      .cls-4, .cls-5 {
        fill: #4c2608;
      }

      .cls-6 {
        fill: #f2c38c;
      }

      .cls-7 {
        stroke: #bcbec0;
        stroke-miterlimit: 10;
      }

      .cls-7, .cls-8 {
        fill: none;
      }

      .cls-9 {
        filter: url(#drop-shadow-1);
      }

      .cls-10 {
        isolation: isolate;
      }

      .cls-11 {
        fill: #6d6e71;
      }

      .cls-12 {
        fill: #e2b074;
        opacity: .6;
      }

      .cls-13 {
        fill: #414042;
      }

      .cls-14 {
        fill: #353535;
      }

      .cls-15 {
        fill: #212121;
        mix-blend-mode: multiply;
        opacity: .25;
      }

      .cls-16 {
        clip-path: url(#clippath);
      }
    </style>
    <filter id="drop-shadow-1" filterUnits="userSpaceOnUse">
      <feOffset dx="7" dy="7"/>
      <feGaussianBlur result="blur" stdDeviation="5"/>
      <feFlood flood-color="#3f3f3f" flood-opacity=".75"/>
      <feComposite in2="blur" operator="in"/>
      <feComposite in="SourceGraphic"/>
    </filter>
    <clipPath id="clippath">
      <rect class="cls-8" y="21.04" width="180" height="180" rx="5.4" ry="5.4"/>
    </clipPath>
  </defs>
  <g class="cls-10">
    <g id="Capa_2">
      <g id="Capa_1-2" data-name="Capa_1">
        <g>
          <g>
            <polyline class="cls-7" points="5.4 21.04 90 .9 170.36 21.04"/>
            <g class="cls-9">
              <rect class="cls-6" y="21.04" width="180" height="180" rx="5.4" ry="5.4"/>
              <path class="cls-12" d="M160.12,131.06c-8.03-.33-24.75,1.46-32.76.31-4.36-.63-8.69-1.47-13.04-2.15-9.37.24-18.74.59-28.12.89-14.72.47-29.45.89-44.18.9-8.54,0-17.16-1.28-25.44-3.36-5.08-1.27-10.12-2.68-15.27-3.6-.43-.02-.87-.03-1.3-.04v71.63c0,2.98,2.42,5.4,5.4,5.4h169.2c2.98,0,5.4-2.42,5.4-5.4v-60.82c-9.63-.29-10.24-3.37-19.88-3.77Z"/>
              <path class="cls-1" d="M174.6,196.45H5.4c-2.98,0-5.4-2.42-5.4-5.4v2.3c0,2.98.81,7.7,5.4,7.7h169.2c5.4,0,5.4-4.71,5.4-7.7v-2.3c0,2.98-2.42,5.4-5.4,5.4Z"/>
              <path class="cls-2" d="M174.6,21.04H5.4c-2.98,0-5.4,3.95-5.4,6.93v1.53c0-2.98,2.42-5.4,5.4-5.4h169.2c2.98,0,5.4,2.42,5.4,5.4v-1.53c0-2.98-2.42-6.93-5.4-6.93Z"/>
              <g class="cls-16">
                <polygon class="cls-3" points="194.19 28.15 188.09 32.63 176.91 32.97 163.93 30.5 155.99 30.73 144.47 28.22 126.28 31.63 92.08 29.8 82.72 30.08 73.52 33.22 58.2 30.82 48.05 33.99 46.27 32.81 39.73 28.51 32.08 28.74 25.95 31.79 14.18 32.14 6.79 29.51 -1.15 29.74 -17.83 35.97 .68 33.98 9.53 35.56 27.21 37.47 35.35 31.1 53.48 36.68 58.22 32.25 68.94 36.22 79.93 35.89 84.21 33.31 92.11 31.23 100.36 35.27 108.32 35.03 121.42 34.64 129.86 34.38 138.09 34.13 144.82 31.48 151.32 33.74 156.03 33.59 161.03 33.44 169.26 33.2 176.66 35.83 185.49 35.57 190.19 35.43 194.19 28.15"/>
                <polygon class="cls-3" points="-23.82 51.19 -14.44 46.73 2.61 46.43 22.39 48.95 34.5 48.73 52.03 51.28 79.83 47.93 131.97 49.88 146.26 49.63 160.34 46.52 183.67 48.97 199.2 45.83 201.91 47.01 211.82 51.33 223.49 51.13 232.89 48.1 250.84 47.78 262.08 50.45 274.2 50.23 299.73 44.06 271.47 45.99 257.99 44.39 231.04 42.41 218.53 48.76 190.96 43.12 183.66 47.54 167.37 43.53 150.6 43.83 144.03 46.4 131.96 48.45 119.43 44.38 107.28 44.59 87.29 44.94 74.42 45.17 61.85 45.39 51.55 48.02 41.66 45.74 34.48 45.87 26.85 46.01 14.28 46.23 3.04 43.56 -10.43 43.8 -17.61 43.93 -23.82 51.19"/>
                <polygon class="cls-3" points="-108.72 56.04 -99.33 60.47 -82.28 60.72 -62.51 58.15 -50.39 58.32 -32.87 55.72 -5.07 58.99 47.07 56.89 61.36 57.1 75.45 60.17 98.78 57.65 114.31 60.74 117.01 59.55 126.92 55.2 138.59 55.38 147.99 58.37 165.94 58.64 177.18 55.94 189.3 56.12 214.84 62.22 186.58 60.37 173.1 62.01 146.15 64.07 133.63 57.75 106.07 63.48 98.77 59.08 82.48 63.14 65.71 62.89 59.13 60.34 47.06 58.32 34.54 62.43 22.39 62.25 2.4 61.96 -10.47 61.77 -23.04 61.59 -33.34 58.98 -43.23 61.29 -50.41 61.19 -58.04 61.07 -70.61 60.89 -81.85 63.59 -95.31 63.39 -102.49 63.28 -108.72 56.04"/>
                <polygon class="cls-3" points="194.19 109.52 188.09 105.04 176.91 104.71 163.93 107.18 155.99 106.94 144.47 109.45 126.28 106.04 92.08 107.88 82.72 107.59 73.52 104.45 58.2 106.86 48.05 103.69 46.27 104.86 39.73 109.16 32.08 108.93 25.95 105.88 14.18 105.53 6.79 108.17 -1.15 107.93 -17.83 101.7 .68 103.69 9.53 102.12 27.21 100.2 35.35 106.58 53.48 100.99 58.22 105.43 68.94 101.46 79.93 101.79 84.21 104.37 92.11 106.45 100.36 102.4 108.32 102.64 121.42 103.04 129.86 103.29 138.09 103.54 144.82 106.19 151.32 103.94 156.03 104.08 161.03 104.23 169.26 104.48 176.66 101.84 185.49 102.1 190.19 102.25 194.19 109.52"/>
                <polygon class="cls-3" points="-23.82 86.48 -14.44 90.94 2.61 91.24 22.39 88.73 34.5 88.94 52.03 86.39 79.83 89.74 131.97 87.8 146.26 88.05 160.34 91.16 183.67 88.71 199.2 91.84 201.91 90.66 211.82 86.34 223.49 86.55 232.89 89.57 250.84 89.89 262.08 87.23 274.2 87.44 299.73 93.61 271.47 91.68 257.99 93.29 231.04 95.26 218.53 88.91 190.96 94.56 183.66 90.14 167.37 94.14 150.6 93.85 144.03 91.28 131.96 89.23 119.43 93.3 107.28 93.08 87.29 92.73 74.42 92.51 61.85 92.28 51.55 89.65 41.66 91.93 34.48 91.8 26.85 91.67 14.28 91.45 3.04 94.11 -10.43 93.87 -17.61 93.75 -23.82 86.48"/>
                <polygon class="cls-3" points="-108.72 81.64 -99.33 77.2 -82.28 76.95 -62.51 79.53 -50.39 79.35 -32.87 81.95 -5.07 78.68 47.07 80.78 61.36 80.57 75.45 77.5 98.78 80.02 114.31 76.93 117.01 78.12 126.92 82.47 138.59 82.3 147.99 79.3 165.94 79.04 177.18 81.73 189.3 81.55 214.84 75.46 186.58 77.3 173.1 75.66 146.15 73.6 133.63 79.92 106.07 74.19 98.77 78.59 82.48 74.54 65.71 74.78 59.13 77.33 47.06 79.35 34.54 75.24 22.39 75.42 2.4 75.71 -10.47 75.9 -23.04 76.09 -33.34 78.69 -43.23 76.38 -50.41 76.49 -58.04 76.6 -70.61 76.78 -81.85 74.09 -95.31 74.29 -102.49 74.39 -108.72 81.64"/>
                <polygon class="cls-3" points="194.46 115.92 183.01 120.2 162.41 120.18 138.61 117.29 123.98 117.28 102.89 114.39 69.23 117.22 6.34 114.29 -10.92 114.27 -28.01 117.11 -56.1 114.22 -74.94 117.06 -78.17 115.83 -90.02 111.33 -104.12 111.31 -115.55 114.16 -137.23 114.13 -150.73 111.26 -165.36 111.24 -196.36 116.93 -162.18 115.54 -145.95 117.39 -113.47 119.88 -98.19 113.77 -65.06 119.93 -56.13 115.65 -36.58 119.96 -16.32 119.99 -8.31 117.54 6.32 115.72 21.33 120.03 36 120.04 60.14 120.07 75.69 120.09 90.87 120.1 103.37 117.66 115.26 120.13 123.93 120.14 133.14 120.15 148.32 120.16 161.82 123.04 178.08 123.06 186.76 123.07 194.46 115.92"/>
                <polygon class="cls-3" points="-24.1 130.7 -14.61 126.5 2.45 126.66 22.15 129.72 34.26 129.83 51.72 132.86 79.6 130.27 131.66 133.64 145.95 133.78 160.12 131.06 183.37 134.15 198.98 131.44 201.65 132.69 211.44 137.28 223.11 137.39 232.59 134.63 250.54 134.8 261.71 137.77 273.83 137.89 299.52 132.42 271.22 133.57 257.79 131.6 230.9 128.89 218.22 134.89 190.81 128.5 183.4 132.72 167.22 128.27 150.45 128.1 143.81 130.49 131.69 132.21 119.28 127.8 107.13 127.68 87.13 127.49 74.26 127.36 61.69 127.24 51.33 129.59 41.5 127.04 34.32 126.97 26.69 126.9 14.12 126.78 2.95 123.81 -10.51 123.68 -17.69 123.61 -24.1 130.7"/>
                <polygon class="cls-3" points="-108.72 139.91 -99.33 144.34 -82.28 144.59 -62.51 142.02 -50.39 142.19 -32.87 139.59 -5.07 142.86 47.07 140.76 61.36 140.97 75.45 144.04 98.78 141.52 114.31 144.61 117.01 143.42 126.92 139.07 138.59 139.24 147.99 142.24 165.94 142.51 177.18 139.81 189.3 139.99 214.84 146.09 186.58 144.24 173.1 145.88 146.15 147.94 133.63 141.62 106.07 147.35 98.77 142.95 82.48 147 65.71 146.76 59.13 144.21 47.06 142.19 34.54 146.3 22.39 146.12 2.4 145.83 -10.47 145.64 -23.04 145.46 -33.34 142.85 -43.23 145.16 -50.41 145.05 -58.04 144.94 -70.61 144.76 -81.85 147.45 -95.31 147.26 -102.49 147.15 -108.72 139.91"/>
                <polygon class="cls-3" points="194.19 193.39 188.09 188.91 176.91 188.58 163.93 191.05 155.99 190.81 144.47 193.32 126.28 189.91 92.08 191.74 82.72 191.46 73.52 188.32 58.2 190.72 48.05 187.56 46.27 188.73 39.73 193.03 32.08 192.8 25.95 189.75 14.18 189.4 6.79 192.04 -1.15 191.8 -17.83 185.57 .68 187.56 9.53 185.99 27.21 184.07 35.35 190.44 53.48 184.86 58.22 189.29 68.94 185.32 79.93 185.66 84.21 188.24 92.11 190.31 100.36 186.27 108.32 186.51 121.42 186.91 129.86 187.16 138.09 187.41 144.82 190.06 151.32 187.81 156.03 187.95 161.03 188.1 169.26 188.35 176.66 185.71 185.49 185.97 190.19 186.12 194.19 193.39"/>
                <polygon class="cls-3" points="-23.63 165.68 -14.39 170.41 2.65 171.2 22.48 169.26 34.59 169.82 52.18 167.78 79.87 171.93 132.05 171.49 146.32 172.16 160.31 175.67 183.7 173.9 199.14 177.48 201.87 176.38 211.91 172.35 223.57 172.89 232.87 176.19 250.81 177.02 262.12 174.68 274.23 175.25 299.57 182.15 271.38 179.41 257.86 180.62 230.86 181.82 218.54 175.11 190.81 179.96 183.65 175.33 167.25 178.86 150.5 178.08 144 175.32 132 172.92 119.35 176.63 107.22 176.07 87.25 175.14 74.39 174.54 61.83 173.95 51.61 171.02 41.66 173.01 34.48 172.68 26.86 172.33 14.3 171.74 2.99 174.08 -10.46 173.45 -17.64 173.12 -23.63 165.68"/>
                <polygon class="cls-3" points="-108.74 158.82 -92.33 153.13 -62.72 153.57 -28.5 158.03 -7.46 158.35 22.87 162.76 71.21 159.51 161.63 164.82 186.43 165.18 210.97 161.59 251.38 166.15 278.43 162.59 283.08 164.36 300.14 170.83 320.4 171.13 336.8 167.41 367.96 167.88 387.39 172.13 408.42 172.44 452.92 165.18 403.82 166.43 380.48 163.54 333.78 159.45 311.87 167.61 264.2 158.42 251.4 164.17 223.27 157.81 194.15 157.38 182.66 160.6 161.65 162.84 140.05 156.58 118.96 156.26 84.26 155.75 61.92 155.42 40.1 155.09 22.14 158.22 5.05 154.57 -7.42 154.39 -20.66 154.19 -42.47 153.87 -61.9 149.62 -85.27 149.27 -97.73 149.09 -108.74 158.82"/>
              </g>
            </g>
            <g>
              <path class="cls-15" d="M95.53,5.53c0,3.05-2.48,6.36-5.53,6.36s-5.53-3.31-5.53-6.36,2.48-5.53,5.53-5.53,5.53,2.48,5.53,5.53Z"/>
              <path class="cls-13" d="M95.53,5.53c0,3.05-2.48,5.53-5.53,5.53s-5.53-2.48-5.53-5.53,2.48-5.53,5.53-5.53,5.53,2.48,5.53,5.53Z"/>
              <path class="cls-14" d="M90.09,8.15c-2.07,0-3.41-1.15-4.03-2.62h-.07c0,2.21,1.8,4.55,4.01,4.55s3.97-2.3,4.01-4.49c-.58,1.44-1.87,2.56-3.91,2.56Z"/>
              <path class="cls-13" d="M94.01,5.53c0,2.21-1.8,4.01-4.01,4.01s-4.01-1.8-4.01-4.01,1.8-4.01,4.01-4.01,4.01,1.8,4.01,4.01Z"/>
              <path class="cls-11" d="M92.85,2.71c.35.54.56,1.18.56,1.87,0,1.89-1.53,3.42-3.42,3.42s-3.42-1.53-3.42-3.42c0-.69.21-1.33.56-1.87-.71.72-1.16,1.72-1.16,2.82,0,2.21,1.8,4.01,4.01,4.01s4.01-1.8,4.01-4.01c0-1.1-.44-2.09-1.16-2.82Z"/>
            </g>
          </g>
          <path class="cls-5" d="M123.47,97.83c-3.14,0-5.69,2.55-5.69,5.69v3.82c-1.47-1.15-3.32-1.84-5.32-1.84-4.6,0-8.37,3.6-8.66,8.13h-12.04c-.29-4.53-4.06-8.13-8.66-8.13-2.88,0-5.42,1.41-7.01,3.57-1.58-2.16-4.13-3.57-7.01-3.57-2.01,0-3.85.69-5.32,1.84v-3.82c0-3.14-2.55-5.69-5.69-5.69s-5.69,2.55-5.69,5.69v65.61c-2.4,1.47-4,4.11-4,7.12,0,4.61,3.75,8.36,8.35,8.36h68.73c4.61,0,8.36-3.75,8.36-8.36,0-3.28-1.91-6.12-4.67-7.49v-65.24c0-3.14-2.55-5.69-5.69-5.69ZM121.15,132.88v-29.36c0-1.28,1.04-2.32,2.32-2.32s2.32,1.04,2.32,2.32v64.39c-.11,0-.21-.02-.32-.02h-4.32v-35.02ZM112.46,108.87c2.94,0,5.32,2.39,5.32,5.32s-2.39,5.32-5.32,5.32-5.32-2.39-5.32-5.32,2.39-5.32,5.32-5.32ZM83.1,108.87c2.94,0,5.32,2.39,5.32,5.32s-2.39,5.32-5.32,5.32-5.32-2.39-5.32-5.32,2.39-5.32,5.32-5.32ZM76.09,119.32c1.58,2.16,4.13,3.57,7.01,3.57,4.41,0,8.05-3.3,8.61-7.57h12.14c.55,4.26,4.2,7.57,8.61,7.57,2.01,0,3.85-.69,5.32-1.84v4.98c-1.47-1.15-3.32-1.84-5.32-1.84-3.32,0-6.21,1.88-7.67,4.62-1.46-2.75-4.35-4.62-7.67-4.62-4.6,0-8.37,3.6-8.66,8.13h-24.69v-11.27c1.47,1.15,3.32,1.84,5.32,1.84,2.88,0,5.42-1.41,7.01-3.57ZM97.11,162.26c4.51,0,8.22-3.45,8.65-7.85h12.02v13.49h-54.02v-7.48c1.47,1.15,3.32,1.84,5.32,1.84,4.51,0,8.22-3.45,8.65-7.85h10.73c.42,4.4,4.14,7.85,8.65,7.85ZM91.79,153.57c0-2.93,2.39-5.32,5.32-5.32s5.32,2.39,5.32,5.32-2.39,5.32-5.32,5.32-5.32-2.39-5.32-5.32ZM105.76,152.72c-.42-4.4-4.14-7.85-8.65-7.85s-8.22,3.45-8.65,7.85h-10.73c-.43-4.4-4.14-7.85-8.65-7.85-2.01,0-3.85.69-5.32,1.84v-12.71h24.74c.55,4.26,4.2,7.57,8.61,7.57,3.32,0,6.21-1.88,7.67-4.62,1.46,2.75,4.35,4.62,7.67,4.62,2.01,0,3.85-.69,5.32-1.84v12.99h-12.02ZM91.79,132.88c0-2.93,2.39-5.32,5.32-5.32s5.32,2.39,5.32,5.32-2.39,5.32-5.32,5.32-5.32-2.39-5.32-5.32ZM112.46,138.2c-2.93,0-5.32-2.39-5.32-5.32s2.39-5.32,5.32-5.32,5.32,2.39,5.32,5.32-2.39,5.32-5.32,5.32ZM69.09,108.87c2.93,0,5.32,2.39,5.32,5.32h0c0,2.94-2.39,5.33-5.32,5.33s-5.32-2.39-5.32-5.32,2.39-5.32,5.32-5.32ZM69.09,148.24c2.94,0,5.32,2.39,5.32,5.32s-2.39,5.32-5.32,5.32-5.32-2.39-5.32-5.32,2.39-5.32,5.32-5.32ZM55.76,103.52c0-1.28,1.04-2.32,2.32-2.32s2.32,1.04,2.32,2.32v10.65s0,.01,0,.02,0,.02,0,.02v39.32s0,.02,0,.03c0,0,0,.02,0,.02v14.31h-3.66c-.34,0-.66.03-.99.06v-64.44ZM130.46,176.25c0,2.75-2.24,4.99-4.99,4.99H56.74c-2.75,0-4.99-2.24-4.99-4.99s2.24-4.99,4.99-4.99h68.73c2.75,0,4.99,2.24,4.99,4.99Z"/>
          <text class="cls-4" transform="translate(62.5 54.8)"><tspan x="0" y="0">Vida</tspan><tspan x="-47.4" y="29.31">Universtaria</tspan></text>
        </g>
      </g>
    </g>
  </g>
</svg>