<svg version="1.2" xmlns="http://www.w3.org/2000/svg" viewBox="0 0 180 202" width="180" height="202">
	<title>Academico</title>
	<defs>
		<clipPath clipPathUnits="userSpaceOnUse" id="cp1">
			<path d="m5.4 22.04h169.2c2.98 0 5.4 2.42 5.4 5.4v169.2c0 2.98-2.42 5.4-5.4 5.4h-169.2c-2.98 0-5.4-2.42-5.4-5.4v-169.2c0-2.98 2.42-5.4 5.4-5.4z"/>
		</clipPath>
	</defs>
	<style>
		.s0 { fill: none;stroke: #bcbec0;stroke-miterlimit:10 } 
		.s1 { fill: #f2c38c } 
		.s2 { opacity: .6;fill: #e2b074 } 
		.s3 { fill: #c69661 } 
		.s4 { fill: #f7d19a } 
		.s5 { fill: #d8a568 } 
		.s6 { opacity: .3;mix-blend-mode: multiply;fill: #212121 } 
		.s7 { fill: #414042 } 
		.s8 { fill: #353535 } 
		.s9 { fill: #6d6e71 } 
		.s10 { fill: #4c2608 } 
	</style>
	<g>
		<g id="Capa_2">
			<g id="Capa_1-2">
				<g>
					<g>
						<path class="s0" d="m5.4 22l84.6-20.1 80.4 20.1"/>
						<g>
							<path class="s1" d="m5.4 22h169.2c3 0 5.4 2.5 5.4 5.4v169.2c0 3-2.4 5.4-5.4 5.4h-169.2c-3 0-5.4-2.4-5.4-5.4v-169.2c0-2.9 2.4-5.4 5.4-5.4z"/>
							<path class="s2" d="m160.1 132.1c-8-0.4-24.7 1.4-32.7 0.3-4.4-0.7-8.7-1.5-13.1-2.2-9.3 0.3-18.7 0.6-28.1 0.9-14.7 0.5-29.4 0.9-44.2 0.9-8.5 0-17.1-1.3-25.4-3.4-5.1-1.2-10.1-2.6-15.3-3.5q-0.6-0.1-1.3-0.1v71.6c0 3 2.4 5.4 5.4 5.4h169.2c3 0 5.4-2.4 5.4-5.4v-60.8c-9.6-0.3-10.2-3.4-19.9-3.8z"/>
							<path class="s3" d="m174.6 197.4h-169.2c-3 0-5.4-2.4-5.4-5.4v2.3c0 3 0.8 7.7 5.4 7.7h169.2c5.4 0 5.4-4.7 5.4-7.7v-2.3c0 3-2.4 5.4-5.4 5.4z"/>
							<path class="s4" d="m174.6 22h-169.2c-3 0-5.4 4-5.4 7v1.5c0-3 2.4-5.4 5.4-5.4h169.2c3 0 5.4 2.4 5.4 5.4v-1.5c0-3-2.4-7-5.4-7z"/>
							<g id="Clip-Path" clip-path="url(#cp1)">
								<g>
									<path class="s5" d="m194.2 29.1l-6.1 4.5-11.2 0.4-13-2.5-7.9 0.2-11.5-2.5-18.2 3.4-34.2-1.8-9.4 0.3-9.2 3.1-15.3-2.4-10.1 3.2-1.8-1.2-6.6-4.3-7.6 0.2-6.1 3.1-11.8 0.3-7.4-2.6-7.9 0.2-16.7 6.3 18.5-2 8.8 1.6 17.7 1.9 8.2-6.4 18.1 5.6 4.7-4.5 10.7 4 11-0.3 4.3-2.6 7.9-2.1 8.3 4.1 7.9-0.3 13.1-0.4 8.5-0.2 8.2-0.3 6.7-2.6 6.5 2.2 4.7-0.1 5-0.2 8.3-0.2 7.4 2.6 8.8-0.2 4.7-0.2 4-7.3z"/>
									<path class="s5" d="m-23.8 52.2l9.4-4.5 17-0.3 19.8 2.5 12.1-0.2 17.5 2.6 27.8-3.4 52.2 2 14.3-0.3 14-3.1 23.4 2.5 15.5-3.2 2.7 1.2 9.9 4.3 11.7-0.2 9.4-3 17.9-0.3 11.3 2.7 12.1-0.3 25.5-6.1-28.2 1.9-13.5-1.6-27-2-12.5 6.4-27.5-5.7-7.3 4.4-16.3-4-16.8 0.3-6.6 2.6-12 2-12.6-4-12.1 0.2-20 0.3-12.9 0.3-12.5 0.2-10.4 2.6-9.8-2.3-7.2 0.2-7.6 0.1-12.6 0.2-11.3-2.6-13.4 0.2-7.2 0.1-6.2 7.3z"/>
									<path class="s5" d="m-108.7 57l9.4 4.5 17 0.2 19.8-2.6 12.1 0.2 17.5-2.6 27.8 3.3 52.2-2.1 14.3 0.2 14.1 3.1 23.3-2.6 15.5 3.1 2.7-1.2 9.9-4.3 11.7 0.2 9.4 3 17.9 0.2 11.3-2.7 12.1 0.2 25.5 6.1-28.2-1.8-13.5 1.6-26.9 2.1-12.6-6.3-27.5 5.7-7.3-4.4-16.3 4-16.8-0.2-6.6-2.6-12-2-12.6 4.1-12.1-0.1-20-0.3-12.9-0.2-12.5-0.2-10.3-2.6-9.9 2.3-7.2-0.1-7.6-0.1-12.6-0.2-11.3 2.7-13.4-0.2-7.2-0.1-6.2-7.3z"/>
									<path class="s5" d="m194.2 110.5l-6.1-4.5-11.2-0.3-13 2.5-7.9-0.3-11.5 2.6-18.2-3.5-34.2 1.9-9.4-0.3-9.2-3.1-15.3 2.4-10.1-3.2-1.8 1.2-6.6 4.3-7.6-0.3-6.1-3-11.8-0.4-7.4 2.7-7.9-0.3-16.7-6.2 18.5 2 8.8-1.6 17.7-1.9 8.2 6.4 18.1-5.6 4.7 4.4 10.7-3.9 11 0.3 4.3 2.6 7.9 2.1 8.3-4.1 7.9 0.2 13.1 0.4 8.5 0.3 8.2 0.2 6.7 2.7 6.5-2.3 4.7 0.2 5 0.1 8.3 0.3 7.4-2.7 8.8 0.3 4.7 0.1 4 7.3z"/>
									<path class="s5" d="m-23.8 87.5l9.4 4.4 17 0.3 19.8-2.5 12.1 0.2 17.5-2.5 27.8 3.3 52.2-1.9 14.3 0.2 14 3.2 23.4-2.5 15.5 3.1 2.7-1.1 9.9-4.4 11.7 0.2 9.4 3.1 17.9 0.3 11.3-2.7 12.1 0.2 25.5 6.2-28.2-1.9-13.5 1.6-27 2-12.5-6.4-27.5 5.7-7.3-4.5-16.3 4-16.8-0.3-6.6-2.5-12-2.1-12.6 4.1-12.1-0.2-20-0.4-12.9-0.2-12.5-0.2-10.4-2.6-9.8 2.2-7.2-0.1-7.6-0.1-12.6-0.2-11.3 2.6-13.4-0.2-7.2-0.1-6.2-7.3z"/>
									<path class="s5" d="m-108.7 82.6l9.4-4.4 17-0.2 19.8 2.5 12.1-0.1 17.5 2.6 27.8-3.3 52.2 2.1 14.3-0.2 14.1-3.1 23.3 2.5 15.5-3.1 2.7 1.2 9.9 4.4 11.7-0.2 9.4-3 17.9-0.3 11.3 2.7 12.1-0.1 25.5-6.1-28.2 1.8-13.5-1.6-26.9-2.1-12.6 6.3-27.5-5.7-7.3 4.4-16.3-4.1-16.8 0.3-6.6 2.5-12 2-12.6-4.1-12.1 0.2-20 0.3-12.9 0.2-12.5 0.2-10.3 2.6-9.9-2.3-7.2 0.1-7.6 0.1-12.6 0.2-11.3-2.7-13.4 0.2-7.2 0.1-6.2 7.2z"/>
									<path class="s5" d="m194.5 116.9l-11.5 4.3h-20.6l-23.8-2.9h-14.6l-21.1-2.9-33.7 2.8-62.9-2.9h-17.2l-17.1 2.8-28.1-2.9-18.8 2.9-3.3-1.3-11.8-4.5h-14.1l-11.4 2.9-21.7-0.1-13.5-2.8-14.7-0.1-31 5.7 34.2-1.4 16.3 1.9 32.4 2.5 15.3-6.1 33.1 6.1 9-4.3 19.5 4.4h20.3l8-2.5 14.6-1.8 15 4.3h14.7l24.1 0.1h15.6 15.2l12.5-2.4 11.9 2.4h8.6 9.2l15.2 0.1 13.5 2.8 16.3 0.1h8.7l7.7-7.2z"/>
									<path class="s5" d="m-24.1 131.7l9.5-4.2 17.1 0.2 19.6 3 12.2 0.1 17.4 3.1 27.9-2.6 52.1 3.3 14.2 0.2 14.2-2.7 23.3 3.1 15.6-2.8 2.7 1.3 9.7 4.6 11.7 0.1 9.5-2.8 17.9 0.2 11.2 3 12.1 0.1 25.7-5.5-28.3 1.2-13.4-2-26.9-2.7-12.7 6-27.4-6.4-7.4 4.2-16.2-4.4-16.8-0.2-6.6 2.4-12.1 1.7-12.4-4.4-12.2-0.1-20-0.2-12.8-0.1-12.6-0.2-10.4 2.4-9.8-2.6h-7.2l-7.6-0.1-12.6-0.1-11.1-3-13.5-0.1-7.2-0.1-6.4 7.1z"/>
									<path class="s5" d="m-108.7 140.9l9.4 4.4 17 0.3 19.8-2.6 12.1 0.2 17.5-2.6 27.8 3.3 52.2-2.1 14.3 0.2 14.1 3 23.3-2.5 15.5 3.1 2.7-1.2 9.9-4.3 11.7 0.1 9.4 3 17.9 0.3 11.3-2.7 12.1 0.2 25.5 6.1-28.2-1.9-13.5 1.7-26.9 2-12.6-6.3-27.5 5.7-7.3-4.4-16.3 4.1-16.8-0.2-6.6-2.6-12-2-12.6 4.1-12.1-0.2-20-0.3-12.9-0.2-12.5-0.1-10.3-2.7-9.9 2.4-7.2-0.1-7.6-0.2-12.6-0.1-11.3 2.6-13.4-0.1-7.2-0.1-6.2-7.3z"/>
									<path class="s5" d="m194.2 194.4l-6.1-4.5-11.2-0.3-13 2.5-7.9-0.3-11.5 2.5-18.2-3.4-34.2 1.8-9.4-0.2-9.2-3.2-15.3 2.4-10.1-3.1-1.8 1.1-6.6 4.3-7.6-0.2-6.1-3.1-11.8-0.3-7.4 2.6-7.9-0.2-16.7-6.2 18.5 2 8.8-1.6 17.7-1.9 8.2 6.3 18.1-5.5 4.7 4.4 10.7-4 11 0.4 4.3 2.5 7.9 2.1 8.3-4 7.9 0.2 13.1 0.4 8.5 0.3 8.2 0.2 6.7 2.7 6.5-2.3 4.7 0.1 5 0.2 8.3 0.2 7.4-2.6 8.8 0.3 4.7 0.1 4 7.3z"/>
									<path class="s5" d="m-23.6 166.7l9.2 4.7 17.1 0.8 19.8-1.9 12.1 0.5 17.6-2 27.7 4.1 52.2-0.4 14.2 0.7 14 3.5 23.4-1.8 15.4 3.6 2.8-1.1 10-4 11.7 0.5 9.3 3.3 17.9 0.8 11.3-2.3 12.1 0.6 25.4 6.9-28.2-2.8-13.5 1.2-27 1.2-12.4-6.7-27.7 4.9-7.1-4.7-16.4 3.6-16.8-0.8-6.5-2.8-12-2.4-12.7 3.7-12.1-0.5-20-1-12.8-0.6-12.6-0.6-10.2-2.9-9.9 2-7.2-0.3-7.6-0.4-12.6-0.6-11.3 2.4-13.5-0.7-7.1-0.3-6-7.4z"/>
									<path class="s5" d="m-108.7 159.8l16.4-5.7 29.6 0.5 34.2 4.4 21 0.3 30.4 4.5 48.3-3.3 90.4 5.3 24.8 0.4 24.6-3.6 40.4 4.5 27-3.5 4.7 1.8 17 6.4 20.3 0.3 16.4-3.7 31.2 0.5 19.4 4.2 21 0.3 44.5-7.2-49.1 1.2-23.3-2.9-46.7-4.1-21.9 8.2-47.7-9.2-12.8 5.8-28.1-6.4-29.1-0.4-11.5 3.2-21 2.2-21.6-6.2-21.1-0.3-34.7-0.6-22.4-0.3-21.8-0.3-18 3.1-17-3.6-12.5-0.2-13.3-0.2-21.8-0.3-19.4-4.3-23.4-0.3-12.4-0.2-11 9.7z"/>
								</g>
							</g>
						</g>
						<g>
							<path class="s6" d="m95.5 6.5c0 3.1-2.5 6.4-5.5 6.4-3 0-5.5-3.3-5.5-6.4 0-3 2.5-5.5 5.5-5.5 3 0 5.5 2.5 5.5 5.5z"/>
							<path class="s7" d="m95.5 6.5c0 3.1-2.5 5.6-5.5 5.6-3 0-5.5-2.5-5.5-5.6 0-3 2.5-5.5 5.5-5.5 3 0 5.5 2.5 5.5 5.5z"/>
							<path class="s8" d="m90.1 9.2c-2.1 0-3.4-1.2-4-2.7h-0.1c0 2.2 1.8 4.6 4 4.6 2.2 0 4-2.3 4-4.5-0.6 1.4-1.9 2.6-3.9 2.6z"/>
							<path class="s7" d="m94 6.5c0 2.2-1.8 4-4 4-2.2 0-4-1.8-4-4 0-2.2 1.8-4 4-4 2.2 0 4 1.8 4 4z"/>
							<path class="s9" d="m92.8 3.7c0.4 0.5 0.6 1.2 0.6 1.9 0 1.9-1.5 3.4-3.4 3.4-1.9 0-3.4-1.5-3.4-3.4 0-0.7 0.2-1.4 0.5-1.9-0.7 0.7-1.1 1.7-1.1 2.8 0 2.2 1.8 4 4 4 2.2 0 4-1.8 4-4 0-1.1-0.4-2.1-1.2-2.8z"/>
						</g>
					</g>
					<path fill-rule="evenodd" class="s10" d="m129.2 104.5v65.3c2.7 1.3 4.6 4.2 4.6 7.5 0 4.6-3.7 8.3-8.3 8.3h-68.8c-4.6 0-8.3-3.7-8.3-8.3 0-3.1 1.6-5.7 4-7.2v-65.6c0-3.1 2.5-5.7 5.7-5.7 3.1 0 5.7 2.6 5.7 5.7v3.8c1.4-1.1 3.3-1.8 5.3-1.8 2.9 0 5.4 1.4 7 3.6 1.6-2.2 4.1-3.6 7-3.6 4.6 0 8.4 3.6 8.7 8.1h12c0.3-4.5 4.1-8.1 8.7-8.1 2 0 3.8 0.7 5.3 1.8v-3.8c0-3.1 2.5-5.7 5.7-5.7 3.1 0 5.7 2.6 5.7 5.7zm-8 64.4h4.3q0.1 0 0.3 0v-64.4c0-1.3-1.1-2.3-2.3-2.3-1.3 0-2.3 1-2.3 2.3zm-14.1-53.7c0 3 2.4 5.3 5.4 5.3 2.9 0 5.3-2.3 5.3-5.3 0-2.9-2.4-5.3-5.3-5.3-3 0-5.4 2.4-5.4 5.3zm-29.3 0c0 3 2.4 5.3 5.3 5.3 2.9 0 5.3-2.3 5.3-5.3 0-2.9-2.4-5.3-5.3-5.3-2.9 0-5.3 2.4-5.3 5.3zm-1.7 5.2q0 0 0 0 0 0 0-0.1zm0 0.1c-1.6 2.1-4.1 3.5-7 3.5-2 0-3.8-0.7-5.3-1.8v11.2h24.7c0.3-4.5 4-8.1 8.6-8.1 3.4 0 6.2 1.9 7.7 4.6 1.5-2.7 4.4-4.6 7.7-4.6 2 0 3.8 0.7 5.3 1.9v-5c-1.5 1.1-3.3 1.8-5.3 1.8-4.4 0-8.1-3.3-8.6-7.6h-12.2c-0.5 4.3-4.2 7.6-8.6 7.6-2.9 0-5.4-1.4-7-3.5zm12.4 35h-10.8c-0.4 4.4-4.1 7.9-8.6 7.9-2 0-3.9-0.7-5.3-1.8v7.4h54v-13.5h-12c-0.5 4.4-4.2 7.9-8.7 7.9-4.5 0-8.2-3.5-8.6-7.9zm8.6 4.5c3 0 5.3-2.4 5.3-5.3 0-2.9-2.3-5.3-5.3-5.3-2.9 0-5.3 2.4-5.3 5.3 0 2.9 2.4 5.3 5.3 5.3zm20.7-6.2v-12.9c-1.5 1.1-3.3 1.8-5.3 1.8-3.4 0-6.3-1.9-7.7-4.6-1.5 2.7-4.4 4.6-7.7 4.6-4.4 0-8-3.3-8.6-7.6h-24.7v12.7c1.4-1.1 3.3-1.8 5.3-1.8 4.5 0 8.2 3.4 8.6 7.8h10.8c0.4-4.4 4.1-7.8 8.6-7.8 4.5 0 8.3 3.4 8.7 7.8zm-20.7-14.5c2.9 0 5.3-2.4 5.3-5.3 0-2.9-2.4-5.3-5.3-5.3-2.9 0-5.3 2.4-5.3 5.3 0 2.9 2.4 5.3 5.3 5.3zm20.7-5.3c0-2.9-2.4-5.3-5.3-5.3-3 0-5.4 2.4-5.4 5.3 0 2.9 2.4 5.3 5.4 5.3 2.9 0 5.3-2.4 5.3-5.3zm-54-18.7c0 3 2.4 5.3 5.3 5.3 2.9 0 5.3-2.3 5.3-5.3 0-2.9-2.4-5.3-5.3-5.3-2.9 0-5.3 2.4-5.3 5.3zm0 39.4c0 2.9 2.4 5.3 5.3 5.3 2.9 0 5.3-2.4 5.3-5.3 0-2.9-2.4-5.3-5.3-5.3-2.9 0-5.3 2.4-5.3 5.3zm-8-50.1v64.5q0.4-0.1 0.9-0.1h3.7c0 0 0-53.7 0-53.7q0 0 0 0c0 0 0-10.7 0-10.7 0-1.2-1-2.3-2.3-2.3-1.3 0-2.3 1.1-2.3 2.3zm69.7 67.8h-68.7c-2.8 0-5 2.2-5 5 0 2.7 2.2 5 5 5h68.7c2.7 0 5-2.3 5-5 0-2.8-2.3-5-5-5z"/>
					<g>
						<path id="Vida" class="s10" aria-label="Vida"  d="m70 52.6l-4.6-13.4h-3.6l6.2 16.8h4.1l6.1-16.8h-3.6zm10.2 3.5h3.4v-13.3h-3.4zm1.7-14.9c1.2 0 2.1-0.9 2.1-2 0-1.1-0.9-1.9-2.1-1.9-1.2 0-2.1 0.8-2.1 1.9 0 1.1 0.9 2 2.1 2zm4.1 8.2c0 4.1 2.7 6.9 6.1 6.9 2.1 0 3.6-1 4.4-2.2v2h3.4v-17.8h-3.4v6.3c-1-1.2-2.6-2-4.4-2-3.4 0-6.1 2.6-6.1 6.8zm10.5 0c0 2.6-1.7 3.9-3.6 3.9-1.8 0-3.5-1.4-3.5-3.9 0-2.5 1.7-3.9 3.5-3.9 1.9 0 3.6 1.4 3.6 3.9zm5.8 0c0 4.1 2.7 6.9 6 6.9 2.1 0 3.7-1 4.4-2.2v2h3.4v-13.3h-3.4v1.9c-0.7-1.1-2.2-2.1-4.3-2.1-3.4 0-6.1 2.6-6.1 6.8zm10.4 0c0 2.6-1.6 3.9-3.5 3.9-1.8 0-3.5-1.4-3.5-3.9 0-2.5 1.7-3.9 3.5-3.9 1.9 0 3.5 1.4 3.5 3.9z"/>
						<path id="Universitaria" class="s10" aria-label="Universitaria"  d="m15.7 78.6c0 4.4 3 6.6 6.7 6.6 3.7 0 6.8-2.2 6.8-6.6v-10.4h-3.3v10.4c0 2.3-1.3 3.5-3.4 3.5-2.2 0-3.4-1.2-3.4-3.5v-10.4h-3.4zm26.1 6.5h3.4v-7.8c0-3.7-2.3-5.7-5.3-5.7-1.8 0-3.2 0.7-4.1 1.8v-1.6h-3.3v13.3h3.3v-7.4c0-2.1 1.2-3.3 3-3.3 1.8 0 3 1.2 3 3.3zm6.5 0h3.4v-13.3h-3.4zm1.8-14.9c1.1 0 2-0.8 2-1.9 0-1.1-0.9-2-2-2-1.2 0-2.1 0.9-2.1 2 0 1.1 0.9 1.9 2.1 1.9zm3.5 1.6l4.9 13.3h4.1l4.9-13.3h-3.6l-3.3 10.2-3.4-10.2zm21.5 2.6c1.7 0 3.1 1.1 3.2 2.8h-6.3c0.2-1.8 1.5-2.8 3.1-2.8zm6.3 6.5h-3.6c-0.4 0.9-1.2 1.6-2.7 1.6-1.6 0-3-1.1-3.2-3h9.8c0-0.5 0.1-0.9 0.1-1.3 0-4-2.8-6.6-6.6-6.6-3.9 0-6.7 2.7-6.7 6.9 0 4.1 2.8 6.8 6.7 6.8 3.3 0 5.5-1.9 6.2-4.4zm6.2-2.4c0-2.6 1.2-3.3 3.2-3.3h0.8v-3.6c-1.8 0-3.2 0.9-4 2.3v-2.1h-3.4v13.3h3.4zm16.6 2.8c-0.1-4.8-7.4-3.3-7.4-5.7 0-0.8 0.6-1.3 1.9-1.3 1.3 0 2.1 0.7 2.2 1.7h3.2c-0.2-2.6-2.1-4.4-5.4-4.4-3.2 0-5.2 1.8-5.2 4 0 4.9 7.5 3.4 7.5 5.7 0 0.8-0.7 1.4-2 1.4-1.4 0-2.3-0.8-2.4-1.8h-3.4c0.1 2.5 2.5 4.5 5.8 4.5 3.2 0 5.2-1.8 5.2-4.1zm2.8 3.8h3.3v-13.3h-3.3zm1.7-14.8c1.2 0 2-0.9 2-2 0-1.1-0.8-2-2-2-1.2 0-2.1 0.9-2.1 2 0 1.1 0.9 2 2.1 2zm5.5 10.7c0 3.1 1.7 4.1 4.2 4.1h2.1v-2.8h-1.5c-1.1 0-1.4-0.4-1.4-1.3v-6.4h2.9v-2.8h-2.9v-3.2h-3.4v3.2h-1.6v2.8h1.6zm7.9-2.6c0 4.2 2.7 7 6 7 2.2 0 3.7-1.1 4.5-2.2v1.9h3.3v-13.3h-3.3v1.9c-0.8-1.1-2.3-2.1-4.4-2.1-3.4 0-6.1 2.7-6.1 6.8zm10.5 0.1c0 2.5-1.7 3.9-3.6 3.9-1.8 0-3.5-1.4-3.5-4 0-2.5 1.7-3.8 3.5-3.8 1.9 0 3.6 1.4 3.6 3.9zm10 0c0-2.6 1.2-3.3 3.2-3.3h0.9v-3.6c-1.9 0-3.3 0.9-4.1 2.3v-2.1h-3.4v13.3h3.4zm6.3 6.7h3.4v-13.3h-3.4zm1.7-14.9c1.2 0 2.1-0.9 2.1-2 0-1.1-0.9-2-2.1-2-1.2 0-2 0.9-2 2 0 1.1 0.8 2 2 2zm4.1 8.2c0 4.1 2.7 6.9 6.1 6.9 2.1 0 3.6-1 4.4-2.2v2h3.4v-13.3h-3.4v1.9c-0.8-1.1-2.3-2.1-4.4-2.1-3.4 0-6.1 2.6-6.1 6.8zm10.5 0c0 2.5-1.7 3.9-3.5 3.9-1.8 0-3.5-1.4-3.5-3.9 0-2.6 1.7-3.9 3.5-3.9 1.8 0 3.5 1.4 3.5 3.9z"/>
					</g>
				</g>
			</g>
		</g>
	</g>
</svg>