<svg version="1.2" xmlns="http://www.w3.org/2000/svg" viewBox="0 0 168 167" width="187" height="187">
	<title>aspectos_motivacionales-svg</title>
	<style>
		.s0 { fill: #d8a568 } 
		.s1 { fill: #ffffff } 
	</style>
	<g id="Capa_1-2">
		<g>
			<path class="s0" d="m25 8h103.6c9.1 0 16.6 7.5 16.6 16.6v103.6c0 9.2-7.5 16.6-16.6 16.6h-103.6c-9.2 0-16.6-7.4-16.6-16.6v-103.6c0-9.1 7.4-16.6 16.6-16.6z"/>
			<g>
				<path fill-rule="evenodd" class="s1" d="m64.3 53.3c0.5 0.5 0.5 1.2 0 1.7-0.2 0.3-0.5 0.4-0.8 0.4-0.3 0-0.7-0.1-0.9-0.4-0.5-0.5-0.5-1.2 0-1.7 0.5-0.5 1.3-0.5 1.7 0zm-0.4 0.4q-0.2-0.2-0.4-0.2-0.3 0-0.5 0.2c-0.2 0.2-0.2 0.6 0 0.9 0.3 0.2 0.7 0.2 0.9 0 0.3-0.3 0.3-0.6 0-0.9z"/>
				<path fill-rule="evenodd" class="s1" d="m67.2 50.5c0.4 0.5 0.4 1.2 0 1.7q-0.4 0.4-0.9 0.4-0.5 0-0.9-0.4c-0.5-0.5-0.5-1.3 0-1.7 0.5-0.5 1.3-0.5 1.8 0zm-0.5 0.4q-0.2-0.2-0.4-0.2-0.3 0-0.5 0.2c-0.2 0.2-0.2 0.6 0 0.9 0.3 0.2 0.7 0.2 0.9 0 0.3-0.3 0.3-0.6 0-0.9z"/>
				<path fill-rule="evenodd" class="s1" d="m68.9 50q0 0 0 0 0 0 0 0zm0 0c-0.3 0-0.6-0.2-0.9-0.4-0.4-0.5-0.4-1.3 0-1.7 0.5-0.5 1.3-0.5 1.8 0 0.5 0.4 0.5 1.2 0 1.7-0.3 0.2-0.6 0.4-0.9 0.4zm-0.4-0.8c0.2 0.2 0.6 0.2 0.8 0 0.3-0.3 0.3-0.7 0-0.9q-0.1-0.2-0.4-0.2-0.2 0-0.4 0.2c-0.3 0.2-0.3 0.6 0 0.9z"/>
				<path fill-rule="evenodd" class="s1" d="m59.7 52.1c-0.4-0.4-0.4-1.2 0-1.7 0.5-0.5 1.3-0.5 1.8 0 0.5 0.5 0.5 1.3 0 1.7q-0.4 0.4-0.9 0.4-0.5 0-0.9-0.4zm0.5-0.4c0.2 0.3 0.6 0.3 0.8 0 0.3-0.2 0.3-0.6 0-0.9q-0.1-0.1-0.4-0.1-0.2 0-0.4 0.1c-0.3 0.3-0.3 0.7 0 0.9z"/>
				<path fill-rule="evenodd" class="s1" d="m64.3 47.6c0.5 0.5 0.5 1.3 0 1.7q-0.4 0.4-0.9 0.4-0.5 0-0.9-0.4c-0.4-0.4-0.4-1.2 0-1.7 0.5-0.5 1.3-0.5 1.8 0zm-0.4 0.4q-0.2-0.1-0.5-0.1-0.2 0-0.4 0.1c-0.3 0.3-0.3 0.7 0 0.9 0.2 0.2 0.6 0.2 0.9 0 0.2-0.2 0.2-0.6 0-0.9z"/>
				<path fill-rule="evenodd" class="s1" d="m65.2 46.7c-0.5-0.5-0.5-1.2 0-1.7 0.4-0.5 1.2-0.5 1.7 0 0.5 0.5 0.5 1.3 0 1.7q-0.4 0.4-0.9 0.4-0.5 0-0.8-0.4zm0.4-0.4c0.2 0.2 0.6 0.2 0.9 0 0.2-0.2 0.2-0.6 0-0.9q-0.2-0.2-0.5-0.2-0.2 0-0.4 0.2c-0.3 0.3-0.3 0.6 0 0.9z"/>
				<path fill-rule="evenodd" class="s1" d="m58.7 47.6c0.5 0.5 0.5 1.3 0 1.8q-0.4 0.3-0.9 0.3-0.5 0-0.8-0.3c-0.5-0.5-0.5-1.3 0-1.8 0.4-0.4 1.2-0.4 1.7 0zm-0.4 0.5q-0.2-0.2-0.5-0.2-0.2 0-0.4 0.2c-0.2 0.2-0.2 0.6 0 0.8 0.2 0.3 0.6 0.3 0.9 0 0.2-0.2 0.2-0.6 0-0.8z"/>
				<path fill-rule="evenodd" class="s1" d="m59.8 46.6c-0.5-0.5-0.5-1.3 0-1.8 0.5-0.4 1.2-0.4 1.7 0 0.5 0.5 0.5 1.3 0 1.8q-0.4 0.3-0.9 0.3-0.5 0-0.8-0.3zm0.4-0.5c0.2 0.3 0.6 0.3 0.9 0 0.2-0.2 0.2-0.6 0-0.8q-0.2-0.2-0.5-0.2-0.2 0-0.4 0.2c-0.2 0.2-0.2 0.6 0 0.8z"/>
				<path fill-rule="evenodd" class="s1" d="m62.4 44c-0.5-0.5-0.5-1.3 0-1.8 0.5-0.5 1.2-0.5 1.7 0 0.5 0.5 0.5 1.3 0 1.8q-0.4 0.3-0.8 0.3-0.5 0-0.9-0.3zm0.4-0.5c0.3 0.3 0.6 0.3 0.9 0 0.2-0.2 0.2-0.6 0-0.9q-0.2-0.1-0.4-0.1-0.3 0-0.5 0.1c-0.2 0.3-0.2 0.7 0 0.9z"/>
				<path fill-rule="evenodd" class="s1" d="m89.4 78.3c0.2 0.3 0.4 0.6 0.4 0.9 0 0.3-0.2 0.7-0.4 0.9q-0.4 0.3-0.9 0.3-0.5 0-0.8-0.3c-0.3-0.2-0.4-0.6-0.4-0.9 0-0.3 0.1-0.6 0.4-0.9 0.5-0.4 1.2-0.4 1.7 0zm-0.2 0.9q0-0.3-0.2-0.4-0.2-0.2-0.5-0.2-0.2 0-0.4 0.2-0.2 0.1-0.2 0.4 0 0.3 0.2 0.4c0.2 0.3 0.6 0.3 0.9 0q0.2-0.1 0.2-0.4z"/>
				<path fill-rule="evenodd" class="s1" d="m92.2 75.5c0.5 0.5 0.5 1.3 0 1.8q-0.4 0.3-0.9 0.3-0.5 0-0.8-0.3c-0.5-0.5-0.5-1.3 0-1.8 0.5-0.5 1.2-0.5 1.7 0zm-0.4 0.5q-0.2-0.2-0.5-0.2-0.2 0-0.4 0.2c-0.2 0.2-0.2 0.6 0 0.8 0.3 0.3 0.6 0.3 0.9 0 0.2-0.2 0.2-0.6 0-0.8z"/>
				<path fill-rule="evenodd" class="s1" d="m94.8 72.9c0.3 0.3 0.4 0.6 0.4 0.9 0 0.3-0.1 0.6-0.4 0.9q-0.4 0.3-0.8 0.3-0.5 0-0.9-0.3c-0.3-0.3-0.4-0.6-0.4-0.9 0-0.3 0.1-0.7 0.4-0.9 0.5-0.5 1.2-0.5 1.7 0zm-0.2 0.9q0-0.3-0.2-0.4-0.2-0.2-0.4-0.2-0.3 0-0.5 0.2-0.2 0.1-0.2 0.4 0 0.2 0.2 0.4c0.3 0.3 0.7 0.3 0.9 0q0.2-0.2 0.2-0.4z"/>
				<path fill-rule="evenodd" class="s1" d="m86.5 75.5c0.3 0.2 0.4 0.5 0.4 0.8 0 0.4-0.1 0.7-0.4 0.9q-0.3 0.4-0.8 0.4-0.5 0-0.9-0.4c-0.2-0.2-0.4-0.5-0.4-0.9 0-0.3 0.2-0.6 0.4-0.8 0.5-0.5 1.3-0.5 1.7 0zm-0.2 0.8q0-0.2-0.2-0.4-0.2-0.2-0.4-0.2-0.3 0-0.5 0.2-0.2 0.2-0.2 0.4 0 0.3 0.2 0.5c0.3 0.2 0.7 0.2 0.9 0q0.2-0.2 0.2-0.5z"/>
				<path fill-rule="evenodd" class="s1" d="m87.6 74.4c-0.2-0.2-0.4-0.5-0.4-0.9 0-0.3 0.2-0.6 0.4-0.8 0.5-0.5 1.3-0.5 1.7 0 0.3 0.2 0.4 0.5 0.4 0.8 0 0.4-0.1 0.7-0.4 0.9-0.2 0.2-0.5 0.4-0.8 0.4q-0.5 0-0.9-0.4zm0.3-0.9q0 0.3 0.1 0.5c0.3 0.2 0.7 0.2 0.9 0q0.2-0.2 0.2-0.5 0-0.2-0.2-0.4-0.2-0.2-0.4-0.2-0.3 0-0.5 0.2-0.1 0.2-0.1 0.4z"/>
				<path fill-rule="evenodd" class="s1" d="m90.2 71.8c-0.2-0.2-0.3-0.5-0.3-0.9 0-0.3 0.1-0.6 0.3-0.8 0.5-0.5 1.3-0.5 1.8 0 0.2 0.2 0.3 0.5 0.3 0.8 0 0.4-0.1 0.7-0.4 0.9-0.2 0.2-0.5 0.4-0.8 0.4-0.3 0-0.7-0.2-0.9-0.4zm0.3-0.9q0 0.3 0.1 0.5c0.3 0.2 0.7 0.2 0.9 0q0.2-0.2 0.2-0.5 0-0.2-0.2-0.4-0.2-0.2-0.4-0.2-0.3 0-0.5 0.2-0.1 0.2-0.1 0.4z"/>
				<path fill-rule="evenodd" class="s1" d="m83.8 72.7c0.4 0.5 0.4 1.2 0 1.7q-0.4 0.4-0.9 0.4-0.5 0-0.9-0.4c-0.5-0.4-0.5-1.2 0-1.7 0.5-0.5 1.3-0.5 1.8 0zm-0.5 0.4q-0.2-0.2-0.4-0.2-0.2 0-0.4 0.2c-0.3 0.3-0.3 0.7 0 0.9 0.2 0.2 0.6 0.2 0.8 0 0.3-0.2 0.3-0.6 0-0.9z"/>
				<path fill-rule="evenodd" class="s1" d="m86.6 69.9c0.2 0.2 0.3 0.5 0.3 0.9 0 0.3-0.1 0.6-0.3 0.8-0.3 0.3-0.6 0.4-0.9 0.4-0.3 0-0.6-0.1-0.9-0.4-0.2-0.2-0.3-0.5-0.3-0.8 0-0.4 0.1-0.7 0.3-0.9 0.5-0.5 1.3-0.5 1.8 0zm-0.3 0.8q0-0.2-0.2-0.4-0.2-0.2-0.4-0.2-0.2 0-0.4 0.2-0.2 0.2-0.2 0.4 0 0.3 0.2 0.5c0.2 0.2 0.6 0.2 0.8 0q0.2-0.2 0.2-0.5z"/>
				<path fill-rule="evenodd" class="s1" d="m87.4 69c-0.2-0.2-0.3-0.5-0.3-0.9 0-0.3 0.1-0.6 0.3-0.8 0.5-0.5 1.3-0.5 1.8 0 0.2 0.2 0.3 0.5 0.3 0.8 0 0.4-0.1 0.7-0.3 0.9-0.3 0.3-0.6 0.4-0.9 0.4q-0.5 0-0.9-0.4zm0.3-0.9q0 0.3 0.2 0.5c0.2 0.2 0.6 0.2 0.8 0q0.2-0.2 0.2-0.5 0-0.2-0.2-0.4-0.1-0.2-0.4-0.2-0.2 0-0.4 0.2-0.2 0.2-0.2 0.4z"/>
				<path fill-rule="evenodd" class="s1" d="m48.8 76.6c0-1.8 0.7-3.5 1.9-4.7l10.6-10.6-10.6-10.5c-1.2-1.3-1.9-2.9-1.9-4.7 0-1.8 0.7-3.5 1.9-4.7l5.8-5.8c2.6-2.6 6.8-2.6 9.4 0l10.6 10.5 10.5-10.5c2.6-2.6 6.9-2.6 9.5 0l5.7 5.8c2.6 2.6 2.6 6.8 0 9.4l-10.5 10.5 10.5 10.6c2.6 2.6 2.6 6.8 0 9.4l-5.7 5.8c-1.3 1.3-3 2-4.7 2-1.8 0-3.5-0.7-4.8-2l-10.5-10.5-10.5 10.5c-1.3 1.3-3 2-4.8 2-1.7 0-3.4-0.7-4.7-2l-5.7-5.8c-1.3-1.2-2-2.9-2-4.7zm4.1-2.5c-0.7 0.7-1 1.6-1 2.5 0 1 0.3 1.9 1 2.6l5.8 5.8c0.7 0.7 1.6 1 2.6 1 0.9 0 1.8-0.3 2.5-1l36.3-36.3c0.7-0.7 1.1-1.6 1.1-2.6 0-0.9-0.4-1.9-1.1-2.5l-5.8-5.8c-0.7-0.7-1.6-1.1-2.5-1.1-1 0-1.9 0.4-2.6 1.1zm8.3-37.3c-0.9 0-1.8 0.3-2.5 1l-5.8 5.8c-0.7 0.7-1.1 1.6-1.1 2.5 0 1 0.4 1.9 1.1 2.6l10.5 10.6 10.9-10.9-10.5-10.6c-0.7-0.7-1.6-1-2.6-1zm33.1 48.2l5.8-5.8c0.7-0.7 1-1.6 1-2.5 0-1-0.3-1.9-1-2.6l-10.6-10.5-10.9 10.9 10.6 10.5c0.7 0.7 1.6 1.1 2.6 1.1 0.9 0 1.8-0.4 2.5-1.1z"/>
				<path fill-rule="evenodd" class="s1" d="m69.1 66c-1.4-1.5-1.4-3.8 0-5.2l7.6-7.6c0.7-0.7 1.6-1.1 2.6-1.1 1 0 1.9 0.4 2.6 1.1l2.8 2.8c0.7 0.7 1.1 1.6 1.1 2.6 0 1-0.4 1.9-1.1 2.6l-7.6 7.6c-0.7 0.7-1.7 1.1-2.6 1.1-0.9 0-1.9-0.4-2.6-1.1 0 0-2.8-2.8-2.8-2.8zm1.7-3.5c-0.5 0.5-0.5 1.3 0 1.7l2.8 2.9c0.5 0.5 1.3 0.5 1.8 0l7.6-7.7c0.2-0.2 0.4-0.5 0.4-0.8 0-0.3-0.2-0.7-0.4-0.9l-2.8-2.8c-0.5-0.5-1.3-0.5-1.8 0z"/>
				<path fill-rule="evenodd" class="s1" d="m82.8 49.2c-0.4-0.5-0.4-1.3 0-1.7 0.5-0.5 1.3-0.5 1.8 0 0.5 0.4 0.5 1.2 0 1.7-0.3 0.3-0.6 0.4-0.9 0.4q-0.5 0-0.9-0.4zm0.5-0.4c0.2 0.2 0.6 0.2 0.8 0 0.3-0.3 0.3-0.7 0-0.9q-0.1-0.2-0.4-0.2-0.2 0-0.4 0.2c-0.3 0.2-0.3 0.6 0 0.9z"/>
				<path fill-rule="evenodd" class="s1" d="m85.6 52c-0.2-0.2-0.3-0.5-0.3-0.9 0-0.3 0.1-0.6 0.3-0.8 0.5-0.5 1.3-0.5 1.8 0 0.2 0.2 0.3 0.5 0.3 0.8 0 0.4-0.1 0.7-0.3 0.9q-0.4 0.4-0.9 0.4-0.5 0-0.9-0.4zm0.3-0.9q0 0.3 0.2 0.5c0.2 0.2 0.6 0.2 0.9 0q0.1-0.2 0.1-0.5 0-0.2-0.1-0.4-0.2-0.2-0.5-0.2-0.2 0-0.4 0.2-0.2 0.2-0.2 0.4z"/>
				<path fill-rule="evenodd" class="s1" d="m88.3 54.6c-0.3-0.2-0.4-0.5-0.4-0.9 0-0.3 0.1-0.6 0.4-0.8 0.4-0.5 1.2-0.5 1.7 0 0.2 0.2 0.4 0.5 0.4 0.8 0 0.4-0.2 0.7-0.4 0.9-0.2 0.3-0.6 0.4-0.9 0.4q-0.5 0-0.8-0.4zm0.2-0.8q0 0.2 0.2 0.4c0.2 0.2 0.6 0.2 0.9 0q0.1-0.2 0.1-0.4 0-0.3-0.1-0.5-0.2-0.2-0.5-0.2-0.2 0-0.4 0.2-0.2 0.2-0.2 0.5z"/>
				<path fill-rule="evenodd" class="s1" d="m85.7 46.3c-0.2-0.2-0.3-0.5-0.3-0.8 0-0.4 0.1-0.7 0.3-0.9 0.5-0.5 1.3-0.5 1.8 0 0.2 0.2 0.3 0.5 0.3 0.9 0 0.3-0.1 0.6-0.4 0.8-0.2 0.3-0.5 0.4-0.8 0.4q-0.5 0-0.9-0.4zm0.3-0.8q0 0.2 0.1 0.4c0.3 0.3 0.7 0.3 0.9 0q0.2-0.2 0.2-0.4 0-0.3-0.2-0.5-0.2-0.1-0.4-0.1-0.3 0-0.5 0.1-0.1 0.2-0.1 0.5z"/>
				<path fill-rule="evenodd" class="s1" d="m90.3 47.4c0.4 0.5 0.4 1.3 0 1.8q-0.4 0.3-0.9 0.3-0.5 0-0.9-0.4c-0.5-0.4-0.5-1.2 0-1.7 0.5-0.5 1.3-0.5 1.8 0zm-0.5 0.4q-0.2-0.1-0.4-0.1-0.3 0-0.5 0.1c-0.2 0.3-0.2 0.7 0 0.9 0.3 0.3 0.7 0.3 0.9 0 0.3-0.2 0.3-0.6 0-0.9z"/>
				<path fill-rule="evenodd" class="s1" d="m91.1 51.8c-0.2-0.3-0.3-0.6-0.3-0.9 0-0.3 0.1-0.7 0.3-0.9 0.5-0.5 1.3-0.5 1.8 0 0.2 0.2 0.3 0.6 0.3 0.9 0 0.3-0.1 0.6-0.3 0.9q-0.4 0.3-0.9 0.3-0.5 0-0.9-0.3zm0.3-0.9q0 0.2 0.2 0.4c0.2 0.3 0.6 0.3 0.8 0q0.2-0.2 0.2-0.4 0-0.3-0.2-0.4-0.1-0.2-0.4-0.2-0.2 0-0.4 0.2-0.2 0.1-0.2 0.4z"/>
				<path fill-rule="evenodd" class="s1" d="m88.5 43.6c-0.3-0.3-0.4-0.6-0.4-0.9 0-0.3 0.2-0.6 0.4-0.9 0.5-0.5 1.2-0.5 1.7 0 0.3 0.3 0.4 0.6 0.4 0.9 0 0.3-0.1 0.6-0.4 0.9q-0.4 0.3-0.9 0.3-0.4 0-0.8-0.3zm0.2-0.9q0 0.3 0.2 0.4c0.3 0.3 0.6 0.3 0.9 0q0.2-0.1 0.2-0.4 0-0.3-0.2-0.4-0.2-0.2-0.5-0.2-0.2 0-0.4 0.2-0.2 0.1-0.2 0.4z"/>
				<path fill-rule="evenodd" class="s1" d="m91.3 46.4c-0.5-0.5-0.5-1.3 0-1.8 0.5-0.4 1.3-0.4 1.7 0 0.5 0.5 0.5 1.3 0 1.8-0.2 0.2-0.5 0.3-0.8 0.3q-0.5 0-0.9-0.3zm0.4-0.5c0.3 0.3 0.7 0.3 0.9 0 0.2-0.2 0.2-0.6 0-0.8q-0.2-0.2-0.4-0.2-0.3 0-0.5 0.2c-0.2 0.2-0.2 0.6 0 0.8z"/>
				<path fill-rule="evenodd" class="s1" d="m93.9 49c-0.5-0.5-0.5-1.3 0-1.8 0.5-0.4 1.3-0.4 1.7 0 0.5 0.5 0.5 1.3 0 1.8-0.2 0.2-0.5 0.3-0.8 0.3q-0.5 0-0.9-0.3zm0.4-0.5c0.3 0.3 0.7 0.3 0.9 0 0.2-0.2 0.2-0.6 0-0.8q-0.2-0.2-0.4-0.2-0.3 0-0.5 0.2c-0.2 0.2-0.2 0.6 0 0.8z"/>
				<path fill-rule="evenodd" class="s1" d="m59.5 72.5c0.5 0.5 0.5 1.3 0 1.8-0.2 0.2-0.5 0.3-0.9 0.3-0.3 0-0.6-0.1-0.8-0.3-0.5-0.5-0.5-1.3 0-1.8 0.4-0.4 1.3-0.4 1.7 0zm-0.4 0.5q-0.2-0.2-0.5-0.2-0.2 0-0.4 0.2c-0.2 0.2-0.2 0.6 0 0.8 0.2 0.3 0.7 0.3 0.9 0 0.2-0.2 0.2-0.6 0-0.8z"/>
				<path fill-rule="evenodd" class="s1" d="m62.3 75.3c0.5 0.5 0.5 1.3 0 1.8q-0.3 0.3-0.8 0.3-0.5 0-0.9-0.3c-0.5-0.5-0.5-1.3 0-1.8 0.5-0.4 1.3-0.4 1.7 0zm-0.4 0.5q-0.2-0.2-0.4-0.2-0.3 0-0.5 0.2c-0.2 0.2-0.2 0.6 0 0.8 0.3 0.3 0.7 0.3 0.9 0 0.2-0.2 0.2-0.6 0-0.8z"/>
				<path fill-rule="evenodd" class="s1" d="m64.9 78c0.5 0.4 0.5 1.2 0 1.7q-0.3 0.3-0.8 0.3-0.5 0-0.9-0.3c-0.5-0.5-0.5-1.3 0-1.7 0.5-0.5 1.3-0.5 1.7 0zm-0.4 1.3c0.2-0.3 0.2-0.7 0-0.9q-0.2-0.2-0.4-0.2-0.3 0-0.5 0.2c-0.2 0.2-0.2 0.6 0 0.8 0.3 0.3 0.7 0.3 0.9 0z"/>
				<path fill-rule="evenodd" class="s1" d="m62.4 69.7c0.5 0.4 0.5 1.2 0 1.7-0.2 0.2-0.6 0.4-0.9 0.4-0.3 0-0.6-0.2-0.8-0.4-0.5-0.5-0.5-1.3 0-1.7 0.4-0.5 1.2-0.5 1.7 0zm-0.4 0.4q-0.2-0.2-0.5-0.2-0.2 0-0.4 0.2c-0.2 0.2-0.2 0.6 0 0.9 0.2 0.2 0.6 0.2 0.9 0 0.2-0.3 0.2-0.7 0-0.9z"/>
				<path fill-rule="evenodd" class="s1" d="m65.2 72.5c0.5 0.4 0.5 1.2 0 1.7q-0.4 0.4-0.9 0.4-0.5 0-0.8-0.4c-0.5-0.5-0.5-1.2 0-1.7 0.4-0.5 1.2-0.5 1.7 0zm-0.4 1.3c0.2-0.3 0.2-0.7 0-0.9q-0.2-0.2-0.5-0.2-0.2 0-0.4 0.2c-0.2 0.2-0.2 0.6 0 0.9 0.2 0.2 0.6 0.2 0.9 0z"/>
				<path fill-rule="evenodd" class="s1" d="m67.8 75.1c0.5 0.5 0.5 1.2 0 1.7-0.2 0.3-0.5 0.4-0.9 0.4-0.3 0-0.6-0.1-0.8-0.4-0.5-0.5-0.5-1.2 0-1.7 0.4-0.5 1.3-0.5 1.7 0zm-0.4 0.4q-0.2-0.2-0.5-0.2-0.2 0-0.4 0.2c-0.2 0.3-0.2 0.6 0 0.9 0.2 0.2 0.6 0.2 0.9 0 0.2-0.3 0.2-0.7 0-0.9z"/>
				<path fill-rule="evenodd" class="s1" d="m63.4 68.6c-0.5-0.5-0.5-1.2 0-1.7 0.5-0.5 1.3-0.5 1.8 0 0.4 0.5 0.4 1.2 0 1.7-0.3 0.3-0.6 0.4-0.9 0.4q-0.5 0-0.9-0.4zm0.5-0.4c0.2 0.2 0.6 0.2 0.8 0 0.3-0.3 0.3-0.6 0-0.9q-0.2-0.2-0.4-0.2-0.3 0-0.4 0.2c-0.3 0.3-0.3 0.7 0 0.9z"/>
				<path fill-rule="evenodd" class="s1" d="m68 69.7c0.5 0.5 0.5 1.2 0 1.7q-0.4 0.4-0.9 0.4-0.5 0-0.9-0.4c-0.4-0.4-0.4-1.2 0-1.7 0.5-0.5 1.3-0.5 1.8 0zm-0.5 0.4q-0.1-0.2-0.4-0.2-0.2 0-0.4 0.2c-0.3 0.3-0.3 0.7 0 0.9 0.2 0.2 0.6 0.2 0.8 0 0.3-0.2 0.3-0.6 0-0.9z"/>
				<path fill-rule="evenodd" class="s1" d="m70.6 72.3c0.5 0.5 0.5 1.3 0 1.7-0.2 0.3-0.6 0.4-0.9 0.4-0.3 0-0.6-0.1-0.9-0.4-0.4-0.4-0.4-1.2 0-1.7 0.5-0.5 1.3-0.5 1.8 0zm-0.4 0.4q-0.2-0.1-0.5-0.1-0.2 0-0.4 0.1c-0.3 0.3-0.3 0.7 0 0.9 0.2 0.2 0.6 0.2 0.9 0 0.2-0.2 0.2-0.6 0-0.9z"/>
			</g>
			<g>
				<path id="Aspectos" class="s1" aria-label="Aspectos"  d="m54.2 112h1.2l-3-8.3h-1.3l-3 8.3h1.1l0.7-1.9h3.6zm-0.9-2.7h-3.1l1.6-4.2zm8.1 0.9c0-2.3-3.8-1.5-3.8-3 0-0.6 0.5-0.9 1.3-0.9 0.8 0 1.3 0.4 1.4 1.1h1.1c-0.1-1.3-1.1-2.1-2.5-2.1-1.5 0-2.4 0.9-2.4 1.9 0 2.4 3.9 1.6 3.9 3 0 0.6-0.5 1-1.4 1-0.9 0-1.5-0.5-1.5-1.1h-1.2c0.1 1.2 1.2 2 2.7 2 1.5 0 2.4-0.8 2.4-1.9zm2.7-3.5v-1.3h-1.1v9.7h1.1v-4.3c0.4 0.7 1.2 1.3 2.4 1.3 1.8 0 3.1-1.4 3.1-3.4 0-2-1.3-3.4-3.1-3.4-1.2 0-2 0.7-2.4 1.4zm4.4 2c0 1.6-1 2.5-2.2 2.5-1.2 0-2.2-0.9-2.2-2.5 0-1.5 1-2.4 2.2-2.4 1.2 0 2.2 0.9 2.2 2.4zm5.4-2.4c1.1 0 2.1 0.7 2.1 1.9h-4.2c0.1-1.2 1-1.9 2.1-1.9zm3.1 3.7h-1.2c-0.3 0.7-0.9 1.2-1.9 1.2-1.1 0-2-0.7-2.1-2.1h5.2c0.1-0.2 0.1-0.4 0.1-0.6 0-1.8-1.3-3.2-3.2-3.2-1.9 0-3.2 1.3-3.2 3.4 0 2.1 1.4 3.4 3.2 3.4 1.7 0 2.7-0.9 3.1-2.1zm1.1-1.3c0 2.1 1.3 3.4 3.2 3.4 1.7 0 2.7-0.9 3.1-2.2h-1.2c-0.3 0.8-0.9 1.3-1.9 1.3-1.2 0-2.1-0.9-2.1-2.5 0-1.6 0.9-2.4 2.1-2.4 1 0 1.7 0.5 1.9 1.3h1.2c-0.4-1.4-1.4-2.3-3.1-2.3-1.9 0-3.2 1.4-3.2 3.4zm7.9 1.5c0 1.3 0.7 1.8 1.9 1.8h1v-0.9h-0.8c-0.7 0-1-0.2-1-0.9v-3.9h1.8v-0.9h-1.8v-1.6h-1.1v1.6h-0.8v0.9h0.8zm10.4-1.5c0-2-1.4-3.3-3.3-3.3-1.9 0-3.3 1.3-3.3 3.3 0 2.1 1.4 3.4 3.2 3.4 1.9 0 3.4-1.3 3.4-3.4zm-5.5 0c0-1.6 1-2.4 2.2-2.4 1.1 0 2.2 0.8 2.2 2.4 0 1.7-1.1 2.5-2.3 2.5-1.1 0-2.1-0.8-2.1-2.5zm11.7 1.6c-0.1-2.4-3.9-1.5-3.9-3.1 0-0.5 0.5-0.9 1.3-0.9 0.9 0 1.4 0.5 1.4 1.1h1.1c0-1.3-1-2-2.5-2-1.4 0-2.4 0.8-2.4 1.8 0 2.4 3.9 1.6 3.9 3.1 0 0.5-0.5 0.9-1.3 0.9-1 0-1.5-0.5-1.6-1.1h-1.1c0.1 1.2 1.1 2 2.7 2 1.4 0 2.4-0.8 2.4-1.8z"/>
				<path id="motivacionales" class="s1" aria-label="motivacionales"  d="m39 126h1.1v-3.9c0-1.9-1.2-2.8-2.7-2.8-1 0-1.9 0.5-2.3 1.5-0.4-1-1.3-1.5-2.4-1.5-0.9 0-1.7 0.4-2.1 1.1v-1h-1.1v6.6h1.1v-3.6c0-1.4 0.8-2.1 1.9-2.1 1 0 1.8 0.6 1.8 2v3.7h1v-3.6c0-1.4 0.8-2.1 1.9-2.1 1.1 0 1.8 0.6 1.8 2zm9.1-3.3c0-2.1-1.4-3.4-3.3-3.4-1.9 0-3.3 1.3-3.3 3.4 0 2.1 1.4 3.4 3.2 3.4 1.9 0 3.4-1.3 3.4-3.4zm-5.5 0c0-1.7 1-2.5 2.2-2.5 1.1 0 2.2 0.8 2.2 2.5 0 1.6-1.1 2.4-2.3 2.4-1.1 0-2.1-0.8-2.1-2.4zm7.2 1.5c0 1.3 0.6 1.8 1.8 1.8h1v-0.9h-0.8c-0.7 0-0.9-0.3-0.9-0.9v-3.9h1.7v-0.9h-1.7v-1.7h-1.1v1.7h-0.9v0.9h0.9zm4.1 1.8h1.1v-6.6h-1.1zm0.6-7.6c0.4 0 0.7-0.3 0.7-0.8 0-0.4-0.3-0.7-0.7-0.7-0.4 0-0.8 0.3-0.8 0.7 0 0.5 0.4 0.8 0.8 0.8zm1.6 1.1l2.6 6.5h1.2l2.6-6.5h-1.1l-2.1 5.5-2-5.5zm7.1 3.2c0 2.1 1.3 3.4 3.1 3.4 1.2 0 2-0.6 2.4-1.3v1.2h1.1v-6.5h-1.1v1.2c-0.4-0.7-1.2-1.4-2.4-1.4-1.8 0-3.1 1.4-3.1 3.4zm5.5 0c0 1.6-1 2.5-2.2 2.5-1.2 0-2.2-0.9-2.2-2.5 0-1.5 1-2.4 2.2-2.4 1.2 0 2.2 0.9 2.2 2.4zm2.6 0c0 2.1 1.3 3.4 3.2 3.4 1.6 0 2.7-0.9 3-2.2h-1.2c-0.2 0.8-0.8 1.3-1.8 1.3-1.2 0-2.1-0.8-2.1-2.5 0-1.6 0.9-2.4 2.1-2.4 1 0 1.6 0.5 1.8 1.3h1.2c-0.3-1.4-1.4-2.3-3-2.3-1.9 0-3.2 1.4-3.2 3.4zm7.7 3.3h1.1v-6.5h-1.1zm0.5-7.7c0.4 0 0.8-0.3 0.8-0.7 0-0.5-0.4-0.8-0.8-0.8-0.4 0-0.7 0.3-0.7 0.8 0 0.4 0.3 0.7 0.7 0.7zm8.7 4.4c0-2.1-1.5-3.4-3.4-3.4-1.8 0-3.3 1.3-3.3 3.4 0 2 1.4 3.4 3.3 3.4 1.9 0 3.4-1.4 3.4-3.4zm-5.6 0c0-1.7 1.1-2.5 2.2-2.5 1.2 0 2.2 0.8 2.2 2.5 0 1.6-1.1 2.4-2.2 2.4-1.2 0-2.2-0.8-2.2-2.4zm11.8 3.3h1.1v-3.9c0-1.9-1.2-2.8-2.7-2.8-0.9 0-1.7 0.3-2.1 1v-0.9h-1.1v6.6h1.1v-3.7c0-1.4 0.8-2.1 1.9-2.1 1.1 0 1.8 0.7 1.8 2zm2.5-3.3c0 2.1 1.3 3.4 3.1 3.4 1.2 0 2-0.6 2.4-1.3v1.2h1.1v-6.5h-1.1v1.2c-0.3-0.7-1.2-1.4-2.4-1.4-1.8 0-3.1 1.4-3.1 3.4zm5.5 0c0 1.6-1 2.5-2.2 2.5-1.2 0-2.2-0.9-2.2-2.5 0-1.5 1-2.4 2.2-2.4 1.2 0 2.2 0.9 2.2 2.4zm3 3.3h1.1v-8.8h-1.1zm5.7-5.8c1.2 0 2.1 0.7 2.1 2h-4.1c0.1-1.3 1-2 2-2zm3.1 3.7h-1.2c-0.2 0.7-0.8 1.2-1.8 1.2-1.1 0-2.1-0.7-2.1-2h5.2c0-0.3 0-0.4 0-0.7 0-1.8-1.2-3.1-3.1-3.1-1.9 0-3.3 1.3-3.3 3.4 0 2 1.4 3.4 3.3 3.4 1.6 0 2.7-1 3-2.2zm6.3 0.3c0-2.4-3.9-1.5-3.9-3.1 0-0.5 0.5-0.9 1.3-0.9 0.9 0 1.4 0.5 1.5 1.1h1.1c-0.1-1.3-1.1-2-2.5-2-1.5 0-2.4 0.8-2.4 1.8 0 2.5 3.8 1.6 3.8 3.1 0 0.5-0.4 0.9-1.3 0.9-0.9 0-1.5-0.4-1.5-1.1h-1.2c0.1 1.2 1.2 2.1 2.7 2.1 1.5 0 2.4-0.9 2.4-1.9z"/>
			</g>
		</g>
	</g>
</svg>