<?xml version="1.0" encoding="UTF-8"?><svg id="Capa_2" xmlns="http://www.w3.org/2000/svg" viewBox="0 0 108.83 113.9"><defs><style>.cls-1{font-family:Poppins-Regular, Poppins;font-size:14.11px;}.cls-1,.cls-2{fill:#fff;}.cls-2{stroke-width:0px;}</style></defs><g id="Segunda_pantalla"><path class="cls-2" d="M38.83,22.38c-.55.55-.55,1.44,0,1.98.26.26.62.41.99.41s.73-.15.99-.41c.55-.55.55-1.44,0-1.98-.53-.53-1.45-.53-1.98,0ZM40.32,23.87c-.27.27-.73.27-1,0-.28-.27-.28-.72,0-1,.13-.13.31-.21.5-.21s.37.07.5.21c.27.28.27.72,0,1Z"/><path class="cls-2" d="M42.03,19.18c-.55.55-.55,1.43,0,1.98.27.27.63.41.99.41s.72-.14.99-.41c.55-.55.55-1.44,0-1.98-.55-.55-1.44-.55-1.98,0ZM43.52,20.67c-.28.28-.72.28-1,0-.28-.28-.28-.72,0-1,.14-.14.32-.21.5-.21s.36.07.5.21c.27.27.27.72,0,1Z"/><path class="cls-2" d="M46,18.6c.38,0,.73-.15.99-.41.55-.55.55-1.44,0-1.98-.53-.53-1.45-.53-1.98,0-.55.55-.55,1.44,0,1.98.26.26.62.41.99.41ZM45.5,16.7c.13-.13.31-.21.5-.21s.37.07.5.21c.28.27.28.72,0,1-.27.27-.73.27-1,0-.28-.28-.28-.72,0-1Z"/><path class="cls-2" d="M36.54,21.5c.36,0,.72-.14.99-.41.55-.55.55-1.44,0-1.98-.55-.55-1.43-.55-1.98,0-.55.54-.55,1.44,0,1.98.27.27.63.41.99.41ZM36.04,19.6c.14-.14.32-.21.5-.21s.36.07.5.21c.27.27.27.72,0,1-.28.28-.72.28-1,0-.27-.28-.27-.72,0-1Z"/><path class="cls-2" d="M38.75,15.91c-.55.55-.55,1.43,0,1.98.27.27.63.41.99.41s.72-.14.99-.41c.55-.55.55-1.43,0-1.98-.55-.55-1.43-.55-1.98,0ZM40.24,17.4c-.28.27-.72.27-1,0-.27-.28-.27-.72,0-1,.14-.14.32-.21.5-.21s.36.07.5.21c.28.27.28.72,0,1Z"/><path class="cls-2" d="M42.72,15.32c.36,0,.72-.14.99-.41.55-.55.55-1.43,0-1.98-.55-.55-1.43-.55-1.98,0-.55.55-.55,1.43,0,1.98.27.27.63.41.99.41ZM42.22,13.42c.14-.14.32-.21.5-.21s.36.07.5.21c.28.28.28.72,0,1-.28.28-.72.27-1,0-.28-.28-.28-.72,0-1Z"/><path class="cls-2" d="M32.39,15.94c-.55.55-.55,1.43,0,1.98.27.27.63.41.99.41s.72-.14.99-.41c.55-.55.55-1.43,0-1.98-.55-.55-1.44-.55-1.98,0ZM33.88,17.43c-.28.27-.72.27-1,0-.28-.28-.28-.72,0-1,.14-.14.32-.21.5-.21s.36.07.5.21c.27.28.27.72,0,1Z"/><path class="cls-2" d="M36.58,15.13c.36,0,.72-.13.99-.41.55-.55.55-1.43,0-1.98-.55-.55-1.44-.55-1.98,0-.55.55-.55,1.43,0,1.98.27.28.63.41.99.41ZM36.08,13.23c.14-.14.32-.21.5-.21s.36.07.5.21c.28.28.28.72,0,1-.27.28-.72.28-1,0-.27-.28-.27-.72,0-1Z"/><path class="cls-2" d="M39.56,12.15c.36,0,.72-.14.99-.41.55-.55.55-1.44,0-1.98-.55-.55-1.43-.55-1.98,0s-.55,1.43,0,1.98c.27.27.63.41.99.41ZM39.06,10.25c.14-.14.32-.2.5-.2s.36.07.5.2c.28.28.28.72,0,1-.28.28-.72.28-1,0-.28-.28-.28-.72,0-1Z"/><path class="cls-2" d="M67.42,50.98c-.26.27-.41.62-.41.99s.15.73.41.99c.27.27.63.41.99.41s.72-.14.99-.41c.26-.26.41-.62.41-.99s-.15-.73-.41-.99c-.55-.55-1.43-.55-1.98,0ZM68.91,52.47c-.28.28-.72.28-1,0-.13-.13-.21-.31-.21-.5s.07-.37.21-.5c.14-.14.32-.2.5-.2s.36.07.5.2c.13.13.21.31.21.5s-.07.37-.21.5Z"/><path class="cls-2" d="M70.62,47.78c-.54.55-.54,1.43,0,1.98.27.27.63.41.99.41s.72-.14.99-.41c.55-.55.55-1.44,0-1.98-.55-.54-1.43-.55-1.98,0ZM72.11,49.27c-.28.28-.72.27-1,0-.27-.28-.27-.72,0-1,.14-.14.32-.21.5-.21s.36.07.5.21c.28.27.28.72,0,1Z"/><path class="cls-2" d="M73.6,44.8c-.26.26-.41.62-.41.99s.15.73.41.99c.27.27.63.41.99.41s.72-.14.99-.41c.26-.27.41-.62.41-.99s-.15-.73-.41-.99c-.55-.55-1.43-.55-1.98,0ZM75.09,46.29c-.27.27-.72.27-1,0-.13-.13-.21-.31-.21-.5s.07-.37.21-.5c.14-.14.32-.21.5-.21s.36.07.5.21c.13.13.21.31.21.5s-.07.37-.21.5Z"/><path class="cls-2" d="M64.15,47.7c-.27.26-.41.62-.41.99s.15.73.41.99c.27.27.63.41.99.41s.72-.14.99-.41c.26-.27.41-.62.41-.99s-.15-.73-.41-.99c-.55-.55-1.44-.54-1.98,0ZM65.64,49.19c-.27.28-.72.28-1,0-.13-.13-.21-.31-.21-.5s.07-.36.21-.5c.14-.14.32-.21.5-.21s.36.07.5.21c.13.13.21.31.21.5s-.07.37-.21.5Z"/><path class="cls-2" d="M68.34,46.89c.36,0,.72-.14.99-.41.27-.27.41-.62.41-.99s-.15-.73-.41-.99c-.55-.55-1.43-.55-1.98,0-.26.26-.41.62-.41.99s.15.72.41.99c.27.27.63.41.99.41ZM67.84,44.99c.14-.14.32-.21.5-.21s.36.07.5.21c.13.13.21.31.21.5s-.07.37-.21.5c-.27.27-.72.28-1,0-.13-.13-.21-.31-.21-.5s.07-.37.21-.5Z"/><path class="cls-2" d="M71.32,43.91c.36,0,.72-.14.99-.41.26-.26.41-.62.41-.99s-.15-.73-.41-.99c-.55-.55-1.43-.55-1.98,0-.26.26-.41.62-.41.99s.15.73.41.99.63.41.99.41ZM70.82,42.01c.14-.14.32-.21.5-.21s.36.07.5.21c.13.13.21.31.21.5s-.07.37-.21.5c-.27.27-.72.27-1,0-.13-.13-.21-.31-.21-.5s.07-.37.21-.5Z"/><path class="cls-2" d="M60.98,44.54c-.55.55-.55,1.43,0,1.98.27.27.63.41.99.41s.72-.14.99-.41c.55-.55.55-1.43,0-1.98-.55-.55-1.43-.55-1.98,0ZM62.47,46.03c-.27.28-.72.28-1,0-.28-.28-.28-.72,0-1,.14-.14.32-.21.5-.21s.36.07.5.21c.27.28.27.72,0,1Z"/><path class="cls-2" d="M64.18,41.34c-.26.26-.41.62-.41.99s.14.73.41.99c.27.27.62.41.99.41s.73-.14.99-.41c.26-.26.41-.62.41-.99s-.15-.73-.41-.99c-.55-.55-1.43-.55-1.98,0ZM65.67,42.83c-.27.27-.73.27-1,0-.13-.13-.21-.31-.21-.5s.07-.37.21-.5c.14-.14.32-.21.5-.21s.36.07.5.21c.13.13.21.31.21.5s-.07.37-.21.5Z"/><path class="cls-2" d="M68.15,40.75c.36,0,.72-.14.99-.41.26-.26.41-.62.41-.99s-.15-.73-.41-.99c-.55-.55-1.44-.55-1.98,0-.26.27-.41.62-.41.99s.15.73.41.99c.27.27.63.41.99.41ZM67.65,38.85c.14-.14.32-.21.5-.21s.36.07.5.21c.13.13.21.31.21.5s-.07.37-.21.5c-.27.28-.72.27-1,0-.13-.13-.21-.31-.21-.5s.07-.37.21-.5Z"/><path class="cls-2" d="M23.07,49.02c0,2.04.79,3.95,2.23,5.39l6.57,6.57c1.44,1.44,3.35,2.23,5.39,2.23s3.95-.79,5.39-2.23l12.02-12.02,12.02,12.02c1.44,1.44,3.35,2.23,5.39,2.23s3.95-.79,5.39-2.23l6.57-6.57c2.97-2.97,2.97-7.81,0-10.78l-12.02-12.02,12.02-12.02c2.97-2.97,2.97-7.81,0-10.78l-6.57-6.57c-2.97-2.97-7.81-2.97-10.78,0l-12.02,12.02-12.02-12.02c-2.97-2.97-7.81-2.97-10.78,0l-6.57,6.57c-1.44,1.44-2.23,3.35-2.23,5.39s.79,3.95,2.23,5.39l12.02,12.02-12.02,12.02c-1.44,1.44-2.23,3.35-2.23,5.39ZM40.19,4.69l12.02,12.02-12.43,12.43-12.02-12.02c-.78-.78-1.21-1.82-1.21-2.93s.43-2.15,1.21-2.93l6.57-6.57c.78-.78,1.82-1.21,2.93-1.21s2.15.43,2.93,1.21ZM69.16,4.69c.81-.81,1.87-1.21,2.93-1.21s2.12.4,2.93,1.21l6.57,6.57c.78.78,1.21,1.82,1.21,2.93s-.43,2.15-1.21,2.93l-41.4,41.4c-.78.78-1.82,1.21-2.93,1.21s-2.15-.43-2.93-1.21h0l-6.57-6.57c-.78-.78-1.21-1.82-1.21-2.93s.43-2.15,1.21-2.93L69.16,4.69ZM72.09,59.73c-1.11,0-2.15-.43-2.93-1.21l-12.02-12.02,12.43-12.43,12.02,12.02c.78.78,1.21,1.82,1.21,2.93s-.43,2.15-1.21,2.93l-6.57,6.57c-.78.78-1.82,1.21-2.93,1.21Z"/><path class="cls-2" d="M49.45,40.11h0c.81.81,1.88,1.22,2.95,1.22s2.14-.41,2.95-1.22l8.73-8.73c.79-.79,1.22-1.83,1.22-2.95s-.43-2.16-1.22-2.95l-3.25-3.25c-.79-.79-1.83-1.22-2.95-1.22s-2.16.43-2.95,1.22l-8.73,8.73c-1.63,1.63-1.63,4.27,0,5.9l3.25,3.25ZM56.9,24.2c.52-.52,1.44-.52,1.96,0l3.25,3.25c.26.26.41.61.41.98s-.14.72-.41.98l-8.73,8.73c-.54.54-1.42.54-1.96,0l-3.25-3.25c-.54-.54-.54-1.42,0-1.96l8.73-8.73Z"/><path class="cls-2" d="M62.9,18.15c.36,0,.72-.14.99-.41.55-.55.55-1.43,0-1.98-.55-.55-1.44-.55-1.98,0-.55.55-.55,1.43,0,1.98.27.27.63.41.99.41ZM62.4,16.25c.14-.14.32-.21.5-.21s.36.07.5.21c.28.28.28.72,0,1-.28.27-.72.28-1,0-.28-.28-.28-.72,0-1Z"/><path class="cls-2" d="M66.1,21.35c.36,0,.72-.14.99-.41.26-.27.41-.62.41-.99s-.14-.73-.41-.99c-.55-.55-1.44-.55-1.98,0-.26.26-.41.62-.41.99s.15.73.41.99c.27.27.63.41.99.41ZM65.61,19.45c.14-.14.32-.21.5-.21s.36.07.5.21c.13.13.21.31.21.5s-.07.37-.21.5c-.28.28-.72.28-1,0-.13-.13-.21-.31-.21-.5s.07-.37.21-.5Z"/><path class="cls-2" d="M69.08,24.33c.36,0,.72-.14.99-.41.27-.27.41-.62.41-.99s-.14-.73-.41-.99c-.54-.55-1.43-.55-1.98,0-.26.26-.41.62-.41.99s.15.73.41.99c.27.27.63.41.99.41ZM68.58,22.43c.14-.14.32-.21.5-.21s.36.07.5.21c.13.13.21.31.21.5s-.07.37-.21.5c-.28.28-.72.28-1,0-.13-.13-.21-.31-.21-.5s.07-.37.21-.5Z"/><path class="cls-2" d="M66.18,14.87c.36,0,.72-.14.99-.41.27-.26.41-.62.41-.99s-.14-.73-.41-.99c-.55-.55-1.43-.55-1.98,0-.26.26-.41.62-.41.99s.15.73.41.99c.27.27.63.41.99.41ZM65.68,12.97c.14-.14.32-.21.5-.21s.36.07.5.21c.13.13.21.31.21.5s-.07.36-.21.5c-.27.27-.72.27-1,0-.13-.13-.21-.31-.21-.5s.07-.37.21-.5Z"/><path class="cls-2" d="M68.39,15.68c-.55.55-.55,1.43,0,1.98.27.27.63.41.99.41s.72-.14.99-.41c.55-.55.55-1.43,0-1.98-.55-.55-1.43-.55-1.98,0ZM69.88,17.17c-.28.28-.72.27-1,0-.28-.27-.28-.72,0-1,.14-.14.32-.21.5-.21s.36.07.5.21c.27.27.27.72,0,1Z"/><path class="cls-2" d="M72.36,21.05c.36,0,.72-.14.99-.41.26-.27.41-.62.41-.99s-.15-.73-.41-.99c-.55-.55-1.44-.55-1.98,0-.26.26-.41.62-.41.99s.15.73.41.99c.27.27.63.41.99.41ZM71.86,19.15c.14-.14.32-.21.5-.21s.36.07.5.21c.13.13.21.31.21.5s-.07.36-.21.5c-.27.28-.72.28-1,0-.13-.13-.21-.31-.21-.5s.07-.37.21-.5Z"/><path class="cls-2" d="M69.34,11.71c.36,0,.72-.14.99-.41.26-.26.41-.62.41-.99s-.15-.73-.41-.99c-.55-.55-1.43-.55-1.98,0-.27.26-.41.62-.41.99s.15.73.41.99c.27.27.63.41.99.41ZM68.85,9.81c.14-.14.32-.21.5-.21s.36.07.5.21c.13.13.21.31.21.5s-.07.37-.21.5c-.28.28-.72.28-1,0-.13-.13-.21-.31-.21-.5s.07-.37.21-.5Z"/><path class="cls-2" d="M72.55,14.91c.36,0,.72-.14.99-.41.55-.55.55-1.43,0-1.98-.55-.55-1.44-.55-1.98,0-.55.55-.55,1.43,0,1.98.27.27.63.41.99.41ZM72.05,13.01c.14-.14.32-.21.5-.21s.36.07.5.21c.27.28.27.72,0,1-.28.28-.72.28-1,0-.28-.27-.28-.72,0-1Z"/><path class="cls-2" d="M75.52,17.89c.36,0,.72-.14.99-.41.55-.55.55-1.43,0-1.98-.55-.55-1.43-.55-1.98,0-.55.55-.55,1.43,0,1.98.27.27.63.41.99.41ZM75.03,15.99c.14-.14.32-.21.5-.21s.36.07.5.21c.28.28.28.72,0,1-.28.28-.72.28-1,0-.28-.27-.28-.72,0-1Z"/><path class="cls-2" d="M33.32,44.35c-.55.55-.55,1.43,0,1.98.27.27.62.41.99.41s.73-.14.99-.41c.55-.55.55-1.43,0-1.98-.53-.53-1.45-.53-1.98,0ZM34.81,45.84c-.27.27-.73.27-1,0-.27-.28-.27-.72,0-1,.13-.13.31-.21.5-.21s.37.07.5.21c.28.28.28.72,0,1Z"/><path class="cls-2" d="M36.52,47.55c-.55.55-.55,1.43,0,1.98.27.27.63.41.99.41s.72-.14.99-.41c.55-.55.55-1.43,0-1.98-.55-.55-1.43-.55-1.98,0ZM38.01,49.04c-.28.27-.72.27-1,0-.28-.28-.28-.72,0-1,.14-.14.32-.21.5-.21s.36.07.5.21c.28.27.28.72,0,1Z"/><path class="cls-2" d="M39.5,50.53c-.55.55-.55,1.44,0,1.98.27.27.63.41.99.41s.72-.14.99-.41c.55-.55.55-1.44,0-1.98-.55-.55-1.43-.55-1.98,0ZM40.99,52.02c-.28.27-.72.27-1,0-.28-.28-.28-.72,0-1,.14-.14.32-.21.5-.21s.36.07.5.21c.27.27.27.72,0,1Z"/><path class="cls-2" d="M36.6,41.07c-.55.55-.55,1.43,0,1.98.26.27.62.41.99.41s.73-.15.99-.41c.55-.55.55-1.43,0-1.98-.53-.53-1.45-.53-1.98,0ZM38.08,42.56c-.27.27-.73.27-1,0-.28-.27-.28-.72,0-1,.13-.13.31-.21.5-.21s.37.07.5.21c.27.28.27.72,0,1Z"/><path class="cls-2" d="M39.8,44.28c-.55.55-.55,1.43,0,1.98.27.27.63.41.99.41s.72-.14.99-.41c.55-.55.55-1.44,0-1.98-.55-.54-1.44-.54-1.98,0ZM41.29,45.77c-.27.27-.72.28-1,0-.28-.28-.28-.72,0-1,.14-.14.32-.21.5-.21s.36.07.5.21c.28.28.28.72,0,1Z"/><path class="cls-2" d="M42.78,47.26c-.55.55-.55,1.44,0,1.98.26.26.62.41.99.41s.73-.15.99-.41c.55-.54.55-1.43,0-1.98-.53-.53-1.45-.53-1.98,0ZM44.26,48.75c-.27.27-.73.27-1,0-.28-.28-.28-.72,0-1,.13-.13.31-.21.5-.21s.37.07.5.21c.28.28.28.72,0,1Z"/><path class="cls-2" d="M40.75,40.3c.36,0,.72-.14.99-.41.55-.55.55-1.44,0-1.98-.55-.55-1.43-.55-1.98,0s-.54,1.44,0,1.98c.27.27.63.41.99.41ZM40.25,38.4c.14-.14.32-.21.5-.21s.36.07.5.21c.28.28.28.72,0,1-.27.28-.72.28-1,0-.28-.27-.28-.72,0-1Z"/><path class="cls-2" d="M42.96,41.11c-.55.55-.55,1.44,0,1.98.27.27.63.41.99.41s.72-.14.99-.41c.55-.55.55-1.44,0-1.98-.55-.55-1.43-.55-1.98,0ZM44.45,42.6c-.28.28-.72.28-1,0-.27-.27-.27-.72,0-1,.14-.14.32-.21.5-.21s.36.07.5.21c.28.28.28.73,0,1Z"/><path class="cls-2" d="M45.94,44.09c-.55.55-.55,1.44,0,1.98.26.26.62.41.99.41s.73-.15.99-.41c.55-.55.55-1.44,0-1.98-.53-.53-1.45-.53-1.98,0ZM47.43,45.58c-.27.27-.73.27-1,0-.27-.27-.27-.72,0-1,.13-.13.31-.21.5-.21s.37.07.5.21c.27.28.27.72,0,1Z"/><text class="cls-1" transform="translate(21.79 88.9)"><tspan x="0" y="0">Aspectos</tspan><tspan x="-21.79" y="16.93">motivacionales</tspan></text></g></svg>