<svg version="1.2" xmlns="http://www.w3.org/2000/svg" viewBox="0 0 167 168" width="187" height="187">
	<title>autoconocimiento1-svg</title>
	<style>
		.s0 { fill: #d8a568 } 
		.s1 { fill: #ffffff } 
	</style>
	<g id="Capa_1-2">
		<g>
			<path class="s0" d="m24.7 8.9h103.6c9.2 0 16.6 7.4 16.6 16.6v103.6c0 9.1-7.4 16.6-16.6 16.6h-103.6c-9.2 0-16.6-7.5-16.6-16.6v-103.6c0-9.2 7.4-16.6 16.6-16.6z"/>
			<path id="Autoconocimiento" class="s1" aria-label="Autoconocimiento"  d="m26 129h1.1l-3-8.3h-1.2l-3.1 8.3h1.2l0.7-1.9h3.6zm-1-2.7h-3l1.5-4.2zm9.3-3.9h-1.1v3.7c0 1.4-0.7 2.1-1.9 2.1-1.1 0-1.8-0.7-1.8-2.1v-3.7h-1.1v3.9c0 1.9 1.2 2.8 2.7 2.8 0.9 0 1.7-0.4 2.1-1.1v1h1.1zm2.1 4.8c0 1.3 0.6 1.8 1.8 1.8h1v-0.9h-0.8c-0.7 0-0.9-0.3-0.9-0.9v-3.9h1.7v-0.9h-1.7v-1.6h-1.1v1.6h-0.9v0.9h0.9zm10.4-1.5c0-2.1-1.5-3.4-3.4-3.4-1.8 0-3.3 1.3-3.3 3.4 0 2.1 1.4 3.4 3.3 3.4 1.9 0 3.4-1.3 3.4-3.4zm-5.6 0c0-1.6 1.1-2.4 2.2-2.4 1.1 0 2.2 0.8 2.2 2.4 0 1.7-1.1 2.5-2.2 2.5-1.2 0-2.2-0.8-2.2-2.5zm6.6 0c0 2.1 1.3 3.4 3.2 3.4 1.6 0 2.7-0.9 3-2.2h-1.1c-0.3 0.8-0.9 1.3-1.9 1.3-1.2 0-2.1-0.9-2.1-2.5 0-1.6 0.9-2.4 2.1-2.4 1 0 1.6 0.5 1.9 1.3h1.1c-0.3-1.4-1.4-2.3-3-2.3-1.9 0-3.2 1.4-3.2 3.4zm13.9 0c0-2.1-1.4-3.4-3.3-3.4-1.9 0-3.3 1.3-3.3 3.4 0 2.1 1.4 3.4 3.2 3.4 1.9 0 3.4-1.3 3.4-3.4zm-5.5 0c0-1.6 1-2.4 2.2-2.4 1.1 0 2.2 0.8 2.2 2.4 0 1.7-1.1 2.5-2.3 2.5-1.1 0-2.1-0.8-2.1-2.5zm11.8 3.3h1.1v-3.9c0-1.8-1.2-2.8-2.7-2.8-0.9 0-1.7 0.4-2.1 1.1v-1h-1.1v6.6h1.1v-3.6c0-1.4 0.7-2.1 1.8-2.1 1.1 0 1.9 0.7 1.9 2zm9.1-3.3c0-2.1-1.5-3.4-3.3-3.4-1.9 0-3.4 1.3-3.4 3.4 0 2.1 1.4 3.4 3.3 3.4 1.9 0 3.4-1.3 3.4-3.4zm-5.6 0c0-1.7 1.1-2.4 2.2-2.4 1.2 0 2.3 0.7 2.3 2.4 0 1.7-1.2 2.4-2.3 2.4-1.1 0-2.2-0.7-2.2-2.4zm6.6 0c0 2.1 1.3 3.4 3.2 3.4 1.6 0 2.7-0.9 3.1-2.2h-1.2c-0.3 0.8-0.9 1.3-1.9 1.3-1.2 0-2.1-0.9-2.1-2.5 0-1.6 0.9-2.5 2.1-2.5 1 0 1.6 0.5 1.9 1.3h1.2c-0.4-1.3-1.5-2.2-3.1-2.2-1.9 0-3.2 1.3-3.2 3.4zm7.7 3.3h1.1v-6.6h-1.1zm0.6-7.6c0.4 0 0.7-0.3 0.7-0.8 0-0.4-0.3-0.7-0.7-0.7-0.5 0-0.8 0.3-0.8 0.7 0 0.5 0.3 0.8 0.8 0.8zm11.8 7.6h1.1v-3.9c0-1.8-1.1-2.8-2.6-2.8-1 0-2 0.5-2.4 1.5-0.4-1-1.3-1.5-2.4-1.5-0.8 0-1.6 0.4-2.1 1.1v-1h-1v6.6h1v-3.6c0-1.4 0.8-2.1 1.9-2.1 1.1 0 1.8 0.7 1.8 2v3.7h1.1v-3.6c0-1.4 0.7-2.1 1.8-2.1 1.1 0 1.8 0.7 1.8 2zm2.9 0h1.1v-6.6h-1.1zm0.6-7.6c0.4 0 0.7-0.3 0.7-0.8 0-0.4-0.3-0.7-0.7-0.7-0.4 0-0.8 0.3-0.8 0.7 0 0.5 0.4 0.8 0.8 0.8zm5.2 1.9c1.1 0 2.1 0.7 2 2h-4.1c0.1-1.3 1-2 2.1-2zm3 3.7h-1.1c-0.3 0.7-0.9 1.2-1.9 1.2-1.1 0-2-0.7-2.1-2.1h5.2c0.1-0.2 0.1-0.4 0.1-0.6 0-1.8-1.3-3.2-3.2-3.2-1.9 0-3.2 1.3-3.2 3.4 0 2.1 1.3 3.4 3.2 3.4 1.6 0 2.7-0.9 3-2.1zm6.4 2h1.1v-3.9c0-1.8-1.2-2.8-2.7-2.8-0.9 0-1.7 0.4-2.1 1.1v-1h-1.1v6.6h1.1v-3.6c0-1.4 0.8-2.1 1.9-2.1 1.1 0 1.8 0.7 1.8 2zm3.1-1.8c0 1.3 0.7 1.8 1.9 1.8h0.9v-0.9h-0.8c-0.6 0-0.9-0.2-0.9-0.9v-3.9h1.7v-0.9h-1.7v-1.6h-1.1v1.6h-0.8v0.9h0.8zm10.4-1.5c0-2-1.5-3.4-3.3-3.4-1.9 0-3.4 1.4-3.4 3.4 0 2.1 1.5 3.4 3.3 3.4 1.9 0 3.4-1.3 3.4-3.4zm-5.5 0c0-1.6 1-2.4 2.2-2.4 1.1 0 2.2 0.8 2.2 2.4 0 1.7-1.1 2.5-2.3 2.5-1.1 0-2.1-0.8-2.1-2.5z"/>
			<g>
				<path class="s1" d="m59.8 32.3v-2.4c-10.1 0.4-18.5 7.4-21 16.7h2.5c2.5-8 9.8-13.9 18.5-14.3z"/>
				<path fill-rule="evenodd" class="s1" d="m119.7 68.2c1 1.4 1.6 2.1 1.5 3.1q0 0.2 0 0.4c-0.1 2.7-1 5.5-9.1 5.2h-1.2l0.5 15.6-0.1 0.2c0 0.1-2.3 7-11.9 5.1-4.6-0.9-7.2-1.5-8.6-1.9l0.1 14.2h-2.4l-0.2-17.5 1.7 0.6c0 0 1.6 0.6 9.9 2.2 6.7 1.4 8.7-2.4 9.1-3.3l-0.6-17.6h3.8c6.4 0.2 6.5-1.4 6.6-2.9q0-0.2 0-0.4c0-0.2-0.5-0.9-1-1.5-2-2.8-6.8-9.3-14.1-27.6-4-10.2-11.4-16.1-21.9-17.4-4-0.5-7.8-0.2-10.5 0.2 11 4.3 18.9 15 18.9 27.5 0 6.3-2 12.1-5.3 16.9 0.1 0.4 0 0.8-0.4 1.1-0.2 0.2-0.5 0.4-0.8 0.4-5.4 6.8-13.7 11.2-23.1 11.2q-1.4 0-2.7-0.1c2.1 3 3.4 6.4 3.7 10 0.4 4.6 0.3 11.5-2 18.6l-2.3-0.8c2.2-6.7 2.3-13.2 1.9-17.6-0.3-3.5-1.6-6.8-3.9-9.7-10.1-13.1-10.1-25.3-10-28.1q-0.1-0.9-0.1-1.9c0-8.5 6.9-15.4 15.4-15.4 4.1 0 7.9 1.7 10.6 4.3l4.4-4 1.6 1.8-4.4 4c2 2.6 3.2 5.8 3.2 9.3 0 8.5-6.9 15.4-15.4 15.4-5 0-9.4-2.4-12.2-6 0.9 4.6 3 10.9 7.6 17.4q2.2 0.4 4.6 0.4v-5.4c0-0.6 0.5-1.2 1.2-1.2 0.6 0 1.2 0.6 1.2 1.2v5.3c7.6-0.7 14.3-4.5 18.8-10.1l-4.2-4.3c-0.5-0.5-0.5-1.2 0-1.7 0.4-0.5 1.2-0.5 1.6 0l4 4c2.9-4.3 4.6-9.5 4.6-15 0-15-12.2-27.2-27.2-27.2-15 0-27.2 12.2-27.2 27.2q0 1.3 0.1 2.5h-2.4q-0.1-1.2-0.1-2.5c0-16.3 13.3-29.6 29.6-29.6q3 0 5.9 0.6c3.1-0.8 29.5-7.3 39.5 17.8 7.1 18 11.8 24.3 13.7 27zm-59.1-28.8q0 0 0 0 0 0 0 0zm0 0c-7.1 0-13 5.8-13 13q0 0.8 0.1 1.5h0.1q0 0 0 0.3c0.8 6.3 6.3 11.2 12.8 11.2 7.2 0 13-5.9 13-13 0-2.9-0.9-5.6-2.5-7.7l-3.9 3.5c0.8 1.2 1.3 2.6 1.3 4.2 0 4.3-3.6 7.8-7.9 7.8-4.3 0-7.8-3.5-7.8-7.8 0-4.3 3.5-7.9 7.8-7.9 1.9 0 3.7 0.7 5.1 1.9l3.8-3.5c-2.3-2.2-5.4-3.5-8.9-3.5zm0 7.5c-3 0-5.4 2.5-5.4 5.5 0 3 2.4 5.4 5.4 5.4 3 0 5.5-2.4 5.5-5.4 0-3-2.5-5.5-5.5-5.5z"/>
			</g>
		</g>
	</g>
</svg>