<?xml version="1.0" encoding="UTF-8"?><svg id="Capa_2" xmlns="http://www.w3.org/2000/svg" viewBox="0 0 87.18 121.31"><defs><style>.cls-1{font-family:Poppins-Regular, Poppins;font-size:14.11px;}.cls-1,.cls-2{fill:#fff;}.cls-2{stroke-width:0px;}</style></defs><g id="Segunda_pantalla"><path class="cls-2" d="M83.85,22.97l3.32-.82-2.87-11.63-12.97-.47-.12,3.42,8.39.3-12.07,15.93c-8.05-5.01-18.78-3.16-24.62,4.55-6.19,8.16-4.58,19.84,3.58,26.03,3.35,2.54,7.29,3.77,11.2,3.77,5.62,0,11.18-2.54,14.83-7.35,5.84-7.7,4.73-18.53-2.27-24.93l11.9-15.69,1.7,6.9ZM69.8,54.63c-5.05,6.66-14.58,7.97-21.24,2.92-6.66-5.05-7.97-14.58-2.92-21.24,2.98-3.93,7.51-6,12.1-6,3.19,0,6.4,1,9.14,3.07,6.66,5.05,7.97,14.58,2.92,21.24Z"/><path class="cls-2" d="M37.16,18.58C37.16,8.34,28.83,0,18.58,0S0,8.34,0,18.58c0,9.67,7.42,17.63,16.87,18.49v10.96H7.68c-.95,0-1.71.77-1.71,1.71s.77,1.71,1.71,1.71h9.19v12.59c0,.94.77,1.71,1.71,1.71s1.71-.77,1.71-1.71v-12.59h9.19c.95,0,1.71-.77,1.71-1.71s-.77-1.71-1.71-1.71h-9.19v-10.96c9.45-.87,16.87-8.83,16.87-18.49ZM3.42,18.58c0-8.36,6.8-15.16,15.16-15.16s15.16,6.8,15.16,15.16-6.8,15.16-15.16,15.16S3.42,26.94,3.42,18.58Z"/><text class="cls-1" transform="translate(7.51 96.31)"><tspan x="0" y="0">Diversidad</tspan><tspan x="14.96" y="16.93">sexual</tspan></text></g></svg>