<svg version="1.2" xmlns="http://www.w3.org/2000/svg" viewBox="0 0 168 167" width="187" height="187">
	<title>diversidad_sexual-svg</title>
	<style>
		.s0 { fill: #d8a568 } 
		.s1 { fill: #ffffff } 
	</style>
	<g id="Capa_1-2">
		<g>
			<path class="s0" d="m25.1 8h103.6c9.2 0 16.6 7.5 16.6 16.6v103.6c0 9.2-7.4 16.6-16.6 16.6h-103.6c-9.1 0-16.6-7.4-16.6-16.6v-103.6c0-9.1 7.5-16.6 16.6-16.6z"/>
			<g>
				<path fill-rule="evenodd" class="s1" d="m113.4 50.5l-1.5-6-10.4 13.7c6.2 5.7 7.1 15.1 2 21.9-3.2 4.2-8.1 6.4-13 6.4-3.4 0-6.9-1-9.8-3.3-7.2-5.4-8.6-15.6-3.2-22.8 5.2-6.7 14.6-8.4 21.6-4l10.6-13.9-7.4-0.3 0.2-3 11.3 0.4 2.5 10.2-2.9 0.7zm-14.8 9.1c-2.4-1.8-5.3-2.6-8-2.6-4.1 0-8 1.8-10.6 5.2-4.5 5.8-3.3 14.2 2.5 18.6 5.9 4.4 14.2 3.3 18.6-2.5 4.5-5.9 3.3-14.2-2.5-18.7z"/>
				<path fill-rule="evenodd" class="s1" d="m57.7 62.9v9.6h8.1c0.8 0 1.5 0.7 1.5 1.5 0 0.8-0.7 1.5-1.5 1.5h-8.1v11c0 0.9-0.6 1.5-1.5 1.5-0.8 0-1.5-0.6-1.5-1.5v-11h-8c-0.9 0-1.5-0.7-1.5-1.5 0-0.8 0.6-1.5 1.5-1.5h8v-9.6c-8.2-0.8-14.7-7.8-14.7-16.2 0-9 7.3-16.3 16.2-16.3 9 0 16.3 7.3 16.3 16.3 0 8.5-6.5 15.4-14.8 16.2zm-1.5-2.9c7.4 0 13.3-6 13.3-13.3 0-7.3-5.9-13.3-13.3-13.3-7.3 0-13.2 6-13.2 13.3 0 7.3 5.9 13.3 13.2 13.3z"/>
			</g>
			<g>
				<path id="Diversidad" class="s1" aria-label="Diversidad"  d="m50.1 106.6h-2.6v8.4h2.6c2.7 0 4.4-1.6 4.4-4.2 0-2.6-1.7-4.2-4.4-4.2zm-1.5 7.5v-6.6h1.5c2.2 0 3.3 1.3 3.3 3.3 0 2.1-1.1 3.3-3.3 3.3zm7.4 0.9h1.1v-6.6h-1.1zm0.5-7.6c0.4 0 0.7-0.3 0.7-0.8 0-0.4-0.3-0.7-0.7-0.7-0.4 0-0.7 0.3-0.7 0.7 0 0.5 0.3 0.8 0.7 0.8zm1.6 1l2.6 6.6h1.3l2.6-6.6h-1.2l-2 5.6-2.1-5.6zm10.3 0.9c1.1 0 2.1 0.7 2.1 2h-4.2c0.2-1.3 1-2 2.1-2zm3.1 3.7h-1.2c-0.2 0.7-0.9 1.2-1.8 1.2-1.2 0-2.1-0.7-2.2-2.1h5.3c0-0.2 0-0.4 0-0.6 0-1.8-1.2-3.2-3.1-3.2-2 0-3.3 1.3-3.3 3.4 0 2.1 1.4 3.4 3.3 3.4 1.6 0 2.7-0.9 3-2.1zm2.7-1.6c0-1.5 0.7-1.9 1.8-1.9h0.3v-1.2c-1.1 0-1.8 0.5-2.1 1.2v-1.1h-1.1v6.6h1.1zm8.1 1.8c-0.1-2.3-3.9-1.5-3.9-3 0-0.6 0.5-1 1.3-1 0.9 0 1.4 0.5 1.4 1.2h1.1c-0.1-1.3-1-2.1-2.5-2.1-1.4 0-2.4 0.8-2.4 1.9 0 2.4 3.9 1.5 3.9 3 0 0.6-0.5 1-1.3 1-1 0-1.5-0.5-1.6-1.1h-1.1c0 1.2 1.1 2 2.7 2 1.4 0 2.4-0.8 2.4-1.9zm1.5 1.8h1.1v-6.6h-1.1zm0.6-7.6c0.4 0 0.7-0.3 0.7-0.8 0-0.4-0.3-0.7-0.7-0.7-0.5 0-0.8 0.3-0.8 0.7 0 0.5 0.3 0.8 0.8 0.8zm1.9 4.3c0 2.1 1.4 3.4 3.2 3.4 1.2 0 2-0.6 2.4-1.3v1.2h1.1v-8.9h-1.1v3.5c-0.4-0.7-1.4-1.3-2.4-1.3-1.8 0-3.2 1.4-3.2 3.4zm5.6 0c0 1.6-1 2.5-2.2 2.5-1.2 0-2.2-0.9-2.2-2.5 0-1.5 1-2.4 2.2-2.4 1.2 0 2.2 0.9 2.2 2.4zm2.6 0c0 2.1 1.3 3.4 3.1 3.4 1.2 0 2-0.6 2.4-1.3v1.2h1.1v-6.6h-1.1v1.2c-0.4-0.6-1.2-1.3-2.4-1.3-1.8 0-3.1 1.4-3.1 3.4zm5.5 0c0 1.6-1 2.5-2.2 2.5-1.2 0-2.2-0.9-2.2-2.5 0-1.5 1-2.4 2.2-2.4 1.2 0 2.2 0.9 2.2 2.4zm2.6 0c0 2.1 1.3 3.4 3.1 3.4 1.2 0 2-0.6 2.4-1.3v1.2h1.1v-8.9h-1.1v3.5c-0.4-0.7-1.4-1.3-2.4-1.3-1.8 0-3.1 1.4-3.1 3.4zm5.5 0c0 1.6-1 2.5-2.2 2.5-1.2 0-2.2-0.9-2.2-2.5 0-1.5 1-2.4 2.2-2.4 1.2 0 2.2 0.9 2.2 2.4z"/>
				<path id="sexual" class="s1" aria-label="sexual"  d="m65.3 128.2c0-2.3-3.9-1.5-3.9-3 0-0.6 0.5-1 1.3-1 0.9 0 1.4 0.5 1.5 1.2h1c0-1.3-1-2.1-2.4-2.1-1.5 0-2.5 0.8-2.5 1.9 0 2.4 3.9 1.5 3.9 3 0 0.6-0.4 1-1.3 1-0.9 0-1.5-0.5-1.6-1.1h-1.1c0.1 1.2 1.2 2 2.7 2 1.5 0 2.4-0.8 2.4-1.9zm4.3-4c1.2 0 2.1 0.7 2.1 2h-4.1c0.1-1.3 1-2 2-2zm3.1 3.8h-1.2c-0.2 0.7-0.8 1.2-1.8 1.2-1.1 0-2.1-0.7-2.2-2.1h5.3c0-0.2 0-0.4 0-0.6 0-1.8-1.2-3.2-3.1-3.2-1.9 0-3.3 1.3-3.3 3.4 0 2.1 1.4 3.4 3.3 3.4 1.6 0 2.7-0.9 3-2.1zm5 2h1.2l-2.1-3.3 2.1-3.3h-1.1l-1.5 2.5-1.6-2.5h-1.2l2.1 3.3-2.1 3.3h1.2l1.5-2.4zm8.1-6.6h-1.1v3.6c0 1.4-0.7 2.1-1.9 2.1-1.1 0-1.8-0.7-1.8-2v-3.7h-1.1v3.8c0 1.9 1.2 2.8 2.7 2.8 0.9 0 1.7-0.3 2.1-1v1h1.1zm1.4 3.2c0 2.1 1.4 3.4 3.1 3.4 1.3 0 2.1-0.6 2.5-1.3v1.2h1.1v-6.5h-1.1v1.2c-0.4-0.7-1.2-1.4-2.4-1.4-1.8 0-3.2 1.4-3.2 3.4zm5.6 0c0 1.6-1 2.5-2.2 2.5-1.2 0-2.2-0.9-2.2-2.5 0-1.5 1-2.4 2.2-2.4 1.2 0 2.2 0.9 2.2 2.4zm3 3.3h1v-8.9h-1z"/>
			</g>
		</g>
	</g>
</svg>