<svg version="1.2" xmlns="http://www.w3.org/2000/svg" viewBox="0 0 168 168" width="187" height="187">
	<title>historia_vida-svg</title>
	<style>
		.s0 { fill: #d8a568 } 
		.s1 { fill: #ffffff } 
	</style>
	<g id="Capa_1-2">
		<g>
			<path class="s0" d="m25 8.9h103.6c9.1 0 16.6 7.4 16.6 16.6v103.6c0 9.1-7.5 16.6-16.6 16.6h-103.6c-9.2 0-16.6-7.5-16.6-16.6v-103.6c0-9.2 7.4-16.6 16.6-16.6z"/>
			<g>
				<path id="Historia de " class="s1" aria-label="Historia de "  d="m48.7 117h1v-8.4h-1v3.7h-4.3v-3.7h-1.1v8.4h1.1v-3.8h4.3zm2.9 0h1.1v-6.6h-1.1zm0.6-7.6c0.4 0 0.7-0.3 0.7-0.8 0-0.4-0.3-0.7-0.7-0.7-0.5 0-0.8 0.3-0.8 0.7 0 0.5 0.3 0.8 0.8 0.8zm7.1 5.8c-0.1-2.3-3.9-1.5-3.9-3 0-0.5 0.5-0.9 1.3-0.9 0.9 0 1.4 0.5 1.4 1.1h1.1c-0.1-1.3-1-2.1-2.5-2.1-1.4 0-2.4 0.9-2.4 1.9 0 2.4 3.9 1.6 3.9 3 0 0.6-0.5 1-1.3 1-1 0-1.5-0.5-1.6-1.1h-1.1c0.1 1.2 1.1 2 2.7 2 1.4 0 2.4-0.8 2.4-1.9zm1.8 0c0 1.4 0.6 1.8 1.8 1.8h1v-0.9h-0.8c-0.7 0-1-0.2-1-0.9v-3.8h1.8v-0.9h-1.8v-1.7h-1v1.7h-0.9v0.9h0.9zm10.3-1.5c0-2.1-1.4-3.4-3.3-3.4-1.9 0-3.3 1.3-3.3 3.4 0 2 1.4 3.4 3.2 3.4 1.9 0 3.4-1.4 3.4-3.4zm-5.5 0c0-1.7 1-2.5 2.2-2.5 1.1 0 2.2 0.8 2.2 2.5 0 1.6-1.1 2.4-2.3 2.4-1.1 0-2.1-0.8-2.1-2.4zm8.1-0.3c0-1.5 0.7-2 1.8-2h0.3v-1.1c-1.1 0-1.8 0.4-2.1 1.1v-1h-1.1v6.6h1.1zm3.3 3.5h1.1v-6.5h-1.1zm0.6-7.7c0.4 0 0.7-0.3 0.7-0.7 0-0.5-0.3-0.8-0.7-0.8-0.4 0-0.7 0.3-0.7 0.8 0 0.4 0.3 0.7 0.7 0.7zm2 4.3c0 2.1 1.3 3.5 3.1 3.5 1.2 0 2.1-0.7 2.4-1.4v1.3h1.2v-6.6h-1.2v1.2c-0.3-0.7-1.2-1.3-2.4-1.3-1.8 0-3.1 1.3-3.1 3.3zm5.5 0.1c0 1.5-1 2.4-2.2 2.4-1.2 0-2.2-0.9-2.2-2.5 0-1.5 1-2.4 2.2-2.4 1.2 0 2.2 0.9 2.2 2.5zm5.8-0.1c0 2.1 1.4 3.5 3.1 3.5 1.2 0 2.1-0.6 2.5-1.4v1.3h1.1v-8.9h-1.1v3.5c-0.5-0.8-1.4-1.3-2.5-1.3-1.7 0-3.1 1.3-3.1 3.3zm5.6 0.1c0 1.5-1.1 2.4-2.3 2.4-1.2 0-2.2-0.9-2.2-2.5 0-1.5 1-2.4 2.2-2.4 1.2 0 2.3 0.9 2.3 2.5zm5.7-2.5c1.1 0 2.1 0.7 2.1 2h-4.2c0.2-1.3 1-2 2.1-2zm3.1 3.7h-1.2c-0.2 0.7-0.9 1.2-1.8 1.2-1.2 0-2.1-0.7-2.2-2h5.3c0-0.3 0-0.4 0-0.7 0-1.8-1.2-3.1-3.1-3.1-2 0-3.3 1.3-3.3 3.4 0 2 1.4 3.4 3.3 3.4 1.6 0 2.6-1 3-2.2z"/>
				<path id="vida" class="s1" aria-label="vida"  d="m63.7 125.4l2.6 6.6h1.3l2.6-6.6h-1.2l-2 5.6-2.1-5.6zm7.5 6.6h1.1v-6.6h-1.1zm0.6-7.6c0.4 0 0.7-0.3 0.7-0.8 0-0.4-0.3-0.7-0.7-0.7-0.4 0-0.8 0.3-0.8 0.7 0 0.5 0.4 0.8 0.8 0.8zm2 4.3c0 2.1 1.3 3.4 3.1 3.4 1.2 0 2-0.6 2.4-1.3v1.2h1.1v-8.9h-1.1v3.5c-0.4-0.7-1.4-1.3-2.4-1.3-1.8 0-3.1 1.4-3.1 3.4zm5.5 0c0 1.6-1 2.5-2.2 2.5-1.2 0-2.2-0.9-2.2-2.5 0-1.5 1-2.4 2.2-2.4 1.2 0 2.2 0.9 2.2 2.4zm2.6 0c0 2.1 1.3 3.4 3.1 3.4 1.2 0 2-0.6 2.4-1.3v1.2h1.1v-6.6h-1.1v1.2c-0.3-0.6-1.2-1.3-2.4-1.3-1.8 0-3.1 1.4-3.1 3.4zm5.5 0c0 1.6-1 2.5-2.2 2.5-1.2 0-2.2-0.9-2.2-2.5 0-1.5 1-2.4 2.2-2.4 1.2 0 2.2 0.9 2.2 2.4z"/>
			</g>
			<g>
				<path class="s1" d="m95.7 50.1h-36.9c-1.5 0-1.5 2.3 0 2.3h36.9c1.5 0 1.5-2.3 0-2.3z"/>
				<path class="s1" d="m95.7 60.6h-36.9c-1.5 0-1.5 2.3 0 2.3h36.9c1.5 0 1.5-2.3 0-2.3z"/>
				<path class="s1" d="m95.7 71.1h-36.9c-1.5 0-1.5 2.3 0 2.3h36.9c1.5 0 1.5-2.3 0-2.3z"/>
				<path class="s1" d="m95.7 81.6h-36.9c-1.5 0-1.5 2.3 0 2.3h36.9c1.5 0 1.5-2.3 0-2.3z"/>
				<path fill-rule="evenodd" class="s1" d="m59.7 43.8c-1.6 0-3-1.3-3-3 0-1.6 1.4-2.9 3-2.9 1.6 0 2.9 1.3 2.9 2.9 0 1.7-1.3 3-2.9 3zm0-1.3c0.9 0 1.7-0.7 1.7-1.7 0-0.9-0.8-1.7-1.7-1.7-1 0-1.7 0.8-1.7 1.7 0 1 0.7 1.7 1.7 1.7z"/>
				<path fill-rule="evenodd" class="s1" d="m65.5 40.8c0-1.6 1.3-2.9 3-2.9 1.6 0 2.9 1.3 2.9 2.9 0 1.7-1.3 3-2.9 3-1.7 0-3-1.3-3-3zm1.2 0c0 1 0.8 1.7 1.8 1.7 0.9 0 1.7-0.7 1.7-1.7 0-0.9-0.8-1.7-1.7-1.7-1 0-1.8 0.8-1.8 1.7z"/>
				<path fill-rule="evenodd" class="s1" d="m74.3 40.8c0-1.6 1.3-2.9 2.9-2.9 1.7 0 3 1.3 3 2.9 0 1.7-1.4 3-3 3-1.6 0-2.9-1.3-2.9-3zm1.2 0c0 1 0.8 1.7 1.7 1.7 1 0 1.7-0.7 1.7-1.7 0-0.9-0.7-1.7-1.7-1.7-0.9 0-1.7 0.8-1.7 1.7z"/>
				<path fill-rule="evenodd" class="s1" d="m83 40.8c0-1.6 1.3-2.9 3-2.9 1.6 0 2.9 1.3 2.9 2.9 0 1.7-1.3 3-2.9 3-1.7 0-3-1.3-3-3zm1.3 0c-0.1 1 0.7 1.7 1.7 1.7 0.9 0 1.7-0.7 1.7-1.7 0-0.9-0.8-1.7-1.7-1.7-1 0-1.8 0.8-1.8 1.7z"/>
				<path fill-rule="evenodd" class="s1" d="m94.7 37.9c1.7 0 3 1.3 3 2.9 0 1.7-1.3 3-3 3-1.6 0-2.9-1.3-2.9-3 0-1.6 1.3-2.9 2.9-2.9zm-1.7 2.9c0 1 0.8 1.7 1.7 1.7 1 0 1.8-0.7 1.8-1.7-0.1-0.9-0.8-1.7-1.8-1.7-0.9 0-1.7 0.8-1.7 1.7z"/>
				<path fill-rule="evenodd" class="s1" d="m109.7 38.6c0.1 0.8-0.5 1.8-1.7 1.8q-0.2 0-0.5 0-0.7 0-1.5 0v53.9h-56.2v-64.4h39.8q-1-0.7-1.7-1.6c-2.4-2.9-2-6.3-1.3-8.9 0.3-1.1 1.3-1.5 2.1-1.2 0.8 0.2 1.6 1 1.3 2.1-0.5 1.9-0.8 3.5 0.1 5.1q0.1 0 0.1 0.1c0.3-1.9 1.1-3.5 2.2-4.3 1.2-0.9 2.7-1.2 4.4-0.8 2.4 0.6 3.8 2.4 3.8 4.7 0 1.6-0.9 3.5-2.3 4.8h7.7v6.9q1.2 0.1 2 0.1c1.1 0 1.7 0.8 1.7 1.7zm-1.7 0.5c0.5 0 0.5-0.4 0.5-0.5 0-0.2 0-0.5-0.4-0.5h-0.1c-3.2 0-11.3-0.5-14.7-7.1l-0.5-0.9h1.1q0.8 0.1 1.6-0.1c2.4-0.5 3.8-2.9 3.8-4.9 0.1-1.1-0.3-2.9-2.8-3.5q-2-0.5-3.3 0.5c-1.2 0.9-1.9 2.7-1.9 4.9l-0.1 1.3-1-0.9q-0.7-0.6-1.1-1.4c-1.2-1.9-0.8-3.9-0.3-6 0.1-0.5-0.3-0.6-0.4-0.7q-0.1 0-0.2 0c-0.1 0-0.3 0.1-0.4 0.4-0.6 2.5-1 5.4 1 7.8 0.7 0.8 1.5 1.5 2.5 1.9l0.2 0.2 0.1 0.2q0.2 0.8 0.5 1.3c2.5 5.2 8.5 8.2 15.9 8.1zm-3.8 53.3v-52.3c-6.1-0.8-10.9-3.8-13.2-8.5h-39.3v60.8zm-9.1-60.8c2.3 3.2 6 4.5 9.1 5v-5z"/>
				<path fill-rule="evenodd" class="s1" d="m94.3 29.1q-0.8 0-1.6-0.3l-0.4-0.1-0.1-0.3q-0.4-1.8 0.1-3.2c0.6-1.5 1.8-2.4 3.1-2.3 1.4 0.1 2.6 0.9 2.9 2.1 0.2 0.6 0.3 2.1-1.7 3.4-0.7 0.5-1.5 0.7-2.3 0.7zm-0.9-1.3c0.7 0.2 1.6 0.2 2.5-0.4 1-0.6 1.4-1.3 1.2-2-0.1-0.7-0.9-1.2-1.7-1.3-0.9 0-1.5 0.5-1.9 1.5q-0.4 0.9-0.1 2.2z"/>
			</g>
		</g>
	</g>
</svg>