<?xml version="1.0" encoding="UTF-8"?><svg id="Capa_2" xmlns="http://www.w3.org/2000/svg" viewBox="0 0 95.7 101.38"><defs><style>.cls-1{font-family:Poppins-Regular, Poppins;font-size:14.11px;}.cls-1,.cls-2{fill:#fff;}.cls-2{stroke-width:0px;}</style></defs><g id="Segunda_pantalla"><path class="cls-2" d="M83.26,58.85c4.28,0,7.77-3.48,7.79-7.76l.14-43.05c.01-4.29-3.47-7.8-7.76-7.82L12.71,0h-.03c-4.28,0-7.78,3.48-7.79,7.76l-.14,43.05c0,2.08.8,4.04,2.26,5.51,1.47,1.48,3.42,2.29,5.5,2.3l70.72.23h.03ZM15.44,55.39h-2.74v-.05h-.18c-1.2,0-2.33-.47-3.18-1.33-.85-.86-1.31-1.99-1.31-3.19l.14-43.05c0-2.48,2.03-4.5,4.51-4.5h.02l70.72.23c2.49,0,4.5,2.04,4.49,4.52l-.14,43.05c0,2.48-2.03,4.49-4.51,4.49h-.01l-67.81-.22v.04Z"/><path class="cls-2" d="M79.25,6.82h-16.4c-.45,0-.82.37-.82.82v21.79c0,.45.37.82.82.82h16.4c.45,0,.82-.37.82-.82V7.64c0-.45-.37-.82-.82-.82ZM78.43,28.61h-14.76V8.46h14.76v20.15Z"/><path class="cls-2" d="M18.18,36.44h25.41c.91,0,1.64-.74,1.64-1.64s-.73-1.64-1.64-1.64h-25.41c-.91,0-1.64.73-1.64,1.64s.73,1.64,1.64,1.64Z"/><path class="cls-2" d="M55.48,42.59H18.18c-.91,0-1.64.73-1.64,1.64s.73,1.64,1.64,1.64h37.3c.91,0,1.64-.74,1.64-1.64s-.73-1.64-1.64-1.64Z"/><text class="cls-1" transform="translate(0 93.31)"><tspan x="0" y="0">Identificación</tspan></text></g></svg>