<svg version="1.2" xmlns="http://www.w3.org/2000/svg" viewBox="0 0 168 167" width="187" height="187">
	<title>identificacion-svg</title>
	<style>
		.s0 { fill: #d8a568 } 
		.s1 { fill: #ffffff } 
	</style>
	<g id="Capa_1-2">
		<g>
			<path class="s0" d="m25.1 8h103.6c9.2 0 16.6 7.5 16.6 16.6v103.6c0 9.2-7.4 16.6-16.6 16.6h-103.6c-9.1 0-16.6-7.4-16.6-16.6v-103.6c0-9.1 7.5-16.6 16.6-16.6z"/>
			<g>
				<path fill-rule="evenodd" class="s1" d="m108 90.1h-0.1l-61.9-0.2c-1.9 0-3.6-0.7-4.9-2-1.2-1.3-1.9-3-1.9-4.8l0.1-37.7c0-3.8 3.1-6.8 6.8-6.8l62 0.2c3.8 0 6.8 3.1 6.8 6.8l-0.1 37.8c0 3.7-3.1 6.8-6.8 6.8zm-59.5-3.1l59.4 0.2c2.2 0 4-1.8 4-4l0.1-37.7c0-2.2-1.7-3.9-3.9-3.9l-62-0.2c-2.2 0-4 1.7-4 3.9l-0.1 37.7c0 1.1 0.4 2.1 1.2 2.8 0.7 0.8 1.7 1.2 2.8 1.2h0.1 2.4z"/>
				<path fill-rule="evenodd" class="s1" d="m105.2 45.3v19.1c0 0.4-0.4 0.7-0.8 0.7h-14.3c-0.4 0-0.8-0.3-0.8-0.7v-19.1c0-0.4 0.4-0.8 0.8-0.8l14.3 0.1c0.4 0 0.8 0.3 0.8 0.7zm-1.5 0.7h-12.9v17.6h12.9z"/>
				<path class="s1" d="m50.9 70.5h22.3c0.8 0 1.4-0.7 1.4-1.4 0-0.8-0.6-1.5-1.4-1.5h-22.3c-0.8 0-1.4 0.7-1.4 1.5 0 0.8 0.6 1.4 1.4 1.4z"/>
				<path class="s1" d="m83.6 75.9h-32.7c-0.8 0-1.4 0.6-1.4 1.4 0 0.8 0.6 1.5 1.4 1.5h32.7c0.8 0 1.4-0.7 1.4-1.5 0-0.8-0.6-1.4-1.4-1.4z"/>
			</g>
			<path id="Identificación" class="s1" aria-label="Identificación"  d="m35.9 120h1.1v-8.4h-1.1zm2.6-3.3c0 2.1 1.3 3.4 3.1 3.4 1.2 0 2-0.6 2.4-1.3v1.2h1.1v-8.8h-1.1v3.4c-0.4-0.7-1.4-1.2-2.4-1.2-1.8 0-3.1 1.3-3.1 3.3zm5.5 0c0 1.6-1 2.5-2.2 2.5-1.2 0-2.2-0.9-2.2-2.5 0-1.5 1-2.4 2.2-2.4 1.2 0 2.2 0.9 2.2 2.4zm5.8-2.4c1.1 0 2.1 0.7 2.1 2h-4.2c0.1-1.3 1-2 2.1-2zm3 3.7h-1.1c-0.3 0.7-0.9 1.2-1.9 1.2-1.1 0-2-0.7-2.1-2h5.2c0.1-0.3 0.1-0.5 0.1-0.7 0-1.8-1.3-3.1-3.2-3.1-1.9 0-3.2 1.3-3.2 3.3 0 2.1 1.4 3.4 3.2 3.4 1.7 0 2.7-0.9 3-2.1zm6.4 2h1.1v-3.8c0-1.9-1.2-2.9-2.7-2.9-0.9 0-1.7 0.4-2.1 1.1v-0.9h-1.1v6.5h1.1v-3.6c0-1.4 0.8-2.1 1.9-2.1 1.1 0 1.8 0.7 1.8 2zm3.1-1.8c0 1.3 0.7 1.8 1.9 1.8h0.9v-0.9h-0.8c-0.6 0-0.9-0.2-0.9-0.9v-3.9h1.7v-0.9h-1.7v-1.6h-1.1v1.6h-0.8v0.9h0.8zm4.2 1.8h1.1v-6.5h-1.1zm0.5-7.7c0.4 0 0.8-0.3 0.8-0.7 0-0.4-0.4-0.8-0.8-0.8-0.4 0-0.7 0.4-0.7 0.8 0 0.4 0.3 0.7 0.7 0.7zm2.6 7.7h1.1v-5.7h1.4v-0.9h-1.4v-0.5c0-0.8 0.3-1.2 1.3-1.2v-0.9c-1.7 0-2.4 0.7-2.4 2.1v0.5h-0.8v0.9h0.8zm3.8 0h1.1v-6.6h-1.1zm0.5-7.6c0.4 0 0.8-0.4 0.8-0.8 0-0.4-0.4-0.7-0.8-0.7-0.4 0-0.7 0.3-0.7 0.7 0 0.4 0.3 0.8 0.7 0.8zm2 4.3c0 2.1 1.3 3.4 3.2 3.4 1.6 0 2.7-0.9 3.1-2.2h-1.2c-0.3 0.8-0.9 1.3-1.9 1.3-1.2 0-2.1-0.9-2.1-2.5 0-1.6 0.9-2.4 2.1-2.4 1 0 1.6 0.5 1.9 1.2h1.2c-0.4-1.3-1.5-2.2-3.1-2.2-1.9 0-3.2 1.3-3.2 3.4zm7.3 0c0 2 1.3 3.4 3.1 3.4 1.2 0 2.1-0.6 2.5-1.3v1.2h1.1v-6.6h-1.1v1.2c-0.4-0.6-1.3-1.3-2.5-1.3-1.8 0-3.1 1.3-3.1 3.4zm5.6 0c0 1.6-1.1 2.5-2.3 2.5-1.2 0-2.2-1-2.2-2.5 0-1.5 1-2.4 2.2-2.4 1.2 0 2.3 0.9 2.3 2.4zm2.5 0c0 2.1 1.3 3.4 3.2 3.4 1.6 0 2.7-0.9 3-2.2h-1.1c-0.3 0.8-0.9 1.3-1.9 1.3-1.2 0-2.1-0.9-2.1-2.5 0-1.6 0.9-2.4 2.1-2.4 1 0 1.6 0.5 1.9 1.2h1.1c-0.3-1.3-1.4-2.2-3-2.2-1.9 0-3.2 1.3-3.2 3.4zm7.7 3.3h1.1v-6.6h-1.1zm0.6-7.6c0.4 0 0.7-0.3 0.7-0.8 0-0.4-0.3-0.7-0.7-0.7-0.5 0-0.8 0.3-0.8 0.7 0 0.5 0.3 0.8 0.8 0.8zm8.6 4.3c0-2-1.5-3.3-3.3-3.3-1.9 0-3.4 1.3-3.4 3.3 0 2.1 1.5 3.4 3.3 3.4 1.9 0 3.4-1.3 3.4-3.4zm-5.5 0c0-1.6 1-2.4 2.2-2.4 1.1 0 2.2 0.8 2.2 2.4 0 1.7-1.1 2.5-2.3 2.5-1.1 0-2.1-0.8-2.1-2.5zm0.8-4.6v0.8l2.5-1.4v-0.9zm11 7.9h1.1v-3.8c0-1.9-1.2-2.9-2.7-2.9-0.9 0-1.7 0.4-2.1 1.1v-0.9h-1.1v6.5h1.1v-3.6c0-1.4 0.7-2.1 1.9-2.1 1.1 0 1.8 0.7 1.8 2z"/>
		</g>
	</g>
</svg>