<svg version="1.2" xmlns="http://www.w3.org/2000/svg" viewBox="0 0 168 168" width="187" height="187">
	<title>proyecto_vida-svg</title>
	<style>
		.s0 { fill: #d8a568 } 
		.s1 { fill: #ffffff } 
	</style>
	<g id="Capa_1-2">
		<g>
			<path class="s0" d="m25.1 8.9h103.6c9.2 0 16.6 7.4 16.6 16.6v103.6c0 9.1-7.4 16.6-16.6 16.6h-103.6c-9.1 0-16.6-7.5-16.6-16.6v-103.6c0-9.2 7.5-16.6 16.6-16.6z"/>
			<g>
				<path fill-rule="evenodd" class="s1" d="m115.6 70.3c0.3 0.3 0.4 0.7 0.3 1.1v12.1q0 0.1 0 0.2v1c0 0.8-0.7 1.4-1.4 1.4-1.3 0-3.5 0.4-6.3 1.1l-0.5 0.2q-0.1 0-0.2 0c-5.8 1.5-17.5 4.4-33.9 8.6h-0.1q0 0-0.1 0-0.7 0.2-1.3 0.2-1.1 0-2.3-0.4c0 0 0-0.1 0-0.1h-0.2q-0.3-0.1-0.4-0.2l-25.9-18.8q-0.7-0.4-1.3-1-0.1 0-0.1 0c-1.1-1.2-1.8-2.7-1.8-4.2 0-3.1 2.4-5.7 5.4-6 0.6-0.1 1.2-0.1 1.9 0q0.4 0 0.8 0.1 0.4 0.2 0.9 0.4 0.2 0.1 0.4 0.3 0.1 0 0.2 0.1l2.8 2 15.6 10.1q0.3 0.1 0.8 0c0.7-0.1 3-0.7 9.9-2.5l0.3-0.1c1.2-0.4 2.5-0.7 3.7-1 1.8-0.5 3.2-0.8 3.7-1 0.9-0.5 1.4-1.4 1.4-2.4 0-1.4-1-2.5-2.3-2.8h-9.9c-2.4 0-4.3-1.9-4.3-4.2 0-2.4 1.9-4.3 4.3-4.3h10.7q2-0.1 5.2-0.1c5 0 8.5 2 11.3 4q1 0.7 2 1.4c3.1 2.3 5.7 4.2 9.6 4.2 0.4 0 0.9 0.2 1.1 0.6zm-2.5 12.9l-0.1-1.4v-9.3c-4-0.5-6.9-2.6-9.8-4.7q-0.9-0.7-1.9-1.4c-2.5-1.8-5.5-3.5-9.7-3.5-2.1 0-3.8 0.1-5.2 0.1h-10.7c-0.8 0-1.4 0.6-1.4 1.4 0 0.8 0.6 1.4 1.4 1.4h10q0.1 0.1 0.3 0.1c2.7 0.4 4.7 2.8 4.7 5.6 0 2-1.1 3.9-2.9 4.9q-0.2 0.1-0.3 0.2c-0.4 0.1-1.9 0.5-4 1q-1.9 0.5-3.7 1l-0.3 0.1c-6 1.6-9.3 2.4-10.1 2.6q-0.1 0-0.2 0-1.1 0.1-2-0.1-0.2-0.1-0.4-0.2l-15.9-10.3c0 0 0 0 0 0l-2.8-2q0 0 0 0-0.2-0.1-0.3-0.2-0.3-0.1-0.5-0.2-0.1 0-0.3-0.1c-0.4 0-0.7 0-1 0.1q0 0-0.1 0c-1.7 0.1-2.9 1.5-2.9 3.1 0 0.8 0.3 1.6 0.9 2.2q0 0 0.1 0 0.3 0.4 0.7 0.6 0.1 0 0.2 0.1l25.9 18.7c0.7 0.3 1.3 0.3 2 0.2h0.1c16.3-4.2 28-7.1 33.9-8.6l0.5-0.2q0.1 0 0.1 0 3.5-0.9 5.6-1.1c0.1 0 0.1-0.1 0.1-0.1z"/>
				<path fill-rule="evenodd" class="s1" d="m89 21.7c0 10.3-6.4 19.1-15.5 22.5 4.2 0.5 8.3 2.4 11.5 5.6q0 0 0 0c0.5 0.6 0.5 1.5 0 2 0 0 0 0.1 0 0.1-3.8 3.8-8.8 5.7-13.8 5.7-4.7 0-9.3-1.7-13-5h-0.1l-8.6 8.6-1.5-1.5 8.6-8.6v-0.1c-6.9-7.7-6.6-19.5 0.7-26.8q0.1 0 0.1-0.1c0.6-0.4 1.4-0.4 1.9 0.1q0.1 0 0.2 0.1 0.1 0.1 0.3 0.3c3 2.9 4.8 6.7 5.4 10.6 3.7-8.9 12.4-15 22.3-15 0 0 0.1 0 0.1 0 0.8 0.1 1.4 0.7 1.4 1.4zm-7.1 29.1q0 0 0 0 0 0 0 0zm0 0c-5.7-4.8-14-5.2-20.2-0.9-0.6 0.4-1.3 0.3-1.8-0.2-0.5-0.5-0.6-1.2-0.2-1.8 4.4-6.4 3.8-14.9-1.3-20.6-5.3 6.2-5.3 15.6 0.3 21.9l0.2 0.2q0.2 0.2 0.4 0.4c0.1 0.1 0.2 0.2 0.2 0.2q0.1 0.1 0.2 0.2 0.1 0.1 0.2 0.1 0.1 0.1 0.2 0.2c6.2 5.6 15.5 5.6 21.8 0.3zm4.2-27.7c-9.6 0.6-17.7 7.7-19.5 17.3q-0.2 1.3-0.3 2.5c10.7-0.7 19.1-9.1 19.8-19.8z"/>
			</g>
			<g>
				<path id="Proyecto de" class="s1" aria-label="Proyecto de"  d="m42.2 111.6v-3.1h1.6c1.2 0 1.7 0.6 1.7 1.6 0 0.9-0.5 1.5-1.7 1.5zm4.5-1.5c0-1.4-1-2.5-2.9-2.5h-2.7v8.4h1.1v-3.5h1.6c2 0 2.9-1.1 2.9-2.4zm2.4 2.3c0-1.5 0.8-2 1.8-2h0.3v-1.1c-1 0-1.7 0.5-2.1 1.2v-1.1h-1.1v6.6h1.1zm9.6 0.3c0-2.1-1.4-3.4-3.3-3.4-1.8 0-3.3 1.3-3.3 3.4 0 2.1 1.4 3.4 3.3 3.4 1.8 0 3.3-1.3 3.3-3.4zm-5.5 0c0-1.7 1-2.5 2.2-2.5 1.1 0 2.2 0.8 2.2 2.5 0 1.6-1.1 2.4-2.2 2.4-1.2 0-2.2-0.8-2.2-2.4zm9.5 2l-2.1-5.3h-1.2l2.6 6.5-1.2 3.2h1.1l3.9-9.7h-1.1zm7.1-4.5c1.1 0 2.1 0.7 2 2h-4.1c0.1-1.3 1-2 2.1-2zm3 3.7h-1.1c-0.3 0.7-0.9 1.2-1.9 1.2-1.1 0-2-0.7-2.1-2h5.2c0.1-0.3 0.1-0.5 0.1-0.7 0-1.8-1.3-3.1-3.2-3.1-1.9 0-3.2 1.3-3.2 3.3 0 2.1 1.3 3.5 3.2 3.5 1.6 0 2.7-1 3-2.2zm1.2-1.3c0 2.1 1.3 3.5 3.2 3.5 1.6 0 2.7-1 3-2.3h-1.1c-0.3 0.9-0.9 1.3-1.9 1.3-1.2 0-2.1-0.8-2.1-2.5 0-1.6 0.9-2.4 2.1-2.4 1 0 1.6 0.5 1.9 1.3h1.1c-0.3-1.4-1.4-2.2-3-2.2-1.9 0-3.2 1.3-3.2 3.3zm7.9 1.5c0 1.4 0.7 1.8 1.9 1.8h0.9v-0.9h-0.8c-0.6 0-0.9-0.2-0.9-0.9v-3.8h1.7v-0.9h-1.7v-1.7h-1.1v1.7h-0.8v0.9h0.8zm10.4-1.5c0-2.1-1.4-3.4-3.3-3.4-1.9 0-3.3 1.3-3.3 3.4 0 2.1 1.4 3.4 3.2 3.4 1.9 0 3.4-1.3 3.4-3.4zm-5.5 0c0-1.7 1-2.5 2.2-2.5 1.1 0 2.2 0.8 2.2 2.5 0 1.6-1.1 2.4-2.3 2.4-1.1 0-2.1-0.8-2.1-2.4zm9.7 0c0 2 1.4 3.4 3.2 3.4 1.2 0 2-0.6 2.4-1.4v1.3h1.1v-8.9h-1.1v3.5c-0.4-0.8-1.4-1.3-2.4-1.3-1.8 0-3.2 1.3-3.2 3.4zm5.6 0c0 1.5-1 2.4-2.2 2.4-1.2 0-2.2-0.9-2.2-2.4 0-1.6 1-2.5 2.2-2.5 1.2 0 2.2 0.9 2.2 2.5zm5.8-2.5c1.1 0 2 0.7 2 2h-4.1c0.1-1.3 1-2 2.1-2zm3 3.7h-1.1c-0.3 0.8-0.9 1.3-1.9 1.3-1.1 0-2-0.8-2.1-2.1h5.2c0-0.2 0.1-0.4 0.1-0.7 0-1.8-1.3-3.1-3.2-3.1-1.9 0-3.2 1.3-3.2 3.4 0 2.1 1.3 3.4 3.2 3.4 1.6 0 2.7-1 3-2.2z"/>
				<path id="vida" class="s1" aria-label="vida"  d="m63.7 124.4l2.6 6.6h1.3l2.5-6.6h-1.1l-2.1 5.6-2-5.6zm7.5 6.6h1.1v-6.6h-1.1zm0.6-7.6c0.4 0 0.7-0.3 0.7-0.8 0-0.4-0.3-0.7-0.7-0.7-0.5 0-0.8 0.3-0.8 0.7 0 0.5 0.3 0.8 0.8 0.8zm1.9 4.3c0 2.1 1.4 3.4 3.2 3.4 1.2 0 2-0.6 2.4-1.3v1.2h1.1v-8.9h-1.1v3.5c-0.4-0.7-1.4-1.3-2.4-1.3-1.8 0-3.2 1.4-3.2 3.4zm5.6 0c0 1.6-1 2.5-2.2 2.5-1.2 0-2.2-0.9-2.2-2.5 0-1.5 1-2.4 2.2-2.4 1.2 0 2.2 0.9 2.2 2.4zm2.6 0c0 2.1 1.3 3.4 3.1 3.4 1.2 0 2-0.6 2.4-1.3v1.2h1.1v-6.6h-1.1v1.2c-0.4-0.6-1.2-1.3-2.4-1.3-1.8 0-3.1 1.4-3.1 3.4zm5.5 0c0 1.6-1 2.5-2.2 2.5-1.2 0-2.2-0.9-2.2-2.5 0-1.5 1-2.4 2.2-2.4 1.2 0 2.2 0.9 2.2 2.4z"/>
			</g>
		</g>
	</g>
</svg>