<?xml version="1.0" encoding="UTF-8"?><svg id="Capa_2" xmlns="http://www.w3.org/2000/svg" viewBox="0 0 94.06 131.39"><defs><style>.cls-1{font-family:Poppins-Regular, Poppins;font-size:14.11px;}.cls-1,.cls-2{fill:#fff;}.cls-2{stroke-width:0px;}</style></defs><g id="Segunda_pantalla"><path class="cls-2" d="M55.55,28.19l-7.93,5.84-7.93-5.84c-.36-.36-.95-.36-1.31,0-.36.36-.36.95,0,1.31l8.29,6.27v6.19c0,.51.41.92.93.92s.92-.41.92-.92v-6.17l8.33-6.3c.36-.36.36-.95,0-1.31-.36-.36-.94-.36-1.3,0Z"/><path class="cls-2" d="M14.37,3.28c-2.11,2.11-3.27,4.92-3.27,7.9,0,6.16,5.01,11.17,11.17,11.17h0c2.98,0,5.78-1.16,7.89-3.28,2.11-2.11,3.28-4.92,3.27-7.9,0-6.16-5.01-11.17-11.17-11.17-2.98,0-5.79,1.16-7.9,3.28ZM30.49,11.17c0,2.19-.85,4.25-2.41,5.81-1.55,1.55-3.61,2.41-5.8,2.41h0c-4.53,0-8.21-3.68-8.22-8.21,0-2.19.86-4.25,2.41-5.81,1.55-1.55,3.62-2.41,5.81-2.41,4.53,0,8.21,3.69,8.22,8.21Z"/><path class="cls-2" d="M9.6,39.44h25.35c.8,0,1.45-.64,1.48-1.43.01-.4.25-9.83-5.68-15.26-.53-.48-1.33-.52-1.9-.08-.07.05-6.63,4.98-12.73.01-.56-.45-1.36-.44-1.9.03-.24.21-5.95,5.29-6.1,15.24,0,.4.15.78.43,1.06.28.28.66.44,1.05.44ZM15.35,25.78c5.33,3.54,11.06,1.86,14.2-.03,3.01,3.4,3.71,8.33,3.87,10.74H11.15c.45-5.63,2.91-9.19,4.21-10.71Z"/><path class="cls-2" d="M72.28,22.34h0c2.98,0,5.78-1.16,7.89-3.28,2.11-2.11,3.28-4.92,3.27-7.9,0-6.16-5.01-11.17-11.17-11.17-2.98,0-5.79,1.16-7.9,3.28-2.11,2.11-3.27,4.92-3.27,7.9,0,6.16,5.02,11.17,11.17,11.17ZM66.48,5.37c1.55-1.55,3.62-2.41,5.81-2.41,4.53,0,8.21,3.69,8.22,8.21,0,2.19-.85,4.25-2.41,5.81-1.55,1.55-3.61,2.41-5.8,2.41h0c-4.53,0-8.21-3.68-8.22-8.21,0-2.19.86-4.25,2.41-5.81Z"/><path class="cls-2" d="M86.43,38.01c.01-.4.25-9.83-5.68-15.26-.53-.48-1.33-.52-1.9-.08-.07.05-6.63,4.98-12.73.01-.56-.45-1.36-.44-1.9.03-.24.21-5.95,5.29-6.1,15.24,0,.4.15.78.42,1.06.28.28.66.44,1.05.44h25.35c.8,0,1.45-.64,1.48-1.43ZM61.16,36.49c.45-5.64,2.9-9.19,4.21-10.71,5.33,3.54,11.05,1.86,14.2-.03,3.01,3.4,3.71,8.33,3.87,10.74h-22.28Z"/><path class="cls-2" d="M47.62,46.07c-2.98,0-5.79,1.16-7.9,3.28-2.11,2.11-3.27,4.92-3.27,7.9,0,6.16,5.01,11.17,11.17,11.17h0c2.98,0,5.78-1.16,7.9-3.28,2.11-2.11,3.28-4.92,3.27-7.9,0-6.16-5.02-11.17-11.17-11.17ZM53.43,63.04c-1.55,1.55-3.62,2.41-5.81,2.41h0c-4.53,0-8.21-3.68-8.21-8.21,0-2.19.85-4.25,2.41-5.81,1.55-1.55,3.62-2.41,5.81-2.41,4.53,0,8.21,3.69,8.22,8.21,0,2.19-.85,4.25-2.41,5.81Z"/><path class="cls-2" d="M34.95,85.51h25.35c.8,0,1.45-.64,1.48-1.43.01-.4.25-9.83-5.68-15.27-.53-.48-1.33-.52-1.9-.08-.07.05-6.63,4.98-12.73.01-.56-.45-1.36-.44-1.9.03-.24.21-5.95,5.29-6.1,15.24,0,.39.15.78.42,1.06.28.28.66.44,1.05.44ZM40.7,71.85c5.33,3.54,11.05,1.86,14.2-.03,3.01,3.4,3.71,8.33,3.87,10.74h-22.28c.45-5.63,2.9-9.19,4.21-10.71Z"/><text class="cls-1" transform="translate(10.3 106.39)"><tspan x="0" y="0">Rasgos de</tspan><tspan x="-10.3" y="16.93">personalidad</tspan></text></g></svg>