<svg version="1.2" xmlns="http://www.w3.org/2000/svg" viewBox="0 0 167 167" width="187" height="187">
	<title>red_apoyo-svg</title>
	<style>
		.s0 { fill: #d8a568 } 
		.s1 { fill: #ffffff } 
	</style>
	<g id="Capa_1-2">
		<g>
			<path class="s0" d="m24.7 8h103.6c9.1 0 16.6 7.5 16.6 16.6v103.6c0 9.2-7.5 16.6-16.6 16.6h-103.6c-9.2 0-16.6-7.4-16.6-16.6v-103.6c0-9.1 7.4-16.6 16.6-16.6z"/>
			<g>
				<path fill-rule="evenodd" class="s1" d="m103.9 45.2h-13.4v-8.5h13.4zm-9.7-7.4l3 2.4 3-2.4c0 0-6 0-6 0zm8.6 6.3v-6.2h-0.8l-4.8 3.8-4.8-3.8h-0.8v6.2z"/>
				<path fill-rule="evenodd" class="s1" d="m72.1 84.4c-0.3-2.7 0.6-5.3 2.4-7.2 1.7-2 4.3-3.1 6.9-3.1q0.5 0 1 0c4.4 0.5 7.9 4 8.3 8.4 0.3 2.4-0.5 4.8-2 6.7-0.2 0.3-0.5 0.4-0.9 0.4-0.3-0.1-0.6-0.3-0.8-0.6-0.4-1.2-1.5-1.9-2.7-1.9h-4.9c-1.5 0-2.7 1-3 2.4 0 0.4-0.3 0.7-0.6 0.8q-0.2 0.1-0.3 0.1-0.4 0-0.7-0.3c-1.5-1.5-2.5-3.6-2.7-5.7zm3.8-5.9c-1.4 1.6-2.1 3.6-1.9 5.7 0.1 1.2 0.5 2.3 1.2 3.3 0.6-1 1.6-1.8 2.8-2.1-0.8-0.9-1.3-2-1.3-3.2 0-2.6 2.1-4.7 4.7-4.7 2.6 0 4.7 2.1 4.7 4.7 0 1.1-0.5 2.2-1.2 3 1.2 0.2 2.3 0.7 3.1 1.6 0.6-1.2 0.9-2.7 0.7-4.1-0.3-3.5-3.1-6.3-6.6-6.6q-0.4 0-0.7 0c-2.1 0-4.1 0.8-5.5 2.4zm9 3.6c0-1.9-1.6-3.5-3.5-3.5-2 0-3.6 1.6-3.6 3.5 0 2 1.6 3.6 3.6 3.6 1.9 0 3.5-1.6 3.5-3.6z"/>
				<path fill-rule="evenodd" class="s1" d="m47.7 65.8c-3.3-3.2-5.1-7.5-5.1-12 0-9.3 7.6-16.9 16.9-16.9 9.3 0 16.9 7.6 16.9 16.9 0 4.5-1.8 8.8-5 12q-0.3 0.3-0.7 0.3-0.2 0-0.4-0.1c-0.3-0.1-0.6-0.5-0.6-0.9v-0.8c0-3.3-2.6-6-5.9-6h-8.5q-0.3 0-0.7 0 0 0 0 0c-3 0.4-5.3 2.9-5.3 5.9v0.9c0 0.4-0.2 0.7-0.6 0.9-0.3 0.2-0.8 0.1-1-0.2zm11.8-27c-8.2 0-14.9 6.7-14.9 15 0 3.2 1 6.3 2.9 8.8 0.7-3.2 3.3-5.8 6.8-6.2q0 0 0.1 0 0 0 0.1 0c-2-1.5-3.2-3.9-3.2-6.5 0-4.5 3.7-8.2 8.2-8.2 4.5 0 8.2 3.7 8.2 8.2 0 2.6-1.2 5-3.2 6.5 3.5 0.3 6.3 2.9 7 6.2 1.9-2.5 2.9-5.6 2.9-8.8 0-8.3-6.7-15-14.9-15zm6.5 11.1c0-3.6-2.9-6.5-6.5-6.5-3.6 0-6.5 2.9-6.5 6.5 0 3.3 2.5 6 5.6 6.4h1.8c3.2-0.4 5.6-3.1 5.6-6.4z"/>
				<path fill-rule="evenodd" class="s1" d="m84.5 40.6c0-7 5.7-12.7 12.7-12.7 7 0 12.7 5.7 12.7 12.7 0 6.9-5.7 12.6-12.7 12.6-7 0-12.7-5.7-12.7-12.6zm2 0c0 5.9 4.8 10.7 10.7 10.7 5.9 0 10.7-4.8 10.7-10.7 0-5.9-4.8-10.7-10.7-10.7-5.9 0-10.7 4.8-10.7 10.7z"/>
				<path fill-rule="evenodd" class="s1" d="m59.5 34c7.4 0 14.2 4.2 17.6 10.7l4.9-1.7q-0.2-1.2-0.2-2.4c0-8.5 6.9-15.4 15.4-15.4 8.5 0 15.4 6.9 15.4 15.4 0 8.4-6.9 15.4-15.4 15.4-5.9 0-11.2-3.4-13.8-8.5l-4.7 1.6q0.6 2.3 0.6 4.7c0 5.9-2.7 11.5-7.3 15.3l3.5 3.8c2.2-1.2 4.7-1.7 7.1-1.5 5.7 0.6 10.3 5.1 10.8 10.8 0.4 3.5-0.7 6.8-3 9.4-2.3 2.5-5.6 3.9-9 3.9q-0.6 0-1.2 0c-5.7-0.6-10.3-5.1-10.8-10.8-0.4-3.2 0.5-6.3 2.5-8.8l-3.9-4.3c-2.6 1.3-5.6 2-8.5 2-10.9 0-19.8-8.9-19.8-19.8 0-10.9 8.9-19.8 19.8-19.8zm0 2c-9.8 0-17.8 8-17.8 17.8 0 9.8 8 17.8 17.8 17.8 3 0 5.7-0.7 8.3-2q0.3-0.1 0.5-0.1c0.3 0 0.5 0.1 0.7 0.3l5 5.5c0.3 0.4 0.3 0.9 0 1.3 0 0-0.1 0.1-0.1 0.1-1.9 2.1-2.9 4.9-2.6 7.8 0.5 4.8 4.3 8.6 9.1 9q0.5 0.1 1 0.1c2.9 0 5.6-1.2 7.5-3.3 2-2.2 2.9-5 2.6-7.9-0.5-4.7-4.3-8.6-9.1-9-2.2-0.2-4.6 0.3-6.5 1.6-0.4 0.3-1 0.2-1.3-0.2l-4.7-5.2q-0.3-0.3-0.2-0.8c0-0.2 0.1-0.5 0.4-0.6 4.5-3.4 7.3-8.8 7.3-14.4q0-2.5-0.8-5c-0.1-0.5 0.2-1 0.6-1.2l6.4-2.3c0.5-0.2 1.1 0.1 1.3 0.6 2.1 4.9 6.9 8.1 12.3 8.1 7.4 0 13.4-6 13.4-13.4 0-7.4-6-13.5-13.4-13.5-7.4 0-13.4 6.1-13.4 13.5q0 1.4 0.3 2.8c0.1 0.5-0.2 1-0.6 1.2l-6.6 2.3c-0.4 0.1-1-0.1-1.2-0.5-2.9-6.4-9.3-10.4-16.2-10.4z"/>
			</g>
			<g>
				<path id="Red de" class="s1" aria-label="Red de"  d="m60.8 110.1c0 0.9-0.5 1.6-1.8 1.6h-1.6v-3.2h1.6c1.3 0 1.8 0.6 1.8 1.6zm-4.5-2.5v8.4h1.1v-3.4h1.3l2 3.4h1.3l-2.1-3.5c1.4-0.3 2-1.3 2-2.4 0-1.4-0.9-2.5-2.9-2.5zm10.1 2.6c1.2 0 2.1 0.7 2.1 2h-4.2c0.2-1.3 1.1-2 2.1-2zm3.1 3.8h-1.2c-0.2 0.7-0.8 1.2-1.8 1.2-1.1 0-2.1-0.7-2.2-2.1h5.3c0-0.2 0-0.4 0-0.6 0-1.8-1.2-3.2-3.1-3.2-1.9 0-3.3 1.3-3.3 3.4 0 2.1 1.4 3.4 3.3 3.4 1.6 0 2.7-0.9 3-2.1zm1.2-1.3c0 2 1.3 3.4 3.1 3.4 1.2 0 2-0.6 2.4-1.3v1.2h1.1v-8.9h-1.1v3.5c-0.4-0.8-1.4-1.3-2.4-1.3-1.8 0-3.1 1.3-3.1 3.4zm5.5 0c0 1.5-1 2.4-2.2 2.4-1.2 0-2.2-0.9-2.2-2.4 0-1.6 1-2.4 2.2-2.4 1.2 0 2.2 0.9 2.2 2.4zm5.8 0c0 2 1.3 3.4 3.1 3.4 1.2 0 2-0.6 2.4-1.3v1.2h1.2v-8.9h-1.2v3.5c-0.4-0.8-1.4-1.3-2.4-1.3-1.8 0-3.1 1.3-3.1 3.4zm5.5 0c0 1.5-1 2.4-2.2 2.4-1.2 0-2.2-0.9-2.2-2.4 0-1.6 1-2.4 2.2-2.4 1.2 0 2.2 0.9 2.2 2.4zm5.8-2.5c1.1 0 2.1 0.7 2.1 2h-4.2c0.1-1.3 1-2 2.1-2zm3.1 3.8h-1.2c-0.3 0.7-0.9 1.2-1.9 1.2-1.1 0-2-0.7-2.1-2.1h5.3c0-0.2 0-0.4 0-0.6 0-1.8-1.2-3.2-3.2-3.2-1.9 0-3.2 1.3-3.2 3.4 0 2.1 1.4 3.4 3.2 3.4 1.7 0 2.7-0.9 3.1-2.1z"/>
				<path id="apoyo" class="s1" aria-label="apoyo"  d="m57.6 127.7c0 2 1.4 3.4 3.1 3.4 1.2 0 2.1-0.6 2.5-1.3v1.2h1.1v-6.6h-1.1v1.2c-0.4-0.7-1.3-1.3-2.5-1.3-1.7 0-3.1 1.3-3.1 3.4zm5.6 0c0 1.5-1.1 2.4-2.3 2.4-1.2 0-2.2-0.9-2.2-2.4 0-1.6 1-2.4 2.2-2.4 1.2 0 2.3 0.9 2.3 2.4zm4-2.1v-1.2h-1.1v9.7h1.1v-4.3c0.4 0.7 1.3 1.3 2.5 1.3 1.7 0 3.1-1.4 3.1-3.4 0-2.1-1.4-3.4-3.1-3.4-1.2 0-2.1 0.6-2.5 1.3zm4.5 2.1c0 1.5-1 2.4-2.3 2.4-1.1 0-2.2-0.9-2.2-2.4 0-1.5 1.1-2.4 2.2-2.4 1.3 0 2.3 0.8 2.3 2.4zm8.8 0c0-2.1-1.5-3.4-3.3-3.4-1.9 0-3.4 1.3-3.4 3.4 0 2.1 1.4 3.4 3.3 3.4 1.9 0 3.4-1.3 3.4-3.4zm-5.6 0c0-1.7 1.1-2.4 2.2-2.4 1.2 0 2.3 0.7 2.3 2.4 0 1.7-1.2 2.4-2.3 2.4-1.1 0-2.2-0.7-2.2-2.4zm9.5 2.1l-2.1-5.4h-1.2l2.7 6.5-1.3 3.2h1.1l4-9.7h-1.1zm10.5-2c0-2.1-1.5-3.4-3.4-3.4-1.8 0-3.3 1.3-3.3 3.4 0 2.1 1.4 3.4 3.3 3.4 1.9 0 3.4-1.3 3.4-3.4zm-5.6 0c0-1.7 1.1-2.5 2.2-2.5 1.1 0 2.2 0.8 2.2 2.5 0 1.6-1.1 2.4-2.2 2.4-1.2 0-2.2-0.8-2.2-2.4z"/>
			</g>
		</g>
	</g>
</svg>