<?xml version="1.0" encoding="UTF-8"?><svg id="Capa_2" xmlns="http://www.w3.org/2000/svg" viewBox="0 0 121.59 107.8"><defs><style>.cls-1{font-family:Poppins-Regular, Poppins;font-size:14.11px;}.cls-1,.cls-2{fill:#fff;}.cls-2{stroke-width:0px;}</style></defs><g id="Segunda_pantalla"><path class="cls-2" d="M43.31,31.02h0c4.14,0,8.03-1.62,10.96-4.55,2.93-2.93,4.55-6.83,4.55-10.96,0-8.55-6.96-15.5-15.51-15.5-4.14,0-8.03,1.62-10.96,4.55-2.93,2.93-4.55,6.83-4.55,10.97,0,8.55,6.96,15.5,15.51,15.5ZM35.25,7.45c2.16-2.16,5.02-3.35,8.06-3.35,6.29,0,11.4,5.11,11.41,11.4,0,3.04-1.19,5.9-3.35,8.06-2.15,2.16-5.02,3.34-8.06,3.34h0c-6.29,0-11.4-5.11-11.4-11.4,0-3.04,1.19-5.91,3.34-8.06Z"/><path class="cls-2" d="M80.56,31.02h0c4.14,0,8.03-1.62,10.96-4.55,2.93-2.93,4.55-6.83,4.55-10.96,0-8.55-6.96-15.5-15.51-15.5-4.14,0-8.03,1.62-10.96,4.55-2.93,2.93-4.55,6.83-4.55,10.97,0,8.55,6.96,15.5,15.51,15.5ZM72.49,7.45c2.16-2.16,5.02-3.35,8.06-3.35,6.28,0,11.4,5.11,11.41,11.4,0,3.04-1.19,5.9-3.35,8.06-2.15,2.16-5.02,3.34-8.06,3.34h0c-6.29,0-11.4-5.11-11.41-11.4,0-3.04,1.19-5.91,3.34-8.06Z"/><path class="cls-2" d="M100.2,52.77c.02-.55.35-13.65-7.88-21.19-.74-.68-1.85-.72-2.64-.12-.07.06-5.85,4.39-12.46,2.7-.47-3.67-3.51-4.76-4.49-5.01-2.96-.76-6.98.32-8.94,3.87-.16.3-.48.48-.8.49-.35,0-.68-.19-.84-.47-1.51-2.62-4.16-4.18-7.1-4.18-.66,0-1.31.08-1.92.24-.9.24-3.53,1.21-4.28,4.3-3.45,1.37-8.88,2.32-14.07-1.92-.77-.63-1.89-.61-2.64.04-.34.29-8.27,7.34-8.46,21.16,0,.55.21,1.08.59,1.47.39.39.91.61,1.46.61h35.19c.37,0,.72-.11,1.02-.29.31.18.67.29,1.03.29h35.19c1.11,0,2.01-.88,2.05-1.99ZM27.87,50.65c.63-7.83,4.03-12.76,5.84-14.87,5.37,3.57,11.02,3.31,15.39,1.9,1.47,4.32,6.17,9.01,9.61,12.02.03.33.06.65.08.94h-30.92ZM51.07,35.15c0-2.47,1.46-3.38,2.68-3.71.4-.11.84-.16,1.29-.16,2.06,0,3.93,1.11,5,2.96.6,1.04,1.72,1.69,2.95,1.69,1.22,0,2.34-.68,2.92-1.74,1.36-2.47,4.15-3.22,6.2-2.69,1.25.32,2.74,1.22,2.74,3.66,0,3.95-5.86,10.23-11.89,14.92-4.74-3.72-11.9-10.5-11.9-14.92ZM66.11,50.65c3.33-2.78,8.66-7.75,10.51-12.42,5.53,1.26,10.78-.53,14.04-2.49,4.17,4.72,5.15,11.57,5.37,14.91h-29.92Z"/><text class="cls-1" transform="translate(30.58 82.8)"><tspan x="0" y="0">Relación</tspan><tspan x="-30.58" y="16.93">erótico - afectivo</tspan></text></g></svg>