<svg version="1.2" xmlns="http://www.w3.org/2000/svg" viewBox="0 0 167 167" width="187" height="187">
	<title>relacion-svg</title>
	<style>
		.s0 { fill: #d8a568 } 
		.s1 { fill: #ffffff } 
	</style>
	<g id="Capa_1-2">
		<g>
			<path class="s0" d="m24.7 8h103.6c9.2 0 16.6 7.5 16.6 16.6v103.6c0 9.2-7.4 16.6-16.6 16.6h-103.6c-9.2 0-16.6-7.4-16.6-16.6v-103.6c0-9.1 7.4-16.6 16.6-16.6z"/>
			<g>
				<path fill-rule="evenodd" class="s1" d="m59.9 60.1c-7.5 0-13.6-6.1-13.6-13.6 0-3.6 1.4-7 4-9.6 2.5-2.5 5.9-4 9.6-4 7.5 0 13.6 6.1 13.6 13.6 0 3.7-1.4 7.1-4 9.6-2.6 2.6-6 4-9.6 4zm-7.1-20.6q0 0 0 0 0 0 0 0zm0.1 0c-1.9 1.9-3 4.4-3 7 0 5.6 4.5 10 10 10 2.7 0 5.2-1 7.1-2.9 1.9-1.9 2.9-4.4 2.9-7.1 0-5.5-4.5-9.9-10-9.9-2.6 0-5.2 1-7 2.9z"/>
				<path fill-rule="evenodd" class="s1" d="m92.5 60.1c-7.5 0-13.6-6.1-13.6-13.6 0-3.6 1.4-7 4-9.6 2.6-2.5 6-4 9.6-4 7.5 0 13.6 6.1 13.6 13.6 0 3.7-1.4 7.1-4 9.6-2.5 2.6-5.9 4-9.6 4zm-7-20.6q0 0 0 0 0 0 0 0zm0 0c-1.9 1.9-2.9 4.4-2.9 7 0 5.6 4.4 10 9.9 10 2.7 0 5.2-1 7.1-2.9 1.9-1.9 2.9-4.4 2.9-7.1 0-5.5-4.4-9.9-10-9.9-2.6 0-5.1 1-7 2.9z"/>
				<path fill-rule="evenodd" class="s1" d="m109.8 79.2c-0.1 1-0.9 1.8-1.8 1.8h-30.9q-0.5-0.1-0.9-0.3-0.4 0.2-0.9 0.3h-30.8c-0.5 0-1-0.2-1.3-0.6-0.4-0.3-0.5-0.8-0.5-1.3 0.1-12.1 7.1-18.3 7.4-18.5 0.7-0.6 1.6-0.6 2.3-0.1 4.6 3.7 9.3 2.9 12.3 1.7 0.7-2.7 3-3.5 3.8-3.8q0.8-0.2 1.7-0.2c2.5 0 4.9 1.4 6.2 3.7 0.1 0.2 0.4 0.4 0.7 0.4 0.3 0 0.6-0.2 0.7-0.4 1.7-3.1 5.3-4.1 7.9-3.4 0.8 0.2 3.5 1.2 3.9 4.4 5.8 1.5 10.9-2.3 10.9-2.4 0.7-0.5 1.7-0.5 2.3 0.1 7.2 6.6 7 18.1 6.9 18.6zm-36.2-1.9q-0.1-0.4-0.1-0.8c-3-2.6-7.2-6.8-8.4-10.5-3.9 1.2-8.8 1.4-13.5-1.7-1.6 1.8-4.6 6.2-5.2 13 0.1 0 27.2 0 27.2 0zm-6.8-13.6c0 3.9 6.3 9.9 10.4 13.1 5.3-4.1 10.4-9.6 10.4-13.1 0-2.1-1.3-2.9-2.4-3.2-1.8-0.4-4.2 0.2-5.4 2.4-0.5 0.9-1.5 1.5-2.6 1.5-1.1 0-2-0.5-2.6-1.5-0.9-1.6-2.5-2.6-4.3-2.6q-0.6 0-1.2 0.2c-1 0.3-2.3 1.1-2.3 3.2zm13.2 13.6q0 0 0 0 0 0 0 0zm0 0c0 0 26.2 0 26.2 0-0.2-2.9-1.1-8.9-4.7-13.1-2.9 1.8-7.5 3.3-12.3 2.2-1.6 4.1-6.3 8.5-9.2 10.9z"/>
			</g>
			<g>
				<path id="Relaci贸n" class="s1" aria-label="Relaci贸n"  d="m54.1 100.1c0 0.9-0.5 1.6-1.7 1.6h-1.7v-3.2h1.7c1.2 0 1.7 0.6 1.7 1.6zm-4.4-2.5v8.4h1v-3.4h1.4l2 3.4h1.3l-2.1-3.5c1.4-0.3 2-1.3 2-2.4 0-1.4-1-2.5-2.9-2.5zm10 2.6c1.2 0 2.1 0.7 2.1 2h-4.1c0.1-1.3 1-2 2-2zm3.1 3.8h-1.2c-0.2 0.7-0.8 1.2-1.8 1.2-1.1 0-2.1-0.7-2.1-2.1h5.2c0-0.2 0-0.4 0-0.6 0-1.8-1.2-3.2-3.1-3.2-1.9 0-3.3 1.3-3.3 3.4 0 2.1 1.4 3.4 3.3 3.4 1.6 0 2.7-0.9 3-2.1zm1.6 2h1.1v-8.9h-1.1zm2.5-3.3c0 2 1.4 3.4 3.1 3.4 1.3 0 2.1-0.6 2.5-1.3v1.2h1.1v-6.6h-1.1v1.2c-0.4-0.6-1.2-1.3-2.4-1.3-1.8 0-3.2 1.4-3.2 3.4zm5.6 0c0 1.6-1 2.5-2.2 2.5-1.2 0-2.3-0.9-2.3-2.5 0-1.5 1.1-2.4 2.3-2.4 1.2 0 2.2 0.9 2.2 2.4zm2.5 0c0 2.1 1.4 3.4 3.3 3.4 1.6 0 2.7-0.9 3-2.2h-1.2c-0.2 0.8-0.9 1.3-1.8 1.3-1.3 0-2.1-0.8-2.1-2.5 0-1.6 0.8-2.4 2.1-2.4 0.9 0 1.6 0.5 1.8 1.3h1.2c-0.3-1.4-1.4-2.3-3-2.3-1.9 0-3.3 1.4-3.3 3.4zm7.7 3.3h1.1v-6.6h-1.1zm0.6-7.6c0.4 0 0.7-0.3 0.7-0.7 0-0.5-0.3-0.8-0.7-0.8-0.4 0-0.7 0.3-0.7 0.8 0 0.4 0.3 0.7 0.7 0.7zm8.6 4.3c0-2-1.4-3.3-3.3-3.3-1.9 0-3.3 1.3-3.3 3.3 0 2.1 1.4 3.5 3.3 3.5 1.8 0 3.3-1.4 3.3-3.5zm-5.5 0c0-1.6 1-2.4 2.2-2.4 1.1 0 2.2 0.8 2.2 2.4 0 1.7-1.1 2.5-2.2 2.5-1.2 0-2.2-0.8-2.2-2.5zm0.8-4.6v0.8l2.6-1.4v-0.9zm10.9 7.9h1.1v-3.8c0-1.9-1.1-2.9-2.7-2.9-0.9 0-1.6 0.4-2.1 1.1v-0.9h-1.1v6.5h1.1v-3.6c0-1.4 0.8-2.1 1.9-2.1 1.1 0 1.8 0.7 1.8 2z"/>
				<path id="er贸tico - afectivo" class="s1" aria-label="er贸tico - afectivo"  d="m25.6 114.2c1.2 0 2.1 0.7 2.1 2h-4.1c0.1-1.3 1-2 2-2zm3.1 3.8h-1.2c-0.2 0.7-0.8 1.2-1.8 1.2-1.1 0-2.1-0.7-2.1-2.1h5.2c0-0.2 0.1-0.4 0.1-0.6 0-1.8-1.3-3.2-3.2-3.2-1.9 0-3.3 1.3-3.3 3.4 0 2.1 1.4 3.4 3.3 3.4 1.6 0 2.7-0.9 3-2.1zm2.7-1.6c0-1.5 0.8-2 1.8-2h0.3v-1.1c-1 0-1.7 0.5-2.1 1.2v-1.1h-1.1v6.6h1.1zm9.6 0.3c0-2.1-1.4-3.4-3.3-3.4-1.9 0-3.3 1.3-3.3 3.4 0 2.1 1.4 3.4 3.2 3.4 1.9 0 3.4-1.3 3.4-3.4zm-5.5 0c0-1.7 1-2.5 2.2-2.5 1.1 0 2.2 0.8 2.2 2.5 0 1.6-1.1 2.4-2.3 2.4-1.1 0-2.1-0.8-2.1-2.4zm0.8-4.7v0.8l2.6-1.3v-1zm6.3 6.2c0 1.3 0.7 1.8 1.9 1.8h1v-0.9h-0.9c-0.6 0-0.9-0.3-0.9-0.9v-3.9h1.8v-0.9h-1.8v-1.7h-1.1v1.7h-0.8v0.9h0.8zm4.2 1.8h1.1v-6.6h-1.1zm0.5-7.6c0.4 0 0.8-0.3 0.8-0.8 0-0.4-0.4-0.7-0.8-0.7-0.4 0-0.7 0.3-0.7 0.7 0 0.5 0.3 0.8 0.7 0.8zm2 4.3c0 2.1 1.3 3.4 3.2 3.4 1.7 0 2.7-0.9 3.1-2.2h-1.2c-0.3 0.8-0.9 1.3-1.9 1.3-1.2 0-2.1-0.8-2.1-2.5 0-1.6 0.9-2.4 2.1-2.4 1 0 1.7 0.5 1.9 1.3h1.2c-0.4-1.4-1.4-2.3-3.1-2.3-1.9 0-3.2 1.4-3.2 3.4zm13.9 0c0-2.1-1.4-3.4-3.3-3.4-1.8 0-3.3 1.3-3.3 3.4 0 2.1 1.4 3.4 3.3 3.4 1.8 0 3.3-1.3 3.3-3.4zm-5.5 0c0-1.6 1.1-2.4 2.2-2.4 1.1 0 2.2 0.8 2.2 2.4 0 1.7-1.1 2.5-2.2 2.5-1.2 0-2.2-0.8-2.2-2.5zm10-0.6h4.8v-0.9h-4.8zm9.6 0.6c0 2 1.4 3.4 3.1 3.4 1.2 0 2.1-0.6 2.5-1.3v1.2h1.1v-6.6h-1.1v1.2c-0.4-0.7-1.3-1.3-2.5-1.3-1.7 0-3.1 1.3-3.1 3.4zm5.6 0c0 1.5-1.1 2.4-2.3 2.4-1.2 0-2.2-0.9-2.2-2.4 0-1.6 1-2.4 2.2-2.4 1.2 0 2.3 0.9 2.3 2.4zm3.1 3.3h1.1v-5.7h1.4v-0.9h-1.4v-0.4c0-0.9 0.3-1.3 1.3-1.3v-0.9c-1.7 0-2.4 0.7-2.4 2.2v0.4h-0.8v0.9h0.8zm6.6-5.7c1.1 0 2.1 0.7 2 2h-4.1c0.1-1.3 1-2 2.1-2zm3 3.7h-1.1c-0.3 0.7-0.9 1.2-1.9 1.2-1.1 0-2-0.7-2.1-2.1h5.2c0.1-0.2 0.1-0.4 0.1-0.6 0-1.8-1.3-3.2-3.2-3.2-1.9 0-3.2 1.3-3.2 3.4 0 2.1 1.3 3.4 3.2 3.4 1.6 0 2.7-0.9 3-2.1zm1.2-1.3c0 2.1 1.3 3.4 3.2 3.4 1.6 0 2.7-0.9 3-2.2h-1.1c-0.3 0.8-0.9 1.3-1.9 1.3-1.2 0-2.1-0.8-2.1-2.5 0-1.6 0.9-2.4 2.1-2.4 1 0 1.6 0.5 1.9 1.3h1.1c-0.3-1.4-1.4-2.3-3-2.3-1.9 0-3.2 1.4-3.2 3.4zm7.9 1.5c0 1.3 0.7 1.8 1.9 1.8h0.9v-0.9h-0.8c-0.6 0-0.9-0.2-0.9-0.9v-3.9h1.7v-0.9h-1.7v-1.6h-1.1v1.6h-0.8v0.9h0.8zm4.2 1.8h1.1v-6.5h-1.1zm0.5-7.7c0.4 0 0.7-0.3 0.7-0.7 0-0.4-0.3-0.8-0.7-0.8-0.4 0-0.7 0.4-0.7 0.8 0 0.4 0.3 0.7 0.7 0.7zm1.6 1.1l2.6 6.6h1.3l2.6-6.6h-1.2l-2 5.6-2.1-5.6zm13.8 3.3c0-2.1-1.5-3.4-3.4-3.4-1.8 0-3.3 1.3-3.3 3.4 0 2.1 1.4 3.4 3.3 3.4 1.9 0 3.4-1.3 3.4-3.4zm-5.6 0c0-1.7 1.1-2.5 2.2-2.5 1.2 0 2.2 0.8 2.2 2.5 0 1.6-1.1 2.4-2.2 2.4-1.2 0-2.2-0.8-2.2-2.4z"/>
			</g>
		</g>
	</g>
</svg>