<?xml version="1.0" encoding="UTF-8"?><svg id="Capa_2" xmlns="http://www.w3.org/2000/svg" viewBox="0 0 107.38 120.25"><defs><style>.cls-1{font-family:Poppins-Regular, Poppins;font-size:15.3px;}.cls-1,.cls-2{fill:#fff;}.cls-2{stroke-width:0px;}</style></defs><g id="Capa_1-2"><text class="cls-1" transform="translate(9.13 93.15)"><tspan x="0" y="0">Desempeño</tspan><tspan x="2.27" y="18.36">académico</tspan></text><path class="cls-2" d="M12.62,62.63l10.35-21.14,20.62.06,10.32,21.08c1.46,2.98,4.23,4.79,6.88,4.79.83,0,1.65-.18,2.41-.55,1.62-.79,2.77-2.37,3.17-4.33.36-1.81.07-3.8-.81-5.62L40.03,4.79c-.91-1.86-2.34-3.32-4.03-4.13l-.21-.11c-.72-.35-1.52-.54-2.28-.55-.08,0-.16,0-.26,0h-.15c-.85.01-1.64.2-2.36.55-.07.03-.13.07-.19.11-1.71.81-3.14,2.27-4.05,4.14L.97,56.93c-.89,1.81-1.18,3.81-.81,5.62.39,1.96,1.55,3.54,3.17,4.33,3.21,1.58,7.38-.33,9.3-4.24ZM3.8,61.81c-.2-.99-.02-2.18.51-3.25L29.83,6.43c.55-1.13,1.42-2.02,2.39-2.45l.11-.06s.09-.05.13-.07c.2-.09.44-.13.71-.13h.21c.25,0,.48.05.67.12l.26.14c.97.43,1.84,1.32,2.39,2.45l25.52,52.13c.52,1.07.71,2.25.51,3.25-.1.48-.37,1.34-1.16,1.73-1.35.66-3.33-.5-4.33-2.54l-11.34-23.16-25.25-.07-11.37,23.22c-1,2.03-2.98,3.19-4.33,2.54-.78-.38-1.06-1.24-1.15-1.73Z"/><path class="cls-2" d="M33.26,12.02l-10.05,20.52,20.12.05-10.07-20.57ZM33.26,20.47l4.11,8.39-8.2-.02,4.1-8.37Z"/><path class="cls-2" d="M101.06,25.33h-.02c-3.49,0-6.24,2.19-6.33,5.01-2.49-1.12-5.18-1.7-7.95-1.7-10.7,0-19.4,8.7-19.4,19.4s8.7,19.4,19.4,19.4c3.17,0,6.25-.76,9.01-2.22,1.15,1.35,3.05,2.21,5.18,2.22h.03c1.58,0,3.09-.47,4.25-1.32,1.32-.97,2.07-2.36,2.08-3.83l.09-31.78c0-1.2-.5-2.36-1.41-3.28-1.2-1.21-2.99-1.9-4.92-1.9ZM103.58,62.28c0,.39-.39.72-.56.84-.52.38-1.23.6-2.06.6-1.41,0-2.5-.73-2.59-1.37-.09-.63-.5-1.18-1.08-1.44-.24-.11-.5-.16-.76-.16-.36,0-.72.1-1.04.32-2.59,1.74-5.61,2.66-8.73,2.66-8.65,0-15.68-7.03-15.68-15.68s7.03-15.68,15.68-15.68c3.14,0,6.17.93,8.76,2.67.57.39,1.3.43,1.91.1.61-.32.99-.95.99-1.64v-3.01c0-.59,1.03-1.44,2.62-1.44h.01c.92,0,1.8.31,2.29.8.15.15.33.38.33.65l-.09,31.78Z"/><path class="cls-2" d="M86.76,36.42c-6.4,0-11.62,5.21-11.62,11.62s5.21,11.61,11.62,11.61,11.62-5.21,11.62-11.61-5.21-11.62-11.62-11.62ZM86.76,55.93c-4.35,0-7.9-3.54-7.9-7.9s3.54-7.9,7.9-7.9,7.9,3.54,7.9,7.9-3.54,7.9-7.9,7.9Z"/></g></svg>