<svg version="1.2" xmlns="http://www.w3.org/2000/svg" viewBox="0 0 187 187" width="187" height="187">
	<title>desempeno_academico-svg</title>
	<style>
		.s0 { fill: #d8a568 } 
		.s1 { fill: #ffffff } 
	</style>
	<g id="Segunda_pantalla">
		<g>
			<path class="s0" d="m25.3 8.4h122.9c9.2 0 16.6 7.4 16.6 16.6v122.9c0 9.1-7.4 16.6-16.6 16.6h-122.9c-9.1 0-16.6-7.5-16.6-16.6v-122.9c0-9.2 7.5-16.6 16.6-16.6z"/>
			<g id="Capa_1-2">
				<g>
					<path id="Desempeño" class="s1" aria-label="Desempeño"  d="m46.1 113.5h-3.3v10.5h3.3c3.4 0 5.5-2 5.5-5.2 0-3.2-2.1-5.3-5.5-5.3zm-1.9 9.4v-8.2h1.9c2.7 0 4.1 1.5 4.1 4.1 0 2.5-1.4 4.1-4.1 4.1zm12.7-6.1c1.4 0 2.6 0.9 2.6 2.5h-5.2c0.2-1.6 1.3-2.5 2.6-2.5zm3.9 4.7h-1.5c-0.3 0.8-1.1 1.5-2.3 1.5-1.4 0-2.6-0.9-2.7-2.6h6.6c0-0.3 0-0.5 0-0.8 0-2.3-1.5-4-3.9-4-2.4 0-4.1 1.7-4.1 4.3 0 2.6 1.7 4.2 4.1 4.2 2 0 3.3-1.1 3.8-2.6zm7.8 0.3c0-3-4.8-1.9-4.8-3.9 0-0.6 0.6-1.1 1.6-1.1 1.1 0 1.7 0.6 1.8 1.4h1.4c-0.1-1.6-1.3-2.6-3.1-2.6-1.9 0-3.1 1.1-3.1 2.3 0 3.1 4.9 2 4.9 3.9 0 0.6-0.6 1.2-1.7 1.2-1.1 0-1.8-0.6-1.9-1.4h-1.4c0.1 1.5 1.4 2.5 3.3 2.5 1.9 0 3-1 3-2.3zm5.5-5c1.4 0 2.6 0.9 2.5 2.5h-5.1c0.1-1.6 1.2-2.5 2.6-2.5zm3.8 4.7h-1.5c-0.3 0.8-1.1 1.5-2.3 1.5-1.4 0-2.5-0.9-2.7-2.6h6.6c0-0.3 0.1-0.5 0.1-0.8 0-2.3-1.6-4-4-4-2.4 0-4 1.7-4 4.3 0 2.6 1.7 4.2 4 4.2 2.1 0 3.4-1.1 3.8-2.6zm13.8 2.5h1.4v-4.8c0-2.4-1.5-3.6-3.4-3.6-1.2 0-2.4 0.7-2.9 1.9-0.5-1.3-1.6-1.9-3-1.9-1.1 0-2 0.5-2.6 1.4v-1.2h-1.3v8.2h1.3v-4.5c0-1.8 1-2.7 2.4-2.7 1.3 0 2.2 0.9 2.2 2.5v4.7h1.3v-4.5c0-1.8 1-2.7 2.4-2.7 1.3 0 2.2 0.9 2.2 2.5zm5-6.7v-1.5h-1.4v12.2h1.4v-5.5c0.5 0.9 1.5 1.7 3 1.7 2.3 0 3.9-1.7 3.9-4.3 0-2.6-1.6-4.2-3.9-4.2-1.5 0-2.5 0.8-3 1.6zm5.6 2.6c0 1.9-1.3 3.1-2.8 3.1-1.5 0-2.8-1.1-2.8-3.1 0-1.9 1.3-3 2.8-3 1.5 0 2.8 1.1 2.8 3zm6.6-3.1c1.5 0 2.7 0.9 2.6 2.5h-5.1c0.1-1.6 1.2-2.5 2.5-2.5zm3.9 4.7h-1.5c-0.3 0.9-1.1 1.5-2.3 1.5-1.4 0-2.6-0.9-2.7-2.5h6.6c0-0.3 0.1-0.6 0.1-0.9 0-2.2-1.6-3.9-4-3.9-2.4 0-4.1 1.6-4.1 4.2 0 2.6 1.8 4.3 4.1 4.3 2 0 3.4-1.2 3.8-2.7zm3.3-2c0-1.8 1-2.6 2.4-2.6 1.3 0 2.3 0.8 2.3 2.5v4.6h1.3v-4.8c0-2.4-1.4-3.5-3.3-3.5-1.2 0-2.1 0.4-2.7 1.3v-1.2h-1.4v8.2h1.4zm0.1-4.5h0.8c0.1-0.5 0.3-0.7 0.7-0.7 0.6 0 0.9 0.7 1.7 0.7 0.7 0 1.3-0.5 1.5-1.5h-0.8c-0.1 0.4-0.3 0.6-0.7 0.6-0.6 0-0.9-0.7-1.7-0.7-0.8 0-1.3 0.6-1.5 1.6zm15.9 5c0-2.6-1.8-4.3-4.1-4.3-2.3 0-4.2 1.7-4.2 4.3 0 2.6 1.8 4.2 4.1 4.2 2.4 0 4.2-1.6 4.2-4.2zm-6.9 0c0-2.1 1.3-3.1 2.8-3.1 1.4 0 2.8 1 2.8 3.1 0 2.1-1.4 3-2.9 3-1.4 0-2.7-0.9-2.7-3z"/>
					<path id="académico" class="s1" aria-label="académico"  d="m44.6 137.9c0 2.5 1.7 4.2 3.9 4.2 1.5 0 2.6-0.7 3.1-1.6v1.5h1.4v-8.2h-1.4v1.5c-0.5-0.9-1.6-1.7-3.1-1.7-2.2 0-3.9 1.7-3.9 4.3zm7 0c0 1.9-1.3 3-2.8 3-1.5 0-2.8-1.1-2.8-3 0-2 1.3-3.1 2.8-3.1 1.5 0 2.8 1.2 2.8 3.1zm3.2 0c0 2.6 1.6 4.2 4 4.2 2 0 3.3-1.1 3.8-2.7h-1.5c-0.3 1-1.1 1.6-2.3 1.6-1.5 0-2.7-1.1-2.7-3.1 0-2 1.2-3.1 2.7-3.1 1.2 0 2 0.6 2.3 1.6h1.5c-0.5-1.7-1.8-2.8-3.8-2.8-2.4 0-4 1.7-4 4.3zm9.1 0c0 2.5 1.7 4.2 3.8 4.2 1.6 0 2.6-0.7 3.1-1.6v1.5h1.4v-8.2h-1.4v1.5c-0.5-0.9-1.5-1.7-3-1.7-2.2 0-3.9 1.7-3.9 4.3zm6.9 0c0 1.9-1.3 3-2.8 3-1.5 0-2.7-1.1-2.7-3 0-2 1.2-3.1 2.7-3.1 1.5 0 2.8 1.2 2.8 3.1zm3.2 0c0 2.5 1.7 4.2 3.9 4.2 1.5 0 2.6-0.7 3.1-1.6v1.5h1.3v-11.1h-1.3v4.3c-0.6-0.9-1.8-1.6-3.1-1.6-2.2 0-3.9 1.7-3.9 4.3zm7 0c0 1.9-1.3 3-2.8 3-1.5 0-2.8-1.1-2.8-3 0-2 1.3-3.1 2.8-3.1 1.5 0 2.8 1.2 2.8 3.1zm7.1-3.1c1.5 0 2.7 0.9 2.6 2.5h-5.2c0.2-1.6 1.3-2.5 2.6-2.5zm3.9 4.7h-1.5c-0.3 0.8-1.1 1.5-2.3 1.5-1.4 0-2.6-0.9-2.7-2.6h6.6c0-0.3 0.1-0.5 0.1-0.8 0-2.3-1.6-4-4-4-2.4 0-4.1 1.7-4.1 4.3 0 2.6 1.8 4.2 4.1 4.2 2 0 3.4-1.1 3.8-2.6zm-5.6-7.4v1.1l3.2-1.7v-1.2zm19.4 9.8h1.4v-4.8c0-2.4-1.5-3.5-3.4-3.5-1.2 0-2.4 0.6-2.9 1.8-0.5-1.2-1.6-1.8-3-1.8-1.1 0-2.1 0.4-2.6 1.3v-1.2h-1.4v8.2h1.4v-4.5c0-1.8 1-2.7 2.3-2.7 1.4 0 2.3 0.9 2.3 2.6v4.6h1.3v-4.5c0-1.8 1-2.7 2.4-2.7 1.3 0 2.2 0.9 2.2 2.6zm3.6 0h1.4v-8.2h-1.4zm0.7-9.6c0.5 0 0.9-0.4 0.9-0.9 0-0.6-0.4-1-0.9-1-0.5 0-0.9 0.4-0.9 1 0 0.5 0.4 0.9 0.9 0.9zm2.5 5.4c0 2.6 1.6 4.3 4 4.3 2 0 3.4-1.2 3.8-2.8h-1.5c-0.3 1-1.1 1.6-2.3 1.6-1.5 0-2.6-1-2.6-3.1 0-2 1.1-3 2.6-3 1.2 0 2 0.6 2.3 1.6h1.5c-0.4-1.8-1.8-2.8-3.8-2.8-2.4 0-4 1.6-4 4.2zm17.4 0c0-2.6-1.8-4.2-4.2-4.2-2.3 0-4.1 1.6-4.1 4.2 0 2.6 1.8 4.3 4.1 4.3 2.3 0 4.2-1.7 4.2-4.3zm-6.9 0c0-2 1.3-3 2.7-3 1.4 0 2.8 1 2.8 3 0 2.1-1.4 3.1-2.8 3.1-1.5 0-2.7-1-2.7-3.1z"/>
				</g>
				<path fill-rule="evenodd" class="s1" d="m45.2 89c-1.9 3.9-6.1 5.9-9.4 4.3-1.6-0.8-2.8-2.4-3.2-4.4-0.4-1.9-0.1-3.9 0.8-5.7l25.9-52.7c0.9-1.9 2.3-3.4 4.1-4.2q0-0.1 0.1-0.1 1.1-0.6 2.4-0.6h0.4c0.8 0 1.6 0.2 2.4 0.6l0.2 0.1c1.7 0.8 3.1 2.3 4 4.2l25.9 52.7c0.9 1.8 1.1 3.8 0.8 5.7-0.4 1.9-1.6 3.5-3.2 4.3q-1.2 0.6-2.5 0.6c-2.6 0-5.4-1.8-6.9-4.8l-10.5-21.4h-20.8l-10.5 21.4zm-8.9-0.9c0.1 0.5 0.4 1.4 1.1 1.8 1.4 0.6 3.4-0.6 4.4-2.6l11.5-23.5 25.6 0.1 11.4 23.4c1 2.1 3 3.2 4.4 2.6 0.8-0.4 1.1-1.3 1.2-1.8 0.2-1 0-2.2-0.5-3.3l-25.8-52.7c-0.6-1.1-1.5-2-2.5-2.5l-0.2-0.1q-0.3-0.1-0.7-0.1h-0.2q-0.4 0-0.7 0.1c-0.1 0-0.2 0.1-0.2 0.1h-0.1c-1 0.5-1.8 1.4-2.4 2.5l-25.8 52.7c-0.5 1.1-0.7 2.3-0.5 3.3z"/>
				<path fill-rule="evenodd" class="s1" d="m66.1 37.8q0 0 0 0zm0 0c0 0 10.2 20.8 10.2 20.8l-20.4-0.1zm0 8.6q0 0 0 0zm0 0l-4.1 8.4 8.3 0.1z"/>
				<path fill-rule="evenodd" class="s1" d="m134.7 51.2c1.9 0 3.7 0.7 5 1.9 0.9 1 1.4 2.2 1.4 3.4l-0.1 32.1c0 1.5-0.8 2.9-2.1 3.9-1.2 0.8-2.7 1.3-4.3 1.3-2.2 0-4.1-0.9-5.3-2.2-2.8 1.5-5.9 2.2-9.1 2.2-10.8 0-19.6-8.8-19.6-19.6 0-10.8 8.8-19.6 19.6-19.6 2.8 0 5.5 0.6 8 1.7 0.1-2.9 2.9-5.1 6.4-5.1zm2.7 5.2c0-0.2-0.2-0.5-0.3-0.6-0.5-0.5-1.4-0.8-2.4-0.8-1.6 0-2.6 0.8-2.6 1.4v3.1c0 0.7-0.4 1.3-1 1.6-0.6 0.4-1.4 0.3-2-0.1-2.6-1.7-5.6-2.7-8.8-2.7-8.8 0-15.9 7.1-15.9 15.9 0 8.7 7.1 15.9 15.9 15.9 3.1 0 6.2-1 8.8-2.7q0.5-0.4 1.1-0.4 0.4 0 0.7 0.2c0.6 0.3 1 0.8 1.1 1.5 0.1 0.6 1.2 1.4 2.6 1.4 0.9 0 1.6-0.3 2.1-0.7 0.2-0.1 0.6-0.4 0.6-0.8 0 0 0.1-32.2 0.1-32.2z"/>
				<path fill-rule="evenodd" class="s1" d="m131.9 74.2c0 6.5-5.2 11.7-11.7 11.7-6.5 0-11.8-5.2-11.8-11.7 0-6.5 5.3-11.8 11.8-11.8 6.5 0.1 11.7 5.3 11.7 11.8zm-3.7 0c0-4.4-3.6-8-8-8-4.4 0-8 3.6-8 8 0 4.4 3.6 8 8 8 4.4 0 8-3.6 8-8z"/>
			</g>
		</g>
	</g>
</svg>