<?xml version="1.0" encoding="UTF-8"?><svg id="Capa_2" xmlns="http://www.w3.org/2000/svg" viewBox="0 0 85.37 127.21"><defs><style>.cls-1{font-family:Poppins-Regular, Poppins;font-size:14.11px;}.cls-1,.cls-2{fill:#fff;}.cls-2{stroke-width:0px;}</style></defs><g id="Segunda_pantalla"><text class="cls-1" transform="translate(10.02 102.21)"><tspan x="0" y="0">Elección</tspan><tspan x="-10.02" y="16.93">vocacional</tspan></text><path class="cls-2" d="M75.09,37.41c.13-.16.23-.34.3-.55l9.47-28.41c.16-.37.29-.74.37-1.14,0-.03.02-.07.02-.1.4-1.99-.22-4.02-1.64-5.45-1.47-1.47-3.55-2.07-5.59-1.61-.07,0-.13.02-.19.04-.27.07-.52.16-.76.25l-27.62,9.1c-1.41.33-2.53.92-3.42,1.8l-20.07,20.07-16.37-2.6c-.12-.02-.23-.02-.35,0-1.75-.27-3.5.31-4.77,1.57-2.15,2.16-2.18,5.63-.09,7.83.04.05.08.1.12.14l7.26,7.25-1.99,1.99c-2.77,2.77-2.77,7.29,0,10.06l2.36,2.36-.24.48c-.35.67-.22,1.49.32,2.02l10.36,10.36c.53.53,1.35.66,2.02.32l.48-.24,2.45,2.45c1.35,1.34,3.13,2.08,5.03,2.08h0c1.9,0,3.68-.74,5.03-2.08l1.58-1.57,7.34,7.34c.06.06.13.12.2.16.06.07.12.14.18.21,1.06,1.06,2.46,1.64,3.95,1.64h0c1.5,0,2.9-.59,3.96-1.64,1.47-1.47,2-3.62,1.39-5.6,0-.07,0-.14-.01-.21l-2.59-16.34,20.24-20.24c.5-.5.91-1.08,1.26-1.75ZM6.32,36.91c-.04-.06-.08-.12-.13-.17-.04-.04-.09-.09-.15-.13-1.21-1.28-1.19-3.32.07-4.58.8-.8,1.93-1.12,3.03-.87.15.03.31.04.46.01l14.33,2.28-10.53,10.53-7.08-7.07ZM53.82,75.66c-.05.23-.03.46.06.69.5,1.23.22,2.63-.72,3.56-.62.62-1.44.96-2.32.96h0c-.88,0-1.7-.34-2.31-.96-.05-.05-.08-.1-.12-.15l-.13-.17c-.12-.15-.26-.26-.43-.34l-6.92-6.92,10.67-10.67,2.22,13.99ZM72.11,35.58c-.2.46-.44.83-.74,1.12l-36.26,36.26c-.69.69-1.6,1.07-2.57,1.07h0c-.36,0-.72-.05-1.06-.16-.34-.1-.66-.25-.96-.46-.2-.13-.38-.28-.56-.46l-3.35-3.35c-.33-.33-.78-.51-1.23-.51-.27,0-.54.06-.79.19l-.48.24-8.58-8.58.24-.47c.34-.67.22-1.49-.32-2.02l-3.25-3.26c-1.42-1.42-1.42-3.73,0-5.15L48.48,13.81c.43-.43,1-.71,1.8-.88.06-.01.12-.03.17-.05l27.76-9.15s.09-.03.13-.05c.1-.04.21-.08.31-.11.03,0,.06-.01.09-.02.88-.21,1.78.04,2.4.67.59.59.85,1.43.7,2.26,0,.02,0,.04-.01.06-.04.2-.1.38-.18.56-.03.06-.05.12-.07.17l-9.36,28.09c-.04.07-.08.14-.12.22Z"/><path class="cls-2" d="M39.46,42.07c-1.19-1.2-2.78-1.85-4.47-1.85h0c-1.69,0-3.28.66-4.47,1.85l-7.75,7.74c-2.47,2.46-2.46,6.48,0,8.94l3.66,3.66c1.19,1.19,2.78,1.85,4.47,1.85h0c1.69,0,3.27-.66,4.46-1.85l7.75-7.75c1.19-1.19,1.85-2.78,1.85-4.47,0-1.69-.66-3.28-1.85-4.47l-3.66-3.65ZM40.66,52.2l-7.75,7.75h0c-.54.54-1.25.83-2.01.83h0c-.76,0-1.47-.29-2.01-.83l-3.65-3.66c-1.11-1.11-1.11-2.91,0-4.02l7.75-7.74c.54-.54,1.25-.83,2.01-.83h0c.76,0,1.48.3,2.01.84l3.66,3.65c.54.54.83,1.25.83,2.01,0,.76-.3,1.47-.83,2.01Z"/><path class="cls-2" d="M58.55,22.52c-1.43-.76-3.03-1.17-4.7-1.17h0c-2.67,0-5.17,1.04-7.06,2.92-1.89,1.89-2.93,4.4-2.93,7.06,0,2.67,1.04,5.17,2.93,7.06,1.88,1.88,4.39,2.92,7.06,2.92h0c2.67,0,5.17-1.04,7.06-2.93,1.89-1.89,2.92-4.39,2.93-7.06,0-2.67-1.04-5.17-2.92-7.06-.71-.71-1.5-1.3-2.36-1.76ZM58.45,35.94c-1.23,1.23-2.87,1.91-4.6,1.91h0c-1.74,0-3.37-.68-4.6-1.9-1.23-1.23-1.91-2.87-1.91-4.6,0-1.74.68-3.37,1.91-4.6,1.23-1.23,2.86-1.91,4.6-1.91h0c1.74,0,3.37.68,4.6,1.91,1.23,1.23,1.91,2.86,1.91,4.6s-.68,3.37-1.91,4.6Z"/></g></svg>