<svg version="1.2" xmlns="http://www.w3.org/2000/svg" viewBox="0 0 187 187" width="187" height="187">
	<title>eleccion_vocacional-svg</title>
	<style>
		.s0 { fill: #d8a568 } 
		.s1 { fill: #ffffff } 
	</style>
	<g id="Segunda_pantalla">
		<g>
			<path class="s0" d="m24.7 8.2h122.9c9.1 0 16.5 7.4 16.5 16.6v122.9c0 9.1-7.4 16.6-16.5 16.6h-123c-9.1 0-16.6-7.5-16.6-16.6v-122.9c0-9.2 7.5-16.6 16.6-16.6z"/>
			<g id="Segunda_pantalla-2">
				<g>
					<path id="Elección" class="s1" aria-label="Elección"  d="m59.1 116.5h-5.6v10.5h5.6v-1.1h-4.3v-3.6h3.8v-1.1h-3.8v-3.5h4.3zm2.1 10.4h1.3v-11.1h-1.3zm7.2-7.2c1.4 0 2.6 0.9 2.6 2.5h-5.2c0.1-1.6 1.2-2.5 2.6-2.5zm3.8 4.7h-1.5c-0.3 0.9-1.1 1.5-2.3 1.5-1.4 0-2.6-0.9-2.7-2.6h6.6c0-0.3 0.1-0.5 0.1-0.8 0-2.2-1.6-3.9-4-3.9-2.4 0-4.1 1.6-4.1 4.2 0 2.6 1.8 4.3 4.1 4.3 2.1 0 3.4-1.2 3.8-2.7zm1.5-1.6c0 2.6 1.6 4.3 4 4.3 2 0 3.3-1.2 3.8-2.8h-1.5c-0.3 1-1.1 1.6-2.3 1.6-1.5 0-2.7-1.1-2.7-3.1 0-2 1.2-3.1 2.7-3.1 1.2 0 2 0.7 2.3 1.6h1.5c-0.5-1.7-1.8-2.7-3.8-2.7-2.4 0-4 1.6-4 4.2zm9.1 0c0 2.6 1.6 4.3 4 4.3 2 0 3.3-1.2 3.8-2.8h-1.5c-0.3 1-1.1 1.6-2.3 1.6-1.5 0-2.6-1.1-2.6-3.1 0-2 1.1-3.1 2.6-3.1 1.2 0 2 0.7 2.3 1.6h1.5c-0.5-1.7-1.8-2.7-3.8-2.7-2.4 0-4 1.6-4 4.2zm9.6 4.1h1.3v-8.2h-1.3zm0.7-9.6c0.5 0 0.9-0.4 0.9-0.9 0-0.5-0.4-0.9-0.9-0.9-0.6 0-1 0.4-1 0.9 0 0.5 0.4 0.9 1 0.9zm10.8 5.5c0-2.6-1.9-4.2-4.2-4.2-2.3 0-4.2 1.6-4.2 4.2 0 2.6 1.8 4.2 4.1 4.2 2.4 0 4.3-1.6 4.3-4.2zm-7 0c0-2.1 1.3-3.1 2.8-3.1 1.4 0 2.8 1 2.8 3.1 0 2.1-1.4 3-2.9 3-1.4 0-2.7-0.9-2.7-3zm1.1-5.9v1.1l3.2-1.7v-1.2zm13.7 9.9h1.3v-4.8c0-2.4-1.4-3.5-3.3-3.5-1.2 0-2.1 0.4-2.7 1.3v-1.2h-1.3v8.2h1.3v-4.5c0-1.8 1-2.7 2.4-2.7 1.4 0 2.3 0.9 2.3 2.6z"/>
					<path id="vocacional" class="s1" aria-label="vocacional"  d="m43.1 134.8l3.2 8.2h1.6l3.2-8.2h-1.5l-2.5 6.9-2.6-6.9zm17.2 4.1c0-2.6-1.8-4.3-4.1-4.3-2.4 0-4.2 1.7-4.2 4.3 0 2.6 1.8 4.2 4.1 4.2 2.3 0 4.2-1.6 4.2-4.2zm-6.9 0c0-2.1 1.3-3.1 2.7-3.1 1.5 0 2.8 1 2.8 3.1 0 2.1-1.4 3-2.8 3-1.4 0-2.7-0.9-2.7-3zm8.2 0c0 2.6 1.7 4.2 4 4.2 2.1 0 3.4-1.1 3.8-2.7h-1.5c-0.3 1-1.1 1.6-2.3 1.6-1.5 0-2.6-1.1-2.6-3.1 0-2 1.1-3.1 2.6-3.1 1.2 0 2.1 0.6 2.3 1.6h1.5c-0.4-1.7-1.7-2.8-3.8-2.8-2.3 0-4 1.7-4 4.3zm9.1 0c0 2.5 1.7 4.2 3.9 4.2 1.5 0 2.6-0.7 3.1-1.6v1.5h1.4v-8.2h-1.4v1.5c-0.5-0.9-1.6-1.7-3.1-1.7-2.2 0-3.9 1.7-3.9 4.3zm7 0c0 1.9-1.3 3-2.8 3-1.5 0-2.8-1.1-2.8-3 0-2 1.3-3.1 2.8-3.1 1.5 0 2.8 1.2 2.8 3.1zm3.2 0c0 2.6 1.6 4.2 4 4.2 2 0 3.3-1.1 3.8-2.7h-1.5c-0.3 1-1.1 1.6-2.3 1.6-1.5 0-2.6-1.1-2.6-3.1 0-2 1.1-3.1 2.6-3.1 1.2 0 2 0.6 2.3 1.6h1.5c-0.5-1.7-1.8-2.8-3.8-2.8-2.4 0-4 1.7-4 4.3zm9.6 4.1h1.3v-8.2h-1.3zm0.7-9.6c0.5 0 0.9-0.4 0.9-0.9 0-0.5-0.4-0.9-0.9-0.9-0.6 0-1 0.4-1 0.9 0 0.5 0.4 0.9 1 0.9zm10.8 5.5c0-2.6-1.9-4.3-4.2-4.3-2.3 0-4.2 1.7-4.2 4.3 0 2.6 1.8 4.2 4.1 4.2 2.4 0 4.3-1.6 4.3-4.2zm-7 0c0-2.1 1.4-3.1 2.8-3.1 1.4 0 2.8 1 2.8 3.1 0 2-1.4 3-2.9 3-1.4 0-2.7-1-2.7-3zm14.8 4.1h1.3v-4.9c0-2.3-1.4-3.5-3.3-3.5-1.1 0-2.1 0.5-2.7 1.3v-1.1h-1.3v8.2h1.3v-4.6c0-1.7 1-2.6 2.4-2.6 1.4 0 2.3 0.8 2.3 2.5zm3.1-4.1c0 2.5 1.6 4.3 3.8 4.3 1.6 0 2.6-0.8 3.1-1.7v1.5h1.4v-8.2h-1.4v1.5c-0.5-0.8-1.5-1.6-3-1.6-2.3 0-3.9 1.6-3.9 4.2zm6.9 0c0 1.9-1.3 3.1-2.8 3.1-1.5 0-2.8-1.2-2.8-3.1 0-1.9 1.3-3 2.8-3 1.5 0 2.8 1.1 2.8 3zm3.7 4.1h1.4v-11.1h-1.4z"/>
				</g>
				<path fill-rule="evenodd" class="s1" d="m115.4 63.2l-19 19 2.4 15.4q0 0.1 0 0.2c0.6 1.9 0.1 3.9-1.3 5.3-1 1-2.3 1.6-3.7 1.6-1.4 0-2.8-0.6-3.8-1.6q0-0.1-0.1-0.2-0.1 0-0.2-0.1l-6.9-6.9-1.5 1.4c-1.3 1.3-3 2-4.8 2-1.7 0-3.4-0.7-4.7-2l-2.3-2.3-0.5 0.3c-0.6 0.3-1.4 0.2-1.9-0.3l-9.7-9.8c-0.5-0.5-0.7-1.3-0.3-1.9l0.2-0.5-2.2-2.2c-2.6-2.6-2.6-6.9 0-9.5l1.9-1.8-6.9-6.9q0 0-0.1-0.1c-2-2.1-1.9-5.3 0.1-7.4 1.2-1.2 2.8-1.7 4.5-1.5q0.1 0 0.3 0l15.4 2.5 18.9-18.9c0.9-0.8 1.9-1.4 3.3-1.7l26-8.6q0.3-0.1 0.7-0.2 0.1-0.1 0.2-0.1c1.9-0.4 3.9 0.2 5.2 1.6 1.4 1.3 2 3.2 1.6 5.1q0 0 0 0.1-0.2 0.5-0.4 1l-8.9 26.8q-0.1 0.3-0.3 0.5-0.5 1-1.2 1.7zm-56.9 4.5l9.9-9.9-13.5-2.1q-0.2 0-0.4 0c-1-0.3-2.1 0-2.9 0.8-1.1 1.2-1.2 3.1 0 4.3q0.1 0 0.1 0.1 0.1 0.1 0.1 0.2zm38.1 29.8l-2.1-13.2-10 10.1 6.5 6.5q0.2 0.1 0.4 0.3l0.1 0.2q0.1 0 0.1 0.1c0.6 0.6 1.4 0.9 2.2 0.9 0.8 0 1.6-0.3 2.2-0.9 0.9-0.9 1.1-2.2 0.7-3.3q-0.2-0.4-0.1-0.7zm17.3-37.7q0-0.1 0.1-0.2l8.8-26.5q0-0.1 0.1-0.1 0.1-0.3 0.1-0.6 0 0 0 0c0.2-0.8-0.1-1.6-0.6-2.2-0.6-0.6-1.5-0.8-2.3-0.6q0 0-0.1 0-0.1 0.1-0.3 0.1c0 0-0.1 0.1-0.1 0.1l-26.1 8.6q-0.1 0-0.2 0c-0.8 0.2-1.3 0.5-1.7 0.9l-34.2 34.1c-1.3 1.3-1.3 3.5 0 4.8l3.1 3.1c0.5 0.5 0.6 1.3 0.3 1.9l-0.2 0.5 8 8 0.5-0.2q0.3-0.2 0.7-0.2c0.5 0 0.9 0.2 1.2 0.5l3.1 3.2q0.3 0.2 0.6 0.4 0.4 0.3 0.9 0.4 0.5 0.2 1 0.2c0.9 0 1.7-0.4 2.4-1l34.2-34.2q0.4-0.4 0.7-1.1z"/>
				<path fill-rule="evenodd" class="s1" d="m86.5 69.4c1.1 1.1 1.7 2.6 1.7 4.2 0 1.6-0.6 3.1-1.7 4.2l-7.3 7.3c-1.1 1.1-2.6 1.7-4.2 1.7-1.6 0-3.1-0.6-4.2-1.7l-3.5-3.5c-2.3-2.3-2.3-6.1 0-8.4l7.3-7.3c1.2-1.1 2.7-1.7 4.3-1.7 1.5 0 3 0.6 4.2 1.7 0 0 3.4 3.5 3.4 3.5zm-2.3 6.1c0.5-0.6 0.8-1.2 0.8-1.9 0-0.7-0.3-1.4-0.8-1.9l-3.4-3.5c-0.5-0.5-1.2-0.8-1.9-0.8-0.7 0-1.4 0.3-1.9 0.8l-7.3 7.3c-1.1 1.1-1.1 2.8 0 3.8l3.4 3.5c0.5 0.5 1.2 0.7 1.9 0.7 0.7 0 1.4-0.2 1.9-0.7l7.3-7.3z"/>
				<path fill-rule="evenodd" class="s1" d="m101.1 47.5q1.2 0.6 2.2 1.6c1.7 1.8 2.7 4.2 2.7 6.7 0 2.5-1 4.9-2.7 6.6-1.8 1.8-4.2 2.8-6.7 2.8-2.5 0-4.9-1-6.6-2.8-1.8-1.7-2.8-4.1-2.8-6.6 0-2.5 1-4.9 2.8-6.7 1.7-1.7 4.1-2.7 6.6-2.7 1.6 0 3.1 0.4 4.4 1.1zm1.7 8.3c0-1.6-0.6-3.2-1.8-4.3-1.1-1.2-2.7-1.8-4.3-1.8-1.6 0-3.2 0.6-4.3 1.8-1.2 1.1-1.8 2.7-1.8 4.3 0 1.6 0.6 3.2 1.8 4.3 1.1 1.2 2.7 1.8 4.3 1.8 1.6 0 3.2-0.6 4.3-1.8 1.2-1.1 1.8-2.6 1.8-4.3z"/>
			</g>
		</g>
	</g>
</svg>