<?xml version="1.0" encoding="UTF-8"?><svg id="Capa_2" xmlns="http://www.w3.org/2000/svg" viewBox="0 0 111.36 106.02"><defs><style>.cls-1{stroke-width:0px;}.cls-1,.cls-2{fill:#fff;}.cls-2{font-family:Poppins-SemiBold, Poppins;font-size:18.88px;font-weight:600;}</style></defs><g id="Capa_1-2"><path class="cls-1" d="M33.49,99.98h.31c1.99,4.15,12.31,6.04,21.12,6.04s19.14-1.89,21.12-6.04h.34v-28c.66-.74,1-1.53,1-2.36,0-1.86-1.69-3.39-4.39-4.58V25.84c0-1.66-1.35-3.01-3-3.01h-11.8c-1.66,0-3,1.35-3,3.01v36.31h-.09c-.97,0-1.94.02-2.91.06l-2.1-18.68c-.05-.44-.31-.83-.66-1.02l-4.68-10.32c-.24-.52-.66-.81-1.1-.76-.44.05-.79.43-.9.98l-2.28,11.08c-.08.06-.15.14-.22.25l-.02.04c-.16.24-.22.54-.18.87l2.11,18.83c-5.41,1.23-9.34,3.3-9.34,6.14,0,.66.22,1.3.65,1.92v27.33l.03,1.12ZM73,67.48c1.53.8,2.14,1.58,2.14,2.14s-.61,1.33-2.14,2.14v-4.28ZM56.92,25.84c0-.71.57-1.28,1.28-1.28h11.8c.7,0,1.28.57,1.28,1.28v8.83h-4.76c-.22,0-.41.08-.55.24-.12.14-.18.32-.18.51,0,.37.25.75.73.75h4.76v3.03h-4.76c-.22,0-.41.08-.55.24-.12.13-.18.31-.18.51,0,.37.25.75.73.75h4.76v3.03h-4.76c-.22,0-.41.08-.55.24-.12.13-.18.32-.18.51,0,.37.25.74.73.74h4.76v3.04h-8.19c-.22,0-.41.08-.55.24-.12.13-.18.32-.18.51,0,.37.25.75.73.75h8.19v3.03h-4.76c-.22,0-.41.08-.55.24-.12.14-.18.32-.18.51,0,.37.25.75.73.75h4.76v3.04h-4.76c-.22,0-.41.08-.55.24-.12.13-.18.32-.18.51,0,.37.25.74.73.74h4.76v3.04h-4.76c-.22,0-.41.08-.55.24-.12.14-.18.32-.18.51,0,.37.25.75.73.75h4.76v3.03h-8.19c-.22,0-.41.08-.55.24-.12.13-.18.32-.18.51,0,.37.25.74.73.74h8.19v3.04h-4.76c-.22,0-.41.08-.55.24-.12.13-.18.32-.18.51,0,.37.25.75.73.75h4.76v.18c-.41.12-.82.24-1.23.37-1.09.33-2.21.68-3.39.84h0c-.33.04-.64.13-.91.25-2.84.44-5.73.69-8.82.74V25.84ZM55.1,64.4s.06,0,.09,0v10.44s-.06,0-.09,0c-.5,0-1-.01-1.49-.02l-1.16-10.37c.88-.03,1.76-.06,2.66-.06ZM55.1,77.09c7.87,0,15.12-1.31,19.04-3.43v25.02c-.19,1.16-2.29,2.44-5.62,3.41-3.72,1.08-8.55,1.68-13.59,1.68s-9.87-.6-13.59-1.68c-3.33-.97-5.43-2.24-5.61-3.41v-25.22c3.78,2.21,11.34,3.63,19.38,3.63ZM43.58,38.9l1.78-.2,1.59,3.51-4.15.47.77-3.77ZM48.15,45l3.33,29.68c-1.2-.06-2.52-.16-4.11-.3-.23-.06-.46-.08-.68-.08-.05,0-.1,0-.15,0l-.47-.04c-.21-.02-.42-.04-.6-.05l-3.2-28.54,5.89-.66ZM40.36,66.24c.64-.2,1.33-.37,2.05-.54l.9,8.05c-1.05-.22-2.04-.47-2.95-.74-3.9-1.19-5.29-2.53-5.29-3.38s1.39-2.19,5.29-3.38Z"/><path class="cls-1" d="M64.09,32.14c1.37,0,2.48-1.11,2.48-2.48s-1.11-2.48-2.48-2.48-2.48,1.11-2.48,2.48c0,1.02.62,1.91,1.51,2.28.3.13.62.2.96.2ZM64.09,28.91c.41,0,.75.34.75.75s-.34.75-.75.75-.75-.34-.75-.75.34-.75.75-.75Z"/><text class="cls-2" transform="translate(0 16.06)"><tspan x="0" y="0">Académica</tspan></text></g></svg>