<?xml version="1.0" encoding="UTF-8"?><svg id="Capa_2" xmlns="http://www.w3.org/2000/svg" viewBox="0 0 74.04 125.94"><defs><style>.cls-1{font-family:Poppins-Regular, Poppins;font-size:14.11px;}.cls-1,.cls-2{fill:#fff;}.cls-2{stroke-width:0px;}</style></defs><g id="Segunda_pantalla"><text class="cls-1" transform="translate(0 100.94)"><tspan x="0" y="0">Manejo de</tspan><tspan x="11.79" y="16.93">tiempo</tspan></text><path class="cls-2" d="M34.37,75.36c18.69,0,33.89-15.2,33.89-33.89,0-17-12.58-31.11-28.92-33.52.39-.75.62-1.6.62-2.5,0-3-2.44-5.44-5.45-5.44s-5.45,2.44-5.45,5.44c0,.89.22,1.73.6,2.47C13.2,10.21.48,24.38.48,41.47c0,18.69,15.2,33.89,33.89,33.89ZM34.51,3.62c1.01,0,1.83.82,1.83,1.83s-.82,1.83-1.83,1.83-1.83-.82-1.83-1.83.82-1.83,1.83-1.83ZM34.37,11.2c16.69,0,30.27,13.58,30.27,30.27s-13.58,30.27-30.27,30.27S4.1,58.16,4.1,41.47s13.58-30.27,30.27-30.27Z"/><path class="cls-2" d="M34.37,66.57c13.84,0,25.1-11.26,25.1-25.1s-11.26-25.1-25.1-25.1-25.1,11.26-25.1,25.1,11.26,25.1,25.1,25.1ZM56.58,41.47c0,12.25-9.96,22.21-22.21,22.21s-22.21-9.96-22.21-22.21,9.96-22.21,22.21-22.21,22.21,9.96,22.21,22.21Z"/><path class="cls-2" d="M13.15,41.47c0,.4.32.72.72.72h5.35c.4,0,.72-.33.72-.72s-.32-.72-.72-.72h-5.35c-.4,0-.72.33-.72.72Z"/><path class="cls-2" d="M49.81,42.19h5.35c.4,0,.72-.33.72-.72s-.32-.72-.72-.72h-5.35c-.4,0-.72.33-.72.72s.32.72.72.72Z"/><path class="cls-2" d="M34.51,26.9c.4,0,.72-.32.72-.72v-5.35c0-.4-.33-.72-.72-.72s-.72.32-.72.72v5.35c0,.4.32.72.72.72Z"/><path class="cls-2" d="M34.51,56.04c-.4,0-.72.32-.72.72v5.35c0,.4.32.72.72.72s.72-.32.72-.72v-5.35c0-.4-.33-.72-.72-.72Z"/><path class="cls-2" d="M35.06,37.53l.23-.05-.72-8.94-1.07,9.09c-1.71.45-2.97,2-2.97,3.85,0,2.21,1.79,4,4,4s4-1.79,4-4c0-2.02-1.51-3.67-3.45-3.94Z"/></g></svg>