<svg version="1.2" xmlns="http://www.w3.org/2000/svg" viewBox="0 0 187 187" width="187" height="187">
	<title>manejo_tiempo-svg</title>
	<style>
		.s0 { fill: #d8a568 } 
		.s1 { fill: #ffffff } 
	</style>
	<g id="Segunda_pantalla">
		<g>
			<path class="s0" d="m24.6 8h122.9c9.2 0 16.6 7.4 16.6 16.6v122.9c0 9.2-7.4 16.6-16.6 16.6h-122.9c-9.1 0-16.6-7.4-16.6-16.6v-122.9c0-9.2 7.5-16.6 16.6-16.6z"/>
			<g id="Segunda_pantalla-2">
				<g>
					<path id="Manejo de" class="s1" aria-label="Manejo de"  d="m46.7 125h1.3v-7.8l3.5 7.8h1l3.4-7.7v7.7h1.4v-10.4h-1.5l-3.8 8.6-3.9-8.6h-1.4zm12.4-4.1c0 2.5 1.7 4.3 3.9 4.3 1.5 0 2.5-0.8 3-1.7v1.5h1.4v-8.2h-1.4v1.5c-0.4-0.9-1.5-1.6-3-1.6-2.2 0-3.9 1.6-3.9 4.2zm6.9 0c0 1.9-1.3 3.1-2.8 3.1-1.5 0-2.7-1.2-2.7-3.1 0-2 1.2-3 2.7-3 1.5 0 2.8 1.1 2.8 3zm9.7 4.1h1.4v-4.8c0-2.4-1.5-3.6-3.4-3.6-1.1 0-2.1 0.5-2.6 1.4v-1.2h-1.4v8.2h1.4v-4.5c0-1.8 1-2.7 2.3-2.7 1.4 0 2.3 0.9 2.3 2.6zm7.1-7.2c1.4 0 2.6 0.9 2.6 2.5h-5.2c0.2-1.6 1.3-2.5 2.6-2.5zm3.9 4.6h-1.5c-0.3 0.9-1.1 1.6-2.3 1.6-1.4 0-2.6-1-2.7-2.6h6.6c0-0.3 0-0.6 0-0.9 0-2.2-1.5-3.9-3.9-3.9-2.4 0-4.1 1.7-4.1 4.2 0 2.7 1.7 4.3 4.1 4.3 2 0 3.3-1.2 3.8-2.7zm2.7-7c0.5 0 0.9-0.4 0.9-0.9 0-0.5-0.4-0.9-0.9-0.9-0.5 0-0.9 0.4-0.9 0.9 0 0.5 0.4 0.9 0.9 0.9zm-0.7 1.4v9.9c0 0.7-0.3 1-1.1 1h-0.5v1.2h0.8c1.4 0 2.1-0.7 2.1-2.1v-10zm11.5 4c0-2.5-1.8-4.2-4.1-4.2-2.4 0-4.2 1.7-4.2 4.2 0 2.7 1.8 4.3 4.1 4.3 2.3 0 4.2-1.6 4.2-4.3zm-6.9 0c0-2 1.3-3 2.7-3 1.5 0 2.8 1 2.8 3 0 2.1-1.4 3.1-2.8 3.1-1.4 0-2.7-1-2.7-3.1zm12.2 0c0 2.6 1.7 4.3 3.9 4.3 1.5 0 2.6-0.8 3.1-1.7v1.6h1.3v-11.1h-1.3v4.3c-0.6-0.9-1.8-1.6-3.1-1.6-2.2 0-3.9 1.7-3.9 4.2zm7 0c0 2-1.3 3.1-2.8 3.1-1.5 0-2.8-1.1-2.8-3.1 0-1.9 1.3-3 2.8-3 1.5 0 2.8 1.1 2.8 3zm7.2-3c1.4 0 2.6 0.9 2.5 2.5h-5.1c0.1-1.6 1.2-2.5 2.6-2.5zm3.8 4.6h-1.5c-0.3 0.9-1.1 1.6-2.3 1.6-1.4 0-2.6-1-2.7-2.6h6.6c0-0.3 0.1-0.6 0.1-0.9 0-2.2-1.6-3.9-4-3.9-2.4 0-4.1 1.7-4.1 4.2 0 2.7 1.8 4.3 4.1 4.3 2.1 0 3.4-1.2 3.8-2.7z"/>
					<path id="tiempo" class="s1" aria-label="tiempo"  d="m58.2 140.8c0 1.6 0.8 2.2 2.3 2.2h1.2v-1.2h-1c-0.9 0-1.2-0.2-1.2-1.1v-4.8h2.2v-1.1h-2.2v-2.1h-1.3v2.1h-1.1v1.1h1.1zm5.1 2.3h1.4v-8.3h-1.4zm0.7-9.5c0.5 0 0.9-0.4 0.9-1 0-0.5-0.4-0.9-0.9-0.9-0.5 0-0.9 0.4-0.9 0.9 0 0.6 0.4 1 0.9 1zm6.5 2.3c1.4 0 2.6 0.9 2.6 2.5h-5.2c0.2-1.6 1.3-2.5 2.6-2.5zm3.9 4.7h-1.5c-0.3 0.9-1.1 1.5-2.3 1.5-1.4 0-2.6-0.9-2.7-2.6h6.6c0-0.2 0-0.5 0-0.8 0-2.2-1.5-3.9-3.9-3.9-2.4 0-4.1 1.6-4.1 4.2 0 2.6 1.7 4.3 4.1 4.3 2 0 3.3-1.2 3.8-2.7zm13.8 2.5h1.3v-4.8c0-2.4-1.4-3.5-3.3-3.5-1.2 0-2.4 0.6-2.9 1.8-0.5-1.2-1.7-1.8-3-1.8-1.1 0-2.1 0.4-2.6 1.3v-1.2h-1.4v8.2h1.4v-4.5c0-1.8 0.9-2.7 2.3-2.7 1.4 0 2.3 0.9 2.3 2.6v4.6h1.3v-4.5c0-1.8 1-2.7 2.3-2.7 1.4 0 2.3 0.9 2.3 2.6zm5-6.7v-1.5h-1.4v12.1h1.4v-5.4c0.5 0.8 1.5 1.6 3 1.6 2.2 0 3.9-1.7 3.9-4.3 0-2.5-1.7-4.2-3.9-4.2-1.5 0-2.6 0.8-3 1.7zm5.5 2.5c0 2-1.2 3.1-2.8 3.1-1.4 0-2.7-1.1-2.7-3 0-1.9 1.3-3.1 2.7-3.1 1.6 0 2.8 1.1 2.8 3zm11 0.1c0-2.6-1.8-4.3-4.1-4.3-2.4 0-4.2 1.7-4.2 4.3 0 2.6 1.8 4.2 4.1 4.2 2.3 0 4.2-1.6 4.2-4.2zm-6.9 0c0-2.1 1.3-3.1 2.8-3.1 1.4 0 2.7 1 2.7 3.1 0 2-1.4 3-2.8 3-1.4 0-2.7-1-2.7-3z"/>
				</g>
				<path fill-rule="evenodd" class="s1" d="m49.2 63.7c0-17.8 13.2-32.6 30.4-35-0.4-0.7-0.6-1.6-0.6-2.5 0-3.2 2.5-5.7 5.6-5.7 3.2 0 5.7 2.5 5.7 5.7 0 0.9-0.2 1.8-0.6 2.6 17 2.5 30.1 17.2 30.1 34.9 0 19.5-15.8 35.3-35.3 35.3-19.5 0-35.3-15.8-35.3-35.3zm35.3 35.3q0 0 0 0zm-1.8-72.8c0 1 0.9 1.9 1.9 1.9 1.1 0 1.9-0.9 1.9-1.9 0-1.1-0.8-1.9-1.9-1.9-1 0-1.9 0.8-1.9 1.9zm-29.8 37.5c0 17.4 14.2 31.6 31.6 31.6 17.4 0 31.5-14.2 31.5-31.6 0-17.4-14.1-31.5-31.5-31.5-17.4 0-31.6 14.1-31.6 31.5z"/>
				<path fill-rule="evenodd" class="s1" d="m58.3 63.7c0-14.4 11.8-26.1 26.2-26.1 14.4 0 26.1 11.7 26.1 26.1 0 14.4-11.7 26.2-26.1 26.2-14.4 0-26.2-11.8-26.2-26.2zm26.2-23.1c-12.8 0-23.2 10.3-23.2 23.1 0 12.8 10.4 23.2 23.2 23.2 12.8 0 23.1-10.4 23.1-23.2 0-12.8-10.4-23.1-23.1-23.1z"/>
				<path class="s1" d="m62.4 63.7c0 0.4 0.3 0.8 0.7 0.8h5.6c0.4 0 0.8-0.4 0.8-0.8 0-0.4-0.4-0.7-0.8-0.7h-5.6c-0.4 0-0.7 0.3-0.7 0.7z"/>
				<path class="s1" d="m100.6 64.5h5.6c0.4 0 0.7-0.4 0.7-0.8 0-0.4-0.3-0.7-0.7-0.7h-5.6c-0.4 0-0.8 0.3-0.8 0.7 0 0.4 0.4 0.8 0.8 0.8z"/>
				<path class="s1" d="m84.6 48.5c0.5 0 0.8-0.3 0.8-0.7v-5.6c0-0.4-0.4-0.7-0.8-0.7-0.4 0-0.7 0.3-0.7 0.7v5.6c0 0.4 0.3 0.7 0.7 0.7z"/>
				<path class="s1" d="m84.6 78.9c-0.4 0-0.7 0.3-0.7 0.8v5.5c0 0.4 0.3 0.8 0.7 0.8 0.5 0 0.8-0.4 0.8-0.8v-5.5c0-0.5-0.4-0.8-0.8-0.8z"/>
				<path class="s1" d="m85.2 59.6h0.2l-0.7-9.4-1.1 9.5c-1.8 0.5-3.1 2.1-3.1 4 0 2.3 1.8 4.2 4.1 4.2 2.3 0 4.2-1.9 4.2-4.2 0-2.1-1.6-3.8-3.6-4.1q0 0 0 0z"/>
			</g>
		</g>
	</g>
</svg>