<svg version="1.2" xmlns="http://www.w3.org/2000/svg" viewBox="0 0 188 187" width="187" height="187">
	<title>apoyo_economico_institucional-svg</title>
	<style>
		.s0 { fill: #d8a568 } 
		.s1 { fill: #ffffff } 
	</style>
	<g id="Segunda_pantalla">
		<g>
			<path class="s0" d="m25.5 8.4h122.9c9.2 0 16.6 7.4 16.6 16.6v122.9c0 9.1-7.4 16.6-16.6 16.6h-122.9c-9.1 0-16.6-7.5-16.6-16.6v-122.9c0-9.2 7.5-16.6 16.6-16.6z"/>
			<g id="Capa_1-2">
				<g>
					<path id="Apoyos " class="s1" aria-label="Apoyos "  d="m65 116h1.4l-3.5-9.7h-1.5l-3.5 9.7h1.3l0.8-2.2h4.3zm-1.2-3.2h-3.5l1.8-4.9zm5.3-3.1v-1.4h-1.3v11.3h1.3v-5c0.4 0.8 1.4 1.5 2.8 1.5 2.1 0 3.7-1.6 3.7-4 0-2.4-1.6-3.9-3.7-3.9-1.4 0-2.4 0.7-2.8 1.5zm5.2 2.4c0 1.8-1.2 2.9-2.6 2.9-1.4 0-2.6-1-2.6-2.8 0-1.8 1.2-2.9 2.6-2.9 1.4 0 2.6 1 2.6 2.8zm10.2 0.1c0-2.5-1.7-4-3.8-4-2.2 0-3.9 1.5-3.9 4 0 2.4 1.6 3.9 3.8 3.9 2.2 0 3.9-1.5 3.9-3.9zm-6.4 0c0-2 1.2-2.9 2.5-2.9 1.4 0 2.6 0.9 2.6 2.9 0 1.9-1.3 2.8-2.6 2.8-1.3 0-2.5-0.9-2.5-2.8zm11 2.3l-2.4-6.2h-1.4l3.1 7.6-1.5 3.7h1.3l4.6-11.3h-1.3zm12.3-2.4c0-2.4-1.7-3.9-3.9-3.9-2.2 0-3.9 1.5-3.9 3.9 0 2.5 1.6 4 3.8 4 2.2 0 4-1.5 4-4zm-6.5 0c0-1.9 1.2-2.8 2.6-2.8 1.3 0 2.5 0.9 2.5 2.8 0 2-1.3 2.9-2.6 2.9-1.3 0-2.5-0.9-2.5-2.9zm13.6 1.8c0-2.7-4.5-1.7-4.5-3.6 0-0.6 0.6-1 1.5-1 1.1 0 1.6 0.5 1.7 1.3h1.3c-0.1-1.5-1.2-2.4-2.9-2.4-1.7 0-2.8 1-2.8 2.1 0 2.9 4.5 1.9 4.5 3.6 0 0.6-0.6 1.1-1.6 1.1-1 0-1.7-0.5-1.8-1.3h-1.3c0.1 1.4 1.4 2.4 3.1 2.4 1.7 0 2.8-0.9 2.8-2.2z"/>
					<path id="económicos" class="s1" aria-label="económicos"  d="m47.6 124.3c1.3 0 2.4 0.8 2.4 2.3h-4.8c0.1-1.5 1.2-2.3 2.4-2.3zm3.6 4.3h-1.4c-0.3 0.9-1 1.4-2.1 1.4-1.3 0-2.4-0.8-2.5-2.4h6.1c0-0.2 0-0.4 0-0.7 0-2.1-1.4-3.7-3.6-3.7-2.3 0-3.8 1.5-3.8 4 0 2.4 1.6 3.9 3.8 3.9 1.9 0 3.1-1.1 3.5-2.5zm1.4-1.4c0 2.4 1.5 3.9 3.7 3.9 1.9 0 3.1-1 3.5-2.6h-1.3c-0.3 1-1.1 1.5-2.2 1.5-1.4 0-2.4-0.9-2.4-2.8 0-1.9 1-2.9 2.4-2.9 1.1 0 1.9 0.6 2.2 1.5h1.3c-0.4-1.6-1.6-2.6-3.5-2.6-2.2 0-3.7 1.5-3.7 4zm16.2 0c0-2.5-1.7-4-3.9-4-2.1 0-3.9 1.5-3.9 4 0 2.4 1.7 3.9 3.9 3.9 2.2 0 3.9-1.5 3.9-3.9zm-6.4 0c0-2 1.2-2.9 2.5-2.9 1.3 0 2.6 0.9 2.6 2.9 0 1.9-1.3 2.8-2.6 2.8-1.4 0-2.5-0.9-2.5-2.8zm13.7 3.8h1.3v-4.5c0-2.2-1.4-3.3-3.2-3.3-1 0-1.9 0.4-2.4 1.2v-1.1h-1.3v7.7h1.3v-4.2c0-1.7 0.9-2.5 2.2-2.5 1.2 0 2.1 0.8 2.1 2.4zm10.6-3.9c0-2.4-1.7-3.9-3.9-3.9-2.1 0-3.8 1.5-3.8 3.9 0 2.4 1.6 4 3.8 4 2.2 0 3.9-1.6 3.9-4zm-6.4 0c0-1.9 1.2-2.8 2.5-2.8 1.4 0 2.6 0.9 2.6 2.8 0 2-1.3 2.9-2.6 2.9-1.3 0-2.5-0.9-2.5-2.9zm0.9-5.4v0.9l3-1.6v-1.1zm18.3 9.3h1.2v-4.5c0-2.2-1.3-3.3-3.1-3.3-1.2 0-2.3 0.6-2.7 1.7-0.5-1.1-1.6-1.7-2.8-1.7-1 0-1.9 0.4-2.4 1.2v-1.1h-1.3v7.7h1.3v-4.2c0-1.7 0.8-2.5 2.1-2.5 1.3 0 2.1 0.8 2.1 2.4v4.3h1.3v-4.2c0-1.7 0.9-2.5 2.2-2.5 1.2 0 2.1 0.8 2.1 2.4zm3.3 0h1.3v-7.7h-1.3zm0.7-8.9c0.4 0 0.8-0.4 0.8-0.9 0-0.5-0.4-0.9-0.8-0.9-0.5 0-0.9 0.4-0.9 0.9 0 0.5 0.4 0.9 0.9 0.9zm2.3 5c0 2.5 1.5 4 3.7 4 1.9 0 3.2-1 3.6-2.6h-1.4c-0.3 1-1.1 1.5-2.2 1.5-1.4 0-2.4-0.9-2.4-2.9 0-1.8 1-2.8 2.4-2.8 1.1 0 1.9 0.6 2.2 1.5h1.4c-0.4-1.6-1.7-2.6-3.6-2.6-2.2 0-3.7 1.5-3.7 3.9zm16.2 0c0-2.4-1.7-3.9-3.8-3.9-2.2 0-3.9 1.5-3.9 3.9 0 2.5 1.6 4 3.8 4 2.2 0 3.9-1.5 3.9-4zm-6.4 0c0-1.9 1.2-2.8 2.5-2.8 1.4 0 2.6 0.9 2.6 2.8 0 2-1.3 2.9-2.6 2.9-1.3 0-2.5-0.9-2.5-2.9zm13.6 1.8c0-2.7-4.5-1.7-4.5-3.6 0-0.6 0.6-1 1.5-1 1 0 1.6 0.5 1.7 1.3h1.3c-0.1-1.5-1.2-2.4-2.9-2.4-1.7 0-2.9 1-2.9 2.1 0 2.9 4.6 1.9 4.6 3.6 0 0.6-0.6 1.1-1.6 1.1-1.1 0-1.7-0.5-1.8-1.3h-1.3c0.1 1.4 1.3 2.4 3.1 2.4 1.7 0 2.8-0.9 2.8-2.2z"/>
					<path id="institucionales" class="s1" aria-label="institucionales"  d="m37.8 147h1.3v-7.7h-1.3zm0.6-8.9c0.5 0 0.9-0.4 0.9-0.9 0-0.4-0.4-0.8-0.9-0.8-0.5 0-0.8 0.4-0.8 0.8 0 0.5 0.3 0.9 0.8 0.9zm8.4 8.9h1.3v-4.5c0-2.2-1.4-3.3-3.1-3.3-1.1 0-2 0.5-2.5 1.2v-1h-1.3v7.6h1.3v-4.2c0-1.7 0.9-2.5 2.2-2.5 1.3 0 2.1 0.8 2.1 2.4zm8.9-2.1c-0.1-2.7-4.5-1.7-4.5-3.6 0-0.6 0.6-1 1.5-1 1 0 1.6 0.5 1.7 1.3h1.2c-0.1-1.5-1.2-2.4-2.9-2.4-1.7 0-2.8 1-2.8 2.1 0 2.9 4.6 1.9 4.6 3.6 0 0.6-0.6 1.1-1.6 1.1-1.1 0-1.8-0.5-1.8-1.3h-1.3c0 1.4 1.3 2.4 3.1 2.4 1.7 0 2.8-0.9 2.8-2.2zm2.1 0c0 1.5 0.7 2.1 2.1 2.1h1.1v-1.1h-0.9c-0.8 0-1.1-0.3-1.1-1v-4.5h2v-1.1h-2v-1.9h-1.2v1.9h-1v1.1h1zm4.8 2.1h1.3v-7.7h-1.3zm0.6-8.9c0.5 0 0.9-0.4 0.9-0.9 0-0.5-0.4-0.9-0.9-0.9-0.4 0-0.8 0.4-0.8 0.9 0 0.5 0.4 0.9 0.8 0.9zm3.1 6.8c0 1.5 0.8 2.1 2.1 2.1h1.2v-1.1h-1c-0.7 0-1-0.3-1-1v-4.5h2v-1.1h-2v-1.9h-1.3v1.9h-1v1.1h1zm11.6-5.6h-1.2v4.2c0 1.7-0.9 2.5-2.2 2.5-1.3 0-2.2-0.8-2.2-2.4v-4.3h-1.2v4.5c0 2.2 1.3 3.3 3.1 3.3 1 0 2-0.5 2.5-1.3v1.2h1.2zm1.7 3.8c0 2.4 1.6 4 3.7 4 2 0 3.2-1.1 3.6-2.6h-1.4c-0.3 0.9-1 1.5-2.2 1.5-1.4 0-2.4-1-2.4-2.9 0-1.9 1-2.9 2.4-2.9 1.2 0 2 0.6 2.2 1.5h1.4c-0.4-1.6-1.6-2.6-3.6-2.6-2.1 0-3.7 1.6-3.7 4zm9 3.8h1.3v-7.6h-1.3zm0.6-8.9c0.5 0 0.9-0.4 0.9-0.9 0-0.5-0.4-0.9-0.9-0.9-0.4 0-0.8 0.4-0.8 0.9 0 0.5 0.4 0.9 0.8 0.9zm10.1 5c0-2.4-1.7-3.9-3.9-3.9-2.1 0-3.8 1.5-3.8 3.9 0 2.5 1.6 4 3.8 4 2.2 0 3.9-1.5 3.9-4zm-6.4 0c0-1.9 1.2-2.8 2.5-2.8 1.3 0 2.6 0.9 2.6 2.8 0 2-1.3 2.9-2.6 2.9-1.4 0-2.5-0.9-2.5-2.9zm13.7 3.9h1.3v-4.6c0-2.1-1.4-3.2-3.2-3.2-1 0-1.9 0.4-2.4 1.2v-1.1h-1.3v7.7h1.3v-4.3c0-1.6 0.9-2.4 2.2-2.4 1.2 0 2.1 0.8 2.1 2.3zm2.9-3.8c0 2.3 1.6 4 3.6 4 1.4 0 2.4-0.8 2.9-1.6v1.4h1.3v-7.6h-1.3v1.4c-0.5-0.8-1.5-1.6-2.9-1.6-2 0-3.6 1.6-3.6 4zm6.5 0c0 1.8-1.2 2.8-2.6 2.8-1.4 0-2.6-1-2.6-2.8 0-1.8 1.2-2.9 2.6-2.9 1.4 0 2.6 1.1 2.6 2.9zm3.4 3.8h1.3v-10.3h-1.3zm6.7-6.7c1.3 0 2.5 0.8 2.4 2.3h-4.8c0.1-1.5 1.2-2.3 2.4-2.3zm3.6 4.3h-1.4c-0.2 0.8-1 1.4-2.1 1.4-1.3 0-2.4-0.8-2.5-2.4h6.1c0-0.3 0.1-0.5 0.1-0.8 0-2.1-1.5-3.6-3.7-3.6-2.3 0-3.8 1.5-3.8 3.9 0 2.5 1.6 4 3.8 4 1.9 0 3.1-1.1 3.5-2.5zm7.4 0.3c-0.1-2.8-4.6-1.8-4.6-3.6 0-0.6 0.6-1 1.5-1 1.1 0 1.7 0.5 1.7 1.3h1.3c-0.1-1.5-1.2-2.4-2.9-2.4-1.7 0-2.8 0.9-2.8 2.1 0 2.9 4.5 1.9 4.5 3.6 0 0.6-0.6 1.1-1.6 1.1-1 0-1.7-0.5-1.8-1.3h-1.3c0.1 1.4 1.4 2.4 3.2 2.4 1.6 0 2.8-1 2.8-2.2z"/>
				</g>
				<path fill-rule="evenodd" class="s1" d="m54.7 83.4c0-13.1 8.2-30.4 20.4-35.3q0.2-0.1 0.5-0.1h22.9q0.3 0 0.5 0.1c12.6 5 20.4 21.7 20.4 34.2 0 5.3-1.3 9.1-3.9 11.6-4.6 4.6-12.8 4.4-22.3 4.2q-3 0-6.1 0c-2.7 0-5.4 0.1-7.9 0.1-2.2 0.1-4.4 0.2-6.5 0.2-6 0-11-0.6-14.3-3.8-2.5-2.4-3.7-6.1-3.7-11.2zm21.2-32.9c-9.1 3.8-18.7 17.8-18.7 32.9 0 4.4 1 7.5 3 9.4 3.6 3.5 10.7 3.2 18.9 2.9 2.6 0 5.2-0.1 8-0.1q3.2 0 6.2 0c8.9 0.2 16.6 0.4 20.5-3.4 2.1-2.1 3.1-5.3 3.1-9.9 0-13.3-8.3-27.5-18.6-31.8h-22.4z"/>
				<path fill-rule="evenodd" class="s1" d="m77.1 45.7c-0.4 0-0.7-0.1-0.9-0.4-3.7-3.8-5.8-11.8-5.8-17.3-0.1-0.7 0.5-1.2 1.2-1.2h30.6c0.7 0 1.3 0.5 1.3 1.2 0 5.5-2.2 13.4-5.8 17.3-0.3 0.3-0.6 0.4-0.9 0.4zm-4.2-16.4c0.3 4.6 2 10.7 4.7 13.9h18.6c2.7-3.2 4.4-9.3 4.7-13.9 0 0-28 0-28 0z"/>
				<path fill-rule="evenodd" class="s1" d="m77.9 83.4c-0.5-0.3-0.7-0.9-0.6-1.5l1.5-4.5c0.1-0.3 0.3-0.6 0.7-0.8 0.3-0.1 0.7-0.1 1 0.1 0.1 0 1.6 0.9 3.4 1.2 2.2 0.5 4.3 0 4.5-0.6 0.1-0.6 0.2-1-2.4-1.8-1.3-0.3-7.5-2.4-8.1-7.1-0.5-4.3 1.7-7.4 6.1-8.6v-2.9c0-0.7 0.6-1.2 1.3-1.2h3.8c0.7 0 1.3 0.5 1.3 1.2v2.2c1.4 0.2 3.6 0.6 4.8 1.4 0.5 0.3 0.7 0.8 0.6 1.3l-0.9 4.1c-0.1 0.3-0.3 0.7-0.6 0.8-0.4 0.2-0.7 0.2-1.1 0.1 0 0-3.5-1.1-5.7-1-0.3 0-0.9 0.1-1 0.5 0 0.3 0.1 0.8 0.6 1.1 1.3 0.9 3.2 1.6 4.5 2.1q1.1 0.4 1.7 0.8c0.7 0.3 4 2.3 3.5 7.3-0.3 3.9-3.3 6.5-6.4 7.2l0.1 2.9c0 0.3-0.2 0.7-0.4 0.9-0.2 0.2-0.6 0.4-0.9 0.4h-3.8c-0.7 0-1.3-0.6-1.3-1.3v-2.5c-1.6-0.2-4.3-0.6-6.2-1.8zm2.8-3.8q0 0 0 0zm0 0l-0.6 2.1c1.8 0.8 4.4 1.1 5.4 1.1 0.6 0 1.1 0.6 1.1 1.3v2.4h1.4v-2.7c0-0.7 0.5-1.2 1.1-1.3 2.3-0.2 5-2.1 5.3-5.2 0.3-3.3-1.8-4.6-2.2-4.8-0.3-0.2-0.9-0.4-1.5-0.7-1.4-0.5-3.4-1.3-4.9-2.3-1.3-0.8-2-2.4-1.7-3.8 0.4-1.3 1.6-2.3 3.2-2.4 1.8-0.1 4 0.4 5.4 0.8l0.4-1.9c-1.1-0.3-2.9-0.6-4-0.7-0.7 0-1.2-0.6-1.2-1.2v-2.1h-1.3v2.6c0 0.6-0.4 1.1-1 1.2-3.9 0.8-5.6 2.8-5.2 6.1 0.3 2.6 4.3 4.4 6.3 5 1.7 0.5 4.9 1.4 4.2 4.8-0.7 2.8-4.8 3-7.4 2.5-1.1-0.2-2-0.5-2.8-0.8z"/>
			</g>
		</g>
	</g>
</svg>