<svg version="1.2" xmlns="http://www.w3.org/2000/svg" viewBox="0 0 187 187" width="187" height="187">
	<title>apoyo_economico_familiar-svg</title>
	<style>
		.s0 { fill: #d8a568 } 
		.s1 { fill: #ffffff } 
	</style>
	<g id="Segunda_pantalla">
		<g>
			<path class="s0" d="m24.7 8.7h122.9c9.1 0 16.6 7.4 16.6 16.6v122.9c0 9.2-7.5 16.6-16.6 16.6h-122.9c-9.2 0-16.6-7.4-16.6-16.6v-122.9c0-9.2 7.4-16.6 16.6-16.6z"/>
			<g id="Segunda_pantalla-2">
				<g>
					<path id="Apoyo" class="s1" aria-label="Apoyo"  d="m73.8 110h1.4l-3.5-9.7h-1.5l-3.5 9.7h1.3l0.8-2.2h4.2zm-1.1-3.2h-3.5l1.7-4.9zm5.3-3.1v-1.4h-1.2v11.3h1.2v-5c0.5 0.8 1.5 1.5 2.9 1.5 2.1 0 3.7-1.6 3.7-4 0-2.4-1.6-3.9-3.7-3.9-1.4 0-2.4 0.7-2.9 1.5zm5.2 2.4c0 1.8-1.1 2.9-2.6 2.9-1.3 0-2.6-1-2.6-2.8 0-1.8 1.3-2.9 2.6-2.9 1.5 0 2.6 1 2.6 2.8zm10.3 0.1c0-2.5-1.7-4-3.9-4-2.1 0-3.8 1.5-3.8 4 0 2.4 1.6 3.9 3.8 3.9 2.2 0 3.9-1.5 3.9-3.9zm-6.4 0c0-2 1.2-2.9 2.5-2.9 1.3 0 2.6 0.9 2.6 2.9 0 1.9-1.3 2.8-2.6 2.8-1.4 0-2.5-0.9-2.5-2.8zm11 2.3l-2.4-6.2h-1.4l3.1 7.6-1.5 3.7h1.3l4.6-11.3h-1.3zm12.2-2.4c0-2.4-1.7-3.9-3.8-3.9-2.2 0-3.9 1.5-3.9 3.9 0 2.5 1.6 4 3.8 4 2.2 0 3.9-1.5 3.9-4zm-6.4 0c0-1.9 1.2-2.8 2.5-2.8 1.4 0 2.6 0.9 2.6 2.8 0 2-1.3 2.9-2.6 2.9-1.3 0-2.5-0.9-2.5-2.9z"/>
					<path id="económico" class="s1" aria-label="económico"  d="m52.5 121.3c1.3 0 2.5 0.8 2.4 2.3h-4.8c0.1-1.5 1.2-2.3 2.4-2.3zm3.6 4.3h-1.4c-0.2 0.9-1 1.4-2.1 1.4-1.3 0-2.4-0.8-2.5-2.4h6.1c0-0.2 0.1-0.4 0.1-0.7 0-2.1-1.5-3.7-3.7-3.7-2.3 0-3.8 1.5-3.8 4 0 2.4 1.6 3.9 3.8 3.9 1.9 0 3.1-1.1 3.5-2.5zm1.4-1.4c0 2.4 1.5 3.9 3.7 3.9 1.9 0 3.1-1 3.5-2.6h-1.3c-0.3 1-1.1 1.5-2.2 1.5-1.4 0-2.4-0.9-2.4-2.8 0-1.9 1-2.9 2.4-2.9 1.1 0 1.9 0.6 2.2 1.5h1.3c-0.4-1.6-1.6-2.6-3.5-2.6-2.2 0-3.7 1.5-3.7 4zm16.2 0c0-2.5-1.7-4-3.9-4-2.1 0-3.8 1.5-3.8 4 0 2.4 1.6 3.9 3.8 3.9 2.2 0 3.9-1.5 3.9-3.9zm-6.4 0c0-2 1.2-2.9 2.5-2.9 1.3 0 2.6 0.9 2.6 2.9 0 1.9-1.3 2.8-2.6 2.8-1.3 0-2.5-0.9-2.5-2.8zm13.7 3.8h1.3v-4.5c0-2.2-1.4-3.3-3.2-3.3-1 0-1.9 0.4-2.4 1.2v-1.1h-1.3v7.7h1.3v-4.2c0-1.7 0.9-2.5 2.2-2.5 1.3 0 2.1 0.8 2.1 2.4zm10.6-3.9c0-2.4-1.7-3.9-3.8-3.9-2.2 0-3.9 1.5-3.9 3.9 0 2.4 1.6 4 3.8 4 2.2 0 3.9-1.6 3.9-4zm-6.4 0c0-1.9 1.2-2.8 2.5-2.8 1.4 0 2.6 0.9 2.6 2.8 0 2-1.3 2.9-2.6 2.9-1.3 0-2.5-0.9-2.5-2.9zm0.9-5.4v0.9l3-1.6v-1.1zm18.3 9.3h1.2v-4.5c0-2.2-1.3-3.3-3.1-3.3-1.2 0-2.2 0.6-2.7 1.7-0.5-1.1-1.5-1.7-2.8-1.7-1 0-1.9 0.4-2.4 1.2v-1.1h-1.3v7.7h1.3v-4.2c0-1.7 0.9-2.5 2.1-2.5 1.3 0 2.1 0.8 2.1 2.4v4.3h1.3v-4.2c0-1.7 0.9-2.5 2.2-2.5 1.2 0 2.1 0.8 2.1 2.4zm3.3 0h1.3v-7.7h-1.3zm0.7-8.9c0.4 0 0.8-0.4 0.8-0.9 0-0.5-0.4-0.9-0.8-0.9-0.5 0-0.9 0.4-0.9 0.9 0 0.5 0.4 0.9 0.9 0.9zm2.3 5c0 2.5 1.5 4 3.7 4 1.9 0 3.2-1 3.6-2.6h-1.4c-0.3 1-1 1.5-2.2 1.5-1.4 0-2.4-0.9-2.4-2.9 0-1.8 1-2.8 2.4-2.8 1.2 0 1.9 0.6 2.2 1.5h1.4c-0.4-1.6-1.7-2.6-3.6-2.6-2.2 0-3.7 1.5-3.7 3.9zm16.2 0c0-2.4-1.7-3.9-3.8-3.9-2.2 0-3.9 1.5-3.9 3.9 0 2.5 1.6 4 3.8 4 2.2 0 3.9-1.5 3.9-4zm-6.4 0c0-1.9 1.2-2.8 2.5-2.8 1.4 0 2.6 0.9 2.6 2.8 0 2-1.3 2.9-2.6 2.9-1.3 0-2.5-0.9-2.5-2.9z"/>
					<path id="familiar" class="s1" aria-label="familiar"  d="m62.9 145h1.3v-6.6h1.6v-1.1h-1.6v-0.5c0-1 0.4-1.4 1.5-1.4v-1.1c-1.9 0-2.8 0.8-2.8 2.5v0.5h-0.9v1.1h0.9zm3.9-3.9c0 2.4 1.6 4 3.7 4 1.4 0 2.4-0.7 2.8-1.6v1.5h1.3v-7.7h-1.3v1.4c-0.4-0.8-1.4-1.5-2.8-1.5-2.1 0-3.7 1.5-3.7 3.9zm6.5 0c0 1.8-1.2 2.9-2.6 2.9-1.4 0-2.6-1.1-2.6-2.9 0-1.8 1.2-2.8 2.6-2.8 1.4 0 2.6 1 2.6 2.8zm14.6 3.9h1.2v-4.5c0-2.2-1.3-3.3-3.1-3.3-1.2 0-2.3 0.6-2.7 1.7-0.5-1.2-1.6-1.7-2.8-1.7-1 0-1.9 0.4-2.4 1.2v-1.1h-1.3v7.7h1.3v-4.3c0-1.6 0.8-2.4 2.1-2.4 1.3 0 2.1 0.8 2.1 2.3v4.4h1.3v-4.3c0-1.6 0.9-2.4 2.2-2.4 1.2 0 2.1 0.8 2.1 2.3zm3.3 0h1.3v-7.6h-1.3zm0.7-9c0.4 0 0.8-0.3 0.8-0.8 0-0.5-0.4-0.9-0.8-0.9-0.5 0-0.9 0.4-0.9 0.9 0 0.5 0.4 0.8 0.9 0.8zm2.7 9h1.3v-10.4h-1.3zm3.5 0h1.3v-7.7h-1.3zm0.6-8.9c0.5 0 0.9-0.4 0.9-0.9 0-0.4-0.4-0.8-0.9-0.8-0.4 0-0.8 0.4-0.8 0.8 0 0.5 0.4 0.9 0.8 0.9zm2.4 5.1c0 2.3 1.5 4 3.6 4 1.4 0 2.4-0.8 2.9-1.6v1.4h1.2v-7.6h-1.2v1.4c-0.5-0.8-1.5-1.6-2.9-1.6-2.1 0-3.6 1.6-3.6 4zm6.5 0c0 1.8-1.3 2.8-2.7 2.8-1.4 0-2.5-1-2.5-2.8 0-1.8 1.1-2.9 2.5-2.9 1.4 0 2.7 1.1 2.7 2.9zm4.7-0.3c0-1.8 0.9-2.4 2.1-2.4h0.3v-1.3c-1.2 0-2 0.6-2.4 1.4v-1.2h-1.3v7.6h1.3z"/>
				</g>
				<path fill-rule="evenodd" class="s1" d="m135.1 77.7c0 0.9-0.8 1.6-1.7 1.6h-27.4c0.5 3.3 0.4 5.7 0.4 6 0 0.9-0.7 1.6-1.6 1.6h-37.6c-0.5 0-0.9-0.2-1.2-0.5-0.3-0.3-0.5-0.8-0.5-1.2 0-2.1 0.2-4.1 0.6-5.9h-27.3c-0.5 0-0.9-0.2-1.2-0.5-0.3-0.3-0.5-0.8-0.5-1.2 0.2-14.6 8.5-21.9 8.8-22.3 0.7-0.5 1.6-0.5 2.2 0 9.4 7.6 19.4 0.1 19.5 0 0.7-0.5 1.6-0.5 2.2 0.1 2.3 2.1 3.9 4.6 5.1 7.2 0.6-0.2 1.2-0.1 1.6 0.3 9.3 7.6 19.1 0.3 19.5 0 0.5-0.4 1.2-0.5 1.7-0.2 2.4-4.7 5.1-7.2 5.3-7.4 0.7-0.5 1.6-0.5 2.2 0 9.4 7.6 19.4 0.1 19.5 0 0.6-0.5 1.6-0.4 2.2 0.1 8.6 7.9 8.3 21.7 8.2 22.3zm-62.8-12.6c-0.9-2.2-2.2-4.4-3.9-6.3-3.2 1.9-12.3 6.3-21.2 0.1-1.9 2.1-6.1 7.8-6.7 17h26.3c1.5-5.1 3.8-8.7 5.5-10.8zm-3.4 18.4q0 0 0-0.1zm0 0h34.1c-0.2-3.4-1.2-11.6-6.2-17-3.3 1.9-12.3 6.2-21.2 0-1.9 2.2-6.1 7.9-6.7 17zm62.8-7.5c-0.2-3.5-1.2-11.7-6.2-17.1-3.2 1.9-12.3 6.2-21.2 0-1 1.2-2.6 3.3-4 6.4 2.6 3.3 4.2 7.2 5 10.7z"/>
				<path fill-rule="evenodd" class="s1" d="m114.6 21.8c8.9 0 16.1 7.2 16.1 16.1 0 4.3-1.7 8.3-4.7 11.3-3.1 3.1-7.1 4.7-11.4 4.7-5.2 0-9.8-2.5-12.8-6.3-0.4 3.5-2 6.7-4.5 9.2-3 3.1-7.1 4.7-11.4 4.7-8 0-14.6-5.9-15.8-13.6q-0.6 0.7-1.2 1.3c-3 3.1-7.1 4.8-11.3 4.8-8.9-0.1-16.1-7.3-16.1-16.1 0-4.3 1.7-8.3 4.7-11.4 3-3 7.1-4.7 11.4-4.7 8 0 14.6 5.9 15.8 13.6q0.6-0.7 1.2-1.3c3-3 7.1-4.7 11.4-4.7 5.2 0 9.8 2.5 12.7 6.4 0.5-3.5 2.1-6.7 4.6-9.3 3-3 7.1-4.7 11.4-4.7q-0.1 0-0.1 0zm-48.1 25.1c2.4-2.4 3.7-5.6 3.7-9 0-7-5.6-12.7-12.6-12.7-3.4 0-6.6 1.3-9 3.7-2.4 2.4-3.7 5.6-3.7 9 0 7 5.7 12.7 12.7 12.7 3.4 0 6.5-1.4 8.9-3.8zm28.4 7.6c2.4-2.4 3.7-5.6 3.7-9 0-6.9-5.7-12.6-12.7-12.6-3.3 0-6.5 1.3-8.9 3.7-2.4 2.4-3.7 5.6-3.7 9 0 6.9 5.7 12.6 12.7 12.6 3.3 0 6.5-1.3 8.9-3.7zm28.7-7.6c2.4-2.4 3.7-5.6 3.7-8.9 0-7-5.7-12.7-12.6-12.7-3.4 0-6.6 1.3-9 3.7-2.4 2.4-3.7 5.6-3.7 9 0 6.9 5.7 12.6 12.7 12.6 3.3 0 6.5-1.3 8.9-3.7z"/>
			</g>
		</g>
	</g>
</svg>