<?xml version="1.0" encoding="UTF-8"?><svg id="Capa_2" xmlns="http://www.w3.org/2000/svg" viewBox="0 0 129.77 102.78"><defs><style>.cls-1{font-family:Poppins-SemiBold, Poppins;font-size:22.86px;font-weight:600;}.cls-1,.cls-2{fill:#fff;}.cls-2{stroke-width:0px;}</style></defs><g id="Capa_1-2"><path class="cls-2" d="M116.37,56.3l-12.68-2.92v-20.86c0-1-.81-1.81-1.81-1.81H14.26c-1,0-1.81.81-1.81,1.81v47.05c0,1,.81,1.81,1.81,1.81h7.64l-.04.2c-.11.47-.03.96.23,1.37.25.4.66.7,1.13.8l.94.22,81.66,18.78c.09.01.18.03.26.03.81,0,1.54-.55,1.75-1.36l8.15-35.39,1.74-7.56c.11-.47.03-.96-.23-1.37-.25-.41-.66-.7-1.13-.8ZM103.69,69.6s.03.01.04.02l-.04.19v-.21ZM70.24,83.74c2.52,0,5-.71,7.19-2.08.14-.08.26-.18.39-.27h23.2l-.88,3.84c-.28-.03-.56-.04-.83-.05-3.62-.04-6.94,1.9-8.7,5.02-.25.45-.47.92-.65,1.41l-44.44-10.23h17.07c.34.23.7.45,1.06.65.27.15.55.29.83.42.85.4,1.75.71,2.68.92,1.02.24,2.05.35,3.08.35ZM68.13,81.39h4.22c-1.38.26-2.81.26-4.22,0ZM16.07,77.77v-43.44h83.99v43.44H16.07ZM104.73,98.8l-75.65-17.41h11.38c.04.34.29.63.64.71l49.23,11.33c.06.02.13.02.19.02.37,0,.71-.24.81-.61,1.01-3.56,4.2-5.93,7.76-5.97.51,0,1.03.04,1.55.13.44.08.87-.2.97-.64l1.21-5.24c.13-.08.25-.18.36-.28.32-.33.52-.77.52-1.26v-2.24l1.86-8.08c.1-.44-.16-.88-.59-1-.44-.12-.87-.29-1.27-.48v-10.67l10.11,2.33-9.06,39.38Z"/><path class="cls-2" d="M93.14,45.78c-4.36-.22-7.81-3.8-8.03-8.33-.02-.47-.41-.85-.89-.85H31.92c-.47,0-.86.37-.89.85-.22,4.52-3.67,8.1-8.03,8.33-.47.02-.84.41-.84.89v18.76c0,.47.37.86.84.89,4.36.23,7.81,3.81,8.03,8.33.02.47.41.85.89.85h52.31c.47,0,.86-.37.89-.85.22-4.52,3.67-8.1,8.03-8.33.47-.02.84-.42.84-.89v-18.76c0-.47-.37-.86-.84-.89ZM92.2,64.62c-4.6.63-8.2,4.35-8.79,9.09h-50.68c-.59-4.75-4.19-8.47-8.79-9.09v-17.15c4.6-.62,8.2-4.34,8.79-9.09h50.68c.6,4.75,4.19,8.47,8.79,9.09v17.15Z"/><path class="cls-2" d="M58.52,41.53c-7.78,0-14.1,6.52-14.1,14.52s6.33,14.52,14.1,14.52,14.1-6.52,14.1-14.52-6.33-14.52-14.1-14.52ZM58.52,68.33c-6.54,0-11.85-5.51-11.85-12.28s5.32-12.27,11.85-12.27,11.85,5.51,11.85,12.27-5.32,12.28-11.85,12.28Z"/><text class="cls-1" transform="translate(0 19.44)"><tspan x="0" y="0">Económica</tspan></text></g></svg>