<?xml version="1.0" encoding="UTF-8"?><svg id="Capa_2" xmlns="http://www.w3.org/2000/svg" viewBox="0 0 73.47 131.65"><defs><style>.cls-1{font-family:Poppins-Regular, Poppins;font-size:14px;}.cls-1,.cls-2{fill:#fff;}.cls-2{stroke-width:0px;}</style></defs><g id="Segunda_pantalla"><text class="cls-1" transform="translate(0 106.84)"><tspan x="0" y="0">Manejo de</tspan><tspan x="6.22" y="16.8">Finanzas</tspan></text><path class="cls-2" d="M9.65,0C6.18,0,3.35,2.83,3.35,6.31v69.78c0,3.48,2.83,6.31,6.3,6.31h52.41c3.48,0,6.3-2.83,6.3-6.31V6.31c0-3.48-2.83-6.31-6.3-6.31H9.65ZM66.14,6.31v69.78c0,2.25-1.83,4.08-4.08,4.08H9.65c-2.25,0-4.08-1.83-4.08-4.08V6.31c0-2.25,1.83-4.08,4.08-4.08h52.41c2.25,0,4.08,1.83,4.08,4.08Z"/><path class="cls-2" d="M60.68,9.58H11.13c-.84,0-1.52.68-1.52,1.52v15.29c0,.84.68,1.52,1.52,1.52h49.54c.84,0,1.52-.68,1.52-1.52v-15.29c0-.84-.68-1.52-1.52-1.52ZM59.15,24.87H12.66v-12.24h46.5v12.24Z"/><path class="cls-2" d="M56.46,55.96h-9.49c-.84,0-1.52.68-1.52,1.52v16.99c0,.84.68,1.52,1.52,1.52h9.49c.84,0,1.52-.68,1.52-1.52v-16.99c0-.84-.68-1.52-1.52-1.52ZM54.93,72.95h-6.44v-13.95h6.44v13.95Z"/><path class="cls-2" d="M48.98,40.33h5.46c1.67,0,3.04-1.6,3.04-3.56s-1.36-3.56-3.04-3.56h-5.46c-1.67,0-3.04,1.59-3.04,3.56s1.36,3.56,3.04,3.56ZM48.98,34.74h5.46c.82,0,1.51.93,1.51,2.03s-.69,2.03-1.51,2.03h-5.46c-.82,0-1.51-.93-1.51-2.03s.69-2.03,1.51-2.03Z"/><path class="cls-2" d="M48.98,51.73h5.46c1.67,0,3.04-1.59,3.04-3.56s-1.36-3.56-3.04-3.56h-5.46c-1.67,0-3.04,1.6-3.04,3.56s1.36,3.56,3.04,3.56ZM48.98,46.14h5.46c.82,0,1.51.93,1.51,2.03s-.69,2.03-1.51,2.03h-5.46c-.82,0-1.51-.93-1.51-2.03s.69-2.03,1.51-2.03Z"/><path class="cls-2" d="M39.01,33.22h-5.46c-1.68,0-3.04,1.59-3.04,3.56s1.36,3.56,3.04,3.56h5.46c1.67,0,3.04-1.6,3.04-3.56s-1.36-3.56-3.04-3.56ZM39.01,38.81h-5.46c-.82,0-1.51-.93-1.51-2.03s.69-2.03,1.51-2.03h5.46c.82,0,1.51.93,1.51,2.03s-.69,2.03-1.51,2.03Z"/><path class="cls-2" d="M39.01,44.42h-5.46c-1.68,0-3.04,1.6-3.04,3.56s1.36,3.56,3.04,3.56h5.46c1.67,0,3.04-1.59,3.04-3.56s-1.36-3.56-3.04-3.56ZM39.01,50.01h-5.46c-.82,0-1.51-.93-1.51-2.03s.69-2.03,1.51-2.03h5.46c.82,0,1.51.93,1.51,2.03s-.69,2.03-1.51,2.03Z"/><path class="cls-2" d="M23.57,33.22h-5.46c-1.68,0-3.04,1.59-3.04,3.56s1.36,3.56,3.04,3.56h5.46c1.67,0,3.04-1.6,3.04-3.56s-1.36-3.56-3.04-3.56ZM23.57,38.81h-5.46c-.82,0-1.51-.93-1.51-2.03s.69-2.03,1.51-2.03h5.46c.82,0,1.51.93,1.51,2.03s-.69,2.03-1.51,2.03Z"/><path class="cls-2" d="M23.57,44.42h-5.46c-1.68,0-3.04,1.6-3.04,3.56s1.36,3.56,3.04,3.56h5.46c1.67,0,3.04-1.59,3.04-3.56s-1.36-3.56-3.04-3.56ZM23.57,50.01h-5.46c-.82,0-1.51-.93-1.51-2.03s.69-2.03,1.51-2.03h5.46c.82,0,1.51.93,1.51,2.03s-.69,2.03-1.51,2.03Z"/><path class="cls-2" d="M23.57,55.62h-5.46c-1.68,0-3.04,1.6-3.04,3.56s1.36,3.56,3.04,3.56h5.46c1.67,0,3.04-1.6,3.04-3.56s-1.36-3.56-3.04-3.56ZM23.57,61.21h-5.46c-.82,0-1.51-.93-1.51-2.03s.69-2.03,1.51-2.03h5.46c.82,0,1.51.93,1.51,2.03s-.69,2.03-1.51,2.03Z"/><path class="cls-2" d="M23.57,66.82h-5.46c-1.68,0-3.04,1.6-3.04,3.56s1.36,3.56,3.04,3.56h5.46c1.67,0,3.04-1.59,3.04-3.56s-1.36-3.56-3.04-3.56ZM23.57,72.41h-5.46c-.82,0-1.51-.93-1.51-2.03s.69-2.04,1.51-2.04h5.46c.82,0,1.51.93,1.51,2.04s-.69,2.03-1.51,2.03Z"/><path class="cls-2" d="M38.63,55.62h-5.46c-1.68,0-3.04,1.6-3.04,3.56s1.36,3.56,3.04,3.56h5.46c1.67,0,3.04-1.6,3.04-3.56s-1.36-3.56-3.04-3.56ZM38.63,61.21h-5.46c-.82,0-1.51-.93-1.51-2.03s.69-2.03,1.51-2.03h5.46c.82,0,1.51.93,1.51,2.03s-.69,2.03-1.51,2.03Z"/><path class="cls-2" d="M38.63,66.82h-5.46c-1.68,0-3.04,1.6-3.04,3.56s1.36,3.56,3.04,3.56h5.46c1.67,0,3.04-1.59,3.04-3.56s-1.36-3.56-3.04-3.56ZM38.63,72.41h-5.46c-.82,0-1.51-.93-1.51-2.03s.69-2.04,1.51-2.04h5.46c.82,0,1.51.93,1.51,2.04s-.69,2.03-1.51,2.03Z"/></g></svg>