<svg version="1.2" xmlns="http://www.w3.org/2000/svg" viewBox="0 0 187 187" width="187" height="187">
	<title>manejo_finanzas-svg</title>
	<style>
		.s0 { fill: #d8a568 } 
		.s1 { fill: #ffffff } 
	</style>
	<g id="Segunda_pantalla">
		<g>
			<path class="s0" d="m25.3 8.1h122.9c9.1 0 16.6 7.4 16.6 16.6v122.9c0 9.2-7.5 16.6-16.6 16.6h-122.9c-9.2 0-16.6-7.4-16.6-16.6v-122.9c0-9.2 7.4-16.6 16.6-16.6z"/>
			<g id="Segunda_pantalla-2">
				<g>
					<path id="Manejo de" class="s1" aria-label="Manejo de"  d="m53.2 128h1.2v-6.7l3 6.7h0.8l3-6.7v6.7h1.2v-9h-1.2l-3.4 7.4-3.3-7.4h-1.3zm10.8-3.6c0 2.2 1.4 3.7 3.3 3.7 1.4 0 2.3-0.7 2.7-1.4v1.3h1.2v-7.1h-1.2v1.3c-0.4-0.8-1.3-1.4-2.6-1.4-2 0-3.4 1.4-3.4 3.6zm6 0c0 1.7-1.1 2.7-2.4 2.7-1.3 0-2.4-1-2.4-2.7 0-1.7 1.1-2.6 2.4-2.6 1.3 0 2.4 1 2.4 2.6zm8.4 3.6h1.2v-4.2c0-2-1.3-3.1-2.9-3.1-1 0-1.8 0.5-2.3 1.2v-1h-1.2v7.1h1.2v-3.9c0-1.6 0.8-2.3 2-2.3 1.2 0 2 0.7 2 2.2zm6.2-6.3c1.2 0 2.2 0.8 2.2 2.2h-4.5c0.1-1.4 1.1-2.2 2.3-2.2zm3.3 4.1h-1.3c-0.3 0.7-0.9 1.3-2 1.3-1.2 0-2.2-0.8-2.3-2.2h5.7c0-0.3 0-0.5 0-0.8 0-1.9-1.3-3.4-3.4-3.4-2.1 0-3.5 1.5-3.5 3.7 0 2.3 1.5 3.7 3.5 3.7 1.8 0 2.9-1 3.3-2.3zm2.3-6.1c0.5 0 0.8-0.4 0.8-0.8 0-0.5-0.3-0.8-0.8-0.8-0.4 0-0.8 0.3-0.8 0.8 0 0.4 0.4 0.8 0.8 0.8zm-0.6 1.2v8.6c0 0.6-0.2 0.9-0.9 0.9h-0.5v1h0.7c1.2 0 1.9-0.6 1.9-1.9v-8.6zm9.9 3.5c0-2.2-1.5-3.7-3.6-3.7-2 0-3.6 1.5-3.6 3.7 0 2.3 1.6 3.7 3.6 3.7 2 0 3.6-1.4 3.6-3.7zm-5.9 0c0-1.8 1.1-2.6 2.3-2.6 1.3 0 2.4 0.8 2.4 2.6 0 1.8-1.2 2.7-2.4 2.7-1.2 0-2.3-0.9-2.3-2.7zm10.5 0c0 2.2 1.5 3.7 3.4 3.7 1.3 0 2.2-0.7 2.7-1.5v1.4h1.2v-9.6h-1.2v3.7c-0.5-0.8-1.6-1.4-2.7-1.4-1.9 0-3.4 1.5-3.4 3.7zm6.1 0c0 1.7-1.1 2.7-2.4 2.7-1.3 0-2.5-1-2.5-2.7 0-1.7 1.2-2.6 2.5-2.6 1.3 0 2.4 0.9 2.4 2.6zm6.2-2.7c1.2 0 2.3 0.8 2.2 2.2h-4.5c0.2-1.4 1.1-2.2 2.3-2.2zm3.3 4.1h-1.2c-0.3 0.7-1 1.3-2.1 1.3-1.2 0-2.2-0.8-2.3-2.2h5.7c0.1-0.3 0.1-0.5 0.1-0.8 0-1.9-1.4-3.4-3.5-3.4-2 0-3.5 1.5-3.5 3.7 0 2.3 1.5 3.7 3.5 3.7 1.8 0 3-1 3.3-2.3z"/>
					<path id="Finanzas" class="s1" aria-label="Finanzas"  d="m59.1 143h1.1v-4.1h3.2v-0.9h-3.2v-3.1h4v-1h-5.1zm6.5 0h1.2v-7.1h-1.2zm0.6-8.3c0.5 0 0.8-0.3 0.8-0.8 0-0.4-0.3-0.8-0.8-0.8-0.4 0-0.8 0.4-0.8 0.8 0 0.5 0.4 0.8 0.8 0.8zm7.8 8.3h1.2v-4.2c0-2-1.3-3-2.9-3-1 0-1.8 0.4-2.3 1.1v-1h-1.2v7.1h1.2v-3.9c0-1.6 0.8-2.3 2-2.3 1.2 0 2 0.7 2 2.2zm2.7-3.6c0 2.2 1.5 3.7 3.4 3.7 1.3 0 2.2-0.7 2.6-1.4v1.3h1.2v-7.1h-1.2v1.3c-0.4-0.8-1.3-1.5-2.6-1.5-1.9 0-3.4 1.5-3.4 3.7zm6 0c0 1.7-1.1 2.7-2.4 2.7-1.3 0-2.4-1-2.4-2.7 0-1.7 1.1-2.6 2.4-2.6 1.3 0 2.4 1 2.4 2.6zm8.4 3.6h1.2v-4.2c0-2.1-1.3-3.1-2.9-3.1-1 0-1.8 0.4-2.3 1.2v-1h-1.2v7.1h1.2v-4c0-1.5 0.8-2.2 2-2.2 1.2 0 2 0.7 2 2.2zm7.5-7.2h-4.8v1h3.4l-3.4 5.2v1h4.8v-1h-3.5l3.5-5.2zm1.1 3.5c0 2.2 1.5 3.7 3.4 3.7 1.3 0 2.2-0.6 2.6-1.4v1.3h1.2v-7.1h-1.2v1.3c-0.4-0.7-1.3-1.4-2.6-1.4-1.9 0-3.4 1.4-3.4 3.6zm6 0c0 1.7-1.1 2.7-2.4 2.7-1.3 0-2.4-1-2.4-2.7 0-1.6 1.1-2.6 2.4-2.6 1.3 0 2.4 1 2.4 2.6zm8.4 1.7c-0.1-2.6-4.2-1.6-4.2-3.3 0-0.6 0.5-1 1.4-1 0.9 0 1.5 0.5 1.5 1.2h1.2c-0.1-1.4-1.1-2.2-2.7-2.2-1.6 0-2.6 0.9-2.6 2 0 2.6 4.2 1.7 4.2 3.3 0 0.6-0.5 1-1.4 1-1 0-1.7-0.5-1.7-1.2h-1.2c0 1.3 1.2 2.2 2.9 2.2 1.5 0 2.6-0.9 2.6-2z"/>
				</g>
				<path fill-rule="evenodd" class="s1" d="m110.5 27.3c3.3 0 5.9 2.7 5.9 5.9v65.6c0 3.3-2.6 5.9-5.9 5.9h-49.2c-3.3 0-5.9-2.6-5.9-5.9v-65.6c0-3.2 2.6-5.9 5.9-5.9zm0 2.1h-49.3c-2.1 0-3.8 1.7-3.8 3.8v65.6c0 2.1 1.7 3.8 3.8 3.8h49.3c2.1 0 3.8-1.7 3.8-3.8v-65.6c0-2.1-1.7-3.8-3.8-3.8z"/>
				<path fill-rule="evenodd" class="s1" d="m109.2 36.3c0.8 0 1.5 0.6 1.5 1.4v14.4c0 0.8-0.7 1.4-1.5 1.4h-46.5c-0.8 0-1.5-0.6-1.5-1.4v-14.4c0-0.8 0.7-1.4 1.5-1.4zm-1.4 14.4v-11.5h-43.7v11.5z"/>
				<path fill-rule="evenodd" class="s1" d="m106.7 81.3v16c0 0.8-0.6 1.4-1.4 1.4h-9c-0.7 0-1.4-0.6-1.4-1.4v-16c0-0.8 0.7-1.4 1.4-1.4h9c0.8 0 1.4 0.6 1.4 1.4zm-2.9 1.4h-6v13.1h6z"/>
				<path fill-rule="evenodd" class="s1" d="m95.4 61.8c0-1.8 1.3-3.3 2.8-3.3h5.2c1.5 0 2.8 1.5 2.8 3.3 0 1.9-1.3 3.4-2.8 3.4h-5.2c-1.5 0-2.8-1.5-2.8-3.4zm1.4 0c0 1.1 0.7 2 1.4 2h5.2c0.7 0 1.4-0.9 1.4-2 0-1-0.7-1.9-1.4-1.9h-5.2c-0.7 0-1.4 0.9-1.4 1.9z"/>
				<path fill-rule="evenodd" class="s1" d="m95.4 72.6c0-1.9 1.3-3.4 2.8-3.4h5.2c1.5 0 2.8 1.5 2.8 3.4 0 1.8-1.3 3.3-2.8 3.3h-5.2c-1.5 0-2.8-1.5-2.8-3.3zm1.4 0c0 1 0.7 1.9 1.4 1.9h5.2c0.7 0 1.4-0.9 1.4-1.9 0-1.1-0.7-1.9-1.4-1.9h-5.2c-0.7 0-1.4 0.8-1.4 1.9z"/>
				<path fill-rule="evenodd" class="s1" d="m91.7 61.8c0 1.9-1.3 3.4-2.8 3.4h-5.2c-1.5 0-2.8-1.5-2.8-3.4 0-1.8 1.3-3.3 2.8-3.3h5.2c1.5 0 2.8 1.5 2.8 3.3zm-1.4 0.1c0-1.1-0.7-1.9-1.4-1.9h-5.2c-0.7 0-1.4 0.8-1.4 1.9 0 1 0.7 1.9 1.4 1.9h5.2c0.7 0 1.4-0.9 1.4-1.9z"/>
				<path fill-rule="evenodd" class="s1" d="m91.7 72.4c0 1.8-1.3 3.3-2.8 3.3h-5.2c-1.5 0-2.8-1.5-2.8-3.3 0-1.9 1.3-3.4 2.8-3.4h5.2c1.5 0 2.8 1.5 2.8 3.4zm-1.4 0c0-1.1-0.7-1.9-1.4-1.9h-5.2c-0.7 0-1.4 0.8-1.4 1.9 0 1 0.7 1.9 1.4 1.9h5.2c0.7 0 1.4-0.9 1.4-1.9z"/>
				<path fill-rule="evenodd" class="s1" d="m77.2 61.8c0 1.9-1.3 3.4-2.8 3.4h-5.2c-1.5 0-2.8-1.5-2.8-3.4 0-1.8 1.3-3.3 2.8-3.3h5.2c1.5 0 2.8 1.5 2.8 3.3zm-1.4 0.1c0-1.1-0.7-1.9-1.4-1.9h-5.2c-0.7 0-1.4 0.8-1.4 1.9 0 1 0.7 1.9 1.4 1.9h5.2c0.7 0 1.4-0.9 1.4-1.9z"/>
				<path fill-rule="evenodd" class="s1" d="m77.2 72.4c0 1.8-1.3 3.3-2.8 3.3h-5.2c-1.5 0-2.8-1.5-2.8-3.3 0-1.9 1.3-3.4 2.8-3.4h5.2c1.5 0 2.8 1.5 2.8 3.4zm-1.4 0c0-1.1-0.7-1.9-1.4-1.9h-5.2c-0.7 0-1.4 0.8-1.4 1.9 0 1 0.7 1.9 1.4 1.9h5.2c0.7 0 1.4-0.9 1.4-1.9z"/>
				<path fill-rule="evenodd" class="s1" d="m77.2 82.9c0 1.8-1.3 3.3-2.8 3.3h-5.2c-1.5 0-2.8-1.5-2.8-3.3 0-1.8 1.3-3.3 2.8-3.3h5.2c1.5 0 2.8 1.5 2.8 3.3zm-1.4 0c0-1-0.7-1.9-1.4-1.9h-5.2c-0.7 0-1.4 0.9-1.4 1.9 0 1 0.7 1.9 1.4 1.9h5.2c0.7 0 1.4-0.9 1.4-1.9z"/>
				<path fill-rule="evenodd" class="s1" d="m77.2 93.4c0 1.9-1.3 3.4-2.8 3.4h-5.2c-1.5 0-2.8-1.5-2.8-3.4 0-1.8 1.3-3.3 2.8-3.3h5.2c1.5 0 2.8 1.5 2.8 3.3zm-1.4 0c0-1-0.7-1.9-1.4-1.9h-5.2c-0.7 0-1.4 0.9-1.4 1.9 0 1.1 0.7 1.9 1.4 1.9h5.2c0.7 0 1.4-0.8 1.4-1.9z"/>
				<path fill-rule="evenodd" class="s1" d="m91.4 82.9c0 1.8-1.3 3.3-2.9 3.3h-5.1c-1.6 0-2.9-1.5-2.9-3.3 0-1.8 1.3-3.3 2.9-3.3h5.1c1.6 0 2.9 1.5 2.9 3.3zm-1.5 0c0-1-0.6-1.9-1.4-1.9h-5.1c-0.8 0-1.4 0.9-1.4 1.9 0 1 0.6 1.9 1.4 1.9h5.1c0.8 0 1.4-0.9 1.4-1.9z"/>
				<path fill-rule="evenodd" class="s1" d="m91.4 93.4c0 1.9-1.3 3.4-2.9 3.4h-5.1c-1.6 0-2.9-1.5-2.9-3.4 0-1.8 1.3-3.3 2.9-3.3h5.1c1.6 0 2.9 1.5 2.9 3.3zm-1.5 0c0-1-0.6-1.9-1.4-1.9h-5.1c-0.8 0-1.4 0.9-1.4 1.9 0 1.1 0.6 1.9 1.4 1.9h5.1c0.8 0 1.4-0.8 1.4-1.9z"/>
			</g>
		</g>
	</g>
</svg>