<svg version="1.2" xmlns="http://www.w3.org/2000/svg" viewBox="0 0 187 188" width="187" height="187">
	<title>situacion_laboral-svg</title>
	<style>
		.s0 { fill: #d8a568 } 
		.s1 { fill: #ffffff } 
	</style>
	<g id="Segunda_pantalla">
		<g>
			<path class="s0" d="m25.4 8.9h122.9c9.2 0 16.6 7.5 16.6 16.6v122.9c0 9.2-7.4 16.6-16.6 16.6h-122.9c-9.1 0-16.6-7.4-16.6-16.6v-122.9c0-9.1 7.5-16.6 16.6-16.6z"/>
			<g id="Segunda_pantalla-2">
				<g>
					<path id="Situación laboral" class="s1" aria-label="Situación laboral"  d="m36.6 123.3c0-3.6-5.3-2-5.3-4.5 0-1.1 0.8-1.6 1.9-1.6 1.2 0 1.8 0.8 1.9 1.4h1.4c-0.2-1.5-1.4-2.5-3.3-2.5-1.9 0-3.2 1.1-3.2 2.7 0 3.6 5.3 2 5.3 4.6 0 0.9-0.7 1.6-2 1.6-1.3 0-1.9-0.8-2-1.6h-1.3c0 1.6 1.4 2.7 3.3 2.7 2.1 0 3.3-1.4 3.3-2.8zm1.9 2.7h1.2v-7.7h-1.2zm0.6-8.9c0.5 0 0.9-0.4 0.9-0.9 0-0.4-0.4-0.8-0.9-0.8-0.5 0-0.9 0.4-0.9 0.8 0 0.5 0.4 0.9 0.9 0.9zm3.1 6.8c0 1.6 0.8 2.1 2.1 2.1h1.2v-1h-1c-0.8 0-1-0.3-1-1.1v-4.5h2v-1h-2v-2h-1.3v2h-1v1h1zm11.6-5.6h-1.3v4.2c0 1.7-0.9 2.5-2.2 2.5-1.3 0-2.1-0.8-2.1-2.3v-4.4h-1.3v4.5c0 2.2 1.4 3.3 3.2 3.3 1 0 1.9-0.4 2.4-1.2v1.1h1.3zm1.7 3.8c0 2.4 1.6 4 3.6 4 1.4 0 2.4-0.7 2.9-1.5v1.4h1.3v-7.7h-1.3v1.4c-0.5-0.8-1.5-1.5-2.9-1.5-2 0-3.6 1.5-3.6 3.9zm6.5 0c0 1.8-1.2 2.9-2.6 2.9-1.4 0-2.6-1.1-2.6-2.9 0-1.8 1.2-2.8 2.6-2.8 1.4 0 2.6 1 2.6 2.8zm2.9 0c0 2.5 1.6 4 3.8 4 1.9 0 3.1-1.1 3.5-2.6h-1.3c-0.3 1-1.1 1.5-2.2 1.5-1.4 0-2.5-1-2.5-2.9 0-1.8 1.1-2.8 2.5-2.8 1.1 0 1.9 0.5 2.2 1.5h1.3c-0.4-1.6-1.6-2.6-3.5-2.6-2.2 0-3.8 1.5-3.8 3.9zm9 3.9h1.3v-7.7h-1.3zm0.7-8.9c0.4 0 0.8-0.4 0.8-0.9 0-0.5-0.4-0.8-0.8-0.8-0.5 0-0.9 0.3-0.9 0.8 0 0.5 0.4 0.9 0.9 0.9zm10 5.1c0-2.5-1.7-4-3.8-4-2.2 0-3.9 1.5-3.9 4 0 2.4 1.6 3.9 3.8 3.9 2.2 0 3.9-1.5 3.9-3.9zm-6.4 0c0-2 1.2-2.9 2.6-2.9 1.3 0 2.5 0.9 2.5 2.9 0 1.9-1.3 2.8-2.6 2.8-1.3 0-2.5-0.9-2.5-2.8zm1-5.5v1l2.9-1.6v-1.1zm12.8 9.3h1.3v-4.6c0-2.2-1.4-3.3-3.2-3.3-1 0-1.9 0.5-2.4 1.3v-1.1h-1.3v7.7h1.3v-4.3c0-1.6 0.9-2.5 2.2-2.5 1.3 0 2.1 0.8 2.1 2.4zm7.1 0h1.3v-10.3h-1.3zm3-3.9c0 2.4 1.6 4 3.6 4 1.4 0 2.4-0.7 2.9-1.6v1.5h1.3v-7.7h-1.3v1.4c-0.5-0.8-1.5-1.5-2.9-1.5-2 0-3.6 1.5-3.6 3.9zm6.5 0c0 1.8-1.2 2.9-2.6 2.9-1.4 0-2.6-1.1-2.6-2.9 0-1.8 1.2-2.8 2.6-2.8 1.4 0 2.6 1 2.6 2.8zm4.7-2.4v-4.1h-1.3v10.4h1.3v-1.5c0.5 0.9 1.5 1.6 2.9 1.6 2 0 3.6-1.6 3.6-4 0-2.4-1.6-3.9-3.6-3.9-1.4 0-2.4 0.7-2.9 1.5zm5.2 2.4c0 1.8-1.2 2.9-2.6 2.9-1.4 0-2.6-1.1-2.6-2.9 0-1.8 1.2-2.8 2.6-2.8 1.4 0 2.6 1 2.6 2.8zm10.3 0c0-2.4-1.7-3.9-3.9-3.9-2.2 0-3.9 1.5-3.9 3.9 0 2.4 1.7 4 3.8 4 2.2 0 4-1.6 4-4zm-6.5 0c0-1.9 1.2-2.8 2.6-2.8 1.3 0 2.6 0.9 2.6 2.8 0 2-1.3 2.9-2.7 2.9-1.3 0-2.5-0.9-2.5-2.9zm9.4-0.3c0-1.8 0.9-2.3 2.1-2.3h0.4v-1.4c-1.2 0-2.1 0.6-2.5 1.4v-1.2h-1.3v7.7h1.3zm3.5 0.3c0 2.3 1.6 4 3.6 4 1.4 0 2.4-0.8 2.9-1.6v1.4h1.3v-7.6h-1.3v1.4c-0.5-0.8-1.5-1.6-2.9-1.6-2 0-3.6 1.6-3.6 4zm6.5 0c0 1.8-1.2 2.8-2.6 2.8-1.4 0-2.6-1-2.6-2.8 0-1.8 1.2-2.9 2.6-2.9 1.4 0 2.6 1.1 2.6 2.9zm3.4 3.8h1.3v-10.3h-1.3z"/>
					<path id="y ocupacional" class="s1" aria-label="y ocupacional"  d="m42.3 141.5l-2.4-6.2h-1.4l3.1 7.6-1.5 3.7h1.3l4.6-11.3h-1.3zm16-2.4c0-2.4-1.7-3.9-3.9-3.9-2.1 0-3.8 1.5-3.8 3.9 0 2.5 1.6 4 3.8 4 2.2 0 3.9-1.5 3.9-4zm-6.4 0c0-1.9 1.2-2.8 2.5-2.8 1.3 0 2.6 0.9 2.6 2.8 0 2-1.3 2.9-2.6 2.9-1.4 0-2.5-0.9-2.5-2.9zm7.6 0c0 2.5 1.6 4 3.8 4 1.9 0 3.1-1.1 3.5-2.6h-1.4c-0.3 1-1 1.5-2.1 1.5-1.4 0-2.5-1-2.5-2.9 0-1.8 1.1-2.8 2.5-2.8 1.1 0 1.9 0.6 2.1 1.5h1.4c-0.4-1.6-1.6-2.6-3.5-2.6-2.2 0-3.8 1.5-3.8 3.9zm15.8-3.8h-1.3v4.2c0 1.7-0.9 2.5-2.2 2.5-1.3 0-2.1-0.8-2.1-2.4v-4.3h-1.3v4.5c0 2.2 1.4 3.3 3.2 3.3 1 0 1.9-0.5 2.4-1.2v1.1h1.3zm3.4 1.4v-1.4h-1.3v11.3h1.3v-5.1c0.5 0.8 1.5 1.6 2.9 1.6 2 0 3.6-1.6 3.6-4 0-2.4-1.6-3.9-3.6-3.9-1.4 0-2.4 0.7-2.9 1.5zm5.2 2.4c0 1.8-1.2 2.9-2.6 2.9-1.4 0-2.6-1.1-2.6-2.9 0-1.8 1.2-2.8 2.6-2.8 1.4 0 2.6 1 2.6 2.8zm2.5 0c0 2.4 1.6 4 3.7 4 1.4 0 2.4-0.7 2.8-1.6v1.5h1.3v-7.7h-1.3v1.4c-0.4-0.8-1.4-1.5-2.8-1.5-2.1 0-3.7 1.5-3.7 3.9zm6.5 0c0 1.8-1.2 2.9-2.6 2.9-1.4 0-2.6-1.1-2.6-2.9 0-1.8 1.2-2.8 2.6-2.8 1.4 0 2.6 1 2.6 2.8zm3 0c0 2.4 1.6 4 3.7 4 1.9 0 3.2-1.1 3.6-2.6h-1.4c-0.3 1-1 1.5-2.2 1.5-1.4 0-2.4-1-2.4-2.9 0-1.9 1-2.9 2.4-2.9 1.2 0 1.9 0.6 2.2 1.5h1.4c-0.4-1.6-1.7-2.5-3.6-2.5-2.1 0-3.7 1.5-3.7 3.9zm9 3.9h1.2v-7.7h-1.2zm0.6-8.9c0.5 0 0.9-0.4 0.9-0.9 0-0.5-0.4-0.9-0.9-0.9-0.5 0-0.8 0.4-0.8 0.9 0 0.5 0.3 0.9 0.8 0.9zm10.1 5c0-2.4-1.7-3.9-3.9-3.9-2.2 0-3.9 1.5-3.9 3.9 0 2.5 1.7 4 3.9 4 2.1 0 3.9-1.5 3.9-4zm-6.5 0c0-1.9 1.3-2.8 2.6-2.8 1.3 0 2.6 0.9 2.6 2.8 0 2-1.3 2.9-2.6 2.9-1.4 0-2.6-0.9-2.6-2.9zm13.8 3.9h1.2v-4.5c0-2.2-1.3-3.3-3.1-3.3-1 0-1.9 0.4-2.5 1.2v-1.1h-1.2v7.7h1.2v-4.3c0-1.6 0.9-2.4 2.2-2.4 1.3 0 2.2 0.8 2.2 2.3zm2.9-3.8c0 2.4 1.5 4 3.6 4 1.4 0 2.4-0.8 2.9-1.6v1.4h1.2v-7.6h-1.2v1.4c-0.5-0.8-1.5-1.6-2.9-1.6-2.1 0-3.6 1.6-3.6 4zm6.5 0c0 1.8-1.2 2.8-2.6 2.8-1.4 0-2.6-1-2.6-2.8 0-1.8 1.2-2.8 2.6-2.8 1.4 0 2.6 1 2.6 2.8zm3.4 3.8h1.3v-10.3h-1.3z"/>
				</g>
				<path class="s1" d="m90 73.4v6q0.3-0.1 0.6-0.3 1.7-1.1 1.8-2.9 0-2-2.4-2.8z"/>
				<path fill-rule="evenodd" class="s1" d="m130.5 49.2v43c0 4.6-3.8 8.4-8.4 8.4h-70.6c-4.7 0-8.5-3.8-8.5-8.4v-43c0-4.7 3.8-8.5 8.5-8.5h12.8v-2.8c0-5.9 4.8-10.7 10.7-10.7h23.5c5.9 0 10.7 4.8 10.7 10.7v2.8h12.9c4.6 0 8.4 3.8 8.4 8.5zm-3.1 43v-43c0-3-2.4-5.4-5.3-5.4h-14.4c-0.8 0-1.5-0.7-1.5-1.5v-4.4c0-4.2-3.5-7.6-7.7-7.6h-23.5c-4.2 0-7.7 3.4-7.7 7.6v4.4c0 0.8-0.6 1.5-1.5 1.5h-14.3c-3 0-5.4 2.4-5.4 5.4v43c0 2.9 2.4 5.3 5.4 5.3h70.6c3 0 5.4-2.4 5.4-5.3q0 0-0.1 0z"/>
				<path fill-rule="evenodd" class="s1" d="m102.3 37.9v4.4c0 0.8-0.7 1.5-1.5 1.5h-28.1c-0.8 0-1.5-0.7-1.5-1.5v-4.4c0-2.1 1.7-3.8 3.8-3.8h23.5c2.1 0 3.8 1.7 3.8 3.8zm-3 0c0-0.4-0.4-0.7-0.8-0.7h-23.4c-0.5 0-0.8 0.3-0.8 0.7v2.8h25z"/>
				<path fill-rule="evenodd" class="s1" d="m91.5 65.7h0.1c3.6 0.7 6.4 2.2 8.2 4.4 1.4 1.7 2.1 3.7 2 6.1-0.1 3.6-1.7 6.6-4.8 8.6q-2.4 1.6-5.5 2.2v1.5c0 1.7-1.4 3.1-3.1 3.1h-2.9c-1.7 0-3.1-1.4-3.1-3.1v-1.5q-3.6-0.8-6.5-3.1c-1.4-1-2.6-2.1-3.4-3.3-0.5-0.5-0.7-1.1-0.7-1.8 0-1 0.5-1.9 1.5-2.5l3-1.7q0-0.1 0.1-0.1 0 0 0 0c0.4-0.2 1-0.4 1.5-0.4 1 0 1.8 0.4 2.5 1.2q0.9 1 2 1.7v-3.1q-5.4-1.1-8-4.7-1.8-2.3-1.9-5.5c-0.1-2.9 1-6.8 6.7-9.4q1.4-0.7 3.2-1v-1.8c0-1.7 1.4-3.1 3.1-3.1h2.9c1.7 0 3.1 1.4 3.1 3.1v1.9q4.5 1.1 7.5 4.5c0.5 0.5 0.8 1.2 0.8 2 0 0.9-0.5 1.8-1.4 2.3l-3.2 2.1h-0.1q0 0.1-0.1 0.1c-0.2 0.1-0.9 0.4-1.7 0.4q-1 0-1.8-0.5v1.4zm3.7 16.6v0.1c2.3-1.6 3.5-3.6 3.5-6.2q0.1-2.4-1.3-4.1c-1.6-1.9-4.1-3.1-7.6-3.6-0.8-0.1-1.4-0.7-1.4-1.5v-5.5c0-0.5 0.3-1 0.8-1.2 0.4-0.3 0.9-0.4 1.4-0.1q1.2 0.5 2.3 1.5 0.2 0.1 0.4 0.1c0 0 0.2 0 0.3-0.1l3-1.9c-1.8-1.9-4.1-3.1-6.9-3.6-0.7-0.2-1.3-0.8-1.3-1.5v-3.1c0-0.1 0-0.1 0-0.1h-2.9c-0.1 0-0.1 0.1-0.1 0.1v3c0 0.8-0.6 1.4-1.3 1.5q-2.1 0.3-3.7 1c-3.3 1.5-4.9 3.7-4.9 6.6 0 1.5 0.4 2.7 1.3 3.8 1.4 1.9 3.9 3.2 7.3 3.7 0.7 0.1 1.3 0.7 1.3 1.5v6.8c0 0.5-0.3 1-0.7 1.3-0.4 0.3-0.9 0.3-1.4 0.2-1.8-0.7-3.6-1.9-5.3-3.7q0 0-0.1-0.1 0 0 0 0-0.1 0-0.2 0.1l-2.8 1.6c0.7 0.9 1.6 1.8 2.7 2.6 1.9 1.5 4.1 2.4 6.5 2.8 0.7 0.1 1.3 0.8 1.3 1.5v2.7c0 0 0 0.1 0 0.1h3c0 0 0-0.1 0-0.1v-2.7c0-0.8 0.6-1.4 1.3-1.5q3.2-0.5 5.5-2z"/>
				<path class="s1" d="m82 63.7q0 1.8 1.9 2.5v-4.9q-0.1 0.1-0.2 0.1-1.8 0.8-1.7 2.3z"/>
			</g>
		</g>
	</g>
</svg>