<?xml version="1.0" encoding="UTF-8"?><svg id="Capa_2" xmlns="http://www.w3.org/2000/svg" viewBox="0 0 118.24 124.42"><defs><style>.cls-1{font-family:Poppins-Regular, Poppins;font-size:14px;}.cls-1,.cls-2{fill:#fff;}.cls-2{stroke-width:0px;}</style></defs><g id="Segunda_pantalla"><text class="cls-1" transform="translate(0 99.61)"><tspan x="0" y="0">Situación laboral</tspan><tspan x="9.25" y="16.8">y ocupacional</tspan></text><path class="cls-2" d="M61.23,46.5v6.06c.22-.1.44-.21.65-.33,1.14-.7,1.72-1.68,1.73-2.94.01-1.36-.79-2.28-2.38-2.78Z"/><path class="cls-2" d="M93.55,13.62h-12.94v-2.82c0-5.96-4.85-10.8-10.8-10.8h-23.62c-5.96,0-10.8,4.84-10.8,10.8v2.82h-12.94c-4.68,0-8.49,3.81-8.49,8.49v43.28c0,4.68,3.81,8.49,8.49,8.49h71.1c4.68,0,8.49-3.81,8.49-8.49V22.11c0-4.68-3.81-8.49-8.49-8.49ZM98.98,65.39c0,2.99-2.43,5.42-5.42,5.42H22.45c-2.99,0-5.42-2.43-5.42-5.42V22.11c0-2.99,2.43-5.42,5.42-5.42h14.47c.85,0,1.53-.69,1.53-1.53v-4.35c0-4.27,3.47-7.74,7.73-7.74h23.62c4.26,0,7.73,3.47,7.73,7.74v4.35c0,.85.69,1.53,1.53,1.53h14.47c2.99,0,5.42,2.43,5.42,5.42v43.28Z"/><path class="cls-2" d="M69.81,6.95h-23.62c-2.12,0-3.84,1.73-3.84,3.85v4.35c0,.85.69,1.53,1.53,1.53h5.86s.05,0,.08,0h1.17s.06,0,.08,0h1.88s.05,0,.08,0h9.93s.05,0,.08,0h1.88s.05,0,.08,0h1.17s.06,0,.08,0h5.86c.85,0,1.53-.69,1.53-1.53v-4.35c0-2.12-1.72-3.85-3.84-3.85ZM70.59,13.62h-4.41s-.05,0-.08,0h-1.01s-.05,0-.08,0h-2.04s-.05,0-.08,0h-9.77s-.06,0-.08,0h-2.04s-.05,0-.08,0h-1.01s-.06,0-.08,0h-4.41v-2.82c0-.43.35-.78.78-.78h23.62c.43,0,.78.35.78.78v2.82Z"/><path class="cls-2" d="M62.76,38.76v-1.38c.55.32,1.18.49,1.84.49h0c.73,0,1.48-.35,1.69-.46.03-.01.05-.03.08-.04.02-.01.04-.02.06-.03l3.3-2.07c.89-.56,1.39-1.4,1.4-2.36.01-.77-.28-1.47-.86-2.03-2-2.25-4.51-3.76-7.5-4.52v-1.87c0-1.73-1.41-3.13-3.14-3.13h-2.94c-1.73,0-3.14,1.41-3.14,3.13v1.75c-1.16.25-2.24.6-3.22,1.05-5.65,2.58-6.77,6.58-6.72,9.49.04,2.08.68,3.95,1.89,5.55,1.75,2.35,4.45,3.93,8.05,4.7v3.12c-.69-.48-1.37-1.07-2.02-1.77-.61-.76-1.48-1.17-2.45-1.17h-.01c-.51,0-1.09.21-1.49.38-.02,0-.04.02-.06.03-.04.02-.08.04-.12.06l-2.99,1.75c-1,.58-1.54,1.48-1.52,2.52.01.66.25,1.27.68,1.78.86,1.19,2.01,2.33,3.41,3.39,1.96,1.51,4.16,2.55,6.57,3.11v1.46c0,1.73,1.41,3.13,3.14,3.13h2.94c1.73,0,3.14-1.41,3.14-3.13v-1.45c2.04-.44,3.87-1.19,5.45-2.22,0,0,0,0,0,0,3.17-2.1,4.82-5.04,4.9-8.73.05-2.36-.63-4.4-2.01-6.07-1.88-2.24-4.68-3.74-8.33-4.46ZM66.52,55.47c-1.53,1-3.38,1.67-5.52,1.99-.75.11-1.31.76-1.31,1.52v2.73s-.03.07-.07.07h-2.94s-.07-.03-.07-.07v-2.72c0-.75-.55-1.39-1.29-1.51-2.4-.38-4.58-1.31-6.48-2.78-1.14-.86-2.06-1.77-2.74-2.7l2.77-1.62c.08-.03.17-.06.23-.08.02,0,.04.02.04.02.03.04.06.08.1.11,1.64,1.78,3.44,3.02,5.34,3.69.47.17.99.09,1.39-.19.41-.29.65-.75.65-1.25v-6.91c0-.76-.55-1.4-1.3-1.51-3.43-.53-5.91-1.79-7.37-3.75-.83-1.1-1.25-2.33-1.27-3.77-.05-2.94,1.56-5.11,4.93-6.65,1.07-.49,2.32-.84,3.69-1.03.76-.11,1.32-.75,1.32-1.52v-3.03s.03-.07.07-.07h2.94s.07.03.07.07v3.12c0,.74.54,1.38,1.27,1.51,2.84.49,5.1,1.71,6.91,3.7l-3.01,1.88c-.09.04-.24.1-.26.11-.16,0-.27-.04-.37-.13-.73-.63-1.52-1.15-2.35-1.54-.47-.22-1.03-.19-1.47.09-.44.28-.71.77-.71,1.3v5.53c0,.76.56,1.41,1.32,1.52,3.53.49,6.13,1.71,7.72,3.61.91,1.1,1.34,2.43,1.3,4.05-.05,2.66-1.2,4.7-3.52,6.24Z"/><path class="cls-2" d="M53.15,36.77c0,1.18.66,2.01,1.94,2.5v-4.9c-.07.03-.15.05-.23.09-1.15.55-1.72,1.32-1.71,2.31Z"/></g></svg>