<svg version="1.2" xmlns="http://www.w3.org/2000/svg" viewBox="0 0 187 187" width="187" height="187">
	<title>adaptacion-svg</title>
	<style>
		.s0 { fill: #d8a568 } 
		.s1 { fill: #ffffff } 
	</style>
	<g id="Segunda_pantalla">
		<g>
			<path class="s0" d="m25.4 8.5h122.9c9.2 0 16.6 7.4 16.6 16.6v122.9c0 9.1-7.4 16.6-16.6 16.6h-122.9c-9.1 0-16.6-7.5-16.6-16.6v-122.9c0-9.2 7.5-16.6 16.6-16.6z"/>
			<g>
				<g>
					<path id="Adaptación a" class="s1" aria-label="Adaptación a"  d="m47 117h1.3l-3.5-9.7h-1.5l-3.5 9.7h1.3l0.8-2.2h4.3zm-1.2-3.2h-3.5l1.8-4.9zm3.5-0.7c0 2.4 1.6 4 3.6 4 1.4 0 2.4-0.7 2.9-1.5v1.4h1.3v-10.4h-1.3v4.1c-0.5-0.9-1.6-1.5-2.8-1.5-2.1 0-3.7 1.5-3.7 3.9zm6.5 0.1c0 1.8-1.2 2.8-2.6 2.8-1.4 0-2.6-1.1-2.6-2.9 0-1.8 1.2-2.8 2.6-2.8 1.4 0 2.6 1.1 2.6 2.9zm3-0.1c0 2.4 1.6 4 3.6 4 1.4 0 2.4-0.7 2.9-1.5v1.4h1.3v-7.7h-1.3v1.4c-0.5-0.8-1.5-1.5-2.9-1.5-2 0-3.6 1.5-3.6 3.9zm6.5 0.1c0 1.8-1.2 2.8-2.6 2.8-1.4 0-2.6-1.1-2.6-2.9 0-1.8 1.2-2.8 2.6-2.8 1.4 0 2.6 1.1 2.6 2.9zm4.7-2.5v-1.4h-1.3v11.3h1.3v-5c0.5 0.8 1.5 1.5 2.9 1.5 2 0 3.6-1.6 3.6-4 0-2.4-1.6-3.9-3.6-3.9-1.4 0-2.5 0.7-2.9 1.5zm5.2 2.4c0 1.8-1.2 2.9-2.6 2.9-1.4 0-2.6-1-2.6-2.8 0-1.8 1.2-2.9 2.6-2.9 1.4 0 2.6 1 2.6 2.8zm3.3 1.8c0 1.5 0.7 2.1 2.1 2.1h1.1v-1.1h-0.9c-0.8 0-1.1-0.2-1.1-1v-4.5h2v-1.1h-2v-1.9h-1.2v1.9h-1v1.1h1zm4.3-1.8c0 2.4 1.6 4 3.6 4 1.4 0 2.4-0.7 2.9-1.5v1.4h1.3v-7.7h-1.3v1.4c-0.5-0.8-1.4-1.5-2.9-1.5-2 0-3.6 1.5-3.6 3.9zm6.5 0c0 1.8-1.2 2.9-2.6 2.9-1.4 0-2.6-1.1-2.6-2.9 0-1.8 1.2-2.8 2.6-2.8 1.4 0 2.6 1.1 2.6 2.8zm3 0c0 2.5 1.5 4 3.7 4 1.9 0 3.1-1.1 3.5-2.6h-1.3c-0.3 1-1.1 1.5-2.2 1.5-1.4 0-2.4-1-2.4-2.9 0-1.8 1-2.8 2.4-2.8 1.1 0 1.9 0.5 2.2 1.5h1.3c-0.4-1.6-1.6-2.6-3.5-2.6-2.2 0-3.7 1.5-3.7 3.9zm8.9 3.9h1.3v-7.7h-1.3zm0.7-8.9c0.5 0 0.8-0.4 0.8-0.9 0-0.5-0.3-0.8-0.8-0.8-0.5 0-0.9 0.3-0.9 0.8 0 0.5 0.4 0.9 0.9 0.9zm10.1 5.1c0-2.5-1.7-4-3.9-4-2.2 0-3.9 1.5-3.9 4 0 2.4 1.7 3.9 3.8 3.9 2.2 0 4-1.5 4-3.9zm-6.5 0c0-2 1.2-2.9 2.6-2.9 1.3 0 2.6 0.9 2.6 2.9 0 1.9-1.3 2.8-2.7 2.8-1.3 0-2.5-0.9-2.5-2.8zm1-5.5v1l3-1.6v-1.1zm12.7 9.3h1.3v-4.6c0-2.2-1.4-3.3-3.1-3.3-1.1 0-2 0.5-2.5 1.3v-1.1h-1.3v7.7h1.3v-4.3c0-1.6 0.9-2.4 2.2-2.4 1.3 0 2.1 0.7 2.1 2.3zm6.6-3.8c0 2.3 1.6 3.9 3.7 3.9 1.4 0 2.4-0.7 2.8-1.5v1.4h1.3v-7.7h-1.3v1.4c-0.4-0.8-1.4-1.5-2.8-1.5-2.1 0-3.7 1.6-3.7 4zm6.5 0c0 1.8-1.2 2.8-2.6 2.8-1.4 0-2.6-1-2.6-2.8 0-1.9 1.2-2.9 2.6-2.9 1.4 0 2.6 1.1 2.6 2.9z"/>
					<path id="la ciudad y a la" class="s1" aria-label="la ciudad y a la"  d="m34.4 134h1.3v-10.4h-1.3zm3-3.8c0 2.4 1.6 4 3.6 4 1.4 0 2.4-0.8 2.9-1.6v1.4h1.3v-7.6h-1.3v1.4c-0.5-0.8-1.4-1.6-2.9-1.6-2 0-3.6 1.6-3.6 4zm6.5 0c0 1.8-1.2 2.8-2.6 2.8-1.4 0-2.6-1-2.6-2.8 0-1.8 1.2-2.9 2.6-2.9 1.4 0 2.6 1.1 2.6 2.9zm6.7 0c0 2.4 1.5 4 3.7 4 1.9 0 3.2-1.1 3.6-2.6h-1.4c-0.3 0.9-1 1.5-2.2 1.5-1.4 0-2.4-1-2.4-2.9 0-1.9 1-2.9 2.4-2.9 1.2 0 1.9 0.6 2.2 1.5h1.4c-0.4-1.6-1.7-2.6-3.6-2.6-2.2 0-3.7 1.6-3.7 4zm9 3.8h1.2v-7.6h-1.2zm0.6-9c0.5 0 0.9-0.3 0.9-0.8 0-0.5-0.4-0.9-0.9-0.9-0.5 0-0.8 0.4-0.8 0.9 0 0.5 0.3 0.8 0.8 0.8zm9.6 1.3h-1.3v4.2c0 1.7-0.8 2.5-2.2 2.5-1.2 0-2.1-0.8-2.1-2.4v-4.3h-1.3v4.5c0 2.2 1.4 3.3 3.2 3.3 1 0 1.9-0.5 2.4-1.3v1.2h1.3zm1.7 3.8c0 2.4 1.6 4 3.6 4 1.4 0 2.4-0.7 2.9-1.6v1.4h1.3v-10.3h-1.3v4c-0.5-0.8-1.7-1.5-2.9-1.5-2 0-3.6 1.6-3.6 4zm6.5 0c0 1.8-1.2 2.8-2.6 2.8-1.4 0-2.6-1-2.6-2.8 0-1.8 1.2-2.9 2.6-2.9 1.4 0 2.6 1.1 2.6 2.9zm3 0c0 2.4 1.5 4 3.6 4 1.4 0 2.4-0.8 2.9-1.6v1.4h1.2v-7.6h-1.2v1.4c-0.5-0.8-1.5-1.6-2.9-1.6-2.1 0-3.6 1.6-3.6 4zm6.5 0c0 1.8-1.3 2.8-2.7 2.8-1.4 0-2.5-1-2.5-2.8 0-1.8 1.1-2.9 2.5-2.9 1.4 0 2.7 1.1 2.7 2.9zm2.9 0c0 2.4 1.6 4 3.7 4 1.4 0 2.4-0.7 2.8-1.6v1.4h1.3v-10.3h-1.3v4c-0.5-0.8-1.6-1.5-2.8-1.5-2.1 0-3.7 1.6-3.7 4zm6.5 0c0 1.8-1.2 2.8-2.6 2.8-1.4 0-2.6-1-2.6-2.8 0-1.8 1.2-2.9 2.6-2.9 1.4 0 2.6 1.1 2.6 2.9zm10.1 2.4l-2.4-6.2h-1.4l3.1 7.6-1.5 3.7h1.3l4.6-11.3h-1.3zm8.2-2.4c0 2.3 1.6 4 3.6 4 1.5-0.1 2.5-0.8 2.9-1.6v1.4h1.3v-7.6h-1.3v1.4c-0.4-0.8-1.4-1.6-2.8-1.6-2.1 0-3.7 1.6-3.7 4zm6.5 0c0 1.8-1.2 2.8-2.6 2.8-1.4 0-2.6-1-2.6-2.8 0-1.8 1.2-2.9 2.6-2.9 1.4 0 2.6 1.1 2.6 2.9zm7.2 3.8h1.3v-10.3h-1.3zm3-3.9c0 2.4 1.5 4 3.6 4 1.4 0 2.4-0.7 2.9-1.6v1.5h1.3v-7.7h-1.3v1.4c-0.5-0.8-1.5-1.5-2.9-1.5-2.1 0-3.6 1.5-3.6 3.9zm6.5 0c0 1.8-1.2 2.9-2.6 2.9-1.4 0-2.6-1.1-2.6-2.9 0-1.8 1.2-2.8 2.6-2.8 1.4 0 2.6 1 2.6 2.8z"/>
					<path id="universidad" class="s1" aria-label="universidad"  d="m53.8 143.3h-1.3v4.2c0 1.7-0.9 2.5-2.2 2.5-1.3 0-2.1-0.8-2.1-2.3v-4.4h-1.3v4.5c0 2.2 1.4 3.3 3.2 3.3 1 0 1.9-0.4 2.4-1.2v1.1h1.3zm7.8 7.7h1.2v-4.6c0-2.1-1.3-3.2-3.1-3.2-1 0-2 0.4-2.5 1.2v-1.1h-1.3v7.7h1.3v-4.3c0-1.6 0.9-2.4 2.2-2.4 1.3 0 2.2 0.8 2.2 2.3zm3.3 0h1.3v-7.6h-1.3zm0.7-9c0.4 0 0.8-0.3 0.8-0.8 0-0.5-0.4-0.9-0.8-0.9-0.5 0-0.9 0.4-0.9 0.9 0 0.5 0.4 0.8 0.9 0.8zm1.8 1.3l3.1 7.7h1.4l3-7.7h-1.3l-2.4 6.5-2.4-6.5zm12 0.9c1.4 0 2.5 0.9 2.5 2.4h-4.9c0.2-1.5 1.2-2.4 2.4-2.4zm3.6 4.4h-1.3c-0.3 0.8-1.1 1.4-2.2 1.4-1.3 0-2.4-0.8-2.5-2.4h6.1c0.1-0.3 0.1-0.5 0.1-0.8 0-2.1-1.5-3.6-3.7-3.6-2.2 0-3.8 1.5-3.8 3.9 0 2.4 1.6 4 3.8 4 1.9 0 3.1-1.1 3.5-2.5zm3.1-1.8c0-1.8 1-2.3 2.2-2.3h0.3v-1.4c-1.2 0-2 0.6-2.5 1.4v-1.2h-1.2v7.7h1.2zm9.5 2c-0.1-2.7-4.5-1.7-4.5-3.5 0-0.6 0.5-1.1 1.5-1.1 1 0 1.6 0.6 1.7 1.3h1.2c-0.1-1.5-1.2-2.4-2.9-2.4-1.7 0-2.8 1-2.8 2.2 0 2.8 4.5 1.8 4.5 3.5 0 0.7-0.5 1.2-1.5 1.2-1.1 0-1.8-0.6-1.8-1.3h-1.3c0 1.4 1.3 2.4 3.1 2.4 1.7 0 2.8-1 2.8-2.3zm1.8 2.1h1.3v-7.6h-1.3zm0.6-9c0.5 0 0.9-0.3 0.9-0.8 0-0.5-0.4-0.9-0.9-0.9-0.4 0-0.8 0.4-0.8 0.9 0 0.5 0.4 0.8 0.8 0.8zm2.4 5.1c0 2.4 1.5 4 3.6 4 1.4 0 2.4-0.7 2.9-1.6v1.5h1.2v-10.4h-1.2v4.1c-0.6-0.9-1.7-1.5-2.9-1.5-2.1 0-3.6 1.5-3.6 3.9zm6.5 0c0 1.8-1.3 2.9-2.7 2.9-1.4 0-2.5-1.1-2.5-2.9 0-1.8 1.1-2.8 2.5-2.8 1.4 0 2.7 1 2.7 2.8zm2.9 0c0 2.4 1.6 4 3.6 4 1.5 0 2.5-0.7 2.9-1.6v1.5h1.3v-7.7h-1.3v1.4c-0.4-0.8-1.4-1.5-2.8-1.5-2.1 0-3.7 1.5-3.7 3.9zm6.5 0c0 1.8-1.2 2.9-2.6 2.9-1.4 0-2.6-1.1-2.6-2.9 0-1.8 1.2-2.8 2.6-2.8 1.4 0 2.6 1 2.6 2.8zm3 0c0 2.4 1.6 4 3.6 4 1.4 0 2.4-0.7 2.9-1.6v1.5h1.3v-10.4h-1.3v4.1c-0.6-0.9-1.7-1.5-2.9-1.5-2 0-3.6 1.5-3.6 3.9zm6.5 0c0 1.8-1.2 2.9-2.6 2.9-1.4 0-2.6-1.1-2.6-2.9 0-1.8 1.2-2.8 2.6-2.8 1.4 0 2.6 1 2.6 2.8z"/>
				</g>
				<g>
					<path fill-rule="evenodd" class="s1" d="m129.3 59.6c0.8 0 1.5 0.7 1.5 1.6v33.3c0 0.8-0.7 1.5-1.5 1.5h-84.8c-0.8 0-1.5-0.6-1.5-1.5v-46.5c0-0.9 0.7-1.5 1.5-1.5h26.6v-10.1c0-0.9 0.7-1.6 1.5-1.6h28.6c0.8 0 1.5 0.7 1.5 1.6v23.3zm-16.6 33.9h5v-13.3h-5zm15-0.6v-30.3h-25v30.3h8.1v-13.5c0-0.5 0.5-0.9 1-0.9h6.9c0.5 0 0.9 0.4 0.9 0.9v13.5zm-81.7-43.4v43.4h8.2v-13.5c0-0.5 0.4-0.9 0.9-0.9h6.9c0.5 0 0.9 0.4 0.9 0.9v13.5h8.1v-43.4zm10 44h5.1v-13.2h-5.1zm43.6-32.6v-23.1h-25.5v55.1h8v-13.6c0-0.5 0.4-0.9 0.9-0.9h6.9c0.5 0 0.9 0.4 0.9 0.9v13.6h8.8v-31.9q0 0 0-0.1zm-10.6 32.6v-13.3h-5.1v13.3z"/>
					<path fill-rule="evenodd" class="s1" d="m86.1 44.6v6.8c0 0.5-0.4 0.9-0.9 0.9h-6.8c-0.5 0-0.9-0.4-0.9-0.9v-6.8c0-0.5 0.4-0.9 0.9-0.9h6.8c0.5 0 0.9 0.4 0.9 0.9zm-1.8 0.9h-5v5h5z"/>
					<path fill-rule="evenodd" class="s1" d="m96.5 44.6v6.8c0 0.5-0.4 0.9-0.9 0.9h-6.8c-0.5 0-0.9-0.4-0.9-0.9v-6.8c0-0.5 0.4-0.9 0.9-0.9h6.8c0.5 0 0.9 0.4 0.9 0.9zm-1.8 0.9h-5v5h5z"/>
					<path fill-rule="evenodd" class="s1" d="m86.1 55.8v6.8c0 0.5-0.4 0.9-0.9 0.9h-6.8c-0.5 0-0.9-0.4-0.9-0.9v-6.8c0-0.5 0.4-0.9 0.9-0.9h6.8c0.5 0 0.9 0.4 0.9 0.9zm-1.8 0.9h-5v5h5z"/>
					<path fill-rule="evenodd" class="s1" d="m96.5 55.8v6.8c0 0.5-0.4 0.9-0.9 0.9h-6.8c-0.5 0-0.9-0.4-0.9-0.9v-6.8c0-0.5 0.4-0.9 0.9-0.9h6.8c0.5 0 0.9 0.4 0.9 0.9zm-1.8 0.9h-5v5h5z"/>
					<path fill-rule="evenodd" class="s1" d="m86.1 66.9v6.8c0 0.5-0.4 1-0.9 1h-6.8c-0.5 0-0.9-0.5-0.9-1v-6.8c0-0.5 0.4-0.9 0.9-0.9h6.8c0.5 0 0.9 0.4 0.9 0.9zm-1.8 0.9h-5v5h5z"/>
					<path fill-rule="evenodd" class="s1" d="m96.5 66.9v6.8c0 0.5-0.4 1-0.9 1h-6.8c-0.5 0-0.9-0.5-0.9-1v-6.8c0-0.5 0.4-0.9 0.9-0.9h6.8c0.5 0 0.9 0.4 0.9 0.9zm-1.8 0.9h-5v5h5z"/>
					<path fill-rule="evenodd" class="s1" d="m49.1 62.6v-6.8c0-0.5 0.4-0.9 0.9-0.9h6.8c0.5 0 0.9 0.4 0.9 0.9v6.8c0 0.5-0.4 0.9-0.9 0.9h-6.8c-0.5 0-0.9-0.4-0.9-0.9zm1.8-0.9h5v-5h-5z"/>
					<path fill-rule="evenodd" class="s1" d="m59.4 62.6v-6.8c0-0.5 0.4-0.9 0.9-0.9h6.9c0.5 0 0.9 0.4 0.9 0.9v6.8c0 0.5-0.4 0.9-0.9 0.9h-6.9c-0.5 0-0.9-0.4-0.9-0.9zm1.9-0.9h5v-5h-5z"/>
					<path fill-rule="evenodd" class="s1" d="m50 74.7c-0.5 0-0.9-0.4-0.9-0.9v-6.8c0-0.5 0.4-1 0.9-1h6.8c0.5 0 0.9 0.4 0.9 1v6.8c0 0.5-0.4 0.9-0.9 0.9zm0.9-1.9h5v-5h-5z"/>
					<path fill-rule="evenodd" class="s1" d="m59.4 73.8v-6.8c0-0.5 0.4-1 0.9-1h6.9c0.5 0 0.9 0.4 0.9 1v6.8c0 0.5-0.4 0.9-0.9 0.9h-6.9c-0.5 0-0.9-0.4-0.9-0.9zm1.9-1h5v-5h-5z"/>
					<path fill-rule="evenodd" class="s1" d="m105.7 73.8v-6.8c0-0.5 0.4-1 0.9-1h6.8c0.5 0 0.9 0.4 0.9 1v6.8c0 0.5-0.4 0.9-0.9 0.9h-6.8c-0.5 0-0.9-0.4-0.9-0.9zm1.8-1h5v-5h-5z"/>
					<path fill-rule="evenodd" class="s1" d="m116.1 73.8v-6.8c0-0.5 0.4-1 0.9-1h6.8c0.5 0 0.9 0.4 0.9 1v6.8c0 0.5-0.4 0.9-0.9 0.9h-6.8c-0.5 0-0.9-0.4-0.9-0.9zm1.8-1h5v-5h-5z"/>
				</g>
			</g>
		</g>
	</g>
</svg>