<?xml version="1.0" encoding="UTF-8"?><svg id="Capa_2" xmlns="http://www.w3.org/2000/svg" viewBox="0 0 107.41 123.71"><defs><style>.cls-1{font-family:Poppins-Regular, Poppins;font-size:14px;}.cls-1,.cls-2{fill:#fff;}.cls-2{stroke-width:0px;}</style></defs><g id="Segunda_pantalla"><text class="cls-1" transform="translate(5.98 82.1)"><tspan x="0" y="0">Adaptación a</tspan><tspan x="-5.98" y="16.8">la ciudad y a la</tspan><tspan x="6.59" y="33.6">universidad</tspan></text><path class="cls-2" d="M95.9,24.81h-26.56V1.52c0-.84-.68-1.52-1.52-1.52h-28.53c-.84,0-1.52.68-1.52,1.52v10.11H11.18c-.84,0-1.52.68-1.52,1.52v46.52c0,.84.68,1.52,1.52,1.52h84.73c.84,0,1.52-.68,1.52-1.52V26.33c0-.84-.68-1.52-1.52-1.52ZM79.31,45.5h5.08v13.27h-5.08v-13.27ZM94.38,58.15h-8.16v-13.57c0-.5-.41-.91-.91-.91h-6.91c-.5,0-.91.41-.91.91v13.57h-8.16v-30.29h25.06v30.29ZM12.7,14.68h25.06v43.47h-8.16v-13.57c0-.5-.41-.91-.91-.91h-6.91c-.5,0-.91.41-.91.91v13.57h-8.16V14.68ZM22.69,45.5h5.08v13.27h-5.08v-13.27ZM66.27,26.33v31.82h-8.76v-13.57c0-.5-.41-.91-.91-.91h-6.91c-.5,0-.91.41-.91.91v13.57h-7.97V3.05h25.48v23.1c0,.06-.02.12-.02.18ZM50.61,58.76v-13.27h5.08v13.27h-5.08Z"/><path class="cls-2" d="M51.89,8.83h-6.82c-.5,0-.91.41-.91.91v6.83c0,.5.41.91.91.91h6.82c.5,0,.91-.41.91-.91v-6.83c0-.5-.41-.91-.91-.91ZM50.97,15.66h-5v-5h5v5Z"/><path class="cls-2" d="M62.25,8.83h-6.82c-.5,0-.91.41-.91.91v6.83c0,.5.41.91.91.91h6.82c.5,0,.91-.41.91-.91v-6.83c0-.5-.41-.91-.91-.91ZM61.33,15.66h-5v-5h5v5Z"/><path class="cls-2" d="M51.89,20.01h-6.82c-.5,0-.91.41-.91.91v6.82c0,.5.41.91.91.91h6.82c.5,0,.91-.41.91-.91v-6.82c0-.51-.41-.91-.91-.91ZM50.97,26.83h-5v-5h5v5Z"/><path class="cls-2" d="M62.25,20.01h-6.82c-.5,0-.91.41-.91.91v6.82c0,.5.41.91.91.91h6.82c.5,0,.91-.41.91-.91v-6.82c0-.51-.41-.91-.91-.91ZM61.33,26.83h-5v-5h5v5Z"/><path class="cls-2" d="M51.89,31.18h-6.82c-.5,0-.91.41-.91.91v6.82c0,.5.41.91.91.91h6.82c.5,0,.91-.41.91-.91v-6.82c0-.51-.41-.91-.91-.91ZM50.97,38h-5v-5h5v5Z"/><path class="cls-2" d="M62.25,31.18h-6.82c-.5,0-.91.41-.91.91v6.82c0,.5.41.91.91.91h6.82c.5,0,.91-.41.91-.91v-6.82c0-.51-.41-.91-.91-.91ZM61.33,38h-5v-5h5v5Z"/><path class="cls-2" d="M16.64,28.66h6.82c.5,0,.91-.41.91-.91v-6.82c0-.51-.41-.91-.91-.91h-6.82c-.5,0-.91.41-.91.91v6.82c0,.5.41.91.91.91ZM17.55,21.83h4.99v5h-4.99v-5Z"/><path class="cls-2" d="M27,28.66h6.82c.5,0,.91-.41.91-.91v-6.82c0-.51-.41-.91-.91-.91h-6.82c-.5,0-.91.41-.91.91v6.82c0,.5.41.91.91.91ZM27.92,21.83h5v5h-5v-5Z"/><path class="cls-2" d="M23.46,39.83c.5,0,.91-.41.91-.91v-6.82c0-.51-.41-.91-.91-.91h-6.82c-.5,0-.91.41-.91.91v6.82c0,.5.41.91.91.91h6.82ZM17.55,33.01h4.99v5h-4.99v-5Z"/><path class="cls-2" d="M27,39.83h6.82c.5,0,.91-.41.91-.91v-6.82c0-.51-.41-.91-.91-.91h-6.82c-.5,0-.91.41-.91.91v6.82c0,.5.41.91.91.91ZM27.92,33.01h5v5h-5v-5Z"/><path class="cls-2" d="M73.26,39.83h6.82c.5,0,.91-.41.91-.91v-6.82c0-.51-.41-.91-.91-.91h-6.82c-.5,0-.91.41-.91.91v6.82c0,.5.41.91.91.91ZM74.17,33.01h5v5h-5v-5Z"/><path class="cls-2" d="M83.62,39.83h6.82c.5,0,.91-.41.91-.91v-6.82c0-.51-.41-.91-.91-.91h-6.82c-.5,0-.91.41-.91.91v6.82c0,.5.41.91.91.91ZM84.53,33.01h5v5h-5v-5Z"/></g></svg>