<?xml version="1.0" encoding="UTF-8"?><svg id="Capa_2" xmlns="http://www.w3.org/2000/svg" viewBox="0 0 128.01 120.33"><defs><style>.cls-1{font-family:Poppins-SemiBold, Poppins;font-size:19.68px;font-weight:600;}.cls-1,.cls-2{fill:#fff;}.cls-2{stroke-width:0px;}</style></defs><g id="Capa_1-2"><path class="cls-2" d="M90.06,50.41c-2.53,0-4.58,2.06-4.58,4.58v3.08c-1.19-.92-2.67-1.48-4.29-1.48-3.71,0-6.74,2.9-6.98,6.55h-9.7c-.23-3.65-3.27-6.55-6.98-6.55-2.32,0-4.37,1.14-5.64,2.88-1.28-1.74-3.33-2.88-5.65-2.88-1.62,0-3.1.56-4.29,1.48v-3.08c0-2.53-2.06-4.58-4.58-4.58s-4.58,2.06-4.58,4.58v52.87c-1.93,1.18-3.22,3.31-3.22,5.74,0,3.71,3.02,6.73,6.73,6.73h55.38c3.71,0,6.73-3.02,6.73-6.73,0-2.64-1.54-4.93-3.76-6.03v-52.57c0-2.53-2.06-4.58-4.58-4.58ZM88.19,78.65v-23.66c0-1.03.84-1.87,1.87-1.87s1.87.84,1.87,1.87v51.88c-.09,0-.17-.01-.26-.01h-3.48v-28.21ZM81.19,59.31c2.37,0,4.29,1.92,4.29,4.29s-1.92,4.29-4.29,4.29-4.29-1.92-4.29-4.29,1.93-4.29,4.29-4.29ZM57.53,59.31c2.37,0,4.29,1.92,4.29,4.29s-1.92,4.29-4.29,4.29-4.29-1.92-4.29-4.29,1.92-4.29,4.29-4.29ZM51.89,67.72c1.27,1.74,3.33,2.88,5.64,2.88,3.55,0,6.49-2.66,6.94-6.1h9.78c.45,3.43,3.38,6.1,6.94,6.1,1.62,0,3.1-.56,4.29-1.48v4.01c-1.19-.92-2.67-1.48-4.29-1.48-2.68,0-5.01,1.51-6.18,3.72-1.18-2.21-3.51-3.72-6.18-3.72-3.71,0-6.74,2.9-6.98,6.55h-19.89v-9.08c1.19.92,2.67,1.48,4.29,1.48,2.32,0,4.37-1.14,5.65-2.88ZM68.82,102.32c3.63,0,6.62-2.78,6.97-6.33h9.69v10.87h-43.53v-6.02c1.19.92,2.67,1.48,4.29,1.48,3.63,0,6.62-2.78,6.97-6.33h8.65c.34,3.54,3.33,6.33,6.97,6.33ZM64.53,95.32c0-2.36,1.92-4.29,4.29-4.29s4.29,1.92,4.29,4.29-1.92,4.29-4.29,4.29-4.29-1.93-4.29-4.29ZM75.79,94.64c-.34-3.54-3.34-6.32-6.97-6.32s-6.63,2.78-6.97,6.32h-8.65c-.34-3.54-3.34-6.32-6.97-6.32-1.62,0-3.1.56-4.29,1.48v-10.24h19.93c.45,3.43,3.38,6.1,6.94,6.1,2.68,0,5-1.51,6.18-3.72,1.18,2.21,3.51,3.72,6.18,3.72,1.62,0,3.1-.56,4.29-1.48v10.47h-9.69ZM64.53,78.65c0-2.36,1.92-4.29,4.29-4.29s4.29,1.92,4.29,4.29-1.92,4.29-4.29,4.29-4.29-1.92-4.29-4.29ZM81.19,82.94c-2.36,0-4.29-1.92-4.29-4.29s1.93-4.29,4.29-4.29,4.29,1.92,4.29,4.29-1.92,4.29-4.29,4.29ZM46.24,59.31c2.36,0,4.29,1.92,4.29,4.29h0c0,2.37-1.92,4.29-4.29,4.29s-4.29-1.92-4.29-4.29,1.92-4.29,4.29-4.29ZM46.24,91.03c2.37,0,4.29,1.92,4.29,4.29s-1.92,4.29-4.29,4.29-4.29-1.93-4.29-4.29,1.92-4.29,4.29-4.29ZM35.5,55c0-1.03.84-1.87,1.87-1.87s1.87.84,1.87,1.87v8.58s0,.01,0,.02,0,.01,0,.02v31.68s0,.01,0,.02c0,0,0,.01,0,.02v11.53h-2.95c-.27,0-.53.02-.79.05v-51.92ZM95.69,113.6c0,2.22-1.8,4.02-4.02,4.02h-55.38c-2.22,0-4.02-1.8-4.02-4.02s1.8-4.02,4.02-4.02h55.38c2.22,0,4.02,1.8,4.02,4.02Z"/><text class="cls-1" transform="translate(40.93 16.74)"><tspan x="0" y="0">Vida</tspan><tspan x="-40.93" y="23.61">Universitaria</tspan></text></g></svg>