<svg version="1.2" xmlns="http://www.w3.org/2000/svg" viewBox="0 0 187 187" width="187" height="187">
	<title>motivaciones-svg</title>
	<style>
		.s0 { fill: #d8a568 } 
		.s1 { fill: #ffffff } 
	</style>
	<g id="Segunda_pantalla">
		<g>
			<path class="s0" d="m25.3 8.5h122.9c9.2 0 16.6 7.4 16.6 16.6v122.9c0 9.1-7.4 16.6-16.6 16.6h-122.9c-9.1 0-16.6-7.5-16.6-16.6v-122.9c0-9.2 7.5-16.6 16.6-16.6z"/>
			<g>
				<g>
					<path id="Motivaciones " class="s1" aria-label="Motivaciones "  d="m41.5 117h1.3v-7.2l3.2 7.2h0.9l3.2-7.2v7.2h1.3v-9.7h-1.3l-3.6 8-3.6-8h-1.4zm19.4-3.8c0-2.5-1.7-4-3.9-4-2.2 0-3.9 1.5-3.9 4 0 2.4 1.6 3.9 3.8 3.9 2.2 0 4-1.5 4-3.9zm-6.5 0c0-2 1.2-2.9 2.6-2.9 1.3 0 2.5 0.9 2.5 2.9 0 1.9-1.3 2.8-2.6 2.8-1.3 0-2.5-0.9-2.5-2.8zm8.4 1.7c0 1.6 0.8 2.1 2.1 2.1h1.2v-1.1h-0.9c-0.8 0-1.1-0.2-1.1-1v-4.5h2v-1.1h-2v-1.9h-1.3v1.9h-1v1.1h1zm4.8 2.1h1.3v-7.7h-1.3zm0.7-8.9c0.4 0 0.8-0.4 0.8-0.9 0-0.5-0.4-0.8-0.8-0.8-0.5 0-0.9 0.3-0.9 0.8 0 0.5 0.4 0.9 0.9 0.9zm1.9 1.2l3 7.7h1.5l3-7.7h-1.4l-2.4 6.5-2.4-6.5zm8.3 3.9c0 2.3 1.6 3.9 3.6 3.9 1.5 0 2.5-0.7 2.9-1.5v1.4h1.3v-7.7h-1.3v1.4c-0.4-0.8-1.4-1.5-2.8-1.5-2.1 0-3.7 1.6-3.7 4zm6.5 0c0 1.8-1.2 2.8-2.6 2.8-1.4 0-2.6-1-2.6-2.8 0-1.9 1.2-2.9 2.6-2.9 1.4 0 2.6 1.1 2.6 2.9zm3 0c0 2.4 1.5 3.9 3.7 3.9 1.9 0 3.2-1 3.6-2.5h-1.4c-0.3 0.9-1 1.5-2.2 1.5-1.4 0-2.4-1-2.4-2.9 0-1.9 1-2.9 2.4-2.9 1.2 0 1.9 0.6 2.2 1.5h1.4c-0.4-1.6-1.7-2.6-3.6-2.6-2.2 0-3.7 1.6-3.7 4zm9 3.8h1.2v-7.7h-1.2zm0.6-8.9c0.5 0 0.9-0.3 0.9-0.8 0-0.5-0.4-0.9-0.9-0.9-0.5 0-0.9 0.4-0.9 0.9 0 0.5 0.4 0.8 0.9 0.8zm10.1 5.1c0-2.4-1.7-4-3.9-4-2.2 0-3.9 1.6-3.9 4 0 2.4 1.7 4 3.8 4 2.2 0 4-1.6 4-4zm-6.5 0c0-1.9 1.2-2.8 2.6-2.8 1.3 0 2.6 0.9 2.6 2.8 0 1.9-1.3 2.9-2.7 2.9-1.3 0-2.5-1-2.5-2.9zm13.8 3.8h1.2v-4.5c0-2.2-1.3-3.3-3.1-3.3-1 0-2 0.5-2.5 1.3v-1.1h-1.2v7.6h1.2v-4.2c0-1.6 0.9-2.5 2.2-2.5 1.3 0 2.2 0.8 2.2 2.4zm6.6-6.7c1.3 0 2.4 0.8 2.4 2.3h-4.8c0.1-1.5 1.1-2.3 2.4-2.3zm3.6 4.3h-1.4c-0.3 0.9-1 1.5-2.2 1.5-1.3 0-2.4-0.9-2.5-2.5h6.2c0-0.2 0-0.4 0-0.7 0-2.1-1.4-3.7-3.7-3.7-2.2 0-3.8 1.5-3.8 4 0 2.4 1.7 3.9 3.8 3.9 1.9 0 3.2-1.1 3.6-2.5zm7.3 0.3c0-2.7-4.5-1.7-4.5-3.6 0-0.6 0.6-1 1.5-1 1 0 1.6 0.5 1.7 1.3h1.3c-0.1-1.5-1.3-2.4-2.9-2.4-1.8 0-2.9 1-2.9 2.1 0 2.9 4.6 1.9 4.6 3.6 0 0.6-0.6 1.2-1.6 1.2-1.1 0-1.7-0.6-1.8-1.3h-1.3c0.1 1.4 1.3 2.3 3.1 2.3 1.7 0 2.8-0.9 2.8-2.2z"/>
					<path id="para el " class="s1" aria-label="para el "  d="m64.4 127.7v-1.4h-1.3v11.3h1.3v-5c0.5 0.8 1.5 1.5 2.9 1.5 2 0 3.6-1.6 3.6-4 0-2.4-1.6-3.9-3.6-3.9-1.4 0-2.4 0.7-2.9 1.5zm5.2 2.4c0 1.8-1.2 2.9-2.6 2.9-1.4 0-2.6-1-2.6-2.8 0-1.8 1.2-2.9 2.6-2.9 1.4 0 2.6 1 2.6 2.8zm2.5 0c0 2.4 1.6 4 3.7 4 1.4 0 2.4-0.7 2.8-1.5v1.4h1.3v-7.7h-1.3v1.4c-0.4-0.8-1.4-1.5-2.8-1.5-2.1 0-3.7 1.5-3.7 3.9zm6.5 0.1c0 1.8-1.2 2.8-2.6 2.8-1.4 0-2.6-1.1-2.6-2.9 0-1.8 1.2-2.8 2.6-2.8 1.4 0 2.6 1.1 2.6 2.9zm4.7-0.4c0-1.7 1-2.3 2.2-2.3h0.3v-1.3c-1.2 0-2 0.5-2.5 1.4v-1.3h-1.2v7.7h1.2zm3.5 0.3c0 2.4 1.6 4 3.6 4 1.5 0 2.4-0.7 2.9-1.6v1.5h1.3v-7.7h-1.3v1.4c-0.4-0.8-1.4-1.5-2.8-1.5-2.1 0-3.7 1.5-3.7 3.9zm6.5 0c0 1.8-1.2 2.9-2.6 2.9-1.4 0-2.6-1.1-2.6-2.9 0-1.8 1.2-2.8 2.6-2.8 1.4 0 2.6 1 2.6 2.8zm10.5-2.8c1.3 0 2.4 0.8 2.4 2.3h-4.9c0.2-1.5 1.2-2.3 2.5-2.3zm3.5 4.3h-1.3c-0.3 0.8-1 1.4-2.2 1.4-1.3 0-2.4-0.8-2.5-2.4h6.1c0.1-0.3 0.1-0.5 0.1-0.8 0-2.1-1.5-3.6-3.7-3.6-2.2 0-3.8 1.5-3.8 3.9 0 2.5 1.6 4 3.8 4 1.9 0 3.1-1.1 3.5-2.5zm1.9 2.4h1.2v-10.4h-1.2z"/>
					<path id="acompañamiento" class="s1" aria-label="acompañamiento"  d="m25.1 147.1c0 2.4 1.6 4 3.7 4 1.4 0 2.4-0.7 2.8-1.5v1.4h1.3v-7.7h-1.3v1.4c-0.4-0.8-1.4-1.5-2.8-1.5-2.1 0-3.7 1.5-3.7 3.9zm6.5 0.1c0 1.8-1.2 2.8-2.6 2.8-1.4 0-2.6-1.1-2.6-2.9 0-1.8 1.2-2.8 2.6-2.8 1.4 0 2.6 1.1 2.6 2.9zm3 0c0 2.4 1.6 3.9 3.7 3.9 1.9 0 3.2-1 3.6-2.6h-1.4c-0.3 1-1 1.5-2.2 1.5-1.4 0-2.4-0.9-2.4-2.8 0-1.9 1-2.9 2.4-2.9 1.2 0 1.9 0.6 2.2 1.5h1.4c-0.4-1.6-1.7-2.6-3.6-2.6-2.1 0-3.7 1.5-3.7 4zm16.3 0c0-2.5-1.7-4-3.9-4-2.2 0-3.9 1.5-3.9 4 0 2.4 1.7 3.9 3.8 3.9 2.2 0 4-1.5 4-3.9zm-6.5 0c0-2 1.2-2.9 2.6-2.9 1.3 0 2.6 0.9 2.6 2.9 0 1.9-1.3 2.8-2.7 2.8-1.3 0-2.5-0.9-2.5-2.8zm19.2 3.8h1.3v-4.5c0-2.2-1.4-3.3-3.1-3.3-1.2 0-2.3 0.6-2.8 1.7-0.5-1.2-1.5-1.7-2.8-1.7-1 0-1.9 0.4-2.4 1.2v-1.1h-1.3v7.7h1.3v-4.2c0-1.7 0.9-2.5 2.2-2.5 1.2 0 2.1 0.8 2.1 2.4v4.3h1.2v-4.2c0-1.7 0.9-2.5 2.2-2.5 1.3 0 2.1 0.8 2.1 2.4zm4.6-6.3v-1.4h-1.2v11.3h1.2v-5.1c0.5 0.8 1.5 1.6 2.9 1.6 2.1 0 3.6-1.6 3.6-4 0-2.4-1.5-3.9-3.6-3.9-1.4 0-2.4 0.7-2.9 1.5zm5.2 2.4c0 1.8-1.1 2.9-2.6 2.9-1.3 0-2.6-1.1-2.6-2.9 0-1.8 1.3-2.8 2.6-2.8 1.5 0 2.6 1 2.6 2.8zm2.5 0c0 2.4 1.6 4 3.7 4 1.4 0 2.4-0.7 2.8-1.6v1.5h1.3v-7.7h-1.3v1.4c-0.4-0.8-1.4-1.5-2.8-1.5-2.1 0-3.7 1.5-3.7 3.9zm6.5 0c0 1.8-1.2 2.9-2.6 2.9-1.4 0-2.6-1.1-2.6-2.9 0-1.8 1.2-2.8 2.6-2.8 1.4 0 2.6 1 2.6 2.8zm4.8-0.4c0-1.6 0.9-2.4 2.2-2.4 1.2 0 2.1 0.8 2.1 2.3v4.4h1.3v-4.6c0-2.2-1.4-3.3-3.2-3.3-1 0-1.9 0.5-2.4 1.3v-1.1h-1.3v7.7h1.3zm0.1-4.3h0.7c0.1-0.4 0.3-0.6 0.6-0.6 0.6 0 0.8 0.6 1.6 0.6 0.7 0 1.3-0.5 1.4-1.4h-0.7c-0.1 0.4-0.3 0.6-0.6 0.6-0.6 0-0.9-0.7-1.6-0.7-0.8 0-1.3 0.5-1.4 1.5zm7.1 4.6c0 2.4 1.6 4 3.6 4 1.4 0 2.4-0.7 2.9-1.5v1.4h1.3v-7.7h-1.3v1.4c-0.5-0.8-1.5-1.5-2.9-1.5-2 0-3.6 1.5-3.6 3.9zm6.5 0.1c0 1.8-1.2 2.8-2.6 2.8-1.4 0-2.6-1.1-2.6-2.9 0-1.8 1.2-2.8 2.6-2.8 1.4 0 2.6 1.1 2.6 2.9zm14.5 3.8h1.2v-4.5c0-2.2-1.3-3.3-3.1-3.3-1.1 0-2.2 0.6-2.7 1.7-0.5-1.2-1.5-1.7-2.8-1.7-1 0-1.9 0.4-2.4 1.2v-1.1h-1.3v7.7h1.3v-4.2c0-1.7 0.9-2.5 2.2-2.5 1.2 0 2.1 0.8 2.1 2.4v4.3h1.2v-4.2c0-1.7 0.9-2.5 2.2-2.5 1.2 0 2.1 0.8 2.1 2.4zm3.3 0h1.3v-7.7h-1.3zm0.7-8.9c0.5 0 0.8-0.4 0.8-0.9 0-0.5-0.3-0.9-0.8-0.9-0.5 0-0.9 0.4-0.9 0.9 0 0.5 0.4 0.9 0.9 0.9zm6 2.2c1.4 0 2.5 0.8 2.5 2.3h-4.9c0.2-1.5 1.2-2.3 2.4-2.3zm3.6 4.3h-1.3c-0.3 0.9-1.1 1.4-2.2 1.4-1.3 0-2.4-0.8-2.5-2.4h6.1c0.1-0.2 0.1-0.5 0.1-0.7 0-2.1-1.5-3.7-3.7-3.7-2.2 0-3.8 1.5-3.8 3.9 0 2.5 1.6 4 3.8 4 1.9 0 3.1-1.1 3.5-2.5zm7.5 2.4h1.2v-4.5c0-2.2-1.3-3.3-3.1-3.3-1 0-2 0.4-2.5 1.2v-1.1h-1.2v7.7h1.2v-4.3c0-1.6 0.9-2.4 2.2-2.4 1.3 0 2.2 0.8 2.2 2.3zm3.6-2.1c0 1.6 0.8 2.1 2.1 2.1h1.2v-1h-1c-0.7 0-1-0.3-1-1.1v-4.5h2v-1h-2v-2h-1.3v2h-1v1h1zm12.1-1.7c0-2.4-1.7-4-3.9-4-2.2 0-3.9 1.6-3.9 4 0 2.4 1.7 4 3.9 4 2.1 0 3.9-1.6 3.9-4zm-6.5 0c0-2 1.3-2.9 2.6-2.9 1.3 0 2.6 0.9 2.6 2.9 0 1.9-1.3 2.8-2.6 2.8-1.4 0-2.6-0.9-2.6-2.8z"/>
				</g>
				<g>
					<path fill-rule="evenodd" class="s1" d="m113.7 96.2c0-0.4 0.2-8-4.6-12.5-0.5-0.4-1.2-0.5-1.8-0.1-0.2 0.2-5.3 4-10.1 0-0.5-0.4-1.2-0.4-1.7 0.1-0.1 0-0.7 0.6-1.5 1.6-0.7-1.1-1.6-2.2-2.7-3.2-0.5-0.4-1.2-0.4-1.7-0.1-0.3 0.3-7.9 6-15.2 0-0.5-0.4-1.2-0.4-1.7 0.1-0.3 0.2-6.8 6-6.9 17.3 0 0.4 0.1 0.7 0.4 1 0.2 0.2 0.5 0.4 0.9 0.4h29.3c0.8 0 1.4-0.6 1.4-1.3 0-0.1 0-0.9-0.1-2.1h14.7c0.7 0 1.3-0.5 1.3-1.2zm-16.3-1.4c-0.3-2-0.9-4.5-1.9-6.8 0.3-0.7 0.7-1.2 1-1.6 4.3 2.8 8.9 1.5 11.5 0 2.2 2.7 2.8 6.4 3 8.4zm-29 3.3c0.5-7.1 3.8-11.6 5.3-13.3 6.9 4.9 14 1.5 16.5 0 3.9 4.2 4.7 10.6 4.8 13.3z"/>
					<path fill-rule="evenodd" class="s1" d="m99.9 49h-10.4v3.3c0 1.6 1.3 3 2.9 3h9.3l2.6 3c0.2 0.2 0.5 0.3 0.8 0.3q0.2 0 0.4 0c0.4-0.2 0.6-0.6 0.6-1l-0.2-2.3h4.8c1.6 0 2.9-1.4 2.9-3v-11.7c0-1.7-1.3-3-2.9-3h-6.5v7.1c0 2.4-1.9 4.3-4.3 4.3zm4.5-4.2v-5.2h6.3c0.5 0 0.9 0.4 0.9 1v11.7c0 0.5-0.4 1-0.9 1h-5.9c-0.3 0-0.5 0.1-0.7 0.3q-0.3 0.3-0.3 0.8l0.1 0.3-1-1.1c-0.2-0.2-0.4-0.3-0.7-0.3h-9.7c-0.6 0-1-0.5-1-1v-3.1h8.5c2.5 0 4.4-2 4.4-4.4z"/>
					<path fill-rule="evenodd" class="s1" d="m63.8 44.7c0 2.4 1.9 4.3 4.3 4.3h11.5l-0.3 4.1c-0.1 0.5 0.2 1 0.7 1.2q0.2 0.1 0.4 0.1c0.4 0 0.7-0.2 0.9-0.4l4.3-5h14.3c2.4 0 4.3-1.9 4.3-4.3v-17.1c0-2.4-1.9-4.3-4.3-4.3h-31.8c-2.4 0-4.3 1.9-4.3 4.3 0 0 0 17.1 0 17.1zm2.3-17.1c0-1.1 0.9-2 2-2h31.8c1.1 0 2 0.9 2 2v17.1c0 1.1-0.9 2-2 2h-14.8c-0.3 0-0.6 0.2-0.9 0.4l-2.4 2.8 0.2-1.9c0-0.4-0.1-0.7-0.3-0.9q-0.3-0.4-0.9-0.4h-12.7c-1.1 0-2-0.9-2-2v-17.1z"/>
					<path fill-rule="evenodd" class="s1" d="m102.1 83.6c2.5 0 4.8-0.9 6.5-2.7 1.7-1.7 2.7-4 2.7-6.4 0-5.1-4.1-9.2-9.2-9.2-2.4 0-4.7 0.9-6.5 2.7q-0.8 0.8-1.3 1.7 0-0.6 0-1.3c0-6.9-5.6-12.5-12.5-12.5-3.4 0-6.5 1.3-8.9 3.7-2.4 2.3-3.7 5.5-3.7 8.9 0 6.9 5.6 12.5 12.6 12.5 3.3 0 6.5-1.3 8.8-3.7q1.4-1.4 2.3-3.1 0 0.1 0 0.3c0 5 4.1 9.1 9.2 9.1zm-13.3-8.2c-1.9 1.9-4.4 2.9-7 2.9-5.5 0-9.9-4.4-9.9-9.8 0-2.7 1-5.2 2.9-7 1.8-1.9 4.3-2.9 7-2.9 5.4 0 9.9 4.4 9.9 9.9 0 2.6-1.1 5.1-2.9 6.9zm8.7-5.5c1.2-1.3 2.9-2 4.6-2 3.6 0 6.5 3 6.5 6.6 0 1.7-0.7 3.3-1.9 4.6-1.2 1.2-2.9 1.9-4.6 1.9-3.6 0-6.5-2.9-6.5-6.5 0-1.8 0.7-3.4 1.9-4.6z"/>
				</g>
			</g>
		</g>
	</g>
</svg>