<?xml version="1.0" encoding="UTF-8"?>
<svg id="Capa_2" xmlns="http://www.w3.org/2000/svg" xmlns:xlink="http://www.w3.org/1999/xlink" viewBox="0 0 187 187">
  <defs>
    <style>
      .cls-1 {
        fill: #d8a568;
        filter: url(#drop-shadow-1);
      }

      .cls-2, .cls-3 {
        fill: #fff;
      }

      .cls-3 {
        font-family: Poppins-Regular, Poppins;
        font-size: 14px;
      }
    </style>
    <filter id="drop-shadow-1" x="0" y="0" width="187" height="187" filterUnits="userSpaceOnUse">
      <feOffset dx="7" dy="7"/>
      <feGaussianBlur result="blur" stdDeviation="5"/>
      <feFlood flood-color="#5b5a59" flood-opacity=".75"/>
      <feComposite in2="blur" operator="in"/>
      <feComposite in="SourceGraphic"/>
    </filter>
  </defs>
  <g id="Segunda_pantalla">
    <g>
      <rect class="cls-1" x="8.73" y="8.48" width="156.1" height="156.1" rx="16.6" ry="16.6"/>
      <g>
        <text class="cls-3" transform="translate(40.44 117.42)"><tspan x="0" y="0">Motivaciones </tspan><tspan x="21.62" y="16.8">para el </tspan><tspan x="-15.9" y="33.6">acompañamiento</tspan></text>
        <g>
          <path class="cls-2" d="M113.7,96.17c.01-.33.21-8.02-4.64-12.46-.48-.44-1.2-.47-1.71-.08-.22.16-5.31,3.94-10.13.01-.5-.41-1.23-.4-1.72.03-.07.06-.69.62-1.47,1.66-.74-1.15-1.63-2.24-2.7-3.21-.48-.44-1.2-.47-1.71-.08-.32.24-7.95,5.92-15.2,0-.5-.41-1.23-.4-1.72.03-.28.24-6.77,6.01-6.93,17.36,0,.36.13.7.38.95.25.26.59.4.95.4h29.35c.72,0,1.31-.58,1.33-1.29,0-.11.02-.87-.05-2.04h14.63c.72,0,1.31-.57,1.33-1.29ZM68.5,98.13c.47-7.12,3.73-11.58,5.22-13.27,6.93,4.83,14,1.48,16.55-.05,3.93,4.23,4.69,10.61,4.83,13.32h-26.6ZM97.44,94.8c-.31-2.01-.9-4.45-1.97-6.83.39-.63.77-1.15,1.07-1.51,4.28,2.78,8.86,1.48,11.44-.03,2.28,2.65,2.87,6.42,3.01,8.37h-13.55Z"/>
          <path class="cls-2" d="M99.88,49.02h-10.4v3.28c0,1.64,1.33,2.97,2.97,2.97h9.25l2.63,3.02c.19.22.47.35.76.35.13,0,.26-.03.39-.08.4-.17.65-.57.61-1l-.18-2.29h4.75c1.64,0,2.97-1.33,2.97-2.97v-11.73c0-1.64-1.33-2.97-2.97-2.97h-6.47v7.13c0,2.37-1.93,4.29-4.3,4.29ZM104.42,44.78v-5.18h6.24c.53,0,.97.43.97.97v11.73c0,.53-.43.97-.97.97h-5.83c-.28,0-.54.12-.73.32-.19.21-.28.48-.26.76l.03.34-.94-1.08c-.19-.22-.47-.34-.75-.34h-9.71c-.53,0-.97-.44-.97-.97v-3.12h8.55c2.42,0,4.39-1.97,4.39-4.39Z"/>
          <path class="cls-2" d="M63.77,44.72c0,2.37,1.93,4.29,4.29,4.29h11.54l-.32,4.14c-.04.5.24.96.7,1.15.14.06.3.09.45.09.33,0,.65-.14.87-.4l4.33-4.99h14.25c2.37,0,4.3-1.93,4.3-4.29v-17.14c0-2.37-1.93-4.3-4.3-4.3h-31.82c-2.37,0-4.29,1.93-4.29,4.3v17.14ZM66.07,27.59c0-1.1.89-1.99,1.99-1.99h31.82c1.1,0,1.99.89,1.99,1.99v17.14c0,1.1-.89,1.99-1.99,1.99h-14.77c-.33,0-.65.15-.87.4l-2.39,2.75.15-1.9c.02-.32-.08-.64-.3-.87-.22-.24-.52-.37-.85-.37h-12.79c-1.1,0-1.99-.89-1.99-1.99v-17.14Z"/>
          <path class="cls-2" d="M102.11,83.63h0c2.45,0,4.75-.96,6.49-2.69,1.73-1.74,2.69-4.04,2.69-6.49,0-5.06-4.12-9.17-9.18-9.17-2.45,0-4.75.96-6.49,2.69-.52.52-.97,1.11-1.35,1.72.04-.41.06-.83.06-1.25,0-6.92-5.64-12.55-12.56-12.55-3.35,0-6.5,1.31-8.88,3.68-2.37,2.37-3.68,5.53-3.68,8.88,0,6.92,5.63,12.55,12.56,12.55h0c3.35,0,6.5-1.31,8.87-3.68.94-.94,1.7-2,2.29-3.14,0,.09-.01.18-.01.28,0,5.06,4.12,9.17,9.18,9.17ZM97.51,69.85c1.23-1.23,2.86-1.91,4.6-1.91,3.59,0,6.51,2.92,6.51,6.51,0,1.74-.68,3.37-1.91,4.6-1.23,1.23-2.86,1.91-4.6,1.91h0c-3.59,0-6.51-2.92-6.51-6.5,0-1.74.68-3.37,1.91-4.6ZM88.77,75.43c-1.87,1.87-4.35,2.9-6.99,2.9h0c-5.45,0-9.89-4.43-9.89-9.88,0-2.64,1.03-5.12,2.9-6.99,1.87-1.87,4.35-2.9,6.99-2.9,5.45,0,9.89,4.44,9.89,9.89,0,2.64-1.03,5.12-2.9,6.99Z"/>
        </g>
      </g>
    </g>
  </g>
</svg>