<svg version="1.2" xmlns="http://www.w3.org/2000/svg" viewBox="0 0 187 187" width="187" height="187">
	<title>oferta_servicio-svg</title>
	<style>
		.s0 { fill: #d8a568 } 
		.s1 { fill: #ffffff } 
	</style>
	<g id="Segunda_pantalla">
		<g>
			<path class="s0" d="m25 8.5h122.9c9.2 0 16.6 7.4 16.6 16.6v122.9c0 9.1-7.4 16.6-16.6 16.6h-122.9c-9.1 0-16.6-7.5-16.6-16.6v-122.9c0-9.2 7.5-16.6 16.6-16.6z"/>
			<g>
				<g>
					<path id="Oferta de " class="s1" aria-label="Oferta de "  d="m64.2 129.1c0-2.9-2.1-5-4.9-5-2.7 0-4.9 2.1-4.9 5 0 2.9 2.2 5 4.9 5 2.8 0 4.9-2.1 4.9-5zm-8.5 0c0-2.4 1.6-3.9 3.6-3.9 2.1 0 3.6 1.5 3.6 3.9 0 2.4-1.5 3.9-3.6 3.9-2 0-3.6-1.5-3.6-3.9zm10.4 4.9h1.3v-6.6h1.6v-1.1h-1.6v-0.5c0-1 0.4-1.4 1.5-1.4v-1.1c-1.9 0-2.8 0.8-2.8 2.5v0.5h-1v1.1h1zm7.7-6.7c1.3 0 2.4 0.8 2.4 2.3h-4.9c0.2-1.5 1.2-2.3 2.5-2.3zm3.5 4.3h-1.3c-0.3 0.8-1 1.4-2.2 1.4-1.3 0-2.4-0.8-2.5-2.4h6.2c0-0.2 0-0.5 0-0.8 0-2.1-1.5-3.6-3.7-3.6-2.2 0-3.8 1.5-3.8 3.9 0 2.5 1.6 4 3.8 4 1.9 0 3.2-1.1 3.5-2.5zm3.2-1.8c0-1.8 0.9-2.3 2.1-2.3h0.3v-1.3c-1.2 0-2 0.5-2.4 1.4v-1.3h-1.3v7.7h1.3zm4.2 2.1c0 1.5 0.7 2.1 2.1 2.1h1.2v-1.1h-1c-0.8 0-1-0.3-1-1v-4.6h2v-1h-2v-2h-1.3v2h-1v1h1zm4.3-1.7c0 2.3 1.6 4 3.6 4 1.5 0 2.5-0.8 2.9-1.6v1.4h1.3v-7.6h-1.3v1.4c-0.4-0.8-1.4-1.6-2.8-1.6-2.1 0-3.7 1.6-3.7 4zm6.5 0c0 1.8-1.2 2.8-2.6 2.8-1.4 0-2.6-1-2.6-2.8 0-1.8 1.2-2.9 2.6-2.9 1.4 0 2.6 1.1 2.6 2.9zm6.7 0c0 2.3 1.6 4 3.7 4 1.4 0 2.4-0.8 2.8-1.6v1.4h1.3v-10.3h-1.3v4c-0.5-0.9-1.6-1.5-2.8-1.5-2.1 0-3.7 1.6-3.7 4zm6.5 0c0 1.8-1.2 2.8-2.6 2.8-1.4 0-2.6-1-2.6-2.8 0-1.8 1.2-2.9 2.6-2.9 1.4 0 2.6 1.1 2.6 2.9zm6.7-2.9c1.3 0 2.5 0.8 2.4 2.3h-4.8c0.1-1.5 1.2-2.3 2.4-2.3zm3.6 4.4h-1.4c-0.2 0.8-1 1.4-2.1 1.4-1.3 0-2.4-0.9-2.5-2.4h6.1c0-0.3 0.1-0.5 0.1-0.8 0-2.1-1.5-3.7-3.7-3.7-2.3 0-3.8 1.6-3.8 4 0 2.4 1.6 4 3.8 4 1.9 0 3.1-1.1 3.5-2.5z"/>
					<path id="servicios" class="s1" aria-label="servicios"  d="m63.9 147.9c-0.1-2.7-4.5-1.7-4.5-3.6 0-0.6 0.5-1 1.5-1 1 0 1.6 0.5 1.6 1.3h1.3c-0.1-1.5-1.2-2.4-2.9-2.4-1.7 0-2.8 1-2.8 2.1 0 2.9 4.5 1.9 4.5 3.6 0 0.6-0.5 1.1-1.5 1.1-1.1 0-1.8-0.5-1.9-1.3h-1.3c0.1 1.4 1.4 2.4 3.2 2.4 1.7 0 2.8-0.9 2.8-2.2zm5-4.6c1.3 0 2.5 0.8 2.4 2.3h-4.8c0.1-1.5 1.2-2.3 2.4-2.3zm3.6 4.3h-1.4c-0.2 0.9-1 1.4-2.1 1.4-1.3 0-2.4-0.8-2.5-2.4h6.1c0-0.2 0.1-0.5 0.1-0.7 0-2.1-1.5-3.7-3.7-3.7-2.3 0-3.8 1.5-3.8 4 0 2.4 1.6 3.9 3.8 3.9 1.9 0 3.1-1.1 3.5-2.5zm3.1-1.8c0-1.7 0.9-2.3 2.2-2.3h0.3v-1.3c-1.2 0-2.1 0.5-2.5 1.4v-1.3h-1.3v7.7h1.3zm3-3.5l3.1 7.7h1.4l3.1-7.7h-1.4l-2.4 6.5-2.4-6.5zm8.8 7.7h1.3v-7.7h-1.3zm0.6-8.9c0.5 0 0.9-0.4 0.9-0.9 0-0.5-0.4-0.9-0.9-0.9-0.4 0-0.8 0.4-0.8 0.9 0 0.5 0.4 0.9 0.8 0.9zm2.4 5.1c0 2.4 1.5 3.9 3.7 3.9 1.9 0 3.1-1 3.5-2.6h-1.3c-0.3 1-1.1 1.5-2.2 1.5-1.4 0-2.4-0.9-2.4-2.8 0-1.9 1-2.9 2.4-2.9 1.1 0 1.9 0.6 2.2 1.5h1.3c-0.4-1.6-1.6-2.6-3.5-2.6-2.2 0-3.7 1.5-3.7 4zm8.9 3.8h1.3v-7.7h-1.3zm0.7-8.9c0.4 0 0.8-0.4 0.8-0.9 0-0.4-0.4-0.8-0.8-0.8-0.5 0-0.9 0.4-0.9 0.8 0 0.5 0.4 0.9 0.9 0.9zm10.1 5.1c0-2.4-1.7-4-3.9-4-2.2 0-3.9 1.6-3.9 4 0 2.4 1.6 4 3.8 4 2.2 0 4-1.6 4-4zm-6.5 0c0-2 1.2-2.9 2.6-2.9 1.3 0 2.5 0.9 2.5 2.9 0 1.9-1.3 2.8-2.6 2.8-1.3 0-2.5-0.9-2.5-2.8zm13.6 1.7c0-2.7-4.5-1.7-4.5-3.5 0-0.6 0.6-1.1 1.5-1.1 1.1 0 1.6 0.6 1.7 1.3h1.3c-0.1-1.5-1.2-2.4-2.9-2.4-1.7 0-2.8 1-2.8 2.2 0 2.8 4.5 1.8 4.5 3.5 0 0.7-0.6 1.2-1.6 1.2-1 0-1.7-0.6-1.8-1.3h-1.3c0.1 1.4 1.4 2.4 3.1 2.4 1.7 0 2.8-1 2.8-2.3z"/>
				</g>
				<path fill-rule="evenodd" class="s1" d="m112.4 37.1l21.9 21.6-8.3 8.1q-0.1 5.5-4 11.2c-1 1.6-2.2 3-3.6 4.4q-1.3 1.3-2.7 2.6c2.1 2.5 2.2 5.1 0.3 7.5-0.7 0.9-2 2-3.7 1.9 0 0 0.6 0.8 0.6 0.8 2.3 2.9 1.5 5.2-0.5 7.3-2 2.1-3.9 2.4-6.6 1.6q-0.1 0-0.1 0c-3.9 5.7-7.2 5.6-12.1 1.6-0.6 1-0.9 1.5-2.1 2.3-2.9 1.6-6.6 1.1-9-1.2q-1.3-1.2-2.5-2.3c-1.9-0.2-3.7-1.6-5.7-4.5q0 0-0.1 0c-2.7 0.8-4.6 0.5-6.6-1.5-1.9-2-2.7-4.3-0.9-6.9-1.7-1.7-3.4-3.4-5.1-5.1q-2.1-2-3.7-4.4c-2.5-3.8-3.8-7.5-3.9-11.2l-8.3-8.1 21.9-21.6 6.9 6.8c1.6-1 7.1-3.8 14.1 0.8l1.8-1.8 0.2-0.1c5.6-4.3 10.4-3.5 13.1-2.5q0.6 0.1 1.2 0.1l7.5-7.4zm-49.5 46.3q0 0 0 0 0 0 0 0zm0 0q0.5-1.7 2.2-3.3c5.6-5.5 11.1-11 16.7-16.5q0.1-0.1 0.2-0.2c0-0.2 0.2-0.5 0.4-0.7q1.4-1.4 2.9-2.8l-1-1-2.3-2.6 2.1-1.4 8.3 8.2c0.8 0.9 2.2 0.9 3 0l0.6-0.5c0.4-0.4 0.6-0.9 0.6-1.5 0-0.6-0.2-1.1-0.6-1.5l-8.1-8c-6.2-4.6-10.8-2.1-11.9-1.4l-0.1 0.5-2.8-0.2v-0.1l-0.4-0.4-5.8-5.7-18.1 17.8 8.4 8.3q0 1 0.1 1.9 0.1 1.2 0.4 2.3c0.8 3.3 2.7 6.2 5.2 8.8zm27.4 21.2q-0.9-0.2-1.8-0.7c-1.2-0.7-1.5-1.3-2.1-2.3q-1.6 1.3-2.9 2.1 0.6 0.5 1.1 1.1c0.7 0.6 1.6 1.6 2.9 1.7 1 0.1 1.6-0.3 2.3-0.9 0.2-0.2 0.4-0.6 0.5-1zm10.7-4.5q-0.2-0.2-0.4-0.3-1.5 1.5-3.1 3-0.5 0.5-1.1 0.8 0.4 0.4 0.8 0.8c1.8 1.7 3.3 1.6 4.5 0.1 1.2-1.3 1-2.7-0.7-4.4zm21.8-33.8c0 0 8.4-8.3 8.4-8.3l-18.1-17.8-5.8 5.7-1.8 1.8c0 0-3.1-1.7-6.5-1.4-1.9 0.1-4.2 0.7-6.7 2.7l-1.7 1.6 1.2 1.2 6.2 6.1c0.8 0.9 1.3 2 1.3 3.2-0.1 1.3-0.6 2.5-1.5 3.4l-0.5 0.5c-1 1-2.2 1.4-3.4 1.4-1.3 0-2.5-0.4-3.5-1.4l-2.8-2.7c-6.7 6.7-13.5 13.4-20.3 20-1 1.1-1.9 2.1-1.2 3.7 0.6 1.6 2.5 2.3 4 1.5 0.7-0.4 1.3-0.9 1.8-1.5q6.2-6 12.3-12.1c0.8-0.7 1.7-1.6 2.7-0.6 1 1 0.4 1.9-0.5 2.8q-8 7.8-16 15.7c-1.5 1.5-1.7 2.9-0.8 4.2 1.3 1.7 3.2 1.7 4.9 0q7.9-7.7 15.7-15.4c0.8-0.8 1.3-1.3 2.5-1.1 0.8 0.1 1 0.7 0.9 1.4-0.1 1-0.6 1.4-1.3 2q-6.6 6.6-13.3 13.1c-1.7 1.7-1.9 3.1-0.7 4.4 1.2 1.5 2.6 1.6 4.4-0.1 4-3.6 7.9-7.4 11.8-11.2q1.3-1.2 2.5-2.5c0.8-0.7 2.7-3.1 4-1.9 1.5 1.4-1.1 3.2-2 4.1q-1.2 1.3-2.4 2.5c-1.7 1.7-3.5 3.3-5.2 5-0.7 0.8-1.5 1.6-1.7 2.5-0.3 0.9-0.1 2.2 0.5 2.7 0.6 0.6 1.3 1 2.3 0.9 1.3-0.1 2.2-1.1 2.8-1.7 3.8-3.6 7.5-7.3 11.2-10.9 3.5-3.5 7.1-6.9 10.5-10.5 2.6-2.6 4.5-5.5 5.3-8.8q0.3-1.1 0.4-2.2 0.1-1 0.1-2zm-9.3 21q-2 2-4.1 4 0.2 0.1 0.4 0.3c1.5 0.8 3.4 0 4.1-1.5 0.5-1.2 0.1-2-0.4-2.8zm-4 8.6q-1.2-1.2-2.4-2.4-2.1 2.1-4.2 4.1 1.3 1.2 2.6 2.5c1.7 1.7 3.6 1.6 4.9 0 0.9-1.3 0.7-2.7-0.9-4.2z"/>
			</g>
		</g>
	</g>
</svg>