<?xml version="1.0" encoding="UTF-8"?><svg id="Capa_2" xmlns="http://www.w3.org/2000/svg" viewBox="0 0 88.62 121.22"><defs><style>.cls-1{font-family:Poppins-Regular, Poppins;font-size:14px;}.cls-1,.cls-2{fill:#fff;}.cls-2{stroke-width:0px;}</style></defs><g id="Segunda_pantalla"><text class="cls-1" transform="translate(8.12 96.42)"><tspan x="0" y="0">oferta de </tspan><tspan x="3.46" y="16.8">servicios</tspan></text><path class="cls-2" d="M66.73,0l-7.55,7.43c-.38-.05-.76-.09-1.14-.11-2.7-1.08-7.51-1.84-13.16,2.44l-.13.11-1.85,1.83c-6.97-4.66-12.51-1.79-14.07-.78l-6.95-6.84L0,25.65l8.3,8.17c.07,3.66,1.39,7.42,3.96,11.21,1.06,1.56,2.29,3,3.63,4.34,1.71,1.71,3.45,3.39,5.17,5.09-1.87,2.68-1.07,4.9.88,6.89,2.02,2.07,3.88,2.31,6.62,1.53.02,0,.05,0,.06.02,1.96,2.9,3.78,4.3,5.73,4.45.81.78,1.61,1.56,2.43,2.33,2.42,2.3,6.1,2.81,9.02,1.17,1.26-.71,1.47-1.29,2.12-2.3,4.93,4.07,8.22,4.15,12.09-1.57.01-.02.04-.03.06-.02,2.74.78,4.6.54,6.62-1.53,2.06-2.11,2.84-4.46.54-7.35-.02-.02-.61-.78-.58-.78,1.64.05,2.94-.98,3.65-1.89,1.91-2.43,1.79-4.98-.26-7.49.89-.88,1.8-1.76,2.69-2.65,1.34-1.34,2.58-2.78,3.63-4.34,2.57-3.8,3.89-7.55,3.96-11.21l8.3-8.17L66.73,0ZM17.22,46.25c-2.52-2.62-4.41-5.51-5.23-8.79-.18-.73-.31-1.48-.39-2.25-.06-.63-.08-1.27-.06-1.93L3.12,24.98,21.22,7.16l5.8,5.71.38.38-.02.06,2.8.23.18-.45c1.1-.74,5.69-3.25,11.82,1.35l8.1,8.02c.41.4.63.94.63,1.51,0,.57-.23,1.11-.64,1.51l-.53.52c-.85.83-2.23.83-3.07,0l-8.29-8.2-2.02,1.39,2.24,2.59.97.96c-.95.94-1.9,1.87-2.86,2.81-.24.23-.37.49-.44.74-.05.05-.1.1-.14.15-5.57,5.5-11.16,10.97-16.72,16.48-1.11,1.1-1.84,2.21-2.2,3.33ZM44.09,68.48c-.64.6-1.3.97-2.26.9-1.32-.1-2.24-1.1-2.88-1.72-.39-.38-.78-.77-1.17-1.15.92-.49,1.89-1.16,2.94-2.02.64,1.01.86,1.59,2.12,2.3.57.32,1.16.55,1.77.71-.1.4-.27.76-.51.98ZM56.03,67.38c-1.24,1.44-2.67,1.56-4.48-.1-.28-.26-.56-.52-.84-.78.4-.26.78-.55,1.13-.88,1.04-.99,2.07-1.99,3.1-2.98.11.11.22.22.33.33,1.71,1.69,1.94,3.05.76,4.41ZM64.69,62.91c-1.26,1.69-3.18,1.73-4.9.04-.85-.84-1.71-1.68-2.56-2.52,1.41-1.35,2.82-2.7,4.23-4.06.79.78,1.59,1.56,2.38,2.34,1.53,1.51,1.79,2.94.85,4.2ZM68.2,52.92c-.64,1.57-2.54,2.31-4.04,1.5-.15-.08-.29-.17-.43-.27,1.36-1.32,2.7-2.66,4.05-3.99.58.76.89,1.61.42,2.76ZM77.09,29.18c.02.66,0,1.3-.06,1.93-.07.77-.2,1.52-.39,2.25-.83,3.29-2.73,6.2-5.27,8.83-3.44,3.56-7.04,6.97-10.57,10.45-3.7,3.65-7.39,7.31-11.13,10.93-.64.62-1.56,1.62-2.88,1.72-.96.07-1.62-.29-2.26-.89-.58-.54-.76-1.89-.54-2.73.24-.92,1.07-1.75,1.78-2.47,1.69-1.7,3.41-3.37,5.11-5.06.83-.82,1.66-1.64,2.48-2.48.87-.88,3.42-2.75,1.99-4.07-1.31-1.21-3.19,1.12-3.98,1.9-.83.82-1.66,1.64-2.51,2.45-3.92,3.77-7.79,7.59-11.8,11.26-1.82,1.66-3.24,1.53-4.48.09-1.18-1.36-.95-2.73.76-4.41,4.44-4.38,8.89-8.75,13.33-13.13.62-.61,1.16-1.02,1.28-1.96.08-.69-.17-1.31-.9-1.41-1.22-.18-1.75.28-2.54,1.05-5.23,5.15-10.45,10.3-15.69,15.44-1.72,1.69-3.64,1.65-4.9-.04-.94-1.26-.68-2.69.85-4.2,5.3-5.25,10.62-10.48,15.95-15.7.87-.85,1.55-1.81.49-2.79-1.02-.94-1.9-.11-2.67.66-4.09,4.04-8.18,8.08-12.29,12.1-.55.54-1.12,1.08-1.79,1.44-1.51.82-3.4.07-4.04-1.5-.66-1.61.19-2.63,1.22-3.65,6.8-6.67,13.6-13.34,20.33-20.07l2.78,2.75c.95.94,2.2,1.41,3.44,1.41s2.48-.46,3.43-1.39l.53-.52c.92-.9,1.42-2.1,1.43-3.38,0-1.2-.45-2.33-1.26-3.21l-6.17-6.14h0l-1.21-1.2,1.65-1.63c2.55-1.92,4.83-2.59,6.71-2.68,3.44-.3,6.48,1.46,6.48,1.46l1.83-1.8,5.8-5.71,18.1,17.82-8.42,8.29Z"/></g></svg>