<svg version="1.2" xmlns="http://www.w3.org/2000/svg" viewBox="0 0 187 187" width="187" height="187">
	<title>referencia-svg</title>
	<style>
		.s0 { fill: #d8a568 } 
		.s1 { fill: #ffffff } 
	</style>
	<g id="Segunda_pantalla">
		<g>
			<path class="s0" d="m25.3 8.5h122.9c9.1 0 16.6 7.4 16.6 16.6v122.9c0 9.1-7.5 16.6-16.6 16.6h-122.9c-9.2 0-16.6-7.5-16.6-16.6v-122.9c0-9.2 7.4-16.6 16.6-16.6z"/>
			<g>
				<g>
					<path id="Referenciaci칩n" class="s1" aria-label="Referenciaci칩n"  d="m40.7 126.1c0 1.1-0.6 1.9-2.1 1.9h-1.8v-3.7h1.8c1.5 0 2.1 0.7 2.1 1.8zm-5.2-2.9v9.8h1.3v-4h1.5l2.3 4h1.5l-2.4-4.1c1.6-0.4 2.3-1.5 2.3-2.8 0-1.6-1.1-2.9-3.4-2.9zm11.8 3.1c1.3 0 2.4 0.8 2.4 2.3h-4.8c0.1-1.5 1.2-2.3 2.4-2.3zm3.6 4.3h-1.4c-0.3 0.9-1 1.4-2.1 1.4-1.3 0-2.4-0.8-2.5-2.4h6.1c0-0.2 0-0.4 0-0.7 0-2.1-1.4-3.7-3.6-3.7-2.3 0-3.8 1.5-3.8 4 0 2.4 1.6 3.9 3.8 3.9 1.9 0 3.1-1.1 3.5-2.5zm2.1 2.4h1.2v-6.6h1.6v-1.1h-1.6v-0.5c0-1 0.4-1.4 1.6-1.4v-1.1c-2 0-2.8 0.8-2.8 2.5v0.5h-1v1.1h1zm7.6-6.7c1.3 0 2.4 0.8 2.4 2.3h-4.8c0.1-1.5 1.1-2.3 2.4-2.3zm3.6 4.3h-1.4c-0.3 0.8-1 1.4-2.2 1.4-1.3 0-2.4-0.8-2.4-2.4h6.1c0-0.2 0-0.5 0-0.8 0-2.1-1.4-3.6-3.7-3.6-2.2 0-3.8 1.5-3.8 3.9 0 2.5 1.7 4 3.8 4 1.9 0 3.2-1.1 3.6-2.5zm3.1-1.8c0-1.8 0.9-2.3 2.1-2.3h0.4v-1.3c-1.3 0-2.1 0.5-2.5 1.4v-1.3h-1.3v7.7h1.3zm7.2-2.6c1.3 0 2.4 0.9 2.4 2.4h-4.8c0.1-1.5 1.1-2.4 2.4-2.4zm3.6 4.4h-1.4c-0.3 0.8-1 1.4-2.2 1.4-1.3 0-2.3-0.9-2.4-2.4h6.1c0-0.3 0-0.5 0-0.8 0-2.1-1.4-3.6-3.7-3.6-2.2 0-3.7 1.5-3.7 3.9 0 2.4 1.6 4 3.7 4 2 0 3.2-1.1 3.6-2.5zm7.4 2.4h1.3v-4.6c0-2.2-1.4-3.3-3.2-3.3-1 0-1.9 0.5-2.4 1.3v-1.1h-1.3v7.7h1.3v-4.3c0-1.6 0.9-2.5 2.2-2.5 1.3 0 2.1 0.8 2.1 2.4zm2.9-3.8c0 2.4 1.5 3.9 3.7 3.9 1.9 0 3.2-1 3.6-2.6h-1.4c-0.3 1-1 1.6-2.2 1.6-1.4 0-2.4-1-2.4-2.9 0-1.9 1-2.9 2.4-2.9 1.2 0 1.9 0.6 2.2 1.5h1.4c-0.4-1.6-1.7-2.6-3.6-2.6-2.2 0-3.7 1.6-3.7 4zm9 3.8h1.2v-7.7h-1.2zm0.6-8.9c0.5 0 0.9-0.4 0.9-0.8 0-0.5-0.4-0.9-0.9-0.9-0.5 0-0.8 0.4-0.8 0.9 0 0.4 0.3 0.8 0.8 0.8zm2.3 5.1c0 2.4 1.6 4 3.7 4 1.4 0 2.4-0.8 2.8-1.6v1.4h1.3v-7.6h-1.3v1.4c-0.4-0.8-1.4-1.6-2.8-1.6-2.1 0-3.7 1.6-3.7 4zm6.5 0c0 1.8-1.2 2.8-2.6 2.8-1.4 0-2.6-1-2.6-2.8 0-1.8 1.2-2.9 2.6-2.9 1.4 0 2.6 1.1 2.6 2.9zm3 0c0 2.4 1.6 4 3.7 4 1.9 0 3.2-1.1 3.6-2.6h-1.4c-0.3 0.9-1 1.5-2.2 1.5-1.4 0-2.4-1-2.4-2.9 0-1.9 1-2.9 2.4-2.9 1.2 0 1.9 0.6 2.2 1.5h1.4c-0.4-1.6-1.7-2.6-3.6-2.6-2.1 0-3.7 1.6-3.7 4zm9 3.8h1.2v-7.6h-1.2zm0.6-9c0.5 0 0.9-0.3 0.9-0.8 0-0.5-0.4-0.9-0.9-0.9-0.5 0-0.8 0.4-0.8 0.9 0 0.5 0.3 0.8 0.8 0.8zm10.1 5.1c0-2.4-1.7-3.9-3.9-3.9-2.2 0-3.9 1.5-3.9 3.9 0 2.5 1.7 4 3.9 4 2.1 0 3.9-1.5 3.9-4zm-6.5 0c0-1.9 1.3-2.8 2.6-2.8 1.3 0 2.6 0.9 2.6 2.8 0 2-1.3 2.9-2.6 2.9-1.4 0-2.6-0.9-2.6-2.9zm1-5.4v0.9l3-1.6v-1.1zm12.8 9.3h1.2v-4.5c0-2.2-1.3-3.3-3.1-3.3-1 0-2 0.4-2.5 1.2v-1.1h-1.2v7.7h1.2v-4.2c0-1.7 0.9-2.5 2.2-2.5 1.3 0 2.2 0.8 2.2 2.4z"/>
					<path id="geogr치ficas" class="s1" aria-label="geogr치ficas"  d="m45 145.1c0 2.4 1.6 4 3.7 4 1.4 0 2.4-0.7 2.8-1.5v1.6c0 1.6-1 2.5-2.4 2.5-1.2 0-2.1-0.7-2.4-1.6h-1.3c0.3 1.7 1.7 2.7 3.7 2.7 2.3 0 3.7-1.5 3.7-3.6v-7.9h-1.3v1.4c-0.4-0.8-1.4-1.5-2.8-1.5-2.1 0-3.7 1.5-3.7 3.9zm6.5 0.1c0 1.8-1.2 2.8-2.6 2.8-1.4 0-2.6-1.1-2.6-2.9 0-1.8 1.2-2.8 2.6-2.8 1.4 0 2.6 1.1 2.6 2.9zm6.7-2.9c1.3 0 2.5 0.8 2.4 2.3h-4.8c0.1-1.5 1.2-2.3 2.4-2.3zm3.6 4.3h-1.4c-0.2 0.9-1 1.4-2.1 1.4-1.3 0-2.4-0.8-2.5-2.4h6.1c0-0.2 0.1-0.4 0.1-0.7 0-2.1-1.5-3.7-3.7-3.7-2.3 0-3.8 1.5-3.8 4 0 2.4 1.6 3.9 3.8 3.9 1.9 0 3.1-1.1 3.5-2.5zm9.1-1.4c0-2.5-1.7-4-3.9-4-2.1 0-3.8 1.5-3.8 4 0 2.4 1.6 3.9 3.8 3.9 2.2 0 3.9-1.5 3.9-3.9zm-6.4 0c0-2 1.2-2.9 2.5-2.9 1.3 0 2.6 0.9 2.6 2.9 0 1.9-1.3 2.8-2.6 2.8-1.3 0-2.5-0.9-2.5-2.8zm7.6-0.1c0 2.4 1.6 4 3.7 4 1.4 0 2.4-0.7 2.8-1.5v1.6c0 1.6-1 2.5-2.4 2.5-1.2 0-2.1-0.7-2.4-1.6h-1.3c0.3 1.7 1.7 2.7 3.7 2.7 2.3 0 3.7-1.5 3.7-3.6v-7.9h-1.3v1.4c-0.4-0.8-1.4-1.5-2.8-1.5-2.1 0-3.7 1.5-3.7 3.9zm6.5 0.1c0 1.8-1.2 2.8-2.6 2.8-1.4 0-2.6-1.1-2.6-2.9 0-1.8 1.2-2.8 2.6-2.8 1.4 0 2.6 1.1 2.6 2.9zm4.7-0.4c0-1.7 1-2.3 2.2-2.3h0.3v-1.3c-1.2 0-2 0.5-2.5 1.4v-1.3h-1.2v7.7h1.2zm3.5 0.3c0 2.4 1.6 4 3.6 4 1.5 0 2.4-0.7 2.9-1.6v1.5h1.3v-7.7h-1.3v1.4c-0.4-0.8-1.4-1.5-2.8-1.5-2.1 0-3.7 1.5-3.7 3.9zm6.5 0c0 1.8-1.2 2.9-2.6 2.9-1.4 0-2.6-1.1-2.6-2.9 0-1.8 1.2-2.8 2.6-2.8 1.4 0 2.6 1 2.6 2.8zm-4-5.3v0.9l3-1.6v-1.1zm7.7 9.2h1.2v-6.6h1.7v-1h-1.7v-0.6c0-1 0.4-1.4 1.6-1.4v-1.1c-2 0-2.8 0.8-2.8 2.5v0.6h-1v1h1zm4.3 0h1.3v-7.7h-1.3zm0.7-8.9c0.5 0 0.8-0.4 0.8-0.9 0-0.4-0.3-0.8-0.8-0.8-0.5 0-0.9 0.4-0.9 0.8 0 0.5 0.4 0.9 0.9 0.9zm2.3 5.1c0 2.4 1.6 4 3.7 4 2 0 3.2-1.1 3.6-2.6h-1.4c-0.3 0.9-1 1.5-2.2 1.5-1.4 0-2.4-1-2.4-2.9 0-1.9 1-2.9 2.4-2.9 1.2 0 2 0.6 2.2 1.5h1.4c-0.4-1.6-1.6-2.6-3.6-2.6-2.1 0-3.7 1.6-3.7 4zm8.5 0c0 2.3 1.6 4 3.6 4 1.4 0 2.4-0.8 2.9-1.6v1.4h1.3v-7.6h-1.3v1.4c-0.4-0.8-1.4-1.6-2.9-1.6-2 0-3.6 1.6-3.6 4zm6.5 0c0 1.8-1.2 2.8-2.6 2.8-1.4 0-2.6-1-2.6-2.8 0-1.8 1.2-2.9 2.6-2.9 1.4 0 2.6 1.1 2.6 2.9zm9 1.7c-0.1-2.7-4.5-1.7-4.5-3.5 0-0.6 0.5-1.1 1.5-1.1 1 0 1.6 0.6 1.6 1.3h1.3c-0.1-1.5-1.2-2.4-2.9-2.4-1.7 0-2.8 1-2.8 2.2 0 2.8 4.5 1.8 4.5 3.5 0 0.7-0.5 1.2-1.6 1.2-1 0-1.7-0.6-1.8-1.3h-1.3c0.1 1.4 1.4 2.4 3.2 2.4 1.7 0 2.8-1 2.8-2.3z"/>
				</g>
				<g>
					<path class="s1" d="m58.1 52c0-0.3-0.3-0.6-0.7-0.5q-0.8 0.1-1.3 0.1c-0.4 0.1-0.7 0.2-0.7 0.2-0.3 0.1-0.5 0.4-0.5 0.7 0.1 0.3 0.3 0.5 0.6 0.5q0.1 0 0.2 0c0 0 0.7-0.2 1.9-0.3q0 0 0-0.1c0.3 0 0.6-0.3 0.5-0.6z"/>
					<path class="s1" d="m112.9 80.5q-0.4 0.3-0.7 0.6c-0.3 0.2-0.3 0.6-0.1 0.9q0.2 0.2 0.5 0.2 0.1 0 0.3-0.1 0 0 0 0 0.4-0.3 0.8-0.7 1.2-1 2.3-2.3c0.2-0.2 0.2-0.6 0-0.8-0.3-0.3-0.7-0.2-0.9 0q-0.7 0.8-1.4 1.5-0.4 0.4-0.8 0.7z"/>
					<path class="s1" d="m80.1 59.6q0.2 0.2 0.5 0.2 0.2 0 0.4-0.2c0.2-0.3 0.2-0.6 0-0.9q-0.6-0.6-1.3-1.2-0.4-0.3-0.8-0.6-0.6-0.5-1.2-0.9c-0.2-0.2-0.6-0.2-0.8 0.1-0.2 0.3-0.1 0.7 0.1 0.9q1 0.6 1.9 1.4 0.4 0.4 0.8 0.8 0.2 0.2 0.4 0.4z"/>
					<path class="s1" d="m84.8 66.2c0.1 0.2 0.3 0.3 0.5 0.3q0.1 0 0.3 0c0.3-0.2 0.4-0.5 0.2-0.8q-0.6-1.3-1.4-2.5-0.3-0.6-0.7-1.2 0 0-0.1-0.1c-0.2-0.2-0.5-0.2-0.7-0.1-0.3 0.2-0.4 0.6-0.2 0.9q0.5 0.7 0.9 1.4 0.5 0.8 0.9 1.5c0.1 0.2 0.2 0.4 0.3 0.6z"/>
					<path class="s1" d="m93.5 80.6q0.2 0.1 0.3 0.1 0.2 0 0.4-0.2c0.3-0.2 0.3-0.6 0-0.8q-0.3-0.4-0.6-0.7-0.5-0.5-0.9-1-0.6-0.6-1.1-1.4c-0.2-0.3-0.6-0.3-0.9-0.1-0.2 0.2-0.3 0.5-0.1 0.8q1 1.4 2.1 2.6 0.4 0.3 0.7 0.6 0.1 0.1 0.1 0.1z"/>
					<path class="s1" d="m88.8 74.1q0.1 0 0.2-0.1c0.1 0 0.1 0 0.1 0 0.3-0.2 0.4-0.5 0.3-0.8q-0.2-0.3-0.4-0.7-0.4-0.7-0.8-1.5-0.3-0.8-0.7-1.5c-0.1-0.3-0.5-0.4-0.8-0.3-0.3 0.1-0.4 0.5-0.3 0.8q0.8 1.9 1.8 3.6 0 0.1 0.1 0.2c0.1 0.2 0.3 0.3 0.5 0.3z"/>
					<path class="s1" d="m65.7 52.7c0 0 0.1 0 0.1 0 0.3 0 0.6-0.2 0.6-0.5 0-0.3-0.2-0.6-0.5-0.7q-0.8-0.1-1.7-0.1-0.4-0.1-0.8-0.1-0.9-0.1-1.8-0.1c-0.3 0-0.6 0.3-0.6 0.6 0 0.4 0.3 0.6 0.6 0.6q0.9 0.1 1.8 0.1 0.4 0 0.8 0.1 0.8 0 1.5 0.1z"/>
					<path class="s1" d="m117.7 75.9q0.2 0.1 0.4 0.1 0.1 0 0.2-0.1 0.1 0 0.3-0.2 0.5-0.9 1-1.8c0.2-0.3 0.1-0.6-0.2-0.8-0.3-0.2-0.7-0.1-0.8 0.2q-0.2 0.3-0.3 0.6-0.4 0.6-0.7 1.1c-0.2 0.3-0.1 0.7 0.1 0.9z"/>
					<path fill-rule="evenodd" class="s1" d="m69.4 29.1v23.5c0.1-0.2 0.4-0.3 0.6-0.2q1.8 0.5 3.4 1.2v-23.5c0-0.4 0.2-0.8 0.5-1 0.4-0.2 0.8-0.2 1.2 0l23.3 12.1c0.4 0.2 0.7 0.6 0.7 1.1v40.8q0.9 0.4 1.9 0.6c0.3 0.1 0.5 0.5 0.4 0.8 0 0.3-0.3 0.4-0.6 0.4q0 0-0.1 0-0.8-0.2-1.6-0.5v25c0 0.4-0.2 0.8-0.6 1q-0.3 0.2-0.6 0.2-0.3 0-0.6-0.2l-23.3-12.1c-0.4-0.2-0.6-0.6-0.6-1.1v-42.3q-1.8-0.8-3.7-1.4-0.2 0-0.3-0.2v42.9c0 0.5-0.3 0.9-0.7 1.1l-23.3 12.1q-0.3 0.2-0.6 0.2-0.3 0-0.6-0.2c-0.3-0.2-0.6-0.6-0.6-1v-67.1c0-0.5 0.3-0.9 0.7-1.1l23.3-12.1c0.4-0.2 0.8-0.2 1.2 0 0.4 0.2 0.6 0.6 0.6 1zm-2.5 66.4v-64.4l-12.4 6.5-0.3 0.2-8.2 4.2v64.4l3.9-2 0.5-0.3 4-2.1 0.5-0.2 3.8-2 0.8-0.4 3.9-2.1 0.8-0.4 2.8-1.4zm8.8 1l3.1 1.6 0.8 0.4 4 2.1 0.8 0.4 3.7 2 0.8 0.4 3.8 1.9 0.8 0.4 3.1 1.7v-24.3c-0.2-0.2-0.3-0.5-0.1-0.8 0 0 0.1-0.1 0.1-0.1v-39.2l-7.7-4-0.8-0.4-3.7-1.9-0.9-0.5-3.9-2-0.8-0.4-3.1-1.7z"/>
					<path fill-rule="evenodd" class="s1" d="m103.4 40.2l23.4-12.1c0.3-0.2 0.8-0.2 1.2 0 0.3 0.2 0.5 0.6 0.5 1.1v67c0 0.5-0.2 0.9-0.6 1.1l-4.9 2.6-0.7 0.3-4.2 2.2-0.2 0.1-13.3 6.9q-0.3 0.2-0.6 0.2-0.3 0-0.6-0.2c-0.4-0.2-0.6-0.6-0.6-1v-67.1c0-0.5 0.2-0.9 0.6-1.1zm22.7-9.1l-3.1 1.7-0.8 0.4-4 2-0.8 0.5-3.7 1.9-0.8 0.4-3.9 2.1-0.7 0.3-3.1 1.6v42.1q1.6-0.2 3.1-0.8 0.2-0.1 0.4-0.1 0.2-0.1 0.4 0 0.3 0 0.4 0.3c0.2 0.3 0 0.6-0.3 0.8q0 0 0 0-0.5 0.2-0.9 0.3-1.5 0.6-3.1 0.7v21.1l3.1-1.7 0.9-0.4 3.7-1.9 0.8-0.4 3.7-2 0.8-0.4 4-2.1 0.8-0.4 3.1-1.6z"/>
				</g>
			</g>
		</g>
	</g>
</svg>