<svg version="1.2" xmlns="http://www.w3.org/2000/svg" viewBox="0 0 187 187" width="187" height="187">
	<title>vinculacion-svg</title>
	<style>
		.s0 { fill: #d8a568 } 
		.s1 { fill: #ffffff } 
	</style>
	<g id="Segunda_pantalla">
		<g>
			<path class="s0" d="m25.3 8.1h122.9c9.2 0 16.6 7.5 16.6 16.6v122.9c0 9.2-7.4 16.6-16.6 16.6h-122.9c-9.1 0-16.6-7.4-16.6-16.6v-122.9c0-9.1 7.5-16.6 16.6-16.6z"/>
			<g>
				<g>
					<path id="Vinculación a" class="s1" aria-label="Vinculación a"  d="m43 115.7l-3.1-8.5h-1.3l3.7 9.8h1.4l3.7-9.8h-1.3zm5.8 1.4h1.3v-7.7h-1.3zm0.6-8.9c0.5 0 0.9-0.4 0.9-0.9 0-0.5-0.4-0.8-0.9-0.8-0.5 0-0.8 0.3-0.8 0.8 0 0.5 0.3 0.9 0.8 0.9zm8.4 8.9h1.3v-4.5c0-2.2-1.4-3.3-3.1-3.3-1.1 0-2 0.4-2.5 1.2v-1.1h-1.3v7.7h1.3v-4.2c0-1.7 0.9-2.5 2.2-2.5 1.3 0 2.1 0.8 2.1 2.4zm2.9-3.9c0 2.5 1.6 4 3.7 4 1.9 0 3.2-1.1 3.6-2.6h-1.4c-0.3 1-1 1.5-2.2 1.5-1.4 0-2.4-1-2.4-2.9 0-1.9 1-2.8 2.4-2.8 1.2 0 1.9 0.5 2.2 1.5h1.4c-0.4-1.6-1.7-2.6-3.6-2.6-2.1 0-3.7 1.5-3.7 3.9zm15.8-3.8h-1.3v4.2c0 1.7-0.9 2.5-2.2 2.5-1.3 0-2.1-0.8-2.1-2.4v-4.3h-1.3v4.5c0 2.2 1.4 3.3 3.2 3.3 1 0 1.9-0.5 2.4-1.3v1.2h1.3zm2.1 7.6h1.3v-10.3h-1.3zm3-3.9c0 2.4 1.6 4 3.6 4 1.4 0 2.4-0.7 2.9-1.5v1.4h1.3v-7.7h-1.3v1.4c-0.4-0.8-1.4-1.5-2.9-1.5-2 0-3.6 1.5-3.6 3.9zm6.5 0c0 1.8-1.2 2.9-2.6 2.9-1.4 0-2.6-1.1-2.6-2.9 0-1.8 1.2-2.8 2.6-2.8 1.4 0 2.6 1.1 2.6 2.8zm3 0c0 2.5 1.5 4 3.7 4 1.9 0 3.2-1.1 3.6-2.6h-1.4c-0.3 1-1.1 1.5-2.2 1.5-1.4 0-2.4-1-2.4-2.9 0-1.8 1-2.8 2.4-2.8 1.1 0 1.9 0.6 2.2 1.5h1.4c-0.4-1.6-1.7-2.6-3.6-2.6-2.2 0-3.7 1.5-3.7 3.9zm8.9 3.9h1.3v-7.7h-1.3zm0.7-8.9c0.5 0 0.8-0.4 0.8-0.9 0-0.5-0.3-0.8-0.8-0.8-0.5 0-0.9 0.3-0.9 0.8 0 0.5 0.4 0.9 0.9 0.9zm10.1 5.1c0-2.5-1.7-4-3.9-4-2.2 0-3.9 1.5-3.9 4 0 2.4 1.7 3.9 3.8 3.9 2.2 0 4-1.5 4-3.9zm-6.5 0c0-2 1.2-2.9 2.6-2.9 1.3 0 2.6 0.9 2.6 2.9 0 1.9-1.3 2.8-2.7 2.8-1.3 0-2.5-0.9-2.5-2.8zm1-5.5v1l3-1.6v-1.1zm12.7 9.3h1.3v-4.6c0-2.2-1.4-3.2-3.1-3.2-1.1 0-2 0.4-2.5 1.2v-1.1h-1.3v7.7h1.3v-4.3c0-1.6 0.9-2.4 2.2-2.4 1.3 0 2.1 0.8 2.1 2.3zm6.7-3.8c0 2.3 1.5 3.9 3.6 3.9 1.4 0 2.4-0.7 2.8-1.5v1.4h1.3v-7.6h-1.3v1.4c-0.4-0.8-1.4-1.6-2.8-1.6-2.1 0-3.6 1.6-3.6 4zm6.4 0c0 1.8-1.2 2.8-2.6 2.8-1.4 0-2.5-1-2.5-2.8 0-1.8 1.1-2.9 2.5-2.9 1.4 0 2.6 1.1 2.6 2.9z"/>
					<path id="grupos y" class="s1" aria-label="grupos y"  d="m59.8 130.1c0 2.4 1.6 4 3.7 4 1.4 0 2.4-0.7 2.8-1.5v1.6c0 1.6-1 2.5-2.3 2.5-1.3 0-2.2-0.7-2.5-1.6h-1.3c0.3 1.7 1.7 2.7 3.8 2.7 2.2 0 3.6-1.5 3.6-3.6v-7.9h-1.3v1.4c-0.4-0.8-1.4-1.5-2.8-1.5-2.1 0-3.7 1.5-3.7 3.9zm6.5 0.1c0 1.8-1.2 2.8-2.6 2.8-1.4 0-2.6-1.1-2.6-2.9 0-1.8 1.2-2.8 2.6-2.8 1.4 0 2.6 1.1 2.6 2.9zm4.8-0.4c0-1.7 0.9-2.3 2.1-2.3h0.3v-1.3c-1.2 0-2 0.5-2.4 1.4v-1.3h-1.3v7.7h1.3zm10.7-3.5h-1.3v4.2c0 1.7-0.8 2.5-2.2 2.5-1.3 0-2.1-0.8-2.1-2.4v-4.3h-1.3v4.5c0 2.2 1.4 3.3 3.2 3.3 1 0 1.9-0.5 2.4-1.3v1.2h1.3zm3.4 1.4v-1.4h-1.2v11.3h1.2v-5.1c0.5 0.8 1.5 1.6 2.9 1.6 2.1 0 3.6-1.6 3.6-4 0-2.4-1.5-4-3.6-4-1.4 0-2.4 0.8-2.9 1.6zm5.2 2.4c0 1.8-1.1 2.8-2.6 2.8-1.3 0-2.6-1-2.6-2.8 0-1.8 1.3-2.8 2.6-2.8 1.5 0 2.6 1 2.6 2.8zm10.3 0c0-2.4-1.7-4-3.9-4-2.1 0-3.8 1.6-3.8 4 0 2.4 1.6 4 3.8 4 2.2 0 3.9-1.6 3.9-4zm-6.4 0c0-1.9 1.2-2.8 2.5-2.8 1.3 0 2.6 0.9 2.6 2.8 0 1.9-1.3 2.8-2.6 2.8-1.4 0-2.5-0.9-2.5-2.8zm13.6 1.8c-0.1-2.8-4.5-1.8-4.5-3.6 0-0.6 0.6-1.1 1.5-1.1 1 0 1.6 0.6 1.7 1.4h1.2c0-1.5-1.2-2.5-2.9-2.5-1.7 0-2.8 1-2.8 2.2 0 2.8 4.6 1.8 4.6 3.6 0 0.6-0.6 1.1-1.6 1.1-1.1 0-1.7-0.6-1.8-1.3h-1.3c0.1 1.4 1.3 2.4 3.1 2.4 1.7 0 2.8-1 2.8-2.2zm8.4 0.6l-2.4-6.2h-1.4l3.1 7.6-1.5 3.7h1.3l4.6-11.3h-1.3z"/>
					<path id="extracurriculares" class="s1" aria-label="extracurriculares"  d="m31.1 144.3c1.3 0 2.5 0.8 2.5 2.3h-4.9c0.1-1.5 1.2-2.3 2.4-2.3zm3.6 4.3h-1.4c-0.2 0.9-1 1.4-2.1 1.4-1.3 0-2.4-0.8-2.5-2.4h6.1c0.1-0.2 0.1-0.5 0.1-0.7 0-2.1-1.5-3.7-3.7-3.7-2.3 0-3.8 1.5-3.8 3.9 0 2.5 1.6 4 3.8 4 1.9 0 3.1-1.1 3.5-2.5zm5.9 2.4h1.4l-2.5-3.9 2.5-3.8h-1.3l-1.8 2.9-1.8-2.9h-1.4l2.4 3.9-2.4 3.8h1.3l1.7-2.9zm3-2.1c0 1.6 0.8 2.1 2.1 2.1h1.2v-1h-0.9c-0.8 0-1.1-0.3-1.1-1.1v-4.5h2v-1h-2v-2h-1.3v2h-1v1h1zm6.1-2.1c0-1.7 0.9-2.3 2.1-2.3h0.4v-1.3c-1.2 0-2.1 0.5-2.5 1.4v-1.3h-1.3v7.7h1.3zm3.5 0.3c0 2.4 1.6 4 3.6 4 1.4 0 2.4-0.7 2.9-1.5v1.4h1.3v-7.7h-1.3v1.4c-0.5-0.8-1.5-1.5-2.9-1.5-2 0-3.6 1.5-3.6 3.9zm6.5 0c0 1.8-1.2 2.9-2.6 2.9-1.4 0-2.6-1.1-2.6-2.9 0-1.8 1.2-2.8 2.6-2.8 1.4 0 2.6 1.1 2.6 2.8zm2.9 0c0 2.5 1.6 4 3.8 4 1.9 0 3.1-1 3.5-2.6h-1.4c-0.2 1-1 1.5-2.1 1.5-1.4 0-2.5-1-2.5-2.9 0-1.8 1.1-2.8 2.5-2.8 1.1 0 1.9 0.6 2.1 1.5h1.4c-0.4-1.6-1.6-2.6-3.5-2.6-2.2 0-3.8 1.5-3.8 3.9zm15.8-3.8h-1.3v4.2c0 1.7-0.8 2.5-2.2 2.5-1.2 0-2.1-0.8-2.1-2.4v-4.3h-1.3v4.5c0 2.2 1.4 3.3 3.2 3.3 1 0 2-0.4 2.4-1.2v1.1h1.3zm3.4 3.5c0-1.8 1-2.3 2.2-2.3h0.3v-1.3c-1.2 0-2 0.5-2.5 1.3v-1.2h-1.2v7.7h1.2zm5.3 0c0-1.8 0.9-2.4 2.1-2.4h0.3v-1.3c-1.2 0-2 0.6-2.4 1.4v-1.2h-1.3v7.6h1.3zm3.9 4.2h1.3v-7.7h-1.3zm0.7-8.9c0.4 0 0.8-0.4 0.8-0.8 0-0.5-0.4-0.9-0.8-0.9-0.5 0-0.9 0.4-0.9 0.9 0 0.4 0.4 0.8 0.9 0.8zm2.3 5.1c0 2.4 1.5 4 3.7 4 1.9 0 3.2-1.1 3.6-2.6h-1.4c-0.3 0.9-1 1.5-2.2 1.5-1.4 0-2.4-1-2.4-2.9 0-1.9 1-2.9 2.4-2.9 1.2 0 1.9 0.6 2.2 1.5h1.4c-0.4-1.6-1.7-2.6-3.6-2.6-2.2 0-3.7 1.6-3.7 4zm15.8-3.8h-1.3v4.2c0 1.6-0.9 2.4-2.2 2.4-1.3 0-2.2-0.8-2.2-2.3v-4.3h-1.2v4.5c0 2.2 1.4 3.2 3.1 3.2 1.1 0 2-0.4 2.5-1.2v1.1h1.3zm2.1 7.7h1.3v-10.4h-1.3zm3-3.8c0 2.4 1.6 4 3.6 4 1.4 0 2.4-0.8 2.9-1.6v1.4h1.3v-7.6h-1.3v1.4c-0.5-0.8-1.4-1.5-2.9-1.5-2 0-3.6 1.5-3.6 3.9zm6.5 0c0 1.8-1.2 2.9-2.6 2.9-1.4 0-2.6-1.1-2.6-2.9 0-1.8 1.2-2.8 2.6-2.8 1.4 0 2.6 1 2.6 2.8zm4.7-0.3c0-1.8 0.9-2.3 2.1-2.3h0.4v-1.4c-1.2 0-2.1 0.6-2.5 1.4v-1.2h-1.3v7.6h1.3zm7.2-2.5c1.3 0 2.4 0.8 2.4 2.3h-4.8c0.1-1.5 1.2-2.3 2.4-2.3zm3.6 4.4h-1.4c-0.3 0.8-1 1.4-2.1 1.4-1.3 0-2.4-0.9-2.5-2.4h6.1c0-0.3 0-0.5 0-0.8 0-2.1-1.4-3.7-3.6-3.7-2.3 0-3.8 1.5-3.8 4 0 2.4 1.6 3.9 3.8 3.9 1.9 0 3.1-1 3.5-2.4zm7.3 0.2c0-2.7-4.5-1.7-4.5-3.5 0-0.7 0.6-1.1 1.5-1.1 1.1 0 1.6 0.6 1.7 1.3h1.3c-0.1-1.5-1.2-2.4-2.9-2.4-1.7 0-2.8 1-2.8 2.2 0 2.8 4.5 1.8 4.5 3.5 0 0.7-0.6 1.2-1.6 1.2-1 0-1.7-0.6-1.8-1.3h-1.3c0.1 1.4 1.4 2.3 3.1 2.3 1.7 0 2.8-0.9 2.8-2.2z"/>
				</g>
				<g>
					<path fill-rule="evenodd" class="s1" d="m116.8 44.5h-14.5v-9.2h14.5zm-1.2-8h-0.8l-5.2 4.2-5.2-4.2h-0.9v6.8h12.1c0 0 0-6.8 0-6.8zm-9.3 0l3.3 2.6 3.2-2.6z"/>
					<path fill-rule="evenodd" class="s1" d="m84.9 79.1c1.9-2.1 4.7-3.3 7.5-3.3q0.5 0 1.1 0c4.7 0.5 8.5 4.3 9 9.1 0.3 2.6-0.5 5.2-2.1 7.3-0.3 0.3-0.7 0.4-1 0.4-0.4-0.1-0.7-0.3-0.9-0.7-0.5-1.2-1.6-2.1-3-2.1h-5.3c-1.5 0-2.9 1.2-3.1 2.7-0.1 0.4-0.4 0.7-0.8 0.8q-0.1 0.1-0.3 0.1-0.4 0-0.7-0.3c-1.7-1.7-2.7-3.8-3-6.2-0.2-2.9 0.7-5.6 2.6-7.8zm-0.4 7.6c0.1 1.3 0.5 2.5 1.2 3.6 0.7-1.2 1.8-2 3-2.4-0.8-0.9-1.3-2.1-1.3-3.4 0-2.8 2.2-5.1 5-5.1 2.8 0 5.1 2.3 5.1 5.1 0 1.2-0.5 2.4-1.2 3.3 1.3 0.2 2.4 0.8 3.3 1.7 0.7-1.3 0.9-2.9 0.8-4.4-0.4-3.8-3.4-6.8-7.1-7.2q-0.5 0-0.9 0c-2.2 0-4.4 1-5.9 2.6-1.6 1.7-2.3 3.9-2 6.2zm11.8-2.2c0-2.1-1.7-3.9-3.9-3.9-2.1 0-3.8 1.8-3.8 3.9 0 2.1 1.7 3.8 3.8 3.8 2.2 0 3.9-1.7 3.9-3.8z"/>
					<path fill-rule="evenodd" class="s1" d="m50.5 53.8c0-10.1 8.2-18.3 18.3-18.3 10 0 18.2 8.2 18.2 18.3 0 4.9-1.9 9.5-5.4 13-0.2 0.2-0.5 0.3-0.8 0.3q-0.2 0-0.4-0.1c-0.4-0.2-0.6-0.5-0.6-1v-0.9c0-3.6-2.9-6.4-6.4-6.4h-9.3q-0.3 0-0.7 0 0 0 0 0c-3.2 0.4-5.7 3.1-5.7 6.4v0.9c0 0.5-0.3 0.8-0.6 1-0.4 0.2-0.9 0.1-1.2-0.2-3.5-3.5-5.4-8.1-5.4-13zm18.2-16.2c-8.9 0-16.1 7.3-16.1 16.2 0 3.5 1.1 6.8 3.2 9.6 0.7-3.6 3.6-6.3 7.3-6.8q0.1 0 0.1 0 0.1 0 0.1 0c-2.1-1.6-3.4-4.2-3.4-7 0-4.9 3.9-8.9 8.9-8.9 4.9 0 8.8 4 8.8 8.9 0 2.8-1.3 5.3-3.4 7 3.8 0.4 6.8 3.2 7.6 6.8 2-2.8 3.1-6.1 3.1-9.6 0-8.9-7.2-16.2-16.1-16.2zm0.9 19c3.5-0.5 6.1-3.5 6.1-7 0-3.9-3.2-7.1-7-7.1-3.9 0-7.1 3.2-7.1 7.1 0 3.5 2.7 6.5 6.1 7z"/>
					<path fill-rule="evenodd" class="s1" d="m95.8 39.5c0-7.6 6.2-13.7 13.8-13.7 7.5 0 13.7 6.1 13.7 13.7 0 7.5-6.2 13.7-13.8 13.7-7.5 0-13.7-6.2-13.7-13.7zm2.2 0c0 6.3 5.2 11.5 11.6 11.5 6.3 0 11.5-5.2 11.5-11.5 0-6.4-5.2-11.6-11.6-11.6-6.3 0-11.5 5.2-11.5 11.6z"/>
					<path fill-rule="evenodd" class="s1" d="m68.8 32.4c8 0 15.3 4.5 19 11.6l5.3-1.9q-0.2-1.3-0.2-2.6c0-9.2 7.5-16.7 16.7-16.7 9.1 0 16.6 7.5 16.6 16.7 0 9.2-7.5 16.6-16.6 16.6-6.4 0-12.1-3.5-14.9-9.2l-5.1 1.8c0.4 1.7 0.6 3.4 0.6 5.1 0 6.4-2.9 12.5-7.9 16.5l3.8 4.2c2.3-1.3 5-1.9 7.7-1.6 6.1 0.6 11.1 5.5 11.7 11.7 0.3 3.7-0.8 7.3-3.4 10.1-2.4 2.7-6 4.3-9.7 4.3q-0.6 0-1.3-0.1c-6.2-0.6-11.1-5.5-11.7-11.7-0.3-3.4 0.6-6.8 2.8-9.4l-4.2-4.7c-2.9 1.4-6.1 2.1-9.2 2.1-11.9 0-21.5-9.6-21.5-21.4 0-11.8 9.6-21.4 21.5-21.4zm0 2.1c-10.7 0-19.3 8.7-19.3 19.3 0 10.7 8.6 19.3 19.3 19.3 3.1 0 6.1-0.7 8.9-2.2q0.3-0.1 0.5-0.1c0.3 0 0.6 0.1 0.8 0.3l5.4 6c0.3 0.4 0.3 1 0 1.4 0 0-0.1 0.1-0.1 0.1-2.1 2.3-3.1 5.3-2.8 8.4 0.5 5.2 4.7 9.3 9.8 9.8q0.6 0.1 1.2 0.1c3 0 6-1.3 8.1-3.6 2.1-2.3 3.1-5.4 2.8-8.5-0.5-5.2-4.7-9.3-9.8-9.8-2.5-0.3-5 0.4-7.1 1.7-0.5 0.3-1.1 0.2-1.4-0.1l-5.1-5.7q-0.3-0.3-0.3-0.8c0.1-0.3 0.2-0.6 0.5-0.8 4.9-3.6 7.9-9.4 7.9-15.5q0-2.7-0.8-5.4c-0.2-0.6 0.1-1.2 0.7-1.3l6.9-2.5c0.5-0.2 1.1 0.1 1.3 0.6 2.3 5.4 7.5 8.8 13.4 8.8 8 0 14.5-6.5 14.5-14.5 0-8.1-6.5-14.6-14.5-14.6-8.1 0-14.6 6.5-14.6 14.6q0 1.5 0.4 3.1c0.1 0.5-0.2 1-0.7 1.2l-7.1 2.5c-0.5 0.2-1.1-0.1-1.3-0.6-3.2-6.8-10.1-11.2-17.5-11.2z"/>
				</g>
			</g>
		</g>
	</g>
</svg>