<?xml version="1.0" encoding="UTF-8"?><svg id="Capa_2" xmlns="http://www.w3.org/2000/svg" viewBox="0 0 79.43 122.81"><defs><style>.cls-1{font-family:Poppins-Regular, Poppins;font-size:14.11px;}.cls-1,.cls-2{fill:#fff;}.cls-2{stroke-width:0px;}</style></defs><g id="Segunda_pantalla"><text class="cls-1" transform="translate(9.66 114.74)"><tspan x="0" y="0">Vivienda</tspan></text><path class="cls-2" d="M1.63,74.12c1.3,0,3.61.4,6.51,1.12l.54.2c.05.02.11.04.16.05,6.05,1.49,18.31,4.59,35.45,8.95l.12.03s.06.02.1.02c.48.1.96.14,1.42.14.78,0,1.56-.14,2.38-.43.02,0,.05-.02.07-.02l.2-.08c.17-.05.32-.13.47-.23l27-19.58c.51-.27.99-.63,1.43-1.05.02-.02.04-.05.07-.07,1.21-1.21,1.88-2.8,1.88-4.49,0-3.3-2.47-6-5.75-6.33-.63-.12-1.24-.14-1.98-.03-.29.05-.56.1-.82.18-.31.09-.63.22-.96.39-.16.08-.33.17-.49.27-.05.03-.11.07-.16.1l-2.97,2.15-16.26,10.54c-.22.03-.48.04-.78.03-.96-.24-4.43-1.14-10.3-2.7l-.26-.07c-1.32-.38-2.67-.74-3.97-1.05-1.82-.48-3.26-.86-3.84-1.02-.83-.52-1.33-1.42-1.33-2.39,0-1.36.95-2.52,2.28-2.79h10.37c2.52,0,4.57-2.05,4.57-4.57s-2.05-4.57-4.57-4.57h-11.2c-1.45-.04-3.25-.06-5.48-.06-5.29,0-8.99,2.08-11.91,4.12-.72.5-1.41,1.01-2.1,1.53-3.16,2.34-5.89,4.37-9.91,4.37-.52,0-1,.25-1.31.67-.25.35-.35.78-.28,1.2L0,71.25c0,.1,0,.2.02.29v.97c0,.89.72,1.61,1.61,1.61ZM3.24,69.58v-9.68c4.21-.47,7.25-2.73,10.19-4.91.66-.49,1.33-.99,2.02-1.47,2.64-1.84,5.68-3.54,10.07-3.54,2.19,0,3.97.02,5.43.06h11.24c.75,0,1.36.61,1.36,1.36s-.61,1.35-1.36,1.35h-10.51c-.09,0-.17,0-.26.02-2.95.48-5.09,3-5.09,5.99,0,2.2,1.2,4.23,3.15,5.3.11.06.23.11.36.14.33.09,1.94.52,4.09,1.09,1.29.31,2.59.65,3.9,1.03l.29.08c6.33,1.68,9.78,2.58,10.54,2.75.09.02.19.04.28.04.81.05,1.49,0,2.1-.16.17-.04.34-.11.49-.21l16.56-10.73s.05-.03.07-.05l2.91-2.11s.03-.02.04-.02c.09-.06.18-.1.27-.15.18-.09.31-.15.44-.19.12-.04.24-.06.36-.08.31-.05.64-.05.95.02.06.01.12.02.19.03,1.65.14,2.9,1.49,2.9,3.14,0,.83-.34,1.62-.94,2.22-.01,0-.02.02-.03.03-.24.23-.5.42-.77.56-.08.04-.15.08-.21.13l-1.14.83-25.77,18.68s-.08.03-.12.05c-.74.25-1.36.29-2.05.16l-.08-.02c-17.07-4.35-29.31-7.44-35.4-8.94l-.53-.19c-.05-.02-.11-.04-.17-.05-2.35-.59-4.28-.97-5.79-1.14l.02-1.42Z"/><path class="cls-2" d="M30.82,43.48h22.15c2.76,0,5-2.24,5-5v-10.94l.75.75c.63.63,1.65.63,2.27,0l1.98-1.98h0c2.04-2.04,2.04-5.35,0-7.39l-15.28-15.28s-.07-.09-.11-.13l-1.98-1.98c-.99-.99-2.3-1.53-3.7-1.53s-2.71.54-3.7,1.53l-1.98,1.98s-.07.07-.1.12l-15.29,15.29c-2.04,2.04-2.04,5.35,0,7.39l1.98,1.98c.31.31.73.47,1.14.47s.82-.16,1.14-.47l.75-.75v10.94c0,2.76,2.24,5,5,5ZM45.81,37.9h-7.81v-10.05h7.81v10.05ZM54.76,38.48c0,.98-.8,1.78-1.78,1.78h-4.14c.12-.22.19-.48.19-.75v-13.26c0-.89-.72-1.61-1.61-1.61h-11.03c-.89,0-1.61.72-1.61,1.61v13.26c0,.27.07.53.19.75h-4.14c-.98,0-1.78-.8-1.78-1.78v-14.15l12.86-12.86,8.21,8.21h0l4.65,4.65v14.15ZM23.94,24.88l-.84-.84c-.78-.78-.78-2.06,0-2.84l15.4-15.4s.07-.08.11-.12l1.87-1.87c.76-.76,2.09-.76,2.85,0l1.86,1.86s.07.09.11.13l15.4,15.4c.78.78.78,2.06,0,2.84l-.85.84-16.82-16.82c-.3-.3-.71-.47-1.14-.47s-.84.17-1.14.47l-16.82,16.82Z"/></g></svg>