<svg version="1.2" xmlns="http://www.w3.org/2000/svg" viewBox="0 0 187 187" width="187" height="187">
	<title>vivienda-svg</title>
	<style>
		.s0 { fill: #d8a568 } 
		.s1 { fill: #ffffff } 
	</style>
	<g id="Segunda_pantalla">
		<g>
			<path class="s0" d="m25 8.5h122.9c9.2 0 16.6 7.4 16.6 16.6v122.9c0 9.1-7.4 16.6-16.6 16.6h-122.9c-9.2 0-16.6-7.5-16.6-16.6v-122.9c0-9.2 7.4-16.6 16.6-16.6z"/>
			<g>
				<path id="Vivienda" class="s1" aria-label="Vivienda"  d="m61.1 143.7l-3-8.5h-1.4l3.7 9.8h1.5l3.6-9.8h-1.3zm5.8 1.4h1.3v-7.7h-1.3zm0.7-8.9c0.4 0 0.8-0.4 0.8-0.9 0-0.5-0.4-0.8-0.8-0.8-0.5 0-0.9 0.3-0.9 0.8 0 0.5 0.4 0.9 0.9 0.9zm1.8 1.2l3.1 7.7h1.4l3-7.7h-1.3l-2.4 6.5-2.4-6.5zm8.8 7.7h1.3v-7.7h-1.3zm0.6-8.9c0.5 0 0.9-0.4 0.9-0.8 0-0.5-0.4-0.9-0.9-0.9-0.5 0-0.8 0.4-0.8 0.9 0 0.4 0.3 0.8 0.8 0.8zm6.1 2.2c1.3 0 2.4 0.8 2.4 2.3h-4.8c0.1-1.5 1.1-2.3 2.4-2.3zm3.6 4.4h-1.4c-0.3 0.8-1 1.4-2.2 1.4-1.3 0-2.4-0.9-2.5-2.4h6.2c0-0.3 0-0.5 0-0.8 0-2.1-1.4-3.7-3.7-3.7-2.2 0-3.8 1.6-3.8 4 0 2.4 1.7 4 3.8 4 1.9 0 3.2-1.1 3.6-2.5zm7.4 2.3h1.3v-4.5c0-2.2-1.4-3.3-3.2-3.3-1 0-1.9 0.5-2.4 1.3v-1.1h-1.3v7.6h1.3v-4.2c0-1.7 0.9-2.5 2.2-2.5 1.3 0 2.1 0.8 2.1 2.4zm2.9-3.9c0 2.4 1.6 4 3.6 4 1.4 0 2.4-0.7 2.9-1.5v1.4h1.3v-10.4h-1.3v4.1c-0.6-0.9-1.7-1.5-2.9-1.5-2 0-3.6 1.5-3.6 3.9zm6.5 0.1c0 1.8-1.2 2.8-2.6 2.8-1.4 0-2.6-1.1-2.6-2.9 0-1.8 1.2-2.8 2.6-2.8 1.4 0 2.6 1.1 2.6 2.9zm2.9-0.1c0 2.4 1.6 4 3.7 4 1.4 0 2.4-0.7 2.8-1.5v1.4h1.3v-7.7h-1.3v1.4c-0.4-0.8-1.4-1.5-2.8-1.5-2.1 0-3.7 1.5-3.7 3.9zm6.5 0.1c0 1.8-1.2 2.8-2.6 2.8-1.4 0-2.5-1.1-2.5-2.9 0-1.8 1.1-2.8 2.5-2.8 1.4 0 2.6 1.1 2.6 2.9z"/>
				<g>
					<path fill-rule="evenodd" class="s1" d="m46.8 102.7v-0.9q-0.1-0.2-0.1-0.3l0.1-12.6c-0.1-0.4 0-0.9 0.2-1.2 0.4-0.4 0.8-0.7 1.4-0.7 4 0 6.7-2 9.9-4.4q1-0.7 2.1-1.5c2.9-2 6.6-4.1 11.9-4.1 2.2 0 4 0 5.5 0.1h11.2c2.5 0 4.5 2 4.5 4.5 0 2.5-2 4.6-4.5 4.6h-10.4c-1.3 0.3-2.3 1.4-2.3 2.8 0 1 0.5 1.9 1.3 2.4 0.6 0.1 2.1 0.5 3.9 1 1.3 0.3 2.6 0.7 3.9 1l0.3 0.1c5.9 1.6 9.3 2.5 10.3 2.7q0.4 0 0.8 0l16.2-10.6 3-2.1q0.1-0.1 0.2-0.1 0.2-0.2 0.5-0.3 0.5-0.2 0.9-0.4 0.4-0.1 0.8-0.1c0.8-0.2 1.4-0.1 2 0 3.3 0.3 5.8 3 5.8 6.3 0 1.7-0.7 3.3-1.9 4.5q-0.1 0-0.1 0.1-0.6 0.6-1.4 1l-27 19.6q-0.2 0.2-0.5 0.2l-0.2 0.1q0 0 0 0-1.3 0.5-2.4 0.5-0.7 0-1.4-0.2c-0.1 0-0.1 0-0.1 0h-0.2c-17.1-4.4-29.4-7.5-35.4-9q-0.1 0-0.2 0l-0.5-0.2c-2.9-0.8-5.2-1.2-6.5-1.2-0.9 0-1.6-0.7-1.6-1.6zm3.2-1.5q2.2 0.3 5.8 1.2 0 0 0.1 0l0.6 0.2c6 1.5 18.3 4.6 35.4 8.9v0.1c0.7 0.1 1.3 0.1 2.1-0.2 0 0 0.1 0 0.1 0l25.8-18.7 1.1-0.9q0.1 0 0.2-0.1 0.4-0.2 0.8-0.5 0-0.1 0-0.1c0.6-0.6 1-1.4 1-2.2 0-1.6-1.3-3-2.9-3.1q-0.1 0-0.2-0.1-0.5-0.1-1 0-0.2 0-0.3 0.1-0.2 0.1-0.5 0.2-0.1 0.1-0.3 0.1c0 0 0 0.1 0 0.1l-2.9 2.1c0 0-0.1 0-0.1 0l-16.5 10.7q-0.3 0.2-0.5 0.3-0.9 0.2-2.1 0.1-0.2 0-0.3 0c-0.8-0.2-4.2-1.1-10.5-2.8l-0.3-0.1q-2-0.5-3.9-1c-2.2-0.6-3.8-1-4.1-1.1q-0.2 0-0.4-0.1c-1.9-1.1-3.1-3.1-3.1-5.3 0-3 2.1-5.5 5.1-6q0.1 0 0.2 0h10.5c0.8 0 1.4-0.6 1.4-1.4 0-0.7-0.6-1.3-1.4-1.3h-11.2c-1.5-0.1-3.3-0.1-5.4-0.1-4.4 0-7.5 1.7-10.1 3.5q-1 0.8-2 1.5c-3 2.2-6 4.5-10.2 4.9v9.7z"/>
					<path fill-rule="evenodd" class="s1" d="m77.6 73.7c-2.8 0-5-2.2-5-5v-10.9l-0.8 0.7c-0.3 0.3-0.7 0.5-1.1 0.5-0.4 0-0.8-0.2-1.1-0.5l-2-2c-2.1-2-2.1-5.3 0-7.4l15.3-15.2c0-0.1 0.1-0.2 0.1-0.2l1.9-1.9c1-1 2.3-1.6 3.7-1.6 1.5 0 2.8 0.6 3.7 1.6l2 1.9c0.1 0.1 0.1 0.2 0.1 0.2l15.3 15.2c2.1 2.1 2.1 5.4 0 7.4l-2 2c-0.6 0.6-1.6 0.6-2.2 0l-0.8-0.7v10.9c0 2.8-2.2 5-5 5zm23.9-19.1l-12.8-12.9-12.9 12.9v14.1c0 1 0.8 1.8 1.8 1.8h4.1q-0.1-0.3-0.1-0.8v-13.2c0-0.9 0.7-1.6 1.6-1.6h11c0.9 0 1.6 0.7 1.6 1.6v13.2q0 0.5-0.2 0.8h4.2c0.9 0 1.7-0.8 1.7-1.8 0 0 0-14.1 0-14.1zm-8.9 3.5h-7.8v10h7.8zm-21.9-2.9q0 0 0 0zm0 0c0 0 16.8-16.9 16.8-16.9 0.3-0.3 0.7-0.4 1.2-0.4 0.4 0 0.8 0.1 1.1 0.4l16.8 16.9 0.9-0.9c0.8-0.8 0.8-2 0-2.8l-15.4-15.4c-0.1-0.1-0.1-0.2-0.1-0.2l-1.9-1.8c-0.8-0.8-2.1-0.8-2.8 0l-1.9 1.9c-0.1 0-0.1 0.1-0.1 0.1l-15.4 15.4c-0.8 0.8-0.8 2 0 2.8z"/>
				</g>
			</g>
		</g>
	</g>
</svg>