<?xml version="1.0" encoding="UTF-8"?>
<svg id="Capa_2" data-name="Capa 2" xmlns="http://www.w3.org/2000/svg" xmlns:xlink="http://www.w3.org/1999/xlink" viewBox="0 0 1799.05 949">
  <defs>
    <style>
      .cls-1 {
        fill: #69842d;
      }

      .cls-2 {
        fill: #455615;
      }

      .cls-3 {
        fill: #96943c;
      }

      .cls-4 {
        fill: #603619;
        opacity: .43;
      }

      .cls-5 {
        fill: #89512b;
        filter: url(#drop-shadow-1);
      }
    </style>
    <filter id="drop-shadow-1" x="635.64" y="0" width="1076" height="949" filterUnits="userSpaceOnUse">
      <feOffset dx="7" dy="7"/>
      <feGaussianBlur result="blur" stdDeviation="5"/>
      <feFlood flood-color="#000" flood-opacity=".39"/>
      <feComposite in2="blur" operator="in"/>
      <feComposite in="SourceGraphic"/>
    </filter>
  </defs>
  <g id="Capa_1-2" data-name="Capa 1">
    <path class="cls-2" d="M1072.36,683.78h16.67c48.75,0,88.33,39.58,88.33,88.33v13.67h-16.67c-48.75,0-88.33-39.58-88.33-88.33v-13.67h0Z" transform="translate(-100.66 184.05) rotate(-8.95)"/>
    <path class="cls-2" d="M875.59,803.89h16.67c48.75,0,88.33,39.58,88.33,88.33v13.67h-16.67c-48.75,0-88.33-39.58-88.33-88.33v-13.67h0Z" transform="translate(-61.87 1637.3) rotate(-80.97)"/>
    <path class="cls-1" d="M560.48,82.33h0c48.75,0,88.33,39.58,88.33,88.33h0c-48.75,0-88.33-39.58-88.33-88.33h0Z" transform="translate(1200.12 -37.83) rotate(152.76)"/>
    <path class="cls-3" d="M898.18,57.76h5.12c47.36,0,85.81,38.45,85.81,85.81h-5.12c-47.36,0-85.81-38.45-85.81-85.81h0Z" transform="translate(1502.64 -666.22) rotate(120)"/>
    <path class="cls-1" d="M1184.48,129.33h16.67c48.75,0,88.33,39.58,88.33,88.33v13.67h-16.67c-48.75,0-88.33-39.58-88.33-88.33v-13.67h0Z" transform="translate(2420.27 -222.71) rotate(152.9)"/>
    <path class="cls-1" d="M1081.48,28.33h16.67c48.75,0,88.33,39.58,88.33,88.33v13.67h-16.67c-48.75,0-88.33-39.58-88.33-88.33v-13.67h0Z" transform="translate(227.78 -606.96) rotate(33.14)"/>
    <path class="cls-1" d="M632.48,34.83h0c48.75,0,88.33,39.58,88.33,88.33h0c-48.75,0-88.33-39.58-88.33-88.33h0Z" transform="translate(1065.51 638.35) rotate(-131.47)"/>
    <path class="cls-1" d="M783.48,67.5h0c48.75,0,88.33,39.58,88.33,88.33h0c-48.75,0-88.33-39.58-88.33-88.33h0Z" transform="translate(1662.51 90.41) rotate(170.86)"/>
    <path class="cls-1" d="M1636.68,293.45h16.67c48.75,0,88.33,39.58,88.33,88.33v13.67h-16.67c-48.75,0-88.33-39.58-88.33-88.33v-13.67h0Z" transform="translate(2894.09 -888.5) rotate(122.82)"/>
    <path class="cls-1" d="M1502.37,24.82h16.67c48.75,0,88.33,39.58,88.33,88.33v13.67h-16.67c-48.75,0-88.33-39.58-88.33-88.33v-13.67h0Z" transform="translate(17.94 -171.63) rotate(6.35)"/>
    <path class="cls-1" d="M1681.92,77.22h16.67c48.75,0,88.33,39.58,88.33,88.33v13.67h-16.67c-48.75,0-88.33-39.58-88.33-88.33v-13.67h0Z" transform="translate(3435.92 -231.7) rotate(163.83)"/>
    <g>
      <path class="cls-5" d="M1613.53,500.88c5.52,0,10-4.48,10-10V152.14l63.13-63.13c3.91-3.91,3.91-10.24,0-14.14-3.91-3.91-10.24-3.91-14.14,0l-48.98,48.98v-10.11c0-5.52-4.48-10-10-10s-10,4.48-10,10v34.25h0v33.73l-146.89-94V19h-94v88.56l-112.46-97.13c-4.18-3.61-10.5-3.15-14.1,1.03-3.61,4.18-3.15,10.49,1.03,14.1l125.54,108.42v120.41h-276.67v-36.74c.6-.27,1.19-.6,1.75-1l105.44-76.05c4.48-3.23,5.49-9.48,2.26-13.96-3.23-4.48-9.48-5.49-13.96-2.26l-95.48,68.87v-99.59c0-5.52-4.48-10-10-10s-10,4.48-10,10v170.73c0,5.52,4.48,10,10,10h286.67v524.6h-165.34v-324.27c0-5.52-4.48-10-10-10h-296.22v-196.19l141.66-141.66c3.91-3.91,3.91-10.24,0-14.14-3.91-3.9-10.24-3.9-14.14,0l-127.52,127.52V100.78c0-5.52-4.48-10-10-10s-10,4.48-10,10v163.62h0v57.06l-210.36-210.36c-3.91-3.91-10.24-3.91-14.14,0s-3.91,10.24,0,14.14l224.51,224.51v125c0,5.52,4.48,10,10,10h296.22v314.27h-195.45l-166.07-193.07c-3.6-4.19-9.92-4.66-14.1-1.06-4.19,3.6-4.66,9.92-1.06,14.1l29.59,34.4-170.7-23.48c-5.47-.76-10.52,3.07-11.27,8.54-.75,5.47,3.07,10.52,8.54,11.27l192.72,26.51c.13.02.25.01.37.03l119.81,139.28c1.9,2.21,4.67,3.48,7.58,3.48h385.38v108h94v-173.36l211.12-2.48c5.52-.06,9.95-4.59,9.88-10.12-.06-5.48-4.53-9.88-10-9.88-.04,0-.08,0-.12,0l-210.88,2.48v-232.76h156.89ZM1603.53,205.47v275.41h-146.89V111.47l146.89,94Z"/>
      <rect class="cls-4" x="1403.64" y="19" width="53" height="907"/>
    </g>
    <path class="cls-2" d="M505.9,781.21h0c48.75,0,88.33,39.58,88.33,88.33h0c-48.75,0-88.33-39.58-88.33-88.33h0Z" transform="translate(270.24 -126.21) rotate(17.29)"/>
    <path class="cls-1" d="M4.23,810.71h0c48.75,0,88.33,39.58,88.33,88.33h0c-48.75,0-88.33-39.58-88.33-88.33h0Z" transform="translate(182.81 1700.51) rotate(174.21)"/>
    <path class="cls-3" d="M567.93,127.14h5.12c47.36,0,85.81,38.45,85.81,85.81h-5.12c-47.36,0-85.81-38.45-85.81-85.81h0Z" transform="translate(1067.36 -276.15) rotate(120)"/>
  </g>
</svg>