<?xml version="1.0" encoding="UTF-8"?>
<svg id="Capa_2" data-name="Capa 2" xmlns="http://www.w3.org/2000/svg" viewBox="0 0 379.13 397.19">
  <defs>
    <style>
      .cls-1 {
        fill: #ff3f54;
      }

      .cls-2 {
        fill: #fda66f;
      }

      .cls-3 {
        fill: #3559a5;
      }

      .cls-4 {
        fill: #fc804d;
      }

      .cls-5 {
        fill: #fff;
      }

      .cls-6 {
        fill: #d01c28;
      }

      .cls-7 {
        fill: #adadad;
      }
    </style>
  </defs>
  <g id="Capa_1-2" data-name="Capa 1">
    <g>
      <rect class="cls-7" width="379.13" height="379.13"/>
      <g>
        <path class="cls-3" d="M151.47,54.43s-31.35,19.77-31.75,72.35c-.29,38.31,17.93,43.22-.86,67.66-18.79,24.44-37.58,24.72-46.36,51.85-12,37.11,17.27,63.3,47.11,79.27,42.51,22.76,66.12-63.97,110.86-55.25,42.78,8.34,48.43-14.64,47.32-34.02-1.4-24.44-35.22-21.91-28.56-51.08,11.65-51,6.31-76.19-3.6-105.25-7.36-21.58-72.87-30.11-94.16-25.53Z"/>
        <path class="cls-2" d="M275.83,372.03s.04.08.07.14c.38.76.75,1.51,1.12,2.27l.09.25c.5.99,1.15,2.21,1.93,4.43h36.61c-1.57-4.35-2.7-7.66-3.73-10.33-.7-1.97-1.46-4.04-2.27-6.19-9.26-24.83-24.32-60.69-30.4-75.04-1.67-3.95-2.67-6.28-2.67-6.28-19.54.67-31.54,17.56-31.54,17.56,0,0,1.79,5.52,4.71,14.01,5.75,16.71,16.36,39.27,26.02,59.07,0,0,.02.03.04.1Z"/>
        <path class="cls-3" d="M279.27,287.57c-5.28,6.04-15.86,16.99-29.5,25.3-2.92-8.49-4.7-14-4.7-14,0,0,12-16.89,31.54-17.56,0,0,.99,2.32,2.66,6.27Z"/>
        <path class="cls-3" d="M213.12,158.64c18.64,3.46,31.31-8.65,35.63-28.3,1.85-8.43.99-23.15.79-28.19-.83-21.33-10.55-58.69-56.58-60.05,0,0-31-1.54-47.53,18.19-19.77,23.6-15.18,39.53-16.63,55.15-.68,7.35.32,14.78,3.27,21.55,1.84,4.22,4.39,8.65,7.9,12.3,16.29,19.62,44.96,14,73.15,9.35Z"/>
        <path class="cls-1" d="M280.6,280.37s-7.9,8.38-22.27,17.37c-.82.52-1.66,1.04-2.52,1.54-4.83,2.9-10.32,5.81-16.41,8.49l-4.27-59.4s2.93-12.81,19.4-19.89c0,0,15.53,29.87,26.07,51.89Z"/>
        <path class="cls-6" d="M257.62,248.6c-.03.13-2.78,13.61.27,29.77,1.42,7.58,1.25,14.11.44,19.37-.82.52-1.66,1.04-2.52,1.54,1.04-5.34,1.47-12.31-.06-20.51-3.13-16.6-.38-30.06-.26-30.62.13-.59.7-.96,1.29-.84.59.13.96.7.84,1.29Z"/>
        <path class="cls-1" d="M237.88,337.96c-2.02,9.03.2,25.7,3.21,41.17h-112.12c.24-4.18.44-8.52.58-12.93.51-16.43-2.42-39.25-6.26-59.89-.14-.77-.29-1.54-.44-2.3-2.62-13.74-5.62-26.37-8.19-35.26-6.57-22.65-8.57-42.68,9.65-51.64,14.16-6.96,30.89-14.69,37.65-17.78,1.94-.89,3.06-1.4,3.06-1.4,0,0,37.76-7.75,47.64-.33.67.5,1.4.99,2.17,1.48,10.58,6.72,29.9,12.54,39.72,29.4,9.34,16.03-6.54,10.75,1.01,51.53,5.21,28.19-13.24,38.2-17.66,57.96Z"/>
        <path class="cls-6" d="M206.26,366.67c-5.02.17-10.45-.37-15.93-2.17-.58-.19-.89-.81-.7-1.39.19-.58.81-.89,1.39-.7,19,6.24,38.08-3.68,38.27-3.78.54-.28,1.21-.08,1.49.46.28.54.08,1.21-.46,1.49-.59.31-10.88,5.66-24.06,6.1Z"/>
        <path class="cls-6" d="M210.79,264.9c-2.24.08-4.6,0-7.05-.25-11.87-1.17-21.82-5.56-22.24-5.75-.56-.25-.81-.9-.56-1.46.25-.56.9-.81,1.46-.56.39.18,39.51,17.25,52.92-8.19.28-.54.95-.74,1.49-.46.54.28.75.95.46,1.49-5.06,9.59-14.13,14.76-26.48,15.17Z"/>
        <path class="cls-6" d="M222.39,355.03c-39.14,1.31-73.74-27.91-74.11-28.23-.46-.39-.51-1.08-.12-1.54.39-.46,1.08-.51,1.53-.12.39.33,39.4,33.26,80.9,26.95.59-.09,1.15.32,1.24.91s-.32,1.15-.91,1.24c-2.86.43-5.71.69-8.53.78Z"/>
        <g>
          <path class="cls-2" d="M215.47,207.35c0,1.08-.04,2.14-.11,3.21-.23,3.48-.78,6.9-1.51,10.13-.17.74-.34,1.46-.52,2.18,0,0,0,.02,0,.02-.28,1.09-.58,2.16-.88,3.2-.5,1.66-1.03,3.24-1.56,4.73-.26.71-.51,1.4-.77,2.07-2.43,6.29-4.76,10.37-4.76,10.37-1.36-2.72-4.21-6.38-7.88-10.45-.54-.6-1.1-1.21-1.67-1.83-.66-.7-1.34-1.42-2.03-2.14-.77-.81-1.57-1.63-2.39-2.46-.71-.72-1.44-1.44-2.17-2.17-.61-.6-1.22-1.21-1.85-1.81-1.51-1.47-3.05-2.94-4.6-4.4-.73-.7-1.47-1.39-2.21-2.08-7.21-6.72-14.25-12.88-18.6-16.61,1.94-.89,3.06-1.4,3.06-1.4,0,0,37.76-7.75,47.64-.33.67.5,1.4,1,2.17,1.48.49,2.74.69,5.53.67,8.28Z"/>
          <path class="cls-1" d="M215.47,207.35c0,1.08-.04,2.14-.11,3.21-.93.88-1.9,1.72-2.9,2.51-2.22,1.76-4.58,3.3-6.98,4.64-1,.57-2.02,1.09-3.03,1.58-4.58,2.24-9.19,3.82-13.24,4.93-.61-.6-1.22-1.21-1.85-1.81,3.4-.89,7.28-2.11,11.21-3.79,1.2-.51,2.4-1.06,3.59-1.67,4.79-2.39,9.48-5.53,13.32-9.59Z"/>
          <path class="cls-1" d="M213.32,222.89c-.28,1.09-.58,2.16-.88,3.2-1.9,1.18-3.84,2.21-5.8,3.13-1.04.5-2.09.96-3.12,1.39-2.06.86-4.1,1.59-6.06,2.21-.54-.6-1.1-1.21-1.67-1.83,1.25-.38,2.54-.8,3.85-1.28,1.21-.44,2.45-.92,3.69-1.45,3.37-1.43,6.78-3.19,9.99-5.37Z"/>
          <path class="cls-1" d="M210.87,230.82c-.26.71-.51,1.4-.77,2.07-2.15-.94-4.36-1.69-6.59-2.29-1.29-.35-2.58-.64-3.87-.9-1.99-.38-3.96-.67-5.88-.86-.77-.81-1.57-1.63-2.39-2.46,3.82.26,7.9.83,11.96,1.87,1.11.28,2.21.6,3.31.96,1.05.35,2.09.72,3.12,1.14.37.15.74.3,1.11.47Z"/>
          <path class="cls-1" d="M213.85,220.69c-.17.74-.34,1.46-.52,2.18-3.5-1.67-7.21-2.81-10.89-3.58-1.31-.28-2.6-.5-3.88-.68-5.83-.85-11.4-.86-15.81-.6-.73-.7-1.47-1.39-2.21-2.08,5.53-.46,13.45-.6,21.61,1.01,1.11.22,2.22.47,3.33.77,2.11.55,4.21,1.23,6.28,2.06.7.29,1.4.59,2.1.92Z"/>
        </g>
        <path class="cls-6" d="M153.22,261.65l-14.02,44.57c-.13.41-.48.71-.91.76-.98.12-2.36.28-4.14.34-2.7.09-6.33-.06-10.88-1-.14-.77-.29-1.54-.44-2.31,7.05,1.56,11.87,1.18,14.5.89l13.81-43.9c.18-.57.79-.89,1.36-.71.57.18.89.8.71,1.37Z"/>
        <path class="cls-6" d="M146.77,279.71c-.26,0-.53-.08-.75-.27-.45-.39-.5-1.08-.11-1.54l11.37-13.1c.39-.45,1.08-.5,1.54-.11.45.39.5,1.08.11,1.54l-11.37,13.1c-.21.24-.49.36-.79.37Z"/>
        <g>
          <g>
            <path class="cls-2" d="M212.85,195.92s.19,9.98-14.01,12.39c-16.99,2.9-33.84-10.38-33.84-10.38,2.42-10.5,2.49-22.91,1.55-32.05-.47-4.62-1-7.65-1-7.65h0s45.23,16.68,45.23,16.68l1.11,11.31.55,5.57.41,4.13Z"/>
            <path class="cls-3" d="M211.89,186.21c-23.56-.6-39.49-13.57-45.61-22.77-.44-4.33-.71-5.12-.73-5.21l45.23,16.67,1.11,11.31Z"/>
          </g>
          <path class="cls-4" d="M230.67,114.03s2.3-9.25,11.33-8c9.04,1.26,11.12,38.16-11.03,36.76l-.3-28.76Z"/>
          <path class="cls-5" d="M239.7,159.08c-7.23.24-13.32-5.45-13.56-12.68-.24-7.23,5.45-13.32,12.68-13.56,7.23-.24,13.32,5.45,13.56,12.68.24,7.24-5.45,13.32-12.68,13.56ZM238.92,135.88c-5.56.19-9.92,4.86-9.74,10.41.19,5.56,4.86,9.92,10.41,9.74,5.56-.19,9.92-4.86,9.74-10.41-.19-5.56-4.86-9.92-10.41-9.74Z"/>
          <path class="cls-2" d="M243.66,126.63c0,.19-.01.37-.02.57-.08,1.7-.18,3.43-.32,5.19-.01.1-.01.2-.02.29-.18,2.27-.41,4.57-.7,6.88-.25,1.98-.47,3.99-.9,5.97-5.13,23.45-20.58,33.59-40.98,31.63-37.51-3.62-51.46-40.02-56.33-60.72-1.75-7.43-2.29-12.41-2.29-12.41-1.08-27.65,28.84-50.44,54.52-48.92,35.98,2.12,42.89,23.34,45.51,40.07.29,1.83.53,3.6.74,5.29.65,5.05,1.29,14.9.8,26.17Z"/>
          <path class="cls-4" d="M209.17,163.69c-.5.16-.88.62-.92,1.18-.05.73.51,1.36,1.24,1.4,5.57.36,8.53-.8,8.66-.85.68-.27,1.01-1.04.74-1.72-.27-.68-1.04-1.01-1.71-.74-.05.02-2.64.98-7.51.67-.17-.01-.33.01-.48.06Z"/>
          <circle class="cls-5" cx="212.85" cy="153.58" r="7.63"/>
          <path class="cls-3" d="M142.85,109.06s7.49-1.53,10.95,3.23c3.46,4.76,1.19,12.59,6.59,14.63,5.41,2.04,4.97-17.52,3.26-25.21-1.7-7.69,3.26-14.98,3.26-14.98,0,0-.72,12.48-.79,17.94,0,0,19.57-3.83,26.94-6.03l1.11-13.72s1.52,11.13,3.89,13.59c0,0,13.98.42,21.3-2.59l-.63-13.73,3.62,13.09s11.18,2.63,19.77-.11c0,0,3.47-32.32-33.64-42.89-37.11-10.56-76.51,11.34-65.63,56.77Z"/>
          <path class="cls-3" d="M197.2,104.77c.44-.28.76-.73.87-1.28.21-1.06-.49-2.09-1.55-2.3-4.18-.83-12.9-.08-16,8.63-.36,1.02.17,2.15,1.2,2.51,1.02.37,2.15-.17,2.51-1.19,2.72-7.67,11.18-6.16,11.53-6.09.51.1,1.02-.01,1.43-.28Z"/>
          <path class="cls-3" d="M236.97,110.3c.5.14,1.05.08,1.53-.21.93-.56,1.23-1.76.67-2.69-2.19-3.65-8.59-9.63-17.13-6.08-1,.42-1.48,1.57-1.06,2.57.41,1,1.57,1.48,2.57,1.06,7.52-3.12,12.06,4.17,12.25,4.48.27.45.7.75,1.17.88Z"/>
          <path class="cls-3" d="M235.23,94s.5,5.54,4.27,10.3c1.95,2.46,3.31,5.34,3.76,8.45l.55,3.79s1.9-15.69-1.7-21.36l-6.89-1.18Z"/>
          <path class="cls-4" d="M190.52,128.19c.06,1.64-4.34,3.13-9.82,3.32-5.48.19-9.97-.98-10.03-2.62-.06-1.64,4.34-3.13,9.82-3.32,5.48-.19,9.97.98,10.03,2.62Z"/>
          <path class="cls-4" d="M243.66,126.63c0,.19-.01.37-.02.57-.08,1.7-.18,3.43-.32,5.19-.83.07-1.7.11-2.6.13-6.04.09-11.01-1.16-11.1-2.81-.09-1.64,4.73-3.06,10.76-3.16,1.14-.02,2.25.01,3.28.09Z"/>
          <path class="cls-3" d="M194.01,117.9c.1,2.94-1.11,5.37-2.72,5.43-1.6.06-2.99-2.28-3.09-5.22-.1-2.94,1.11-5.37,2.72-5.43s2.99,2.28,3.09,5.22Z"/>
          <path class="cls-3" d="M229.48,116.91c.1,2.94-1.11,5.37-2.72,5.43-1.6.06-2.99-2.28-3.09-5.22-.1-2.94,1.11-5.37,2.72-5.43,1.6-.06,2.99,2.28,3.09,5.22Z"/>
          <path class="cls-4" d="M210.71,140.29c-.97.03-1.8-.71-1.87-1.69-.07-1,.68-1.86,1.68-1.93,1.48-.1,2.68-.26,3.54-.41-.81-5.61-3.08-13.14-3.11-13.23-.29-.96.25-1.97,1.21-2.26.96-.29,1.97.25,2.26,1.21.12.39,2.88,9.54,3.44,15.55.08.88-.48,1.69-1.33,1.92-.09.02-2.23.59-5.76.83-.02,0-.04,0-.06,0Z"/>
          <g>
            <path class="cls-2" d="M152.79,115.4s-5.6-9.55-15.26-5.18c-9.65,4.37.18,46.16,24.38,37.31l-9.13-32.13Z"/>
            <path class="cls-5" d="M161.55,147.66c.41,1.18.64,2.44.68,3.75.24,7.23-5.45,13.32-12.68,13.56-7.23.24-13.32-5.45-13.56-12.68-.15-4.51,2.01-8.57,5.41-11.04,1.9-1.39,4.19-2.28,6.69-2.47l.1,3.05c-1.75.16-3.37.77-4.74,1.71-2.76,1.88-4.53,5.08-4.41,8.66.19,5.56,4.86,9.92,10.41,9.74,5.56-.19,9.92-4.85,9.74-10.41-.04-1.07-.24-2.1-.59-3.06l2.95-.79Z"/>
            <path class="cls-4" d="M151,136.83s-.02,0-.03,0c-1,.02-1.82-.78-1.84-1.78-.21-11.38-9.16-16.11-9.25-16.16-.89-.46-1.24-1.55-.78-2.44.46-.89,1.55-1.24,2.44-.78.45.23,10.97,5.79,11.22,19.31.02.99-.76,1.81-1.75,1.84Z"/>
            <path class="cls-4" d="M141.88,129.36c-.74.02-1.45-.41-1.74-1.13-.37-.93.07-1.98,1-2.36.55-.22,5.52-2.13,9.11-.18.88.48,1.2,1.58.72,2.46-.48.88-1.58,1.2-2.46.72-1.79-.98-5.03-.05-6.02.36-.2.08-.41.12-.62.13Z"/>
          </g>
        </g>
        <g>
          <path class="cls-2" d="M107.61,379.13c6.5-14.13,15.44-43.82,21.79-68.55.7-2.71,1.36-5.33,1.98-7.84,3.56-14.28,5.84-24.68,5.84-24.68l-25.8-43.08s-9.31,20.49-19.24,47.97c-.72,2-1.45,4.04-2.18,6.11-5.5,15.67-9.27,32.49-13.66,49.46-4.83,18.68-6.59,29.63-9.39,40.62h40.66Z"/>
          <path class="cls-3" d="M131.39,302.74c-.62,2.5-1.28,5.13-1.98,7.84-12.97-.98-33.73-15.41-39.41-21.52.73-2.07,1.46-4.11,2.18-6.11,15.33,12.22,33.68,18.18,39.21,19.79Z"/>
          <path class="cls-1" d="M112.9,227.99c-11.19,18.25-22.04,36.46-26.47,53.74,0,0,16.56,22.2,50.9,23.16l10.37-33.61s-16.15-40.38-34.8-43.29Z"/>
        </g>
        <g>
          <path class="cls-2" d="M377.21,385.1c-1.32,10.11-7.05,8.6-9.9-3.68-.02.47-.6,10.73-2.51,12.06-4.64,3.24-8.03-9.39-9.71-16.49.95,5.62.94,23.13-4.35,19.76-3.74-2.38-6.14-17.13-7.09-21.08.92,4.12,2.77,20.18-3.17,19.81-3.89-.24-6.79-14.19-6.79-14.19l-.07-.29-.47-1.89h-16.45c.44-1.62,1.24-3.23,1.93-3.98,3.19-3.48,7.4-3.15,10.06-2.67.5.09.95.18,1.33.26.59.12.94.22.94.22,0,0,.04-.35.14-.94.07-.43.17-.99.3-1.62.77-3.83,2.67-10.62,6.48-10.82,5.24-.27,6.66,5.3,6.7,5.45.09-.27,2.24-6.44,6.81-5.07,4.58,1.37,4.07,7.68,4.04,7.97.17-.23,5.28-7.38,8.64-5.36,3.42,2.06,3.94,6.36,3.94,6.36,0,0,4.97-6.32,7.71-.99,2.15,4.16,2.13,12.36,1.5,17.17Z"/>
          <path class="cls-4" d="M333.07,379.12h-2.03l-2.37-6.65c.5.09.95.18,1.33.26.59.12.94.22.94.22,0,0,.04-.35.14-.94l1.99,7.11Z"/>
        </g>
        <g>
          <path class="cls-2" d="M5.27,385.1c1.32,10.11,7.05,8.6,9.9-3.68.02.47.6,10.73,2.51,12.06,4.64,3.24,8.03-9.39,9.71-16.49-.95,5.62-.94,23.13,4.35,19.76,3.74-2.38,6.14-17.13,7.09-21.08-.92,4.12-2.77,20.18,3.17,19.81,3.89-.24,6.79-14.19,6.79-14.19l.07-.29.47-1.89h16.45c-.44-1.62-1.24-3.23-1.93-3.98-3.19-3.48-7.4-3.15-10.06-2.67-.5.09-.95.18-1.33.26-.59.12-.94.22-.94.22,0,0-.04-.35-.14-.94-.07-.43-.17-.99-.3-1.62-.77-3.83-2.67-10.62-6.48-10.82-5.24-.27-6.66,5.3-6.7,5.45-.09-.27-2.24-6.44-6.81-5.07-4.58,1.37-4.07,7.68-4.04,7.97-.17-.23-5.28-7.38-8.64-5.36-3.42,2.06-3.94,6.36-3.94,6.36,0,0-4.97-6.32-7.71-.99-2.15,4.16-2.13,12.36-1.5,17.17Z"/>
          <path class="cls-4" d="M49.4,379.12h2.03l2.37-6.65c-.5.09-.95.18-1.33.26-.59.12-.94.22-.94.22,0,0-.04-.35-.14-.94l-1.99,7.11Z"/>
        </g>
      </g>
    </g>
  </g>
</svg>