<?xml version="1.0" encoding="UTF-8"?>
<svg id="Capa_2" data-name="Capa 2" xmlns="http://www.w3.org/2000/svg" viewBox="0 0 349.66 414.19">
  <defs>
    <style>
      .cls-1 {
        fill: #ff3f54;
      }

      .cls-2 {
        fill: #ebd4c3;
      }

      .cls-3 {
        fill: #fda66f;
      }

      .cls-4 {
        fill: #3559a5;
      }

      .cls-5 {
        fill: #2699fd;
      }

      .cls-6 {
        fill: #fc804d;
      }

      .cls-7 {
        fill: #fff;
      }

      .cls-8 {
        fill: #d01c28;
      }

      .cls-9 {
        fill: #2774d7;
      }
    </style>
  </defs>
  <g id="Capa_1-2" data-name="Capa 1">
    <g>
      <rect class="cls-2" y="22.9" width="349.66" height="331.12"/>
      <g>
        <g>
          <path class="cls-5" d="M258.36,354.02H72.47c-15.34-37.74-33.84-110.2-17.54-125.89,17.45-16.8,44.67-37.67,56.74-46.73,3.82-2.87,6.12-4.55,6.12-4.55l55.16-11.87s.22.05.64.14c1.03.24,3.28.77,6.33,1.56,2.33.6,5.13,1.35,8.24,2.24,18.83,5.38,48.98,15.85,53.39,28.66,4.87,14.13,13.03,109.53,16.81,156.43Z"/>
          <path class="cls-7" d="M218.97,354.02h-48.87c-1.72-11.17-4.45-23.31-7.83-35.87-.27-1-.54-2.01-.82-3.02-14.43-52.34-39.55-110.82-49.78-133.74,3.82-2.87,6.12-4.55,6.12-4.55l55.16-11.87s2.68.59,6.97,1.7c13.11,27.51,22.05,63.9,28.05,97.77.26,1.46.51,2.91.76,4.36,6.39,37.35,9.23,70.96,10.24,85.2Z"/>
          <path class="cls-2" d="M208.72,268.82c-9.39,14.69-24.95,34.94-46.45,49.34-.27-1-.54-2.01-.82-3.02,22.05-15.01,37.66-36.29,46.51-50.68.26,1.46.51,2.91.76,4.36Z"/>
          <path class="cls-9" d="M221.68,354.02h-12.13c1.99-16.45,4.18-73.63-35.97-188.89-.88-2.53-1.79-5.1-2.71-7.7,0,0,13.47-3.14,17.28,11.49,0,0,41.57,115.58,33.53,185.1Z"/>
          <path class="cls-2" d="M131.05,208.7c-.83.04-1.56-.57-1.65-1.4-.1-.87.53-1.65,1.39-1.75,35.06-4,43.64-24.86,43.72-25.07.32-.81,1.24-1.22,2.05-.9.81.32,1.22,1.23.9,2.05-.36.93-9.23,22.84-46.31,27.07-.03,0-.07,0-.1,0Z"/>
          <path class="cls-2" d="M145.86,217.23c-.81.04-1.54-.55-1.65-1.37-.12-.87.49-1.66,1.36-1.78,19.31-2.58,24.1-11.94,24.15-12.04.38-.79,1.33-1.11,2.12-.73.79.38,1.11,1.33.73,2.12-.22.45-5.6,10.99-26.58,13.79-.04,0-.09,0-.13.01Z"/>
        </g>
        <g>
          <path class="cls-8" d="M69.92,90.32s-25.15,30.02-19.81,40.33c5.34,10.31,51.36,4.55,60.12-5.92,8.75-10.47-23.16-39.68-40.31-34.41Z"/>
          <g>
            <path class="cls-3" d="M159.15,182.18c-19.14,6.74-41.36-5.32-41.36-5.32.72-12.67-1.67-27.09-4.58-37.52-1.47-5.27-2.69-8.68-2.69-8.68l55.84,10.35,5.29,19.27,1.29,4.71s2.21,11.55-13.8,17.19Z"/>
            <path class="cls-4" d="M171.65,160.28c-26.9,2.81-49.82-13.74-59.24-23.71-1.47-5.27-1.9-5.92-1.9-5.92l55.84,10.35,5.29,19.27Z"/>
          </g>
          <path class="cls-6" d="M176.87,58.68s1.02-13.82,14.27-14.24c13.25-.42,25.29,51.91-6.76,55.35l-7.5-41.11Z"/>
          <path class="cls-3" d="M196.39,100.74c-.07,26.18-12.78,47.4-40.35,49.15-60.21,3.82-83.56-77.5-83.56-77.5C60.74,30.4,90.79,3.14,132.56,3.44c41.78.3,50.24,25.26,56.21,44.75,1.79,5.83,4.56,17.42,6.23,30.88.26,2.11.5,4.25.69,6.44.24,2.67.43,5.39.55,8.13.1,2.35.16,4.73.14,7.11Z"/>
          <path class="cls-4" d="M74.28,77.82s7.84.6,13.39,6.05c0,0,6.88,20.95,15.82,17.53,8.94-3.41-.55-17.62,2.23-24.67,1.75-4.42,7.04-12.91,4.5-24.92,0,0-28.18,9.86-35.94,26.02Z"/>
          <path class="cls-4" d="M178.63,42.2s1.68,6.33,7.02,11.11c2.76,2.47,4.91,5.54,6.05,9.06l1.4,4.29s-.92-18.59-6.22-24.46h-8.24Z"/>
          <path class="cls-7" d="M144.28,113.98s23.46-3.36,35.9-8.47c0,0,4.37,15.58-15.75,18.85-16.64,2.71-20.15-10.38-20.15-10.38Z"/>
          <path class="cls-6" d="M130.08,89.92c.39,1.89-4.41,4.5-10.74,5.81-6.33,1.32-11.77.85-12.17-1.05-.39-1.89,4.41-4.5,10.74-5.81,6.33-1.32,11.77-.85,12.17,1.05Z"/>
          <path class="cls-6" d="M195.69,85.5c-1.27.42-2.66.79-4.14,1.11-6.33,1.31-11.78.85-12.17-1.05-.39-1.89,4.41-4.49,10.74-5.81,1.72-.36,3.38-.58,4.88-.68.26,2.11.5,4.25.69,6.44Z"/>
          <path class="cls-4" d="M135.61,78.81c.71,3.39-.22,6.46-2.07,6.84-1.85.39-3.92-2.05-4.63-5.45-.71-3.39.22-6.46,2.07-6.84,1.85-.39,3.92,2.05,4.63,5.45Z"/>
          <path class="cls-4" d="M178.04,72.22c.71,3.39-.22,6.46-2.07,6.84-1.85.39-3.92-2.05-4.63-5.45-.71-3.39.22-6.46,2.07-6.84,1.85-.39,3.92,2.05,4.63,5.45Z"/>
          <path class="cls-4" d="M117.83,68.12c-.75,0-1.5-.26-2.11-.79-1.33-1.16-1.47-3.19-.31-4.52.35-.4,3.57-3.93,9.4-5.31,1.76-.42,3.3-.62,4.62-.69,3.15-.16,5.2,3.27,3.65,6.02l-.35.63s.04.03.13.07c-.02,0-2.04-.86-6.58.21-3.89.92-6.03,3.27-6.05,3.29-.63.73-1.52,1.1-2.41,1.1Z"/>
          <path class="cls-4" d="M166.45,59.72c-.79,0-1.58-.29-2.19-.87-1.28-1.21-1.36-3.2-.16-4.49.33-.36,3.43-3.56,8.87-4.7,1.71-.36,3.2-.51,4.47-.53,2.87-.05,4.66,3.11,3.19,5.58l-.64,1.08s.05.03.14.08c-.02,0-1.78-.79-5.85.06-3.46.72-5.48,2.79-5.5,2.81-.63.65-1.48.99-2.32.99Z"/>
          <g>
            <path class="cls-7" d="M132.12,108.22c-5.24,0-10.27-1.79-14.38-5.16-4.7-3.85-7.62-9.3-8.22-15.35-.6-6.05,1.19-11.97,5.04-16.67,3.85-4.7,9.3-7.62,15.35-8.22,6.05-.6,11.97,1.19,16.67,5.04,4.7,3.85,7.62,9.3,8.22,15.35.6,6.05-1.19,11.97-5.04,16.67-3.85,4.7-9.3,7.62-15.35,8.22-.77.08-1.53.11-2.29.11ZM132.2,65.11c-.68,0-1.36.03-2.05.1-5.41.54-10.29,3.15-13.73,7.36-3.45,4.21-5.05,9.5-4.51,14.91.54,5.41,3.15,10.29,7.36,13.73,4.21,3.45,9.5,5.05,14.91,4.51,5.41-.54,10.29-3.15,13.73-7.36,3.45-4.21,5.05-9.5,4.51-14.91h0c-.54-5.41-3.15-10.29-7.36-13.73-3.67-3.01-8.18-4.61-12.86-4.61Z"/>
            <path class="cls-7" d="M180.54,96.5c-4.95,0-9.71-1.69-13.59-4.87-4.44-3.64-7.2-8.8-7.77-14.51-.57-5.72,1.12-11.31,4.77-15.76,3.64-4.44,8.79-7.2,14.51-7.77,11.79-1.17,22.36,7.48,23.53,19.28h0c1.17,11.8-7.48,22.36-19.28,23.53-.72.07-1.45.11-2.17.11ZM180.59,55.87c-.63,0-1.26.03-1.9.09-5.08.5-9.66,2.96-12.9,6.91-3.24,3.95-4.74,8.92-4.23,14,.5,5.08,2.96,9.66,6.91,12.9,3.95,3.23,8.92,4.74,14,4.23,10.49-1.04,18.17-10.42,17.13-20.91h0c-.98-9.85-9.31-17.22-19.01-17.22Z"/>
            <path class="cls-7" d="M197.96,65.84c-.15.07-.3.11-.46.13-.68.07-1.35-.31-1.63-.97-.03-.07-1.86-4.31-5.33-9.34-.27-2.27-.57-4.42-.86-6.43,5.89,6.99,8.97,14.12,9.14,14.53.35.82-.03,1.76-.85,2.1Z"/>
            <path class="cls-7" d="M152.49,79.87c-.38,0-.76-.14-1.07-.41-.65-.59-.71-1.58-.13-2.24.15-.17,3.7-4.08,9.51-1.99.83.3,1.26,1.21.96,2.04-.3.83-1.21,1.26-2.04.96-3.73-1.34-5.95,1.02-6.05,1.12-.32.34-.75.52-1.18.52Z"/>
            <path class="cls-7" d="M81.34,82.3c-.58,0-1.13-.31-1.42-.86-.41-.78-.1-1.75.68-2.16,12.9-6.72,29.92-.35,30.63-.08.82.32,1.24,1.24.92,2.06-.31.82-1.24,1.24-2.06.92-.16-.06-16.41-6.13-28.02-.08-.24.12-.49.18-.74.18Z"/>
          </g>
          <path class="cls-6" d="M158.58,101.79c-.9,0-1.72-.61-1.94-1.53-.26-1.07.4-2.15,1.47-2.41,1.77-.43,3.18-.88,4.17-1.23-2.04-6.37-6.24-14.79-6.29-14.88-.49-.99-.09-2.19.89-2.68.99-.49,2.19-.1,2.68.89.21.43,5.24,10.5,7.08,17.34.25.94-.21,1.93-1.09,2.33-.1.05-2.46,1.12-6.49,2.1-.16.04-.32.06-.47.06Z"/>
          <g>
            <path class="cls-3" d="M87.67,83.87s-8.93-10.59-19.91-3.16c-10.98,7.43,9.98,56.87,37.96,40.85l-18.05-37.69Z"/>
            <path class="cls-6" d="M89.53,110.44c-.94,0-1.78-.67-1.96-1.62-2.69-14.14-14.88-18.13-15.01-18.17-1.05-.33-1.64-1.45-1.31-2.51.33-1.05,1.45-1.64,2.51-1.31.59.19,14.6,4.77,17.73,21.23.21,1.08-.5,2.13-1.59,2.34-.13.02-.25.04-.38.04Z"/>
            <path class="cls-6" d="M76.71,103.16c-.67,0-1.32-.34-1.7-.95-.58-.94-.29-2.17.65-2.75.63-.39,6.24-3.74,10.97-2.12,1.04.36,1.6,1.49,1.24,2.54-.36,1.04-1.49,1.6-2.54,1.24-2.51-.86-6.41,1.01-7.58,1.74-.33.2-.69.3-1.05.3Z"/>
          </g>
          <g>
            <path class="cls-1" d="M74.28,77.82s46.55-42.78,113.87-33.83c0,0-4.4-38.9-47.06-43.44-42.66-4.54-61.86,19.65-67.92,34.97-5.05,12.76-6.26,29.58,1.12,42.3Z"/>
            <path class="cls-8" d="M126.25,40.06s-.87,4.8,4.23,8.23c0,0,14.39-4.62,35.14-5.47,0,0,1.22-4.53-2.54-9.43,0,0-20.68-2.8-36.82,6.67Z"/>
            <path class="cls-4" d="M126.25,40.06s-3.01-17.35,15.53-20.29c14.76-2.34,21.29,13.61,21.29,13.61,0-1.12-27.75,1-36.82,6.67Z"/>
          </g>
        </g>
        <g>
          <path class="cls-3" d="M323.79,331.5c-17.84-5.3-43.29-26.28-51.45-33.28-1.68-1.44-2.62-2.28-2.62-2.28l20.15-44.03s1.74,1.66,4.63,4.37c8.96,8.42,29.01,27.02,42.72,37.94,19.88,15.83,8.06,43.65-13.43,37.28Z"/>
          <path class="cls-3" d="M349.66,275.66v47.45c-2.65,2-5.78,4-9.46,5.95-14.19,7.46-17.17-37.72-17.17-37.72l26.64-15.68Z"/>
          <path class="cls-4" d="M298.88,259.82l-23.66,40.9c-1.68-1.44-5.48-4.77-5.48-4.77l20.15-44.03s6.11,5.19,9,7.91Z"/>
          <path class="cls-5" d="M295.95,242.92l-30.64,61.96-9.19-7.76-3.07-2.61-5.43-4.59s-20.34-59.74-10.02-98.31l58.36,51.31Z"/>
          <path class="cls-9" d="M256.74,300.17c1.8,2.72,4.48,4.79,8.57,5.69,11.87-18.89,24.34-40.37,34.99-60.32-1.82-2.49-4.27-5.01-7.71-6.47-12.64,20.23-25.57,42.1-35.86,61.1Z"/>
          <path class="cls-9" d="M256.12,297.13l-3.07-2.61c-1.31-12.48-4.17-38.57-7.94-66.54-.1-.77.44-1.47,1.2-1.57.77-.1,1.47.44,1.57,1.2,4.09,30.4,7.1,58.58,8.24,69.52Z"/>
        </g>
        <path class="cls-9" d="M176.47,359.16h-11.15s-12.79-94.32-57.42-176.03c0,0-3.21-14.73,9.77-19.61,0,0,1.35,9.68,4.56,15.4,0,0,43.09,71.04,54.24,180.24Z"/>
        <g>
          <path class="cls-3" d="M99.71,410.38c-12.41-7.3-24.76-33.63-33.21-55.31-1.23-3.18-2.39-6.26-3.44-9.16l49.55-18.71c1.6,3.93,3.31,8.12,5.06,12.43,2,4.91,4.05,9.97,6.06,14.96.73,1.81,1.46,3.6,2.18,5.38,1.83,4.52,3.59,8.91,5.23,12.99,11.3,28.2-9.32,50.41-31.43,37.42Z"/>
          <path class="cls-4" d="M117.66,339.64l-51.17,15.44c-1.23-3.18-2.39-6.26-3.44-9.16l49.55-18.71c1.6,3.93,3.31,8.12,5.06,12.43Z"/>
          <path class="cls-3" d="M90.62,386.26s29.48-28.95,62.88-38.23c53.46-14.86,78.01-15.49,88.43-8.76,10.42,6.72,6.07,10.65-9.41,16.57-56.15,21.45-91.51,57.68-116.53,58.34-25.02.66-25.36-27.92-25.36-27.92Z"/>
          <path class="cls-4" d="M125.91,359.97s-7.19,4.06-11.74,12.71c.12-.42,3.57-11.9,9.57-18.09.73,1.81,1.46,3.6,2.18,5.38Z"/>
          <g>
            <path class="cls-6" d="M286.2,354.02h-41.77c.67-.51,1.34-.99,2-1.47,7.59-5.38,17.64-7.29,27.26-5.1,5.83,1.33,11.43,4.15,12.51,6.57Z"/>
            <path class="cls-6" d="M253.04,336.11s5.81-3.42,17.68.13c8.53,2.55,24.53,9.73,31.11,12.03,6.58,2.3,2.54,7.43-9.91,5.52-14.02-2.15-38.88-17.68-38.88-17.68Z"/>
            <path class="cls-3" d="M207,336.28s9.63-4.37,36.42-3.8c27.81.6,19.66,5.25,42.77,13.02,19.94,6.71,15.56,10.53,0,8.51-15.56-2.01-11.55-5.42-23.24-3.7-11.7,1.73-27.26,15.87-47.19,10.24-9.46-2.67-11.56-16.09-8.77-24.28Z"/>
          </g>
        </g>
        <g>
          <path class="cls-5" d="M99.08,235.7c-14.35-20.82-46.51-16.07-53.85,8.13-3.79,12.49-5.01,24.87-2.14,41.99,7.58,45.28,17.92,68.2,17.92,68.2l60.36-24.7s-3.73-66.06-21.75-92.83c-.18-.27-.36-.53-.54-.79Z"/>
          <path class="cls-9" d="M55.46,345.4c-.22,3.25.98,6.47,3.68,9.68,20.9-7.8,41.65-16.37,62.23-25.75.07-3.08-.8-6.24-2.65-9.49-22.32,8.39-43.56,16.72-63.26,25.57Z"/>
          <path class="cls-9" d="M119.36,312.06c-.7,0-1.3-.52-1.39-1.23-10.25-86.53-36.19-86.09-36.45-86.08-.76.05-1.43-.55-1.47-1.32-.04-.77.55-1.43,1.32-1.47,1.17-.07,28.83-.56,39.38,88.54.09.77-.46,1.46-1.22,1.55-.06,0-.11,0-.17,0Z"/>
        </g>
      </g>
    </g>
  </g>
</svg>