<svg version="1.2" xmlns="http://www.w3.org/2000/svg" viewBox="0 0 341 88" width="341" height="88">
	<title>logoVicerrectoria-svg</title>
	<style>
		.s0 { fill: #ffffff } 
	</style>
	<g id="Capa_2">
		<g id="Capa_1-2">
			<path class="s0" d="m7.7 70.3c0 2.1-1.2 3.1-3.3 3.1-2.1 0-3.4-1-3.4-3.1v-4.8h1.8v4.8c0 0.9 0.2 1.7 1.6 1.7 1.2 0 1.6-0.5 1.6-1.7v-4.8h1.7z"/>
			<path class="s0" d="m9 67.6h1.5v0.8q0.1-0.2 0.3-0.4 0.2-0.2 0.4-0.3 0.3-0.1 0.5-0.2 0.3-0.1 0.5 0c1.7 0 2.1 0.9 2.1 2.3v3.5h-1.5v-3.2c0-1-0.3-1.4-1-1.4-0.8 0-1.2 0.4-1.2 1.6v3h-1.6z"/>
			<path class="s0" d="m17.1 66.7h-1.5v-1.3l1.5 0.1zm-1.5 0.8h1.5v5.7h-1.5z"/>
			<path class="s0" d="m21.5 73.3h-1.8l-1.9-5.7h1.6l1.2 3.9 1.2-3.9h1.6l-1.9 5.7z"/>
			<path fill-rule="evenodd" class="s0" d="m25.3 70.8c0 1 0.5 1.5 1.4 1.5q0.2 0 0.4-0.1 0.2 0 0.3-0.1 0.2-0.1 0.3-0.3 0.1-0.1 0.2-0.3h1.4q-0.1 0.4-0.4 0.8-0.2 0.4-0.6 0.6-0.4 0.3-0.8 0.4-0.4 0.1-0.9 0.1-0.6 0-1.1-0.2-0.6-0.2-1-0.6-0.4-0.5-0.6-1-0.2-0.6-0.2-1.2 0-0.6 0.2-1.1 0.2-0.6 0.6-1 0.5-0.4 1-0.7 0.5-0.2 1.1-0.2c2 0 2.9 1.6 2.8 3.4zm2.5-1c-0.1-0.8-0.5-1.2-1.2-1.2q-0.3 0-0.5 0-0.2 0.1-0.4 0.3-0.2 0.2-0.3 0.4-0.1 0.2-0.1 0.5z"/>
			<path class="s0" d="m30.3 67.6h1.5v1q0.1-0.3 0.3-0.5 0.2-0.2 0.4-0.4 0.2-0.1 0.5-0.2 0.3-0.1 0.6-0.1 0 0 0.1 0 0 0 0.1 0 0 0 0 0 0.1 0.1 0.1 0.1v1.5q0 0-0.1 0-0.1 0-0.2 0 0-0.1-0.1-0.1-0.1 0-0.1 0c-1.2 0-1.6 0.9-1.6 1.9v2.5h-1.5z"/>
			<path class="s0" d="m35.8 71.4c0 0.7 0.6 1 1.2 1 0.4 0 1-0.2 1-0.7 0-0.6-0.7-0.6-1.8-0.9-0.9-0.2-1.8-0.5-1.8-1.5 0-1.4 1.3-1.8 2.5-1.8 1.2 0 2.3 0.4 2.5 1.8h-1.5c0-0.6-0.5-0.8-1.1-0.8-0.3 0-0.8 0.1-0.8 0.6 0 0.4 0.9 0.6 1.7 0.8 0.9 0.2 1.8 0.5 1.8 1.6 0 1.5-1.3 2-2.6 2-1.3 0-2.5-0.5-2.6-2z"/>
			<path class="s0" d="m42 66.7h-1.5v-1.3l1.5 0.1zm-1.6 0.8h1.6v5.7h-1.5z"/>
			<path fill-rule="evenodd" class="s0" d="m47.3 72.5q-0.1 0.3-0.3 0.4-0.2 0.2-0.4 0.3-0.3 0.1-0.5 0.2-0.3 0-0.5 0c-1.7 0-2.5-1.5-2.5-3 0-1.5 0.8-2.9 2.5-2.9q0.2 0 0.4 0 0.3 0.1 0.5 0.2 0.2 0.1 0.4 0.3 0.2 0.1 0.3 0.3v-2.8h1.6v7.8h-1.5zm-1.4-4c-1 0-1.3 0.9-1.3 1.8 0 1 0.4 1.9 1.3 1.9 1 0 1.4-0.9 1.4-1.9 0-0.9-0.4-1.8-1.4-1.8z"/>
			<path fill-rule="evenodd" class="s0" d="m49.9 69.3c0.1-1.4 1.4-1.8 2.6-1.8 1.3 0 2.5 0.2 2.5 1.6v2.9q0 0.2 0 0.3 0 0.2 0 0.3 0.1 0.2 0.1 0.4 0 0.1 0.1 0.3h-1.6q0-0.1 0-0.2 0 0 0-0.1 0-0.1-0.1-0.2 0 0 0-0.1-0.2 0.2-0.4 0.3-0.2 0.2-0.4 0.3-0.3 0-0.6 0.1-0.2 0-0.5 0c-1 0-1.9-0.5-1.9-1.7 0-1.1 1-1.6 1.9-1.7 1-0.1 1.9-0.1 1.9-0.7 0-0.7-0.5-0.8-1-0.8-0.6 0-1 0.2-1 0.8zm3.6 1.2q-0.2 0.1-0.3 0.1-0.2 0.1-0.4 0.1-0.1 0.1-0.3 0.1-0.2 0-0.3 0c-0.5 0.1-0.9 0.3-0.9 0.9 0 0.5 0.4 0.7 1 0.7q0.2 0 0.5-0.1 0.2-0.1 0.4-0.3 0.2-0.2 0.3-0.4 0-0.3 0-0.5z"/>
			<path fill-rule="evenodd" class="s0" d="m60.3 72.5q-0.2 0.3-0.4 0.4-0.2 0.2-0.4 0.3-0.2 0.1-0.5 0.2-0.2 0-0.5 0c-1.7 0-2.5-1.5-2.5-3 0-1.5 0.9-2.9 2.5-2.9q0.3 0 0.5 0 0.2 0.1 0.5 0.2 0.2 0.1 0.4 0.3 0.1 0.1 0.3 0.3v-2.8h1.6v7.8h-1.5zm-1.4-4c-1 0-1.4 0.9-1.4 1.8 0 1 0.4 1.9 1.4 1.9 1 0 1.3-0.9 1.3-1.9 0-0.9-0.3-1.8-1.3-1.8z"/>
			<path fill-rule="evenodd" class="s0" d="m14.4 83q-0.2 0.2-0.4 0.4-0.2 0.2-0.4 0.3-0.2 0.1-0.5 0.1-0.2 0.1-0.5 0.1c-1.7 0-2.5-1.5-2.5-3 0-1.6 0.8-3 2.5-3q0.3 0 0.5 0.1 0.2 0 0.4 0.2 0.3 0.1 0.5 0.2 0.1 0.2 0.3 0.4v-2.9h1.5v7.8h-1.4zm-1.4-3.9c-1 0-1.4 0.9-1.4 1.8 0 0.9 0.4 1.8 1.4 1.8 1 0 1.3-0.9 1.3-1.8 0-0.9-0.3-1.8-1.3-1.8z"/>
			<path fill-rule="evenodd" class="s0" d="m18.3 81.3c0 1 0.5 1.4 1.4 1.4q0.2 0 0.4 0 0.1-0.1 0.3-0.2 0.2-0.1 0.3-0.2 0.1-0.1 0.2-0.3h1.4q-0.1 0.4-0.4 0.8-0.2 0.4-0.6 0.6-0.4 0.3-0.8 0.4-0.4 0.1-0.9 0.1-0.6 0-1.1-0.2-0.6-0.2-1-0.6-0.4-0.5-0.6-1-0.2-0.6-0.2-1.2 0-0.6 0.2-1.1 0.2-0.6 0.6-1 0.4-0.5 1-0.7 0.5-0.2 1.1-0.2c2 0 2.9 1.6 2.8 3.4zm2.5-1c-0.1-0.8-0.5-1.2-1.2-1.2q-0.3 0-0.5 0-0.3 0.1-0.4 0.3-0.2 0.2-0.3 0.4-0.1 0.2-0.1 0.5z"/>
			<path class="s0" d="m23.3 75.9h1.6v7.8h-1.6z"/>
			<path class="s0" d="m33 83.7h-2l-2.5-7.8h1.8l1.7 5.5 1.8-5.5h1.7l-2.5 7.8z"/>
			<path fill-rule="evenodd" class="s0" d="m35.4 79.8c0.1-1.4 1.4-1.9 2.6-1.9 1.3 0 2.5 0.3 2.5 1.6v3q0 0.1 0 0.3 0 0.2 0.1 0.3 0 0.2 0 0.3 0.1 0.2 0.1 0.3h-1.6q0 0 0-0.1 0-0.1 0-0.1 0-0.1 0-0.2-0.1-0.1-0.1-0.1-0.2 0.2-0.4 0.3-0.2 0.1-0.4 0.2-0.3 0.1-0.5 0.2-0.3 0-0.6 0c-1 0-1.9-0.6-1.9-1.7 0-1.2 1-1.6 1.9-1.7 1-0.2 1.9-0.1 1.9-0.8 0-0.6-0.5-0.7-1-0.7-0.5 0-1 0.2-1 0.8zm3.6 1.2q-0.1 0.1-0.3 0.2-0.1 0-0.3 0.1-0.2 0-0.3 0-0.2 0.1-0.4 0.1c-0.4 0.1-0.9 0.2-0.9 0.8 0 0.6 0.4 0.7 1 0.7q0.3 0 0.5-0.1 0.3-0.1 0.4-0.3 0.2-0.2 0.3-0.4 0.1-0.3 0-0.5z"/>
			<path class="s0" d="m41.8 75.9h1.5v7.8h-1.5z"/>
			<path class="s0" d="m44.6 75.9h1.5v7.8h-1.5z"/>
			<path fill-rule="evenodd" class="s0" d="m48.7 81.3c0 1 0.5 1.4 1.3 1.4q0.2 0 0.4 0 0.2-0.1 0.4-0.2 0.1-0.1 0.3-0.2 0.1-0.1 0.2-0.3h1.3q-0.1 0.4-0.3 0.8-0.3 0.4-0.6 0.6-0.4 0.3-0.8 0.4-0.5 0.1-0.9 0.1-0.6 0-1.2-0.2-0.5-0.2-0.9-0.7-0.4-0.4-0.6-1-0.2-0.5-0.2-1.1 0-0.6 0.2-1.2 0.2-0.5 0.6-1 0.4-0.4 1-0.6 0.5-0.2 1.1-0.2c1.9 0 2.9 1.6 2.7 3.4zm2.6-1c-0.2-0.8-0.5-1.2-1.3-1.2q-0.2-0.1-0.5 0-0.2 0.1-0.4 0.3-0.2 0.1-0.3 0.4-0.1 0.2-0.1 0.5z"/>
			<path class="s0" d="m0 86.3h61.7v1.3h-61.7z"/>
			<path fill-rule="evenodd" class="s0" d="m0 0h62.8v62.8h-62.8zm20.9 40.8q1.2 0 2.3-0.1 1.2-0.1 2.3-0.4 1.1-0.3 2.2-0.7 1.1-0.4 2.1-0.9l-8.9-17.8h19.9v-19.8h-39.8v19.8c0.1 2.6 0.6 5.2 1.6 7.6 1 2.4 2.4 4.6 4.3 6.5 1.8 1.8 4 3.3 6.4 4.3 2.4 1 5 1.5 7.6 1.5zm40.2-18.8h-38.5l19.3 38.4z"/>
			<g>
				<path id="V" class="s0" aria-label="V"  d="m96 12.9l-5.6 15.1h-3.2l-5.6-15.1h3.3l3.1 9.7q0.3 0.9 0.8 2.8l0.2-0.9 0.6-1.9 3.1-9.7z"/>
				<path id="icerrectoría" class="s0" aria-label="icerrectoría"  d="m100.5 14.3h-3v-2.2h3zm0 13.7h-3v-11.6h3zm7.9 0.2q-2.6 0-4.1-1.6-1.4-1.6-1.4-4.4 0-2.9 1.5-4.5 1.4-1.6 4.1-1.6 2 0 3.4 1 1.3 1.1 1.6 2.9l-3 0.1q-0.1-0.8-0.6-1.4-0.6-0.5-1.5-0.5-2.3 0-2.3 3.9 0 4 2.3 4 0.9 0 1.5-0.5 0.6-0.6 0.7-1.7l3 0.2q-0.1 1.2-0.8 2.1-0.7 0.9-1.8 1.5-1.2 0.5-2.6 0.5zm12.2 0q-2.6 0-4.1-1.6-1.4-1.5-1.4-4.5 0-2.9 1.5-4.4 1.4-1.6 4-1.6 2.5 0 3.8 1.7 1.4 1.6 1.4 4.8v0.1h-7.5q0 1.7 0.6 2.6 0.7 0.8 1.8 0.8 1.6 0 2-1.3l2.9 0.2q-1.2 3.2-5 3.2zm0-10.2q-1.1 0-1.7 0.8-0.5 0.7-0.6 2h4.5q0-1.4-0.6-2.1-0.6-0.7-1.6-0.7zm10.5 10h-3.1v-8.9q0-1 0-1.6 0-0.7 0-1.2h2.8q0.1 0.2 0.1 1.2 0.1 1 0.1 1.3 0.5-1.2 0.8-1.7 0.4-0.5 0.8-0.7 0.5-0.3 1.2-0.3 0.6 0 0.9 0.2v2.5q-0.7-0.2-1.2-0.2-1.2 0-1.8 0.9-0.6 1-0.6 2.7zm8.5 0h-3v-8.8q0-1 0-1.6 0-0.7-0.1-1.2h2.9q0 0.2 0.1 1.2 0 1 0 1.3h0.1q0.4-1.2 0.8-1.7 0.3-0.5 0.8-0.8 0.5-0.2 1.2-0.2 0.5 0 0.9 0.2v2.5q-0.7-0.2-1.3-0.2-1.1 0-1.7 0.9-0.7 1-0.7 2.7zm10.3 0.3q-2.6 0-4-1.6-1.4-1.5-1.4-4.5 0-2.9 1.4-4.4 1.5-1.6 4.1-1.6 2.5 0 3.8 1.7 1.3 1.6 1.3 4.8v0.1h-7.4q0 1.7 0.6 2.6 0.6 0.8 1.8 0.8 1.6 0 2-1.3l2.8 0.2q-1.2 3.2-5 3.2zm0-10.2q-1 0-1.6 0.7-0.6 0.8-0.6 2.1h4.5q-0.1-1.4-0.7-2.1-0.6-0.7-1.6-0.7zm12.4 10.2q-2.7 0-4.1-1.6-1.5-1.6-1.5-4.4 0-2.9 1.5-4.5 1.4-1.6 4.1-1.6 2 0 3.4 1 1.3 1.1 1.7 2.9l-3.1 0.1q-0.1-0.9-0.6-1.4-0.5-0.5-1.5-0.5-2.3 0-2.3 3.9 0 4 2.4 4 0.8 0 1.4-0.5 0.6-0.6 0.7-1.7l3.1 0.2q-0.2 1.2-0.9 2.1-0.7 0.9-1.8 1.5-1.1 0.5-2.5 0.5zm10.3-0.1q-1.3 0-2-0.7-0.8-0.7-0.8-2.2v-6.8h-1.4v-2.1h1.6l0.9-2.7h1.9v2.7h2.2v2.1h-2.2v6q0 0.8 0.4 1.3 0.3 0.4 1 0.4 0.3 0 1-0.2v1.9q-1.2 0.3-2.6 0.3zm15.4-6q0 2.8-1.6 4.5-1.5 1.6-4.3 1.6-2.7 0-4.3-1.7-1.5-1.6-1.5-4.4 0-2.8 1.5-4.4 1.6-1.6 4.4-1.6 2.8 0 4.3 1.6 1.5 1.5 1.5 4.4zm-3.1 0q0-2.1-0.7-3-0.7-0.9-2-0.9-2.7 0-2.7 3.9 0 2 0.6 3 0.7 1 2 1 2.8 0 2.8-4zm8.5 5.8h-3v-8.8q0-1 0-1.6 0-0.7-0.1-1.2h2.9q0 0.2 0.1 1.2 0 1 0 1.3h0.1q0.4-1.2 0.8-1.7 0.3-0.5 0.8-0.8 0.5-0.2 1.2-0.2 0.5 0 0.9 0.2v2.5q-0.7-0.2-1.3-0.2-1.1 0-1.8 0.9-0.6 0.9-0.6 2.7zm8.6 0h-3v-11.6h3zm-1.5-12.7h-1.8v-0.3l2.7-3.1h2.7v0.4zm7.3 13q-1.7 0-2.6-0.9-1-1-1-2.6 0-1.8 1.2-2.8 1.2-0.9 3.4-1h2.5v-0.6q0-1.1-0.4-1.7-0.4-0.5-1.3-0.5-0.8 0-1.2 0.4-0.4 0.3-0.5 1.2l-3.1-0.1q0.3-1.7 1.5-2.6 1.3-0.9 3.5-0.9 2.2 0 3.4 1.1 1.2 1.1 1.2 3.1v4.2q0 1 0.2 1.4 0.2 0.3 0.7 0.3 0.4 0 0.7 0v1.6q-0.3 0.1-0.5 0.1-0.2 0.1-0.4 0.1-0.3 0-0.5 0.1-0.2 0-0.6 0-1.1 0-1.6-0.6-0.6-0.5-0.7-1.6h-0.1q-1.2 2.3-3.8 2.3zm3.5-5v-0.6h-1.5q-1.1 0-1.5 0.2-0.4 0.2-0.7 0.6-0.2 0.4-0.2 1 0 0.9 0.4 1.3 0.4 0.4 1 0.4 0.7 0 1.3-0.4 0.6-0.4 0.9-1.1 0.3-0.7 0.3-1.4z"/>
				<path id=" " class="s0" aria-label=" "  d=""/>
				<path id="Académica" class="s0" aria-label="Académica"  d="m238 28h-3.1l-1.4-3.9h-5.7l-1.4 3.9h-3.1l5.5-15.1h3.7zm-7.1-12.1l-0.2-0.7-0.1 0.2q-0.1 0.4-0.3 0.9-0.1 0.5-1.8 5.4h4.3l-1.5-4.3zm14.2 12.2q-2.7 0-4.1-1.5-1.5-1.6-1.5-4.4 0-2.9 1.5-4.5 1.4-1.6 4.1-1.6 2 0 3.4 1 1.3 1 1.7 2.9l-3.1 0.1q-0.1-0.9-0.6-1.4-0.5-0.5-1.5-0.5-2.3 0-2.3 3.9 0 4 2.4 4 0.8 0 1.4-0.6 0.6-0.5 0.7-1.6l3.1 0.2q-0.2 1.2-0.9 2.1-0.7 0.9-1.8 1.4-1.1 0.5-2.5 0.5zm10 0q-1.7 0-2.6-0.9-1-0.9-1-2.6 0-1.8 1.2-2.7 1.2-1 3.4-1h2.5v-0.6q0-1.2-0.4-1.7-0.4-0.6-1.3-0.6-0.8 0-1.2 0.4-0.4 0.4-0.5 1.3l-3.1-0.2q0.3-1.7 1.5-2.5 1.3-0.9 3.5-0.9 2.2 0 3.4 1.1 1.2 1.1 1.2 3.1v4.2q0 1 0.2 1.3 0.2 0.4 0.7 0.4 0.4 0 0.7-0.1v1.7q-0.3 0-0.5 0.1-0.2 0-0.4 0.1-0.2 0-0.5 0-0.2 0.1-0.6 0.1-1.1 0-1.6-0.6-0.6-0.6-0.7-1.6-1.3 2.2-3.9 2.2zm3.5-5v-0.6l-1.5 0.1q-1.1 0-1.5 0.2-0.4 0.2-0.7 0.6-0.2 0.4-0.2 1 0 0.8 0.4 1.2 0.4 0.4 1 0.4 0.7 0 1.3-0.4 0.6-0.3 0.9-1 0.3-0.7 0.3-1.5zm16.5 4.8h-2.9q0-0.1-0.1-0.8-0.1-0.6-0.1-1.1-1 2.1-3.7 2.1-2 0-3.2-1.5-1.1-1.6-1.1-4.5 0-2.9 1.2-4.4 1.2-1.6 3.3-1.6 1.2 0 2.1 0.5 0.9 0.5 1.4 1.5v-1.9-4.2h3v13.4q0 1.1 0.1 2.5zm-3-5.9q0-1.8-0.7-2.8-0.6-1.1-1.8-1.1-1.2 0-1.8 1-0.6 1-0.6 3 0 4 2.4 4 1.2 0 1.8-1.1 0.7-1 0.7-3zm10.8 6.1q-2.6 0-4.1-1.5-1.4-1.6-1.4-4.5 0-2.9 1.5-4.5 1.4-1.5 4-1.5 2.5 0 3.8 1.7 1.4 1.6 1.4 4.8v0.1h-7.5q0 1.7 0.6 2.6 0.7 0.8 1.8 0.8 1.6 0 2-1.4l2.9 0.3q-1.2 3.1-5 3.1zm0-10.1q-1.1 0-1.7 0.7-0.5 0.8-0.6 2.1h4.5q0-1.4-0.6-2.1-0.6-0.7-1.6-0.7zm0-2.8h-1.8v-0.3l2.7-3.1h2.7v0.5zm17.3 12.7h-3v-6.6q0-3-1.7-3-0.9 0-1.5 0.9-0.6 0.9-0.6 2.4v6.3h-3v-9.1q0-0.9 0-1.5-0.1-0.6-0.1-1.1h2.9q0 0.2 0.1 1.1 0 0.9 0 1.2h0.1q0.5-1.3 1.4-1.9 0.8-0.6 2-0.6 2.6 0 3.2 2.5h0.1q0.6-1.3 1.4-1.9 0.8-0.6 2.1-0.6 1.7 0 2.6 1.2 0.9 1.1 0.9 3.3v7.4h-3v-6.6q0-3-1.8-3-0.9 0-1.4 0.8-0.6 0.9-0.7 2.4zm12.8-13.7h-3v-2.3h3zm0 13.8h-3v-11.7h3zm7.9 0.3q-2.6 0-4.1-1.6-1.4-1.6-1.4-4.4 0-2.9 1.4-4.5 1.5-1.6 4.2-1.6 2 0 3.4 1 1.3 1.1 1.6 2.9l-3 0.1q-0.1-0.9-0.6-1.4-0.6-0.5-1.5-0.5-2.3 0-2.3 3.9 0 4 2.3 4 0.9 0 1.5-0.5 0.6-0.6 0.7-1.7l3 0.2q-0.1 1.2-0.8 2.1-0.7 0.9-1.8 1.5-1.2 0.5-2.6 0.5zm10.1 0q-1.7 0-2.6-1-1-0.9-1-2.5 0-1.8 1.2-2.8 1.2-0.9 3.4-1h2.5v-0.6q0-1.1-0.4-1.7-0.4-0.5-1.3-0.5-0.8 0-1.2 0.3-0.4 0.4-0.5 1.3l-3.2-0.1q0.3-1.7 1.6-2.6 1.3-0.9 3.4-0.9 2.2 0 3.4 1.1 1.2 1.1 1.2 3.1v4.2q0 1 0.2 1.4 0.3 0.3 0.8 0.3 0.3 0 0.7 0v1.6q-0.3 0.1-0.5 0.1-0.2 0.1-0.5 0.1-0.2 0-0.4 0.1-0.3 0-0.6 0-1.1 0-1.7-0.6-0.5-0.5-0.6-1.6h-0.1q-1.2 2.3-3.8 2.3zm3.5-5v-0.6h-1.5q-1.1 0-1.5 0.2-0.5 0.2-0.7 0.6-0.2 0.4-0.2 1 0 0.8 0.3 1.3 0.4 0.4 1.1 0.4 0.7 0 1.3-0.4 0.5-0.4 0.9-1.1 0.3-0.7 0.3-1.4z"/>
			</g>
			<g>
				<path id="Estrategia de Acompañamiento y" class="s0" aria-label="Estrategia de Acompañamiento y"  d="m90.8 47h-7.9v-9.6h7.6v1.5h-5.5v2.4h5.1v1.6h-5.1v2.5h5.8zm7.7-2.1q0 1.1-0.8 1.7-0.9 0.6-2.5 0.6-1.5 0-2.3-0.5-0.8-0.5-1.1-1.5l1.7-0.3q0.2 0.6 0.5 0.8 0.4 0.2 1.2 0.2 0.8 0 1.2-0.2 0.4-0.2 0.4-0.6 0-0.4-0.3-0.6-0.3-0.2-1-0.4-1.6-0.3-2.2-0.6-0.6-0.2-0.9-0.7-0.3-0.4-0.3-1.1 0-1 0.8-1.6 0.9-0.6 2.4-0.6 1.3 0 2.1 0.5 0.8 0.5 1 1.5l-1.7 0.2q-0.1-0.5-0.4-0.7-0.3-0.2-1-0.2-0.7 0-1.1 0.2-0.3 0.1-0.3 0.5 0 0.4 0.2 0.6 0.3 0.1 0.9 0.3 0.9 0.1 1.6 0.3 0.7 0.2 1.1 0.5 0.4 0.2 0.6 0.6 0.2 0.4 0.2 1.1zm3.5 2.3q-0.9 0-1.3-0.5-0.5-0.5-0.5-1.4v-4.4h-0.9v-1.3h1l0.6-1.7h1.2v1.7h1.4v1.3h-1.4v3.9q0 0.5 0.2 0.8 0.2 0.2 0.7 0.2 0.2 0 0.6-0.1v1.2q-0.7 0.3-1.6 0.3zm4.7-0.2h-1.9v-5.6q0-0.6-0.1-1 0-0.4 0-0.8h1.8q0.1 0.2 0.1 0.8 0 0.6 0 0.8h0.1q0.2-0.8 0.5-1.1 0.2-0.3 0.5-0.4 0.3-0.2 0.7-0.2 0.4 0 0.6 0.1v1.6q-0.4-0.1-0.8-0.1-0.7 0-1.1 0.6-0.4 0.6-0.4 1.7zm5.2 0.1q-1.1 0-1.7-0.5-0.6-0.6-0.6-1.7 0-1.1 0.8-1.7 0.7-0.6 2.2-0.6l1.6-0.1v-0.3q0-0.8-0.3-1.1-0.2-0.4-0.8-0.4-0.6 0-0.8 0.3-0.3 0.2-0.3 0.8l-2-0.1q0.2-1.1 1-1.7 0.8-0.5 2.2-0.5 1.4 0 2.1 0.7 0.8 0.7 0.8 1.9v2.7q0 0.6 0.1 0.9 0.2 0.2 0.5 0.2 0.2 0 0.4 0v1q-0.2 0.1-0.3 0.1-0.1 0-0.3 0-0.1 0.1-0.3 0.1-0.1 0-0.3 0-0.7 0-1.1-0.4-0.3-0.3-0.4-1-0.9 1.4-2.5 1.4zm2.3-3.1v-0.4h-1q-0.7 0-1 0.2-0.3 0.1-0.4 0.3-0.2 0.3-0.2 0.7 0 0.5 0.3 0.8 0.2 0.2 0.6 0.2 0.5 0 0.9-0.2 0.3-0.3 0.5-0.7 0.3-0.5 0.3-0.9zm5.7 3.1q-0.9 0-1.3-0.4-0.5-0.5-0.5-1.4v-4.4h-0.9v-1.3h1l0.6-1.7h1.2v1.7h1.4v1.3h-1.4v3.9q0 0.5 0.2 0.8 0.2 0.2 0.7 0.2 0.2 0 0.6-0.1v1.2q-0.7 0.2-1.6 0.2zm5.8 0q-1.7 0-2.6-0.9-0.9-1-0.9-2.9 0-1.9 0.9-2.8 0.9-1 2.6-1 1.6 0 2.4 1 0.9 1.1 0.9 3.1v0.1h-4.8q0 1.1 0.4 1.6 0.4 0.6 1.2 0.6 1 0 1.3-0.9l1.8 0.1q-0.8 2-3.2 2zm0-6.4q-0.7 0-1.1 0.5-0.3 0.4-0.3 1.3h2.8q0-0.9-0.4-1.4-0.4-0.4-1-0.4zm7.8 9.3q-1.3 0-2.1-0.5-0.9-0.6-1-1.5l1.9-0.2q0.1 0.4 0.4 0.7 0.4 0.2 0.9 0.2 0.8 0 1.2-0.5 0.3-0.5 0.3-1.4v-0.4-0.8q-0.6 1.4-2.3 1.4-1.3 0-2-1-0.8-0.9-0.8-2.7 0-1.9 0.8-2.8 0.7-1 2.1-1 1.6 0 2.2 1.3h0.1q0-0.2 0-0.6 0-0.5 0.1-0.6h1.8q-0.1 0.8-0.1 1.7v5.5q0 1.6-0.9 2.4-0.8 0.8-2.6 0.8zm1.6-6.8q0-1.1-0.4-1.8-0.4-0.6-1.1-0.6-1.6 0-1.6 2.5 0 2.4 1.6 2.4 0.7 0 1.1-0.7 0.4-0.6 0.4-1.8zm5.8-4.9h-1.9v-1.4h1.9zm0 8.7h-1.9v-7.4h1.9zm3.7 0.1q-1.1 0-1.7-0.5-0.6-0.6-0.6-1.7 0-1.1 0.8-1.7 0.7-0.6 2.1-0.7h1.6v-0.4q0-0.7-0.2-1-0.3-0.4-0.8-0.4-0.6 0-0.8 0.3-0.3 0.2-0.3 0.8l-2-0.1q0.1-1.1 0.9-1.7 0.8-0.5 2.2-0.5 1.4 0 2.2 0.7 0.8 0.6 0.8 1.9v2.7q0 0.6 0.1 0.9 0.1 0.2 0.5 0.2 0.2 0 0.4 0v1q-0.2 0-0.3 0.1-0.2 0-0.3 0-0.1 0.1-0.3 0.1-0.1 0-0.3 0-0.8 0-1.1-0.4-0.4-0.3-0.4-1h-0.1q-0.8 1.4-2.4 1.4zm2.2-3.1v-0.4h-1q-0.6 0-0.9 0.1-0.3 0.2-0.4 0.4-0.2 0.2-0.2 0.7 0 0.5 0.3 0.7 0.2 0.3 0.6 0.3 0.5 0 0.8-0.2 0.4-0.3 0.6-0.7 0.2-0.5 0.2-0.9zm14.4 3h-1.8q-0.1-0.1-0.1-0.5 0-0.4 0-0.7h-0.1q-0.6 1.3-2.3 1.3-1.3 0-2-1-0.7-1-0.7-2.8 0-1.8 0.7-2.8 0.7-1 2.1-1 0.8 0 1.4 0.3 0.5 0.3 0.8 1h0.1l-0.1-1.2v-2.7h2v8.5q0 0.7 0 1.6zm-1.9-3.7q0-1.2-0.4-1.9-0.4-0.6-1.2-0.6-0.8 0-1.2 0.6-0.3 0.6-0.3 1.9 0 2.5 1.5 2.5 0.7 0 1.1-0.6 0.5-0.7 0.5-1.9zm6.8 3.8q-1.6 0-2.5-0.9-0.9-1-0.9-2.9 0-1.9 0.9-2.8 0.9-1 2.6-1 1.6 0 2.4 1 0.8 1.1 0.8 3.1v0.1h-4.7q0 1.1 0.4 1.6 0.4 0.6 1.1 0.6 1.1 0 1.3-0.9l1.8 0.1q-0.8 2-3.2 2zm0-6.4q-0.6 0-1 0.4-0.4 0.5-0.4 1.4h2.9q-0.1-0.9-0.4-1.4-0.4-0.4-1.1-0.4zm16.9 6.3h-2l-0.8-2.5h-3.7l-0.8 2.5h-2.1l3.6-9.6h2.3zm-4.5-7.7l-0.2-0.5v0.2q-0.1 0.2-0.2 0.5-0.1 0.3-1.1 3.5h2.7l-0.9-2.8zm9 7.8q-1.7 0-2.6-1-1-1-1-2.8 0-1.8 1-2.8 0.9-1 2.6-1 1.3 0 2.1 0.6 0.9 0.7 1.1 1.8l-1.9 0.1q-0.1-0.5-0.4-0.9-0.4-0.3-1-0.3-1.4 0-1.4 2.5 0 2.5 1.5 2.5 0.5 0 0.9-0.3 0.4-0.4 0.4-1.1l2 0.1q-0.1 0.8-0.6 1.4-0.4 0.6-1.1 0.9-0.7 0.3-1.6 0.3zm11.7-3.8q0 1.8-1 2.8-1 1-2.8 1-1.7 0-2.7-1-1-1-1-2.8 0-1.8 1-2.8 1-1 2.8-1 1.8 0 2.7 1 1 0.9 1 2.8zm-2 0q0-1.3-0.5-1.9-0.4-0.6-1.2-0.6-1.8 0-1.8 2.5 0 1.2 0.5 1.9 0.4 0.6 1.2 0.6 1.8 0 1.8-2.5zm9.8 3.7h-1.9v-4.2q0-1.9-1.2-1.9-0.5 0-0.9 0.6-0.4 0.6-0.4 1.5v4h-1.9v-5.7q0-0.6 0-1 0-0.4 0-0.7h1.8q0 0.1 0 0.7 0.1 0.6 0.1 0.8 0.4-0.9 0.9-1.3 0.5-0.3 1.3-0.3 1.7 0 2 1.6h0.1q0.3-0.9 0.9-1.3 0.5-0.3 1.3-0.3 1.1 0 1.6 0.7 0.6 0.7 0.6 2.1v4.7h-1.9v-4.2q0-1.9-1.1-1.9-0.6 0-0.9 0.5-0.4 0.6-0.4 1.5zm13.2-3.7q0 1.9-0.8 2.9-0.7 1-2.1 1-0.8 0-1.3-0.4-0.6-0.3-0.9-0.9h-0.1q0.1 0.2 0.1 1.2v2.8h-1.9v-8.6q0-1-0.1-1.7h1.9q0 0.2 0 0.5 0.1 0.4 0.1 0.8 0.6-1.4 2.3-1.4 1.3 0 2.1 1 0.7 1 0.7 2.8zm-2 0q0-2.5-1.6-2.5-0.7 0-1.1 0.7-0.4 0.7-0.4 1.9 0 1.2 0.4 1.8 0.4 0.7 1.1 0.7 1.6 0 1.6-2.6zm5.2 3.9q-1.1 0-1.7-0.6-0.6-0.6-0.6-1.6 0-1.2 0.8-1.8 0.7-0.6 2.2-0.6h1.6v-0.4q0-0.7-0.3-1.1-0.2-0.3-0.8-0.3-0.6 0-0.8 0.2-0.3 0.2-0.3 0.8l-2-0.1q0.2-1.1 1-1.6 0.8-0.6 2.2-0.6 1.4 0 2.1 0.7 0.8 0.7 0.8 2v2.7q0 0.6 0.1 0.8 0.2 0.3 0.5 0.3 0.2 0 0.4-0.1v1q-0.2 0.1-0.3 0.1-0.1 0.1-0.3 0.1-0.1 0-0.3 0-0.1 0-0.3 0-0.7 0-1.1-0.3-0.3-0.4-0.4-1.1-0.9 1.5-2.5 1.5zm2.3-3.2v-0.4h-1q-0.7 0.1-1 0.2-0.3 0.1-0.4 0.3-0.2 0.3-0.2 0.7 0 0.5 0.3 0.8 0.2 0.2 0.6 0.2 0.5 0 0.9-0.2 0.3-0.3 0.5-0.7 0.3-0.4 0.3-0.9zm10.5 3h-1.9v-4.1q0-2-1.3-2-0.7 0-1.2 0.6-0.4 0.6-0.4 1.6v3.9h-1.9v-5.7q0-0.6 0-1 0-0.4-0.1-0.7h1.9q0 0.2 0 0.7 0.1 0.6 0.1 0.8 0.4-0.8 1-1.2 0.6-0.4 1.4-0.4 1.1 0 1.8 0.7 0.6 0.8 0.6 2.1zm-2.1-8q-0.3 0-0.7-0.2-0.3-0.1-0.5-0.3-0.3-0.1-0.6-0.2-0.2-0.2-0.4-0.2-0.3 0-0.5 0.2-0.1 0.1-0.2 0.7h-1q0.1-0.8 0.3-1.2 0.1-0.4 0.4-0.6 0.4-0.2 0.9-0.2 0.3 0 0.6 0.1 0.3 0.1 0.6 0.3 0.3 0.1 0.5 0.3 0.3 0.1 0.5 0.1 0.3 0 0.4-0.2 0.2-0.1 0.3-0.6h0.9q-0.1 1-0.5 1.5-0.3 0.5-1 0.5zm5.7 8.2q-1.1 0-1.7-0.6-0.6-0.6-0.6-1.6 0-1.2 0.7-1.8 0.8-0.6 2.2-0.6h1.6v-0.4q0-0.7-0.3-1.1-0.2-0.3-0.8-0.3-0.5 0-0.8 0.2-0.2 0.2-0.3 0.8l-2-0.1q0.2-1.1 1-1.6 0.8-0.6 2.2-0.6 1.4 0 2.2 0.7 0.7 0.7 0.7 2v2.7q0 0.6 0.2 0.8 0.1 0.3 0.4 0.3 0.2 0 0.4-0.1v1.1q-0.1 0-0.3 0-0.1 0.1-0.2 0.1-0.2 0-0.3 0-0.2 0-0.4 0-0.7 0-1.1-0.3-0.3-0.4-0.4-1.1-0.8 1.5-2.4 1.5zm2.2-3.2v-0.4h-1q-0.7 0.1-0.9 0.2-0.3 0.1-0.5 0.3-0.1 0.3-0.1 0.7 0 0.5 0.2 0.8 0.3 0.2 0.7 0.2 0.4 0 0.8-0.2 0.4-0.2 0.6-0.7 0.2-0.4 0.2-0.9zm10.1 3h-1.9v-4.1q0-1.9-1.1-1.9-0.6 0-1 0.5-0.3 0.6-0.3 1.6v3.9h-2v-5.7q0-0.6 0-1 0-0.3 0-0.6h1.8q0 0.1 0.1 0.6 0 0.6 0 0.8 0.4-0.8 0.9-1.2 0.5-0.4 1.3-0.4 1.7 0 2 1.6h0.1q0.4-0.8 0.9-1.2 0.5-0.4 1.3-0.4 1.1 0 1.7 0.7 0.5 0.8 0.5 2.2v4.6h-1.9v-4.1q0-1.9-1.1-1.9-0.5 0-0.9 0.5-0.4 0.5-0.4 1.5zm8.1-8.7h-1.9v-1.5h1.9zm0 8.8h-1.9v-7.4h1.9zm5 0.1q-1.7 0-2.6-1-0.9-1-0.9-2.8 0-1.9 1-2.9 0.9-1 2.5-1 1.6 0 2.5 1.1 0.8 1.1 0.8 3.1v0.1h-4.7q0 1 0.4 1.6 0.4 0.5 1.1 0.5 1 0 1.3-0.8l1.8 0.1q-0.8 2-3.2 2zm0-6.4q-0.7 0-1 0.4-0.4 0.5-0.4 1.4h2.8q0-0.9-0.4-1.4-0.4-0.4-1-0.4zm11.5 6.3h-1.9v-4.2q0-1.9-1.4-1.9-0.7 0-1.1 0.6-0.4 0.6-0.4 1.5v4h-1.9v-5.8q0-0.6-0.1-0.9 0-0.4 0-0.7h1.8q0.1 0.1 0.1 0.7 0 0.5 0 0.8h0.1q0.3-0.9 0.9-1.3 0.6-0.4 1.4-0.4 1.2 0 1.8 0.8 0.7 0.7 0.7 2.1zm3.7 0.1q-0.8 0-1.3-0.4-0.5-0.5-0.5-1.5v-4.3h-0.9v-1.3h1l0.6-1.7h1.2v1.7h1.4v1.3h-1.4v3.8q0 0.6 0.2 0.8 0.3 0.3 0.7 0.3 0.2 0 0.6-0.1v1.2q-0.7 0.2-1.6 0.2zm9.8-3.8q0 1.8-1 2.8-1 1-2.8 1-1.7 0-2.7-1-1-1-1-2.8 0-1.8 1-2.8 1-1 2.8-1 1.8 0 2.7 0.9 1 1 1 2.9zm-2 0q0-1.3-0.4-1.9-0.5-0.6-1.3-0.6-1.7 0-1.7 2.5 0 1.2 0.4 1.9 0.4 0.6 1.2 0.6 1.8 0 1.8-2.5zm8.4 6.6q-0.7 0-1.2-0.1v-1.4q0.3 0.1 0.6 0.1 0.4 0 0.7-0.1 0.3-0.2 0.5-0.5 0.2-0.3 0.5-1l-3-7.3h2.1l1.1 3.5q0.3 0.7 0.7 2.2l0.2-0.6 0.4-1.6 1.1-3.5h2.1l-3 7.8q-0.6 1.4-1.2 1.9-0.6 0.6-1.6 0.6z"/>
			</g>
			<path id="Seguimiento Estudiantil" class="s0" aria-label="Seguimiento Estudiantil"  d="m90.7 59.2q0 1.4-1.1 2.2-1 0.7-3.1 0.7-1.8 0-2.9-0.6-1-0.7-1.3-2l1.9-0.3q0.2 0.7 0.8 1.1 0.6 0.3 1.6 0.3 2.1 0 2.1-1.3 0-0.4-0.2-0.6-0.3-0.3-0.7-0.5-0.5-0.2-1.7-0.4-1.1-0.3-1.5-0.4-0.4-0.2-0.8-0.4-0.3-0.2-0.6-0.5-0.2-0.3-0.3-0.7-0.2-0.4-0.2-0.9 0-1.3 1-2 1-0.7 2.9-0.7 1.8 0 2.6 0.6 0.9 0.5 1.2 1.8l-1.9 0.3q-0.2-0.6-0.7-0.9-0.4-0.3-1.3-0.3-1.8 0-1.8 1.1 0 0.4 0.2 0.6 0.2 0.3 0.6 0.4 0.3 0.2 1.5 0.4 1.4 0.3 2 0.6 0.6 0.2 0.9 0.6 0.4 0.3 0.6 0.8 0.2 0.4 0.2 1zm4.5 2.9q-1.7 0-2.5-0.9-0.9-1-0.9-2.9 0-1.9 0.9-2.8 0.9-1 2.5-1 1.6 0 2.5 1 0.8 1.1 0.8 3.1v0.1h-4.7q0 1.1 0.4 1.6 0.4 0.6 1.1 0.6 1 0 1.3-0.9l1.8 0.1q-0.8 2-3.2 2zm0-6.4q-0.7 0-1 0.4-0.4 0.5-0.4 1.4h2.9q-0.1-0.9-0.5-1.4-0.4-0.4-1-0.4zm7.9 9.3q-1.4 0-2.2-0.5-0.8-0.6-1-1.5l1.9-0.2q0.1 0.4 0.4 0.6 0.4 0.3 0.9 0.3 0.8 0 1.2-0.5 0.4-0.5 0.4-1.5v-0.3-0.8q-0.7 1.4-2.4 1.4-1.3 0-2-1-0.7-1-0.7-2.8 0-1.8 0.7-2.8 0.7-0.9 2.1-0.9 1.6 0 2.3 1.3 0-0.2 0-0.7 0.1-0.4 0.1-0.5h1.8q0 0.7 0 1.7v5.5q0 1.6-0.9 2.4-0.9 0.8-2.6 0.8zm1.6-6.8q0-1.1-0.4-1.8-0.4-0.6-1.2-0.6-1.5 0-1.5 2.4 0 2.5 1.5 2.5 0.8 0 1.2-0.7 0.4-0.6 0.4-1.8zm3.7-3.6h1.9v4.2q0 1.9 1.3 1.9 0.7 0 1.2-0.6 0.4-0.6 0.4-1.5v-4h1.9v5.7q0 1 0.1 1.7h-1.9q0-1 0-1.5h-0.1q-0.4 0.9-1 1.3-0.5 0.3-1.4 0.3-1.1 0-1.8-0.7-0.6-0.7-0.6-2.1zm10.6-1.3h-1.9v-1.4h1.9zm0 8.7h-1.9v-7.4h1.9zm8.2 0h-1.9v-4.2q0-1.9-1.1-1.9-0.6 0-1 0.6-0.3 0.6-0.3 1.5v4h-1.9v-5.8q0-0.6-0.1-0.9 0-0.4 0-0.7h1.8q0.1 0.1 0.1 0.7 0 0.5 0 0.8h0.1q0.3-0.9 0.8-1.3 0.6-0.4 1.3-0.4 1.7 0 2.1 1.7 0.4-0.9 0.9-1.3 0.5-0.4 1.4-0.4 1 0 1.6 0.8 0.6 0.7 0.6 2.1v4.7h-1.9v-4.2q0-1.9-1.2-1.9-0.5 0-0.9 0.5-0.3 0.6-0.4 1.5zm8.1-8.7h-1.9v-1.4h1.9zm0 8.7h-1.9v-7.4h1.9zm5 0.2q-1.6 0-2.5-1-0.9-1-0.9-2.9 0-1.8 0.9-2.8 0.9-1 2.6-1 1.6 0 2.4 1 0.8 1.1 0.8 3.1v0.1h-4.7q0 1.1 0.4 1.6 0.4 0.6 1.1 0.6 1 0 1.3-0.9l1.8 0.1q-0.8 2.1-3.2 2.1zm0-6.5q-0.6 0-1 0.5-0.4 0.4-0.4 1.3h2.9q-0.1-0.9-0.5-1.4-0.3-0.4-1-0.4zm11.5 6.3h-1.9v-4.1q0-2-1.3-2-0.7 0-1.2 0.6-0.4 0.6-0.4 1.6v3.9h-1.9v-5.7q0-0.6 0-1 0-0.4-0.1-0.7h1.9q0 0.2 0 0.7 0.1 0.6 0.1 0.8 0.4-0.9 1-1.2 0.5-0.4 1.4-0.4 1.1 0 1.8 0.7 0.6 0.7 0.6 2.1zm3.7 0.1q-0.8 0-1.3-0.4-0.4-0.5-0.4-1.4v-4.4h-1v-1.3h1.1l0.6-1.7h1.2v1.7h1.4v1.3h-1.4v3.9q0 0.5 0.2 0.8 0.2 0.2 0.6 0.2 0.2 0 0.7-0.1v1.2q-0.8 0.2-1.7 0.2zm9.8-3.8q0 1.8-1 2.8-1 1.1-2.7 1.1-1.8 0-2.7-1.1-1-1-1-2.8 0-1.8 1-2.8 0.9-1 2.7-1 1.8 0 2.8 1 0.9 1 0.9 2.8zm-2 0q0-1.3-0.4-1.9-0.4-0.6-1.3-0.6-1.7 0-1.7 2.5 0 1.3 0.4 1.9 0.4 0.6 1.2 0.6 1.8 0 1.8-2.5zm15.3 3.7h-7.9v-9.6h7.6v1.5h-5.6v2.5h5.2v1.5h-5.2v2.6h5.9zm7.7-2.2q0 1.1-0.9 1.7-0.8 0.6-2.4 0.6-1.5 0-2.3-0.5-0.8-0.5-1.1-1.5l1.7-0.2q0.1 0.5 0.5 0.7 0.3 0.2 1.2 0.2 0.8 0 1.2-0.2 0.4-0.2 0.4-0.6 0-0.4-0.3-0.6-0.3-0.2-1.1-0.3-1.6-0.4-2.1-0.6-0.6-0.3-0.9-0.7-0.3-0.5-0.3-1.1 0-1.1 0.8-1.7 0.8-0.6 2.3-0.6 1.3 0 2.1 0.5 0.8 0.5 1 1.5l-1.7 0.2q0-0.5-0.4-0.7-0.3-0.2-1-0.2-0.7 0-1 0.2-0.3 0.2-0.3 0.6 0 0.3 0.2 0.5 0.3 0.2 0.9 0.3 0.9 0.2 1.5 0.4 0.7 0.1 1.1 0.4 0.4 0.3 0.7 0.7 0.2 0.4 0.2 1zm3.5 2.3q-0.9 0-1.3-0.5-0.5-0.4-0.5-1.4v-4.3h-0.9v-1.3h1l0.6-1.8h1.2v1.8h1.4v1.3h-1.4v3.8q0 0.5 0.2 0.8 0.2 0.3 0.6 0.3 0.3 0 0.7-0.1v1.2q-0.7 0.2-1.6 0.2zm2.6-7.5h1.9v4.1q0 2 1.4 2 0.7 0 1.1-0.6 0.4-0.6 0.4-1.6v-3.9h1.9v5.7q0 1 0.1 1.7h-1.9q0-1 0-1.5h-0.1q-0.3 0.8-0.9 1.2-0.6 0.4-1.4 0.4-1.2 0-1.9-0.7-0.6-0.7-0.6-2.1zm15.3 7.4h-1.8q-0.1-0.1-0.1-0.6 0-0.4 0-0.6h-0.1q-0.6 1.3-2.3 1.3-1.3 0-2-1-0.7-1-0.7-2.8 0-1.9 0.7-2.9 0.8-1 2.1-1 0.8 0 1.4 0.4 0.6 0.3 0.9 0.9v-1.2-2.7h1.9v8.5q0 0.7 0 1.7zm-1.9-3.8q0-1.2-0.4-1.8-0.4-0.7-1.2-0.7-0.8 0-1.1 0.7-0.4 0.6-0.4 1.9 0 2.5 1.5 2.5 0.8 0 1.2-0.7 0.4-0.6 0.4-1.9zm5.8-5h-2v-1.4h2zm0 8.7h-2v-7.4h2zm3.6 0.2q-1 0-1.6-0.6-0.6-0.6-0.6-1.6 0-1.2 0.7-1.8 0.8-0.6 2.2-0.6h1.6v-0.4q0-0.7-0.3-1.1-0.2-0.3-0.8-0.3-0.5 0-0.8 0.2-0.2 0.2-0.3 0.8l-2-0.1q0.2-1.1 1-1.6 0.8-0.6 2.2-0.6 1.4 0 2.1 0.7 0.8 0.7 0.8 2v2.7q0 0.6 0.1 0.8 0.2 0.3 0.5 0.3 0.2 0 0.4-0.1v1.1q-0.2 0-0.3 0-0.1 0.1-0.3 0.1-0.1 0-0.3 0-0.1 0-0.3 0-0.7 0-1.1-0.3-0.3-0.4-0.4-1.1-0.8 1.5-2.5 1.5zm2.3-3.2v-0.4h-1q-0.7 0.1-1 0.2-0.2 0.1-0.4 0.4-0.1 0.2-0.1 0.6 0 0.5 0.2 0.8 0.2 0.2 0.6 0.2 0.5 0 0.9-0.2 0.3-0.2 0.6-0.7 0.2-0.4 0.2-0.9zm10.5 3h-1.9v-4.1q0-1.9-1.3-1.9-0.7 0-1.1 0.6-0.5 0.5-0.5 1.5v3.9h-1.9v-5.7q0-0.6 0-1 0-0.3 0-0.6h1.8q0 0.1 0 0.7 0.1 0.5 0.1 0.7 0.4-0.8 1-1.2 0.6-0.4 1.4-0.4 1.2 0 1.8 0.7 0.6 0.8 0.6 2.2zm3.8 0.1q-0.9 0-1.4-0.5-0.4-0.4-0.4-1.4v-4.3h-0.9v-1.3h1l0.6-1.8h1.2v1.8h1.4v1.3h-1.4v3.8q0 0.5 0.2 0.8 0.2 0.2 0.6 0.2 0.3 0 0.7 0v1.1q-0.7 0.3-1.6 0.3zm4.6-8.9h-1.9v-1.4h1.9zm0 8.7h-1.9v-7.4h1.9zm3.9 0h-1.9v-10.1h1.9z"/>
		</g>
	</g>
</svg>