<svg version="1.2" xmlns="http://www.w3.org/2000/svg" viewBox="0 0 150 150" width="100" height="100">
	<title>New Project</title>
	<style>
		.s0 { fill: #ffffff } 
	</style>
	<path fill-rule="evenodd" class="s0" d="m138.1 46.5c0.5 0.2 1 0.5 1.3 1 0.3 0.5 0.4 1.1 0.3 1.7l-2.1 9.3-10.1 43.6c-0.2 1-1.1 1.7-2.1 1.7q-0.1 0-0.4 0l-100.5-23.2-1.2-0.2c-0.6-0.1-1.1-0.5-1.4-1-0.3-0.6-0.4-1.1-0.2-1.7v-0.3h-9.4c-1.2 0-2.3-0.9-2.3-2.2v-58c0-1.2 1.1-2.2 2.3-2.2h107.9c1.3 0 2.2 1 2.2 2.2v25.8zm-14.2 52.3l11-48.5-12.4-2.9v13.2q0.7 0.4 1.6 0.6c0.5 0.2 0.9 0.7 0.7 1.3l-2.3 9.8v2.9c0 0.6-0.2 1.1-0.6 1.4q-0.3 0.3-0.5 0.4l-1.5 6.5c-0.1 0.5-0.6 0.9-1.2 0.8q-0.9-0.2-1.9-0.2c-4.4 0-8.3 3-9.6 7.3-0.1 0.5-0.5 0.8-1 0.8q-0.1 0.1-0.2 0l-60.6-14c-0.4-0.1-0.7-0.5-0.7-0.8h-14.1l93.1 21.4zm-42.5-18.6q-1.8 0-3.6-0.4-1.8-0.5-3.4-1.2-0.6-0.2-1.1-0.5-0.6-0.4-1.2-0.7h-21.1l54.8 12.5q0.3-0.8 0.8-1.7c2.2-3.8 6.3-6.3 10.7-6.1q0.5 0 1 0l1.1-4.7h-28.6q-0.2 0.1-0.5 0.2-4.1 2.6-8.9 2.6zm2.6-2.8h-5.1c1.7 0.3 3.5 0.3 5.1 0zm-69.2-58v53.5h103.5v-53.5zm107.9 43.7v-0.3z"/>
	<path fill-rule="evenodd" class="s0" d="m109.5 33.6c0.5 0 1 0.5 1 1.1v23c0 0.7-0.5 1.1-1 1.1-5.4 0.4-9.7 4.7-10 10.4 0 0.5-0.5 1-1.1 1h-64.4c-0.6 0-1.1-0.5-1.1-1-0.2-5.7-4.4-10-9.8-10.4-0.7 0-1-0.4-1-1.1v-23c0-0.6 0.3-1.1 1-1.1 5.4-0.2 9.6-4.7 9.8-10.2 0.1-0.6 0.5-1.1 1.1-1.1h64.4c0.6 0 1.1 0.5 1.1 1.1 0.3 5.5 4.6 10 9.9 10.2zm-1.1 2.1c-5.7-0.7-10.1-5.4-10.9-11.2h-62.4c-0.7 5.8-5.2 10.5-10.8 11.2v21.1c5.6 0.7 10.1 5.4 10.8 11.2h62.4c0.8-5.8 5.2-10.4 10.9-11.2z"/>
	<path fill-rule="evenodd" class="s0" d="m66.8 64.1c-9.6 0-17.4-8-17.4-17.9 0-9.9 7.8-17.9 17.4-17.9 9.6 0 17.3 8 17.3 17.9 0 9.9-7.7 17.9-17.3 17.9zm14.6-17.9c0-8.3-6.5-15.1-14.6-15.1-8 0-14.6 6.8-14.6 15.1 0 8.4 6.6 15.1 14.6 15.1 8.1 0 14.6-6.7 14.6-15.1z"/>
	<path id="Económica" fill-rule="evenodd" class="s0" d="m10.6 119.5h-7.2v4.8h6.3v3h-6.3v5h7.2v3.1h-11v-19h11zm9.9 0.7c3.8 0 6.2 1.9 7.1 5.3h-4.2c-0.3-1.3-1.4-2.1-2.9-2.1-2.1 0-3.6 1.6-3.6 4.6 0 2.8 1.5 4.5 3.6 4.5 1.5 0 2.5-0.7 2.9-2.1h4.2c-0.9 3.1-3.3 5.3-7.1 5.3-4.4 0-7.5-3-7.5-7.7 0-4.8 3.1-7.8 7.5-7.8zm16.7 15.5c-4.3 0-7.8-3.5-7.8-7.8 0-4.2 3.5-7.7 7.8-7.7 4.2 0 7.7 3.5 7.7 7.7 0 4.3-3.5 7.8-7.7 7.8zm3.8-7.8c0-2.4-1.7-4.4-3.9-4.4-2.1 0-3.9 2-3.9 4.4 0 2.5 1.8 4.5 3.9 4.5 2.2 0 3.9-2 3.9-4.5zm17.2-0.7c0-2.5-1.4-3.8-3.4-3.8-2 0-3.3 1.3-3.3 3.8v8.2h-3.9v-15h3.9v1.9c0.9-1.3 2.6-2.1 4.5-2.1 3.5 0 6 2.3 6 6.4v8.8h-3.8zm14.2 8.5c-4.3 0-7.8-3.5-7.8-7.8 0-4.3 3.5-7.8 7.8-7.8 4.3 0 7.8 3.5 7.8 7.8 0 4.3-3.5 7.8-7.8 7.8zm3.8-7.8c0-2.4-1.8-4.4-3.9-4.4-2.1 0-3.8 2-3.8 4.4 0 2.5 1.7 4.5 3.8 4.5 2.1 0 3.9-2 3.9-4.5zm-0.8-14.7v3.2l-6.1 2.8v-2.7zm28.6 14c0-2.3-1.3-3.6-3.3-3.6-2 0-3.3 1.3-3.3 3.6v8.3h-3.9v-8.3c0-2.3-1.3-3.6-3.3-3.6-2 0-3.5 1.3-3.5 3.6v8.3h-3.7v-15h3.7v1.8c1-1.2 2.6-2 4.5-2 2.4 0 4.3 1 5.3 2.9 1-1.7 3-2.9 5.1-2.9 3.7 0 6.3 2.3 6.3 6.5v8.7h-3.9zm11.2-6.7v14.9h-3.8v-14.9zm-1.8-1.9c-1.3 0-2.3-1-2.3-2.3 0-1.2 1-2.2 2.3-2.2 1.2 0 2.3 1 2.3 2.2 0 1.3-1.1 2.3-2.3 2.3zm12.1 1.5c3.7 0 6.2 2 7 5.3h-4.1c-0.5-1.3-1.4-2-2.9-2-2.2 0-3.6 1.5-3.6 4.5 0 2.9 1.4 4.5 3.6 4.5 1.5 0 2.4-0.7 2.9-2h4.1c-0.8 3.2-3.3 5.3-7 5.3-4.4 0-7.5-3.1-7.5-7.8 0-4.7 3.1-7.8 7.5-7.8zm15.6 0c2.5 0 4.2 1.2 5.1 2.4v-2.2h3.8v15.1h-3.8v-2.2c-0.9 1.3-2.7 2.5-5.1 2.5-3.7 0-6.8-3.2-6.8-7.9 0-4.6 3.1-7.7 6.8-7.7zm5.1 7.7c0-2.4-1.8-4.4-4-4.4-2.2 0-4 2-4 4.4 0 2.5 1.8 4.5 4 4.5 2.2 0 4-2 4-4.5z"/>
</svg>