<svg version="1.2" xmlns="http://www.w3.org/2000/svg" viewBox="0 0 150 150" width="100" height="100">
	<title>New Project</title>
	<style>
		.s0 { fill: #ffffff } 
	</style>
	<path fill-rule="evenodd" class="s0" d="m113.8 65.8c6.1 5.3 6.6 11.7 6.6 12.1v28.5c0 1.1-1 2-2.1 2h-86.3c-1.1 0-2-0.9-2-2v-29.8q0.2-0.3 0.2-0.6c4.8-17 21-17.7 28.7-16.9-6.3-4.7-10.5-12.3-10.5-20.9 0-14.5 11.9-26.2 26.2-26.2 14.5 0 26.3 11.7 26.3 26.2 0 9.1-4.6 17-11.4 21.7 10.6-0.8 18.8 1.3 24.3 5.9zm-39.3-5.1h0.3c12.3 0 22.3-10 22.3-22.5 0-12.3-10-22.5-22.5-22.5-12.3 0-22.4 10.2-22.4 22.5 0 12.3 9.9 22.5 22.3 22.5zm41.8 17.5c-0.2-0.7-0.6-5.3-5.3-9.2-4.7-4.1-12.2-5.8-22-5l-12.2 23.5c-0.3 0.7-0.9 1.1-1.7 1.1-0.8 0-1.4-0.4-1.7-1.1l-12.2-24c-4.2-0.8-22.1-3.3-27.1 13.4v27.5h82.2zm-43.1-12h3.8c0.8 0 1.4-0.7 1.4-1.3 0-0.8-0.6-1.4-1.4-1.4h-3.8c-0.8 0-1.4 0.6-1.4 1.4 0 0.6 0.6 1.3 1.4 1.3zm5.6 2.2l1.8 3.4 4.8-9.5q-2.2 0.9-4.5 1.5 0.1 0.5 0.1 1.1c0 1.4-0.9 2.8-2.2 3.5zm-9.6-3.5q0-0.4 0.1-0.8-2-0.4-4-1.2l5.1 10.1 1.3-4.5c-1.4-0.6-2.5-2-2.5-3.6zm3.1 11.7l2.8 5.6 3.9-7.4-2.8-6h-1.9zm6.6-8.2z"/>
	<path id="Individual" fill-rule="evenodd" class="s0" d="m8.1 117.8v20.2h-4.1v-20.2zm15.2 11.3c0-2.6-1.4-4-3.6-4-2.2 0-3.6 1.4-3.6 4v8.9h-4v-16.1h4v2c1.1-1.4 2.8-2.2 4.9-2.2 3.7 0 6.4 2.4 6.4 6.8v9.5h-4.1zm14.3-7.4c2.1 0 4.1 0.9 5.2 2.5v-7.7h4.1v21.5h-4.1v-2.4c-1 1.5-2.8 2.6-5.3 2.6-4.1 0-7.3-3.3-7.3-8.3 0-5 3.2-8.2 7.4-8.2zm1 3.5c-2.2 0-4.3 1.6-4.3 4.7 0 3 2.1 4.8 4.3 4.8 2.2 0 4.2-1.7 4.2-4.7 0-3.1-2-4.8-4.2-4.8zm16.4-3.3v16.1h-4.1v-16.1zm-2-1.9c-1.4 0-2.5-1.1-2.5-2.3 0-1.3 1.1-2.4 2.5-2.4 1.3 0 2.4 1.1 2.4 2.4 0 1.2-1.1 2.3-2.4 2.3zm8.6 2l4.1 12.3 4-12.3h4.3l-5.9 16h-4.9l-6-16zm18.7 0v16h-4v-16zm-2-2c-1.4 0-2.5-1.1-2.5-2.4 0-1.3 1.1-2.4 2.5-2.4 1.4 0 2.5 1.1 2.5 2.4 0 1.3-1.1 2.4-2.5 2.4zm12.4 1.6c2.1 0 4.1 1 5.2 2.5v-7.6h4.1v21.5h-4.1v-2.4c-0.9 1.5-2.7 2.6-5.3 2.6-4.1 0-7.3-3.3-7.3-8.3 0-5.1 3.2-8.3 7.4-8.3zm1 3.6c-2.2 0-4.3 1.6-4.3 4.7 0 3 2.1 4.7 4.3 4.7 2.2 0 4.2-1.6 4.2-4.7 0-3-2-4.7-4.2-4.7zm27.5 12.8h-4.1v-2.1c-1 1.4-2.8 2.3-4.8 2.3-3.7 0-6.4-2.5-6.4-6.9v-9.4h4v8.8c0 2.6 1.4 4 3.6 4 2.2 0 3.6-1.4 3.6-4v-8.8h4.1zm10.3-16.4c2.5 0 4.3 1.2 5.3 2.5v-2.2h4.1v16h-4.1v-2.3c-1 1.4-2.8 2.6-5.4 2.6-4 0-7.3-3.4-7.3-8.4 0-5 3.3-8.2 7.4-8.2zm1 3.6c-2.2 0-4.2 1.6-4.2 4.6 0 3.1 2 4.8 4.2 4.8 2.2 0 4.3-1.7 4.3-4.7 0-3.1-2.1-4.7-4.3-4.7zm16.4-8.7v21.4h-4.1v-21.4z"/>
</svg>