<svg version="1.2" xmlns="http://www.w3.org/2000/svg" viewBox="0 0 150 150" width="100" height="100">
	<title>New Project</title>
	<style>
		.s0 { fill: #ffffff } 
	</style>
	<path fill-rule="evenodd" class="s0" d="m106.1 5c3 0 5.6 2.5 5.6 5.6v63.5c2.6 1.3 4.4 4.1 4.4 7.3 0 4.4-3.6 8.1-8.1 8.1h-66.9c-4.5 0-8.1-3.7-8.1-8.1 0-2.9 1.6-5.6 3.9-6.9v-63.9c0-3.1 2.4-5.6 5.5-5.6 3 0 5.5 2.5 5.5 5.6v3.7c1.4-1.2 3.2-1.8 5.2-1.8 2.9 0 5.3 1.3 6.8 3.5 1.6-2.2 4-3.5 6.8-3.5 4.5 0 8.2 3.5 8.5 7.8h11.7c0.4-4.3 4-7.8 8.5-7.8 1.9 0 3.7 0.6 5.1 1.8v-3.7c0-3.1 2.5-5.6 5.6-5.6zm-2.3 68.3c0.1 0 4.4 0 4.5 0v-62.7c0-1.2-1-2.3-2.2-2.3-1.3 0-2.3 1.1-2.3 2.3zm-3.3-52.4c0-2.8-2.3-5.2-5.1-5.2-2.9 0-5.2 2.4-5.2 5.2 0 2.9 2.3 5.2 5.2 5.2 2.8 0 5.1-2.3 5.1-5.2zm-28.6 0c0-2.8-2.3-5.2-5.2-5.2-2.9 0-5.2 2.4-5.2 5.2 0 2.9 2.3 5.2 5.2 5.2 2.9 0 5.2-2.3 5.2-5.2zm-18.8 8.5c-2 0-3.8-0.6-5.2-1.8v11h24c0.4-4.4 4-7.9 8.5-7.9 3.2 0 6 1.8 7.5 4.5 1.4-2.7 4.2-4.5 7.5-4.5 1.9 0 3.7 0.6 5.1 1.8v-4.9c-1.4 1.2-3.2 1.8-5.1 1.8-4.4 0-7.9-3.1-8.5-7.4h-11.7c-0.6 4.3-4.1 7.4-8.5 7.4-2.8 0-5.2-1.3-6.8-3.5-1.5 2.2-3.9 3.5-6.8 3.5zm18.8 30.7h-10.4c-0.5 4.3-4 7.6-8.4 7.6-2 0-3.8-0.6-5.2-1.7v7.3h52.6v-13.2h-11.7c-0.5 4.3-4.1 7.6-8.4 7.6-4.4 0-8-3.3-8.5-7.6zm13.7-0.8c0-2.8-2.4-5.1-5.2-5.1-2.9 0-5.2 2.3-5.2 5.1 0 2.8 2.3 5.1 5.2 5.1 2.8 0 5.2-2.3 5.2-5.1zm3.2-0.8h11.7v-12.7c-1.4 1.1-3.2 1.8-5.1 1.8-3.3 0-6.1-1.8-7.5-4.4-1.5 2.6-4.3 4.4-7.5 4.4-4.4 0-7.9-3.2-8.4-7.3h-24.1v12.3c1.4-1.1 3.2-1.8 5.2-1.8 4.4 0 8.1 3.4 8.4 7.7h10.4c0.5-4.3 4.1-7.7 8.5-7.7 4.3 0 7.9 3.4 8.4 7.7zm-3.2-19.3c0-2.9-2.4-5.2-5.2-5.2-2.9 0-5.2 2.3-5.2 5.2 0 2.9 2.3 5.2 5.2 5.2 2.8 0 5.2-2.3 5.2-5.2zm14.9 0c0-2.9-2.3-5.2-5.1-5.2-2.9 0-5.2 2.3-5.2 5.2 0 2.9 2.3 5.2 5.2 5.2 2.8 0 5.1-2.3 5.1-5.2zm-42.2-18.3c0-2.8-2.3-5.2-5.2-5.2-2.8 0-5.1 2.4-5.1 5.2 0 2.9 2.3 5.2 5.1 5.2 2.9 0 5.2-2.3 5.2-5.2zm0 38.3c0-2.8-2.3-5.2-5.2-5.2-2.8 0-5.1 2.4-5.1 5.2 0 2.9 2.3 5.2 5.1 5.2 2.9 0 5.2-2.3 5.2-5.2zm-18.2 14.1q0.5 0 1 0h3.5v-62.8c0-1.2-1-2.3-2.2-2.3-1.3 0-2.3 1.1-2.3 2.3zm67.9 3.3h-66.9c-2.7 0-4.8 2.2-4.8 4.8 0 2.7 2.1 4.9 4.8 4.9h66.9c2.7 0 4.9-2.2 4.9-4.9 0-2.6-2.2-4.8-4.9-4.8z"/>
	<path id="Vida" fill-rule="evenodd" class="s0" d="m59.6 100h3.5l-6.1 16.5h-4l-6-16.5h3.5l4.5 13.1zm8.6 3.4v13.1h-3.2v-13.1zm-1.5-1.5c-1.1 0-2-0.9-2-2 0-1.1 0.9-1.9 2-1.9 1.1 0 2 0.8 2 1.9 0 1.1-0.9 2-2 2zm10 1.4c1.6 0 3.3 0.7 4.2 2v-6.3h3.3v17.5h-3.3v-1.9c-0.8 1.1-2.2 2.1-4.2 2.1-3.4 0-6-2.7-6-6.8 0-4 2.6-6.6 6-6.6zm4.2 6.6c0-2.1-1.5-3.8-3.4-3.8-1.9 0-3.4 1.7-3.4 3.8 0 2.1 1.5 3.8 3.4 3.8 1.9 0 3.4-1.7 3.4-3.8zm11.7-6.6c2.1 0 3.5 0.9 4.3 2v-1.9h3.3v13.1h-3.3v-1.9c-0.8 1.1-2.2 2.1-4.3 2.1-3.3 0-5.9-2.7-5.9-6.8 0-4 2.6-6.6 5.9-6.6zm4.3 6.6c0-2.1-1.5-3.8-3.4-3.8-2 0-3.5 1.7-3.5 3.8 0 2.1 1.5 3.8 3.5 3.8 1.9 0 3.4-1.7 3.4-3.8z"/>
	<path id="Universitaria" fill-rule="evenodd" class="s0" d="m0 127.1h3.3v10.2c0 2.3 1.3 3.4 3.4 3.4 2.1 0 3.3-1.1 3.3-3.4v-10.2h3.3v10.2c0 4.3-3.1 6.4-6.7 6.4-3.5 0-6.6-2.1-6.6-6.4zm25.7 9.4c0-2.1-1.2-3.3-3-3.3-1.7 0-2.9 1.2-2.9 3.3v7.2h-3.3v-13h3.3v1.6c0.8-1.2 2.2-1.9 4-1.9 2.9 0 5.2 2 5.2 5.7v7.6h-3.3zm9.6-5.9v13.1h-3.3v-13.1zm-1.6-1.5c-1.1 0-2-0.9-2-1.9 0-1.1 0.9-2 2-2 1.2 0 2.1 0.9 2.1 2 0 1-0.9 1.9-2.1 1.9zm7 1.5l3.3 10 3.3-10h3.6l-4.9 13.1h-4l-4.8-13.1zm17.7 13.3c-3.8 0-6.5-2.7-6.5-6.8 0-4.1 2.6-6.7 6.5-6.7 3.7 0 6.4 2.6 6.4 6.5 0 0.5 0 0.8-0.1 1.3h-9.5c0.1 1.9 1.5 2.9 3.2 2.9 1.4 0 2.1-0.7 2.6-1.5h3.5c-0.7 2.3-2.8 4.3-6.1 4.3zm-3.2-8h6.2c-0.1-1.7-1.4-2.8-3.1-2.8-1.6 0-2.9 1.1-3.1 2.8zm15.3 7.8h-3.3v-13.1h3.3v2c0.8-1.3 2.2-2.2 4-2.2v3.5h-0.8c-2 0-3.2 0.7-3.2 3.3zm11.2 0.3c-3.2 0-5.6-1.9-5.7-4.4h3.3c0.1 1 1.1 1.8 2.4 1.8 1.3 0 2-0.6 2-1.4 0-2.3-7.3-0.9-7.3-5.6 0-2.2 1.9-4 5-4 3.2 0 5.1 1.8 5.3 4.4h-3.1c-0.2-1.1-0.9-1.7-2.2-1.7-1.2 0-1.8 0.5-1.8 1.2 0 2.4 7.1 1 7.3 5.7 0 2.2-2 4-5.2 4zm11.2-13.3v13h-3.3v-13zm-1.7-1.6c-1.1 0-2-0.8-2-1.9 0-1.1 0.9-2 2-2 1.1 0 2 0.9 2 2 0 1.1-0.9 1.9-2 1.9zm5.4 4.3h-1.5v-2.7h1.5v-3.2h3.3v3.2h3v2.7h-3v6.3c0 0.9 0.4 1.3 1.4 1.3h1.6v2.7h-2.1c-2.5 0-4.2-1-4.2-4zm13.8-2.8c2 0 3.5 1.1 4.3 2.1v-1.9h3.2v13.1h-3.2v-1.9c-0.8 1.1-2.3 2.1-4.4 2.1-3.3 0-5.9-2.7-5.9-6.8 0-4.1 2.6-6.7 6-6.7zm4.3 6.8c0-2.1-1.6-3.9-3.5-3.9-1.9 0-3.4 1.8-3.4 3.9 0 2.1 1.5 3.8 3.4 3.8 1.9 0 3.5-1.7 3.5-3.8zm9.8 6.5h-3.3v-13.1h3.3v2c0.9-1.3 2.2-2.2 4-2.2v3.5h-0.9c-1.9 0-3.1 0.7-3.1 3.3zm9.6-13v13h-3.3v-13zm-1.7-1.6c-1.1 0-2-0.8-2-1.9 0-1.1 0.9-2 2-2 1.1 0 2 0.9 2 2 0 1.1-0.9 1.9-2 1.9zm10 1.4c2 0 3.6 1 4.3 2v-1.8h3.3v13h-3.3v-1.9c-0.7 1.2-2.3 2.2-4.4 2.2-3.3 0-5.9-2.7-5.9-6.9 0-4 2.6-6.6 6-6.6zm4.3 6.7c0-2.1-1.5-3.8-3.4-3.8-1.9 0-3.4 1.7-3.4 3.8 0 2.1 1.5 3.8 3.4 3.8 1.9 0 3.4-1.7 3.4-3.8z"/>
</svg>