<svg version="1.2" xmlns="http://www.w3.org/2000/svg" viewBox="0 0 150 150" width="100" height="100">
	<title>New Project</title>
	<style>
		.s0 { fill: #ffffff } 
	</style>
	<path fill-rule="evenodd" class="s0" d="m46.9 107.3v-37q-0.9-1.2-0.9-2.5c0-3.6 5.2-6.4 12.2-7.9l-2.7-24.4q-0.1-0.7 0.1-1.2c0.1-0.1 0.3-0.3 0.4-0.4l3-14.4c0.1-0.7 0.5-1.2 1.2-1.3 0.5 0 1 0.4 1.4 1l6 13.4c0.5 0.3 0.9 0.8 0.9 1.3l2.7 24.3q2 0 3.8 0h0.1v-47.3c0-2.1 1.7-3.9 3.9-3.9h15.3c2.2 0 3.9 1.8 3.9 3.9v50.9c3.5 1.6 5.8 3.7 5.8 6q0 1.7-1.3 3.1v36.4h-0.4c-2.6 5.3-16.1 7.8-27.6 7.8-11.4 0-24.8-2.5-27.4-7.8zm51.3-36.6c2-1.1 2.9-2.1 2.9-2.9 0-0.6-0.9-1.7-2.9-2.7zm-20.9 3.9c4 0 7.8-0.4 11.6-0.9q0.5-0.3 1.1-0.4c1.6-0.1 3-0.7 4.5-1.1q0.7-0.2 1.5-0.5v-0.2h-6.2c-0.5 0-0.9-0.4-0.9-0.9q0-0.4 0.2-0.7 0.3-0.4 0.7-0.4h6.2v-3.9h-10.6c-0.7 0-0.9-0.5-0.9-0.9q0-0.4 0.2-0.6 0.3-0.4 0.7-0.4h10.6v-3.9h-6.2c-0.5 0-0.9-0.6-0.9-1.1q0-0.4 0.2-0.6 0.3-0.3 0.7-0.3h6.2v-4h-6.2c-0.5 0-0.9-0.4-0.9-0.9q0-0.4 0.2-0.7 0.3-0.2 0.7-0.2h6.2v-4.1h-6.2c-0.5 0-0.9-0.5-0.9-0.9q0-0.4 0.2-0.6 0.3-0.4 0.7-0.4h6.2v-3.9h-10.6c-0.7 0-0.9-0.5-0.9-1q0-0.4 0.2-0.7 0.3-0.3 0.7-0.3h10.6v-4h-6.2c-0.5 0-0.9-0.4-0.9-0.9q0-0.4 0.2-0.6 0.3-0.3 0.7-0.3h6.2v-4h-6.2c-0.5 0-0.9-0.5-0.9-0.9q0-0.4 0.2-0.7 0.3-0.4 0.7-0.4h6.2v-3.9h-6.2c-0.5 0-0.9-0.5-0.9-1q0-0.3 0.2-0.7 0.3-0.2 0.7-0.2h6.2v-11.5c0-0.9-0.8-1.6-1.7-1.6h-15.3c-0.9 0-1.7 0.7-1.7 1.6zm-2.3-13.5q-1.7 0-3.4 0.2l1.4 13.3q1.1 0.2 2 0.2h0.1v-13.7zm-25.2 11.9v32.7c0.2 1.6 3 3.2 7.3 4.4 4.9 1.4 11.1 2.2 17.6 2.2 6.7 0 12.9-0.8 17.7-2.2 4.4-1.2 7.2-2.8 7.3-4.4v-32.5c-5.1 2.7-14.4 4.4-24.7 4.4-10.4 0-20.3-1.8-25.2-4.6zm10.3-45l-1.1 4.9 5.5-0.6-2.1-4.6zm6 8.1l-7.7 0.8 4.2 37.1q0.4 0 0.7 0c0 0 0.7 0 0.8 0q0.4 0 0.9 0.2c2.1 0.2 3.8 0.4 5.4 0.4zm-10.2 27.6c-5 1.5-6.9 3.3-6.9 4.3 0 1.2 1.9 2.9 6.9 4.4q1.8 0.6 3.9 1.1l-1.1-10.6q-1.5 0.4-2.8 0.7z"/>
	<path fill-rule="evenodd" class="s0" d="m86.7 19.1q-0.7 0-1.3-0.3c-1.2-0.4-2-1.5-2-2.8 0-1.9 1.5-3.3 3.3-3.3 1.8 0 3.2 1.4 3.2 3.3 0 1.7-1.4 3.1-3.2 3.1zm-0.9-3.1c0 0.5 0.4 0.9 0.9 0.9 0.5 0 1-0.4 1-0.9 0-0.7-0.5-1.1-1-1.1-0.5 0-0.9 0.4-0.9 1.1z"/>
	<path id="Académica" fill-rule="evenodd" class="s0" d="m12.1 138.7h-7.1l-1.2 3.4h-3.8l6.5-18.1h4.3l6.4 18.1h-3.9zm-3.5-10.5l-2.6 7.5h5.2zm17.1-0.8c3.7 0 6 1.9 6.8 5.2h-3.9c-0.4-1.3-1.4-2.1-2.9-2.1-2 0-3.2 1.5-3.2 4.4 0 2.7 1.2 4.2 3.2 4.2 1.5 0 2.5-0.7 2.9-1.9h3.9c-0.8 3-3.1 5-6.8 5-4 0-7-2.8-7-7.3 0-4.5 3-7.5 7-7.5zm15.1 0c2.4 0 3.9 1.1 4.8 2.3v-2h3.5v14.3h-3.5v-2.1c-0.9 1.2-2.6 2.3-4.8 2.3-3.6 0-6.5-3-6.5-7.5 0-4.5 2.9-7.3 6.5-7.3zm4.8 7.5c0-2.4-1.7-4.2-3.8-4.2-2.1 0-3.8 1.8-3.8 4.2 0 2.3 1.7 4.2 3.8 4.2 2.1 0 3.8-1.9 3.8-4.2zm12.8-7.5c1.9 0 3.7 0.9 4.6 2.3v-6.8h3.7v19.1h-3.7v-2.1c-0.8 1.2-2.4 2.3-4.6 2.3-3.7 0-6.5-3-6.5-7.5 0-4.5 2.8-7.3 6.5-7.3zm4.6 7.5c0-2.4-1.6-4.2-3.7-4.2-2.1 0-3.8 1.8-3.8 4.2 0 2.3 1.7 4.2 3.8 4.2 2.1 0 3.7-1.9 3.7-4.2zm13.5 7.3c-4.1 0-7.2-2.8-7.2-7.3 0-4.7 3-7.5 7.2-7.5 4.2 0 7.1 2.8 7.1 7.1 0 0.5 0 0.9-0.1 1.5h-10.5c0.2 2 1.6 3.2 3.5 3.2 1.5 0 2.3-0.8 2.9-1.7h3.8c-0.7 2.7-3.2 4.7-6.7 4.7zm-3.4-8.7h6.8c-0.1-1.9-1.6-3.1-3.5-3.1-1.7 0-3 1.1-3.3 3.1zm6.3-12.5v2.8l-6 2.8v-2.6zm26.8 13.1c0-2.4-1.2-3.6-3.1-3.6-1.9 0-3.3 1.2-3.3 3.6v7.8h-3.5v-7.8c0-2.4-1.3-3.6-3.2-3.6-2 0-3.2 1.2-3.2 3.6v7.8h-3.7v-14.4h3.7v1.8c0.8-1.2 2.4-1.9 4.2-1.9 2.2 0 4.1 0.9 5 2.7 1-1.6 2.7-2.7 4.9-2.7 3.4 0 5.9 2.2 5.9 6.1v8.4h-3.7zm10.7-6.5v14.4h-3.6v-14.4zm-1.9-1.6c-1.2 0-2.2-1-2.2-2.1 0-1.2 1-2.1 2.2-2.1 1.3 0 2.3 0.9 2.3 2.1 0 1.1-1 2.1-2.3 2.1zm11.5 1.5c3.7 0 6 1.9 6.8 5.1h-3.9c-0.4-1.2-1.4-2-2.9-2-2 0-3.4 1.5-3.4 4.4 0 2.7 1.4 4.2 3.4 4.2 1.5 0 2.5-0.7 2.9-1.9h3.9c-0.8 3-3.1 5-6.8 5-4 0-7-2.8-7-7.3 0-4.5 3-7.5 7-7.5zm15.1 0c2.4 0 3.9 1.1 4.7 2.3v-2.1h3.6v14.3h-3.6v-2c-0.8 1.2-2.5 2.3-4.7 2.3-3.6 0-6.5-3-6.5-7.5 0-4.5 2.9-7.3 6.5-7.3zm4.7 7.5c0-2.4-1.7-4.3-3.8-4.3-2 0-3.7 1.9-3.7 4.3 0 2.3 1.7 4.2 3.7 4.2 2.1 0 3.8-1.9 3.8-4.2z"/>
</svg>