<svg version="1.2" xmlns="http://www.w3.org/2000/svg" viewBox="0 0 150 150" width="100" height="100">
	<title>New Project</title>
	<style>
		.s0 { fill: #ffffff } 
	</style>
	<path id="Familiar" fill-rule="evenodd" class="s0" d="m1.9 115.2h15.6v4h-10.6v6.5h8.2v4h-8.2v10.8h-5zm27 4.8c3.3 0 5.6 1.5 6.8 3.1v-2.8h5.1v20.2h-5.1v-3c-1.2 1.8-3.5 3.2-6.8 3.2-5.1 0-9.1-4.1-9.1-10.5 0-6.3 4-10.2 9.1-10.2zm6.8 10.4c0-3.3-2.4-5.9-5.4-5.9-2.9 0-5.3 2.6-5.3 5.9 0 3.3 2.4 5.9 5.3 5.9 3 0 5.4-2.6 5.4-5.9zm38.2-1.1c0-3.2-1.8-4.8-4.5-4.8-2.7 0-4.5 1.6-4.5 4.8v11.2h-5v-11.2c0-3.2-1.9-4.8-4.6-4.8-2.7 0-4.4 1.6-4.4 4.8v11.2h-5.1v-20.2h5.1v2.4c1.2-1.6 3.3-2.7 5.9-2.7 3.1 0 5.6 1.4 7 3.8 1.3-2.3 4-3.8 7-3.8 4.7 0 8.2 3 8.2 8.6v11.9h-5.1zm15-9v20.1h-5.1v-20.1zm-2.5-2.3c-1.7 0-3.1-1.4-3.1-3 0-1.6 1.4-3 3.1-3 1.7 0 3.1 1.4 3.1 3 0 1.6-1.4 3-3.1 3zm12.6-4.3v26.7h-5.1v-26.7zm10.1 6.6v20.1h-5.1v-20.1zm-2.6-2.3c-1.7 0-3.1-1.4-3.1-3.1 0-1.6 1.4-3 3.1-3 1.7 0 3.1 1.4 3.1 3 0 1.7-1.4 3.1-3.1 3.1zm15.5 2c3.2 0 5.4 1.5 6.6 3.2v-2.9h5.1v20.1h-5.1v-2.9c-1.2 1.7-3.5 3.2-6.7 3.2-5.2 0-9.2-4.2-9.2-10.4 0-6.3 4-10.3 9.3-10.3zm6.6 10.3c0-3.2-2.4-5.9-5.3-5.9-3 0-5.3 2.7-5.3 5.9 0 3.3 2.3 6 5.3 6 2.9 0 5.3-2.7 5.3-6zm15.2 10.1h-5.1v-20.1h5.1v3.2c1.2-2.2 3.3-3.5 6.2-3.5v5.4h-1.4c-3.1 0-4.8 1.2-4.8 4.9z"/>
	<path fill-rule="evenodd" class="s0" d="m43.7 94.9c0-2.8 0.3-5.4 0.8-7.8h-36.5c-0.7 0-1.3-0.3-1.7-0.7-0.5-0.5-0.6-1.1-0.6-1.6 0.2-19.5 11.4-29.5 11.8-29.9 0.8-0.6 2.2-0.8 3 0 12.5 10.3 25.9 0 26.1 0 0.9-0.6 2.1-0.6 2.9 0.2 3.1 2.8 5.3 6.1 6.9 9.5 0.8-0.1 1.6 0 2.1 0.4 12.5 10.2 25.6 0.4 26.1 0 0.7-0.4 1.6-0.5 2.3-0.3 3.2-6.3 6.9-9.5 7.1-9.8 1-0.6 2.2-0.6 3 0 12.5 10.3 26 0.2 26.1 0 0.9-0.6 2.1-0.6 3 0.2 11.5 10.6 11.1 29 11 29.8 0 1.2-1 2.2-2.2 2.2h-36.8c0.7 4.4 0.5 7.6 0.5 7.9 0 1.2-1.1 2.3-2.3 2.3h-50.3c-0.7 0-1.2-0.3-1.6-0.7-0.5-0.5-0.7-1-0.7-1.6zm46.7-26.8c3.5 4.5 5.5 9.7 6.7 14.4h35.4c-0.3-4.7-1.5-15.7-8.3-23-4.3 2.7-16.6 8.5-28.4 0.2-1.4 1.4-3.5 4.4-5.4 8.4zm-42.1 24.5h45.7c-0.2-4.5-1.6-15.6-8.3-22.8-4.3 2.6-16.5 8.3-28.4 0.1-2.5 2.8-8.2 10.5-9 22.7zm-2.8-10.1c1.9-6.8 5.1-11.7 7.4-14.5-1.2-2.9-3-5.9-5.3-8.3-4.3 2.5-16.5 8.3-28.3 0-2.6 2.9-8.3 10.6-9.1 22.8z"/>
	<path fill-rule="evenodd" class="s0" d="m11.6 31.5q0 0.1 0 0.1 0 0 0 0.1zm6.3-15.2c4-4.1 9.4-6.4 15.2-6.4 10.8 0 19.6 8 21.3 18.3q0.6-0.9 1.6-1.7c4-4.2 9.4-6.3 15.2-6.3 7 0 13.2 3.3 17.1 8.4 0.6-4.5 2.8-9 6.1-12.3 4.1-4.1 9.5-6.4 15.2-6.4 11.9 0 21.6 9.7 21.6 21.6 0 5.7-2.2 11.1-6.4 15.2-4 4.1-9.4 6.3-15.2 6.3-6.9 0-13.1-3.4-17-8.5-0.7 4.7-2.9 9-6.2 12.4-4.1 4-9.4 6.3-15.2 6.3-10.8 0-19.7-7.9-21.3-18.3q-0.8 0.9-1.6 1.8c-4 4.1-9.4 6.3-15.2 6.3-11.8 0-21.5-9.5-21.5-21.5 0-5.7 2.2-11.1 6.3-15.2zm79.8 3.3c-3.3 3.2-5 7.4-5 12 0 9.4 7.5 16.9 16.9 16.9 4.6 0 8.8-1.7 12-4.9 3.2-3.3 5-7.4 5-12 0-9.4-7.5-17-17-17-4.5 0-8.7 1.8-11.9 5zm-43.5 22.2c0 9.3 7.6 17 17 17 4.5 0 8.7-1.8 11.9-5 3.3-3.2 5-7.5 5-12.1 0-9.3-7.6-17-16.9-17-4.6 0-8.9 1.8-12 5-3.2 3.2-5 7.5-5 12.1zm-33.2-22.2c-3.1 3.2-5 7.4-5 12 0.2 9.4 7.7 16.9 17.1 16.9 4.6 0 8.8-1.7 12-4.9 3.2-3.3 5-7.4 5-12 0-9.4-7.7-17-17-17-4.6 0-8.9 1.8-12.1 5z"/>
</svg>