<svg id="Capa_1" data-name="Capa 1" xmlns="http://www.w3.org/2000/svg" viewBox="0 0 1919.92 182.96"><defs><style>.cls-1{fill:#fe0031;}.cls-2{fill:#e8002d;}</style></defs><path class="cls-1" d="M1134.84,346.48V423c-10.07,1-20.14,2-30.21,3-11.88,1.2-23.76,2.46-35.64,3.69-13.69,1.42-27.39,2.86-41.09,4.23-11.4,1.13-22.8,2.12-34.19,3.29-14.69,1.5-29.36,3.17-44,4.65C938.11,443,926.53,444,915,445.12c-15.19,1.52-30.36,3.15-45.54,4.72-11.06,1.14-22.12,2.24-33.17,3.39-11.39,1.17-22.77,2.42-34.15,3.56s-22.8,2.11-34.2,3.25c-15.18,1.52-30.35,3.14-45.53,4.71l-35.14,3.66c-10.56,1.1-21.12,2.23-31.69,3.29-14.53,1.44-29.07,2.77-43.59,4.23-15.19,1.53-30.36,3.17-45.54,4.72-11.39,1.16-22.82,2-34.16,3.47-17.19,2.3-34.35,3.14-51.66,1.44-16-1.58-32.07-2.64-48.11-3.91-9.44-.75-18.87-1.44-28.3-2.2-15.38-1.24-30.75-2.55-46.13-3.75-10.26-.8-20.53-1.41-30.79-2.21-15.38-1.21-30.75-2.54-46.13-3.76-9.93-.78-19.87-1.41-29.8-2.19-15.38-1.22-30.75-2.54-46.13-3.77-9.59-.77-19.2-1.41-28.79-2.18-15.22-1.23-30.42-2.57-45.63-3.78-10.1-.8-20.2-1.4-30.3-2.18-15.88-1.22-31.75-2.54-47.63-3.8-9.59-.76-19.19-1.45-28.79-2.23C9,448.38-6,447.07-21,445.88c-10.26-.81-20.53-1.42-30.79-2.24-15-1.19-30.09-2.53-45.13-3.72-10.26-.81-20.54-1.42-30.8-2.23-15-1.19-30.08-2.54-45.13-3.73-10.26-.81-20.53-1.41-30.79-2.22-15.22-1.2-30.42-2.54-45.63-3.75-10.1-.8-20.2-1.41-30.3-2.2-15.54-1.22-31.08-2.54-46.63-3.77-9.76-.77-19.53-1.39-29.29-2.19-14.88-1.21-29.75-2.56-44.63-3.76-10.09-.81-20.2-1.4-30.3-2.18-15.88-1.23-31.75-2.54-47.62-3.8-9.6-.76-19.2-1.45-28.8-2.23-14.88-1.22-29.75-2.54-44.63-3.71-10.26-.81-20.54-1.38-30.8-2.17-16-1.22-32.08-2.56-48.12-3.81-9.76-.77-19.54-1.44-29.3-2.22-15-1.22-30.08-2.54-45.13-3.73-10.26-.82-20.54-1.3-30.79-2.26-16.35-1.53-32.71-3-49.13-3.72q-.09-15.9-.17-31.79c0-7.47,0-7.47,7.68-7.47q952.35,0,1904.72,0C1129.9,347,1132.43,347.46,1134.84,346.48Z" transform="translate(784.98 -346.48)"/><path class="cls-2" d="M-784.79,386.24c16.42.72,32.78,2.19,49.13,3.72,10.25,1,20.53,1.44,30.79,2.26,15,1.19,30.09,2.51,45.13,3.73,9.76.78,19.54,1.45,29.3,2.22,16,1.25,32.08,2.59,48.12,3.81,10.26.79,20.54,1.36,30.8,2.17,14.88,1.17,29.75,2.49,44.63,3.71,9.6.78,19.2,1.47,28.8,2.23,15.87,1.26,31.74,2.57,47.62,3.8,10.1.78,20.21,1.37,30.3,2.18,14.88,1.2,29.75,2.55,44.63,3.76,9.76.8,19.53,1.42,29.29,2.19,15.55,1.23,31.09,2.55,46.63,3.77,10.1.79,20.2,1.4,30.3,2.2,15.21,1.21,30.41,2.55,45.63,3.75,10.26.81,20.53,1.41,30.79,2.22,15.05,1.19,30.09,2.54,45.13,3.73,10.26.81,20.54,1.42,30.8,2.23,15,1.19,30.08,2.53,45.13,3.72,10.26.82,20.53,1.43,30.79,2.24C-6,447.07,9,448.38,24.08,449.6c9.6.78,19.2,1.47,28.79,2.23,15.88,1.26,31.75,2.58,47.63,3.8,10.1.78,20.2,1.38,30.3,2.18,15.21,1.21,30.41,2.55,45.63,3.78,9.59.77,19.2,1.41,28.79,2.18,15.38,1.23,30.75,2.55,46.13,3.77,9.93.78,19.87,1.41,29.8,2.19,15.38,1.22,30.75,2.55,46.13,3.76,10.26.8,20.53,1.41,30.79,2.21,15.38,1.2,30.75,2.51,46.13,3.75,9.43.76,18.86,1.45,28.3,2.2,16,1.27,32.1,2.33,48.11,3.91,17.31,1.7,34.47.86,51.66-1.44,11.34-1.52,22.77-2.31,34.16-3.47,15.18-1.55,30.35-3.19,45.54-4.72,14.52-1.46,29.06-2.79,43.59-4.23,10.57-1.06,21.13-2.19,31.69-3.29l35.14-3.66c15.18-1.57,30.35-3.19,45.53-4.71,11.4-1.14,22.8-2.12,34.2-3.25s22.76-2.39,34.15-3.56c11.05-1.15,22.11-2.25,33.17-3.39,15.18-1.57,30.35-3.2,45.54-4.72,11.55-1.15,23.13-2.08,34.69-3.25,14.68-1.48,29.35-3.15,44-4.65,11.39-1.17,22.79-2.16,34.19-3.29,13.7-1.37,27.4-2.81,41.09-4.23,11.88-1.23,23.76-2.49,35.64-3.69,10.07-1,20.14-2,30.21-3,0,34.12-.06,68.24.1,102.37,0,3.4-.67,4.07-4.1,4.06q-334.95-.15-669.91-.09H-784.9q0-53.49-.08-107C-785,410.33-784.86,398.28-784.79,386.24Z" transform="translate(784.98 -346.48)"/></svg>