<?xml version="1.0" encoding="UTF-8"?><svg id="Capa_2" xmlns="http://www.w3.org/2000/svg" viewBox="0 0 87.77 61.2"><defs><style>.cls-1{fill:#fff;stroke-width:0px;}</style></defs><g id="Segunda_pantalla"><path class="cls-1" d="M86.25,24.81h-26.56V1.52c0-.84-.68-1.52-1.52-1.52h-28.53c-.84,0-1.52.68-1.52,1.52v10.11H1.52c-.84,0-1.52.68-1.52,1.52v46.52c0,.84.68,1.52,1.52,1.52h84.73c.84,0,1.52-.68,1.52-1.52V26.33c0-.84-.68-1.52-1.52-1.52ZM69.66,45.5h5.08v13.27h-5.08v-13.27ZM84.73,58.15h-8.16v-13.57c0-.5-.41-.91-.91-.91h-6.91c-.5,0-.91.41-.91.91v13.57h-8.16v-30.29h25.06v30.29ZM3.05,14.68h25.06v43.47h-8.16v-13.57c0-.5-.41-.91-.91-.91h-6.91c-.5,0-.91.41-.91.91v13.57H3.05V14.68ZM13.04,45.5h5.08v13.27h-5.08v-13.27ZM56.62,26.33v31.82h-8.76v-13.57c0-.5-.41-.91-.91-.91h-6.91c-.5,0-.91.41-.91.91v13.57h-7.97V3.05h25.48v23.1c0,.06-.02.12-.02.18ZM40.95,58.76v-13.27h5.08v13.27h-5.08Z"/><path class="cls-1" d="M42.23,8.83h-6.82c-.5,0-.91.41-.91.91v6.83c0,.5.41.91.91.91h6.82c.5,0,.91-.41.91-.91v-6.83c0-.5-.41-.91-.91-.91ZM41.32,15.66h-5v-5h5v5Z"/><path class="cls-1" d="M52.59,8.83h-6.82c-.5,0-.91.41-.91.91v6.83c0,.5.41.91.91.91h6.82c.5,0,.91-.41.91-.91v-6.83c0-.5-.41-.91-.91-.91ZM51.68,15.66h-5v-5h5v5Z"/><path class="cls-1" d="M42.23,20.01h-6.82c-.5,0-.91.41-.91.91v6.82c0,.5.41.91.91.91h6.82c.5,0,.91-.41.91-.91v-6.82c0-.51-.41-.91-.91-.91ZM41.32,26.83h-5v-5h5v5Z"/><path class="cls-1" d="M52.59,20.01h-6.82c-.5,0-.91.41-.91.91v6.82c0,.5.41.91.91.91h6.82c.5,0,.91-.41.91-.91v-6.82c0-.51-.41-.91-.91-.91ZM51.68,26.83h-5v-5h5v5Z"/><path class="cls-1" d="M42.23,31.18h-6.82c-.5,0-.91.41-.91.91v6.82c0,.5.41.91.91.91h6.82c.5,0,.91-.41.91-.91v-6.82c0-.51-.41-.91-.91-.91ZM41.32,38h-5v-5h5v5Z"/><path class="cls-1" d="M52.59,31.18h-6.82c-.5,0-.91.41-.91.91v6.82c0,.5.41.91.91.91h6.82c.5,0,.91-.41.91-.91v-6.82c0-.51-.41-.91-.91-.91ZM51.68,38h-5v-5h5v5Z"/><path class="cls-1" d="M6.98,28.66h6.82c.5,0,.91-.41.91-.91v-6.82c0-.51-.41-.91-.91-.91h-6.82c-.5,0-.91.41-.91.91v6.82c0,.5.41.91.91.91ZM7.9,21.83h4.99v5h-4.99v-5Z"/><path class="cls-1" d="M17.35,28.66h6.82c.5,0,.91-.41.91-.91v-6.82c0-.51-.41-.91-.91-.91h-6.82c-.5,0-.91.41-.91.91v6.82c0,.5.41.91.91.91ZM18.26,21.83h5v5h-5v-5Z"/><path class="cls-1" d="M13.81,39.83c.5,0,.91-.41.91-.91v-6.82c0-.51-.41-.91-.91-.91h-6.82c-.5,0-.91.41-.91.91v6.82c0,.5.41.91.91.91h6.82ZM7.9,33.01h4.99v5h-4.99v-5Z"/><path class="cls-1" d="M17.35,39.83h6.82c.5,0,.91-.41.91-.91v-6.82c0-.51-.41-.91-.91-.91h-6.82c-.5,0-.91.41-.91.91v6.82c0,.5.41.91.91.91ZM18.26,33.01h5v5h-5v-5Z"/><path class="cls-1" d="M63.6,39.83h6.82c.5,0,.91-.41.91-.91v-6.82c0-.51-.41-.91-.91-.91h-6.82c-.5,0-.91.41-.91.91v6.82c0,.5.41.91.91.91ZM64.52,33.01h5v5h-5v-5Z"/><path class="cls-1" d="M73.96,39.83h6.82c.5,0,.91-.41.91-.91v-6.82c0-.51-.41-.91-.91-.91h-6.82c-.5,0-.91.41-.91.91v6.82c0,.5.41.91.91.91ZM74.88,33.01h5v5h-5v-5Z"/></g></svg>