<?xml version="1.0" encoding="UTF-8"?><svg id="Capa_2" xmlns="http://www.w3.org/2000/svg" viewBox="0 0 84.9 82.63"><defs><style>.cls-1{fill:#fff;stroke-width:0px;}</style></defs><g id="Segunda_pantalla"><path class="cls-1" d="M14.46,24.05c-.04-.33-.33-.57-.67-.53-.54.06-.99.13-1.32.18-.45.07-.71.13-.73.14-.33.07-.53.4-.46.72.06.28.31.47.59.47.04,0,.09,0,.13-.01,0,0,.73-.16,1.93-.3.02,0,.04-.01.06-.02.3-.07.51-.34.48-.65Z"/><path class="cls-1" d="M69.23,52.59c-.24.2-.47.4-.71.58-.26.21-.31.58-.1.85.12.15.3.23.48.23.12,0,.24-.04.34-.11,0,0,.02,0,.03-.02.26-.2.52-.42.78-.64.79-.69,1.57-1.46,2.31-2.31.22-.25.19-.63-.06-.85-.25-.22-.63-.19-.85.06-.46.52-.93,1.01-1.4,1.47-.27.26-.54.5-.81.73Z"/><path class="cls-1" d="M36.48,31.63c.12.12.27.18.43.18s.31-.06.43-.17c.24-.24.24-.62,0-.86-.41-.41-.84-.8-1.27-1.18-.26-.23-.53-.45-.81-.67-.39-.31-.77-.62-1.18-.91-.27-.19-.65-.12-.84.15-.19.27-.13.65.15.84.65.45,1.27.96,1.87,1.48.28.24.54.49.81.74.13.13.28.25.41.38Z"/><path class="cls-1" d="M41.11,38.25c.11.21.32.34.54.34.09,0,.18-.02.26-.06.3-.15.43-.51.28-.81-.43-.87-.9-1.7-1.4-2.49-.25-.39-.49-.79-.74-1.17-.02-.02-.04-.04-.06-.06-.2-.21-.53-.27-.78-.09-.27.19-.34.57-.15.84.32.47.63.96.93,1.46.28.47.55.96.81,1.46.1.2.22.38.31.58Z"/><path class="cls-1" d="M49.9,52.68c.08.04.17.07.26.07.16,0,.31-.06.43-.18.23-.24.23-.62,0-.86-.23-.22-.46-.46-.68-.7-.27-.29-.54-.59-.81-.91-.4-.46-.79-.95-1.16-1.46-.2-.27-.58-.33-.85-.13-.27.2-.33.58-.13.85.68.92,1.4,1.78,2.14,2.56.21.23.43.45.64.66.05.05.11.08.16.1Z"/><path class="cls-1" d="M45.19,46.11c.06,0,.13-.03.19-.05.04-.01.07,0,.11-.03.29-.16.39-.53.23-.82-.11-.2-.22-.42-.34-.63-.27-.51-.54-1.02-.81-1.56-.24-.49-.47-.97-.7-1.48-.14-.3-.49-.44-.8-.31-.31.14-.44.49-.31.8.56,1.26,1.17,2.47,1.8,3.6.03.05.06.11.09.17.11.2.32.3.53.3Z"/><path class="cls-1" d="M22.08,24.79s.05,0,.08,0c.3,0,.56-.22.6-.52.04-.33-.19-.64-.52-.68-.54-.07-1.1-.12-1.65-.17-.27-.02-.54-.04-.81-.06-.59-.04-1.17-.07-1.77-.07h0c-.33,0-.6.27-.61.6,0,.33.27.61.6.61.6,0,1.19.03,1.78.07.27.02.54.04.81.06.5.04,1,.09,1.49.15Z"/><path class="cls-1" d="M74.09,47.92c.1.07.21.1.33.1.07,0,.14-.03.2-.05.12-.04.23-.11.31-.23.36-.57.72-1.16,1.06-1.76.17-.29.06-.66-.23-.82-.29-.16-.66-.06-.82.23-.1.18-.21.35-.32.52-.23.4-.47.79-.71,1.17-.18.28-.1.65.18.84Z"/><path class="cls-1" d="M25.16.18c-.36-.22-.81-.23-1.19-.04L.65,12.28c-.4.21-.65.62-.65,1.07v67.07c0,.42.22.81.58,1.03.19.12.41.18.63.18.19,0,.38-.05.56-.14l23.32-12.14c.4-.21.65-.62.65-1.07V25.36c.08.12.19.21.33.25,1.26.36,2.48.81,3.64,1.33v42.34c0,.45.25.86.65,1.07l23.32,12.14c.18.09.37.14.56.14.22,0,.43-.06.63-.18.36-.22.58-.61.58-1.03v-24.99c.53.21,1.06.4,1.59.55.05.01.11.02.16.02.27,0,.51-.18.58-.45.09-.32-.1-.65-.42-.74-.64-.17-1.28-.41-1.91-.69V14.35c0-.45-.25-.86-.65-1.07L31.48,1.13c-.37-.2-.82-.18-1.19.04-.36.22-.58.61-.58,1.03v23.42c-1.06-.45-2.17-.86-3.31-1.19-.26-.07-.52.04-.66.25V1.21c0-.42-.22-.81-.58-1.03ZM23.32,67.54l-2.73,1.42-.81.42-3.93,2.04-.81.42-3.79,1.98-.5.26-4.03,2.1-.44.23-3.87,2.01V14.09l8.13-4.23.34-.18,12.43-6.47v64.34ZM32.13,4.2l3.13,1.63.81.42,3.93,2.04.81.42,3.77,1.96.81.42,7.65,3.98v39.17s-.1.08-.13.14c-.16.26-.09.58.13.78v24.25l-3.13-1.63-.81-.42-3.71-1.93-.81-.42-3.77-1.96-.81-.42-3.93-2.04-.81-.42-3.13-1.63V4.2Z"/><path class="cls-1" d="M59.16,13.35v67.07c0,.42.22.81.58,1.03.19.12.41.18.63.18.19,0,.38-.05.56-.14l13.32-6.93.26-.14,4.12-2.14.72-.37,4.9-2.55c.4-.21.65-.62.65-1.07V1.21c0-.42-.22-.81-.58-1.03-.36-.22-.81-.23-1.19-.04l-23.32,12.14c-.4.21-.65.62-.65,1.07ZM82.48,67.54l-3.13,1.63-.81.42-3.93,2.05-.81.42-3.77,1.96-.81.42-3.71,1.93-.81.42-3.13,1.63v-21.06c1.05-.1,2.1-.33,3.13-.7.27-.1.54-.2.81-.31.02,0,.03-.01.05-.02.31-.13.45-.49.32-.79-.07-.17-.21-.28-.37-.33-.14-.04-.28-.05-.43.01-.13.05-.25.09-.38.14-1.03.4-2.08.66-3.13.78V14.09l3.13-1.63.63-.33,3.89-2.02.81-.42,3.77-1.96.81-.42,3.93-2.05.81-.42,3.13-1.63v64.34Z"/></g></svg>