<?xml version="1.0" encoding="UTF-8"?><svg id="Capa_2" xmlns="http://www.w3.org/2000/svg" viewBox="0 0 78.9 76.21"><defs><style>.cls-1{fill:#fff;stroke-width:0px;}</style></defs><g id="Segunda_pantalla"><path class="cls-1" d="M69.49,12.49h-14.53v9.19h14.53v-9.19ZM65.46,13.72l-3.24,2.58-3.23-2.58h6.47ZM68.26,20.46h-12.07v-6.74h.83l5.2,4.16,5.2-4.16h.83v6.74Z"/><path class="cls-1" d="M35.03,64.15c.23,2.32,1.27,4.5,2.92,6.14.2.2.47.31.75.31.11,0,.22-.02.32-.05.38-.12.66-.44.72-.83.27-1.55,1.61-2.67,3.18-2.67h5.29c1.34,0,2.52.81,3.01,2.07.14.35.45.61.83.67.37.06.75-.09.99-.39,1.65-2.07,2.41-4.67,2.15-7.32-.47-4.77-4.28-8.57-9.04-9.04-.36-.04-.71-.06-1.04-.06-2.85,0-5.59,1.22-7.51,3.33-1.94,2.15-2.85,4.93-2.57,7.83ZM45.11,65.52c-2.11,0-3.84-1.72-3.84-3.84s1.72-3.84,3.84-3.84,3.84,1.72,3.84,3.84-1.72,3.84-3.84,3.84ZM39.17,57.74c1.52-1.67,3.68-2.64,5.94-2.64.26,0,.54.01.83.04,3.76.37,6.77,3.37,7.14,7.14.15,1.56-.14,3.11-.84,4.47-.84-.96-2-1.59-3.3-1.77.77-.89,1.23-2.04,1.23-3.3,0-2.79-2.27-5.06-5.06-5.06s-5.06,2.27-5.06,5.06c0,1.34.53,2.56,1.38,3.47-1.27.37-2.36,1.2-3.05,2.31-.68-1.06-1.11-2.26-1.24-3.52-.23-2.3.49-4.5,2.03-6.2Z"/><path class="cls-1" d="M8.58,43.99c.3.3.76.39,1.15.22s.65-.55.65-.98v-.93c0-3.27,2.45-6.02,5.7-6.38.01,0,.02,0,.04,0,.25-.03.47-.04.69-.04h9.22c3.54,0,6.43,2.88,6.43,6.43v.93c0,.43.26.81.65.98.13.06.27.08.41.08.27,0,.54-.11.75-.31,3.51-3.47,5.44-8.09,5.44-13,0-10.08-8.2-18.29-18.29-18.29S3.14,20.9,3.14,30.98c0,4.91,1.93,9.53,5.45,13ZM22.41,33.75h-1.96c-3.42-.48-6.07-3.42-6.07-6.97,0-3.89,3.16-7.05,7.04-7.05s7.05,3.16,7.05,7.05c0,3.55-2.65,6.49-6.07,6.97ZM21.43,14.82c8.92,0,16.17,7.25,16.17,16.17,0,3.51-1.11,6.84-3.18,9.61-.74-3.64-3.8-6.44-7.56-6.81,2.1-1.63,3.45-4.16,3.45-7.01,0-4.9-3.99-8.89-8.89-8.89s-8.89,3.99-8.89,8.89c0,2.85,1.36,5.39,3.45,7.01-.03,0-.05,0-.08,0-.04,0-.09,0-.13.02-3.71.45-6.63,3.23-7.35,6.78-2.06-2.77-3.18-6.11-3.18-9.61,0-8.91,7.25-16.17,16.17-16.17Z"/><path class="cls-1" d="M62.23,30.38c7.56,0,13.7-6.15,13.7-13.7s-6.15-13.7-13.7-13.7-13.7,6.15-13.7,13.7,6.15,13.7,13.7,13.7ZM62.23,5.09c6.39,0,11.58,5.2,11.58,11.58s-5.2,11.58-11.58,11.58-11.58-5.2-11.58-11.58,5.2-11.58,11.58-11.58Z"/><path class="cls-1" d="M0,30.98c0,11.82,9.61,21.43,21.43,21.43,3.17,0,6.34-.73,9.22-2.1l4.19,4.66c-2.13,2.67-3.11,6-2.76,9.46.61,6.17,5.54,11.1,11.7,11.7.43.04.88.07,1.33.07,3.69,0,7.23-1.57,9.71-4.31,2.51-2.78,3.69-6.37,3.32-10.12-.61-6.17-5.54-11.1-11.71-11.71-2.66-.26-5.36.31-7.7,1.61l-3.74-4.15c4.95-4.06,7.87-10.17,7.87-16.55,0-1.68-.21-3.38-.61-5.04l5.08-1.8c2.82,5.62,8.57,9.2,14.9,9.2,9.19,0,16.67-7.48,16.67-16.67S71.42,0,62.23,0s-16.67,7.48-16.67,16.67c0,.87.07,1.75.22,2.63l-5.31,1.88c-3.67-7.09-11.04-11.62-19.03-11.62C9.61,9.55,0,19.17,0,30.98ZM21.43,11.67c7.49,0,14.37,4.42,17.53,11.26.23.5.8.74,1.32.56l7.06-2.49c.5-.18.8-.7.68-1.23-.23-1.04-.34-2.08-.34-3.1,0-8.02,6.53-14.55,14.55-14.55s14.55,6.53,14.55,14.55-6.53,14.55-14.55,14.55c-5.82,0-11.06-3.46-13.37-8.82-.22-.51-.8-.77-1.33-.58l-6.91,2.44c-.53.19-.82.76-.66,1.3.52,1.79.79,3.61.79,5.42,0,6.1-2.96,11.92-7.92,15.56-.24.18-.4.45-.43.75s.07.59.27.82l5.08,5.65c.35.39.93.47,1.37.18,2.11-1.37,4.64-1.99,7.12-1.75,5.17.51,9.29,4.64,9.81,9.81.31,3.15-.68,6.16-2.79,8.49-2.08,2.29-5.04,3.61-8.14,3.61-.38,0-.76-.02-1.12-.05-5.17-.51-9.29-4.63-9.81-9.8-.31-3.15.68-6.16,2.75-8.45.03-.03.1-.09.12-.12.35-.4.35-1.01-.01-1.41l-5.36-5.96c-.21-.23-.5-.35-.79-.35-.17,0-.34.04-.49.12-2.8,1.48-5.82,2.23-8.97,2.23-10.65,0-19.31-8.66-19.31-19.31S10.78,11.67,21.43,11.67Z"/></g></svg>