<?xml version="1.0" encoding="UTF-8"?><svg id="Capa_2" xmlns="http://www.w3.org/2000/svg" viewBox="0 0 63.21 63.21"><defs><style>.cls-1{fill:#fff;stroke-width:0px;}</style></defs><g id="Segunda_pantalla"><path class="cls-1" d="M15.76,22.38c-.55.55-.55,1.44,0,1.98.26.26.62.41.99.41s.73-.15.99-.41c.55-.55.55-1.44,0-1.98-.53-.53-1.45-.53-1.98,0ZM17.25,23.87c-.27.27-.73.27-1,0-.28-.27-.28-.72,0-1,.13-.13.31-.21.5-.21s.37.07.5.21c.27.28.27.72,0,1Z"/><path class="cls-1" d="M18.96,19.18c-.55.55-.55,1.43,0,1.98.27.27.63.41.99.41s.72-.14.99-.41c.55-.55.55-1.44,0-1.98-.55-.55-1.44-.55-1.98,0ZM20.45,20.67c-.28.28-.72.28-1,0-.28-.28-.28-.72,0-1,.14-.14.32-.21.5-.21s.36.07.5.21c.27.27.27.72,0,1Z"/><path class="cls-1" d="M22.93,18.6c.38,0,.73-.15.99-.41.55-.55.55-1.44,0-1.98-.53-.53-1.45-.53-1.98,0-.55.55-.55,1.44,0,1.98.26.26.62.41.99.41ZM22.43,16.7c.13-.13.31-.21.5-.21s.37.07.5.21c.28.27.28.72,0,1-.27.27-.73.27-1,0-.28-.28-.28-.72,0-1Z"/><path class="cls-1" d="M13.47,21.5c.36,0,.72-.14.99-.41.55-.55.55-1.44,0-1.98-.55-.55-1.43-.55-1.98,0-.55.54-.55,1.44,0,1.98.27.27.63.41.99.41ZM12.98,19.6c.14-.14.32-.21.5-.21s.36.07.5.21c.27.27.27.72,0,1-.28.28-.72.28-1,0-.27-.28-.27-.72,0-1Z"/><path class="cls-1" d="M15.69,15.91c-.55.55-.55,1.43,0,1.98.27.27.63.41.99.41s.72-.14.99-.41c.55-.55.55-1.43,0-1.98-.55-.55-1.43-.55-1.98,0ZM17.18,17.4c-.28.27-.72.27-1,0-.27-.28-.27-.72,0-1,.14-.14.32-.21.5-.21s.36.07.5.21c.28.27.28.72,0,1Z"/><path class="cls-1" d="M19.66,15.32c.36,0,.72-.14.99-.41.55-.55.55-1.43,0-1.98-.55-.55-1.43-.55-1.98,0-.55.55-.55,1.43,0,1.98.27.27.63.41.99.41ZM19.16,13.42c.14-.14.32-.21.5-.21s.36.07.5.21c.28.28.28.72,0,1-.28.28-.72.27-1,0-.28-.28-.28-.72,0-1Z"/><path class="cls-1" d="M9.32,15.94c-.55.55-.55,1.43,0,1.98.27.27.63.41.99.41s.72-.14.99-.41c.55-.55.55-1.43,0-1.98-.55-.55-1.44-.55-1.98,0ZM10.81,17.43c-.28.27-.72.27-1,0-.28-.28-.28-.72,0-1,.14-.14.32-.21.5-.21s.36.07.5.21c.27.28.27.72,0,1Z"/><path class="cls-1" d="M13.51,15.13c.36,0,.72-.13.99-.41.55-.55.55-1.43,0-1.98-.55-.55-1.44-.55-1.98,0-.55.55-.55,1.43,0,1.98.27.28.63.41.99.41ZM13.01,13.23c.14-.14.32-.21.5-.21s.36.07.5.21c.28.28.28.72,0,1-.27.28-.72.28-1,0-.27-.28-.27-.72,0-1Z"/><path class="cls-1" d="M16.49,12.15c.36,0,.72-.14.99-.41.55-.55.55-1.44,0-1.98-.55-.55-1.43-.55-1.98,0s-.55,1.43,0,1.98c.27.27.63.41.99.41ZM15.99,10.25c.14-.14.32-.2.5-.2s.36.07.5.2c.28.28.28.72,0,1-.28.28-.72.28-1,0-.28-.28-.28-.72,0-1Z"/><path class="cls-1" d="M44.35,50.98c-.26.27-.41.62-.41.99s.15.73.41.99c.27.27.63.41.99.41s.72-.14.99-.41c.26-.26.41-.62.41-.99s-.15-.73-.41-.99c-.55-.55-1.43-.55-1.98,0ZM45.84,52.47c-.28.28-.72.28-1,0-.13-.13-.21-.31-.21-.5s.07-.37.21-.5c.14-.14.32-.2.5-.2s.36.07.5.2c.13.13.21.31.21.5s-.07.37-.21.5Z"/><path class="cls-1" d="M47.56,47.78c-.54.55-.54,1.43,0,1.98.27.27.63.41.99.41s.72-.14.99-.41c.55-.55.55-1.44,0-1.98-.55-.54-1.43-.55-1.98,0ZM49.05,49.27c-.28.28-.72.27-1,0-.27-.28-.27-.72,0-1,.14-.14.32-.21.5-.21s.36.07.5.21c.28.27.28.72,0,1Z"/><path class="cls-1" d="M50.53,44.8c-.26.26-.41.62-.41.99s.15.73.41.99c.27.27.63.41.99.41s.72-.14.99-.41c.26-.27.41-.62.41-.99s-.15-.73-.41-.99c-.55-.55-1.43-.55-1.98,0ZM52.02,46.29c-.27.27-.72.27-1,0-.13-.13-.21-.31-.21-.5s.07-.37.21-.5c.14-.14.32-.21.5-.21s.36.07.5.21c.13.13.21.31.21.5s-.07.37-.21.5Z"/><path class="cls-1" d="M41.08,47.7c-.27.26-.41.62-.41.99s.15.73.41.99c.27.27.63.41.99.41s.72-.14.99-.41c.26-.27.41-.62.41-.99s-.15-.73-.41-.99c-.55-.55-1.44-.54-1.98,0ZM42.57,49.19c-.27.28-.72.28-1,0-.13-.13-.21-.31-.21-.5s.07-.36.21-.5c.14-.14.32-.21.5-.21s.36.07.5.21c.13.13.21.31.21.5s-.07.37-.21.5Z"/><path class="cls-1" d="M45.27,46.89c.36,0,.72-.14.99-.41.27-.27.41-.62.41-.99s-.15-.73-.41-.99c-.55-.55-1.43-.55-1.98,0-.26.26-.41.62-.41.99s.15.72.41.99c.27.27.63.41.99.41ZM44.77,44.99c.14-.14.32-.21.5-.21s.36.07.5.21c.13.13.21.31.21.5s-.07.37-.21.5c-.27.27-.72.28-1,0-.13-.13-.21-.31-.21-.5s.07-.37.21-.5Z"/><path class="cls-1" d="M48.25,43.91c.36,0,.72-.14.99-.41.26-.26.41-.62.41-.99s-.15-.73-.41-.99c-.55-.55-1.43-.55-1.98,0-.26.26-.41.62-.41.99s.15.73.41.99.63.41.99.41ZM47.75,42.01c.14-.14.32-.21.5-.21s.36.07.5.21c.13.13.21.31.21.5s-.07.37-.21.5c-.27.27-.72.27-1,0-.13-.13-.21-.31-.21-.5s.07-.37.21-.5Z"/><path class="cls-1" d="M37.91,44.54c-.55.55-.55,1.43,0,1.98.27.27.63.41.99.41s.72-.14.99-.41c.55-.55.55-1.43,0-1.98-.55-.55-1.43-.55-1.98,0ZM39.4,46.03c-.27.28-.72.28-1,0-.28-.28-.28-.72,0-1,.14-.14.32-.21.5-.21s.36.07.5.21c.27.28.27.72,0,1Z"/><path class="cls-1" d="M41.11,41.34c-.26.26-.41.62-.41.99s.14.73.41.99c.27.27.62.41.99.41s.73-.14.99-.41c.26-.26.41-.62.41-.99s-.15-.73-.41-.99c-.55-.55-1.43-.55-1.98,0ZM42.6,42.83c-.27.27-.73.27-1,0-.13-.13-.21-.31-.21-.5s.07-.37.21-.5c.14-.14.32-.21.5-.21s.36.07.5.21c.13.13.21.31.21.5s-.07.37-.21.5Z"/><path class="cls-1" d="M45.08,40.75c.36,0,.72-.14.99-.41.26-.26.41-.62.41-.99s-.15-.73-.41-.99c-.55-.55-1.44-.55-1.98,0-.26.27-.41.62-.41.99s.15.73.41.99c.27.27.63.41.99.41ZM44.59,38.85c.14-.14.32-.21.5-.21s.36.07.5.21c.13.13.21.31.21.5s-.07.37-.21.5c-.27.28-.72.27-1,0-.13-.13-.21-.31-.21-.5s.07-.37.21-.5Z"/><path class="cls-1" d="M0,49.02c0,2.04.79,3.95,2.23,5.39l6.57,6.57c1.44,1.44,3.35,2.23,5.39,2.23s3.95-.79,5.39-2.23l12.02-12.02,12.02,12.02c1.44,1.44,3.35,2.23,5.39,2.23s3.95-.79,5.39-2.23l6.57-6.57c2.97-2.97,2.97-7.81,0-10.78l-12.02-12.02,12.02-12.02c2.97-2.97,2.97-7.81,0-10.78l-6.57-6.57c-2.97-2.97-7.81-2.97-10.78,0l-12.02,12.02L19.58,2.23c-2.97-2.97-7.81-2.97-10.78,0l-6.57,6.57c-1.44,1.44-2.23,3.35-2.23,5.39s.79,3.95,2.23,5.39l12.02,12.02-12.02,12.02c-1.44,1.44-2.23,3.35-2.23,5.39ZM17.13,4.69l12.02,12.02-12.43,12.43-12.02-12.02c-.78-.78-1.21-1.82-1.21-2.93s.43-2.15,1.21-2.93l6.57-6.57c.78-.78,1.82-1.21,2.93-1.21s2.15.43,2.93,1.21ZM46.09,4.69c.81-.81,1.87-1.21,2.93-1.21s2.12.4,2.93,1.21l6.57,6.57c.78.78,1.21,1.82,1.21,2.93s-.43,2.15-1.21,2.93L17.12,58.52c-.78.78-1.82,1.21-2.93,1.21s-2.15-.43-2.93-1.21h0l-6.57-6.57c-.78-.78-1.21-1.82-1.21-2.93s.43-2.15,1.21-2.93L46.09,4.69ZM49.02,59.73c-1.11,0-2.15-.43-2.93-1.21l-12.02-12.02,12.43-12.43,12.02,12.02c.78.78,1.21,1.82,1.21,2.93s-.43,2.15-1.21,2.93l-6.57,6.57c-.78.78-1.82,1.21-2.93,1.21Z"/><path class="cls-1" d="M26.38,40.11h0c.81.81,1.88,1.22,2.95,1.22s2.14-.41,2.95-1.22l8.73-8.73c.79-.79,1.22-1.83,1.22-2.95s-.43-2.16-1.22-2.95l-3.25-3.25c-.79-.79-1.83-1.22-2.95-1.22s-2.16.43-2.95,1.22l-8.73,8.73c-1.63,1.63-1.63,4.27,0,5.9l3.25,3.25ZM33.83,24.2c.52-.52,1.44-.52,1.96,0l3.25,3.25c.26.26.41.61.41.98s-.14.72-.41.98l-8.73,8.73c-.54.54-1.42.54-1.96,0l-3.25-3.25c-.54-.54-.54-1.42,0-1.96l8.73-8.73Z"/><path class="cls-1" d="M39.83,18.15c.36,0,.72-.14.99-.41.55-.55.55-1.43,0-1.98-.55-.55-1.44-.55-1.98,0-.55.55-.55,1.43,0,1.98.27.27.63.41.99.41ZM39.34,16.25c.14-.14.32-.21.5-.21s.36.07.5.21c.28.28.28.72,0,1-.28.27-.72.28-1,0-.28-.28-.28-.72,0-1Z"/><path class="cls-1" d="M43.04,21.35c.36,0,.72-.14.99-.41.26-.27.41-.62.41-.99s-.14-.73-.41-.99c-.55-.55-1.44-.55-1.98,0-.26.26-.41.62-.41.99s.15.73.41.99c.27.27.63.41.99.41ZM42.54,19.45c.14-.14.32-.21.5-.21s.36.07.5.21c.13.13.21.31.21.5s-.07.37-.21.5c-.28.28-.72.28-1,0-.13-.13-.21-.31-.21-.5s.07-.37.21-.5Z"/><path class="cls-1" d="M46.01,24.33c.36,0,.72-.14.99-.41.27-.27.41-.62.41-.99s-.14-.73-.41-.99c-.54-.55-1.43-.55-1.98,0-.26.26-.41.62-.41.99s.15.73.41.99c.27.27.63.41.99.41ZM45.52,22.43c.14-.14.32-.21.5-.21s.36.07.5.21c.13.13.21.31.21.5s-.07.37-.21.5c-.28.28-.72.28-1,0-.13-.13-.21-.31-.21-.5s.07-.37.21-.5Z"/><path class="cls-1" d="M43.11,14.87c.36,0,.72-.14.99-.41.27-.26.41-.62.41-.99s-.14-.73-.41-.99c-.55-.55-1.43-.55-1.98,0-.26.26-.41.62-.41.99s.15.73.41.99c.27.27.63.41.99.41ZM42.61,12.97c.14-.14.32-.21.5-.21s.36.07.5.21c.13.13.21.31.21.5s-.07.36-.21.5c-.27.27-.72.27-1,0-.13-.13-.21-.31-.21-.5s.07-.37.21-.5Z"/><path class="cls-1" d="M45.32,15.68c-.55.55-.55,1.43,0,1.98.27.27.63.41.99.41s.72-.14.99-.41c.55-.55.55-1.43,0-1.98-.55-.55-1.43-.55-1.98,0ZM46.81,17.17c-.28.28-.72.27-1,0-.28-.27-.28-.72,0-1,.14-.14.32-.21.5-.21s.36.07.5.21c.27.27.27.72,0,1Z"/><path class="cls-1" d="M49.29,21.05c.36,0,.72-.14.99-.41.26-.27.41-.62.41-.99s-.15-.73-.41-.99c-.55-.55-1.44-.55-1.98,0-.26.26-.41.62-.41.99s.15.73.41.99c.27.27.63.41.99.41ZM48.79,19.15c.14-.14.32-.21.5-.21s.36.07.5.21c.13.13.21.31.21.5s-.07.36-.21.5c-.27.28-.72.28-1,0-.13-.13-.21-.31-.21-.5s.07-.37.21-.5Z"/><path class="cls-1" d="M46.27,11.71c.36,0,.72-.14.99-.41.26-.26.41-.62.41-.99s-.15-.73-.41-.99c-.55-.55-1.43-.55-1.98,0-.27.26-.41.62-.41.99s.15.73.41.99c.27.27.63.41.99.41ZM45.78,9.81c.14-.14.32-.21.5-.21s.36.07.5.21c.13.13.21.31.21.5s-.07.37-.21.5c-.28.28-.72.28-1,0-.13-.13-.21-.31-.21-.5s.07-.37.21-.5Z"/><path class="cls-1" d="M49.48,14.91c.36,0,.72-.14.99-.41.55-.55.55-1.43,0-1.98-.55-.55-1.44-.55-1.98,0-.55.55-.55,1.43,0,1.98.27.27.63.41.99.41ZM48.98,13.01c.14-.14.32-.21.5-.21s.36.07.5.21c.27.28.27.72,0,1-.28.28-.72.28-1,0-.28-.27-.28-.72,0-1Z"/><path class="cls-1" d="M52.46,17.89c.36,0,.72-.14.99-.41.55-.55.55-1.43,0-1.98-.55-.55-1.43-.55-1.98,0-.55.55-.55,1.43,0,1.98.27.27.63.41.99.41ZM51.96,15.99c.14-.14.32-.21.5-.21s.36.07.5.21c.28.28.28.72,0,1-.28.28-.72.28-1,0-.28-.27-.28-.72,0-1Z"/><path class="cls-1" d="M10.25,44.35c-.55.55-.55,1.43,0,1.98.27.27.62.41.99.41s.73-.14.99-.41c.55-.55.55-1.43,0-1.98-.53-.53-1.45-.53-1.98,0ZM11.74,45.84c-.27.27-.73.27-1,0-.27-.28-.27-.72,0-1,.13-.13.31-.21.5-.21s.37.07.5.21c.28.28.28.72,0,1Z"/><path class="cls-1" d="M13.45,47.55c-.55.55-.55,1.43,0,1.98.27.27.63.41.99.41s.72-.14.99-.41c.55-.55.55-1.43,0-1.98-.55-.55-1.43-.55-1.98,0ZM14.94,49.04c-.28.27-.72.27-1,0-.28-.28-.28-.72,0-1,.14-.14.32-.21.5-.21s.36.07.5.21c.28.27.28.72,0,1Z"/><path class="cls-1" d="M16.43,50.53c-.55.55-.55,1.44,0,1.98.27.27.63.41.99.41s.72-.14.99-.41c.55-.55.55-1.44,0-1.98-.55-.55-1.43-.55-1.98,0ZM17.92,52.02c-.28.27-.72.27-1,0-.28-.28-.28-.72,0-1,.14-.14.32-.21.5-.21s.36.07.5.21c.27.27.27.72,0,1Z"/><path class="cls-1" d="M13.53,41.07c-.55.55-.55,1.43,0,1.98.26.27.62.41.99.41s.73-.15.99-.41c.55-.55.55-1.43,0-1.98-.53-.53-1.45-.53-1.98,0ZM15.02,42.56c-.27.27-.73.27-1,0-.28-.27-.28-.72,0-1,.13-.13.31-.21.5-.21s.37.07.5.21c.27.28.27.72,0,1Z"/><path class="cls-1" d="M16.73,44.28c-.55.55-.55,1.43,0,1.98.27.27.63.41.99.41s.72-.14.99-.41c.55-.55.55-1.44,0-1.98-.55-.54-1.44-.54-1.98,0ZM18.22,45.77c-.27.27-.72.28-1,0-.28-.28-.28-.72,0-1,.14-.14.32-.21.5-.21s.36.07.5.21c.28.28.28.72,0,1Z"/><path class="cls-1" d="M19.71,47.26c-.55.55-.55,1.44,0,1.98.26.26.62.41.99.41s.73-.15.99-.41c.55-.54.55-1.43,0-1.98-.53-.53-1.45-.53-1.98,0ZM21.2,48.75c-.27.27-.73.27-1,0-.28-.28-.28-.72,0-1,.13-.13.31-.21.5-.21s.37.07.5.21c.28.28.28.72,0,1Z"/><path class="cls-1" d="M17.68,40.3c.36,0,.72-.14.99-.41.55-.55.55-1.44,0-1.98-.55-.55-1.43-.55-1.98,0s-.54,1.44,0,1.98c.27.27.63.41.99.41ZM17.18,38.4c.14-.14.32-.21.5-.21s.36.07.5.21c.28.28.28.72,0,1-.27.28-.72.28-1,0-.28-.27-.28-.72,0-1Z"/><path class="cls-1" d="M19.89,41.11c-.55.55-.55,1.44,0,1.98.27.27.63.41.99.41s.72-.14.99-.41c.55-.55.55-1.44,0-1.98-.55-.55-1.43-.55-1.98,0ZM21.38,42.6c-.28.28-.72.28-1,0-.27-.27-.27-.72,0-1,.14-.14.32-.21.5-.21s.36.07.5.21c.28.28.28.73,0,1Z"/><path class="cls-1" d="M22.87,44.09c-.55.55-.55,1.44,0,1.98.26.26.62.41.99.41s.73-.15.99-.41c.55-.55.55-1.44,0-1.98-.53-.53-1.45-.53-1.98,0ZM24.36,45.58c-.27.27-.73.27-1,0-.27-.27-.27-.72,0-1,.13-.13.31-.21.5-.21s.37.07.5.21c.27.28.27.72,0,1Z"/></g></svg>