<?xml version="1.0" encoding="UTF-8"?><svg id="Capa_2" xmlns="http://www.w3.org/2000/svg" viewBox="0 0 102.95 100.86"><defs><style>.cls-1{fill:#fff;stroke-width:0px;}</style></defs><g id="Segunda_pantalla"><path class="cls-1" d="M32.82,11.73v-2.73c-11.45.41-21.02,8.36-23.86,19.03h2.84c2.76-9.14,11.09-15.9,21.02-16.3Z"/><path class="cls-1" d="M101.26,52.67c-2.26-3.07-7.55-10.27-15.71-30.84C74.2-6.76,44.09.57,40.49,1.56c-2.18-.44-4.43-.68-6.74-.68C15.15.89,0,16.02,0,34.64c0,.96.04,1.9.12,2.84h2.75c-.09-.94-.13-1.88-.13-2.84C2.73,17.53,16.65,3.62,33.75,3.62s31.02,13.92,31.02,31.02c0,6.32-1.91,12.21-5.17,17.12l-4.56-4.56c-.53-.53-1.4-.53-1.93,0-.53.53-.53,1.4,0,1.93l4.86,4.86c-5.15,6.44-12.81,10.78-21.49,11.55v-6c0-.75-.61-1.37-1.37-1.37s-1.37.61-1.37,1.37v6.13c-1.79,0-3.55-.16-5.26-.45-5.28-7.45-7.64-14.59-8.67-19.89,3.21,4.18,8.26,6.88,13.93,6.88,9.68,0,17.56-7.88,17.56-17.56,0-3.99-1.34-7.66-3.58-10.61l5.04-4.57-1.83-2.03-5.03,4.55c-3.16-3.04-7.44-4.91-12.16-4.91-9.68,0-17.56,7.88-17.56,17.56,0,.73.05,1.44.14,2.15-.16,3.19-.09,17.16,11.46,32.07,2.54,3.27,4.06,7.12,4.39,11.11.42,4.95.38,12.44-2.18,20.02l2.59.88c2.71-8.03,2.76-15.92,2.32-21.12-.35-4.09-1.79-8.03-4.19-11.48,1,.09,2.01.14,3.03.14,10.7,0,20.25-5.01,26.44-12.81.33-.01.66-.14.91-.4.35-.35.47-.85.35-1.3,3.81-5.46,6.05-12.1,6.05-19.24,0-14.29-8.93-26.52-21.5-31.44,3.11-.47,7.37-.79,11.94-.22,11.99,1.5,20.42,8.18,25.06,19.87,8.29,20.89,13.73,28.29,16.05,31.45.55.75,1.12,1.53,1.16,1.74-.01.15-.02.29-.03.45-.09,1.77-.19,3.6-7.58,3.36l-4.29.03.64,20.09c-.41.99-2.68,5.28-10.35,3.74-9.44-1.89-11.28-2.5-11.34-2.53l-1.85-.67.17,19.93,2.73-.02-.14-16.16c1.62.4,4.58,1.07,9.89,2.13,10.95,2.19,13.54-5.71,13.57-5.79l.07-.22-.57-17.79h1.43c9.26.29,10.19-2.92,10.34-5.96,0-.13.01-.27.02-.39.08-1.15-.55-2-1.68-3.55ZM33.75,19.81c3.91,0,7.48,1.53,10.13,4.01l-4.39,3.97c-1.55-1.31-3.56-2.1-5.74-2.1-4.93,0-8.94,4.01-8.94,8.94s4.01,8.94,8.94,8.94,8.94-4.01,8.94-8.94c0-1.76-.52-3.4-1.4-4.78l4.4-3.99c1.81,2.46,2.88,5.49,2.88,8.77,0,8.18-6.65,14.83-14.83,14.83-7.47,0-13.67-5.56-14.68-12.76,0-.19.02-.3.02-.31h-.06c-.07-.58-.11-1.16-.11-1.76,0-8.17,6.65-14.83,14.83-14.83ZM39.96,34.64c0,3.42-2.78,6.21-6.21,6.21s-6.21-2.78-6.21-6.21,2.78-6.21,6.21-6.21,6.21,2.78,6.21,6.21Z"/></g></svg>