<?xml version="1.0" encoding="UTF-8"?><svg id="Capa_2" xmlns="http://www.w3.org/2000/svg" viewBox="0 0 68.37 86.95"><defs><style>.cls-1{fill:#fff;stroke-width:0px;}</style></defs><g id="Segunda_pantalla"><path class="cls-1" d="M52.31,36.58H10.18c-1.69,0-1.69,2.62,0,2.62h42.14c1.69,0,1.69-2.62,0-2.62Z"/><path class="cls-1" d="M52.31,48.53H10.18c-1.69,0-1.69,2.62,0,2.62h42.14c1.69,0,1.69-2.62,0-2.62Z"/><path class="cls-1" d="M52.31,60.47H10.18c-1.69,0-1.69,2.62,0,2.62h42.14c1.69,0,1.69-2.62,0-2.62Z"/><path class="cls-1" d="M52.31,72.42H10.18c-1.69,0-1.69,2.62,0,2.62h42.14c1.69,0,1.69-2.62,0-2.62Z"/><path class="cls-1" d="M14.62,25.94c0-1.85-1.51-3.36-3.36-3.36s-3.36,1.51-3.36,3.36,1.51,3.36,3.36,3.36,3.36-1.51,3.36-3.36ZM9.29,25.94c0-1.08.88-1.97,1.97-1.97s1.97.88,1.97,1.97-.88,1.97-1.97,1.97-1.97-.88-1.97-1.97Z"/><path class="cls-1" d="M21.25,29.3c1.86,0,3.36-1.51,3.36-3.36s-1.51-3.36-3.36-3.36-3.36,1.51-3.36,3.36,1.51,3.36,3.36,3.36ZM21.25,23.97c1.08,0,1.97.88,1.97,1.97s-.88,1.97-1.97,1.97-1.97-.88-1.97-1.97.88-1.97,1.97-1.97Z"/><path class="cls-1" d="M31.25,29.3c1.85,0,3.36-1.51,3.36-3.36s-1.51-3.36-3.36-3.36-3.36,1.51-3.36,3.36,1.51,3.36,3.36,3.36ZM31.25,23.97c1.08,0,1.97.88,1.97,1.97s-.88,1.97-1.97,1.97-1.97-.88-1.97-1.97.88-1.97,1.97-1.97Z"/><path class="cls-1" d="M41.24,29.3c1.86,0,3.36-1.51,3.36-3.36s-1.51-3.36-3.36-3.36-3.36,1.51-3.36,3.36,1.51,3.36,3.36,3.36ZM41.24,23.97c1.08,0,1.97.88,1.97,1.97s-.88,1.97-1.97,1.97-1.97-.88-1.97-1.97.88-1.97,1.97-1.97Z"/><path class="cls-1" d="M47.87,25.94c0,1.86,1.51,3.36,3.36,3.36s3.36-1.51,3.36-3.36-1.51-3.36-3.36-3.36-3.36,1.51-3.36,3.36ZM51.23,23.97c1.08,0,1.97.88,1.97,1.97s-.88,1.97-1.97,1.97-1.97-.88-1.97-1.97.88-1.97,1.97-1.97Z"/><path class="cls-1" d="M66.39,21.43c-.62.01-1.39,0-2.27-.05v-7.94h-8.78c1.61-1.45,2.53-3.58,2.55-5.46.03-2.64-1.56-4.62-4.25-5.29-1.97-.49-3.72-.21-5.05.81-1.33,1.02-2.22,2.76-2.56,4.92-.01-.02-.02-.04-.03-.06-1.07-1.79-.72-3.63-.16-5.86.32-1.25-.53-2.19-1.49-2.43-.95-.24-2.08.16-2.39,1.39-.76,3.01-1.29,6.89,1.47,10.18.57.68,1.24,1.28,1.98,1.8H0v73.51h64.12V25.41c.56.03,1.12.05,1.69.05.2,0,.4,0,.6,0,1.29-.02,1.97-1.09,1.95-2.08-.02-.98-.71-1.94-1.98-1.94ZM62.02,15.53v5.62c-3.49-.53-7.72-1.97-10.35-5.62h10.35ZM62.02,84.85H2.1V15.53h44.87c2.61,5.31,8.08,8.76,15.06,9.68v59.65ZM66.39,24.05c-8.49.17-15.29-3.26-18.18-9.16-.21-.44-.4-.94-.55-1.5l-.08-.3-.28-.14c-1.08-.54-2.05-1.31-2.81-2.21-2.33-2.78-1.91-6.08-1.19-8.94.08-.33.31-.41.5-.41.08,0,.15.01.2.03.1.03.62.19.48.73-.62,2.45-1.03,4.67.31,6.92.33.56.77,1.09,1.31,1.59l1.14,1.05.03-1.55c.05-2.51.84-4.53,2.16-5.55.99-.76,2.29-.95,3.86-.57,2.81.7,3.21,2.75,3.19,3.92-.02,2.31-1.69,5.06-4.44,5.69-.57.13-1.19.17-1.82.13l-1.25-.09.59,1.11c3.95,7.47,13.1,8.1,16.85,8.03h.02c.47,0,.53.4.54.57,0,.11-.02.64-.58.65Z"/><path class="cls-1" d="M53.35,11.81c2.32-1.53,2.15-3.22,1.97-3.88-.38-1.35-1.76-2.38-3.29-2.44-1.58-.07-2.9.91-3.53,2.61-.4,1.07-.43,2.31-.11,3.69l.09.38.37.12c.62.2,1.24.3,1.84.3.96,0,1.87-.26,2.66-.78ZM49.67,11.07c-.17-.95-.12-1.77.14-2.49.42-1.13,1.18-1.74,2.16-1.69.91.04,1.79.66,2,1.42.21.78-.28,1.61-1.39,2.34-1,.66-2.08.62-2.91.42Z"/></g></svg>