<?xml version="1.0" encoding="UTF-8"?><svg id="Capa_2" xmlns="http://www.w3.org/2000/svg" viewBox="0 0 86.44 86.64"><defs><style>.cls-1{fill:#fff;stroke-width:0px;}</style></defs><g id="Segunda_pantalla"><path class="cls-1" d="M86.13,57.16c-.3-.42-.79-.67-1.31-.67-4.43,0-7.43-2.22-10.9-4.8-.75-.56-1.51-1.12-2.28-1.66-3.17-2.21-7.18-4.47-12.92-4.47-2.42,0-4.39.02-5.98.07h-12.22c-2.68,0-4.86,2.18-4.86,4.86s2.18,4.86,4.86,4.86h11.33c1.52.3,2.61,1.62,2.61,3.18,0,1.11-.58,2.14-1.53,2.74-.62.16-2.2.59-4.21,1.12-1.44.35-2.91.74-4.31,1.14l-.3.08c-7.86,2.08-10.5,2.76-11.26,2.95-.36.01-.66,0-.92-.04l-17.78-11.53-3.24-2.34c-.06-.04-.13-.08-.19-.12-.16-.1-.33-.19-.51-.28-.35-.18-.68-.32-1.04-.42-.25-.08-.53-.14-.85-.19-.8-.12-1.45-.1-2.13.03-3.52.35-6.16,3.25-6.16,6.78,0,1.8.71,3.5,1.99,4.79.03.03.06.06.09.09.47.46.99.84,1.54,1.13l29.49,21.38c.14.1.29.18.45.23l.24.09s.05.02.08.03c.89.3,1.72.45,2.55.45.5,0,1.02-.05,1.53-.15.04,0,.07-.01.1-.02l.13-.03c18.69-4.76,32.07-8.13,38.71-9.77.06-.02.12-.03.18-.06l.58-.22c3.22-.8,5.69-1.23,7.14-1.23.89,0,1.62-.72,1.62-1.62v-1.08c.02-.1.03-.2.02-.3l-.02-13.76c.08-.43-.03-.88-.29-1.23ZM83.18,72.01c-1.65.18-3.79.6-6.41,1.25-.06.01-.14.04-.2.06l-.56.21c-6.67,1.64-20.03,5.02-38.65,9.76l-.09.02c-.77.14-1.48.1-2.33-.18L5.43,61.76c-.07-.05-.14-.09-.21-.13-.3-.16-.59-.37-.86-.62-.01-.02-.03-.03-.05-.05-.69-.68-1.07-1.57-1.07-2.52,0-1.87,1.42-3.4,3.29-3.56.06,0,.13-.01.19-.03.33-.07.64-.09,1.06-.02.15.02.3.05.42.09.16.05.32.12.52.22.1.05.21.11.31.17.02.01.04.03.07.04l3.16,2.29s.05.03.07.05l18.07,11.72c.15.1.32.17.49.21.64.16,1.38.22,2.25.17.1,0,.19-.02.28-.04.82-.19,4.69-1.2,11.48-3l.34-.09c1.4-.41,2.82-.78,4.25-1.13,2.35-.62,4.1-1.09,4.47-1.19.13-.03.25-.08.36-.15,2.07-1.14,3.36-3.31,3.36-5.66,0-3.19-2.29-5.89-5.44-6.4-.09-.01-.17-.02-.26-.02h-11.48c-.89,0-1.61-.73-1.61-1.62s.72-1.62,1.61-1.62h12.27c1.6-.05,3.55-.07,5.93-.07,4.83,0,8.17,1.87,11.07,3.89.75.53,1.48,1.07,2.21,1.61,3.23,2.4,6.56,4.87,11.19,5.35v10.69l.02,1.58s0,.06-.01.09Z"/><path class="cls-1" d="M55.71,1.67v-.08c-.02-.85-.69-1.53-1.54-1.57h-.08s-.06,0-.09,0c-11.32,0-21.25,6.91-25.39,17.05-.74-4.46-2.83-8.71-6.21-12.1-.12-.11-.24-.22-.36-.33-.05-.04-.1-.09-.15-.14-.6-.56-1.56-.56-2.19-.03-.04.03-.07.06-.1.09-8.34,8.34-8.72,21.79-.86,30.6l.06.07-9.85,9.85,1.69,1.69,9.86-9.86.07.06c4.24,3.78,9.55,5.66,14.85,5.66,5.72,0,11.42-2.18,15.74-6.51.01-.01.07-.07.08-.08.57-.6.55-1.6,0-2.23-.03-.03-.05-.06-.08-.08-3.64-3.65-8.29-5.78-13.11-6.36,10.39-3.92,17.66-13.89,17.65-25.69ZM47.68,34.91c-7.16,6.05-17.83,5.99-24.96-.37-.08-.07-.16-.13-.24-.2-.05-.04-.1-.08-.14-.12-.08-.08-.17-.15-.25-.23-.06-.06-.13-.11-.24-.22-.16-.16-.3-.33-.44-.49l-.25-.29c-6.36-7.14-6.41-17.83-.33-25,5.85,6.52,6.52,16.25,1.5,23.54-.44.64-.36,1.51.19,2.07.55.55,1.42.63,2.07.19,7.14-4.92,16.62-4.38,23.11,1.12ZM29.85,25.84c.06-.9.18-1.82.36-2.78h0c2.01-10.96,11.22-19.05,22.21-19.77-.77,12.13-10.35,21.77-22.57,22.55Z"/></g></svg>