<?xml version="1.0" encoding="UTF-8"?><svg id="Capa_2" xmlns="http://www.w3.org/2000/svg" viewBox="0 0 83.14 80.31"><defs><style>.cls-1{fill:#fff;stroke-width:0px;}</style></defs><g id="Segunda_pantalla"><path class="cls-1" d="M73.23,13.17h-15.31v9.69h15.31v-9.69ZM68.98,14.46l-3.41,2.72-3.41-2.72h6.82ZM71.94,21.56h-12.72v-7.1h.88l5.48,4.38,5.48-4.38h.88v7.1Z"/><path class="cls-1" d="M36.91,67.6c.24,2.44,1.34,4.74,3.08,6.47.21.21.5.32.79.32.11,0,.23-.02.34-.05.4-.12.69-.46.76-.87.29-1.63,1.7-2.82,3.35-2.82h5.58c1.41,0,2.65.85,3.17,2.18.15.37.48.64.87.7.39.06.79-.1,1.04-.41,1.74-2.18,2.54-4.92,2.26-7.71-.5-5.03-4.51-9.04-9.53-9.53-.38-.04-.75-.06-1.09-.06-3.01,0-5.89,1.28-7.92,3.51-2.05,2.26-3.01,5.19-2.71,8.26ZM47.53,69.04c-2.23,0-4.04-1.81-4.04-4.04s1.81-4.04,4.04-4.04,4.04,1.81,4.04,4.04-1.81,4.04-4.04,4.04ZM41.28,60.84c1.6-1.76,3.88-2.78,6.26-2.78.27,0,.57.02.87.05,3.97.39,7.13,3.56,7.53,7.53.16,1.65-.15,3.27-.89,4.71-.88-1.02-2.11-1.68-3.47-1.86.81-.94,1.3-2.15,1.3-3.48,0-2.94-2.39-5.34-5.34-5.34s-5.34,2.39-5.34,5.34c0,1.41.56,2.7,1.46,3.65-1.34.39-2.49,1.26-3.21,2.44-.72-1.11-1.17-2.39-1.3-3.71-.24-2.43.52-4.75,2.14-6.54Z"/><path class="cls-1" d="M9.05,46.35c.32.32.8.41,1.22.24s.69-.58.69-1.03v-.98c0-3.45,2.58-6.34,6.01-6.73.01,0,.03,0,.04,0,.26-.03.5-.04.73-.04h9.72c3.73,0,6.77,3.04,6.77,6.77v.98c0,.45.27.86.69,1.03.14.06.29.09.43.09.29,0,.57-.11.79-.32,3.7-3.66,5.74-8.52,5.74-13.7,0-10.63-8.65-19.27-19.27-19.27S3.31,22.02,3.31,32.65c0,5.18,2.04,10.04,5.74,13.7ZM23.61,35.57h-2.06c-3.61-.5-6.39-3.6-6.39-7.34,0-4.1,3.33-7.43,7.42-7.43s7.43,3.33,7.43,7.43c0,3.74-2.79,6.84-6.4,7.34ZM22.58,15.61c9.4,0,17.04,7.64,17.04,17.04,0,3.7-1.17,7.21-3.35,10.13-.78-3.83-4-6.79-7.96-7.17,2.21-1.71,3.64-4.38,3.64-7.39,0-5.16-4.2-9.37-9.37-9.37s-9.36,4.2-9.36,9.37c0,3.01,1.43,5.68,3.64,7.39-.03,0-.06,0-.09,0-.05,0-.09,0-.13.02-3.91.47-6.99,3.41-7.74,7.15-2.17-2.92-3.35-6.44-3.35-10.13,0-9.39,7.64-17.04,17.04-17.04Z"/><path class="cls-1" d="M65.58,32.01c7.96,0,14.44-6.48,14.44-14.44s-6.48-14.44-14.44-14.44-14.44,6.48-14.44,14.44,6.48,14.44,14.44,14.44ZM65.58,5.36c6.73,0,12.21,5.48,12.21,12.21s-5.48,12.21-12.21,12.21-12.21-5.48-12.21-12.21,5.48-12.21,12.21-12.21Z"/><path class="cls-1" d="M0,32.65c0,12.45,10.13,22.59,22.58,22.59,3.35,0,6.69-.76,9.71-2.21l4.41,4.91c-2.24,2.82-3.27,6.32-2.91,9.97.65,6.51,5.83,11.69,12.33,12.33.46.05.93.07,1.4.07,3.89,0,7.62-1.65,10.23-4.54,2.65-2.93,3.89-6.71,3.5-10.66-.65-6.5-5.83-11.69-12.34-12.34-2.8-.28-5.65.32-8.12,1.7l-3.94-4.38c5.21-4.28,8.29-10.71,8.29-17.44,0-1.77-.22-3.56-.65-5.31l5.35-1.89c2.98,5.92,9.03,9.7,15.7,9.7,9.69,0,17.57-7.88,17.57-17.57S75.26,0,65.58,0s-17.57,7.88-17.57,17.57c0,.91.08,1.84.23,2.77l-5.6,1.98c-3.87-7.47-11.63-12.25-20.05-12.25C10.13,10.07,0,20.2,0,32.65ZM22.58,12.3c7.89,0,15.14,4.66,18.47,11.87.24.52.84.78,1.39.58l7.44-2.63c.53-.19.84-.74.72-1.29-.24-1.09-.36-2.19-.36-3.27,0-8.46,6.88-15.34,15.33-15.34s15.33,6.88,15.33,15.34-6.88,15.34-15.33,15.34c-6.13,0-11.66-3.65-14.09-9.29-.23-.54-.85-.81-1.4-.61l-7.29,2.58c-.56.2-.87.8-.7,1.37.55,1.88.83,3.8.83,5.71,0,6.43-3.12,12.56-8.35,16.4-.25.19-.42.47-.45.79s.07.63.28.86l5.35,5.95c.37.41.98.49,1.44.19,2.23-1.45,4.89-2.1,7.51-1.85,5.45.54,9.79,4.89,10.33,10.33.33,3.32-.72,6.49-2.94,8.94-2.19,2.42-5.31,3.8-8.58,3.8-.4,0-.8-.02-1.18-.06-5.45-.54-9.79-4.88-10.33-10.33-.33-3.32.72-6.49,2.89-8.9.03-.03.1-.1.13-.13.37-.43.37-1.06-.01-1.48l-5.64-6.28c-.22-.24-.52-.37-.83-.37-.18,0-.36.04-.52.13-2.95,1.56-6.13,2.35-9.45,2.35-11.22,0-20.35-9.13-20.35-20.35S11.36,12.3,22.58,12.3Z"/></g></svg>