<?xml version="1.0" encoding="UTF-8"?><svg id="Capa_2" xmlns="http://www.w3.org/2000/svg" viewBox="0 0 83.53 75.35"><defs><style>.cls-1{fill:#fff;stroke-width:0px;}</style></defs><g id="Segunda_pantalla"><path class="cls-1" d="M62.27,13.33v-3.79c0-5.26-4.92-9.54-10.97-9.54h-19.07c-6.05,0-10.97,4.28-10.97,9.54v3.79h-11.84C4.23,13.33,0,17.56,0,22.76v43.16c0,5.2,4.23,9.42,9.42,9.42h64.68c5.2,0,9.42-4.23,9.42-9.42V22.76c0-5.2-4.23-9.43-9.42-9.43h-11.83ZM79.65,65.92c0,3.06-2.49,5.54-5.55,5.54H9.42c-3.06,0-5.55-2.49-5.55-5.54V22.76c0-3.06,2.49-5.55,5.55-5.55h64.68c3.06,0,5.55,2.49,5.55,5.55v43.16ZM32.23,3.88h19.07c3.91,0,7.09,2.54,7.09,5.66v3.79h-5.67v-1.64c0-3.1-2.84-5.63-6.32-5.63h-9.27c-3.49,0-6.32,2.52-6.32,5.63v1.64h-5.67v-3.79c0-3.12,3.18-5.66,7.09-5.66ZM48.85,13.33h-14.16v-1.64c0-.95,1.12-1.75,2.45-1.75h9.27c1.32,0,2.45.8,2.45,1.75v1.64Z"/><path class="cls-1" d="M57.22,38.24h-8.57v-8.57c0-.64-.52-1.16-1.16-1.16h-9.88c-.64,0-1.16.52-1.16,1.16v8.57h-8.57c-.64,0-1.16.52-1.16,1.16v9.88c0,.64.52,1.16,1.16,1.16h8.57v8.57c0,.64.52,1.16,1.16,1.16h9.88c.64,0,1.16-.52,1.16-1.16v-8.57h8.57c.64,0,1.16-.52,1.16-1.16v-9.88c0-.64-.52-1.16-1.16-1.16ZM56.05,48.12h-8.57c-.64,0-1.16.52-1.16,1.16v8.57h-7.55v-8.57c0-.64-.52-1.16-1.16-1.16h-8.57v-7.55h8.57c.64,0,1.16-.52,1.16-1.16v-8.57h7.55v8.57c0,.64.52,1.16,1.16,1.16h8.57v7.55Z"/></g></svg>