<?xml version="1.0" encoding="UTF-8"?><svg id="Capa_2" xmlns="http://www.w3.org/2000/svg" viewBox="0 0 144.97 115.18"><defs><style>.cls-1{font-family:Poppins-SemiBold, Poppins;font-size:28.61px;font-weight:600;}.cls-1,.cls-2{fill:#fff;}.cls-2{stroke-width:0px;}</style></defs><g id="Segunda_pantalla"><path class="cls-2" d="M92.57,34.55c-3.52-3.02-8.77-4.31-15.58-3.84,4.44-3.03,7.36-8.13,7.36-13.9,0-9.27-7.54-16.81-16.81-16.81s-16.81,7.54-16.81,16.81c0,5.48,2.64,10.36,6.71,13.43-4.92-.49-15.29-.12-18.44,10.8-.03.12-.05.23-.05.35v19.09c0,.7.57,1.28,1.28,1.28h55.24c.7,0,1.28-.57,1.28-1.28v-18.19s0-.05,0-.07c0-.18-.29-4.36-4.16-7.68ZM53.12,16.81c0-7.95,6.46-14.41,14.41-14.41s14.41,6.47,14.41,14.41-6.43,14.37-14.34,14.41h-.14c-7.92-.04-14.34-6.49-14.34-14.41ZM67.28,36.34h1.23l1.82,3.77-2.49,4.85-1.86-3.66,1.3-4.96ZM65.77,33.78c0-.47.39-.86.86-.86h2.42c.47,0,.86.38.86.86s-.38.86-.86.86h-2.42c-.47,0-.86-.38-.86-.86ZM70.25,36.03c.8-.43,1.36-1.27,1.36-2.25,0-.22-.04-.43-.09-.64,1.01-.25,1.99-.59,2.92-1.01l-3.13,6.08-1.06-2.19ZM65.58,36.12l-.76,2.9-3.31-6.51c.84.32,1.71.58,2.6.77-.03.16-.05.33-.05.51,0,1.04.62,1.93,1.52,2.33ZM94.18,59.22h-52.69v-17.63c3.2-10.66,14.7-9.1,17.41-8.57l7.8,15.33c.22.43.66.7,1.13.7h0c.48,0,.92-.27,1.14-.69l7.75-15.06c6.31-.51,11.07.56,14.14,3.16,2.95,2.5,3.29,5.57,3.32,5.9v16.86Z"/><text class="cls-1" transform="translate(0 98.21)"><tspan x="0" y="0">Individual</tspan></text></g></svg>