<svg xmlns="http://www.w3.org/2000/svg" viewBox="0 0 340.4 87.66"><defs><style>.cls-1,.cls-2,.cls-5{fill:#fff;}.cls-2{font-size:22.28px;}.cls-2,.cls-5{font-family:Helvetica-Bold, Helvetica;font-weight:700;}.cls-3{letter-spacing:-0.02em;}.cls-4{letter-spacing:-0.04em;}.cls-5{font-size:11.45px;}.cls-6{letter-spacing:-0.04em;}</style></defs><title>Recurso 1</title><g id="Capa_2" data-name="Capa 2"><g id="Capa_1-2" data-name="Capa 1"><path class="cls-1" d="M7.71,70.31c0,2.11-1.25,3.13-3.33,3.13s-3.33-1-3.33-3.13V65.45H2.77v4.86C2.77,71.16,3,72,4.38,72,5.6,72,6,71.47,6,70.31V65.45H7.71Z"/><path class="cls-1" d="M9,67.61H10.5v.78h0a2,2,0,0,1,1.74-.94c1.65,0,2.06.93,2.06,2.33v3.48H12.78v-3.2c0-.93-.27-1.38-1-1.38s-1.2.46-1.2,1.62v3H9Z"/><path class="cls-1" d="M17.11,66.73H15.56V65.45h1.55Zm-1.55.88h1.55v5.65H15.56Z"/><polygon class="cls-1" points="21.46 73.26 19.74 73.26 17.8 67.61 19.43 67.61 20.62 71.47 20.64 71.47 21.84 67.61 23.38 67.61 21.46 73.26"/><path class="cls-1" d="M25.31,70.81c0,1,.52,1.44,1.39,1.44a1.28,1.28,0,0,0,1.22-.74h1.37a2.56,2.56,0,0,1-2.65,1.91,2.77,2.77,0,0,1-2.89-3,2.84,2.84,0,0,1,2.89-3c1.93,0,2.86,1.62,2.75,3.36Zm2.52-1c-.14-.78-.48-1.2-1.23-1.2a1.21,1.21,0,0,0-1.29,1.2Z"/><path class="cls-1" d="M30.3,67.61h1.48v1h0a2,2,0,0,1,1.8-1.2,1,1,0,0,1,.34.06V69a3,3,0,0,0-.56-.06c-1.14,0-1.53.83-1.53,1.82v2.55H30.3Z"/><path class="cls-1" d="M35.77,71.42c0,.68.58,1,1.19,1,.45,0,1-.18,1-.73s-.65-.63-1.76-.87c-.9-.2-1.8-.52-1.8-1.51,0-1.45,1.25-1.82,2.46-1.82s2.38.42,2.5,1.81H37.9c0-.61-.5-.77-1.06-.77-.35,0-.87.06-.87.53s.88.63,1.77.84,1.79.53,1.79,1.59c0,1.49-1.29,2-2.59,2s-2.58-.48-2.65-2Z"/><path class="cls-1" d="M42,66.73H40.48V65.45H42Zm-1.56.88H42v5.65H40.48Z"/><path class="cls-1" d="M47.3,72.54h0a1.86,1.86,0,0,1-1.71.87c-1.71,0-2.54-1.47-2.54-3s.84-2.93,2.5-2.93a2,2,0,0,1,1.68.84h0V65.45h1.55v7.81H47.3Zm-1.36-3.92c-1,0-1.36.87-1.36,1.8s.4,1.83,1.36,1.83,1.33-.9,1.33-1.83-.32-1.8-1.33-1.8"/><path class="cls-1" d="M49.88,69.34c.09-1.45,1.39-1.89,2.66-1.89S55,67.7,55,69.06V72a3,3,0,0,0,.2,1.26H53.65a2.44,2.44,0,0,1-.12-.55,2.61,2.61,0,0,1-1.9.71c-1.07,0-1.92-.54-1.92-1.7s1-1.59,1.92-1.72,1.84-.11,1.84-.74-.46-.77-1-.77-1,.24-1,.85Zm3.59,1.15a3,3,0,0,1-1.29.33c-.48.1-.92.26-.92.83s.45.73,1,.73a1.16,1.16,0,0,0,1.26-1.31Z"/><path class="cls-1" d="M60.26,72.54h0a1.88,1.88,0,0,1-1.72.87c-1.71,0-2.53-1.47-2.53-3s.84-2.93,2.51-2.93a2,2,0,0,1,1.67.84h0V65.45h1.56v7.81H60.26Zm-1.35-3.92c-1,0-1.37.87-1.37,1.8s.41,1.83,1.37,1.83,1.33-.9,1.33-1.83-.33-1.8-1.33-1.8"/><path class="cls-1" d="M14.36,83h0a1.88,1.88,0,0,1-1.72.87c-1.71,0-2.53-1.47-2.53-3s.84-2.93,2.5-2.93a2,2,0,0,1,1.67.84h0V75.92h1.55v7.81H14.36ZM13,79.09c-1,0-1.36.87-1.36,1.8S12,82.71,13,82.71s1.34-.9,1.34-1.83S14,79.09,13,79.09"/><path class="cls-1" d="M18.29,81.28c0,1,.52,1.43,1.39,1.43A1.27,1.27,0,0,0,20.9,82h1.37a2.55,2.55,0,0,1-2.65,1.9,2.77,2.77,0,0,1-2.89-3,2.85,2.85,0,0,1,2.89-3c1.93,0,2.86,1.62,2.75,3.37Zm2.53-1c-.15-.79-.49-1.2-1.24-1.2a1.22,1.22,0,0,0-1.29,1.2Z"/><rect class="cls-1" x="23.33" y="75.92" width="1.55" height="7.81"/><polygon class="cls-1" points="32.95 83.73 31.02 83.73 28.48 75.92 30.25 75.92 31.99 81.41 32.01 81.41 33.77 75.92 35.54 75.92 32.95 83.73"/><path class="cls-1" d="M35.38,79.81c.09-1.45,1.39-1.9,2.66-1.9s2.48.26,2.48,1.62v2.94a3,3,0,0,0,.2,1.26H39.14a2.65,2.65,0,0,1-.1-.55,2.61,2.61,0,0,1-1.9.7c-1.08,0-1.93-.54-1.93-1.7s1-1.58,1.93-1.71S39,80.36,39,79.72,38.51,79,38,79s-1,.24-1,.85ZM39,81a3.16,3.16,0,0,1-1.29.33c-.48.09-.92.25-.92.83s.44.72,1,.72A1.15,1.15,0,0,0,39,81.54Z"/><rect class="cls-1" x="41.77" y="75.92" width="1.55" height="7.81"/><rect class="cls-1" x="44.6" y="75.92" width="1.55" height="7.81"/><path class="cls-1" d="M48.66,81.28c0,1,.52,1.43,1.39,1.43A1.27,1.27,0,0,0,51.27,82h1.37A2.55,2.55,0,0,1,50,83.88a2.77,2.77,0,0,1-2.89-3,2.84,2.84,0,0,1,2.89-3c1.93,0,2.86,1.62,2.74,3.37Zm2.52-1c-.14-.79-.48-1.2-1.23-1.2a1.21,1.21,0,0,0-1.29,1.2Z"/><rect class="cls-1" y="86.35" width="61.74" height="1.3"/><path class="cls-1" d="M0,62.8H62.79V0H0Zm20.93-22A19.9,19.9,0,0,1,1.05,20.94V1.05H40.82V20.94H20.93l8.89,17.77a19.64,19.64,0,0,1-8.89,2.11M41.87,60.46,22.63,22H61.1Z"/><text class="cls-2" transform="translate(81.44 28.32)"><tspan class="cls-3">V</tspan><tspan x="14.49" y="0">icerrectoría</tspan><tspan class="cls-4" x="135.89" y="0"> </tspan><tspan x="141.28" y="0">Académica</tspan></text><text class="cls-5" transform="translate(81.87 45.56)">Estrategia de<tspan class="cls-6" x="71.88" y="0"> </tspan><tspan x="74.65" y="0">Acompañamiento y</tspan></text><text class="cls-5" transform="translate(81.87 59.29)">Seguimiento Estudiantil</text></g></g></svg>