<?xml version="1.0" encoding="UTF-8"?><svg xmlns="http://www.w3.org/2000/svg" xmlns:xlink="http://www.w3.org/1999/xlink" viewBox="0 0 320 71"><defs><style>.cls-1{fill:#6d6e71;}.cls-1,.cls-2,.cls-3,.cls-4,.cls-5,.cls-6,.cls-7,.cls-8,.cls-9{stroke-width:0px;}.cls-10{fill:#542e09;font-family:Poppins-SemiBold, Poppins;font-size:35px;font-weight:600;}.cls-11{isolation:isolate;}.cls-2{fill:#f7d19a;}.cls-3{fill:#212121;mix-blend-mode:multiply;opacity:.25;}.cls-4{fill:#414042;}.cls-5{fill:#d8a568;}.cls-6{fill:none;}.cls-12{filter:url(#drop-shadow-1);}.cls-7{fill:#f2c38c;}.cls-8{fill:#e8bb7e;}.cls-13{clip-path:url(#clippath);}.cls-9{fill:#353535;}</style><filter id="drop-shadow-1" filterUnits="userSpaceOnUse"><feOffset dx="7" dy="7"/><feGaussianBlur result="blur" stdDeviation="5"/><feFlood flood-color="#3f3f3f" flood-opacity=".75"/><feComposite in2="blur" operator="in"/><feComposite in="SourceGraphic"/></filter><clipPath id="clippath"><polygon class="cls-6" points="320 69.72 0 69.72 3.15 0 320 4.56 320 69.72"/></clipPath></defs><g class="cls-11"><g id="Capa_2"><g id="Capa_2-2"><g class="cls-12"><polygon class="cls-8" points="320 67.43 0 69.72 3.15 0 320 4.56 320 67.43"/><polygon class="cls-7" points="319.79 41.95 .81 39.03 3.15 0 320 4.56 319.79 41.95"/><polygon class="cls-2" points="3.15 0 3.15 1.35 320 4.56 320 3.49 3.15 0"/><g class="cls-13"><polygon class="cls-5" points="322.12 3.78 312.9 7.2 296.03 7.46 276.42 5.57 264.43 5.75 247.05 3.83 219.58 6.43 167.95 5.03 153.81 5.25 139.92 7.65 116.79 5.81 101.46 8.24 98.77 7.34 88.89 4.05 77.35 4.23 68.09 6.56 50.33 6.83 39.16 4.81 27.17 4.99 1.99 9.75 29.93 8.23 43.3 9.43 70 10.9 82.29 6.03 109.66 10.3 116.82 6.91 133 9.94 149.6 9.69 156.06 7.72 167.98 6.13 180.44 9.22 192.46 9.03 212.24 8.73 224.98 8.54 237.41 8.35 247.57 6.32 257.39 8.04 264.5 7.94 272.05 7.82 284.48 7.63 295.65 9.65 308.97 9.44 316.08 9.34 322.12 3.78"/><polygon class="cls-5" points="-7.05 21.38 7.11 17.97 32.86 17.74 62.71 19.66 81.01 19.5 107.47 21.45 149.44 18.89 228.17 20.38 249.74 20.18 271.01 17.81 306.23 19.68 329.68 17.29 333.77 18.19 348.74 21.49 366.35 21.33 380.54 19.02 407.65 18.78 424.63 20.81 442.92 20.65 481.47 15.93 438.8 17.41 418.44 16.18 377.75 14.67 358.87 19.52 317.23 15.21 306.22 18.59 281.62 15.53 256.3 15.75 246.38 17.72 228.15 19.28 209.24 16.17 190.89 16.34 160.71 16.61 141.27 16.78 122.3 16.95 106.75 18.96 91.81 17.22 80.97 17.32 69.45 17.42 50.48 17.59 33.5 15.55 13.17 15.73 2.33 15.83 -7.05 21.38"/><polygon class="cls-5" points="-135.24 25.08 -121.07 28.47 -95.32 28.66 -65.47 26.7 -47.18 26.83 -20.72 24.84 21.26 27.34 99.99 25.74 121.56 25.9 142.83 28.24 178.05 26.32 201.51 28.68 205.59 27.77 220.55 24.45 238.17 24.58 252.36 26.87 279.47 27.07 296.44 25.01 314.74 25.15 353.29 29.8 310.62 28.39 290.27 29.65 249.59 31.22 230.68 26.4 189.06 30.77 178.03 27.41 153.45 30.51 128.13 30.32 118.2 28.37 99.97 26.83 81.06 29.97 62.72 29.83 32.53 29.61 13.1 29.46 -5.87 29.32 -21.43 27.33 -36.37 29.1 -47.21 29.02 -58.73 28.93 -77.7 28.79 -94.67 30.85 -115 30.7 -125.84 30.62 -135.24 25.08"/><polygon class="cls-5" points="322.12 65.95 312.9 62.53 296.03 62.27 276.42 64.16 264.43 63.97 247.05 65.9 219.58 63.29 167.95 64.69 153.81 64.47 139.92 62.08 116.79 63.91 101.46 61.49 98.77 62.39 88.89 65.67 77.35 65.49 68.09 63.17 50.33 62.9 39.16 64.91 27.17 64.73 1.99 59.97 29.93 61.49 43.3 60.29 70 58.82 82.29 63.7 109.66 59.43 116.82 62.82 133 59.78 149.6 60.04 156.06 62.01 167.98 63.6 180.44 60.51 192.46 60.69 212.24 60.99 224.98 61.19 237.41 61.38 247.57 63.4 257.39 61.68 264.5 61.79 272.05 61.9 284.48 62.09 295.65 60.08 308.97 60.28 316.08 60.39 322.12 65.95"/><polygon class="cls-5" points="-7.05 48.35 7.11 51.75 32.86 51.98 62.71 50.06 81.01 50.22 107.47 48.27 149.44 50.83 228.17 49.35 249.74 49.54 271.01 51.92 306.23 50.04 329.68 52.44 333.77 51.54 348.74 48.24 366.35 48.39 380.54 50.71 407.65 50.95 424.63 48.91 442.92 49.08 481.47 53.79 438.8 52.32 418.44 53.54 377.75 55.05 358.87 50.2 317.23 54.51 306.22 51.14 281.62 54.2 256.3 53.97 246.38 52.01 228.15 50.44 209.24 53.55 190.89 53.39 160.71 53.12 141.27 52.95 122.3 52.78 106.75 50.76 91.81 52.51 80.97 52.41 69.45 52.31 50.48 52.14 33.5 54.17 13.17 53.99 2.33 53.89 -7.05 48.35"/><polygon class="cls-5" points="-19.42 44.64 -5.26 41.26 20.49 41.07 50.34 43.03 68.64 42.89 95.1 44.88 137.07 42.39 215.8 43.99 237.37 43.83 258.64 41.48 293.86 43.41 317.32 41.05 321.4 41.95 336.36 45.28 353.98 45.15 368.17 42.86 395.28 42.66 412.25 44.71 430.55 44.58 469.11 39.92 426.43 41.33 406.08 40.08 365.4 38.5 346.49 43.33 304.87 38.95 293.85 42.32 269.26 39.22 243.94 39.41 234.01 41.35 215.78 42.89 196.87 39.76 178.53 39.89 148.35 40.12 128.91 40.26 109.94 40.4 94.38 42.39 79.45 40.63 68.6 40.71 57.08 40.79 38.11 40.93 21.14 38.87 .81 39.03 -10.03 39.11 -19.42 44.64"/></g><polygon class="cls-5" points="0 69.72 320 67.43 320 68.58 0 71 0 69.72"/><path class="cls-3" d="M16.66,8.88c0,2.38-1.93,4.97-4.31,4.97s-4.31-2.58-4.31-4.97,1.93-4.32,4.31-4.32,4.31,1.93,4.31,4.32Z"/><path class="cls-4" d="M16.66,8.88c0,2.38-1.93,4.32-4.31,4.32s-4.31-1.93-4.31-4.32,1.93-4.32,4.31-4.32,4.31,1.93,4.31,4.32Z"/><path class="cls-9" d="M12.42,10.93c-1.61,0-2.66-.9-3.14-2.05h-.06c0,1.73,1.4,3.56,3.12,3.56s3.1-1.79,3.12-3.51c-.45,1.13-1.46,2-3.05,2Z"/><path class="cls-4" d="M15.47,8.88c0,1.73-1.4,3.13-3.12,3.13s-3.12-1.4-3.12-3.13,1.4-3.13,3.12-3.13,3.12,1.4,3.12,3.13Z"/><path class="cls-1" d="M14.57,6.68c.28.42.44.92.44,1.46,0,1.47-1.19,2.67-2.66,2.67s-2.66-1.19-2.66-2.67c0-.54.16-1.04.44-1.46-.56.57-.9,1.34-.9,2.2,0,1.73,1.4,3.13,3.12,3.13s3.12-1.4,3.12-3.13c0-.86-.34-1.63-.9-2.2Z"/><path class="cls-3" d="M314.03,12.88c0,2.38-1.93,4.97-4.31,4.97s-4.31-2.58-4.31-4.97,1.93-4.32,4.31-4.32,4.31,1.93,4.31,4.32Z"/><path class="cls-4" d="M314.03,12.88c0,2.38-1.93,4.32-4.31,4.32s-4.31-1.93-4.31-4.32,1.93-4.32,4.31-4.32,4.31,1.93,4.31,4.32Z"/><path class="cls-9" d="M309.8,14.92c-1.61,0-2.66-.9-3.14-2.05h-.06c0,1.73,1.4,3.56,3.12,3.56s3.1-1.79,3.12-3.51c-.45,1.13-1.46,2-3.05,2Z"/><path class="cls-4" d="M312.85,12.88c0,1.73-1.4,3.13-3.12,3.13s-3.12-1.4-3.12-3.13,1.4-3.13,3.12-3.13,3.12,1.4,3.12,3.13Z"/><path class="cls-1" d="M311.95,10.68c.28.42.44.92.44,1.46,0,1.47-1.19,2.67-2.66,2.67s-2.66-1.19-2.66-2.67c0-.54.16-1.04.44-1.46-.56.57-.9,1.34-.9,2.2,0,1.73,1.4,3.13,3.12,3.13s3.12-1.4,3.12-3.13c0-.86-.34-1.63-.9-2.2Z"/><path class="cls-3" d="M314.03,59.65c0,2.38-1.93,4.97-4.31,4.97s-4.31-2.58-4.31-4.97,1.93-4.32,4.31-4.32,4.31,1.93,4.31,4.32Z"/><path class="cls-4" d="M314.03,59.65c0,2.38-1.93,4.32-4.31,4.32s-4.31-1.93-4.31-4.32,1.93-4.32,4.31-4.32,4.31,1.93,4.31,4.32Z"/><path class="cls-9" d="M309.8,61.7c-1.61,0-2.66-.9-3.14-2.05h-.06c0,1.73,1.4,3.56,3.12,3.56s3.1-1.79,3.12-3.51c-.45,1.13-1.46,2-3.05,2Z"/><path class="cls-4" d="M312.85,59.65c0,1.73-1.4,3.13-3.12,3.13s-3.12-1.4-3.12-3.13,1.4-3.13,3.12-3.13,3.12,1.4,3.12,3.13Z"/><path class="cls-1" d="M311.95,57.45c.28.42.44.92.44,1.46,0,1.47-1.19,2.67-2.66,2.67s-2.66-1.19-2.66-2.67c0-.54.16-1.04.44-1.46-.56.57-.9,1.34-.9,2.2,0,1.73,1.4,3.13,3.12,3.13s3.12-1.4,3.12-3.13c0-.86-.34-1.63-.9-2.2Z"/><path class="cls-3" d="M13.53,59.98c0,2.38-1.93,4.97-4.31,4.97s-4.31-2.58-4.31-4.97,1.93-4.32,4.31-4.32,4.31,1.93,4.31,4.32Z"/><path class="cls-4" d="M13.53,59.98c0,2.38-1.93,4.32-4.31,4.32s-4.31-1.93-4.31-4.32,1.93-4.32,4.31-4.32,4.31,1.93,4.31,4.32Z"/><path class="cls-9" d="M9.3,62.02c-1.61,0-2.66-.9-3.14-2.05h-.06c0,1.73,1.4,3.56,3.12,3.56s3.1-1.79,3.12-3.51c-.45,1.13-1.46,2-3.05,2Z"/><path class="cls-4" d="M12.35,59.98c0,1.73-1.4,3.13-3.12,3.13s-3.12-1.4-3.12-3.13,1.4-3.13,3.12-3.13,3.12,1.4,3.12,3.13Z"/><path class="cls-1" d="M11.45,57.78c.28.42.44.92.44,1.46,0,1.47-1.19,2.67-2.66,2.67s-2.66-1.19-2.66-2.67c0-.54.16-1.04.44-1.46-.56.57-.9,1.34-.9,2.2,0,1.73,1.4,3.13,3.12,3.13s3.12-1.4,3.12-3.13c0-.86-.34-1.63-.9-2.2Z"/></g><text class="cls-10" transform="translate(61.84 47.04)"><tspan x="0" y="0">SEMÁFORO</tspan></text></g></g></g></svg>