<?xml version="1.0" encoding="UTF-8"?><svg xmlns="http://www.w3.org/2000/svg" xmlns:xlink="http://www.w3.org/1999/xlink" viewBox="0 0 616.7 71"><defs><style>.cls-1{fill:#6d6e71;}.cls-1,.cls-2,.cls-3,.cls-4,.cls-5,.cls-6,.cls-7,.cls-8,.cls-9{stroke-width:0px;}.cls-10{fill:#542e09;font-family:Poppins-SemiBold, Poppins;font-size:35px;font-weight:600;}.cls-11{isolation:isolate;}.cls-2{fill:#f7d19a;}.cls-3{fill:#212121;mix-blend-mode:multiply;opacity:.25;}.cls-4{fill:#414042;}.cls-5{fill:#d8a568;}.cls-6{fill:none;}.cls-12{filter:url(#drop-shadow-1);}.cls-7{fill:#f2c38c;}.cls-8{fill:#e8bb7e;}.cls-13{clip-path:url(#clippath);}.cls-9{fill:#353535;}</style><filter id="drop-shadow-1" filterUnits="userSpaceOnUse"><feOffset dx="7" dy="7"/><feGaussianBlur result="blur" stdDeviation="5"/><feFlood flood-color="#3f3f3f" flood-opacity=".75"/><feComposite in2="blur" operator="in"/><feComposite in="SourceGraphic"/></filter><clipPath id="clippath"><polygon class="cls-6" points="455.24 69.72 135.24 69.72 138.38 0 455.24 4.56 455.24 69.72"/></clipPath></defs><g class="cls-11"><g id="Capa_2"><g id="Capa_2-2"><g class="cls-12"><polygon class="cls-8" points="455.24 67.43 135.24 69.72 138.38 0 455.24 4.56 455.24 67.43"/><polygon class="cls-7" points="455.02 41.95 136.04 39.03 138.38 0 455.24 4.56 455.02 41.95"/><polygon class="cls-2" points="138.38 0 138.38 1.35 455.24 4.56 455.24 3.49 138.38 0"/><g class="cls-13"><polygon class="cls-5" points="457.35 3.78 448.14 7.2 431.26 7.46 411.66 5.57 399.67 5.75 382.28 3.83 354.82 6.43 303.18 5.03 289.04 5.25 275.15 7.65 252.02 5.81 236.7 8.24 234 7.34 224.13 4.05 212.58 4.23 203.33 6.56 185.56 6.83 174.39 4.81 162.4 4.99 137.23 9.75 165.17 8.23 178.53 9.43 205.24 10.9 217.53 6.03 244.9 10.3 252.06 6.91 268.24 9.94 284.83 9.69 291.3 7.72 303.22 6.13 315.68 9.22 327.7 9.03 347.48 8.73 360.21 8.54 372.65 8.35 382.8 6.32 392.63 8.04 399.73 7.94 407.28 7.82 419.72 7.63 430.89 9.65 444.21 9.44 451.31 9.34 457.35 3.78"/><polygon class="cls-5" points="128.19 21.38 142.35 17.97 168.1 17.74 197.95 19.66 216.24 19.5 242.71 21.45 284.68 18.89 363.41 20.38 384.98 20.18 406.24 17.81 441.47 19.68 464.92 17.29 469 18.19 483.97 21.49 501.59 21.33 515.78 19.02 542.88 18.78 559.86 20.81 578.16 20.65 616.7 15.93 574.03 17.41 553.68 16.18 512.99 14.67 494.1 19.52 452.47 15.21 441.45 18.59 416.86 15.53 391.54 15.75 381.61 17.72 363.39 19.28 344.47 16.17 326.13 16.34 295.95 16.61 276.51 16.78 257.54 16.95 241.99 18.96 227.05 17.22 216.2 17.32 204.68 17.42 185.71 17.59 168.73 15.55 148.41 15.73 137.56 15.83 128.19 21.38"/><polygon class="cls-5" points="0 25.08 14.17 28.47 39.92 28.66 69.76 26.7 88.06 26.83 114.52 24.84 156.5 27.34 235.22 25.74 256.8 25.9 278.07 28.24 313.29 26.32 336.74 28.68 340.82 27.77 355.78 24.45 373.4 24.58 387.6 26.87 414.7 27.07 431.68 25.01 449.97 25.15 488.53 29.8 445.86 28.39 425.51 29.65 384.82 31.22 365.92 26.4 324.3 30.77 313.27 27.41 288.69 30.51 263.36 30.32 253.43 28.37 235.2 26.83 216.3 29.97 197.95 29.83 167.77 29.61 148.34 29.46 129.36 29.32 113.81 27.33 98.87 29.1 88.03 29.02 76.51 28.93 57.54 28.79 40.56 30.85 20.23 30.7 9.39 30.62 0 25.08"/><polygon class="cls-5" points="457.35 65.95 448.14 62.53 431.26 62.27 411.66 64.16 399.67 63.97 382.28 65.9 354.82 63.29 303.18 64.69 289.04 64.47 275.15 62.08 252.02 63.91 236.7 61.49 234 62.39 224.13 65.67 212.58 65.49 203.33 63.17 185.56 62.9 174.39 64.91 162.4 64.73 137.23 59.97 165.17 61.49 178.53 60.29 205.24 58.82 217.53 63.7 244.9 59.43 252.06 62.82 268.24 59.78 284.83 60.04 291.3 62.01 303.22 63.6 315.68 60.51 327.7 60.69 347.48 60.99 360.21 61.19 372.65 61.38 382.8 63.4 392.63 61.68 399.73 61.79 407.28 61.9 419.72 62.09 430.89 60.08 444.21 60.28 451.31 60.39 457.35 65.95"/><polygon class="cls-5" points="128.19 48.35 142.35 51.75 168.1 51.98 197.95 50.06 216.24 50.22 242.71 48.27 284.68 50.83 363.41 49.35 384.98 49.54 406.24 51.92 441.47 50.04 464.92 52.44 469 51.54 483.97 48.24 501.59 48.39 515.78 50.71 542.88 50.95 559.86 48.91 578.16 49.08 616.7 53.79 574.03 52.32 553.68 53.54 512.99 55.05 494.1 50.2 452.47 54.51 441.45 51.14 416.86 54.2 391.54 53.97 381.61 52.01 363.39 50.44 344.47 53.55 326.13 53.39 295.95 53.12 276.51 52.95 257.54 52.78 241.99 50.76 227.05 52.51 216.2 52.41 204.68 52.31 185.71 52.14 168.73 54.17 148.41 53.99 137.56 53.89 128.19 48.35"/><polygon class="cls-5" points="115.81 44.64 129.98 41.26 155.73 41.07 185.58 43.03 203.87 42.89 230.33 44.88 272.31 42.39 351.03 43.99 372.61 43.83 393.88 41.48 429.1 43.41 452.56 41.05 456.63 41.95 471.59 45.28 489.21 45.15 503.41 42.86 530.51 42.66 547.49 44.71 565.78 44.58 604.34 39.92 561.67 41.33 541.32 40.08 500.63 38.5 481.73 43.33 440.11 38.95 429.08 42.32 404.5 39.22 379.18 39.41 369.24 41.35 351.02 42.89 332.11 39.76 313.76 39.89 283.58 40.12 264.15 40.26 245.17 40.4 229.62 42.39 214.68 40.63 203.84 40.71 192.32 40.79 173.35 40.93 156.37 38.87 136.04 39.03 125.2 39.11 115.81 44.64"/></g><polygon class="cls-5" points="135.24 69.72 455.24 67.43 455.24 68.58 135.24 71 135.24 69.72"/><path class="cls-3" d="M151.89,8.88c0,2.38-1.93,4.97-4.31,4.97s-4.31-2.58-4.31-4.97,1.93-4.32,4.31-4.32,4.31,1.93,4.31,4.32Z"/><path class="cls-4" d="M151.89,8.88c0,2.38-1.93,4.32-4.31,4.32s-4.31-1.93-4.31-4.32,1.93-4.32,4.31-4.32,4.31,1.93,4.31,4.32Z"/><path class="cls-9" d="M147.66,10.93c-1.61,0-2.66-.9-3.14-2.05h-.06c0,1.73,1.4,3.56,3.12,3.56s3.1-1.79,3.12-3.51c-.45,1.13-1.46,2-3.05,2Z"/><path class="cls-4" d="M150.71,8.88c0,1.73-1.4,3.13-3.12,3.13s-3.12-1.4-3.12-3.13,1.4-3.13,3.12-3.13,3.12,1.4,3.12,3.13Z"/><path class="cls-1" d="M149.81,6.68c.28.42.44.92.44,1.46,0,1.47-1.19,2.67-2.66,2.67s-2.66-1.19-2.66-2.67c0-.54.16-1.04.44-1.46-.56.57-.9,1.34-.9,2.2,0,1.73,1.4,3.13,3.12,3.13s3.12-1.4,3.12-3.13c0-.86-.34-1.63-.9-2.2Z"/><path class="cls-3" d="M449.27,12.88c0,2.38-1.93,4.97-4.31,4.97s-4.31-2.58-4.31-4.97,1.93-4.32,4.31-4.32,4.31,1.93,4.31,4.32Z"/><path class="cls-4" d="M449.27,12.88c0,2.38-1.93,4.32-4.31,4.32s-4.31-1.93-4.31-4.32,1.93-4.32,4.31-4.32,4.31,1.93,4.31,4.32Z"/><path class="cls-9" d="M445.03,14.92c-1.61,0-2.66-.9-3.14-2.05h-.06c0,1.73,1.4,3.56,3.12,3.56s3.1-1.79,3.12-3.51c-.45,1.13-1.46,2-3.05,2Z"/><path class="cls-4" d="M448.09,12.88c0,1.73-1.4,3.13-3.12,3.13s-3.12-1.4-3.12-3.13,1.4-3.13,3.12-3.13,3.12,1.4,3.12,3.13Z"/><path class="cls-1" d="M447.19,10.68c.28.42.44.92.44,1.46,0,1.47-1.19,2.67-2.66,2.67s-2.66-1.19-2.66-2.67c0-.54.16-1.04.44-1.46-.56.57-.9,1.34-.9,2.2,0,1.73,1.4,3.13,3.12,3.13s3.12-1.4,3.12-3.13c0-.86-.34-1.63-.9-2.2Z"/><path class="cls-3" d="M449.27,59.65c0,2.38-1.93,4.97-4.31,4.97s-4.31-2.58-4.31-4.97,1.93-4.32,4.31-4.32,4.31,1.93,4.31,4.32Z"/><path class="cls-4" d="M449.27,59.65c0,2.38-1.93,4.32-4.31,4.32s-4.31-1.93-4.31-4.32,1.93-4.32,4.31-4.32,4.31,1.93,4.31,4.32Z"/><path class="cls-9" d="M445.03,61.7c-1.61,0-2.66-.9-3.14-2.05h-.06c0,1.73,1.4,3.56,3.12,3.56s3.1-1.79,3.12-3.51c-.45,1.13-1.46,2-3.05,2Z"/><path class="cls-4" d="M448.09,59.65c0,1.73-1.4,3.13-3.12,3.13s-3.12-1.4-3.12-3.13,1.4-3.13,3.12-3.13,3.12,1.4,3.12,3.13Z"/><path class="cls-1" d="M447.18,57.45c.28.42.44.92.44,1.46,0,1.47-1.19,2.67-2.66,2.67s-2.66-1.19-2.66-2.67c0-.54.16-1.04.44-1.46-.56.57-.9,1.34-.9,2.2,0,1.73,1.4,3.13,3.12,3.13s3.12-1.4,3.12-3.13c0-.86-.34-1.63-.9-2.2Z"/><path class="cls-3" d="M148.77,59.98c0,2.38-1.93,4.97-4.31,4.97s-4.31-2.58-4.31-4.97,1.93-4.32,4.31-4.32,4.31,1.93,4.31,4.32Z"/><path class="cls-4" d="M148.77,59.98c0,2.38-1.93,4.32-4.31,4.32s-4.31-1.93-4.31-4.32,1.93-4.32,4.31-4.32,4.31,1.93,4.31,4.32Z"/><path class="cls-9" d="M144.53,62.02c-1.61,0-2.66-.9-3.14-2.05h-.06c0,1.73,1.4,3.56,3.12,3.56s3.1-1.79,3.12-3.51c-.45,1.13-1.46,2-3.05,2Z"/><path class="cls-4" d="M147.58,59.98c0,1.73-1.4,3.13-3.12,3.13s-3.12-1.4-3.12-3.13,1.4-3.13,3.12-3.13,3.12,1.4,3.12,3.13Z"/><path class="cls-1" d="M146.68,57.78c.28.42.44.92.44,1.46,0,1.47-1.19,2.67-2.66,2.67s-2.66-1.19-2.66-2.67c0-.54.16-1.04.44-1.46-.56.57-.9,1.34-.9,2.2,0,1.73,1.4,3.13,3.12,3.13s3.12-1.4,3.12-3.13c0-.86-.34-1.63-.9-2.2Z"/></g><text class="cls-10" transform="translate(175.92 47.04)"><tspan x="0" y="0">DIMENSIONES</tspan></text></g></g></g></svg>