<?xml version="1.0" encoding="UTF-8"?><svg id="Capa_2" xmlns="http://www.w3.org/2000/svg" viewBox="0 0 94.34 62.59"><defs><style>.cls-1{fill:#fff;stroke-width:0px;}</style></defs><g id="Segunda_pantalla"><path class="cls-1" d="M94.33,53.71c.02-.56.36-13.8-7.94-21.4-.59-.53-1.47-.57-2.1-.09-.1.07-9.75,7.32-18.74,0-.62-.5-1.5-.49-2.1.03-.19.17-2.83,2.52-5.13,7.05-.53-.23-1.16-.17-1.64.2-.4.3-9.8,7.29-18.74.01-.44-.36-1.01-.45-1.52-.29-1.15-2.48-2.75-4.9-4.96-6.93-.58-.53-1.47-.57-2.1-.09-.1.07-9.75,7.32-18.74,0-.61-.5-1.5-.49-2.1.03C8.19,32.56.2,39.66,0,53.64c0,.44.16.86.47,1.17.31.31.72.49,1.16.49h26.23c-.31,1.74-.52,3.61-.55,5.64,0,.44.16.86.47,1.17.31.31.73.49,1.16.49h36.14c.88,0,1.6-.71,1.63-1.59,0-.23.07-2.54-.42-5.71h26.39c.88,0,1.6-.7,1.63-1.58ZM28.61,52.03H3.33c.58-8.78,4.6-14.29,6.44-16.36,8.54,5.96,17.26,1.82,20.38-.06,1.68,1.8,2.88,3.92,3.75,6.05-1.63,2.01-3.88,5.46-5.29,10.37ZM30.64,59.33c.58-8.78,4.6-14.29,6.44-16.37,8.54,5.96,17.26,1.82,20.38-.06,4.86,5.21,5.79,13.09,5.96,16.42H30.64ZM65.66,52.03c-.83-3.34-2.29-7.08-4.85-10.26,1.36-2.96,2.92-5.01,3.89-6.1,8.54,5.96,17.26,1.82,20.38-.06,4.86,5.21,5.79,13.09,5.96,16.42h-25.38Z"/><path class="cls-1" d="M74.63,0c-4.12,0-8,1.61-10.93,4.54-2.43,2.44-3.94,5.54-4.38,8.9-2.83-3.72-7.28-6.14-12.3-6.14-4.12,0-8,1.61-10.93,4.53-.4.41-.78.83-1.13,1.27-1.14-7.4-7.54-13.1-15.26-13.1-4.12,0-8,1.61-10.93,4.54-2.92,2.92-4.53,6.8-4.53,10.93,0,8.52,6.94,15.45,15.46,15.45h0c4.12,0,8-1.61,10.92-4.53.4-.41.78-.83,1.13-1.27,1.14,7.4,7.54,13.1,15.26,13.1h0c4.12,0,8-1.61,10.92-4.54,2.44-2.44,3.94-5.54,4.38-8.89,2.82,3.72,7.28,6.13,12.3,6.13h0c4.12,0,8-1.61,10.92-4.53,2.92-2.92,4.53-6.8,4.53-10.93,0-8.52-6.94-15.45-15.46-15.45ZM28.32,24.07c-2.3,2.31-5.36,3.58-8.61,3.58h0c-6.72,0-12.19-5.47-12.19-12.18,0-3.25,1.27-6.31,3.57-8.62,2.3-2.31,5.37-3.58,8.62-3.58,6.72,0,12.19,5.47,12.19,12.19,0,3.25-1.27,6.31-3.58,8.62ZM55.63,31.36c-2.3,2.3-5.36,3.58-8.61,3.58h0c-6.72,0-12.19-5.47-12.19-12.18,0-3.25,1.27-6.31,3.57-8.62,2.31-2.31,5.37-3.58,8.62-3.58,6.72,0,12.19,5.47,12.19,12.19,0,3.25-1.27,6.31-3.58,8.62ZM83.24,24.07c-2.3,2.31-5.36,3.58-8.61,3.58h0c-6.72,0-12.19-5.47-12.19-12.18,0-3.25,1.27-6.31,3.57-8.62,2.31-2.31,5.37-3.58,8.62-3.58,6.72,0,12.19,5.47,12.19,12.19,0,3.25-1.27,6.31-3.58,8.62Z"/></g></svg>