<?xml version="1.0" encoding="UTF-8"?><svg id="Capa_2" xmlns="http://www.w3.org/2000/svg" viewBox="0 0 70.73 78.33"><defs><style>.cls-1{fill:#fff;stroke-width:0px;}</style></defs><g id="Capa_1-2"><path class="cls-1" d="M0,61.9c0,5.64,1.33,9.66,4.07,12.3,3.54,3.41,9.03,4.13,15.57,4.12,2.27,0,4.66-.09,7.13-.17,2.77-.1,5.63-.2,8.6-.2,2.3,0,4.55.04,6.73.09,10.37.2,19.33.38,24.41-4.6,2.84-2.79,4.22-6.94,4.22-12.7,0-13.74-8.53-31.95-22.32-37.43-.16-.06-.33-.1-.51-.1h-25.07c-.17,0-.35.03-.51.1C8.97,28.62,0,47.55,0,61.9ZM23.1,25.96h24.54c11.25,4.63,20.35,20.17,20.35,34.79,0,4.98-1.11,8.5-3.4,10.74-4.25,4.17-12.68,4.01-22.44,3.81-2.19-.04-4.46-.09-6.78-.09-3.01,0-5.9.1-8.69.2-9,.32-16.78.6-20.7-3.18-2.17-2.1-3.23-5.47-3.23-10.33,0-16.53,10.48-31.84,20.36-35.94Z"/><path class="cls-1" d="M24.48,20.73h21.48c.38,0,.74-.16,1-.43,3.99-4.27,6.38-12.98,6.38-18.93,0-.76-.61-1.37-1.37-1.37H18.47c-.76,0-1.37.61-1.37,1.37,0,5.96,2.39,14.67,6.38,18.93.26.28.62.43,1,.43ZM50.56,2.74c-.31,5.02-2.24,11.71-5.21,15.26h-20.24c-2.98-3.55-4.91-10.23-5.22-15.26h30.67Z"/><path class="cls-1" d="M25.3,61.87c2.08,1.29,5.12,1.81,6.83,2.01v2.75c0,.76.61,1.37,1.37,1.37h4.2c.36,0,.71-.14.97-.4.26-.26.4-.61.4-.97l-.02-3.18c3.29-.8,6.58-3.6,6.98-7.92h0c.51-5.41-3.09-7.6-3.82-7.99-.44-.23-1.09-.49-1.91-.82-1.45-.58-3.43-1.37-4.86-2.28-.55-.35-.75-.87-.66-1.2.11-.42.68-.52,1.01-.54,2.46-.17,6.28,1.08,6.31,1.09.37.12.77.08,1.11-.11.34-.19.58-.52.66-.89l1.01-4.51c.13-.56-.11-1.14-.6-1.45-1.31-.84-3.74-1.26-5.29-1.45v-2.44c0-.76-.61-1.37-1.37-1.37h-4.2c-.76,0-1.37.61-1.37,1.37v3.13c-4.89,1.39-7.26,4.7-6.71,9.43.61,5.2,7.49,7.42,8.86,7.81,2.86.82,2.75,1.29,2.6,1.94-.16.71-2.54,1.17-4.86.69-1.96-.4-3.7-1.33-3.71-1.34-.36-.19-.78-.22-1.16-.06s-.67.46-.79.85l-1.58,4.91c-.19.6.05,1.25.58,1.58ZM28.43,57.69c.8.33,1.85.7,2.98.93,2.86.59,7.38.34,8.08-2.77.82-3.65-2.65-4.65-4.52-5.18-2.24-.64-6.55-2.61-6.89-5.49-.43-3.66,1.36-5.79,5.64-6.7.63-.13,1.09-.69,1.09-1.34v-2.83h1.46v2.31c0,.71.55,1.31,1.26,1.37,1.28.1,3.22.39,4.44.79l-.45,1.99c-1.53-.41-3.97-.94-5.92-.8-1.77.12-3.1,1.12-3.48,2.6-.39,1.55.35,3.24,1.84,4.19,1.65,1.05,3.77,1.9,5.32,2.52.69.27,1.34.53,1.64.69.46.24,2.72,1.64,2.38,5.31-.32,3.39-3.2,5.44-5.75,5.65-.71.06-1.26.66-1.26,1.37l.02,2.97h-1.45v-2.63c0-.73-.57-1.33-1.3-1.37-1.05-.05-3.86-.38-5.89-1.24l.75-2.33Z"/></g></svg>