<?xml version="1.0" encoding="UTF-8"?><svg id="Capa_2" xmlns="http://www.w3.org/2000/svg" viewBox="0 0 65.02 82.39"><defs><style>.cls-1{fill:#fff;stroke-width:0px;}</style></defs><g id="Segunda_pantalla"><path class="cls-1" d="M6.3,0C2.83,0,0,2.83,0,6.31v69.78c0,3.48,2.83,6.31,6.3,6.31h52.41c3.48,0,6.3-2.83,6.3-6.31V6.31c0-3.48-2.83-6.31-6.3-6.31H6.3ZM62.79,6.31v69.78c0,2.25-1.83,4.08-4.08,4.08H6.3c-2.25,0-4.08-1.83-4.08-4.08V6.31c0-2.25,1.83-4.08,4.08-4.08h52.41c2.25,0,4.08,1.83,4.08,4.08Z"/><path class="cls-1" d="M57.33,9.58H7.78c-.84,0-1.52.68-1.52,1.52v15.29c0,.84.68,1.52,1.52,1.52h49.54c.84,0,1.52-.68,1.52-1.52v-15.29c0-.84-.68-1.52-1.52-1.52ZM55.8,24.87H9.31v-12.24h46.5v12.24Z"/><path class="cls-1" d="M53.11,55.96h-9.49c-.84,0-1.52.68-1.52,1.52v16.99c0,.84.68,1.52,1.52,1.52h9.49c.84,0,1.52-.68,1.52-1.52v-16.99c0-.84-.68-1.52-1.52-1.52ZM51.59,72.95h-6.44v-13.95h6.44v13.95Z"/><path class="cls-1" d="M45.64,40.33h5.46c1.67,0,3.04-1.6,3.04-3.56s-1.36-3.56-3.04-3.56h-5.46c-1.67,0-3.04,1.59-3.04,3.56s1.36,3.56,3.04,3.56ZM45.64,34.74h5.46c.82,0,1.51.93,1.51,2.03s-.69,2.03-1.51,2.03h-5.46c-.82,0-1.51-.93-1.51-2.03s.69-2.03,1.51-2.03Z"/><path class="cls-1" d="M45.64,51.73h5.46c1.67,0,3.04-1.59,3.04-3.56s-1.36-3.56-3.04-3.56h-5.46c-1.67,0-3.04,1.6-3.04,3.56s1.36,3.56,3.04,3.56ZM45.64,46.14h5.46c.82,0,1.51.93,1.51,2.03s-.69,2.03-1.51,2.03h-5.46c-.82,0-1.51-.93-1.51-2.03s.69-2.03,1.51-2.03Z"/><path class="cls-1" d="M35.66,33.22h-5.46c-1.68,0-3.04,1.59-3.04,3.56s1.36,3.56,3.04,3.56h5.46c1.67,0,3.04-1.6,3.04-3.56s-1.36-3.56-3.04-3.56ZM35.66,38.81h-5.46c-.82,0-1.51-.93-1.51-2.03s.69-2.03,1.51-2.03h5.46c.82,0,1.51.93,1.51,2.03s-.69,2.03-1.51,2.03Z"/><path class="cls-1" d="M35.66,44.42h-5.46c-1.68,0-3.04,1.6-3.04,3.56s1.36,3.56,3.04,3.56h5.46c1.67,0,3.04-1.59,3.04-3.56s-1.36-3.56-3.04-3.56ZM35.66,50.01h-5.46c-.82,0-1.51-.93-1.51-2.03s.69-2.03,1.51-2.03h5.46c.82,0,1.51.93,1.51,2.03s-.69,2.03-1.51,2.03Z"/><path class="cls-1" d="M20.22,33.22h-5.46c-1.68,0-3.04,1.59-3.04,3.56s1.36,3.56,3.04,3.56h5.46c1.67,0,3.04-1.6,3.04-3.56s-1.36-3.56-3.04-3.56ZM20.22,38.81h-5.46c-.82,0-1.51-.93-1.51-2.03s.69-2.03,1.51-2.03h5.46c.82,0,1.51.93,1.51,2.03s-.69,2.03-1.51,2.03Z"/><path class="cls-1" d="M20.22,44.42h-5.46c-1.68,0-3.04,1.6-3.04,3.56s1.36,3.56,3.04,3.56h5.46c1.67,0,3.04-1.59,3.04-3.56s-1.36-3.56-3.04-3.56ZM20.22,50.01h-5.46c-.82,0-1.51-.93-1.51-2.03s.69-2.03,1.51-2.03h5.46c.82,0,1.51.93,1.51,2.03s-.69,2.03-1.51,2.03Z"/><path class="cls-1" d="M20.22,55.62h-5.46c-1.68,0-3.04,1.6-3.04,3.56s1.36,3.56,3.04,3.56h5.46c1.67,0,3.04-1.6,3.04-3.56s-1.36-3.56-3.04-3.56ZM20.22,61.21h-5.46c-.82,0-1.51-.93-1.51-2.03s.69-2.03,1.51-2.03h5.46c.82,0,1.51.93,1.51,2.03s-.69,2.03-1.51,2.03Z"/><path class="cls-1" d="M20.22,66.82h-5.46c-1.68,0-3.04,1.6-3.04,3.56s1.36,3.56,3.04,3.56h5.46c1.67,0,3.04-1.59,3.04-3.56s-1.36-3.56-3.04-3.56ZM20.22,72.41h-5.46c-.82,0-1.51-.93-1.51-2.03s.69-2.04,1.51-2.04h5.46c.82,0,1.51.93,1.51,2.04s-.69,2.03-1.51,2.03Z"/><path class="cls-1" d="M35.29,55.62h-5.46c-1.68,0-3.04,1.6-3.04,3.56s1.36,3.56,3.04,3.56h5.46c1.67,0,3.04-1.6,3.04-3.56s-1.36-3.56-3.04-3.56ZM35.29,61.21h-5.46c-.82,0-1.51-.93-1.51-2.03s.69-2.03,1.51-2.03h5.46c.82,0,1.51.93,1.51,2.03s-.69,2.03-1.51,2.03Z"/><path class="cls-1" d="M35.29,66.82h-5.46c-1.68,0-3.04,1.6-3.04,3.56s1.36,3.56,3.04,3.56h5.46c1.67,0,3.04-1.59,3.04-3.56s-1.36-3.56-3.04-3.56ZM35.29,72.41h-5.46c-.82,0-1.51-.93-1.51-2.03s.69-2.04,1.51-2.04h5.46c.82,0,1.51.93,1.51,2.04s-.69,2.03-1.51,2.03Z"/></g></svg>