<?xml version="1.0" encoding="UTF-8"?>
<svg id="Capa_2" data-name="Capa 2" xmlns="http://www.w3.org/2000/svg" viewBox="0 0 62.37 50.5">
  <defs>
    <style>
      .cls-1 {
        fill: #fff;
      }
    </style>
  </defs>
  <g id="Capa_1-2" data-name="Capa 1">
    <g>
      <path class="cls-1" d="M34.56,0H.99C.46,0,0,.5,0,1.08v40.95c0,.59.45,1.08.99,1.08h24.8v6.24c0,.75.87,1.44,1.49.94.7-.57,1.4-1.14,2.1-1.71.51-.42,1.03-.84,1.54-1.26.13-.11.32-.22.49-.34.1.07.2.14.27.21.45.45,1,.82,1.49,1.22.76.62,1.52,1.25,2.28,1.87.42.35.84.22,1.11-.1.22-.17.37-.45.37-.84v-6.24h24.44c.29,0,.51-.11.67-.29.01-.01.02-.02.03-.03,0,0,.01-.01.02-.02.16-.17.27-.42.27-.74V1.08c0-.59-.45-1.08-.99-1.08h-26.81ZM25.79,40.95H1.98V2.17h23.81v38.78ZM34.96,47.2c-1.03-.84-2.05-1.68-3.08-2.53-.25-.21-.75-.21-1,0-1.04.84-2.07,1.69-3.11,2.53V2.17h7.19v45.03ZM36.93,2.17h23.45v38.78h-23.45V2.17Z"/>
      <path class="cls-1" d="M6.48,12.35h13.99c.85,0,.85-1.45,0-1.45H6.48c-.85,0-.85,1.45,0,1.45Z"/>
      <path class="cls-1" d="M6.48,18.42h13.99c.85,0,.85-1.45,0-1.45H6.48c-.85,0-.85,1.45,0,1.45Z"/>
      <path class="cls-1" d="M6.48,24.5h13.99c.85,0,.85-1.44,0-1.44H6.48c-.85,0-.85,1.44,0,1.44Z"/>
      <path class="cls-1" d="M6.48,30.57h13.99c.85,0,.85-1.44,0-1.44H6.48c-.85,0-.85,1.44,0,1.44Z"/>
      <path class="cls-1" d="M55.96,10.9h-13.99c-.85,0-.85,1.45,0,1.45h13.99c.85,0,.85-1.45,0-1.45Z"/>
      <path class="cls-1" d="M55.96,16.98h-13.99c-.85,0-.85,1.45,0,1.45h13.99c.85,0,.85-1.45,0-1.45Z"/>
      <path class="cls-1" d="M55.96,23.05h-13.99c-.85,0-.85,1.44,0,1.44h13.99c.85,0,.85-1.44,0-1.44Z"/>
      <path class="cls-1" d="M55.96,29.13h-13.99c-.85,0-.85,1.44,0,1.44h13.99c.85,0,.85-1.44,0-1.44Z"/>
    </g>
  </g>
</svg>