<?xml version="1.0" encoding="UTF-8"?>
<svg id="Capa_2" data-name="Capa 2" xmlns="http://www.w3.org/2000/svg" viewBox="0 0 80 46.5">
  <defs>
    <style>
      .cls-1 {
        fill: #fff;
      }
    </style>
  </defs>
  <g id="Capa_1-2" data-name="Capa 1">
    <path class="cls-1" d="M10.97,25.13c-1.46.31-2.56,1.61-2.56,3.16,0,.71.23,1.4.66,1.96l-1.35,8c-.06.34.04.69.26.96.22.26.55.42.9.42h5.53c.34,0,.67-.15.89-.41.22-.26.33-.6.28-.94l-1.15-8.34c.3-.5.46-1.07.46-1.65,0-1.17-.62-2.19-1.55-2.76v-4.33l7.28,3.16v18.09c0,2.23,1.81,4.04,4.04,4.04h33.24c2.23,0,4.04-1.81,4.04-4.04v-19.19l17.35-7.53c.45-.19.73-.64.71-1.13-.02-.49-.34-.91-.8-1.07L39.73.06c-.26-.09-.54-.08-.8.01C25.42,5.19,3.23,13.35,1.17,13.48c-.55,0-1.03.4-1.15.94-.11.55.17,1.1.69,1.32l10.26,4.45v4.95ZM10.27,37.26l1.22-7.2c.07-.41-.09-.83-.41-1.1-.2-.17-.32-.41-.32-.67,0-.48.39-.88.88-.88s.88.39.88.88c0,.27-.12.46-.22.58-.22.26-.33.6-.28.94l1.03,7.46h-2.78ZM59.58,42.45c0,.93-.76,1.69-1.69,1.69H24.65c-.93,0-1.69-.76-1.69-1.69v-17.06l16.56,7.19c.15.06.31.1.47.1s.32-.03.47-.1l19.11-8.29v18.17ZM4.76,14.92c8.53-2.66,29.02-10.37,34.62-12.49l36.18,12.35-35.56,15.43-23.48-10.19,19.83-2.62c.87.53,2.16.86,3.65.86,2.73,0,4.79-1.09,4.79-2.53s-2.06-2.53-4.79-2.53c-2.36,0-4.21.81-4.68,1.96l-23,3.03-7.56-3.28ZM36.38,15.74c0-.55,1.41-1.35,3.62-1.35s3.62.8,3.62,1.35-1.41,1.35-3.62,1.35-3.62-.8-3.62-1.35Z"/>
  </g>
</svg>