<?xml version="1.0" encoding="UTF-8"?>
<svg id="Capa_2" data-name="Capa 2" xmlns="http://www.w3.org/2000/svg" viewBox="0 0 65.79 58">
  <defs>
    <style>
      .cls-1 {
        fill: #fff;
      }
    </style>
  </defs>
  <g id="Capa_1-2" data-name="Capa 1">
    <g>
      <path class="cls-1" d="M22.48,47.12c4.56,4.56,10.63,7.19,17.08,7.41.28,0,.57.01.85.01,6.71,0,13.21-2.68,17.95-7.42,4.79-4.79,7.43-11.16,7.43-17.94s-2.64-13.15-7.43-17.94c-5.01-5.01-11.69-7.63-18.8-7.39-1.42.05-2.83.21-4.18.48l-.14.04c-1.45.48-2.06,1.35-2.32,1.99-.56,1.39.03,2.87.45,3.68l.09.15c.03.05.07.11.1.17l.04.09.03.03c1.73,3.43,1.07,7.54-1.65,10.26-2.83,2.83-7.22,3.41-10.69,1.41l-1.77-1.02v.48c-.54-.05-1.06.01-1.56.2-1.48.55-2.18,1.96-2.36,2.38l-.07.24c-1.57,8.28,1.03,16.76,6.96,22.7ZM17.81,25c.12-.24.44-.8.95-.99.37-.14.84-.06,1.4.22l.23.12c.17.09.35.18.52.26l1.61.81-.06-.22c3.89,1.17,8.21.15,11.17-2.81,3.32-3.32,4.21-8.26,2.33-12.5l.09-.15-.45-.59c-.04-.07-.08-.14-.12-.2l-.05-.08c-.35-.66-.48-1.3-.33-1.65.1-.25.37-.45.81-.6,1.2-.24,2.45-.38,3.72-.42,6.45-.23,12.51,2.16,17.05,6.7,4.35,4.35,6.74,10.12,6.74,16.27s-2.39,11.92-6.74,16.27c-4.55,4.55-10.61,6.94-17.05,6.72-5.85-.2-11.35-2.59-15.49-6.72-5.35-5.35-7.71-12.98-6.34-20.45Z"/>
      <path class="cls-1" d="M26.39,38.69c1.38-.37,2.53-1.25,3.24-2.49.71-1.23.9-2.67.53-4.05-.76-2.84-3.69-4.54-6.54-3.77h0c-1.38.37-2.53,1.25-3.24,2.49-.71,1.24-.9,2.67-.53,4.05.37,1.38,1.25,2.53,2.49,3.24.82.48,1.73.72,2.66.72.46,0,.93-.06,1.39-.18ZM22.93,37.14c-.96-.56-1.65-1.45-1.94-2.52-.29-1.07-.14-2.19.41-3.16.55-.96,1.45-1.65,2.52-1.94,2.21-.59,4.5.72,5.09,2.94.29,1.07.14,2.19-.41,3.15-.56.96-1.45,1.65-2.53,1.94-1.07.29-2.19.14-3.15-.42Z"/>
      <path class="cls-1" d="M30.94,47.03c.71,1.23,1.86,2.12,3.24,2.49.46.12.93.18,1.39.18,1.33,0,2.62-.5,3.63-1.44.73-.68,1.26-1.55,1.52-2.52.51-1.91-.07-3.93-1.52-5.28-.64-.59-1.42-1.03-2.26-1.25-2.84-.76-5.77.93-6.54,3.77h0c-.37,1.38-.18,2.82.53,4.05ZM31.55,43.28c.59-2.21,2.88-3.53,5.09-2.94.66.18,1.25.51,1.76.97,1.13,1.05,1.58,2.63,1.18,4.12-.2.75-.61,1.42-1.18,1.96-1.06.99-2.52,1.35-3.91.98-1.07-.29-1.97-.97-2.52-1.94-.56-.96-.7-2.08-.42-3.15Z"/>
      <path class="cls-1" d="M50.17,35.75c-1.43,0-2.77.55-3.77,1.56-2.08,2.08-2.08,5.47,0,7.55,1.01,1.01,2.35,1.56,3.77,1.56s2.77-.56,3.77-1.56c1.01-1.01,1.56-2.35,1.56-3.77s-.55-2.76-1.56-3.77c-1.01-1.01-2.35-1.56-3.77-1.56ZM53.11,44.02c-.78.78-1.83,1.22-2.94,1.22s-2.15-.43-2.94-1.22c-1.62-1.62-1.62-4.26,0-5.88h0c.78-.78,1.83-1.22,2.94-1.22s2.15.43,2.94,1.22c.78.79,1.22,1.83,1.22,2.94s-.43,2.15-1.22,2.94Z"/>
      <path class="cls-1" d="M49.77,28.46c.64,2.38,2.8,3.96,5.16,3.96.46,0,.92-.06,1.38-.18,1.38-.37,2.53-1.25,3.24-2.49.71-1.23.9-2.67.53-4.05-.76-2.84-3.69-4.54-6.54-3.77h0c-2.84.76-4.53,3.7-3.77,6.54ZM53.84,23.06c2.21-.59,4.5.73,5.09,2.94.29,1.07.14,2.19-.42,3.15-.55.96-1.45,1.65-2.52,1.94-2.21.59-4.5-.73-5.09-2.94-.59-2.21.72-4.5,2.94-5.09Z"/>
      <path class="cls-1" d="M43,21.24c.46.12.93.18,1.39.18.93,0,1.84-.24,2.66-.72,1.23-.71,2.12-1.86,2.49-3.24.76-2.84-.93-5.77-3.78-6.54-2.84-.76-5.77.93-6.54,3.78-.37,1.38-.18,2.81.53,4.05.71,1.23,1.86,2.12,3.24,2.49ZM40.36,15.01c.59-2.21,2.88-3.53,5.09-2.94,2.21.59,3.53,2.88,2.94,5.09-.29,1.07-.98,1.97-1.94,2.53-.96.55-2.08.7-3.15.41-1.07-.29-1.97-.98-2.53-1.94-.55-.96-.7-2.08-.41-3.15Z"/>
      <path class="cls-1" d="M8.18.57l-.38.46h-.02s.36-.48.36-.48l-.71-.54-.72.54c-.27.21-6.72,5.14-6.72,11.46,0,4.26,1.48,6.25,3.43,7.16-.08.43-.15.86-.21,1.27-.72,4.79-.91,10.26-.55,15.41,1.22,17.21,2.18,21.73,4.67,22.01l1.31.14v-.6c1.91-1.38,2.58-7.13,3.48-21.69.32-5.14.14-10.6-.5-15.39l-.15-1.03h-.01s-.02-.1-.02-.14c1.93-.91,3.41-2.9,3.41-7.15C14.86,5.9,8.88,1.11,8.18.57ZM9.78,35.56c-.38,6.14-1.07,17.24-2.28,19.57-1.29-2.66-2.11-14.28-2.48-19.45-.35-4.99-.17-10.28.53-14.9.05-.33.1-.66.16-1,.58.07,1.18.1,1.75.1h0c.55,0,1.12-.03,1.68-.1.04.28.08.57.12.86l.14,1.02h0c.51,4.39.64,9.28.35,13.9ZM12.24,12.96c.16-.26.23-.57.26-.91-.01,4.6-1.7,5.46-5.07,5.46-3.36,0-5.07-.85-5.07-5.51,0-.48.05-.96.14-1.42.35.19.73.3,1.15.31,1.62.05,2.16-1.39,2.51-2.35.19-.51.4-1.09.59-1.11.3.15.77,1.42,1.09,2.26.71,1.88,1.5,4,3.02,4,.12,0,.24-.01.37-.04.44-.09.78-.33,1-.69ZM10.82,9.2c.29,1.04.72,2.61.4,3.14-.04.06-.09.12-.24.15-.79.16-1.51-1.79-2.05-3.22-.63-1.68-1.13-3.01-2.14-3.01h-.06c-1.02.05-1.39,1.06-1.69,1.87-.4,1.09-.67,1.61-1.37,1.58-.53-.02-.96-.3-1.3-.85,1.25-3.24,4.05-5.79,5.04-6.62.7.59,2.31,2.03,3.63,3.98-.13.04-.26.11-.37.22-.5.5-.25,1.4.13,2.77Z"/>
    </g>
  </g>
</svg>