<?xml version="1.0" encoding="UTF-8"?>
<svg id="Capa_2" data-name="Capa 2" xmlns="http://www.w3.org/2000/svg" viewBox="0 0 59.37 62.67">
  <defs>
    <style>
      .cls-1 {
        fill: #fff;
      }
    </style>
  </defs>
  <g id="Capa_1-2" data-name="Capa 1">
    <g>
      <path class="cls-1" d="M3.01,41.61c0-1.94,1.58-3.51,3.51-3.51s3.51,1.57,3.51,3.51c0,.24.06.47.16.67.48,3.13,3.18,5.54,6.44,5.54s6.18-2.59,6.49-5.9c.02-.1.03-.2.03-.31,0-1.94,1.57-3.51,3.51-3.51s3.51,1.57,3.51,3.51c0,.24.06.47.16.67.48,3.13,3.18,5.54,6.44,5.54s6.18-2.59,6.49-5.9c.02-.1.03-.2.03-.31,0-1.94,1.57-3.51,3.51-3.51s3.51,1.57,3.51,3.51c0,.83.67,1.5,1.5,1.51h0c.83,0,1.51-.67,1.51-1.51,0-3.6-2.93-6.52-6.52-6.52-3.39,0-6.18,2.59-6.49,5.9-.02.1-.03.2-.03.31,0,1.93-1.58,3.51-3.51,3.51s-3.51-1.58-3.51-3.51c0-.24-.06-.47-.16-.67-.48-3.13-3.18-5.54-6.44-5.54s-6.18,2.59-6.49,5.9c-.02.1-.03.2-.03.31,0,1.93-1.57,3.51-3.51,3.51s-3.51-1.58-3.51-3.51c0-.24-.06-.47-.16-.67-.48-3.13-3.18-5.54-6.44-5.54-3.6,0-6.52,2.92-6.52,6.52,0,.83.67,1.51,1.51,1.51.06,0,.12-.01.18-.02.74-.09,1.32-.72,1.32-1.49Z"/>
      <path class="cls-1" d="M45.68,6.52v5.83h-15.75v-5.83c0-1.94,1.72-3.51,3.83-3.51s3.83,1.57,3.83,3.51c0,.83.67,1.5,1.51,1.5s1.5-.67,1.5-1.5c0-3.6-3.07-6.52-6.84-6.52s-6.84,2.93-6.84,6.52v24.26c0,.83.67,1.5,1.5,1.5s1.51-.67,1.51-1.5v-5.18h15.75v5.18c0,.83.67,1.5,1.51,1.5s1.51-.67,1.51-1.5V6.52c0-1.94,1.72-3.51,3.84-3.51s3.83,1.57,3.83,3.51c0,.83.67,1.5,1.5,1.5s1.51-.67,1.51-1.5c0-3.6-3.07-6.52-6.84-6.52s-6.85,2.93-6.85,6.52ZM29.94,22.59v-7.22h15.75v7.22h-15.75Z"/>
      <path class="cls-1" d="M46.81,49.94c-3.39,0-6.18,2.59-6.49,5.9-.02.1-.03.2-.03.31,0,1.94-1.58,3.51-3.51,3.51s-3.51-1.57-3.51-3.51c0-.24-.06-.47-.16-.67-.48-3.13-3.18-5.54-6.44-5.54s-6.18,2.59-6.49,5.9c-.02.1-.03.2-.03.31,0,1.94-1.57,3.51-3.51,3.51s-3.51-1.57-3.51-3.51c0-.24-.06-.47-.16-.67-.48-3.13-3.18-5.54-6.44-5.54-1.92,0-3.64.84-4.83,2.16-1.05,1.16-1.69,2.68-1.69,4.36,0,.83.67,1.5,1.51,1.5.06,0,.12,0,.18-.02.74-.09,1.32-.72,1.32-1.49,0-1.94,1.58-3.51,3.51-3.51s3.51,1.57,3.51,3.51c0,.24.06.47.16.67.48,3.13,3.18,5.54,6.44,5.54s6.18-2.6,6.49-5.9c.02-.1.03-.2.03-.31,0-1.94,1.57-3.51,3.51-3.51s3.51,1.57,3.51,3.51c0,.24.06.47.16.67.48,3.13,3.18,5.54,6.44,5.54s6.18-2.6,6.49-5.9c.02-.1.03-.2.03-.31,0-1.94,1.57-3.51,3.51-3.51s3.51,1.57,3.51,3.51c0,.83.67,1.5,1.5,1.5h0c.83,0,1.51-.67,1.51-1.5,0-1.58-.57-3.03-1.51-4.16-1.2-1.44-3-2.36-5.02-2.36Z"/>
    </g>
  </g>
</svg>