<?xml version="1.0" encoding="UTF-8"?>
<svg id="Capa_2" data-name="Capa 2" xmlns="http://www.w3.org/2000/svg" viewBox="0 0 60.72 62.24">
  <defs>
    <style>
      .cls-1 {
        fill: #fff;
      }
    </style>
  </defs>
  <g id="Capa_1-2" data-name="Capa 1">
    <path class="cls-1" d="M12.96,62.05c.82.12,1.7.19,2.63.19,2.22,0,4.77-.35,7.61-1.04,6.1-1.48,7.46-2.01,8.34-2.47,3.19-1.1,6.25-2.67,9.09-4.67,0,0,0,0,0,0,9.91-6.97,15.05-17.5,17.23-23.17h0c.75-1.96,1.1-3.19,1.11-3.24.49-1.8.88-3.55,1.19-5.38h0c1.38-8.11.19-14.14-3.54-17.91C51.8-.49,44.04-.43,38.38.48h0c-2.73.44-4.61,1.02-4.75,1.07-1.15.42-2.36.91-3.7,1.48h0C20.01,7.3,12.4,13.26,7.32,20.77h0c-1.95,2.88-3.53,5.96-4.69,9.16C-1.41,41.06.36,50.68.54,51.58c.72,5.58,5.24,9.39,12.42,10.47ZM54.73,6.25c2.71,2.73,3.77,7.09,3.17,12.97L41.46,2.79c4.21-.35,9.83,0,13.27,3.46ZM34.51,4.06c.21-.06,1.62-.48,3.62-.84l19.29,19.29c-.27,1.5-.61,2.96-1.01,4.45,0,0-.11.38-.33,1.04L32.8,4.72c.59-.24,1.15-.45,1.71-.66ZM30.16,5.84l12.71,12.71,12.2,12.2c-2.15,5.33-6.74,14.25-15.05,20.48l-14.93-14.93-14.93-14.93c4.64-6.46,11.37-11.68,20.01-15.53ZM8.64,23.63l29.14,29.14c-2.05,1.31-4.21,2.38-6.44,3.21L5.43,30.06c.86-2.22,1.94-4.37,3.21-6.43ZM3.16,51.09c-.02-.09-1.69-8.37,1.3-18.23,2.53,2.53,7.81,7.81,12.93,12.92.34.34.68.68,1.02,1.02.6.6,1.2,1.2,1.79,1.79,2.35,2.35,4.54,4.53,6.25,6.25l1.19,1.19c.37.37.7.7.99.99-1.11.35-2.91.84-6.04,1.59-3.7.9-6.8,1.17-9.22.81-2.81-.42-9.42-2.07-10.18-8.22,0-.04-.01-.07-.02-.11Z"/>
  </g>
</svg>