<?xml version="1.0" encoding="UTF-8"?>
<svg id="Capa_2" data-name="Capa 2" xmlns="http://www.w3.org/2000/svg" viewBox="0 0 32.38 88">
  <defs>
    <style>
      .cls-1 {
        fill: #fff;
      }
    </style>
  </defs>
  <g id="Capa_1-2" data-name="Capa 1">
    <path class="cls-1" d="M31.25,82.92c.69-.52,1.13-1.33,1.13-2.26,0-1.82-1.44-2.64-2.59-3.31-.12-.07-.24-.14-.35-.21-.54-.32-1.08-.68-1.58-1.06-.5-.38-.99-.79-1.44-1.23-.23-.22-.46-.45-.68-.69-.04-.04-.16-.18-.29-.32l1.03-1.25s.04-.05.06-.08c.21-.37.2-.81,0-1.17-.21-.37-.59-.58-1.02-.58h-.45c-2.07-4.8-3.41-10.24-3.88-15.74-.03-.52-.04-.99-.04-1.42,0-1.91.22-3.82.64-5.67h1.84c.15,0,.31-.02.47-.05.97-.22,1.68-1.1,1.68-2.09,0-.92-.53-1.84-1.55-2.08.07-.19.12-.4.12-.61,0-.83-.6-1.7-1.61-1.7h-.97c-.03-.2-.05-.41-.05-.61,0-.46.08-.97.21-1.34,0-.03.02-.06.02-.09,3.65-10.67,4.43-12.93,4.59-13.45h.01c.11-.31.17-.69.17-1.06,0-1.21-.61-2.35-1.63-3.04-.58-.4-1.18-.54-1.79-.67-.45-.09-.9-.17-1.35-.25.12-.23.19-.49.19-.76,0-.83-.6-1.7-1.61-1.7h-.44l-1.25-3.81,2.93.87c.17.05.36.02.5-.09s.23-.28.23-.45v-5.29c0-.18-.08-.35-.23-.45-.14-.11-.33-.14-.5-.09l-2.93.87,1.38-4.22c.09-.27-.04-.57-.3-.69l-2.28-1.08c.5-.41.81-1.04.81-1.73,0-1.24-1.01-2.25-2.25-2.25s-2.25,1.01-2.25,2.25c0,.7.33,1.33.83,1.75l-2.24,1.06c-.26.12-.38.42-.3.69l1.39,4.24-2.99-.89c-.17-.05-.36-.02-.5.09-.14.11-.23.28-.23.45v5.29c0,.18.08.35.23.45.14.11.33.14.5.09l2.99-.89-1.25,3.83h-.4c-.94,0-1.7.76-1.7,1.7,0,.28.07.53.19.76-.45.07-.9.15-1.35.25-.61.13-1.2.27-1.79.67-1.02.69-1.63,1.83-1.63,3.04,0,.37.06.75.17,1.07h.01c.14.44.71,2.1,3.09,9.07l1.65,4.8c.09.33.14.66.14,1,0,.21-.02.41-.05.61h-1.4c-.94,0-1.7.76-1.7,1.7,0,.27.07.52.18.75-.73.34-1.23,1.08-1.23,1.94,0,1.17.95,2.13,2.13,2.14h2.04c.42,1.86.64,3.76.64,5.67,0,.46-.02.94-.04,1.46-.48,5.51-1.83,10.79-3.98,15.7h-.45c-.42,0-.8.22-1.02.58-.21.37-.22.8,0,1.17.02.03.04.06.06.08l1.03,1.24c-.12.14-.25.28-.29.32-.22.24-.45.47-.68.69-.46.43-.94.85-1.44,1.23-.5.38-1.03.74-1.58,1.06-.12.07-.23.14-.35.21-1.15.67-2.59,1.49-2.59,3.31,0,.92.45,1.74,1.13,2.26-.71.53-1.13,1.37-1.13,2.26v2.26c0,.31.25.57.57.57h31.25c.31,0,.57-.25.57-.57v-2.26c0-.92-.45-1.74-1.13-2.26ZM20.98,20.13c0,.26-.19.49-.44.55-.02,0-.04,0-.05,0-.84-.1-1.69-.18-2.54-.22l1.9-.9h.65c.35,0,.48.35.48.56ZM16.22,20.03l-.99-.47h1.99l-.99.47ZM16.19,1.13c.62,0,1.12.5,1.12,1.12s-.5,1.12-1.12,1.12-1.12-.5-1.12-1.12.5-1.12,1.12-1.12ZM15.03,13.93c.07-.2.01-.42-.13-.57-.15-.15-.37-.21-.57-.15l-3.3.98v-3.77l3.3.98c.2.06.42,0,.57-.15.15-.15.2-.37.13-.57l-1.57-4.8,2.75-1.31,2.75,1.31-1.56,4.78c-.07.2-.01.42.13.57s.37.21.57.15l3.24-.96v3.77l-3.24-.96c-.2-.06-.42,0-.57.15s-.2.37-.13.57l1.47,4.48h-5.31l1.47-4.5ZM11.97,19.56h.62l1.9.9c-.87.04-1.73.11-2.59.22-.28-.03-.49-.27-.49-.56,0-.31.25-.56.56-.56ZM11.69,39.44l-1.66-4.84c-1.47-4.3-3.07-8.97-3.1-9.06,0,0,0,0,0,0-.07-.19-.11-.46-.11-.7,0-.84.42-1.62,1.13-2.11.41-.28.87-.39,1.38-.49.68-.14,1.37-.26,2.05-.35.18-.03.37-.05.55-.07.01,0,.02,0,.03,0h8.5c.17.02.35.04.52.07.68.1,1.37.22,2.05.35.51.11.97.21,1.38.49.71.48,1.13,1.27,1.13,2.11,0,.24-.04.51-.11.7,0,0,0,0,0,0-.03.1-3.06,8.94-4.63,13.53-.01.03-.02.06-.02.09-.15.47-.24,1.07-.24,1.62,0,.21.01.41.04.61h-8.76c.03-.2.04-.41.04-.61,0-.44-.06-.88-.19-1.34ZM9.29,42.53h1.86l10.15.03h0c.06,0,.12-.01.18-.03h1.24c.35,0,.48.35.48.56,0,.26-.18.48-.43.54h-13.61c-.24-.06-.42-.28-.42-.54,0-.31.25-.56.56-.56ZM7.68,45.78c0-.56.45-1.01,1.01-1.01h.41c.06,0,.13.02.19.02h13.42s.09,0,.13-.02c0,0,.01,0,.02,0h.8c.75,0,.95.64.95,1.01,0,.47-.33.88-.79.99-.08.02-.15.03-.22.03h-14.92c-.55,0-1-.46-1-1.01ZM12.44,55.14c.03-.56.05-1.06.05-1.54,0-1.91-.2-3.81-.61-5.67h8.72c-.4,1.86-.61,3.76-.61,5.67,0,.46.01.94.05,1.5.47,5.47,1.77,10.86,3.78,15.66h-15.26c2.09-4.9,3.39-10.15,3.87-15.62ZM6.84,71.92s.03-.02.04-.02h.65c.05.02.11.03.17.03h17c.06,0,.11-.01.17-.03h.65s.03,0,.04.02c0,0,0,.02,0,.02l-1.12,1.36H7.96l-1.12-1.36s0-.01,0-.02ZM3.16,78.33c.12-.07.24-.14.36-.21.58-.34,1.15-.72,1.68-1.13.54-.41,1.05-.85,1.54-1.31.25-.24.49-.48.73-.74.06-.06.28-.31.44-.5h16.54c.16.18.39.44.44.5.24.25.48.5.73.74.49.46,1.01.9,1.54,1.31.54.41,1.1.79,1.68,1.13.12.07.24.14.36.21,1.26.73,2.02,1.24,2.02,2.33,0,.93-.76,1.69-1.69,1.69H2.82c-.93,0-1.69-.76-1.69-1.69,0-1.08.76-1.6,2.02-2.33ZM29.56,83.48c.73,0,1.36.47,1.59,1.12H1.23c.13-.37.39-.69.74-.9.26-.15.55-.23.85-.23h26.73ZM31.25,86.87H1.13v-1.12h30.12v1.12Z"/>
  </g>
</svg>