<?xml version="1.0" encoding="UTF-8"?>
<svg id="Capa_2" data-name="Capa 2" xmlns="http://www.w3.org/2000/svg" viewBox="0 0 44.24 68.67">
  <defs>
    <style>
      .cls-1 {
        fill: #fff;
      }
    </style>
  </defs>
  <g id="Capa_1-2" data-name="Capa 1">
    <g>
      <path class="cls-1" d="M44.24,64.57c0-.29.18-7.1-4.11-11.04-.42-.39-1.06-.41-1.52-.07-.19.14-4.71,3.49-8.97.01-.44-.36-1.09-.35-1.52.02-.06.05-.61.55-1.3,1.47-.66-1.01-1.45-1.98-2.39-2.85-.42-.39-1.06-.41-1.52-.07-.28.22-7.04,5.24-13.47,0-.44-.36-1.09-.35-1.52.02-.24.21-5.99,5.32-6.14,15.38,0,.32.12.62.34.85.22.23.52.35.84.35h26c.64,0,1.16-.51,1.18-1.15,0-.1.02-.77-.05-1.81h12.96c.64,0,1.16-.51,1.18-1.14ZM4.19,66.3c.42-6.3,3.3-10.26,4.62-11.76,6.14,4.28,12.4,1.31,14.66-.05,3.48,3.74,4.16,9.4,4.28,11.8H4.19ZM29.83,63.35c-.28-1.78-.79-3.94-1.75-6.05.34-.56.68-1.02.95-1.34,3.8,2.46,7.85,1.31,10.13-.03,2.02,2.35,2.54,5.69,2.67,7.42h-12Z"/>
      <path class="cls-1" d="M31.99,22.79h-9.21v2.9c0,1.45,1.18,2.63,2.63,2.63h8.2l2.33,2.68c.17.2.42.31.67.31.11,0,.23-.02.34-.07.35-.15.57-.51.54-.89l-.16-2.03h4.21c1.45,0,2.63-1.18,2.63-2.63v-10.39c0-1.45-1.18-2.63-2.63-2.63h-5.74v6.31c0,2.1-1.71,3.8-3.81,3.8ZM36.01,19.04v-4.59h5.53c.47,0,.86.38.86.86v10.39c0,.47-.38.86-.86.86h-5.17c-.25,0-.48.1-.65.28s-.25.42-.23.67l.02.31-.83-.96c-.17-.19-.41-.31-.67-.31h-8.6c-.47,0-.86-.38-.86-.86v-2.77h7.57c2.14,0,3.89-1.74,3.89-3.89Z"/>
      <path class="cls-1" d="M0,18.99c0,2.1,1.71,3.8,3.8,3.8h10.23l-.29,3.67c-.04.44.22.85.62,1.02.13.05.26.08.39.08.29,0,.57-.12.77-.35l3.84-4.42h12.62c2.1,0,3.81-1.71,3.81-3.8V3.81c0-2.1-1.71-3.81-3.81-3.81H3.8C1.71,0,0,1.71,0,3.81v15.18ZM2.04,3.81c0-.97.79-1.76,1.76-1.76h28.19c.97,0,1.76.79,1.76,1.76v15.18c0,.97-.79,1.76-1.76,1.76h-13.09c-.3,0-.58.13-.77.35l-2.11,2.43.13-1.68c.02-.28-.08-.56-.27-.77-.19-.21-.47-.33-.75-.33H3.8c-.97,0-1.76-.79-1.76-1.76V3.81Z"/>
      <path class="cls-1" d="M33.97,53.45h0c2.17,0,4.21-.85,5.75-2.38,1.54-1.54,2.38-3.58,2.38-5.75,0-4.48-3.65-8.13-8.13-8.13-2.17,0-4.21.85-5.75,2.39-.46.47-.86.98-1.19,1.53.04-.36.05-.73.05-1.11,0-6.13-4.99-11.12-11.12-11.12-2.97,0-5.76,1.16-7.86,3.26-2.1,2.1-3.26,4.9-3.26,7.87,0,6.13,4.99,11.12,11.12,11.12h0c2.97,0,5.76-1.16,7.86-3.26.83-.83,1.51-1.77,2.03-2.78,0,.08-.01.16-.01.25,0,4.48,3.65,8.13,8.13,8.13ZM29.89,41.25c1.09-1.09,2.54-1.69,4.08-1.69,3.18,0,5.77,2.59,5.77,5.77,0,1.54-.6,2.98-1.69,4.08-1.09,1.09-2.54,1.69-4.07,1.69h0c-3.18,0-5.77-2.59-5.77-5.76,0-1.54.6-2.99,1.69-4.08ZM22.15,46.19c-1.65,1.66-3.85,2.57-6.19,2.57h0c-4.83,0-8.76-3.93-8.76-8.76,0-2.34.91-4.54,2.57-6.19,1.66-1.66,3.86-2.57,6.19-2.57,4.83,0,8.76,3.93,8.76,8.76,0,2.34-.91,4.53-2.57,6.19Z"/>
    </g>
  </g>
</svg>