<?xml version="1.0" encoding="UTF-8"?>
<svg id="Capa_2" data-name="Capa 2" xmlns="http://www.w3.org/2000/svg" viewBox="0 0 40 74.5">
  <defs>
    <style>
      .cls-1 {
        fill: #fff;
      }
    </style>
  </defs>
  <g id="Capa_1-2" data-name="Capa 1">
    <g>
      <path class="cls-1" d="M3.56,36.49c0,2.23.14,4.18.83,7.05,1.23,5,4.22,11.84,5.27,14.16-.45.64-.69,1.38-.7,2.15,0,.97.36,1.88.99,2.6-.62.69-.98,1.57-.99,2.51-.01,1.1.45,2.11,1.23,2.85-.56.67-.88,1.51-.89,2.41-.02,2.22,1.91,4.05,4.31,4.08l15.58.2h.06c1.19,0,2.34-.45,3.15-1.25.75-.74,1.17-1.7,1.18-2.72.01-1.1-.45-2.11-1.23-2.85.56-.67.88-1.51.89-2.41,0-.97-.35-1.88-.99-2.6.62-.69.98-1.57.99-2.51,0-.98-.36-1.88-.98-2.58,1.09-2.43,4.01-9.12,5.22-14.05.69-2.86.83-4.82.83-7.05,0-9.58-7.79-17.38-17.38-17.38S3.56,26.91,3.56,36.49ZM30.56,71.37c-.33.33-.82.53-1.34.5l-15.58-.2c-.95-.01-1.72-.65-1.71-1.42,0-.59.48-1.11,1.18-1.3.6-.16,1-.71.97-1.33-.03-.62-.49-1.13-1.1-1.23-.8-.13-1.4-.73-1.39-1.39,0-.56.45-1.07,1.1-1.28.55-.17.92-.68.93-1.25,0-.57-.37-1.08-.91-1.26-.67-.21-1.12-.75-1.11-1.32,0-.25.09-.46.2-.62h18.44c.24.24.39.55.39.88,0,.56-.45,1.07-1.1,1.27-.55.17-.92.68-.93,1.25,0,.57.37,1.08.91,1.26.67.21,1.12.75,1.11,1.32,0,.59-.48,1.11-1.17,1.3-.6.16-1,.71-.97,1.33.03.62.48,1.13,1.1,1.23.8.14,1.4.73,1.39,1.39,0,.4-.22.69-.39.87ZM20.94,21.75c8.13,0,14.75,6.61,14.75,14.74,0,2.04-.13,3.82-.75,6.42-1.16,4.73-4.11,11.47-5.12,13.72H12.07c-1.01-2.24-3.96-8.98-5.12-13.71-.63-2.61-.75-4.39-.75-6.43,0-8.13,6.61-14.74,14.75-14.74Z"/>
      <path class="cls-1" d="M2.74,6.19c-.25-.32-.62-.53-1.02-.57-.4-.05-.81.06-1.13.32C.26,6.19.06,6.55.01,6.96c-.05.41.07.81.32,1.13l7.84,9.96c.29.37.74.58,1.21.58.02,0,.03,0,.05,0h0c.33-.01.64-.13.89-.33.32-.25.53-.62.57-1.02.05-.41-.06-.81-.32-1.13L2.74,6.19ZM9.51,17.27s-.08.05-.13.05c-.07,0-.13-.03-.18-.08L1.36,7.27c-.05-.06-.05-.12-.05-.16,0-.03.02-.1.08-.15.05-.04.09-.05.13-.05,0,0,.02,0,.03,0,.03,0,.1.02.15.08l7.84,9.96c.05.06.05.12.05.16,0,.04-.02.1-.08.15Z"/>
      <path class="cls-1" d="M31.15,18.26h0c.25.17.55.26.85.26h.05c.49-.02.95-.27,1.22-.68l6.47-9.73c.23-.34.31-.75.23-1.15-.08-.4-.31-.75-.65-.97-.34-.23-.75-.31-1.15-.23-.4.08-.75.31-.97.66l-6.47,9.73c-.23.34-.31.75-.23,1.15.08.4.31.75.65.97ZM31.82,16.86l6.47-9.73c.04-.06.11-.09.14-.09.03,0,.1-.01.16.03.07.05.09.11.09.14,0,.04,0,.1-.03.16l-6.47,9.73c-.06.08-.14.1-.18.1-.04,0-.09,0-.13-.04-.07-.04-.09-.11-.09-.14,0-.03-.01-.1.03-.16Z"/>
      <path class="cls-1" d="M20.62,15.99h.12c.8-.03,1.45-.67,1.48-1.47l.54-12.92c.02-.41-.13-.8-.4-1.1S21.71.02,21.3,0c-.41-.01-.8.12-1.1.4-.3.28-.48.66-.5,1.07l-.54,12.92c-.02.41.13.8.4,1.1.28.3.66.48,1.07.5h0ZM20.47,14.45l.54-12.92c0-.08.05-.13.07-.15.03-.03.08-.06.16-.06.08,0,.12.04.15.07.02.03.06.08.06.16l-.54,12.92c0,.11-.1.21-.22.21h0c-.08,0-.12-.04-.15-.07-.02-.03-.06-.08-.06-.16Z"/>
      <path class="cls-1" d="M11.63,34.03h0c.79.05,1.48-.55,1.53-1.34.03-.38.08-.74.17-1.11.6-2.38,2.53-3.32,4.05-3.68.71-.17,1.23-.19,1.28-.19.79-.02,1.43-.68,1.41-1.47-.02-.78-.66-1.41-1.47-1.41-2.71.06-7.93,1.73-8.32,7.67-.05.79.55,1.48,1.34,1.54Z"/>
    </g>
  </g>
</svg>