<?xml version="1.0" encoding="UTF-8"?>
<svg id="Capa_2" data-name="Capa 2" xmlns="http://www.w3.org/2000/svg" viewBox="0 0 56.73 71.2">
  <defs>
    <style>
      .cls-1 {
        fill: #fff;
      }
    </style>
  </defs>
  <g id="Capa_1-2" data-name="Capa 1">
    <g>
      <path class="cls-1" d="M24.42,14.16v-6.4c0-1.05-.45-1.91-1.01-1.91s-1.01.85-1.01,1.91v1.22c1.61,2.92,1.85,5.95.35,8.25-.11.16-.23.31-.35.46v11.52h2.02v-9.07s-.02-.03-.02-.05c-.72-1.84-.7-3.87.02-5.93Z"/>
      <path class="cls-1" d="M56.21,7.62C53.96,1.88,44.99,0,36.22,3.44c-4.17,1.63-7.7,4.21-9.93,7.25-.84,1.15-1.47,2.31-1.87,3.47-.72,2.06-.74,4.09-.02,5.93,0,.02.02.03.02.05,1.51,3.76,5.91,5.85,11.24,5.85,2.75,0,5.75-.55,8.72-1.72,8.77-3.44,14.08-10.9,11.83-16.65ZM28.03,11.97c2-2.72,5.19-5.03,8.98-6.52h0c2.78-1.09,5.56-1.61,8.07-1.61,4.15,0,7.54,1.43,8.89,4.05l-16.2,6.59,1.3-5.15c.15-.58-.2-1.17-.78-1.31-.58-.15-1.17.2-1.31.78l-1.69,6.69-8.92,3.63c-.75-2.12-.16-4.65,1.68-7.16ZM43.59,22.25c-6.61,2.59-13.25,1.95-16.12-1.24l16.32-6.64,8.12,1.14c.05,0,.1.01.15.01.53,0,.99-.39,1.07-.93.08-.59-.33-1.14-.92-1.22l-4.42-.62,6.77-2.76c.36,4.38-4.15,9.58-10.97,12.26Z"/>
      <path class="cls-1" d="M14.07,29.21c-5.48,0-9.94,4.25-9.94,9.47v23.06c0,5.22,4.46,9.47,9.94,9.47h21.77c5.48,0,9.94-4.25,9.94-9.47v-7.04h0v-8.54h0v-7.49c0-5.22-4.46-9.47-9.94-9.47H14.07ZM43.61,61.73c0,4.03-3.49,7.3-7.78,7.3H14.07c-4.29,0-7.77-3.28-7.77-7.3v-5.96h37.32v5.96ZM43.61,53.61H6.29v-6.37h37.32v6.37ZM35.84,31.37c4.29,0,7.78,3.28,7.78,7.3v6.4H6.29v-6.4c0-4.03,3.49-7.3,7.77-7.3h21.77Z"/>
      <path class="cls-1" d="M22.4,8.98c-1.21-2.2-3.21-4.33-5.83-6.04h0C13.74,1.09,10.61.05,7.75,0,5.41-.04,3.46.6,2.08,1.81c-.04.03-.08.07-.12.11-.36.33-.69.7-.96,1.12-2.63,4.04.08,10.32,6.17,14.29,2.83,1.85,5.96,2.89,8.83,2.94.06,0,.13,0,.19,0,2.71,0,4.88-.91,6.21-2.58.12-.15.24-.3.35-.46,1.5-2.3,1.26-5.33-.35-8.25ZM16.04,18.1c-2.46-.04-5.18-.96-7.68-2.58C3.45,12.31.91,7.14,2.82,4.22c.04-.06.08-.11.12-.16l17.83,12.21c-.93,1.21-2.59,1.87-4.73,1.83ZM21.56,14.19l-2.94-2.01c0-.11-.03-.22-.07-.32l-1.86-4.67c-.22-.56-.85-.83-1.41-.61-.56.22-.83.85-.61,1.4l.82,2.06L4.74,2.67c.79-.33,1.74-.51,2.82-.51.05,0,.1,0,.16,0,2.46.04,5.18.96,7.68,2.58h0c3.99,2.6,6.41,6.5,6.16,9.44Z"/>
    </g>
  </g>
</svg>