<?xml version="1.0" encoding="UTF-8"?>
<svg id="Capa_2" data-name="Capa 2" xmlns="http://www.w3.org/2000/svg" viewBox="0 0 43.23 71.93">
  <defs>
    <style>
      .cls-1 {
        fill: #fff;
      }
    </style>
  </defs>
  <g id="Capa_1-2" data-name="Capa 1">
    <g>
      <path class="cls-1" d="M42.62,26.73c.41-1.67.61-3.39.61-5.11C43.23,9.7,33.54,0,21.62,0S0,9.7,0,21.62c0,1.72.21,3.44.61,5.11.58,3.51,1.37,6.34,2.36,8.41,2.12,4.46,11.06,19.19,15.17,25.9-5.55.71-8.12,3.09-8.12,5.34,0,2.68,3.63,5.56,11.6,5.56s11.6-2.88,11.6-5.56c0-2.25-2.58-4.63-8.12-5.34,4.1-6.71,13.04-21.44,15.17-25.9.99-2.07,1.78-4.9,2.36-8.41ZM29.87,66.38c-.23.63-3.02,2.22-8.26,2.22s-8.1-1.62-8.26-2.2c.15-.55,2.43-1.92,6.73-2.19.05.08.09.14.11.18.3.49.84.79,1.42.79s1.12-.3,1.42-.79c.02-.03.06-.1.11-.18,4.25.27,6.53,1.6,6.73,2.17ZM5.99,33.7c-.84-1.78-1.57-4.4-2.09-7.58,0-.04-.02-.09-.03-.13-.35-1.43-.53-2.91-.53-4.38C3.34,11.54,11.54,3.34,21.62,3.34s18.28,8.2,18.28,18.28c0,1.47-.18,2.94-.53,4.38-.01.04-.02.09-.03.13-.52,3.18-1.24,5.8-2.09,7.58-2.15,4.5-11.93,20.58-15.63,26.62-3.7-6.04-13.49-22.11-15.63-26.62Z"/>
      <path class="cls-1" d="M21.62,9.39c-6.4,0-11.6,5.2-11.6,11.6s5.2,11.6,11.6,11.6,11.6-5.2,11.6-11.6-5.2-11.6-11.6-11.6ZM13.35,20.99c0-4.56,3.71-8.26,8.26-8.26s8.26,3.71,8.26,8.26-3.71,8.26-8.26,8.26-8.26-3.71-8.26-8.26Z"/>
    </g>
  </g>
</svg>