<?xml version="1.0" encoding="UTF-8"?>
<svg id="Capa_2" data-name="Capa 2" xmlns="http://www.w3.org/2000/svg" viewBox="0 0 53.86 68.24">
  <defs>
    <style>
      .cls-1 {
        fill: #fff;
      }
    </style>
  </defs>
  <g id="Capa_1-2" data-name="Capa 1">
    <g>
      <path class="cls-1" d="M5.22,0C2.34,0,0,2.34,0,5.22v57.8c0,2.88,2.34,5.22,5.22,5.22h43.41c2.88,0,5.22-2.34,5.22-5.22V5.22c0-2.88-2.34-5.22-5.22-5.22H5.22ZM52.01,5.22v57.8c0,1.86-1.52,3.38-3.38,3.38H5.22c-1.86,0-3.38-1.52-3.38-3.38V5.22c0-1.86,1.52-3.38,3.38-3.38h43.41c1.86,0,3.38,1.52,3.38,3.38Z"/>
      <path class="cls-1" d="M47.48,7.94H6.45c-.7,0-1.26.56-1.26,1.26v12.66c0,.7.57,1.26,1.26,1.26h41.04c.7,0,1.26-.57,1.26-1.26v-12.66c0-.7-.57-1.26-1.26-1.26ZM46.22,20.6H7.71v-10.14h38.51v10.14Z"/>
      <path class="cls-1" d="M43.99,46.35h-7.86c-.7,0-1.26.56-1.26,1.26v14.08c0,.7.56,1.26,1.26,1.26h7.86c.7,0,1.26-.56,1.26-1.26v-14.08c0-.7-.56-1.26-1.26-1.26ZM42.73,60.43h-5.33v-11.55h5.33v11.55Z"/>
      <path class="cls-1" d="M37.8,33.41h4.52c1.39,0,2.51-1.32,2.51-2.95s-1.13-2.95-2.51-2.95h-4.52c-1.39,0-2.51,1.32-2.51,2.95s1.13,2.95,2.51,2.95ZM37.8,28.77h4.52c.68,0,1.25.77,1.25,1.69s-.57,1.69-1.25,1.69h-4.52c-.68,0-1.25-.77-1.25-1.69s.57-1.69,1.25-1.69Z"/>
      <path class="cls-1" d="M37.8,42.85h4.52c1.39,0,2.51-1.32,2.51-2.94s-1.13-2.95-2.51-2.95h-4.52c-1.39,0-2.51,1.32-2.51,2.95s1.13,2.94,2.51,2.94ZM37.8,38.22h4.52c.68,0,1.25.77,1.25,1.69s-.57,1.69-1.25,1.69h-4.52c-.68,0-1.25-.77-1.25-1.69s.57-1.69,1.25-1.69Z"/>
      <path class="cls-1" d="M29.54,27.51h-4.52c-1.39,0-2.52,1.32-2.52,2.95s1.13,2.95,2.52,2.95h4.52c1.39,0,2.51-1.32,2.51-2.95s-1.13-2.95-2.51-2.95ZM29.54,32.14h-4.52c-.68,0-1.25-.77-1.25-1.69s.57-1.69,1.25-1.69h4.52c.68,0,1.25.77,1.25,1.69s-.57,1.69-1.25,1.69Z"/>
      <path class="cls-1" d="M29.54,36.79h-4.52c-1.39,0-2.52,1.32-2.52,2.95s1.13,2.94,2.52,2.94h4.52c1.39,0,2.51-1.32,2.51-2.94s-1.13-2.95-2.51-2.95ZM29.54,41.42h-4.52c-.68,0-1.25-.77-1.25-1.68s.57-1.69,1.25-1.69h4.52c.68,0,1.25.77,1.25,1.69s-.57,1.68-1.25,1.68Z"/>
      <path class="cls-1" d="M16.75,27.51h-4.52c-1.39,0-2.52,1.32-2.52,2.95s1.13,2.95,2.52,2.95h4.52c1.39,0,2.52-1.32,2.52-2.95s-1.13-2.95-2.52-2.95ZM16.75,32.14h-4.52c-.68,0-1.25-.77-1.25-1.69s.57-1.69,1.25-1.69h4.52c.68,0,1.25.77,1.25,1.69s-.57,1.69-1.25,1.69Z"/>
      <path class="cls-1" d="M16.75,36.79h-4.52c-1.39,0-2.52,1.32-2.52,2.95s1.13,2.94,2.52,2.94h4.52c1.39,0,2.52-1.32,2.52-2.94s-1.13-2.95-2.52-2.95ZM16.75,41.42h-4.52c-.68,0-1.25-.77-1.25-1.68s.57-1.69,1.25-1.69h4.52c.68,0,1.25.77,1.25,1.69s-.57,1.68-1.25,1.68Z"/>
      <path class="cls-1" d="M16.75,46.07h-4.52c-1.39,0-2.52,1.32-2.52,2.95s1.13,2.94,2.52,2.94h4.52c1.39,0,2.52-1.32,2.52-2.94s-1.13-2.95-2.52-2.95ZM16.75,50.7h-4.52c-.68,0-1.25-.77-1.25-1.69s.57-1.69,1.25-1.69h4.52c.68,0,1.25.77,1.25,1.69s-.57,1.69-1.25,1.69Z"/>
      <path class="cls-1" d="M16.75,55.35h-4.52c-1.39,0-2.52,1.32-2.52,2.95s1.13,2.94,2.52,2.94h4.52c1.39,0,2.52-1.32,2.52-2.94s-1.13-2.95-2.52-2.95ZM16.75,59.98h-4.52c-.68,0-1.25-.77-1.25-1.68s.57-1.69,1.25-1.69h4.52c.68,0,1.25.77,1.25,1.69s-.57,1.68-1.25,1.68Z"/>
      <path class="cls-1" d="M29.23,46.07h-4.52c-1.39,0-2.52,1.32-2.52,2.95s1.13,2.94,2.52,2.94h4.52c1.39,0,2.51-1.32,2.51-2.94s-1.13-2.95-2.51-2.95ZM29.23,50.7h-4.52c-.68,0-1.25-.77-1.25-1.69s.57-1.69,1.25-1.69h4.52c.68,0,1.25.77,1.25,1.69s-.57,1.69-1.25,1.69Z"/>
      <path class="cls-1" d="M29.23,55.35h-4.52c-1.39,0-2.52,1.32-2.52,2.95s1.13,2.94,2.52,2.94h4.52c1.39,0,2.51-1.32,2.51-2.94s-1.13-2.95-2.51-2.95ZM29.23,59.98h-4.52c-.68,0-1.25-.77-1.25-1.68s.57-1.69,1.25-1.69h4.52c.68,0,1.25.77,1.25,1.69s-.57,1.68-1.25,1.68Z"/>
    </g>
  </g>
</svg>