<?xml version="1.0" encoding="UTF-8"?>
<svg id="Capa_2" data-name="Capa 2" xmlns="http://www.w3.org/2000/svg" viewBox="0 0 75.83 70.21">
  <defs>
    <style>
      .cls-1 {
        fill: #fff;
      }
    </style>
  </defs>
  <g id="Capa_1-2" data-name="Capa 1">
    <g>
      <path class="cls-1" d="M70.74,12.99c-.06-.13-.13-.25-.23-.35l-.08-.08c-.5-.53-1.25-.76-1.95-.58-.72.18-1.28.74-1.47,1.47-.16.63-.5,1.2-.98,1.64-.94.88-2.28,1.16-3.49.73-1.31-.46-2.2-1.64-2.44-3.25-.01-.08,0-.17,0-.25.38-1.72,1.45-2.87,2.94-3.14.73-.14,1.33-.66,1.57-1.36.23-.69.06-1.44-.44-1.97l-4.89-5.24c-.27-.29-.63-.49-1.01-.58-.1-.02-.2-.03-.31-.03-.49.01-.95.2-1.31.52l-4.66,4.24c-.27-.63-.64-1.21-1.12-1.72-2.18-2.34-5.9-2.51-8.32-.36-2.35,2.24-2.47,5.88-.29,8.29.47.52,1.01.93,1.62,1.25l-4.6,4.29c-.11.1-.19.21-.23.27-.23.3-.37.65-.41,1.01-.01.1,0,.21,0,.31.06.4.23.77.5,1.06l4.83,5.3c.49.54,1.23.77,1.93.6.72-.17,1.29-.73,1.48-1.45.39-1.46,1.62-2.43,3.36-2.68.08-.01.17,0,.25.01,1.59.37,2.7,1.35,3.05,2.7.32,1.24-.06,2.55-1.01,3.42-.48.44-1.07.73-1.71.84-.74.13-1.34.64-1.58,1.35-.24.69-.08,1.45.42,1.99l.07.08c.1.1.21.19.33.26l4.62,4.95c.32.34.76.57,1.23.63.05,0,.1,0,.15,0,.06,0,.12,0,.17-.01.22-.03.43-.1.65-.22.1-.05.26-.14.41-.29l5.05-4.6c.06-.06.12-.12.17-.19.37-.51.48-1.17.3-1.77-.18-.59-.61-1.06-1.19-1.28-.51-.19-.95-.49-1.32-.9-.64-.7-.96-1.61-.89-2.55.06-.95.5-1.8,1.24-2.42.03-.03.06-.05.09-.08.67-.68,1.56-1.03,2.51-1.04.95.01,1.83.4,2.48,1.09.37.4.64.86.79,1.38.17.59.6,1.06,1.18,1.29.59.23,1.26.17,1.79-.16.07-.04.14-.09.2-.15l5-4.66c.29-.27.49-.62.58-1.01.03-.11.04-.22.03-.33-.02-.48-.2-.93-.52-1.28l-4.56-5.01ZM69.16,22.86c-.26-.6-.63-1.15-1.08-1.63-1.12-1.2-2.63-1.87-4.26-1.89-1.63-.01-3.13.6-4.27,1.74-1.23,1.05-1.97,2.51-2.08,4.12-.11,1.63.43,3.19,1.53,4.4.44.49.97.9,1.54,1.21l-3.93,3.58-3.97-4.25c.77-.26,1.49-.68,2.09-1.23,1.64-1.49,2.3-3.74,1.75-5.89-.58-2.24-2.41-3.92-4.89-4.5-.37-.09-.77-.11-1.15-.05-2.44.34-4.31,1.7-5.16,3.7l-3.85-4.23,4.57-4.26c.19-.18.35-.39.46-.64.28-.5.33-1.08.15-1.62-.19-.57-.62-1.02-1.17-1.23-.51-.19-.95-.5-1.32-.9-1.27-1.39-1.2-3.51.13-4.78,1.38-1.23,3.54-1.13,4.81.22.37.4.63.86.78,1.38.17.57.58,1.04,1.13,1.27.53.22,1.11.21,1.63-.02.25-.09.48-.23.67-.4l4.63-4.21,3.9,4.18c-2.07.68-3.58,2.44-4.11,4.84-.08.37-.1.77-.04,1.15.38,2.52,1.91,4.48,4.09,5.24,2.09.73,4.39.24,6.01-1.27.6-.56,1.08-1.24,1.4-1.99l3.92,4.3-3.89,3.63Z"/>
      <path class="cls-1" d="M8.01,68.21c0,1.1.91,2,2.01,2h.01l23.17-.14c.06,0,.12-.01.18-.02.24.1.51.16.79.16l7.19-.04c.08,0,.17,0,.25-.03.61-.13,1.14-.54,1.41-1.1.27-.56.26-1.21-.03-1.76-.36-.71-.79-2.18.45-3.99.05-.07.11-.13.18-.18.8-.56,1.62-.84,2.45-.84,1.89,0,3.43,1.54,3.44,3.43,0,.55-.12,1.07-.36,1.55-.28.55-.28,1.19,0,1.75.28.56.81.97,1.42,1.1.08.02.16.03.25.02l6.83-.04c.54,0,1.05-.21,1.42-.6.38-.38.59-.89.58-1.43l-.04-7.14c0-1.12-.89-1.99-2.01-1.99-.39,0-.77.11-1.11.33-.55.35-1.18.54-1.85.54-1.28,0-2.45-.7-3.05-1.84-.65-1.22-.5-2.7.41-4.04.05-.07.11-.13.17-.18.8-.56,1.63-.84,2.46-.84.65,0,1.28.18,1.83.53.78.49,1.88.37,2.52-.27.37-.37.58-.88.57-1.41l-.04-7.17c0-1.1-.91-2-2.02-2l-6.13.04c.22-.63.32-1.28.32-1.96-.02-3.25-2.68-5.9-5.94-5.9-1.31,0-2.64.43-3.83,1.26.18-.25.36-.51.5-.79,1.06-2.05.83-4.52-.61-6.6-.22-.31-.5-.6-.82-.82-1.83-1.25-3.97-1.57-5.82-.91l-.04-6.13c0-1.1-.91-2-2.02-2l-6.15.04c.68-1.9.34-3.99-.96-5.86-.21-.31-.5-.59-.82-.81-1.2-.81-2.52-1.24-3.81-1.24h0c-1.59,0-3.09.62-4.21,1.75-1.12,1.13-1.74,2.63-1.73,4.22,0,.68.13,1.36.36,2l-6.15.04c-.54,0-1.04.22-1.42.6-.38.38-.59.89-.58,1.43l.04,7.19c0,.08,0,.16.03.25.19.93,1.02,1.6,1.96,1.6.32,0,.62-.07.91-.22,1.22-.62,2.66-.46,3.99.44.07.05.13.11.18.18.93,1.33,1.09,2.81.45,4.04-.59,1.14-1.76,1.85-3.06,1.86-.53,0-1.05-.12-1.53-.36-.28-.14-.57-.21-.87-.21-.95,0-1.78.68-1.97,1.63-.02.08-.02.16-.02.25l.04,6.83c0,.19.05.37.13.53,0,.03-.01.06-.01.09l.03,5.87c-1.9-.68-3.99-.34-5.86.96-.31.22-.59.5-.81.82-1.43,2.11-1.63,4.58-.54,6.62,1.04,1.95,3.07,3.16,5.28,3.14.68,0,1.36-.13,2-.36l.04,6.15ZM42.59,44.19c.36-.6.39-1.33.07-1.95-.36-.71-.79-2.17.44-3.99.05-.07.11-.14.18-.18.8-.55,1.62-.83,2.45-.83,1.89,0,3.43,1.54,3.45,3.42,0,.55-.12,1.07-.36,1.55-.31.61-.28,1.33.09,1.92.37.6,1.02.96,1.73.96l6.38-.04.03,5.85c-1.96-.88-4.33-.6-6.3.77-.32.22-.6.5-.82.82-1.43,2.1-1.63,4.57-.56,6.6,1.03,1.95,3.04,3.16,5.28,3.16.85,0,1.69-.19,2.45-.55l.03,5.85-5.47.03c.21-.62.32-1.28.31-1.93-.02-3.25-2.68-5.9-5.94-5.9-1.32,0-2.66.44-3.87,1.28-.31.22-.6.5-.81.82-1.27,1.86-1.59,3.93-.92,5.8l-5.82.03-.04-6.4c0-1.11-.91-2.01-2.01-2.01-.32,0-.64.08-.92.23-.49.26-1.02.39-1.6.4-1.28,0-2.45-.7-3.05-1.83-.65-1.22-.5-2.69.41-4.03.05-.07.11-.13.17-.18,1.34-.94,2.81-1.1,4.02-.48.76.39,1.73.23,2.33-.38.38-.38.59-.89.58-1.43l-.04-6.4,6.38-.04c.7,0,1.34-.37,1.71-.97ZM40.14,42.68l-4.9.03-.03-4.61c.62.21,1.27.32,1.95.32,1.41,0,2.73-.52,3.78-1.39-1.17,1.82-1.46,3.83-.8,5.64ZM12.14,38.75c2.21-.01,4.22-1.24,5.24-3.2,1.06-2.05.83-4.52-.62-6.61-.22-.32-.5-.59-.82-.81-1.83-1.25-3.96-1.57-5.8-.92l-.03-5.82,6.4-.04c.71,0,1.36-.37,1.72-.99.36-.6.38-1.32.06-1.94-.26-.49-.39-1.02-.4-1.58,0-.92.35-1.79,1-2.45.65-.66,1.52-1.02,2.45-1.02h0c.81,0,1.62.27,2.41.81.07.05.13.11.18.17.93,1.33,1.1,2.79.48,4.02-.32.62-.29,1.35.08,1.95.37.6,1.01.96,1.73.96l6.4-.04.04,6.38c0,1.1.91,2,2.01,2,.31,0,.62-.07.91-.22,1.2-.62,2.66-.47,3.99.44.07.05.13.11.18.18.93,1.33,1.09,2.8.45,4.03-.59,1.14-1.76,1.85-3.06,1.86-.54,0-1.05-.12-1.52-.35-.74-.38-1.71-.22-2.31.38-.38.38-.59.9-.59,1.44l.03,5.81c-.12.11-.24.23-.34.36h0s0,0,0,0h0c-.05.06-.09.13-.12.2l-6.12.04c-.28,0-.53-.14-.66-.38-.14-.25-.12-.55.03-.8,1.07-1.69.94-3.81-.35-5.67-.13-.18-.3-.35-.49-.48-1-.68-2.06-1.03-3.13-1.03-1.26,0-2.44.49-3.33,1.38-.89.89-1.37,2.08-1.36,3.34,0,.89.26,1.75.74,2.5.16.25.17.56.04.81-.13.24-.38.39-.66.39l-6.75.04-.03-5.47c.61.21,1.25.31,1.93.31ZM5.95,59.93c-1.28-.02-2.46-.69-3.06-1.83-.65-1.22-.51-2.7.41-4.05.04-.06.1-.13.17-.17,1.33-.93,2.79-1.1,4.02-.48.63.32,1.36.29,1.96-.08.6-.37.96-1.02.96-1.73l-.03-5.21,6.64-.04c1.18,0,2.27-.66,2.83-1.7.57-1.05.52-2.33-.13-3.34-.22-.35-.34-.75-.35-1.17,0-.59.22-1.15.64-1.56.79-.8,2.04-.86,3.2-.11.41.62.91,1.74.23,2.82-.64,1.01-.68,2.29-.11,3.33.57,1.03,1.66,1.67,2.85,1.67l5.84-.03.03,4.62c-1.88-.66-4.03-.32-5.86.96-.31.22-.59.5-.81.82-1.42,2.1-1.63,4.57-.55,6.6,1.03,1.95,3.04,3.16,5.28,3.16.68,0,1.36-.13,2-.36l.03,5.35c-.05.06-.1.12-.14.18l-21.51.13-.04-6.4c0-.71-.37-1.36-.99-1.72-.6-.36-1.32-.38-1.94-.06-.49.26-1.02.39-1.58.4Z"/>
    </g>
  </g>
</svg>