<?xml version="1.0" encoding="UTF-8"?>
<svg id="Capa_2" data-name="Capa 2" xmlns="http://www.w3.org/2000/svg" viewBox="0 0 77.34 50.01">
  <defs>
    <style>
      .cls-1 {
        fill: #fff;
      }
    </style>
  </defs>
  <g id="Capa_1-2" data-name="Capa 1">
    <g>
      <path class="cls-1" d="M6.93,49.01c.08.36.32.66.64.84.32.18.7.21,1.04.09.21-.07,20.91-7.05,29.89-7.05s29.4,6.97,29.6,7.04c.14.05.28.07.42.07.21,0,.42-.05.61-.15.32-.17.55-.47.64-.82l7.52-29.23c.16-.63-.16-1.28-.76-1.52-.1-.04-5.62-2.28-14.13-4.26l1.98-7.71c.16-.63-.16-1.28-.76-1.52-.47-.2-11.78-4.79-25.71-4.79C26.15,0,13.91,4.58,13.4,4.77c-.61.23-.95.88-.8,1.51l1.86,7.9c-7.72,1.87-13.2,3.92-13.62,4.08-.61.23-.95.88-.8,1.51l6.89,29.23ZM61.59,6.79l-1.72,6.68c-6.3-1.32-13.93-2.4-22.08-2.4-7.23,0-14.58,1.15-20.81,2.53l-1.6-6.78c3.22-1.1,13.18-4.23,22.53-4.23,11.03,0,20.58,3.08,23.67,4.2ZM37.79,13.67c17.58,0,32.68,5.12,36.71,6.61l-6.89,26.76c-4.77-1.58-20.91-6.74-29.12-6.74s-24.52,5.15-29.37,6.74L2.83,20.31c4.21-1.47,20.09-6.65,34.96-6.65Z"/>
      <path class="cls-1" d="M34.51,22.97h-5.3c-.54,0-.97.44-.97.97v6.37c0,.54.43.97.97.97h5.3v5.3c0,.54.44.97.97.97h6.37c.54,0,.97-.44.97-.97v-5.3h5.3c.54,0,.97-.44.97-.97v-6.37c0-.54-.43-.97-.97-.97h-5.3v-5.3c0-.54-.44-.97-.97-.97h-6.37c-.54,0-.97.44-.97.97v5.3ZM40.88,18.65v5.3c0,.54.44.97.97.97h5.3v4.42h-5.3c-.54,0-.97.44-.97.97v5.3h-4.42v-5.3c0-.54-.43-.97-.97-.97h-5.3v-4.42h5.3c.54,0,.97-.44.97-.97v-5.3h4.42Z"/>
    </g>
  </g>
</svg>