<?xml version="1.0" encoding="UTF-8"?>
<svg id="Capa_2" data-name="Capa 2" xmlns="http://www.w3.org/2000/svg" viewBox="0 0 59.33 39.36">
  <defs>
    <style>
      .cls-1 {
        fill: #fff;
      }
    </style>
  </defs>
  <g id="Capa_1-2" data-name="Capa 1">
    <g>
      <path class="cls-1" d="M17.18,38.32c0,.27.1.54.29.74.19.19.46.31.73.31h22.73c.55,0,1.01-.44,1.03-1,0-.14.04-1.6-.26-3.59h16.6c.55,0,1.01-.44,1.03-1,.01-.35.22-8.68-5-13.46-.37-.34-.92-.36-1.32-.06-.06.05-6.13,4.61-11.78,0-.39-.32-.94-.31-1.32.02-.12.11-1.78,1.58-3.22,4.44-.33-.14-.73-.11-1.03.12-.25.19-6.16,4.59-11.78,0-.28-.22-.64-.28-.96-.18-.73-1.56-1.73-3.08-3.12-4.36-.37-.34-.92-.36-1.32-.06-.06.05-6.13,4.61-11.78,0-.39-.32-.95-.31-1.32.02C5.15,20.47.13,24.94,0,33.74c0,.27.1.54.3.74.19.2.46.31.73.31h16.49c-.19,1.09-.33,2.27-.34,3.55ZM40.68,22.43c5.37,3.75,10.85,1.14,12.82-.04,3.05,3.28,3.64,8.23,3.75,10.33h-15.96c-.52-2.1-1.44-4.45-3.05-6.45.85-1.86,1.84-3.15,2.44-3.84ZM23.32,27.02c5.37,3.75,10.85,1.14,12.82-.04,3.05,3.28,3.64,8.23,3.75,10.33h-20.61c.36-5.52,2.9-8.98,4.05-10.29ZM2.09,32.72c.36-5.52,2.9-8.99,4.05-10.29,5.37,3.75,10.85,1.14,12.82-.04,1.05,1.13,1.81,2.46,2.36,3.81-1.02,1.26-2.44,3.43-3.33,6.52H2.09Z"/>
      <path class="cls-1" d="M2.67,9.72c0,5.36,4.36,9.72,9.72,9.72h0c2.59,0,5.03-1.01,6.87-2.85.25-.25.49-.52.71-.8.72,4.66,4.74,8.24,9.6,8.24h0c2.59,0,5.03-1.01,6.87-2.85,1.53-1.53,2.48-3.49,2.76-5.59,1.78,2.34,4.58,3.86,7.74,3.86h0c2.59,0,5.03-1.01,6.87-2.85,1.84-1.84,2.85-4.28,2.85-6.87,0-5.36-4.36-9.72-9.72-9.72-2.59,0-5.03,1.01-6.87,2.85-1.53,1.53-2.48,3.48-2.75,5.59-1.78-2.34-4.58-3.86-7.73-3.86-2.59,0-5.03,1.01-6.87,2.85-.25.26-.49.52-.71.8C21.27,3.58,17.25,0,12.39,0c-2.59,0-5.03,1.01-6.87,2.85-1.84,1.84-2.85,4.28-2.85,6.87ZM41.51,4.3c1.45-1.45,3.38-2.25,5.42-2.25,4.22,0,7.66,3.44,7.67,7.66,0,2.04-.8,3.97-2.25,5.42-1.45,1.45-3.37,2.25-5.42,2.25h0c-4.23,0-7.67-3.44-7.67-7.66,0-2.04.8-3.97,2.25-5.42ZM24.15,8.89c1.45-1.45,3.37-2.25,5.42-2.25,4.22,0,7.67,3.44,7.67,7.66,0,2.04-.8,3.97-2.25,5.42-1.45,1.45-3.37,2.25-5.41,2.25h0c-4.23,0-7.67-3.44-7.67-7.66,0-2.04.8-3.97,2.25-5.42ZM12.4,2.05c4.22,0,7.66,3.44,7.67,7.66,0,2.04-.8,3.97-2.25,5.42-1.45,1.45-3.37,2.25-5.42,2.25h0c-4.23,0-7.67-3.44-7.67-7.66,0-2.04.8-3.97,2.25-5.42,1.45-1.45,3.38-2.25,5.42-2.25Z"/>
    </g>
  </g>
</svg>