<?xml version="1.0" encoding="UTF-8"?>
<svg id="Capa_2" data-name="Capa 2" xmlns="http://www.w3.org/2000/svg" viewBox="0 0 64.87 59.5">
  <defs>
    <style>
      .cls-1 {
        fill: #fff;
      }
    </style>
  </defs>
  <g id="Capa_1-2" data-name="Capa 1">
    <g>
      <path class="cls-1" d="M32.97,19.6c-1.1,0-2.24-.34-3.12-.93l-.6-.4-.96,2.68.35.25c.83.59,2.12,1.01,3.42,1.13v2.44h2.63v-2.59c2.27-.56,3.77-2.33,3.77-4.52,0-2.87-2.16-4.12-4.05-4.89-2.23-.93-2.61-1.43-2.61-2.2,0-.72.52-1.49,1.96-1.49s2.34.52,2.73.74l.57.33,1-2.64-.41-.24c-.83-.49-1.76-.78-2.82-.88v-2.35h-2.61v2.51c-2.2.54-3.6,2.18-3.6,4.31,0,2.61,2.06,3.78,4.29,4.65,1.67.67,2.35,1.35,2.35,2.32,0,1.06-.91,1.77-2.28,1.77ZM33.32,14.46c-2.58-1.01-3.58-2.02-3.58-3.6,0-1.71,1.2-2.97,3.13-3.29l.47-.08v-2.33h.35v2.3l.55.02c.91.03,1.71.21,2.42.54l-.19.51c-.59-.27-1.5-.58-2.71-.58-2.14,0-3.09,1.32-3.09,2.62,0,1.73,1.43,2.47,3.31,3.24,2.38.97,3.35,2.08,3.35,3.85s-1.29,3.17-3.3,3.5l-.47.08v2.4h-.37v-2.4h-.55c-1.06-.03-2.19-.31-2.98-.73l.19-.53c.95.49,2.06.76,3.13.76,1.97,0,3.4-1.22,3.4-2.9,0-1.89-1.63-2.79-3.05-3.36Z"/>
      <path class="cls-1" d="M45.65,20.99c1.17-2.05,1.84-4.41,1.84-6.94,0-7.75-6.3-14.05-14.05-14.05s-14.05,6.3-14.05,14.05c0,2.52.67,4.89,1.84,6.94H4.31L0,32.72l2.03,26.78h61.07l1.77-26.84-5.47-11.67h-13.74ZM21,14.05c0-6.86,5.58-12.44,12.44-12.44,2.73,0,5.26.89,7.32,2.39.16.12.31.23.46.36,1.17.94,2.17,2.09,2.94,3.39,1.09,1.85,1.72,4.01,1.72,6.31,0,.43-.02.85-.06,1.27-.13,1.25-.44,2.45-.91,3.57-.95,2.23-2.52,4.13-4.51,5.47-1.98,1.34-4.38,2.13-6.95,2.13-6.86,0-12.44-5.58-12.44-12.44ZM36.45,27.77h16.81v2.88H11.61v-2.88h18.82c.06.01.12.02.17.03.9.18,1.82.29,2.77.29.02,0,.04,0,.06,0,1.03,0,2.04-.11,3.01-.33ZM60.84,57.08H4.27l-1.63-21.47h59.6l-1.41,21.47ZM62.38,33.59l-.02.32H2.51l-.02-.32-.04-.53,3.55-9.66h16.97c.2.22.42.43.63.64,1.06,1.04,2.28,1.93,3.62,2.6H10.48v5.14h43.91v-5.14h-14.72c1.62-.8,3.06-1.91,4.25-3.24h13.94l4.56,9.72-.03.47Z"/>
    </g>
  </g>
</svg>