<?xml version="1.0" encoding="UTF-8"?>
<svg id="Capa_2" data-name="Capa 2" xmlns="http://www.w3.org/2000/svg" viewBox="0 0 61.4 67.97">
  <defs>
    <style>
      .cls-1 {
        fill: #fff;
      }
    </style>
  </defs>
  <g id="Capa_1-2" data-name="Capa 1">
    <g>
      <path class="cls-1" d="M19.51,28.96C8.75,28.96,0,37.71,0,48.47s8.75,19.51,19.51,19.51c8.5,0,15.75-5.47,18.41-13.08,1.32.05,2.52.07,3.51.07,5.99,0,19.92-.64,19.92-6.51,0-.02,0-.04,0-.05,0-.01,0-.03,0-.04v-7.84c.04-.17.06-.35.06-.54s-.02-.34-.06-.51v-6.45c.04-.17.06-.35.06-.54s-.02-.34-.06-.51v-7.18c.04-.17.06-.35.06-.54,0-.31-.06-.6-.16-.87.06-.26.1-.53.1-.81,0-.02,0-.04,0-.05s0-.03,0-.05v-7.84c.04-.17.06-.35.06-.54,0-.18-.02-.34-.06-.51v-7.18c.04-.17.06-.35.06-.54,0-.32-.06-.62-.17-.9-.17-.6-.55-1.11-1.05-1.42C56.11.12,43.15,0,41.43,0s-14.69.12-18.76,3.57c-.5.32-.88.82-1.05,1.42-.11.29-.17.59-.17.91,0,.19.02.37.06.54v7.18c-.03.16-.06.33-.06.51,0,.19.02.37.06.54v7.84s0,.04,0,.05c0,.02,0,.03,0,.05,0,.28.04.55.1.81-.1.28-.16.56-.16.87,0,.18.02.36.06.54v4.25c-.66-.07-1.33-.1-2-.1ZM59.07,48.3s0,.1,0,.14c0,.02,0,.04,0,.06-.11,2.19-7.99,3.96-17.65,3.96-.96,0-1.9-.02-2.81-.06.26-1.27.4-2.59.4-3.95,0-.34,0-.69-.03-1.03.9.03,1.73.04,2.44.04,4.49,0,13.45-.36,17.65-3.01v3.84ZM59.07,40.81s0,.1,0,.14c0,.02,0,.04,0,.06-.11,2.19-7.99,3.96-17.65,3.96-.94,0-1.85-.02-2.74-.05-.38-2.07-1.08-4.02-2.06-5.81,1.82.11,3.51.14,4.81.14,4.49,0,13.45-.36,17.65-3.01v4.57ZM59.07,22.44s0,.1,0,.14c0,.02,0,.04,0,.07-.11,2.19-7.99,3.96-17.65,3.96s-17.54-1.77-17.64-3.96c0-.04,0-.09,0-.12,0-.03,0-.05,0-.08v-4.57c4.19,2.66,13.15,3.01,17.65,3.01s13.45-.36,17.65-3.01v4.57ZM41.43,2.88c10.02,0,16.23,1.86,17.27,3.02-1.05,1.16-7.26,3.02-17.27,3.02s-16.23-1.86-17.27-3.02c1.05-1.16,7.26-3.02,17.27-3.02ZM41.43,11.8c1.59,0,12.73-.1,17.65-2.82v5.24c0,.05,0,.1,0,.14,0,.02,0,.04,0,.06-.11,2.19-7.99,3.96-17.65,3.96s-17.54-1.77-17.64-3.96c0-.04,0-.09,0-.12,0-.02,0-.05,0-.08v-5.24c4.91,2.72,16.06,2.82,17.65,2.82ZM41.43,30.17c1.59,0,12.73-.1,17.65-2.82v5.24s0,.1,0,.14c0,.02,0,.04,0,.06-.11,2.19-7.99,3.96-17.65,3.96-2.32,0-4.53-.1-6.56-.29-2.73-3.49-6.62-6.03-11.09-7.03v-2.09c4.92,2.72,16.06,2.82,17.65,2.82ZM36.51,48.47c0,9.38-7.63,17.01-17.01,17.01S2.5,57.84,2.5,48.47s7.63-17.01,17.01-17.01,17.01,7.63,17.01,17.01Z"/>
      <path class="cls-1" d="M6.36,48.47c0,7.25,5.9,13.14,13.14,13.14s13.14-5.9,13.14-13.14-5.9-13.14-13.14-13.14-13.14,5.89-13.14,13.14ZM30.98,48.47c0,6.33-5.15,11.48-11.48,11.48s-11.48-5.15-11.48-11.48,5.15-11.48,11.48-11.48,11.48,5.15,11.48,11.48Z"/>
      <path class="cls-1" d="M17.9,40.18v1.41c-.69.26-1.28.65-1.75,1.15-.73.78-1.14,1.82-1.14,2.92,0,.59.11,1.13.33,1.63.3.68.81,1.29,1.52,1.79.55.39,1.22.74,2.13,1.1.74.3,1.05.55,1.17.67.09.09.12.15.14.19.02.04.04.1.04.2,0,.17-.05.26-.16.36-.17.14-.47.23-.82.23-.83.04-1.6-.31-2.04-.6l-.49-.33c-.21-.14-.48-.18-.72-.1-.24.08-.44.27-.52.51l-.78,2.17c-.13.35,0,.74.3.96l.29.2c.46.33,1.03.59,1.69.78.23.07.46.12.7.17v1.24c0,.46.37.83.83.83h2.13c.46,0,.83-.37.83-.83v-1.47c.77-.29,1.43-.74,1.93-1.32.7-.81,1.09-1.85,1.09-2.92,0-.57-.09-1.11-.26-1.59-.26-.73-.72-1.37-1.37-1.9-.54-.45-1.21-.83-2.1-1.2-.03-.01-.06-.03-.09-.04-.89-.37-1.26-.6-1.41-.74-.05-.05-.09-.09-.11-.12,0,0-.01-.04-.01-.11,0-.05.01-.13.07-.18.11-.11.35-.17.66-.17.4,0,.76.06,1.1.17.28.09.49.21.67.31l.47.27c.21.12.47.14.7.06.23-.08.41-.26.5-.49l.81-2.13c.14-.38,0-.81-.36-1.01l-.34-.2c-.56-.33-1.18-.56-1.85-.7v-1.17c0-.46-.37-.83-.83-.83h-2.11c-.46,0-.83.37-.83.83ZM19.57,42.2v-1.19h.45v1.05c0,.43.33.79.75.83.6.06,1.16.21,1.64.45l-.21.57c-.17-.08-.36-.16-.58-.24-.51-.17-1.06-.26-1.64-.26-.77,0-1.39.22-1.82.64-.37.36-.57.85-.57,1.38,0,.32.05.58.17.82.11.24.28.46.51.66.37.33.96.65,1.92,1.04h0c.75.31,1.29.61,1.71.96.41.34.71.74.86,1.18.11.3.16.65.16,1.03,0,.68-.24,1.33-.68,1.83h0c-.42.48-1.01.82-1.71.99-.37.09-.64.42-.64.81v1.24h-.47v-1.12c0-.43-.33-.79-.76-.83-.39-.04-.77-.11-1.14-.22-.36-.1-.69-.24-.95-.39l.21-.58c.77.41,1.69.65,2.55.65.77.01,1.42-.21,1.91-.62.49-.41.75-.97.76-1.63,0-.32-.06-.6-.17-.86-.11-.26-.27-.49-.49-.71-.38-.38-.95-.73-1.74-1.05-.78-.31-1.34-.59-1.78-.9-.47-.33-.78-.69-.96-1.1-.13-.29-.19-.61-.19-.97,0-.67.24-1.3.69-1.77.39-.41.93-.72,1.57-.87.37-.09.64-.42.64-.81Z"/>
    </g>
  </g>
</svg>