<?xml version="1.0" encoding="UTF-8"?>
<svg id="Capa_2" data-name="Capa 2" xmlns="http://www.w3.org/2000/svg" viewBox="0 0 73.37 79.09">
  <defs>
    <style>
      .cls-1 {
        fill: #fff;
      }
    </style>
  </defs>
  <g id="Capa_1-2" data-name="Capa 1">
    <g>
      <path class="cls-1" d="M47.6,26.75c-.27-.22-.62-.31-.96-.24l-30.53,5.89c-.55.1-.94.58-.94,1.14v30.12c-2.19-.26-4.7.09-7.12,1.02-5.76,2.21-9.16,6.87-7.72,10.6.72,1.88,2.53,3.17,5.09,3.64.67.12,1.37.18,2.09.18,1.81,0,3.77-.38,5.66-1.11,4.8-1.84,8.09-5.48,8.05-8.89,0-.02,0-.05,0-.07v-19.74l20.77-4.01v11.73c-2.19-.26-4.7.09-7.12,1.02-5.76,2.21-9.16,6.87-7.72,10.6.72,1.88,2.53,3.17,5.08,3.63,2.35.42,5.1.09,7.75-.92,4.69-1.8,7.97-5.37,8.04-8.72,0-.05,0-.1,0-.14V27.65c0-.34-.14-.65-.38-.86-.01-.01-.03-.02-.04-.04ZM45.7,62.35s0,.09,0,.14c.02,2.4-2.74,5.21-6.55,6.68-2.26.87-4.57,1.15-6.5.81-1.72-.31-2.91-1.08-3.33-2.18-.93-2.43,1.99-5.91,6.39-7.6,2.52-.97,5.13-1.21,7.14-.67.35.09.72.02,1.01-.2.29-.22.46-.56.46-.92v-14.54c0-.35-.16-.68-.42-.9-.27-.22-.62-.31-.96-.24l-23.09,4.45c-.55.11-.94.58-.94,1.14v20.6s0,.09,0,.14c.08,2.38-2.74,5.28-6.55,6.75-2.26.87-4.57,1.15-6.51.81-1.72-.31-2.91-1.08-3.33-2.18-.93-2.43,1.99-5.91,6.39-7.6,1.64-.63,3.31-.95,4.83-.95.82,0,1.61.09,2.31.29.35.1.72.02,1.01-.2.29-.22.46-.56.46-.92v-30.56l28.21-5.44v33.3Z"/>
      <path class="cls-1" d="M20.05,45.26c.07,0,.15,0,.22-.02l23.1-4.46c.55-.1.94-.58.94-1.14v-3.22c0-.35-.16-.68-.42-.9-.27-.22-.62-.31-.96-.24l-23.09,4.46c-.55.11-.94.58-.94,1.14v3.22c0,.35.16.68.42.9.21.17.47.26.74.26ZM21.21,41.83l20.77-4.01v.85l-20.77,4.01v-.85Z"/>
      <path class="cls-1" d="M73.35,4.21s-.02-.05-.03-.08c-.07-.17-.22-.29-.41-.34L56.02.01c-.27-.06-.55.08-.66.34l-6.73,15.45c-1.06-.64-2.44-1.03-3.89-1.09-1.57-.07-3.07.24-4.22.87-1.25.68-1.96,1.66-2.01,2.76-.05,1.1.58,2.14,1.76,2.93,1.09.73,2.56,1.17,4.13,1.24,2.84.13,5.3-.99,6.03-2.72,0,0,0-.02.01-.03l4.41-10.13,11.63,2.6-2.67,6.13c-1.06-.64-2.44-1.03-3.89-1.09-3.4-.15-6.14,1.45-6.23,3.63-.05,1.1.58,2.14,1.76,2.93,1.09.73,2.56,1.17,4.13,1.24.14,0,.28.01.43.01,2.59,0,4.83-1.05,5.56-2.64.01-.02.02-.04.03-.07l7.75-17.78c.05-.13.06-.26.03-.39ZM64.54,21.85s-.02.04-.04.07c-.54,1.26-2.59,2.09-4.89,1.99-1.36-.06-2.61-.43-3.53-1.05-.83-.56-1.27-1.23-1.24-1.91.06-1.42,2.16-2.53,4.65-2.53.12,0,.24,0,.37,0,1.52.07,2.92.53,3.83,1.26.14.11.33.15.5.11.18-.04.32-.17.39-.33l3.23-7.43c.07-.16.06-.34-.02-.5-.08-.15-.22-.27-.39-.3l-12.78-2.86c-.27-.06-.55.08-.66.34l-4.59,10.53s-.02.04-.03.06c-.5,1.26-2.61,2.13-4.91,2.03-1.36-.06-2.61-.43-3.53-1.05-.83-.56-1.27-1.23-1.24-1.91.03-.68.53-1.31,1.41-1.79.97-.53,2.25-.79,3.61-.73,1.52.07,2.92.53,3.83,1.26.14.11.33.15.5.11.18-.04.32-.17.39-.33l6.82-15.66,15.74,3.52-7.44,17.08Z"/>
      <path class="cls-1" d="M55.63,4.92l-.72,1.64c-.07.16-.06.34.01.5.08.15.22.26.39.3l12.78,2.86s.08.02.13.02c.23,0,.44-.14.53-.35l.71-1.64c.07-.16.06-.34-.02-.5-.08-.16-.22-.27-.39-.3l-12.78-2.86c-.27-.06-.55.08-.66.34ZM56.5,5.83l11.63,2.6-.24.56-11.63-2.6.24-.56Z"/>
    </g>
  </g>
</svg>