<?xml version="1.0" encoding="UTF-8"?>
<svg id="Capa_2" data-name="Capa 2" xmlns="http://www.w3.org/2000/svg" viewBox="0 0 62.67 62.67">
  <defs>
    <style>
      .cls-1 {
        fill: #fff;
      }
    </style>
  </defs>
  <g id="Capa_1-2" data-name="Capa 1">
    <path class="cls-1" d="M53.85,9.57C47.88,3.4,39.88,0,31.33,0S15.4,3.15,9.52,8.87h0C3.38,14.83,0,22.81,0,31.33s3.38,16.5,9.52,22.47c0,0,0,0,0,0,5.89,5.72,13.64,8.87,21.82,8.87s16.55-3.4,22.52-9.57c5.69-5.88,8.82-13.61,8.82-21.76s-3.13-15.88-8.82-21.76h0ZM10.49,11.86c4.65,4.97,7.33,11.3,7.66,18.07H2.83c.33-6.77,3.01-13.1,7.66-18.07ZM2.83,32.73h15.32c-.32,6.77-3.01,13.1-7.66,18.07-4.65-4.97-7.33-11.3-7.66-18.07ZM29.94,59.84c-6.47-.31-12.57-2.79-17.44-7.09.02-.02.03-.03.05-.05.12-.13.24-.27.36-.41.22-.25.45-.49.66-.75.13-.16.26-.32.39-.48.19-.24.39-.47.57-.71.13-.17.26-.35.39-.52.17-.23.35-.47.51-.71.13-.18.25-.37.37-.55.16-.24.31-.47.46-.71.12-.19.23-.39.35-.58.14-.24.28-.48.42-.73.11-.2.22-.4.32-.59.13-.25.26-.49.38-.74.1-.2.2-.41.29-.61.12-.25.23-.5.34-.76.09-.21.18-.41.26-.62.11-.26.21-.52.31-.78.08-.21.16-.42.23-.63.09-.27.18-.53.27-.8.07-.21.14-.42.2-.63.08-.27.16-.55.23-.83.06-.21.11-.42.17-.63.07-.28.13-.57.2-.86.04-.21.09-.42.13-.63.06-.3.11-.6.16-.9.03-.2.07-.4.1-.6.05-.32.08-.64.12-.96.02-.18.05-.37.06-.55.04-.37.06-.74.08-1.11,0-.14.02-.28.03-.43,0-.05,0-.1,0-.16h8.99v27.11ZM29.94,29.93h-8.99c0-.05,0-.1,0-.16,0-.14-.02-.28-.03-.43-.02-.37-.05-.74-.08-1.11-.02-.18-.04-.37-.06-.55-.04-.32-.07-.65-.12-.97-.03-.2-.07-.4-.1-.6-.05-.3-.1-.6-.16-.9-.04-.21-.09-.42-.13-.62-.06-.29-.13-.57-.2-.86-.05-.21-.11-.42-.17-.63-.08-.28-.15-.55-.23-.83-.06-.21-.13-.42-.2-.63-.09-.27-.18-.54-.27-.8-.07-.21-.15-.42-.23-.63-.1-.26-.2-.52-.31-.78-.09-.21-.17-.41-.26-.62-.11-.26-.23-.51-.35-.76-.1-.2-.19-.41-.29-.61-.12-.25-.25-.5-.39-.75-.11-.2-.21-.4-.32-.59-.14-.24-.28-.49-.42-.73-.11-.19-.23-.38-.35-.57-.15-.24-.31-.48-.47-.72-.12-.18-.24-.37-.37-.55-.17-.24-.34-.48-.52-.71-.13-.17-.25-.35-.38-.52-.19-.24-.38-.48-.58-.72-.13-.16-.26-.32-.39-.47-.22-.25-.44-.5-.66-.75-.12-.13-.24-.27-.36-.4-.02-.02-.03-.04-.05-.05,4.87-4.3,10.97-6.77,17.44-7.09v27.1ZM32.73,2.83c6.82.33,13.18,3.04,18.17,7.75-.02.02-.03.04-.05.06-.12.14-.24.28-.36.42-.2.23-.4.47-.59.71-.13.16-.25.32-.37.49-.17.23-.35.45-.52.68-.13.17-.24.35-.37.52-.16.23-.32.45-.47.68-.12.18-.23.36-.35.54-.14.23-.29.46-.43.7-.11.19-.22.38-.33.56-.13.23-.26.47-.39.71-.1.19-.2.39-.3.59-.12.24-.24.47-.35.71-.1.2-.19.4-.28.6-.11.24-.21.49-.32.73-.08.2-.17.41-.25.61-.1.25-.19.49-.28.74-.08.21-.15.41-.22.62-.08.25-.17.51-.24.76-.06.21-.13.42-.19.63-.07.26-.14.52-.21.78-.05.21-.11.42-.16.63-.06.26-.12.53-.18.8-.05.21-.09.42-.13.63-.05.28-.1.55-.14.83-.03.2-.07.4-.1.61-.04.29-.07.59-.11.88-.02.19-.05.38-.07.58-.03.33-.05.65-.07.98-.01.16-.03.32-.03.49,0,.03,0,.06,0,.08h-10.32V2.83ZM32.73,59.84v-27.11h10.32s0,.06,0,.08c0,.16.02.32.03.49.02.33.04.66.07.98.02.19.04.38.07.57.03.3.07.59.11.89.03.2.06.4.1.61.05.28.09.56.14.83.04.21.08.42.13.62.06.27.11.54.18.8.05.21.11.42.16.63.07.26.14.52.21.78.06.21.12.42.19.62.08.26.16.51.25.76.07.21.14.41.22.62.09.25.18.5.28.75.08.2.16.41.25.61.1.24.21.49.32.73.09.2.18.4.27.6.12.24.23.48.35.72.1.19.2.39.3.58.13.24.26.47.39.71.11.19.21.37.32.56.14.23.29.47.43.7.11.18.23.36.34.54.15.23.31.46.47.69.12.17.24.35.36.51.17.23.35.46.52.69.13.16.25.32.37.48.19.24.39.47.59.7.12.14.24.29.37.43.02.02.03.04.05.06-4.98,4.71-11.35,7.43-18.17,7.75ZM52.84,50.06c-4.24-4.86-6.68-10.92-6.99-17.33h13.99c-.31,6.41-2.76,12.48-6.99,17.33ZM45.85,29.93c.31-6.41,2.76-12.48,6.99-17.33,4.24,4.85,6.68,10.92,6.99,17.33h-13.98Z"/>
  </g>
</svg>