<?xml version="1.0" encoding="UTF-8"?>
<svg id="Capa_2" data-name="Capa 2" xmlns="http://www.w3.org/2000/svg" viewBox="0 0 44.72 60.67">
  <defs>
    <style>
      .cls-1 {
        fill: #fff;
      }
    </style>
  </defs>
  <g id="Capa_1-2" data-name="Capa 1">
    <g>
      <path class="cls-1" d="M0,6.68v47.31c0,3.68,3.13,6.68,6.98,6.68h30.77c3.85,0,6.98-2.76,6.98-6.15V11.72c0-1.92-.99-3.69-2.69-4.85v-.19c0-3.68-3.13-6.68-6.98-6.68H6.98C3.13,0,0,3,0,6.68ZM2.23,6.68c0-2.45,2.13-4.45,4.75-4.45h28.08c2.62,0,4.75,2,4.75,4.45v.81c0,.41.22.78.57.98,1.32.73,2.11,1.95,2.11,3.25v42.8c0,2.16-2.13,3.92-4.75,3.92H6.98c-2.62,0-4.75-2-4.75-4.45V6.68Z"/>
      <path class="cls-1" d="M7.66,10.02c.2.16.45.25.71.25h5.48v18.66c0,.45.27.85.68,1.03.14.06.29.09.44.09.28,0,.56-.11.77-.31l4.62-4.41,4.85,4.43c.33.3.8.38,1.2.2.4-.18.66-.58.66-1.02V10.27h10.85c.45,0,.85-.27,1.03-.68.09-.2.83-2.05-.03-3.7-.37-.71-1.19-1.63-2.97-1.98-.07-.02-.15-.02-.22-.02H8.36c-.07,0-.13,0-.19.02-.23.04-2.26.44-2.69,2.08-.48,1.84,1.52,3.49,2.18,4.03ZM8.48,6.12h27.12c.68.15,1.12.42,1.33.81.18.33.19.76.14,1.12h-11.11c-.62,0-1.12.5-1.12,1.12v17.25l-3.75-3.42c-.21-.19-.48-.29-.75-.29s-.56.1-.77.31l-3.49,3.33V9.15c0-.62-.5-1.12-1.12-1.12h-6.18c-1.16-1.03-1.14-1.48-1.14-1.49.05-.12.45-.34.84-.43Z"/>
      <path class="cls-1" d="M18.07,18.54l-.26,1.53c-.04.21.05.42.22.55.1.07.21.11.33.11.09,0,.18-.02.26-.06l1.37-.72,1.37.72c.19.1.42.08.59-.04.17-.13.26-.34.22-.55l-.26-1.53,1.11-1.08c.15-.15.21-.37.14-.57-.07-.2-.24-.35-.45-.38l-1.53-.22-.69-1.39c-.09-.19-.29-.31-.5-.31s-.41.12-.5.31l-.69,1.39-1.53.22c-.21.03-.38.18-.45.38-.07.2-.01.42.14.57l1.11,1.08ZM19.26,17.34c.18-.03.34-.14.42-.31l.32-.64.31.64c.08.16.24.28.42.31l.7.1-.51.5c-.13.13-.19.31-.16.49l.12.7-.63-.33c-.08-.04-.17-.06-.26-.06s-.18.02-.26.06l-.63.33.12-.7c.03-.18-.03-.37-.16-.49l-.51-.5.7-.1Z"/>
    </g>
  </g>
</svg>