<?xml version="1.0" encoding="UTF-8"?>
<svg id="Capa_2" data-name="Capa 2" xmlns="http://www.w3.org/2000/svg" viewBox="0 0 87.54 62.99">
  <defs>
    <style>
      .cls-1 {
        fill: #fff;
      }
    </style>
  </defs>
  <g id="Capa_1-2" data-name="Capa 1">
    <g>
      <path class="cls-1" d="M74.88,29.87h-23.69V0H17.14v60.73H0v2.27h87.54v-2.27h-12.66v-30.85ZM48.92,59.75h-29.51V2.27h29.51v57.48ZM72.61,59.75h-21.07v-27.61h21.07v27.61Z"/>
      <path class="cls-1" d="M32.58,8.59h-7.29v6.25h7.29v-6.25ZM31.44,13.71h-5.02v-3.98h5.02v3.98Z"/>
      <path class="cls-1" d="M43.04,8.59h-7.29v6.25h7.29v-6.25ZM41.91,13.71h-5.02v-3.98h5.02v3.98Z"/>
      <path class="cls-1" d="M43.04,16.72h-7.29v6.25h7.29v-6.25ZM41.91,21.84h-5.02v-3.98h5.02v3.98Z"/>
      <path class="cls-1" d="M43.04,31.1h-7.29v6.25h7.29v-6.25ZM41.91,36.22h-5.02v-3.98h5.02v3.98Z"/>
      <path class="cls-1" d="M43.04,45.38h-7.29v6.25h7.29v-6.25ZM41.91,50.5h-5.02v-3.98h5.02v3.98Z"/>
      <path class="cls-1" d="M32.58,45.38h-7.29v6.25h7.29v-6.25ZM31.44,50.5h-5.02v-3.98h5.02v3.98Z"/>
      <path class="cls-1" d="M61.64,34.6h-7.29v6.25h7.29v-6.25ZM60.51,39.72h-5.02v-3.98h5.02v3.98Z"/>
      <path class="cls-1" d="M70.79,44.7h-7.29v6.25h7.29v-6.25ZM69.66,49.82h-5.02v-3.98h5.02v3.98Z"/>
    </g>
  </g>
</svg>