<?xml version="1.0" encoding="UTF-8"?>
<svg id="Capa_2" data-name="Capa 2" xmlns="http://www.w3.org/2000/svg" viewBox="0 0 78.67 77.18">
  <defs>
    <style>
      .cls-1 {
        fill: #fff;
      }
    </style>
  </defs>
  <g id="Capa_1-2" data-name="Capa 1">
    <g>
      <path class="cls-1" d="M74.06,46.22h-18.45v-7.26c0-1.11-.29-2.14-.79-3,.29-.09.54-.3.69-.58.21-.39.19-.87-.06-1.25l-13.91-21v-3.35l8.59-3.54c.46-.19.75-.63.75-1.12s-.3-.94-.75-1.12L40.67.09c-.37-.15-.8-.11-1.14.11-.34.22-.54.6-.54,1.01v7.81c0,.19.05.37.13.54v3.68l-13.84,20.9c-.25.37-.27.85-.06,1.25.15.28.4.49.69.58-.5.86-.79,1.89-.79,3v7.26H4.61c-2.54,0-4.61,2.07-4.61,4.61v21.75c0,2.54,2.07,4.61,4.61,4.61h69.45c2.54,0,4.61-2.07,4.61-4.61v-21.75c0-2.54-2.07-4.61-4.61-4.61ZM41.42,3.03l5.07,2.09-5.07,2.09V3.03ZM40.37,15.76l11.81,17.84h-23.62l11.81-17.84ZM43.2,74.57h-6.78v-13.49h6.78v13.49ZM76.24,72.57c0,1.2-.98,2.18-2.18,2.18h-28.42v-14.88c0-.67-.54-1.21-1.22-1.21h-9.21c-.67,0-1.22.54-1.22,1.21v14.88H4.61c-1.2,0-2.18-.98-2.18-2.18v-21.75c0-1.2.98-2.18,2.18-2.18h21.75c.34,0,.66-.14.89-.39.23-.25.35-.58.32-.91,0-.1-.01-.2-.01-.3v-8.09c0-1.59,1-2.94,2.18-2.94h21.26c1.18,0,2.18,1.34,2.18,2.94v8.09c0,.1,0,.2-.01.29-.02.34.09.67.32.92.23.25.55.39.89.39h19.68c1.2,0,2.18.98,2.18,2.18v21.75Z"/>
      <path class="cls-1" d="M38.24,41.12h-6.08c-.34,0-.61.27-.61.61v6.07c0,.34.27.61.61.61h6.08c.33,0,.61-.27.61-.61v-6.07c0-.34-.27-.61-.61-.61ZM37.63,47.19h-4.86v-4.86h4.86v4.86Z"/>
      <path class="cls-1" d="M47.98,41.12h-6.07c-.34,0-.61.27-.61.61v6.07c0,.34.27.61.61.61h6.07c.34,0,.61-.27.61-.61v-6.07c0-.34-.27-.61-.61-.61ZM47.37,47.19h-4.86v-4.86h4.86v4.86Z"/>
      <path class="cls-1" d="M15.46,58.28h-6.07c-.33,0-.61.27-.61.61v6.07c0,.34.27.61.61.61h6.07c.34,0,.61-.27.61-.61v-6.07c0-.34-.27-.61-.61-.61ZM14.85,64.35h-4.86v-4.86h4.86v4.86Z"/>
      <path class="cls-1" d="M25.2,58.28h-6.07c-.34,0-.61.27-.61.61v6.07c0,.34.27.61.61.61h6.07c.34,0,.61-.27.61-.61v-6.07c0-.34-.27-.61-.61-.61ZM24.59,64.35h-4.86v-4.86h4.86v4.86Z"/>
      <path class="cls-1" d="M60.63,58.28h-6.07c-.33,0-.61.27-.61.61v6.07c0,.34.27.61.61.61h6.07c.34,0,.61-.27.61-.61v-6.07c0-.34-.27-.61-.61-.61ZM60.02,64.35h-4.86v-4.86h4.86v4.86Z"/>
      <path class="cls-1" d="M70.37,58.28h-6.07c-.34,0-.61.27-.61.61v6.07c0,.34.27.61.61.61h6.07c.34,0,.61-.27.61-.61v-6.07c0-.34-.27-.61-.61-.61ZM69.76,64.35h-4.86v-4.86h4.86v4.86Z"/>
    </g>
  </g>
</svg>