<?xml version="1.0" encoding="UTF-8"?>
<svg id="Capa_2" data-name="Capa 2" xmlns="http://www.w3.org/2000/svg" viewBox="0 0 60 66.42">
  <defs>
    <style>
      .cls-1 {
        fill: #fff;
      }
    </style>
  </defs>
  <g id="Capa_1-2" data-name="Capa 1">
    <g>
      <path class="cls-1" d="M19.06,28.3C8.55,28.3,0,36.85,0,47.36s8.55,19.06,19.06,19.06c8.31,0,15.39-5.35,17.99-12.78,1.29.05,2.46.07,3.43.07,5.85,0,19.47-.62,19.47-6.36,0-.02,0-.03,0-.05,0-.01,0-.03,0-.04v-7.66c.03-.17.05-.35.05-.52s-.02-.33-.05-.49v-6.3c.03-.17.05-.35.05-.52s-.02-.33-.05-.5v-7.01c.03-.17.05-.35.05-.52,0-.3-.06-.58-.16-.85.06-.25.1-.51.1-.79,0-.02,0-.03,0-.05s0-.03,0-.04v-7.66c.03-.17.05-.34.05-.52,0-.17-.02-.33-.05-.49v-7.01c.03-.17.05-.35.05-.53,0-.31-.06-.6-.17-.88-.17-.59-.54-1.08-1.03-1.39C54.83.12,42.16,0,40.48,0s-14.35.12-18.33,3.49c-.49.31-.86.8-1.03,1.39-.1.28-.17.57-.17.89,0,.18.02.36.06.53v7.01c-.03.16-.06.32-.06.49,0,.18.02.36.06.52v7.66s0,.03,0,.05c0,.02,0,.03,0,.04,0,.28.04.54.1.79-.1.27-.16.55-.16.85,0,.18.02.36.06.52v4.15c-.64-.07-1.29-.1-1.95-.1ZM57.72,47.2s0,.1,0,.14c0,.02,0,.04,0,.06-.11,2.14-7.8,3.87-17.24,3.87-.94,0-1.85-.02-2.75-.06.26-1.25.39-2.53.39-3.86,0-.34,0-.67-.03-1,.88.02,1.69.03,2.39.03,4.39,0,13.14-.35,17.24-2.94v3.75ZM57.72,39.88s0,.1,0,.14c0,.02,0,.04,0,.06-.11,2.14-7.8,3.87-17.24,3.87-.91,0-1.8-.02-2.68-.05-.37-2.02-1.06-3.93-2.02-5.68,1.78.1,3.43.14,4.7.14,4.39,0,13.14-.35,17.24-2.94v4.46ZM57.72,21.92s0,.1,0,.14c0,.02,0,.04,0,.07-.11,2.14-7.8,3.87-17.24,3.87s-17.13-1.73-17.24-3.87c0-.04,0-.08,0-.12,0-.02,0-.05,0-.08v-4.46c4.1,2.6,12.85,2.94,17.24,2.94s13.14-.35,17.24-2.94v4.46ZM40.48,2.81c9.79,0,15.85,1.82,16.88,2.95-1.02,1.14-7.09,2.95-16.88,2.95s-15.85-1.82-16.88-2.95c1.02-1.13,7.09-2.95,16.88-2.95ZM40.48,11.53c1.55,0,12.43-.1,17.24-2.76v5.12s0,.1,0,.14c0,.02,0,.04,0,.06-.11,2.14-7.8,3.87-17.24,3.87s-17.13-1.73-17.24-3.87c0-.04,0-.08,0-.12,0-.02,0-.05,0-.08v-5.12c4.8,2.66,15.69,2.76,17.24,2.76ZM40.48,29.48c1.55,0,12.43-.1,17.24-2.76v5.12s0,.1,0,.14c0,.02,0,.04,0,.06-.11,2.14-7.8,3.87-17.24,3.87-2.27,0-4.43-.1-6.41-.28-2.67-3.41-6.47-5.89-10.84-6.87v-2.04c4.81,2.66,15.7,2.76,17.25,2.76ZM35.68,47.36c0,9.16-7.46,16.62-16.62,16.62S2.44,56.52,2.44,47.36s7.45-16.62,16.62-16.62,16.62,7.45,16.62,16.62Z"/>
      <path class="cls-1" d="M6.22,47.36c0,7.08,5.76,12.84,12.84,12.84s12.84-5.76,12.84-12.84-5.76-12.84-12.84-12.84-12.84,5.76-12.84,12.84ZM30.28,47.36c0,6.18-5.03,11.22-11.22,11.22s-11.21-5.03-11.21-11.22,5.03-11.21,11.21-11.21,11.22,5.03,11.22,11.21Z"/>
      <path class="cls-1" d="M17.49,39.26v1.37c-.67.26-1.26.64-1.71,1.13-.72.76-1.11,1.77-1.11,2.85,0,.57.11,1.11.32,1.6.29.67.79,1.26,1.48,1.75.53.38,1.2.72,2.08,1.07.73.29,1.03.53,1.15.65.09.09.12.15.14.19.02.04.03.1.03.2,0,.16-.05.26-.16.35-.17.14-.46.22-.8.22-.81.04-1.56-.3-1.99-.59l-.48-.32c-.21-.14-.47-.17-.71-.1-.24.08-.43.26-.51.5l-.76,2.12c-.12.34,0,.73.29.94l.28.2c.45.32,1,.57,1.65.76.22.07.45.12.68.17v1.21c0,.45.36.81.81.81h2.08c.45,0,.81-.36.81-.81v-1.43c.75-.28,1.39-.72,1.89-1.29.69-.79,1.07-1.8,1.07-2.86,0-.56-.09-1.08-.26-1.55-.25-.71-.7-1.34-1.34-1.86-.53-.44-1.18-.81-2.05-1.17-.03-.01-.06-.02-.08-.03-.87-.36-1.23-.59-1.38-.72-.05-.05-.09-.09-.11-.12,0,0-.01-.04-.01-.11,0-.05.01-.12.07-.18.11-.11.34-.17.65-.17.39,0,.74.06,1.08.17.28.09.48.2.65.3l.46.26c.21.12.46.14.68.06.22-.08.4-.26.49-.48l.79-2.09c.14-.37,0-.79-.35-.99l-.33-.19c-.55-.32-1.15-.55-1.81-.69v-1.14c0-.45-.36-.81-.81-.81h-2.06c-.45,0-.81.36-.81.81ZM19.12,41.23v-1.16h.43v1.03c0,.42.32.77.74.81.59.06,1.13.2,1.61.43l-.21.55c-.16-.08-.35-.16-.57-.23-.5-.17-1.04-.25-1.6-.25-.76,0-1.36.21-1.78.62-.36.35-.56.83-.56,1.35,0,.31.05.57.17.8.11.24.27.45.5.65.36.32.94.64,1.87,1.02h0c.73.3,1.26.6,1.67.94.41.33.69.72.84,1.15.11.3.16.63.16,1,0,.66-.23,1.29-.66,1.78h0c-.41.47-.98.8-1.67.97-.37.09-.62.41-.62.79v1.22h-.46v-1.1c0-.42-.32-.77-.74-.81-.38-.03-.75-.1-1.11-.21-.35-.1-.67-.23-.93-.38l.2-.57c.75.4,1.65.63,2.49.63.76.01,1.38-.21,1.87-.61.48-.4.73-.95.74-1.59,0-.31-.06-.58-.17-.84-.11-.25-.26-.48-.47-.7-.37-.38-.93-.71-1.7-1.02-.76-.3-1.31-.58-1.74-.88-.46-.32-.76-.68-.94-1.07-.12-.28-.18-.6-.18-.95,0-.66.24-1.27.67-1.73.38-.4.91-.7,1.53-.85.37-.09.62-.41.62-.79Z"/>
    </g>
  </g>
</svg>