<?xml version="1.0" encoding="UTF-8"?>
<svg id="Capa_2" data-name="Capa 2" xmlns="http://www.w3.org/2000/svg" viewBox="0 0 60 60.94">
  <defs>
    <style>
      .cls-1 {
        fill: #fff;
      }
    </style>
  </defs>
  <g id="Capa_1-2" data-name="Capa 1">
    <path class="cls-1" d="M52.73,0c-2.2,0-3.99,1.79-3.99,3.99v2.69c-1.03-.81-2.33-1.29-3.74-1.29-3.23,0-5.88,2.53-6.08,5.71h-8.45c-.2-3.18-2.85-5.71-6.08-5.71-2.02,0-3.81.99-4.92,2.51-1.11-1.52-2.9-2.51-4.92-2.51-1.41,0-2.71.48-3.74,1.29v-2.69c0-2.2-1.79-3.99-3.99-3.99s-3.99,1.79-3.99,3.99v46.08c-1.68,1.03-2.81,2.88-2.81,5,0,3.24,2.63,5.87,5.87,5.87h48.27c3.23,0,5.87-2.63,5.87-5.87,0-2.31-1.34-4.3-3.28-5.26V3.99c0-2.2-1.79-3.99-3.99-3.99ZM51.1,24.61V3.99c0-.9.73-1.63,1.63-1.63s1.63.73,1.63,1.63v45.22c-.08,0-.15-.01-.22-.01h-3.04v-24.59ZM44.99,7.75c2.06,0,3.74,1.68,3.74,3.74s-1.68,3.74-3.74,3.74-3.74-1.68-3.74-3.74,1.68-3.74,3.74-3.74ZM24.38,7.75c2.06,0,3.74,1.68,3.74,3.74s-1.68,3.74-3.74,3.74-3.74-1.68-3.74-3.74,1.68-3.74,3.74-3.74ZM19.46,15.09c1.11,1.52,2.9,2.51,4.92,2.51,3.1,0,5.66-2.32,6.05-5.31h8.53c.39,2.99,2.95,5.31,6.05,5.31,1.41,0,2.71-.48,3.74-1.29v3.5c-1.03-.8-2.33-1.29-3.74-1.29-2.33,0-4.36,1.32-5.39,3.24-1.03-1.93-3.06-3.24-5.39-3.24-3.23,0-5.88,2.53-6.08,5.71H10.8v-7.91c1.03.81,2.33,1.29,3.74,1.29,2.02,0,3.81-.99,4.92-2.51ZM34.22,45.24c3.16,0,5.77-2.42,6.07-5.51h8.44v9.47H10.8v-5.25c1.03.81,2.33,1.29,3.74,1.29,3.17,0,5.77-2.42,6.07-5.51h7.54c.3,3.09,2.91,5.51,6.07,5.51ZM30.48,39.14c0-2.06,1.68-3.74,3.74-3.74s3.74,1.68,3.74,3.74-1.68,3.74-3.74,3.74-3.74-1.68-3.74-3.74ZM40.29,38.55c-.3-3.09-2.91-5.51-6.07-5.51s-5.77,2.42-6.07,5.51h-7.54c-.3-3.09-2.91-5.51-6.07-5.51-1.41,0-2.71.48-3.74,1.29v-8.92h17.37c.39,2.99,2.95,5.31,6.05,5.31,2.33,0,4.36-1.32,5.39-3.25,1.03,1.93,3.06,3.25,5.39,3.25,1.41,0,2.71-.48,3.74-1.29v9.12h-8.44ZM30.48,24.61c0-2.06,1.68-3.74,3.74-3.74s3.74,1.68,3.74,3.74-1.68,3.74-3.74,3.74-3.74-1.68-3.74-3.74ZM44.99,28.35c-2.06,0-3.74-1.68-3.74-3.74s1.68-3.74,3.74-3.74,3.74,1.68,3.74,3.74-1.68,3.74-3.74,3.74ZM14.54,7.75c2.06,0,3.74,1.68,3.74,3.74h0s0,0,0,0c0,2.06-1.68,3.74-3.74,3.74s-3.74-1.68-3.74-3.74,1.68-3.74,3.74-3.74ZM14.54,35.4c2.06,0,3.74,1.68,3.74,3.74s-1.68,3.74-3.74,3.74-3.74-1.68-3.74-3.74,1.68-3.74,3.74-3.74ZM5.17,3.99c0-.9.73-1.63,1.63-1.63s1.63.73,1.63,1.63v7.48s0,.01,0,.02,0,.01,0,.02v27.61s0,.01,0,.02,0,.01,0,.02v10.05h-2.57c-.23,0-.46.02-.69.04V3.99ZM57.64,55.07c0,1.93-1.57,3.5-3.5,3.5H5.87c-1.93,0-3.5-1.57-3.5-3.5s1.57-3.5,3.5-3.5h48.27c1.93,0,3.5,1.57,3.5,3.5Z"/>
  </g>
</svg>