<?xml version="1.0" encoding="UTF-8"?>
<svg id="Capa_2" data-name="Capa 2" xmlns="http://www.w3.org/2000/svg" viewBox="0 0 70 50">
  <defs>
    <style>
      .cls-1 {
        fill: #fff;
      }
    </style>
  </defs>
  <g id="Capa_1-2" data-name="Capa 1">
    <g>
      <path class="cls-1" d="M.35,43.78c.23.25.54.39.86.39h19.46c-.23,1.39-.38,2.88-.41,4.5,0,.35.12.69.35.93.23.25.54.39.86.39h26.82c.65,0,1.19-.56,1.21-1.27,0-.18.05-2.03-.31-4.56h19.58c.65,0,1.19-.56,1.21-1.27.01-.45.26-11.02-5.89-17.1-.43-.43-1.09-.46-1.56-.07-.07.06-7.24,5.85-13.9,0-.46-.4-1.11-.39-1.56.03-.14.13-2.1,2.01-3.8,5.63-.39-.18-.86-.13-1.22.16-.29.24-7.27,5.83-13.9,0-.32-.29-.75-.36-1.13-.23-.86-1.98-2.04-3.92-3.68-5.53-.43-.43-1.09-.46-1.56-.07-.07.06-7.23,5.85-13.9,0-.46-.4-1.11-.39-1.56.03C6.08,26.01.15,31.68,0,42.85c0,.35.12.69.35.93ZM48,28.49c6.34,4.76,12.81,1.45,15.12-.05,3.6,4.16,4.29,10.46,4.42,13.12h-18.83c-.61-2.66-1.7-5.65-3.6-8.2,1.01-2.37,2.17-4,2.88-4.87ZM27.52,34.32c6.34,4.76,12.81,1.45,15.12-.05,3.6,4.16,4.3,10.46,4.42,13.12h-24.32c.43-7.01,3.42-11.41,4.78-13.07ZM7.25,28.49c6.34,4.76,12.8,1.45,15.12-.05,1.24,1.44,2.13,3.13,2.78,4.84-1.21,1.61-2.88,4.36-3.93,8.29H2.47c.43-7.01,3.42-11.41,4.78-13.07Z"/>
      <path class="cls-1" d="M14.62,24.69h0c3.06,0,5.94-1.29,8.1-3.62.3-.32.58-.66.84-1.01.84,5.91,5.59,10.46,11.32,10.46h0c3.06,0,5.94-1.29,8.1-3.62,1.81-1.95,2.93-4.43,3.25-7.11,2.1,2.97,5.4,4.9,9.13,4.9h0c3.06,0,5.94-1.29,8.1-3.62,2.17-2.34,3.36-5.43,3.36-8.73,0-6.81-5.15-12.34-11.47-12.34-3.06,0-5.94,1.29-8.11,3.62-1.81,1.95-2.93,4.43-3.25,7.11-2.1-2.97-5.4-4.9-9.13-4.9-3.06,0-5.94,1.29-8.11,3.62-.3.32-.58.66-.84,1.01C25.1,4.55,20.35,0,14.62,0c-3.06,0-5.94,1.29-8.11,3.62-2.17,2.33-3.36,5.44-3.36,8.73,0,6.8,5.15,12.34,11.47,12.34ZM48.98,5.47c1.71-1.84,3.98-2.86,6.39-2.86,4.99,0,9.04,4.37,9.05,9.74,0,2.6-.94,5.04-2.65,6.88-1.71,1.84-3.98,2.86-6.39,2.86h0c-4.99,0-9.04-4.37-9.05-9.73,0-2.6.94-5.04,2.65-6.88ZM28.5,11.29c1.71-1.84,3.98-2.86,6.39-2.86,4.99,0,9.04,4.37,9.05,9.74,0,2.59-.94,5.04-2.65,6.88-1.71,1.84-3.98,2.86-6.39,2.86h0c-4.99,0-9.04-4.37-9.05-9.73,0-2.6.94-5.04,2.65-6.88ZM8.23,5.47c1.71-1.84,3.98-2.86,6.39-2.86,4.99,0,9.04,4.37,9.05,9.74,0,2.6-.94,5.04-2.65,6.88-1.71,1.84-3.98,2.86-6.39,2.86h0c-4.99,0-9.04-4.37-9.05-9.73,0-2.6.94-5.04,2.65-6.88Z"/>
    </g>
  </g>
</svg>