<?xml version="1.0" encoding="UTF-8"?>
<svg id="Capa_2" data-name="Capa 2" xmlns="http://www.w3.org/2000/svg" viewBox="0 0 64.5 64.5">
  <defs>
    <style>
      .cls-1 {
        fill: #fff;
      }
    </style>
  </defs>
  <g id="Capa_1-2" data-name="Capa 1">
    <path class="cls-1" d="M32.25,0C14.47,0,0,14.47,0,32.25s14.47,32.25,32.25,32.25,32.25-14.47,32.25-32.25S50.03,0,32.25,0ZM61.2,21.4l-8.61,10.44h-9.36l-7.44-9.83,4.09-10.22,12.19-3.25c4.06,3.4,7.24,7.82,9.13,12.86ZM22.73,25.36l-7.44-6.38V6.41C20.02,3.3,25.64,1.45,31.68,1.34l7.01,9.86-4.12,10.29-11.84,3.86ZM2.61,23.47l12-3.33,7.26,6.23v12.2l-7.28,5.2-12.4-4.26c-.56-2.33-.87-4.75-.87-7.25,0-3.05.45-6,1.28-8.78ZM14.49,57.54l.75-12.6,7.57-5.4,11.65,4.08,2.96,8.88-8.26,10.49c1.07.11,2.17.18,3.27.18-.06,0-.12,0-.17,0-6.61,0-12.73-2.09-17.76-5.63ZM34.27,63.1c-.4.03-.81.04-1.22.05.41,0,.81-.03,1.22-.05ZM51.81,56.17l-13.13-4.07-2.96-8.87,7.51-10.06h10.18l7.51,10.62c-1.96,4.86-5.12,9.11-9.11,12.38Z"/>
  </g>
</svg>