<?xml version="1.0" encoding="UTF-8"?>
<svg id="Capa_2" data-name="Capa 2" xmlns="http://www.w3.org/2000/svg" viewBox="0 0 82.6 51.87">
  <defs>
    <style>
      .cls-1 {
        fill: #fff;
      }
    </style>
  </defs>
  <g id="Capa_1-2" data-name="Capa 1">
    <g>
      <path class="cls-1" d="M9.71,48.18l7.96-16.26,15.86.04,7.94,16.21c1.12,2.29,3.25,3.69,5.29,3.69.64,0,1.27-.14,1.86-.42,1.25-.61,2.13-1.82,2.44-3.33.28-1.39.06-2.92-.63-4.32L30.79,3.69c-.7-1.43-1.8-2.55-3.1-3.17l-.16-.09c-.56-.27-1.17-.42-1.76-.42-.06,0-.12,0-.2,0h-.12c-.65,0-1.26.15-1.82.42-.05.03-.1.05-.15.08-1.31.62-2.42,1.75-3.12,3.18L.74,43.79c-.68,1.4-.91,2.93-.63,4.32.3,1.51,1.19,2.72,2.44,3.33,2.47,1.21,5.68-.25,7.15-3.26ZM2.92,47.54c-.15-.76-.01-1.68.39-2.5L22.95,4.95c.42-.86,1.09-1.55,1.84-1.88l.09-.04s.07-.04.1-.06c.16-.06.34-.1.54-.1h.16c.19,0,.37.04.52.1l.2.11c.74.33,1.41,1.02,1.84,1.88l19.63,40.1c.4.82.54,1.73.39,2.5-.07.37-.29,1.03-.89,1.33-1.04.51-2.56-.39-3.33-1.95l-8.72-17.81-19.43-.05-8.75,17.86c-.77,1.56-2.29,2.46-3.33,1.95-.6-.29-.82-.96-.89-1.33Z"/>
      <path class="cls-1" d="M25.58,9.24l-7.73,15.78,15.48.04-7.75-15.83ZM25.58,15.74l3.16,6.45-6.31-.02,3.15-6.43Z"/>
      <path class="cls-1" d="M77.74,19.48h-.02c-2.68,0-4.8,1.68-4.87,3.86-1.91-.86-3.99-1.31-6.12-1.31-8.23,0-14.92,6.69-14.92,14.92s6.69,14.92,14.92,14.92c2.44,0,4.8-.59,6.93-1.71.88,1.04,2.34,1.7,3.98,1.71h.02c1.22,0,2.38-.36,3.27-1.02,1.01-.74,1.59-1.82,1.6-2.94l.07-24.44c0-.92-.38-1.82-1.08-2.52-.92-.93-2.3-1.46-3.78-1.46ZM79.68,47.9c0,.3-.3.55-.43.65-.4.3-.95.46-1.59.46-1.09,0-1.92-.56-1.99-1.06-.07-.49-.38-.91-.83-1.11-.19-.08-.38-.12-.58-.12-.28,0-.56.08-.8.24-1.99,1.34-4.31,2.04-6.72,2.04-6.65,0-12.06-5.41-12.06-12.06s5.41-12.06,12.06-12.06c2.42,0,4.75.71,6.74,2.06.44.29,1,.32,1.47.08.47-.25.76-.73.76-1.26v-2.31c0-.45.79-1.11,2.02-1.11,0,0,0,0,0,0,.71,0,1.38.24,1.76.62.12.12.25.29.25.5l-.07,24.45Z"/>
      <path class="cls-1" d="M66.73,28.01c-4.93,0-8.93,4.01-8.93,8.93s4.01,8.94,8.93,8.94,8.93-4.01,8.93-8.94-4.01-8.93-8.93-8.93ZM66.73,43.02c-3.35,0-6.07-2.73-6.07-6.08s2.73-6.07,6.07-6.07,6.08,2.73,6.08,6.07-2.73,6.08-6.08,6.08Z"/>
    </g>
  </g>
</svg>