<?xml version="1.0" encoding="UTF-8"?>
<svg id="Capa_2" data-name="Capa 2" xmlns="http://www.w3.org/2000/svg" viewBox="0 0 70.67 51.67">
  <defs>
    <style>
      .cls-1 {
        fill: #fff;
      }
    </style>
  </defs>
  <g id="Capa_1-2" data-name="Capa 1">
    <g>
      <path class="cls-1" d="M1.08,37.71h10.13c.6,0,1.09-.49,1.09-1.08v-17.96c0-.6-.49-1.08-1.09-1.08H1.08c-.6,0-1.08.49-1.08,1.08v17.96c0,.6.49,1.08,1.08,1.08ZM2.17,19.75h7.96v15.79H2.17v-15.79Z"/>
      <path class="cls-1" d="M34.83,50.87c.18.12.4.19.61.19.17,0,.35-.04.51-.13.35-.19.58-.56.58-.96V1.08c0-.43-.25-.82-.64-.99-.39-.18-.85-.1-1.17.18L15.01,17.85c-.23.21-.36.5-.36.81v17.96c0,.36.18.69.48.9l19.7,13.35ZM16.82,19.15L34.35,3.51v44.42l-17.54-11.88v-16.9Z"/>
      <path class="cls-1" d="M70.67,27.64c0-8.78-3.47-16.98-9.77-23.11-1.29-1.25-3.35-1.22-4.6.07-1.25,1.29-1.22,3.35.07,4.6,5.03,4.89,7.8,11.44,7.8,18.44s-2.77,13.55-7.8,18.44c-.64.62-.99,1.45-.99,2.34s.33,1.66.92,2.27c.64.66,1.48.98,2.33.98s1.64-.3,2.27-.92c6.3-6.12,9.77-14.33,9.77-23.11ZM57.85,49.17c-.2-.2-.31-.47-.31-.76s.12-.57.33-.78c5.45-5.3,8.46-12.4,8.46-19.99s-3-14.69-8.46-19.99c-.43-.42-.44-1.11-.02-1.53.21-.22.5-.33.78-.33s.55.1.76.31c5.88,5.71,9.12,13.37,9.12,21.55s-3.24,15.84-9.12,21.55c-.43.42-1.12.41-1.53-.02Z"/>
      <path class="cls-1" d="M45.82,44.07c.84,0,1.64-.32,2.25-.9,4.29-4.1,6.64-9.61,6.64-15.52s-2.36-11.43-6.64-15.52c-.63-.6-1.47-.92-2.32-.9-.87.02-1.68.38-2.28,1.01-.6.63-.92,1.45-.9,2.32.02.87.38,1.68,1,2.28,2.99,2.85,4.63,6.7,4.63,10.82s-1.65,7.96-4.63,10.82c-.64.61-1.01,1.47-1.01,2.35s.32,1.64.9,2.25c.6.63,1.41.99,2.28,1.01.03,0,.05,0,.08,0ZM45.07,40.03c3.42-3.27,5.3-7.67,5.3-12.39s-1.88-9.12-5.3-12.39c-.21-.2-.33-.47-.34-.76s.1-.56.3-.77c.2-.21.47-.33.76-.34,0,0,.02,0,.02,0,.28,0,.55.11.75.3,3.85,3.68,5.97,8.64,5.97,13.95s-2.12,10.28-5.97,13.96c-.21.2-.49.32-.77.3-.29,0-.56-.13-.76-.34-.19-.2-.3-.47-.3-.75,0-.3.12-.58.34-.78Z"/>
    </g>
  </g>
</svg>