<?xml version="1.0" encoding="UTF-8"?>
<svg id="Capa_2" data-name="Capa 2" xmlns="http://www.w3.org/2000/svg" viewBox="0 0 67.33 55.42">
  <defs>
    <style>
      .cls-1 {
        fill: #fff;
      }
    </style>
  </defs>
  <g id="Capa_1-2" data-name="Capa 1">
    <path class="cls-1" d="M50.7,0l-5.73,5.73c-.29-.04-.58-.07-.86-.09-2.05-.83-5.71-1.42-10,1.88l-.1.09-1.41,1.41c-5.3-3.59-9.5-1.38-10.69-.6l-5.28-5.28L0,19.79l6.31,6.3c.05,2.83,1.05,5.72,3.01,8.65.8,1.21,1.74,2.32,2.76,3.35,1.3,1.32,2.62,2.62,3.93,3.93-1.42,2.07-.81,3.78.67,5.32,1.53,1.6,2.95,1.79,5.03,1.18.02,0,.04,0,.05.02,1.49,2.24,2.87,3.32,4.35,3.44.62.6,1.23,1.2,1.85,1.8,1.84,1.77,4.64,2.17,6.85.9.96-.55,1.12-1,1.61-1.78,3.75,3.14,6.24,3.2,9.18-1.21.01-.02.03-.02.05-.02,2.08.6,3.49.42,5.03-1.18,1.56-1.63,2.16-3.44.41-5.67-.01-.02-.46-.6-.44-.6,1.25.04,2.23-.75,2.78-1.46,1.45-1.87,1.36-3.84-.19-5.78.68-.68,1.37-1.36,2.04-2.04,1.02-1.03,1.96-2.14,2.76-3.35,1.95-2.93,2.96-5.82,3.01-8.65l6.31-6.31L50.7,0ZM13.08,35.68c-1.91-2.02-3.35-4.25-3.98-6.78-.14-.56-.24-1.14-.29-1.74-.04-.49-.06-.98-.05-1.49l-6.39-6.4,13.75-13.75,4.41,4.41.29.29-.02.05,2.13.18.14-.34c.84-.57,4.33-2.51,8.98,1.04l6.16,6.19c.31.31.48.72.48,1.17,0,.44-.17.86-.48,1.17l-.41.41c-.65.64-1.69.64-2.34,0l-6.3-6.33-1.53,1.07,1.7,2,.74.74c-.72.72-1.45,1.45-2.17,2.17-.18.18-.28.38-.33.57-.03.04-.07.08-.11.11-4.23,4.24-8.48,8.47-12.7,12.71-.84.85-1.4,1.71-1.67,2.57ZM33.5,52.83c-.49.46-.99.75-1.72.69-1.01-.08-1.7-.85-2.19-1.33-.3-.29-.59-.59-.89-.88.7-.38,1.43-.89,2.23-1.56.49.78.65,1.23,1.61,1.78.43.25.88.43,1.34.55-.08.31-.2.59-.38.76ZM42.57,51.98c-.94,1.11-2.03,1.21-3.41-.07-.21-.2-.42-.4-.64-.6.3-.2.59-.42.86-.68.79-.76,1.57-1.54,2.36-2.3.08.08.17.17.25.25,1.3,1.3,1.47,2.35.58,3.41ZM49.15,48.54c-.95,1.3-2.41,1.33-3.72.03-.65-.65-1.29-1.3-1.95-1.94,1.07-1.05,2.15-2.08,3.21-3.14.6.6,1.21,1.2,1.81,1.81,1.16,1.17,1.36,2.27.64,3.24ZM51.82,40.83c-.49,1.21-1.93,1.79-3.07,1.16-.11-.06-.22-.13-.32-.21,1.03-1.02,2.05-2.05,3.08-3.08.44.59.67,1.24.32,2.13ZM58.57,22.52c.01.51,0,1-.05,1.49-.06.59-.15,1.17-.29,1.74-.63,2.54-2.07,4.78-4,6.81-2.61,2.75-5.35,5.38-8.03,8.06-2.81,2.81-5.62,5.64-8.45,8.43-.49.48-1.18,1.25-2.19,1.33-.73.06-1.23-.23-1.71-.69-.44-.41-.58-1.46-.41-2.11.18-.71.81-1.35,1.36-1.91,1.28-1.31,2.59-2.6,3.88-3.9.63-.63,1.26-1.27,1.88-1.91.66-.68,2.59-2.13,1.51-3.14-1-.93-2.42.87-3.02,1.47-.63.64-1.26,1.27-1.9,1.89-2.98,2.91-5.91,5.86-8.97,8.69-1.38,1.28-2.46,1.18-3.41.07-.9-1.05-.72-2.1.58-3.4,3.37-3.38,6.75-6.75,10.13-10.13.47-.47.89-.78.97-1.51.06-.54-.13-1.01-.68-1.09-.93-.14-1.33.22-1.93.81-3.97,3.97-7.94,7.95-11.92,11.91-1.31,1.3-2.77,1.27-3.72-.03-.71-.97-.52-2.08.65-3.24,4.03-4.05,8.07-8.09,12.12-12.12.66-.66,1.18-1.39.37-2.15-.77-.72-1.44-.08-2.03.51-3.11,3.12-6.22,6.23-9.34,9.33-.41.41-.85.83-1.36,1.11-1.14.63-2.59.06-3.07-1.16-.5-1.24.14-2.03.93-2.82,5.16-5.15,10.33-10.29,15.45-15.48l2.11,2.12c.72.72,1.67,1.09,2.62,1.09s1.88-.36,2.6-1.07l.41-.41c.7-.69,1.08-1.62,1.08-2.61,0-.93-.34-1.8-.96-2.48l-4.69-4.74h0l-.92-.93,1.25-1.26c1.94-1.48,3.67-2,5.1-2.07,2.61-.24,4.92,1.13,4.92,1.13l1.39-1.39,4.41-4.41,13.75,13.75-6.39,6.4Z"/>
  </g>
</svg>