<?xml version="1.0" encoding="UTF-8"?>
<svg id="Capa_2" data-name="Capa 2" xmlns="http://www.w3.org/2000/svg" viewBox="0 0 58.67 62.71">
  <defs>
    <style>
      .cls-1 {
        fill: #fff;
      }
    </style>
  </defs>
  <g id="Capa_1-2" data-name="Capa 1">
    <path class="cls-1" d="M54.44,35.08c-3.58-3.07-8.9-4.38-15.82-3.9,4.51-3.08,7.47-8.25,7.47-14.11C46.09,7.66,38.44,0,29.03,0S11.96,7.66,11.96,17.07c0,5.56,2.68,10.52,6.81,13.63-5-.49-15.52-.13-18.72,10.96-.03.12-.05.24-.05.36v19.38c0,.72.58,1.3,1.3,1.3h56.08c.72,0,1.3-.58,1.3-1.3v-18.46s0-.05,0-.07c-.01-.18-.29-4.43-4.22-7.8ZM14.4,17.07c0-8.07,6.56-14.63,14.63-14.63s14.63,6.56,14.63,14.63-6.52,14.59-14.56,14.63h-.14c-8.04-.04-14.56-6.58-14.56-14.63ZM28.77,36.9h1.25l1.85,3.82-2.53,4.92-1.89-3.71,1.32-5.03ZM27.23,34.3c0-.48.39-.87.87-.87h2.46c.48,0,.87.39.87.87s-.39.87-.87.87h-2.46c-.48,0-.87-.39-.87-.87ZM31.79,36.58c.82-.44,1.38-1.29,1.38-2.28,0-.22-.04-.44-.09-.65,1.03-.25,2.02-.6,2.97-1.02l-3.18,6.17-1.07-2.22ZM27.04,36.66l-.77,2.94-3.36-6.61c.85.33,1.73.59,2.64.78-.03.17-.05.34-.05.51,0,1.06.64,1.96,1.54,2.37ZM56.07,60.11H2.59v-17.9c3.24-10.83,14.92-9.24,17.67-8.7l7.91,15.56c.22.43.67.71,1.15.71h0c.49,0,.93-.27,1.15-.7l7.87-15.29c6.41-.51,11.24.57,14.36,3.21,2.99,2.54,3.34,5.65,3.37,5.99v17.12Z"/>
  </g>
</svg>