<?xml version="1.0" encoding="UTF-8"?>
<svg id="Capa_2" data-name="Capa 2" xmlns="http://www.w3.org/2000/svg" viewBox="0 0 54.38 55.74">
  <defs>
    <style>
      .cls-1 {
        fill: #fff;
      }
    </style>
  </defs>
  <g id="Capa_1-2" data-name="Capa 1">
    <path class="cls-1" d="M11.61,55.57c.73.11,1.52.17,2.36.17,1.99,0,4.27-.31,6.82-.93,5.46-1.32,6.68-1.8,7.47-2.21,2.86-.99,5.6-2.39,8.14-4.18,0,0,0,0,0,0,8.88-6.24,13.48-15.68,15.43-20.75h0c.68-1.75.98-2.85.99-2.9.44-1.61.79-3.18,1.06-4.82h0c1.24-7.27.17-12.66-3.17-16.04C46.39-.44,39.44-.38,34.37.43h0c-2.45.39-4.13.91-4.25.95-1.03.38-2.12.81-3.31,1.33h0c-8.88,3.82-15.69,9.17-20.25,15.89h0c-1.75,2.58-3.16,5.34-4.2,8.21C-1.26,36.77.32,45.39.49,46.2c.64,4.99,4.69,8.41,11.12,9.38ZM49.01,5.59c2.43,2.45,3.38,6.35,2.84,11.62l-14.72-14.72c3.77-.31,8.8,0,11.88,3.1ZM30.91,3.63c.19-.06,1.45-.43,3.24-.75l17.27,17.27c-.25,1.34-.54,2.65-.91,3.98,0,0-.1.34-.29.93L29.38,4.22c.53-.21,1.03-.4,1.53-.59ZM27.01,5.23l11.38,11.38,10.93,10.93c-1.93,4.78-6.03,12.76-13.48,18.34l-13.37-13.37-13.37-13.37c4.16-5.78,10.18-10.46,17.92-13.91ZM7.74,21.16l26.1,26.1c-1.84,1.17-3.77,2.13-5.76,2.87L4.86,26.92c.77-1.99,1.74-3.92,2.88-5.76ZM2.83,45.76c-.02-.08-1.52-7.49,1.16-16.33,2.26,2.26,6.99,6.99,11.58,11.57.31.31.61.61.91.91.54.54,1.07,1.07,1.6,1.6,2.1,2.1,4.06,4.06,5.6,5.6l1.07,1.07c.33.33.62.62.88.88-.99.31-2.61.75-5.41,1.43-3.32.8-6.09,1.05-8.26.72-2.51-.38-8.44-1.85-9.12-7.36,0-.03,0-.07-.02-.1Z"/>
  </g>
</svg>