<?xml version="1.0" encoding="UTF-8"?>
<svg id="Capa_2" data-name="Capa 2" xmlns="http://www.w3.org/2000/svg" viewBox="0 0 127.04 91.42">
  <defs>
    <style>
      .cls-1 {
        fill: #fff;
      }
    </style>
  </defs>
  <g id="Capa_1-2" data-name="Capa 1">
    <g>
      <path class="cls-1" d="M108.67,43.36h-34.38V0H24.87v88.13H0v3.29h127.04v-3.29h-18.37v-44.77ZM71,86.71H28.17V3.29h42.83v83.42ZM105.38,86.71h-30.58v-40.06h30.58v40.06Z"/>
      <path class="cls-1" d="M47.28,12.46h-10.58v9.08h10.58v-9.08ZM45.63,19.89h-7.29v-5.78h7.29v5.78Z"/>
      <path class="cls-1" d="M62.46,12.46h-10.58v9.08h10.58v-9.08ZM60.82,19.89h-7.29v-5.78h7.29v5.78Z"/>
      <path class="cls-1" d="M62.46,24.26h-10.58v9.07h10.58v-9.07ZM60.82,31.69h-7.29v-5.78h7.29v5.78Z"/>
      <path class="cls-1" d="M62.46,45.14h-10.58v9.08h10.58v-9.08ZM60.82,52.57h-7.29v-5.78h7.29v5.78Z"/>
      <path class="cls-1" d="M62.46,65.86h-10.58v9.07h10.58v-9.07ZM60.82,73.29h-7.29v-5.78h7.29v5.78Z"/>
      <path class="cls-1" d="M47.28,65.86h-10.58v9.07h10.58v-9.07ZM45.63,73.29h-7.29v-5.78h7.29v5.78Z"/>
      <path class="cls-1" d="M89.46,50.21h-10.58v9.08h10.58v-9.08ZM87.82,57.64h-7.29v-5.78h7.29v5.78Z"/>
      <path class="cls-1" d="M102.73,64.88h-10.58v9.08h10.58v-9.08ZM101.09,72.31h-7.29v-5.78h7.29v5.78Z"/>
    </g>
  </g>
</svg>