<?xml version="1.0" encoding="UTF-8"?>
<svg id="Capa_2" data-name="Capa 2" xmlns="http://www.w3.org/2000/svg" viewBox="0 0 106.02 73.92">
  <defs>
    <style>
      .cls-1 {
        fill: #fff;
      }
    </style>
  </defs>
  <g id="Capa_1-2" data-name="Capa 1">
    <g>
      <path class="cls-1" d="M104.18,29.97h-32.09V1.84c0-1.02-.82-1.84-1.84-1.84h-34.46c-1.02,0-1.84.82-1.84,1.84v12.21H1.84c-1.02,0-1.84.82-1.84,1.84v56.19c0,1.02.82,1.84,1.84,1.84h102.34c1.02,0,1.84-.82,1.84-1.84V31.81c0-1.02-.82-1.84-1.84-1.84ZM84.14,54.95h6.13v16.02h-6.13v-16.02ZM102.34,70.24h-9.86v-16.39c0-.61-.49-1.1-1.1-1.1h-8.34c-.61,0-1.1.5-1.1,1.1v16.39h-9.86v-36.59h30.27v36.59ZM3.68,17.73h30.27v52.51h-9.86v-16.39c0-.61-.49-1.1-1.1-1.1h-8.34c-.61,0-1.1.5-1.1,1.1v16.39H3.68V17.73ZM15.75,54.95h6.14v16.02h-6.14v-16.02ZM68.39,31.81v38.43h-10.58v-16.39c0-.61-.49-1.1-1.1-1.1h-8.34c-.61,0-1.1.5-1.1,1.1v16.39h-9.63V3.68h30.78v27.91c0,.07-.02.15-.02.22ZM49.47,70.98v-16.02h6.14v16.02h-6.14Z"/>
      <path class="cls-1" d="M51.01,10.67h-8.24c-.61,0-1.1.49-1.1,1.1v8.24c0,.61.49,1.1,1.1,1.1h8.24c.61,0,1.1-.49,1.1-1.1v-8.24c0-.61-.49-1.1-1.1-1.1ZM49.91,18.91h-6.04v-6.03h6.04v6.03Z"/>
      <path class="cls-1" d="M63.53,10.67h-8.24c-.61,0-1.1.49-1.1,1.1v8.24c0,.61.49,1.1,1.1,1.1h8.24c.61,0,1.1-.49,1.1-1.1v-8.24c0-.61-.5-1.1-1.1-1.1ZM62.42,18.91h-6.03v-6.03h6.03v6.03Z"/>
      <path class="cls-1" d="M51.01,24.16h-8.24c-.61,0-1.1.49-1.1,1.1v8.24c0,.61.49,1.1,1.1,1.1h8.24c.61,0,1.1-.49,1.1-1.1v-8.24c0-.61-.49-1.1-1.1-1.1ZM49.91,32.41h-6.04v-6.03h6.04v6.03Z"/>
      <path class="cls-1" d="M63.53,24.16h-8.24c-.61,0-1.1.49-1.1,1.1v8.24c0,.61.49,1.1,1.1,1.1h8.24c.61,0,1.1-.49,1.1-1.1v-8.24c0-.61-.5-1.1-1.1-1.1ZM62.42,32.41h-6.03v-6.03h6.03v6.03Z"/>
      <path class="cls-1" d="M51.01,37.66h-8.24c-.61,0-1.1.49-1.1,1.1v8.24c0,.61.49,1.1,1.1,1.1h8.24c.61,0,1.1-.5,1.1-1.1v-8.24c0-.61-.49-1.1-1.1-1.1ZM49.91,45.9h-6.04v-6.03h6.04v6.03Z"/>
      <path class="cls-1" d="M63.53,37.66h-8.24c-.61,0-1.1.49-1.1,1.1v8.24c0,.61.49,1.1,1.1,1.1h8.24c.61,0,1.1-.5,1.1-1.1v-8.24c0-.61-.5-1.1-1.1-1.1ZM62.42,45.9h-6.03v-6.03h6.03v6.03Z"/>
      <path class="cls-1" d="M8.44,34.62h8.24c.61,0,1.1-.49,1.1-1.1v-8.24c0-.61-.49-1.1-1.1-1.1h-8.24c-.61,0-1.1.49-1.1,1.1v8.24c0,.61.49,1.1,1.1,1.1ZM9.54,26.37h6.03v6.03h-6.03v-6.03Z"/>
      <path class="cls-1" d="M20.95,34.62h8.24c.61,0,1.1-.49,1.1-1.1v-8.24c0-.61-.49-1.1-1.1-1.1h-8.24c-.61,0-1.1.49-1.1,1.1v8.24c0,.61.49,1.1,1.1,1.1ZM22.06,26.37h6.03v6.03h-6.03v-6.03Z"/>
      <path class="cls-1" d="M16.68,48.11c.61,0,1.1-.5,1.1-1.1v-8.24c0-.61-.49-1.1-1.1-1.1h-8.24c-.61,0-1.1.49-1.1,1.1v8.24c0,.61.49,1.1,1.1,1.1h8.24ZM9.54,39.87h6.03v6.03h-6.03v-6.03Z"/>
      <path class="cls-1" d="M20.95,48.11h8.24c.61,0,1.1-.5,1.1-1.1v-8.24c0-.61-.49-1.1-1.1-1.1h-8.24c-.61,0-1.1.49-1.1,1.1v8.24c0,.61.49,1.1,1.1,1.1ZM22.06,39.87h6.03v6.03h-6.03v-6.03Z"/>
      <path class="cls-1" d="M76.83,48.11h8.24c.61,0,1.1-.5,1.1-1.1v-8.24c0-.61-.5-1.1-1.1-1.1h-8.24c-.61,0-1.1.49-1.1,1.1v8.24c0,.61.49,1.1,1.1,1.1ZM77.93,39.87h6.04v6.03h-6.04v-6.03Z"/>
      <path class="cls-1" d="M89.34,48.11h8.24c.61,0,1.1-.5,1.1-1.1v-8.24c0-.61-.49-1.1-1.1-1.1h-8.24c-.61,0-1.1.49-1.1,1.1v8.24c0,.61.5,1.1,1.1,1.1ZM90.45,39.87h6.03v6.03h-6.03v-6.03Z"/>
    </g>
  </g>
</svg>