<?xml version="1.0" encoding="UTF-8"?>
<svg id="Capa_2" data-name="Capa 2" xmlns="http://www.w3.org/2000/svg" viewBox="0 0 60.42 67.16">
  <defs>
    <style>
      .cls-1 {
        fill: #fff;
      }
    </style>
  </defs>
  <g id="Capa_1-2" data-name="Capa 1">
    <g>
      <path class="cls-1" d="M60.06,59.21l-16.45-20.25c2.68-3.51,4.35-7.69,4.82-12.19.67-6.45-1.22-12.77-5.31-17.81C34.68-1.43,19.36-3.02,8.97,5.42,3.94,9.51.8,15.32.13,21.77c-.67,6.45,1.22,12.77,5.3,17.81,4.09,5.03,9.89,8.17,16.34,8.84.85.09,1.7.13,2.55.13,3.56,0,7.02-.78,10.21-2.27l16.48,20.29c.32.39.78.59,1.25.59.36,0,.72-.12,1.02-.36l6.55-5.32c.33-.27.54-.66.59-1.08.05-.43-.08-.85-.35-1.18ZM22.11,45.21c-5.59-.58-10.63-3.3-14.17-7.67-3.55-4.37-5.18-9.85-4.6-15.44.58-5.59,3.3-10.63,7.67-14.17,3.9-3.16,8.59-4.7,13.25-4.7,6.13,0,12.21,2.66,16.36,7.77,3.54,4.36,5.18,9.85,4.6,15.44-.58,5.59-3.3,10.63-7.67,14.17-4.37,3.55-9.85,5.18-15.44,4.6ZM52.5,63.28l-15.1-18.59c.75-.49,1.48-1.01,2.19-1.58.66-.53,1.28-1.1,1.87-1.69l15.09,18.57-4.05,3.29Z"/>
      <path class="cls-1" d="M38.07,13.06c-2.99-3.68-7.24-5.98-11.96-6.47-4.72-.49-9.35.89-13.04,3.88-3.68,2.99-5.98,7.24-6.47,11.96-.49,4.72.89,9.35,3.88,13.04,3.51,4.32,8.64,6.56,13.81,6.56,3.94,0,7.9-1.3,11.19-3.97,7.61-6.18,8.77-17.39,2.59-25ZM35.57,15.09c.74.91,1.34,1.89,1.82,2.91h-3.95v-5.03c.77.63,1.49,1.33,2.13,2.12ZM38.48,27.37h-5.03v-7.21h4.79c.69,2.36.76,4.84.24,7.21ZM25.78,9.8c1.97.2,3.83.79,5.51,1.72v6.49h-7.83v-8.25c.26-.01.53-.03.79-.03.51,0,1.02.03,1.53.08ZM23.46,20.16h7.83v7.21h-7.83v-7.21ZM15.11,12.97c1.83-1.49,3.95-2.48,6.2-2.94v7.97h-7.74v-3.56c.48-.52.98-1.02,1.54-1.47ZM11.41,31.06c-.26-.5-.49-1.01-.69-1.53h.69v1.53ZM11.41,18h-.25c.08-.17.16-.35.25-.52v.52ZM13.56,20.16h7.74v7.21h-7.74v-7.21ZM9.81,22.77c.09-.89.27-1.76.52-2.61h1.08v7.21h-1.34c-.32-1.49-.43-3.04-.26-4.6ZM13.56,34.08v-4.55h7.74v8.97c-2.9-.6-5.62-2.1-7.74-4.42ZM23.46,38.77v-9.24h7.83v7.47c-2.44,1.34-5.16,1.92-7.83,1.77ZM33.45,35.56s0,0,0,0v-6.04h4.38c-.88,2.28-2.34,4.38-4.38,6.03Z"/>
    </g>
  </g>
</svg>