<?xml version="1.0" encoding="UTF-8"?>
<svg id="Capa_2" data-name="Capa 2" xmlns="http://www.w3.org/2000/svg" viewBox="0 0 53.54 57.18">
  <defs>
    <style>
      .cls-1 {
        fill: #fff;
      }
    </style>
  </defs>
  <g id="Capa_1-2" data-name="Capa 1">
    <path class="cls-1" d="M6.9,13.04l-.57.5s-.02.02-.04.03l-1.37,1.17.1.05C2.22,17.68.49,21.16.09,24.74H.09c-.07.65-.1,1.25-.09,1.81,0,.22.02.45.04.72v.12c.02.13.03.26.04.39.03.3.08.59.13.88.03.15.05.3.09.46.07.33.15.66.23.94l.02.06c.37,1.31.9,2.68,1.62,4.19.46.96,1,1.99,1.65,3.16l.74,1.33c2.16,3.88,4.61,8.29,7.79,12.83l.09.11c2.51,2.84,5.62,5.7,9.61,5.43,1.59-.11,3.18-.67,4.72-1.69,1.55,1.01,3.14,1.58,4.73,1.69.19.01.38.02.57.02,3.13,0,6.26-1.75,9.32-5.21l.06-.08c2.74-3.65,4.62-7.36,6.28-10.63.69-1.36,1.34-2.64,2-3.82.66-1.19,1.2-2.22,1.65-3.15.73-1.53,1.26-2.9,1.63-4.19v-.04c.1-.32.17-.65.24-.95.03-.15.06-.31.09-.46.05-.29.1-.59.13-.88.01-.13.02-.26.03-.38v-.16c.03-.23.04-.45.05-.68.01-.58-.02-1.17-.09-1.81-.4-3.59-2.13-7.07-4.93-9.96l.09-.05-1.37-1.16s0,0-.01,0l-.6-.53-.04.02c-2.21-1.64-4.97-2.57-7.86-2.65h-.1c-.09,0-.18-.01-.27-.01-1.86,0-3.67.36-5.38,1.06-.6.25-1.18.54-1.74.87.92-2.54,2.3-4.89,4.06-6.93.23-.27.47-.52.71-.78l.75-.78-.69-.84c-.62-.75-1.18-1.41-1.72-2.02l-.87-.99-.92.94c-1.57,1.61-2.92,3.42-4.06,5.39,0,0,0,0,0,0-1.83-3.1-5.2-5.02-8.83-4.98h-.71s-.35.62-.35.62c-1.52,2.69-1.7,5.92-.58,8.74-.95-.2-1.92-.31-2.9-.31-.09,0-.17,0-.26.01h-.1c-2.89.08-5.65,1.01-7.85,2.65l-.04-.02ZM33.43,3.63s.07.08.1.12c-.02.02-.03.04-.05.05-1.51,1.74-2.76,3.7-3.73,5.79-.01-.08-.03-.16-.05-.24.99-2.09,2.24-4.01,3.73-5.72ZM20.45,3.82c2.46.21,4.71,1.61,5.97,3.75.36.61.63,1.27.81,1.96.38,1.45.32,3.01-.18,4.45-.07,0-.15.01-.22.02-.02,0-.05,0-.07,0-.66-.03-1.3-.22-1.94-.47-.39-.15-.78-.33-1.18-.5-.18-.08-.37-.16-.55-.24-.1-.04-.2-.09-.3-.13-.18-.12-.37-.23-.57-.35-.06-.04-.13-.07-.2-.11-.11-.06-.21-.12-.33-.18-.35-.4-.63-.77-.86-1.15-1.27-2.15-1.4-4.78-.4-7.05ZM8.27,15.13s0,0,.01-.03c1.82-1.39,4.13-2.19,6.57-2.25.06,0,.13,0,.19,0,.04,0,.08,0,.11,0,1.54,0,3.04.29,4.45.88.27.11.53.24.78.37.45.23.83.45,1.15.67l.22.12c.29.12.59.25.89.39,1.19.53,2.53,1.13,4.08,1.18h.04s.04,0,.04,0c.28,0,.56-.04.84-.08l-.06.25,2.18-.87c.37-.15.74-.31,1.1-.47.3-.13.6-.27.9-.39l.22-.12c.6-.41,1.26-.76,1.94-1.04,1.41-.58,2.91-.88,4.45-.88.04,0,.08,0,.12,0,.06,0,.12,0,.18,0,2.44.06,4.75.85,6.57,2.25,0,.02.01.03.01.03,0,0,.24.45.72.6,2.88,2.65,4.66,5.93,5.03,9.29.06.53.08,1.02.07,1.49,0,.19-.02.37-.03.58v.13c-.02.1-.02.19-.03.29-.03.24-.06.49-.11.72-.02.12-.04.24-.08.38-.06.27-.12.55-.2.85-.32,1.15-.8,2.39-1.47,3.79-.42.88-.94,1.87-1.58,3.02-.68,1.22-1.34,2.52-2.04,3.9-1.61,3.17-3.43,6.76-6.03,10.23-2.7,3.04-5.34,4.51-7.86,4.33-1.36-.09-2.76-.67-4.16-1.72l-.73-.55-.73.55c-1.39,1.05-2.79,1.62-4.16,1.72-2.33.16-4.59-1.21-7.57-4.56-3.08-4.42-5.49-8.75-7.62-12.56l-.74-1.33c-.63-1.12-1.14-2.11-1.58-3.02-.66-1.38-1.14-2.62-1.46-3.75l-.02-.07c-.08-.27-.14-.55-.2-.81-.03-.13-.05-.25-.07-.39-.04-.24-.08-.48-.11-.72-.01-.09-.02-.18-.02-.27v-.18c-.03-.18-.04-.36-.04-.54,0-.46.02-.95.08-1.49.37-3.36,2.15-6.64,5.03-9.28.48-.15.72-.59.73-.6Z"/>
  </g>
</svg>