<?xml version="1.0" encoding="UTF-8"?>
<svg id="Capa_2" data-name="Capa 2" xmlns="http://www.w3.org/2000/svg" viewBox="0 0 61.65 61.7">
  <defs>
    <style>
      .cls-1 {
        fill: #fff;
        fill-rule: evenodd;
      }
    </style>
  </defs>
  <g id="Capa_1-2" data-name="Capa 1">
    <path class="cls-1" d="M39.7,45.09c-1.08.83-2.56,1.59-3.68,2.12-2.45,1.14-5.09,2.01-7.73,2.62-7.08,1.64-14.51,1.51-21.45-.75-.83-.29-2.28-1.95-2.72-2.7C1.38,41.67,0,36.8,0,31.32c0-.09,0-.19,0-.28,1.62.97,3.33,1.79,5.08,2.48,8.36,3.32,17.22,2.89,25.5-.42,4.22,3.07,7.4,7.03,9.11,11.99M11.13,54.62c6.02.99,12.2.57,18.12-.9,4.08-1.01,8.3-2.56,12.08-4.54.73,2.89.96,5.85.72,8.84v.04s0,.04,0,.04c0,.48-.19.92-.48,1.3-.14.18-.46.52-.67.6-3.25,1.13-6.66,1.69-10.1,1.69-7.23,0-14.15-2.51-19.67-7.08ZM46.47,57.43c.33-6.99-1.59-13.66-5.57-19.44-2.07-3.02-4.75-5.88-7.68-8.1-.05-.09-.12-.26-.14-.35.54-4.81,2.46-9.7,5.33-13.6.11-.02.25-.03.34-.02,3.57,1.89,6.93,4.61,9.69,7.54,4.99,5.29,8.5,11.7,10.72,18.6.03.22.01.77-.03,1-2.59,6-7.04,11.04-12.66,14.36ZM9.5,30.65c-3.11-.86-6.08-2.26-8.74-4.09-.25-.17-.38-.91-.33-1.17C2.35,14.63,9.89,5.69,20.06,1.92c-4.57,5.22-7.57,11.52-9.19,18.29-.8,3.36-1.3,6.94-1.37,10.44ZM61.1,35.59c-2.65-6.3-6.4-12.39-11.33-17.04-2.47-2.33-5.27-4.47-8.25-6.12,2.45-2.32,5.28-4.13,8.36-5.48.21.04.53.15.66.22,7.04,5.88,11.1,14.51,11.1,23.7,0,1.59-.22,3.17-.54,4.73ZM26.51.99c.99-.92,3.02-.99,4.29-.99,5.33,0,10.52,1.36,15.14,3.97-6.34,3.3-11.32,8.35-14.34,14.89-1.5,3.25-2.6,7.05-2.91,10.66-2.02,1.27-5.67,1.8-7.86,1.99-2.23.2-4.68.24-6.93,0,.02-4.32.75-8.83,2.01-12.95,2.04-6.69,5.57-12.68,10.6-17.56Z"/>
  </g>
</svg>